<?xml version="1.0" encoding="UTF-8" standalone="no"?>
<!DOCTYPE svg PUBLIC "-//W3C//DTD SVG 1.1//EN"
"http://www.w3.org/Graphics/SVG/1.1/DTD/svg11.dtd">
<svg viewBox="0 0 909 1286" version="1.1" xmlns="http://www.w3.org/2000/svg" xmlns:xlink="http://www.w3.org/1999/xlink">
<defs>
<clipPath id="c0_136"><path d="M35.1,1194.7V113.1H873.9V1194.7Z" /></clipPath>
</defs>
<g clip-path="url(#c0_136)">
<g fill="#000000" >
<use xlink:href="#f0_2" transform="matrix(12,0,0,12,47.4,149.7)" />
<use xlink:href="#f0_3" transform="matrix(12,0,0,12,57.3,149.7)" />
<use xlink:href="#f0_e" transform="matrix(12,0,0,12,63.2,149.7)" />
<use xlink:href="#f0_3" transform="matrix(12,0,0,12,80.5,149.7)" />
<use xlink:href="#f0_l" transform="matrix(12,0,0,12,86.3,149.7)" />
<use xlink:href="#f0_h" transform="matrix(12,0,0,12,92,149.7)" />
<use xlink:href="#f0_g" transform="matrix(12,0,0,12,102.3,149.7)" />
<use xlink:href="#f0_l" transform="matrix(12,0,0,12,110.9,149.7)" />
<use xlink:href="#f0_v" transform="matrix(12,0,0,12,116.6,149.7)" />
<use xlink:href="#f0_o" transform="matrix(12,0,0,12,126.9,149.7)" />
<use xlink:href="#f0_5" transform="matrix(12,0,0,12,136.3,149.7)" />
<use xlink:href="#f0_d" transform="matrix(12,0,0,12,145.3,149.7)" />
<use xlink:href="#f0_w" transform="matrix(12,0,0,12,155.9,149.7)" />
<use xlink:href="#f0_6" transform="matrix(12,0,0,12,161.6,149.7)" />
<use xlink:href="#f0_j" transform="matrix(12,0,0,12,171.4,149.7)" />
<use xlink:href="#f0_j" transform="matrix(12,0,0,12,178.1,149.7)" />
<use xlink:href="#f0_3" transform="matrix(12,0,0,12,184.9,149.7)" />
<use xlink:href="#f0_5" transform="matrix(12,0,0,12,190.7,149.7)" />
<use xlink:href="#f0_3" transform="matrix(12,0,0,12,199.8,149.7)" />
<use xlink:href="#f0_6" transform="matrix(12,0,0,12,205.6,149.7)" />
<use xlink:href="#f0_4" transform="matrix(12,0,0,12,215.4,149.7)" />
<use xlink:href="#f0_8" transform="matrix(12,0,0,12,227.2,149.7)" />
<use xlink:href="#f0_d" transform="matrix(12,0,0,12,238.4,149.7)" />
<use xlink:href="#f0_j" transform="matrix(12,0,0,12,249,149.7)" />
<use xlink:href="#f0_a" transform="matrix(12,0,0,12,260.5,149.7)" />
<use xlink:href="#f0_b" transform="matrix(12,0,0,12,268.8,149.7)" />
<use xlink:href="#f0_f" transform="matrix(12,0,0,12,280.4,149.7)" />
<use xlink:href="#f0_6" transform="matrix(12,0,0,12,291.6,149.7)" />
<use xlink:href="#f0_g" transform="matrix(12,0,0,12,301.4,149.7)" />
<use xlink:href="#f0_j" transform="matrix(12,0,0,12,310.1,149.7)" />
<use xlink:href="#f0_3" transform="matrix(12,0,0,12,316.8,149.7)" />
<use xlink:href="#f0_5" transform="matrix(12,0,0,12,322.7,149.7)" />
<use xlink:href="#f0_3" transform="matrix(12,0,0,12,331.7,149.7)" />
<use xlink:href="#f0_h" transform="matrix(12,0,0,12,337.5,149.7)" />
<use xlink:href="#f0_l" transform="matrix(12,0,0,12,347.9,149.7)" />
<use xlink:href="#f0_6" transform="matrix(12,0,0,12,358.3,149.7)" />
<use xlink:href="#f0_23" transform="matrix(12,0,0,12,368.1,149.7)" />
<use xlink:href="#f0_f" transform="matrix(12,0,0,12,378.7,149.7)" />
<use xlink:href="#f0_h" transform="matrix(12,0,0,12,389.9,149.7)" />
<use xlink:href="#f0_4" transform="matrix(12,0,0,12,400.3,149.7)" />
<use xlink:href="#f0_a" transform="matrix(12,0,0,12,412.1,149.7)" />
<use xlink:href="#f0_3" transform="matrix(12,0,0,12,420.3,149.7)" />
<use xlink:href="#f0_d" transform="matrix(12,0,0,12,426.2,149.7)" />
<use xlink:href="#f0_4" transform="matrix(12,0,0,12,436.8,149.7)" />
<use xlink:href="#f0_r" transform="matrix(12,0,0,12,453.3,149.7)" />
<use xlink:href="#f0_29" transform="matrix(12,0,0,12,468.3,149.7)" />
<use xlink:href="#f0_r" transform="matrix(12,0,0,12,484.2,149.7)" />
</g>
</g>
<image preserveAspectRatio="none" x="500" y="113" width="56" height="63" xlink:href="img/1.png" />
<g clip-path="url(#c0_136)">
<g fill="#000000" >
<use xlink:href="#f0_25" transform="matrix(12,0,0,12,47.4,216.9)" />
<use xlink:href="#f0_2" transform="matrix(12,0,0,12,58.5,216.9)" />
<use xlink:href="#f0_r" transform="matrix(12,0,0,12,73.2,216.9)" />
<use xlink:href="#f0_5" transform="matrix(12,0,0,12,88.2,216.9)" />
<use xlink:href="#f0_9" transform="matrix(12,0,0,12,97.2,216.9)" />
<use xlink:href="#f0_h" transform="matrix(12,0,0,12,108.8,216.9)" />
<use xlink:href="#f0_4" transform="matrix(12,0,0,12,119.1,216.9)" />
<use xlink:href="#f0_i" transform="matrix(12,0,0,12,131,216.9)" />
<use xlink:href="#f0_6" transform="matrix(12,0,0,12,140.8,216.9)" />
<use xlink:href="#f0_3" transform="matrix(12,0,0,12,155.4,216.9)" />
<use xlink:href="#f0_4" transform="matrix(12,0,0,12,161.2,216.9)" />
<use xlink:href="#f0_h" transform="matrix(12,0,0,12,177.8,216.9)" />
<use xlink:href="#f0_g" transform="matrix(12,0,0,12,188.1,216.9)" />
<use xlink:href="#f0_6" transform="matrix(12,0,0,12,196.7,216.9)" />
<use xlink:href="#f0_h" transform="matrix(12,0,0,12,206.5,216.9)" />
<use xlink:href="#f0_2" transform="matrix(12,0,0,12,47.4,267.4)" />
<use xlink:href="#f0_r" transform="matrix(12,0,0,12,62.1,267.4)" />
<use xlink:href="#f0_d" transform="matrix(12,0,0,12,77.1,267.4)" />
<use xlink:href="#f0_g" transform="matrix(12,0,0,12,87.6,267.4)" />
<use xlink:href="#f0_3" transform="matrix(12,0,0,12,96.3,267.4)" />
<use xlink:href="#f0_i" transform="matrix(12,0,0,12,102.1,267.4)" />
<use xlink:href="#f0_3" transform="matrix(12,0,0,12,112,267.4)" />
<use xlink:href="#f0_4" transform="matrix(12,0,0,12,117.8,267.4)" />
<use xlink:href="#f0_h" transform="matrix(12,0,0,12,129.6,267.4)" />
<use xlink:href="#f0_l" transform="matrix(12,0,0,12,139.9,267.4)" />
<use xlink:href="#f0_h" transform="matrix(12,0,0,12,150.4,267.4)" />
<use xlink:href="#f0_g" transform="matrix(12,0,0,12,160.7,267.4)" />
<use xlink:href="#f0_6" transform="matrix(12,0,0,12,169.3,267.4)" />
<use xlink:href="#f0_h" transform="matrix(12,0,0,12,179.1,267.4)" />
<use xlink:href="#f0_25" transform="matrix(12,0,0,12,47.4,317.8)" />
<use xlink:href="#f0_t" transform="matrix(12,0,0,12,58.5,317.8)" />
<use xlink:href="#f0_r" transform="matrix(12,0,0,12,74.5,317.8)" />
<use xlink:href="#f0_5" transform="matrix(12,0,0,12,89.4,317.8)" />
<use xlink:href="#f0_9" transform="matrix(12,0,0,12,98.5,317.8)" />
<use xlink:href="#f0_h" transform="matrix(12,0,0,12,110.1,317.8)" />
<use xlink:href="#f0_4" transform="matrix(12,0,0,12,120.4,317.8)" />
<use xlink:href="#f0_i" transform="matrix(12,0,0,12,132.2,317.8)" />
<use xlink:href="#f0_6" transform="matrix(12,0,0,12,142.1,317.8)" />
<use xlink:href="#f0_3" transform="matrix(12,0,0,12,156.6,317.8)" />
<use xlink:href="#f0_4" transform="matrix(12,0,0,12,162.5,317.8)" />
<use xlink:href="#f0_8" transform="matrix(12,0,0,12,179.1,317.8)" />
<use xlink:href="#f0_6" transform="matrix(12,0,0,12,185.5,317.8)" />
<use xlink:href="#f0_e" transform="matrix(12,0,0,12,195.3,317.8)" />
<use xlink:href="#f0_f" transform="matrix(12,0,0,12,212.6,317.8)" />
<use xlink:href="#f0_6" transform="matrix(12,0,0,12,223.9,317.8)" />
<use xlink:href="#f0_g" transform="matrix(12,0,0,12,233.7,317.8)" />
<use xlink:href="#f0_h" transform="matrix(12,0,0,12,242.3,317.8)" />
<use xlink:href="#f0_8" transform="matrix(12,0,0,12,252.6,317.8)" />
<use xlink:href="#f0_b" transform="matrix(12,0,0,12,259.1,317.8)" />
<use xlink:href="#f0_g" transform="matrix(12,0,0,12,270.7,317.8)" />
<use xlink:href="#f0_6" transform="matrix(12,0,0,12,279.3,317.8)" />
<use xlink:href="#f0_1j" transform="matrix(12,0,0,12,47.4,381.9)" />
<use xlink:href="#f0_d" transform="matrix(12,0,0,12,58.6,381.9)" />
<use xlink:href="#f0_w" transform="matrix(12,0,0,12,69.2,381.9)" />
<use xlink:href="#f0_6" transform="matrix(12,0,0,12,74.9,381.9)" />
<use xlink:href="#f0_j" transform="matrix(12,0,0,12,84.7,381.9)" />
<use xlink:href="#f0_j" transform="matrix(12,0,0,12,91.4,381.9)" />
<use xlink:href="#f0_3" transform="matrix(12,0,0,12,98.2,381.9)" />
<use xlink:href="#f0_5" transform="matrix(12,0,0,12,104,381.9)" />
<use xlink:href="#f0_3" transform="matrix(12,0,0,12,113.1,381.9)" />
<use xlink:href="#f0_6" transform="matrix(12,0,0,12,118.9,381.9)" />
<use xlink:href="#f0_4" transform="matrix(12,0,0,12,128.7,381.9)" />
<use xlink:href="#f0_8" transform="matrix(12,0,0,12,140.5,381.9)" />
<use xlink:href="#f0_d" transform="matrix(12,0,0,12,151.7,381.9)" />
<use xlink:href="#f0_j" transform="matrix(12,0,0,12,162.3,381.9)" />
<use xlink:href="#f0_5" transform="matrix(12,0,0,12,173.8,381.9)" />
<use xlink:href="#f0_b" transform="matrix(12,0,0,12,182.8,381.9)" />
<use xlink:href="#f0_n" transform="matrix(12,0,0,12,194.5,381.9)" />
<use xlink:href="#f0_3" transform="matrix(12,0,0,12,205.7,381.9)" />
<use xlink:href="#f0_5" transform="matrix(12,0,0,12,211.5,381.9)" />
<use xlink:href="#f0_h" transform="matrix(12,0,0,12,220.6,381.9)" />
<use xlink:href="#f0_l" transform="matrix(12,0,0,12,230.9,381.9)" />
<use xlink:href="#f0_6" transform="matrix(12,0,0,12,241.3,381.9)" />
<use xlink:href="#f0_23" transform="matrix(12,0,0,12,251.1,381.9)" />
<use xlink:href="#f0_f" transform="matrix(12,0,0,12,261.7,381.9)" />
<use xlink:href="#f0_h" transform="matrix(12,0,0,12,273,381.9)" />
<use xlink:href="#f0_4" transform="matrix(12,0,0,12,283.3,381.9)" />
<use xlink:href="#f0_a" transform="matrix(12,0,0,12,295.1,381.9)" />
<use xlink:href="#f0_3" transform="matrix(12,0,0,12,303.4,381.9)" />
<use xlink:href="#f0_d" transform="matrix(12,0,0,12,309.2,381.9)" />
<use xlink:href="#f0_4" transform="matrix(12,0,0,12,319.8,381.9)" />
<use xlink:href="#f0_o" transform="matrix(12,0,0,12,331.6,381.9)" />
<use xlink:href="#f0_r" transform="matrix(12,0,0,12,340.9,381.9)" />
<use xlink:href="#f0_q" transform="matrix(12,0,0,12,355.9,381.9)" />
<use xlink:href="#f0_r" transform="matrix(12,0,0,12,372.1,381.9)" />
</g>
</g>
<image preserveAspectRatio="none" x="387" y="345" width="59" height="63" xlink:href="img/2.png" />
<g clip-path="url(#c0_136)">
<g fill="#000000" >
<use xlink:href="#f0_25" transform="matrix(12,0,0,12,47.4,449.2)" />
<use xlink:href="#f0_p" transform="matrix(12,0,0,12,58.5,449.2)" />
<use xlink:href="#f0_r" transform="matrix(12,0,0,12,75.6,449.2)" />
<use xlink:href="#f0_5" transform="matrix(12,0,0,12,90.6,449.2)" />
<use xlink:href="#f0_9" transform="matrix(12,0,0,12,99.6,449.2)" />
<use xlink:href="#f0_h" transform="matrix(12,0,0,12,111.2,449.2)" />
<use xlink:href="#f0_4" transform="matrix(12,0,0,12,121.6,449.2)" />
<use xlink:href="#f0_i" transform="matrix(12,0,0,12,133.4,449.2)" />
<use xlink:href="#f0_6" transform="matrix(12,0,0,12,143.2,449.2)" />
<use xlink:href="#f0_3" transform="matrix(12,0,0,12,157.8,449.2)" />
<use xlink:href="#f0_4" transform="matrix(12,0,0,12,163.6,449.2)" />
<use xlink:href="#f0_11" transform="matrix(12,0,0,12,180.2,449.2)" />
<use xlink:href="#f0_d" transform="matrix(12,0,0,12,190.8,449.2)" />
<use xlink:href="#f0_l" transform="matrix(12,0,0,12,201.4,449.2)" />
<use xlink:href="#f0_b" transform="matrix(12,0,0,12,207.1,449.2)" />
<use xlink:href="#f0_e" transform="matrix(12,0,0,12,218.7,449.2)" />
<use xlink:href="#f0_6" transform="matrix(12,0,0,12,236,449.2)" />
<use xlink:href="#f0_p" transform="matrix(12,0,0,12,47.4,499.6)" />
<use xlink:href="#f0_r" transform="matrix(12,0,0,12,64.5,499.6)" />
<use xlink:href="#f0_d" transform="matrix(12,0,0,12,79.5,499.6)" />
<use xlink:href="#f0_g" transform="matrix(12,0,0,12,90,499.6)" />
<use xlink:href="#f0_3" transform="matrix(12,0,0,12,98.7,499.6)" />
<use xlink:href="#f0_i" transform="matrix(12,0,0,12,104.5,499.6)" />
<use xlink:href="#f0_3" transform="matrix(12,0,0,12,114.4,499.6)" />
<use xlink:href="#f0_4" transform="matrix(12,0,0,12,120.2,499.6)" />
<use xlink:href="#f0_h" transform="matrix(12,0,0,12,132,499.6)" />
<use xlink:href="#f0_l" transform="matrix(12,0,0,12,142.3,499.6)" />
<use xlink:href="#f0_11" transform="matrix(12,0,0,12,152.8,499.6)" />
<use xlink:href="#f0_d" transform="matrix(12,0,0,12,163.4,499.6)" />
<use xlink:href="#f0_l" transform="matrix(12,0,0,12,174,499.6)" />
<use xlink:href="#f0_b" transform="matrix(12,0,0,12,179.6,499.6)" />
<use xlink:href="#f0_e" transform="matrix(12,0,0,12,191.3,499.6)" />
<use xlink:href="#f0_6" transform="matrix(12,0,0,12,208.6,499.6)" />
<use xlink:href="#f0_25" transform="matrix(12,0,0,12,47.4,550)" />
<use xlink:href="#f0_t" transform="matrix(12,0,0,12,58.5,550)" />
<use xlink:href="#f0_r" transform="matrix(12,0,0,12,74.5,550)" />
<use xlink:href="#f0_5" transform="matrix(12,0,0,12,89.4,550)" />
<use xlink:href="#f0_9" transform="matrix(12,0,0,12,98.5,550)" />
<use xlink:href="#f0_h" transform="matrix(12,0,0,12,110.1,550)" />
<use xlink:href="#f0_4" transform="matrix(12,0,0,12,120.4,550)" />
<use xlink:href="#f0_i" transform="matrix(12,0,0,12,132.2,550)" />
<use xlink:href="#f0_6" transform="matrix(12,0,0,12,142.1,550)" />
<use xlink:href="#f0_3" transform="matrix(12,0,0,12,156.6,550)" />
<use xlink:href="#f0_4" transform="matrix(12,0,0,12,162.5,550)" />
<use xlink:href="#f0_8" transform="matrix(12,0,0,12,179.1,550)" />
<use xlink:href="#f0_6" transform="matrix(12,0,0,12,185.5,550)" />
<use xlink:href="#f0_e" transform="matrix(12,0,0,12,195.3,550)" />
<use xlink:href="#f0_f" transform="matrix(12,0,0,12,212.6,550)" />
<use xlink:href="#f0_6" transform="matrix(12,0,0,12,223.9,550)" />
<use xlink:href="#f0_g" transform="matrix(12,0,0,12,233.7,550)" />
<use xlink:href="#f0_h" transform="matrix(12,0,0,12,242.3,550)" />
<use xlink:href="#f0_8" transform="matrix(12,0,0,12,252.6,550)" />
<use xlink:href="#f0_b" transform="matrix(12,0,0,12,259.1,550)" />
<use xlink:href="#f0_g" transform="matrix(12,0,0,12,270.7,550)" />
<use xlink:href="#f0_6" transform="matrix(12,0,0,12,279.3,550)" />
<use xlink:href="#f0_m" transform="matrix(12,0,0,12,289.1,550)" />
<use xlink:href="#f0_1r" transform="matrix(12,0,0,12,47.4,600.4)" />
<use xlink:href="#f0_d" transform="matrix(12,0,0,12,61.3,600.4)" />
<use xlink:href="#f0_17" transform="matrix(12,0,0,12,71.9,600.4)" />
<use xlink:href="#f0_o" transform="matrix(12,0,0,12,87.7,600.4)" />
<use xlink:href="#f0_25" transform="matrix(12,0,0,12,97,600.4)" />
<use xlink:href="#f0_1n" transform="matrix(12,0,0,12,108.2,600.4)" />
<use xlink:href="#f0_r" transform="matrix(12,0,0,12,119.6,600.4)" />
<use xlink:href="#f0_1t" transform="matrix(12,0,0,12,129.8,600.4)" />
<use xlink:href="#f0_1n" transform="matrix(12,0,0,12,141,600.4)" />
<use xlink:href="#f0_25" transform="matrix(12,0,0,12,157.2,600.4)" />
<use xlink:href="#f0_t" transform="matrix(12,0,0,12,168.3,600.4)" />
<use xlink:href="#f0_1n" transform="matrix(12,0,0,12,47.4,650.8)" />
<use xlink:href="#f0_1k" transform="matrix(12,0,0,12,63.5,650.8)" />
<use xlink:href="#f0_25" transform="matrix(12,0,0,12,78.5,650.8)" />
<use xlink:href="#f0_1n" transform="matrix(12,0,0,12,89.6,650.8)" />
<use xlink:href="#f0_r" transform="matrix(12,0,0,12,105.8,650.8)" />
<use xlink:href="#f0_1n" transform="matrix(12,0,0,12,120.8,650.8)" />
<use xlink:href="#f0_1k" transform="matrix(12,0,0,12,137,650.8)" />
<use xlink:href="#f0_1t" transform="matrix(12,0,0,12,151.9,650.8)" />
<use xlink:href="#f0_1n" transform="matrix(12,0,0,12,163.1,650.8)" />
<use xlink:href="#f0_25" transform="matrix(12,0,0,12,179.3,650.8)" />
<use xlink:href="#f0_t" transform="matrix(12,0,0,12,190.4,650.8)" />
<use xlink:href="#f0_1n" transform="matrix(12,0,0,12,47.4,701.3)" />
<use xlink:href="#f0_1k" transform="matrix(12,0,0,12,63.5,701.3)" />
<use xlink:href="#f0_25" transform="matrix(12,0,0,12,78.5,701.3)" />
<use xlink:href="#f0_1n" transform="matrix(12,0,0,12,89.6,701.3)" />
<use xlink:href="#f0_r" transform="matrix(12,0,0,12,105.8,701.3)" />
<use xlink:href="#f0_1n" transform="matrix(12,0,0,12,120.8,701.3)" />
<use xlink:href="#f0_12" transform="matrix(12,0,0,12,137,701.3)" />
<use xlink:href="#f0_x" transform="matrix(12,0,0,12,143.3,701.3)" />
<use xlink:href="#f0_1k" transform="matrix(12,0,0,12,153.5,701.3)" />
<use xlink:href="#f0_1t" transform="matrix(12,0,0,12,163.8,701.3)" />
<use xlink:href="#f0_25" transform="matrix(12,0,0,12,175,701.3)" />
<use xlink:href="#f0_t" transform="matrix(12,0,0,12,186.1,701.3)" />
<use xlink:href="#f0_14" transform="matrix(12,0,0,12,197.3,701.3)" />
<use xlink:href="#f1_3" transform="matrix(12,0,0,12,208.4,701.3)" />
<use xlink:href="#f0_12" transform="matrix(12,0,0,12,228.5,701.3)" />
<use xlink:href="#f0_x" transform="matrix(12,0,0,12,234.8,701.3)" />
<use xlink:href="#f0_14" transform="matrix(12,0,0,12,245,701.3)" />
<use xlink:href="#f0_2" transform="matrix(12,0,0,12,47.4,751.7)" />
<use xlink:href="#f0_3" transform="matrix(12,0,0,12,57.3,751.7)" />
<use xlink:href="#f0_e" transform="matrix(12,0,0,12,63.2,751.7)" />
<use xlink:href="#f0_3" transform="matrix(12,0,0,12,80.5,751.7)" />
<use xlink:href="#f0_l" transform="matrix(12,0,0,12,86.3,751.7)" />
<use xlink:href="#f0_h" transform="matrix(12,0,0,12,92,751.7)" />
<use xlink:href="#f0_g" transform="matrix(12,0,0,12,102.3,751.7)" />
<use xlink:href="#f0_l" transform="matrix(12,0,0,12,110.9,751.7)" />
<use xlink:href="#f0_v" transform="matrix(12,0,0,12,116.6,751.7)" />
<use xlink:href="#f0_p" transform="matrix(12,0,0,12,131.7,751.7)" />
<use xlink:href="#f0_1k" transform="matrix(12,0,0,12,144.1,751.7)" />
<use xlink:href="#f0_25" transform="matrix(12,0,0,12,159.1,751.7)" />
<use xlink:href="#f0_p" transform="matrix(12,0,0,12,170.2,751.7)" />
<use xlink:href="#f0_r" transform="matrix(12,0,0,12,187.3,751.7)" />
<use xlink:href="#f0_p" transform="matrix(12,0,0,12,202.3,751.7)" />
<use xlink:href="#f0_12" transform="matrix(12,0,0,12,219.4,751.7)" />
<use xlink:href="#f0_x" transform="matrix(12,0,0,12,225.7,751.7)" />
<use xlink:href="#f0_1k" transform="matrix(12,0,0,12,236,751.7)" />
<use xlink:href="#f0_q" transform="matrix(12,0,0,12,246.2,751.7)" />
<use xlink:href="#f0_25" transform="matrix(12,0,0,12,257.7,751.7)" />
<use xlink:href="#f0_t" transform="matrix(12,0,0,12,268.8,751.7)" />
<use xlink:href="#f0_14" transform="matrix(12,0,0,12,280,751.7)" />
<use xlink:href="#f1_3" transform="matrix(12,0,0,12,291.1,751.7)" />
<use xlink:href="#f0_12" transform="matrix(12,0,0,12,306.4,751.7)" />
<use xlink:href="#f0_z" transform="matrix(12,0,0,12,312.8,751.7)" />
<use xlink:href="#f0_14" transform="matrix(12,0,0,12,323,751.7)" />
<use xlink:href="#f0_18" transform="matrix(12,0,0,12,47.4,802.1)" />
<use xlink:href="#f0_4" transform="matrix(12,0,0,12,60.3,802.1)" />
<use xlink:href="#f0_c" transform="matrix(12,0,0,12,72.1,802.1)" />
<use xlink:href="#f0_2" transform="matrix(12,0,0,12,88.1,802.1)" />
<use xlink:href="#f0_1k" transform="matrix(12,0,0,12,98,802.1)" />
<use xlink:href="#f0_25" transform="matrix(12,0,0,12,108.3,802.1)" />
<use xlink:href="#f0_2" transform="matrix(12,0,0,12,119.4,802.1)" />
<use xlink:href="#f0_r" transform="matrix(12,0,0,12,129.4,802.1)" />
<use xlink:href="#f0_2" transform="matrix(12,0,0,12,139.6,802.1)" />
<use xlink:href="#f0_12" transform="matrix(12,0,0,12,154.3,802.1)" />
<use xlink:href="#f0_x" transform="matrix(12,0,0,12,160.6,802.1)" />
<use xlink:href="#f0_1k" transform="matrix(12,0,0,12,170.9,802.1)" />
<use xlink:href="#f0_29" transform="matrix(12,0,0,12,181.1,802.1)" />
<use xlink:href="#f0_25" transform="matrix(12,0,0,12,192.2,802.1)" />
<use xlink:href="#f0_t" transform="matrix(12,0,0,12,203.4,802.1)" />
<use xlink:href="#f0_14" transform="matrix(12,0,0,12,214.6,802.1)" />
<use xlink:href="#f1_3" transform="matrix(12,0,0,12,225.7,802.1)" />
<use xlink:href="#f0_12" transform="matrix(12,0,0,12,245.8,802.1)" />
<use xlink:href="#f0_19" transform="matrix(12,0,0,12,252.1,802.1)" />
<use xlink:href="#f0_14" transform="matrix(12,0,0,12,262.3,802.1)" />
<use xlink:href="#f0_18" transform="matrix(12,0,0,12,47.4,858.6)" />
<use xlink:href="#f0_l" transform="matrix(12,0,0,12,60.3,858.6)" />
<use xlink:href="#f0_a" transform="matrix(12,0,0,12,66,858.6)" />
<use xlink:href="#f0_d" transform="matrix(12,0,0,12,74.2,858.6)" />
<use xlink:href="#f0_o" transform="matrix(12,0,0,12,84.8,858.6)" />
<use xlink:href="#f0_12" transform="matrix(12,0,0,12,94.1,858.6)" />
<use xlink:href="#f0_p" transform="matrix(12,0,0,12,100.5,858.6)" />
<use xlink:href="#f0_1k" transform="matrix(12,0,0,12,112.8,858.6)" />
<use xlink:href="#f0_25" transform="matrix(12,0,0,12,123.1,858.6)" />
<use xlink:href="#f0_p" transform="matrix(12,0,0,12,134.2,858.6)" />
<use xlink:href="#f0_14" transform="matrix(12,0,0,12,146.5,858.6)" />
<use xlink:href="#f0_r" transform="matrix(12,0,0,12,157.6,858.6)" />
<use xlink:href="#f0_12" transform="matrix(12,0,0,12,172.6,858.6)" />
<use xlink:href="#f0_1n" transform="matrix(12,0,0,12,178.9,858.6)" />
<use xlink:href="#f0_1k" transform="matrix(12,0,0,12,190.4,858.6)" />
<use xlink:href="#f0_25" transform="matrix(12,0,0,12,200.6,858.6)" />
<use xlink:href="#f0_1n" transform="matrix(12,0,0,12,211.7,858.6)" />
<use xlink:href="#f0_14" transform="matrix(12,0,0,12,223.1,858.6)" />
<use xlink:href="#f0_19" transform="matrix(10,0,0,10,229.5,851)" />
<use xlink:href="#f0_p" transform="matrix(12,0,0,12,47.4,915.1)" />
<use xlink:href="#f0_1k" transform="matrix(12,0,0,12,59.7,915.1)" />
<use xlink:href="#f0_25" transform="matrix(12,0,0,12,70,915.1)" />
<use xlink:href="#f0_p" transform="matrix(12,0,0,12,81.1,915.1)" />
<use xlink:href="#f0_r" transform="matrix(12,0,0,12,98.2,915.1)" />
</g>
</g>
<image preserveAspectRatio="none" x="113" y="886" width="148" height="49" xlink:href="img/3.png" />
<g clip-path="url(#c0_136)">
<g fill="#000000" >
<use xlink:href="#f0_p" transform="matrix(12,0,0,12,47.4,982.4)" />
<use xlink:href="#f0_1k" transform="matrix(12,0,0,12,59.7,982.4)" />
<use xlink:href="#f0_25" transform="matrix(12,0,0,12,70,982.4)" />
<use xlink:href="#f0_p" transform="matrix(12,0,0,12,81.1,982.4)" />
<use xlink:href="#f0_r" transform="matrix(12,0,0,12,98.2,982.4)" />
<use xlink:href="#f0_1n" transform="matrix(12,0,0,12,113.2,982.4)" />
<use xlink:href="#f0_19" transform="matrix(10,0,0,10,124.6,974.7)" />
</g>
</g>
<image preserveAspectRatio="none" x="138" y="955" width="282" height="44" xlink:href="img/4.png" />
<g clip-path="url(#c0_136)">
<g fill="#000000" >
<use xlink:href="#f0_2" transform="matrix(12,0,0,12,47.4,1046.5)" />
<use xlink:href="#f0_3" transform="matrix(12,0,0,12,57.3,1046.5)" />
<use xlink:href="#f0_4" transform="matrix(12,0,0,12,63.2,1046.5)" />
<use xlink:href="#f0_5" transform="matrix(12,0,0,12,75,1046.5)" />
<use xlink:href="#f0_6" transform="matrix(12,0,0,12,84,1046.5)" />
<use xlink:href="#f0_1t" transform="matrix(12,0,0,12,98.6,1046.5)" />
<use xlink:href="#f0_z" transform="matrix(10,0,0,10,109.8,1038.9)" />
<use xlink:href="#f0_o" transform="matrix(12,0,0,12,118.3,1046.5)" />
<use xlink:href="#f0_1t" transform="matrix(12,0,0,12,127.6,1046.5)" />
<use xlink:href="#f0_19" transform="matrix(10,0,0,10,138.8,1038.9)" />
<use xlink:href="#f0_h" transform="matrix(12,0,0,12,152.1,1046.5)" />
<use xlink:href="#f0_g" transform="matrix(12,0,0,12,162.4,1046.5)" />
<use xlink:href="#f0_6" transform="matrix(12,0,0,12,171,1046.5)" />
<use xlink:href="#f0_4" transform="matrix(12,0,0,12,185.6,1046.5)" />
<use xlink:href="#f0_6" transform="matrix(12,0,0,12,197.4,1046.5)" />
<use xlink:href="#f0_i" transform="matrix(12,0,0,12,207.2,1046.5)" />
<use xlink:href="#f0_l" transform="matrix(12,0,0,12,217.1,1046.5)" />
<use xlink:href="#f0_3" transform="matrix(12,0,0,12,222.7,1046.5)" />
<use xlink:href="#f0_i" transform="matrix(12,0,0,12,228.6,1046.5)" />
<use xlink:href="#f0_3" transform="matrix(12,0,0,12,238.5,1046.5)" />
<use xlink:href="#f0_n" transform="matrix(12,0,0,12,244.3,1046.5)" />
<use xlink:href="#f0_l" transform="matrix(12,0,0,12,255.5,1046.5)" />
<use xlink:href="#f0_6" transform="matrix(12,0,0,12,261.2,1046.5)" />
<use xlink:href="#f0_o" transform="matrix(12,0,0,12,271,1046.5)" />
<use xlink:href="#f0_a" transform="matrix(12,0,0,12,280.4,1046.5)" />
<use xlink:href="#f0_d" transform="matrix(12,0,0,12,288.6,1046.5)" />
<use xlink:href="#f0_o" transform="matrix(12,0,0,12,299.2,1046.5)" />
<use xlink:href="#f0_p" transform="matrix(12,0,0,12,47.4,1103.1)" />
<use xlink:href="#f0_1k" transform="matrix(12,0,0,12,59.7,1103.1)" />
<use xlink:href="#f0_2a" transform="matrix(12,0,0,12,70,1103.1)" />
<use xlink:href="#f0_p" transform="matrix(12,0,0,12,85.2,1103.1)" />
<use xlink:href="#f0_25" transform="matrix(12,0,0,12,97.6,1103.1)" />
<use xlink:href="#f0_t" transform="matrix(12,0,0,12,108.7,1103.1)" />
<use xlink:href="#f0_r" transform="matrix(12,0,0,12,120,1103.1)" />
<use xlink:href="#f0_p" transform="matrix(12,0,0,12,134.9,1103.1)" />
<use xlink:href="#f0_12" transform="matrix(12,0,0,12,147.3,1103.1)" />
<use xlink:href="#f0_x" transform="matrix(12,0,0,12,153.6,1103.1)" />
<use xlink:href="#f0_1k" transform="matrix(12,0,0,12,163.9,1103.1)" />
<use xlink:href="#f0_19" transform="matrix(12,0,0,12,174.1,1103.1)" />
<use xlink:href="#f0_1t" transform="matrix(12,0,0,12,184.4,1103.1)" />
<use xlink:href="#f0_25" transform="matrix(12,0,0,12,195.6,1103.1)" />
<use xlink:href="#f0_t" transform="matrix(12,0,0,12,206.7,1103.1)" />
<use xlink:href="#f0_14" transform="matrix(12,0,0,12,217.9,1103.1)" />
<use xlink:href="#f0_2b" transform="matrix(12,0,0,12,229,1103.1)" />
<use xlink:href="#f0_h" transform="matrix(12,0,0,12,235.5,1103.1)" />
<use xlink:href="#f0_a" transform="matrix(12,0,0,12,245.9,1103.1)" />
<use xlink:href="#f0_1n" transform="matrix(12,0,0,12,258.9,1103.1)" />
<use xlink:href="#f0_19" transform="matrix(10,0,0,10,270.3,1095.4)" />
<use xlink:href="#f0_r" transform="matrix(12,0,0,12,278.8,1103.1)" />
<use xlink:href="#f0_p" transform="matrix(12,0,0,12,289,1103.1)" />
<use xlink:href="#f0_2c" transform="matrix(12,0,0,12,301.4,1103.1)" />
<use xlink:href="#f0_2" transform="matrix(12,0,0,12,47.4,1153.5)" />
<use xlink:href="#f0_d" transform="matrix(12,0,0,12,57.3,1153.5)" />
<use xlink:href="#f0_o" transform="matrix(12,0,0,12,67.9,1153.5)" />
<use xlink:href="#f0_p" transform="matrix(12,0,0,12,77.2,1153.5)" />
<use xlink:href="#f0_1k" transform="matrix(12,0,0,12,89.6,1153.5)" />
<use xlink:href="#f0_2a" transform="matrix(12,0,0,12,99.8,1153.5)" />
<use xlink:href="#f0_p" transform="matrix(12,0,0,12,110.4,1153.5)" />
<use xlink:href="#f0_25" transform="matrix(12,0,0,12,122.7,1153.5)" />
<use xlink:href="#f0_t" transform="matrix(12,0,0,12,133.8,1153.5)" />
<use xlink:href="#f0_r" transform="matrix(12,0,0,12,149.8,1153.5)" />
<use xlink:href="#f0_p" transform="matrix(12,0,0,12,164.8,1153.5)" />
<use xlink:href="#f0_1k" transform="matrix(12,0,0,12,177.2,1153.5)" />
<use xlink:href="#f0_p" transform="matrix(12,0,0,12,187.4,1153.5)" />
<use xlink:href="#f0_19" transform="matrix(12,0,0,12,199.8,1153.5)" />
<use xlink:href="#f0_1t" transform="matrix(12,0,0,12,210,1153.5)" />
<use xlink:href="#f0_25" transform="matrix(12,0,0,12,221.2,1153.5)" />
<use xlink:href="#f0_t" transform="matrix(12,0,0,12,232.3,1153.5)" />
</g>
</g>
<g fill="#000000" >
<use xlink:href="#f2_l" transform="matrix(12,0,0,12,835.7,1269.6)" />
<use xlink:href="#f2_p" transform="matrix(12,0,0,12,844.9,1269.6)" />
</g>
<defs>
<path d="M382,-14c-2,0,-3,0,-5,0c0,0,-75,0,-131,15c0,0,-57,15,-95,44c0,0,-40,27,-58,68c0,0,-20,38,-20,87c0,0,0,45,29,75c0,0,29,27,82,28c0,0,0,-49,13,-92c0,0,12,-44,36,-77c0,0,24,-34,64,-54c0,0,38,-20,92,-20c6,0,104,0,161,50c0,0,58,49,58,142c0,0,0,41,-12,74c0,0,-13,31,-39,60c0,0,-29,26,-73,52c0,0,-46,24,-113,52c0,0,-71,29,-123,63c0,0,-54,32,-88,74c0,0,-36,39,-53,90c0,0,-17,50,-17,113c0,0,0,65,26,117c0,0,24,51,69,87c0,0,44,34,106,54c0,0,60,18,133,18c0,0,68,0,122,-14c0,0,52,-15,90,-38c0,0,36,-25,56,-54c0,0,18,-32,18,-65c0,0,0,-50,-32,-74c0,0,-33,-26,-86,-26c0,0,-1,1,-2,1c0,0,-1,35,-8,70c0,0,-9,34,-29,62c0,0,-21,27,-53,44c0,0,-34,17,-81,17c0,0,-45,0,-79,-11c0,0,-36,-13,-59,-36c0,0,-24,-23,-36,-55c0,0,-13,-33,-13,-71c0,0,-1,-47,12,-80c0,0,12,-35,40,-63c0,0,27,-28,73,-53c0,0,46,-26,112,-52c0,0,67,-28,120,-58c0,0,52,-32,89,-68c0,0,37,-39,56,-84c0,0,19,-47,19,-106c0,0,0,-73,-26,-129c0,0,-27,-59,-76,-97C651,66,602,26,533,6c0,0,-67,-20,-151,-20Z" 
id="f0_2"
transform="scale(0.001,-0.001)" />

<path d="M35,0V64H55c0,0,25,0,49,4c0,0,22,3,39,13c0,0,17,10,28,32c0,0,10,20,10,53V650c0,0,0,33,-10,55c0,0,-11,20,-28,31c0,0,-17,11,-39,15c0,0,-24,3,-49,4H51v64H324V174c0,0,0,-37,10,-58c0,0,10,-21,27,-32c0,0,16,-13,40,-16c0,0,22,-4,48,-4h20V0ZM249,972c-1,0,-2,0,-3,0c0,0,-1,0,-2,0c-5,0,-20,0,-32,5c0,0,-16,5,-28,16c0,0,-12,11,-18,29c0,0,-7,18,-7,45c0,0,0,27,7,45c0,0,6,17,18,29c0,0,12,11,28,15c0,0,15,5,34,5c0,0,18,0,34,-5c0,0,15,-4,27,-15c0,0,11,-12,19,-29c0,0,7,-18,7,-45c0,0,0,-27,-7,-45c0,0,-8,-18,-19,-29c0,0,-12,-11,-27,-16c0,0,-14,-5,-31,-5Z" 
id="f0_3"
transform="scale(0.001,-0.001)" />

<path d="M43,0V64H63c0,0,25,0,47,4c0,0,21,3,38,16c0,0,15,11,24,32c0,0,8,21,9,58V650c0,0,0,33,-9,55c0,0,-9,20,-25,31c0,0,-16,11,-37,15c0,0,-22,3,-47,4H58v64H298L318,695h7c0,0,23,42,49,70c0,0,25,27,54,43c0,0,28,14,61,21c0,0,31,5,67,5c0,0,36,0,71,-7c0,0,33,-9,62,-24c0,0,28,-17,52,-43c0,0,21,-27,36,-65h13c0,0,23,42,50,70c0,0,27,27,57,43c0,0,30,14,64,21c0,0,32,5,68,5c0,0,59,-1,105,-17c0,0,45,-18,78,-54c0,0,32,-37,49,-93c0,0,17,-58,18,-135V174c0,0,0,-37,9,-58c0,0,9,-21,24,-32c0,0,16,-13,37,-16c0,0,21,-4,47,-4h5V0H1135V527c0,0,0,50,-8,89c0,0,-9,39,-27,66c0,0,-21,26,-50,41c0,0,-32,13,-75,13c0,0,-48,0,-80,-18c0,0,-33,-19,-53,-50c0,0,-21,-31,-28,-72c0,0,-9,-42,-9,-87V174c0,0,0,-37,9,-58c0,0,9,-21,24,-32c0,0,16,-13,38,-16c0,0,21,-4,47,-4h4V0H662V527c0,0,-1,50,-9,89c0,0,-8,39,-27,66c0,0,-20,26,-50,41c0,0,-31,13,-75,13c0,0,-50,0,-83,-20c0,0,-35,-20,-55,-54c0,0,-22,-35,-30,-79c0,0,-9,-45,-9,-94V166c0,0,0,-33,10,-53c0,0,10,-22,27,-32c0,0,16,-10,40,-13c0,0,22,-4,48,-4h5V0Z" 
id="f0_e"
transform="scale(0.001,-0.001)" />

<path d="M20,0V64H40c0,0,25,0,49,4c0,0,22,3,39,16c0,0,17,11,27,32c0,0,10,21,10,58V993c0,0,0,33,-10,54c0,0,-11,21,-27,32c0,0,-18,11,-40,15c0,0,-24,3,-48,3H20v64H309V174c0,0,-1,-37,10,-58c0,0,9,-21,26,-32c0,0,17,-13,41,-16c0,0,22,-4,48,-4h20V0Z" 
id="f0_l"
transform="scale(0.001,-0.001)" />

<path d="M348,79c0,0,46,0,85,15c0,0,36,14,64,42c0,0,25,27,40,66c0,0,14,39,14,87V412H454c0,0,-65,0,-109,-14c0,0,-44,-13,-70,-36c0,0,-27,-25,-39,-59c0,0,-12,-35,-11,-80c0,0,0,-73,30,-108c0,0,29,-36,93,-36ZM313,-14c0,0,-50,0,-94,14c0,0,-44,14,-75,45c0,0,-33,30,-50,77c0,0,-18,47,-18,109c0,0,0,123,87,182c0,0,85,59,261,60H551v93c0,0,0,42,-4,78c0,0,-5,34,-20,60c0,0,-15,26,-42,40c0,0,-28,14,-75,14c0,0,-44,0,-71,-12c0,0,-29,-13,-43,-35c0,0,-16,-23,-21,-53c0,0,-6,-31,-5,-66c0,0,-64,0,-96,21c0,0,-34,21,-34,75c0,0,0,39,22,67c0,0,21,28,60,45c0,0,36,17,87,26c0,0,49,7,107,8c0,0,69,0,122,-13c0,0,52,-15,87,-46c0,0,34,-31,53,-81c0,0,17,-52,17,-124V174c0,0,0,-33,5,-53c0,0,6,-22,17,-34c0,0,10,-12,30,-18c0,0,15,-5,38,-5c2,0,3,0,5,0h4V0H588L564,131H551c0,0,-24,-33,-46,-59c0,0,-22,-27,-49,-46C456,26,429,6,395,-3c0,0,-35,-11,-82,-11Z" 
id="f0_h"
transform="scale(0.001,-0.001)" />

<path d="M51,0V64h4c0,0,26,0,49,4c0,0,23,3,40,16c0,0,16,11,27,32c0,0,10,21,10,58V650c0,0,0,33,-10,55c0,0,-11,20,-28,31c0,0,-17,11,-39,15c0,0,-24,3,-49,4H51v64H286L315,668h7c0,0,14,34,31,65c0,0,15,29,39,53c0,0,22,22,56,35c0,0,33,12,84,13c0,0,83,0,124,-29c0,0,41,-30,41,-82c0,0,0,-24,-8,-44c0,0,-9,-20,-25,-34c0,0,-17,-15,-44,-23c0,0,-27,-8,-66,-8c0,0,0,63,-18,92c0,0,-18,27,-62,27c0,0,-29,0,-51,-15c0,0,-22,-18,-39,-43c0,0,-17,-27,-28,-61c0,0,-13,-35,-19,-70c0,0,-8,-37,-10,-73c0,0,-4,-35,-3,-64V166c0,0,0,-33,10,-53c0,0,10,-22,27,-32c0,0,16,-10,40,-13c0,0,22,-4,48,-4h43V0Z" 
id="f0_g"
transform="scale(0.001,-0.001)" />

<path d="M58,-366v72h1c8,0,79,1,133,23c0,0,55,24,97,64c0,0,39,40,68,95c0,0,26,55,45,118L119,674c0,0,-10,23,-20,39c0,0,-10,14,-21,25c0,0,-13,9,-29,13c0,0,-17,3,-39,4H6v64H373V755h-4c0,0,-47,0,-69,-18c0,0,-24,-18,-23,-56c0,0,-1,-13,3,-25c0,0,2,-14,9,-31L401,353c0,0,9,-27,22,-57c0,0,11,-31,22,-61c0,0,9,-31,18,-57c0,0,7,-28,11,-47h4c0,0,8,34,23,82c0,0,14,48,34,103L637,614c0,0,7,19,11,36c0,0,2,16,2,30c0,0,0,38,-24,57c0,0,-26,18,-76,18h-5v64H863V755h-4c0,0,-23,0,-38,-5c0,0,-18,-6,-30,-18c0,0,-13,-14,-24,-37c0,0,-11,-24,-25,-59L510,-5c0,0,-27,-74,-50,-130c0,0,-25,-56,-50,-95c0,0,-27,-41,-57,-67c0,0,-32,-26,-71,-41c0,0,-40,-17,-91,-22c0,0,-51,-6,-119,-6Z" 
id="f0_v"
transform="scale(0.001,-0.001)" />

<path d="M46,-234v64c0,0,74,23,110,58c0,0,34,35,35,79c0,0,-1,15,-8,26c0,0,-9,8,-21,17c0,0,-13,6,-27,15c0,0,-15,7,-27,18c0,0,-13,9,-21,26c0,0,-8,14,-8,38c0,0,0,43,29,67c0,0,28,23,71,23c0,0,23,-1,45,-8c0,0,20,-9,37,-26c0,0,16,-17,26,-41c0,0,9,-27,9,-58c0,0,0,-48,-13,-93c0,0,-14,-46,-44,-84c0,0,-30,-40,-77,-70c0,0,-49,-31,-116,-51Z" 
id="f0_o"
transform="scale(0.001,-0.001)" />

<path d="M433,-14c0,0,-77,0,-141,23c0,0,-64,23,-110,74c0,0,-46,50,-72,130c0,0,-26,79,-26,192c0,0,0,122,26,205c0,0,26,82,72,132c0,0,46,49,108,71c0,0,61,21,134,21c0,0,47,0,96,-9c0,0,47,-10,85,-29c0,0,38,-19,62,-49c0,0,23,-30,24,-69c0,0,0,-54,-35,-74c0,0,-35,-22,-102,-22c0,0,0,35,-6,68c0,0,-6,32,-20,56c0,0,-15,24,-39,38c0,0,-26,14,-65,14c0,0,-44,0,-79,-16c0,0,-35,-18,-61,-57c0,0,-26,-40,-39,-108c0,0,-13,-69,-13,-170c0,0,-1,-164,54,-243c0,0,54,-80,177,-80h1c6,0,72,1,123,30c0,0,52,30,79,77c0,0,11,-10,19,-24c0,0,7,-15,7,-36c0,0,0,-27,-16,-52c0,0,-17,-26,-49,-47C627,32,594,10,546,0c0,0,-48,-14,-113,-14Z" 
id="f0_5"
transform="scale(0.001,-0.001)" />

<path d="M442,64c0,0,56,0,97,23c0,0,38,22,64,66c0,0,24,43,36,108c0,0,9,65,10,150c0,0,0,85,-11,149c0,0,-11,64,-36,108c0,0,-25,42,-64,64c0,0,-41,21,-98,21c0,0,-58,0,-97,-21c0,0,-39,-22,-64,-64c0,0,-25,-44,-36,-108c0,0,-11,-64,-11,-149c0,0,0,-85,11,-150c0,0,11,-65,37,-108c0,0,24,-44,65,-66c0,0,38,-23,97,-23Zm-3,-78c0,0,-83,0,-149,25c0,0,-66,26,-111,79c0,0,-47,52,-70,134c0,0,-25,79,-25,187c0,0,0,213,91,319c0,0,90,103,268,104c0,0,82,0,149,-25c0,0,65,-26,111,-79c0,0,46,-53,71,-132c0,0,23,-80,23,-187c0,0,0,-216,-91,-321C706,90,614,-14,439,-14Z" 
id="f0_d"
transform="scale(0.001,-0.001)" />

<path d="M38,359V474H436V359Z" 
id="f0_w"
transform="scale(0.001,-0.001)" />

<path d="M586,481c0,0,0,60,-9,111c0,0,-9,50,-29,85c0,0,-19,36,-51,56c0,0,-33,18,-79,19c0,0,-87,-1,-133,-69c0,0,-46,-69,-46,-202ZM439,-14c0,0,-83,0,-149,27c0,0,-66,28,-112,82c0,0,-46,53,-69,132c0,0,-25,77,-25,177c0,0,0,213,88,322c0,0,88,108,251,108c0,0,73,0,133,-23c0,0,58,-24,100,-69c0,0,41,-46,63,-114c0,0,21,-69,22,-159V399H233c0,0,0,-84,15,-143c0,0,15,-61,44,-99c0,0,28,-40,71,-57c0,0,40,-19,93,-19c1,0,2,0,4,0c0,0,38,0,73,9c0,0,33,9,62,24c0,0,26,14,48,34c0,0,21,18,35,40c0,0,10,-4,20,-19c0,0,9,-15,9,-33c0,0,0,-24,-16,-49c0,0,-17,-27,-50,-50C641,37,607,14,557,0c0,0,-50,-14,-118,-14Z" 
id="f0_6"
transform="scale(0.001,-0.001)" />

<path d="M41,0V64H61c0,0,26,0,49,4c0,0,23,3,40,16c0,0,16,11,27,32c0,0,9,21,9,58V747H47v72H186v76c0,0,0,68,19,121c0,0,19,52,54,88c0,0,34,35,85,55c0,0,50,17,113,17c0,0,58,0,100,-7c0,0,41,-8,67,-22c0,0,24,-15,35,-34c0,0,12,-20,12,-43c0,0,0,-22,-9,-37c0,0,-11,-17,-26,-27c0,0,-18,-11,-40,-16c0,0,-24,-6,-51,-6c0,0,0,23,-4,45c0,0,-6,21,-17,39c0,0,-12,17,-31,28c0,0,-19,10,-48,10c0,0,-34,0,-55,-12c0,0,-22,-13,-36,-38c0,0,-13,-26,-18,-62c0,0,-6,-37,-6,-85V819H545V747H330V174c0,0,0,-37,10,-58c0,0,10,-21,27,-32c0,0,16,-13,40,-16c0,0,22,-4,48,-4h58V0Z" 
id="f0_j"
transform="scale(0.001,-0.001)" />

<path d="M43,0V64H55c0,0,26,0,49,4c0,0,23,3,40,16c0,0,16,11,27,32c0,0,10,21,10,58V650c0,0,0,33,-10,55c0,0,-11,20,-28,31c0,0,-17,11,-39,15c0,0,-24,3,-49,4H51v64H298L318,695h7c0,0,23,42,51,70c0,0,25,27,56,43c0,0,29,14,63,21c0,0,32,5,69,5c0,0,60,-1,108,-17c0,0,47,-18,81,-54c0,0,32,-37,50,-93c0,0,17,-58,18,-135V174c0,0,0,-37,9,-58c0,0,7,-21,23,-32c0,0,16,-13,38,-16c0,0,21,-4,47,-4h5V0H677V527c0,0,0,50,-9,89c0,0,-10,39,-29,66c0,0,-20,26,-52,41c0,0,-33,13,-78,13c0,0,-53,0,-88,-20c0,0,-36,-20,-57,-54c0,0,-22,-35,-31,-79c0,0,-10,-45,-9,-94V166c0,0,0,-33,10,-53c0,0,10,-22,27,-32c0,0,16,-10,40,-13c0,0,22,-4,48,-4h5V0Z" 
id="f0_4"
transform="scale(0.001,-0.001)" />

<path d="M367,-14c0,0,-59,0,-100,13c0,0,-42,10,-69,38c0,0,-27,27,-39,73c0,0,-14,45,-14,112V732H29v61c0,0,28,0,61,11c0,0,32,11,58,37c0,0,26,28,43,68c0,0,15,38,28,98h70V819H489V732H289V217c0,0,-1,-78,32,-115c0,0,30,-36,83,-36c0,0,1,0,1,0c0,0,2,0,6,0c9,0,28,0,45,3c0,0,23,3,47,7V9C503,9,492,4,477,0c0,0,-15,-3,-33,-6c0,0,-20,-5,-39,-6c0,0,-20,-2,-38,-2Z" 
id="f0_8"
transform="scale(0.001,-0.001)" />

<path d="M321,-14c0,0,-58,0,-104,11c0,0,-48,7,-80,29c0,0,-33,20,-50,51c0,0,-18,30,-18,70c0,0,0,30,10,51c0,0,10,20,25,33c0,0,14,11,31,17c0,0,16,4,30,4c0,0,0,-41,8,-75c0,0,8,-36,28,-61c0,0,18,-28,51,-42c0,0,31,-16,78,-16c0,0,41,0,72,11c0,0,31,9,53,28c0,0,21,18,32,44c0,0,11,25,11,56c0,0,0,28,-8,49c0,0,-9,20,-30,38c0,0,-21,17,-58,37c0,0,-37,18,-92,42c0,0,-59,26,-102,51c0,0,-45,23,-72,52c0,0,-29,28,-43,65c0,0,-15,35,-14,86c0,0,-1,52,21,92c0,0,20,40,58,68c0,0,38,26,91,41c0,0,52,15,118,15c0,0,54,0,96,-12c0,0,41,-11,70,-30c0,0,28,-19,43,-44c0,0,14,-27,14,-55c0,0,-1,-42,-28,-66c0,0,-29,-25,-80,-25c-1,0,-2,0,-2,0c0,0,0,76,-32,119c0,0,-32,42,-100,42c0,0,-39,0,-66,-9c0,0,-28,-9,-45,-25c0,0,-18,-17,-26,-39c0,0,-8,-22,-8,-49c0,0,0,-29,10,-50c0,0,10,-22,34,-39c0,0,22,-18,59,-35c0,0,36,-17,86,-38c0,0,60,-26,104,-50c0,0,43,-24,72,-54c0,0,27,-29,41,-65c0,0,13,-37,13,-84c0,0,-1,-60,-21,-105c0,0,-23,-45,-62,-74C539,46,499,14,445,0c0,0,-56,-14,-124,-14Z" 
id="f0_a"
transform="scale(0.001,-0.001)" />

<path d="M417,-14c0,0,-60,0,-107,16c0,0,-47,17,-79,54c0,0,-33,36,-49,93c0,0,-17,57,-17,135V650c0,0,0,33,-10,55c0,0,-11,20,-27,31c0,0,-18,11,-40,15c0,0,-24,3,-48,4H35v64H309V292c0,0,0,-51,8,-89c0,0,7,-40,26,-66c0,0,18,-27,49,-40c0,0,29,-14,74,-14c1,0,2,0,3,0c0,0,50,0,88,18c0,0,35,18,59,50c0,0,23,32,34,78c0,0,12,46,12,101V645c0,0,0,35,-10,58c0,0,-10,21,-27,33c0,0,-17,11,-39,15c0,0,-24,3,-50,4h-4v64H805V166c0,0,0,-33,10,-53c0,0,10,-22,27,-32c0,0,17,-10,41,-13c0,0,21,-4,47,-4h5V0H692L672,124h-7c0,0,-24,-44,-51,-70c0,0,-28,-28,-60,-42c0,0,-31,-15,-65,-20c0,0,-35,-6,-72,-6Z" 
id="f0_b"
transform="scale(0.001,-0.001)" />

<path d="M518,83c0,0,50,0,86,21c0,0,35,21,58,63c0,0,23,41,33,104c0,0,10,61,11,142c0,0,-1,80,-11,142c0,0,-10,60,-33,101c0,0,-23,40,-58,60c0,0,-38,20,-88,20c0,0,-60,0,-99,-19c0,0,-41,-20,-64,-61c0,0,-24,-40,-34,-101c0,0,-10,-62,-10,-144c0,0,0,-80,10,-141c0,0,10,-62,35,-103c0,0,23,-42,64,-63c0,0,39,-21,100,-21ZM28,-366v64H40c0,0,25,0,49,4c0,0,22,3,39,16c0,0,17,11,27,33c0,0,10,21,10,58V650c0,0,0,33,-10,55c0,0,-11,20,-27,31c0,0,-18,11,-40,15c0,0,-24,3,-48,4H20v64H287L303,681h6c0,0,16,34,39,63c0,0,21,28,50,49c0,0,27,19,64,31c0,0,36,9,80,10c0,0,75,0,134,-25c0,0,58,-26,98,-76c0,0,38,-53,60,-132c0,0,20,-80,20,-190c0,0,0,-111,-20,-191c0,0,-22,-80,-60,-133c0,0,-40,-53,-98,-77c0,0,-57,-24,-131,-24c-1,0,-2,0,-3,0h-2c-8,0,-46,1,-77,10c0,0,-37,8,-65,26c0,0,-29,18,-50,43c0,0,-23,24,-39,54h-3c0,0,0,-39,0,-73c0,0,0,-15,0,-30c0,0,0,-15,0,-28c0,0,0,-14,0,-24c0,0,0,-11,0,-17V-199c0,0,0,-33,10,-54c0,0,10,-21,28,-31c0,0,17,-11,41,-14c0,0,23,-4,49,-4h5v-64Z" 
id="f0_f"
transform="scale(0.001,-0.001)" />

<path d="M7,0V64H22c0,0,26,0,48,5c0,0,20,4,40,15c0,0,18,11,37,31c0,0,19,19,41,47L380,411L188,674c0,0,-34,38,-65,60c0,0,-33,21,-66,21H37v64H424V755h-4c0,0,-27,0,-43,-3c0,0,-17,-5,-27,-10c0,0,-11,-7,-14,-15c0,0,-3,-8,-3,-17c0,0,-1,-16,9,-30c0,0,9,-17,27,-40L469,503l79,114c0,0,17,25,28,49c0,0,10,23,10,44c0,0,0,28,-23,37c0,0,-24,7,-59,8h-4v64H834V755H821c0,0,-23,-1,-41,-4c0,0,-19,-4,-36,-14c0,0,-17,-11,-36,-30c0,0,-19,-20,-42,-50L509,448L733,145c0,0,34,-44,64,-62c0,0,29,-19,57,-19q1,0,2,0h20V0H481V64h8c0,0,91,0,91,51c0,0,0,7,-2,17c0,0,-2,8,-9,20c0,0,-7,11,-18,28c0,0,-11,16,-29,40L420,357L313,208c0,0,-6,-9,-14,-21c0,0,-8,-12,-13,-24c0,0,-7,-14,-10,-26c0,0,-4,-13,-4,-25c0,0,0,-27,22,-37c0,0,21,-11,73,-11h4V0Z" 
id="f0_23"
transform="scale(0.001,-0.001)" />

<path d="M99,350v90H755V350Zm0,300v91H755V650Z" 
id="f0_r"
transform="scale(0.001,-0.001)" />

<path d="M500,64c1,0,3,0,4,0c0,0,91,0,142,67c0,0,49,65,49,205c0,0,0,62,-11,108c0,0,-13,44,-34,77c0,0,-23,31,-55,53c0,0,-33,20,-73,32c0,0,-20,-8,-43,-14c0,0,-25,-7,-53,-7c0,0,-26,0,-41,13c0,0,-17,11,-16,36c0,0,-1,25,20,42c0,0,21,14,63,15c0,0,8,0,21,-1c0,0,11,-2,24,-3c0,0,12,-1,23,-4c0,0,10,-3,18,-5c0,0,54,19,87,75c0,0,32,55,32,147c0,0,0,43,-11,80c0,0,-13,36,-34,62c0,0,-24,26,-56,40c0,0,-35,15,-78,15c0,0,-46,-1,-80,-15c0,0,-35,-15,-59,-42c0,0,-23,-28,-34,-66c0,0,-13,-40,-12,-88V156c0,0,17,-19,40,-35c0,0,22,-17,50,-29c0,0,27,-13,58,-20c0,0,27,-8,59,-8ZM150,-366V865c0,0,-1,83,25,141c0,0,26,57,70,94c0,0,44,34,105,50c0,0,59,16,130,16c0,0,159,0,239,-66c0,0,79,-66,80,-183c0,0,-1,-37,-8,-67c0,0,-9,-32,-21,-57c0,0,-14,-26,-31,-45c0,0,-17,-20,-35,-36c0,0,-42,-35,-95,-56V646c0,0,53,-17,97,-42c0,0,42,-26,73,-62c0,0,30,-37,48,-86c0,0,16,-51,16,-118c0,0,0,-89,-22,-154c0,0,-24,-68,-66,-111C755,73,711,28,650,7c0,0,-61,-21,-137,-21h-1c-10,0,-81,1,-131,18c0,0,-55,18,-88,50V-366Z" 
id="f0_29"
transform="scale(0.001,-0.001)" />

<path d="M712,102L515,701c0,0,-24,67,-44,132c0,0,-20,62,-32,117c0,0,-13,-55,-29,-109c0,0,-17,-56,-41,-126L153,102ZM47,0V81L405,1091H538L882,92V0Z" 
id="f0_25"
transform="scale(0.001,-0.001)" />

<path d="M28,0V64H40c0,0,25,0,49,4c0,0,22,3,39,16c0,0,17,11,27,32c0,0,10,21,10,58V993c0,0,0,33,-10,54c0,0,-11,21,-27,32c0,0,-18,11,-40,15c0,0,-24,3,-48,3H28v64H308V825c0,0,0,-22,0,-43c0,0,-1,-24,-4,-43c0,0,0,-23,0,-44h6c0,0,68,139,225,139c0,0,65,-1,115,-17c0,0,50,-18,85,-54c0,0,34,-37,52,-93c0,0,18,-58,18,-135V174c0,0,0,-37,9,-58c0,0,9,-21,24,-32c0,0,16,-13,38,-16c0,0,21,-4,47,-4h4V0H662V527c0,0,0,50,-9,89c0,0,-10,39,-29,66c0,0,-20,26,-52,41c0,0,-33,13,-78,13c0,0,-49,0,-82,-17c0,0,-35,-18,-58,-50c0,0,-24,-33,-34,-78c0,0,-11,-46,-11,-102V166c0,0,0,-33,10,-53c0,0,10,-22,27,-32c0,0,17,-10,40,-13c0,0,22,-4,48,-4h5V0Z" 
id="f0_9"
transform="scale(0.001,-0.001)" />

<path d="M351,-291c2,0,3,0,5,0c0,0,1,0,2,0c12,0,84,1,134,15c0,0,52,13,84,38c0,0,31,23,44,58c0,0,12,34,13,74c0,0,0,35,-10,59c0,0,-11,22,-30,35c0,0,-20,12,-49,17c0,0,-29,5,-67,5H327c0,0,-33,0,-62,-5c0,0,-31,-5,-54,-20c0,0,-24,-17,-38,-44c0,0,-15,-29,-14,-74c0,0,0,-34,9,-63c0,0,9,-29,31,-50c0,0,23,-22,61,-33c0,0,35,-12,91,-12Zm34,658c0,0,1,0,1,0c0,0,37,0,64,11c0,0,24,11,42,35c0,0,15,22,23,59c0,0,7,35,7,86c0,0,0,103,-31,152c0,0,-31,49,-106,49c0,0,-74,0,-105,-50c0,0,-33,-50,-32,-153c0,0,0,-98,32,-143c0,0,32,-46,105,-46ZM353,-366c-8,0,-162,1,-239,59c0,0,-80,59,-79,164c0,0,0,45,16,78c0,0,15,34,42,58c0,0,26,22,61,38c0,0,34,14,72,21c0,0,-16,7,-31,18c0,0,-14,11,-26,27c0,0,-13,16,-20,36c0,0,-8,20,-7,45c0,0,0,45,24,79c0,0,23,32,76,64c0,0,-33,13,-58,37c0,0,-27,23,-44,54c0,0,-18,30,-27,65c0,0,-10,36,-9,74c0,0,0,66,18,119c0,0,18,51,53,89c0,0,36,36,90,56c0,0,53,18,126,19c0,0,28,-1,54,-4c0,0,26,-4,50,-11c0,0,22,-8,41,-16c0,0,18,-9,29,-19c0,0,12,12,27,27c0,0,14,14,33,27c0,0,19,12,41,20c0,0,21,7,47,8c0,0,23,-1,40,-6c0,0,17,-7,28,-17c0,0,11,-11,17,-25c0,0,5,-15,5,-31c0,0,0,-17,-4,-31c0,0,-6,-15,-15,-25c0,0,-10,-12,-25,-17c0,0,-15,-7,-36,-7c0,0,0,9,-2,18c0,0,-3,9,-8,17c0,0,-6,7,-16,13c0,0,-10,4,-25,4c0,0,-19,0,-35,-4c0,0,-16,-5,-31,-14c0,0,26,-33,44,-76c0,0,16,-44,16,-109c0,0,-1,-57,-17,-105c0,0,-17,-48,-51,-82c0,0,-35,-36,-86,-56c0,0,-52,-19,-121,-19H348c0,0,-11,0,-21,1c0,0,-10,1,-15,3c0,0,-15,-9,-29,-17c0,0,-13,-9,-23,-20c0,0,-11,-11,-16,-25c0,0,-6,-15,-6,-32c0,0,-1,-19,7,-29c0,0,7,-12,20,-18c0,0,12,-7,30,-8c0,0,17,-2,38,-2H506c0,0,68,-1,116,-17c0,0,48,-17,78,-47c0,0,30,-32,44,-73c0,0,14,-41,14,-90c0,0,-1,-67,-24,-119c0,0,-25,-53,-75,-89c0,0,-50,-38,-126,-58c0,0,-77,-20,-180,-20Z" 
id="f0_i"
transform="scale(0.001,-0.001)" />

<path d="M229,0V64h35c0,0,25,0,49,4c0,0,22,3,39,13c0,0,17,10,28,32c0,0,9,20,9,53v849H243c0,0,-33,0,-56,-10c0,0,-24,-11,-37,-28c0,0,-15,-17,-22,-39c0,0,-8,-24,-10,-49l-8,-65H34v267H902V824H827l-8,65c0,0,-4,25,-10,49c0,0,-9,22,-22,39c0,0,-15,17,-37,28c0,0,-24,10,-58,10H544V174c0,0,0,-37,10,-58c0,0,10,-21,27,-32c0,0,16,-13,40,-16c0,0,22,-4,48,-4h35V0Z" 
id="f0_t"
transform="scale(0.001,-0.001)" />

<path d="M557,-14c-2,0,-4,0,-6,0c0,0,-115,0,-200,39c0,0,-87,41,-145,115c0,0,-60,73,-89,177c0,0,-30,103,-30,230c0,0,0,124,32,227c0,0,31,103,93,176c0,0,61,73,153,115c0,0,92,41,212,41c0,0,79,0,137,-12c0,0,57,-14,96,-37c0,0,38,-24,58,-54c0,0,18,-32,18,-68c0,0,0,-26,-9,-44c0,0,-11,-20,-29,-34c0,0,-18,-15,-42,-21c0,0,-23,-8,-49,-8c-1,0,-2,0,-4,0c0,0,0,36,-9,71c0,0,-10,34,-30,63c0,0,-22,28,-55,46c0,0,-35,16,-85,17c0,0,-86,0,-147,-31c0,0,-60,-33,-98,-93c0,0,-39,-62,-55,-150c0,0,-17,-89,-17,-204c0,0,0,-102,18,-187c0,0,17,-85,56,-146c0,0,39,-62,99,-95c0,0,59,-33,144,-33c0,0,56,0,100,11c0,0,42,10,75,28c0,0,32,18,58,42c0,0,25,22,44,49c0,0,12,-9,21,-23c0,0,8,-15,8,-37c0,0,0,-29,-19,-59c0,0,-20,-31,-61,-55C800,42,759,17,698,1c0,0,-59,-15,-141,-15Z" 
id="f0_1j"
transform="scale(0.001,-0.001)" />

<path d="M518,83c0,0,50,0,86,21c0,0,35,21,58,63c0,0,23,41,33,104c0,0,10,61,11,142c0,0,-1,80,-11,142c0,0,-10,60,-33,101c0,0,-23,40,-58,60c0,0,-38,20,-88,20c0,0,-60,0,-99,-19c0,0,-41,-20,-64,-61c0,0,-24,-40,-34,-101c0,0,-10,-62,-10,-144c0,0,0,-80,10,-141c0,0,10,-62,35,-103c0,0,23,-42,64,-63c0,0,39,-21,100,-21Zm27,-97c-1,0,-2,0,-3,0h-2c-8,0,-46,1,-77,10c0,0,-37,8,-65,26c0,0,-29,18,-50,43c0,0,-23,24,-39,54H299L272,0H28V64H40c0,0,25,0,49,4c0,0,22,3,39,16c0,0,17,11,27,32c0,0,10,21,10,58V993c0,0,0,33,-10,54c0,0,-11,21,-27,32c0,0,-18,11,-40,15c0,0,-24,3,-48,3H28v64H306V880c0,0,0,-26,0,-59c0,0,0,-35,0,-66c0,0,0,-36,0,-74h3c0,0,16,34,39,63c0,0,21,28,50,49c0,0,27,19,64,31c0,0,36,9,80,10c0,0,75,0,134,-25c0,0,58,-26,98,-76c0,0,38,-53,60,-132c0,0,20,-80,20,-190c0,0,0,-111,-20,-191c0,0,-22,-80,-60,-133c0,0,-40,-53,-98,-77c0,0,-57,-24,-131,-24Z" 
id="f0_n"
transform="scale(0.001,-0.001)" />

<path d="M243,0V64h35c0,0,25,0,49,4c0,0,22,3,39,13c0,0,17,10,28,32c0,0,10,20,10,53V455L121,946c0,0,-13,21,-24,37c0,0,-11,14,-23,25c0,0,-14,10,-28,14c0,0,-15,4,-34,4H-6v65H413v-65H356c0,0,-22,0,-34,-3c0,0,-13,-4,-21,-11c0,0,-8,-6,-9,-15c0,0,-4,-9,-3,-19c0,0,-1,-22,9,-43c0,0,9,-22,18,-38L429,692c0,0,26,-47,45,-92c0,0,19,-46,32,-82c0,0,6,16,17,36c0,0,10,20,22,44c0,0,12,22,26,47c0,0,13,23,27,47l97,176c0,0,14,25,22,50c0,0,5,22,6,41c0,0,-1,34,-24,51c0,0,-25,16,-68,16H586v65H959v-65H941c0,0,-17,0,-30,-5c0,0,-16,-6,-30,-19c0,0,-15,-15,-31,-37c0,0,-17,-24,-35,-57L558,455V174c0,0,-1,-37,10,-58c0,0,9,-21,27,-32c0,0,16,-13,40,-16c0,0,21,-4,48,-4h35V0Z" 
id="f0_q"
transform="scale(0.001,-0.001)" />

<path d="M458,0L128,946c0,0,-8,23,-18,39c0,0,-10,16,-22,25c0,0,-13,9,-29,13c0,0,-17,3,-39,3H0v65H420v-65H385c0,0,-46,0,-69,-17c0,0,-24,-18,-23,-56c0,0,0,-12,4,-26c0,0,3,-14,9,-30L474,401c0,0,22,-69,39,-132c0,0,17,-65,29,-119c0,0,12,54,29,117c0,0,15,61,41,134L781,886c0,0,5,19,10,36c0,0,3,16,3,30c0,0,0,39,-24,57c0,0,-26,17,-76,17H659v65h372v-65h-29c0,0,-23,0,-38,-4c0,0,-17,-5,-29,-17c0,0,-14,-14,-25,-37c0,0,-12,-24,-24,-60L570,0Z" 
id="f0_p"
transform="scale(0.001,-0.001)" />

<path d="M365,0L119,674c0,0,-9,23,-18,39c0,0,-11,15,-23,26c0,0,-12,8,-29,12c0,0,-17,3,-39,4H6v64H388V755H369c0,0,-47,0,-69,-18c0,0,-24,-18,-23,-56c0,0,-1,-13,3,-25c0,0,3,-14,9,-31L392,336c0,0,10,-26,21,-58c0,0,9,-33,20,-65c0,0,8,-31,16,-59c0,0,7,-29,11,-47h5c0,0,3,16,12,41c0,0,8,23,20,53c0,0,10,27,22,58c0,0,11,29,22,57L650,614c0,0,8,19,12,36c0,0,3,16,3,30c0,0,0,38,-25,57c0,0,-26,18,-76,18H553v64H880V755H862c0,0,-23,0,-38,-5c0,0,-17,-6,-29,-18c0,0,-12,-14,-24,-37c0,0,-12,-24,-26,-59L504,0Z" 
id="f0_11"
transform="scale(0.001,-0.001)" />

<path d="M222,-9c-1,0,-2,0,-3,0c0,0,-1,0,-3,0c-6,0,-22,0,-35,5c0,0,-18,4,-30,16c0,0,-14,12,-21,32c0,0,-8,20,-8,49c0,0,0,30,8,50c0,0,7,19,21,32c0,0,12,11,30,17c0,0,17,5,38,5c0,0,18,0,37,-5c0,0,16,-6,30,-17c0,0,12,-13,21,-32c0,0,8,-20,8,-50c0,0,0,-29,-8,-49c0,0,-9,-20,-21,-32C286,12,272,0,256,-4c0,0,-17,-5,-34,-5Z" 
id="f0_m"
transform="scale(0.001,-0.001)" />

<path d="M58,0V64H78c0,0,25,0,49,4c0,0,22,3,39,16c0,0,17,11,27,32c0,0,10,21,10,58V923c0,0,0,33,-10,54c0,0,-11,20,-27,32c0,0,-18,11,-40,14c0,0,-24,3,-48,3H58v65H338L885,246V923c0,0,0,33,-10,54c0,0,-11,20,-28,32c0,0,-17,11,-39,14c0,0,-24,3,-49,3H739v65h384v-65h-20c0,0,-26,0,-48,-3c0,0,-24,-4,-40,-15c0,0,-18,-13,-27,-34c0,0,-11,-21,-10,-57V0H869L296,880V174c0,0,0,-37,11,-58c0,0,9,-21,26,-32c0,0,16,-13,40,-16c0,0,22,-4,48,-4h21V0Z" 
id="f0_1r"
transform="scale(0.001,-0.001)" />

<path d="M315,0L115,674c0,0,-9,23,-19,39c0,0,-10,15,-22,26c0,0,-13,8,-29,12c0,0,-17,3,-39,4H1v64H379V755H359c0,0,-46,0,-69,-13c0,0,-24,-15,-23,-51c0,0,0,-13,5,-31c0,0,3,-18,8,-35L351,369c0,0,8,-29,16,-61c0,0,7,-33,16,-65c0,0,6,-33,12,-61c0,0,6,-29,10,-48h5c0,0,3,19,10,46c0,0,5,24,15,55c0,0,7,29,18,60c0,0,9,30,19,58L631,815h96L880,362c0,0,9,-29,20,-59c0,0,9,-33,18,-63c0,0,9,-31,17,-59c0,0,7,-28,11,-47h4c0,0,7,38,22,94c0,0,14,55,38,129l76,247c0,0,5,18,11,41c0,0,3,21,3,35c0,0,0,38,-24,57c0,0,-26,18,-77,18H988v64h327V755h-19c0,0,-23,0,-39,-5c0,0,-17,-5,-29,-17c0,0,-14,-13,-25,-36c0,0,-11,-24,-22,-61L984,0H862L680,538L652,639L436,0Z" 
id="f0_17"
transform="scale(0.001,-0.001)" />

<path d="M58,0V64H78c0,0,25,0,49,4c0,0,22,3,39,16c0,0,17,11,27,32c0,0,10,21,10,58V917c0,0,0,36,-10,57c0,0,-10,21,-27,34c0,0,-17,11,-39,15c0,0,-24,3,-49,3H58v65H503v-65H483c0,0,-26,0,-48,-3c0,0,-24,-3,-40,-14c0,0,-18,-12,-27,-32c0,0,-11,-21,-11,-54V76H659c0,0,34,0,59,13c0,0,23,12,39,32c0,0,16,19,25,44c0,0,7,24,11,49l15,114h75V0Z" 
id="f0_1n"
transform="scale(0.001,-0.001)" />

<path d="M422,83c5,0,60,0,99,30c0,0,39,29,65,82c0,0,23,53,34,124c0,0,10,70,10,153v60c0,0,-11,54,-29,95c0,0,-20,38,-45,64c0,0,-26,24,-55,36c0,0,-32,12,-64,12c0,0,-107,0,-156,-83c0,0,-49,-85,-49,-249c0,0,0,-163,44,-244c0,0,43,-80,145,-80c0,0,1,0,1,0ZM395,-14c-8,0,-78,1,-133,24c0,0,-59,24,-98,77c0,0,-39,52,-60,132c0,0,-20,79,-20,189c0,0,0,110,24,191c0,0,23,80,68,133c0,0,43,51,105,77c0,0,61,25,138,25c0,0,44,0,80,-11c0,0,36,-13,64,-33c0,0,27,-22,49,-51c0,0,21,-30,36,-65h9c0,0,12,39,32,79c0,0,19,38,43,66h81c0,0,-7,-22,-14,-58c0,0,-8,-37,-13,-78c0,0,-6,-42,-9,-85c0,0,-4,-44,-4,-80V206c0,0,0,-69,33,-105c0,0,32,-37,92,-37h13V0H783c0,0,-39,0,-65,13c0,0,-26,14,-43,35c0,0,-17,21,-26,48c0,0,-10,26,-13,52h-6c0,0,-18,-35,-39,-64c0,0,-23,-31,-51,-52c0,0,-28,-22,-64,-33c0,0,-36,-13,-81,-13Z" 
id="f0_1t"
transform="scale(0.001,-0.001)" />

<path d="M380,219V501H99v91H380V874h92V592H755V501H472V219Z" 
id="f0_1k"
transform="scale(0.001,-0.001)" />

<path d="M480,-194c0,0,-106,41,-180,101c0,0,-75,59,-122,141c0,0,-48,82,-69,191c0,0,-22,107,-22,245c0,0,0,137,22,246c0,0,21,106,69,188c0,0,47,82,122,142c0,0,74,59,180,101v-69c0,0,-79,-48,-125,-114c0,0,-48,-67,-71,-146c0,0,-24,-80,-30,-168c0,0,-9,-90,-8,-180c0,0,-1,-92,8,-180c0,0,6,-88,30,-167c0,0,23,-80,71,-146c0,0,46,-68,125,-115v-70Z" 
id="f0_12"
transform="scale(0.001,-0.001)" />

<path d="M147,0V64H249c0,0,26,0,49,4c0,0,23,3,40,16c0,0,16,11,27,32c0,0,9,21,9,58V976c0,0,-29,-35,-55,-64c0,0,-27,-29,-50,-50c0,0,-24,-22,-46,-32c0,0,-22,-12,-44,-12c0,0,-1,0,-1,0c0,0,-1,0,-1,0c-3,0,-35,0,-55,23c0,0,-21,21,-21,59c0,0,23,5,47,15c0,0,23,7,50,22c0,0,25,13,57,34c0,0,30,18,69,47l107,79h98V174c0,0,-1,-37,10,-58c0,0,9,-21,26,-32c0,0,17,-13,41,-16c0,0,22,-4,48,-4h75V0Z" 
id="f0_x"
transform="scale(0.001,-0.001)" />

<path d="M49,-194v70c0,0,79,47,125,115c0,0,45,66,71,146c0,0,23,79,31,167c0,0,7,88,7,180c0,0,0,90,-7,180c0,0,-8,88,-31,168c0,0,-26,79,-71,146c0,0,-46,66,-125,114v69c0,0,105,-42,180,-101c0,0,75,-60,122,-142c0,0,47,-82,69,-188c0,0,21,-109,22,-246c0,0,-1,-138,-22,-245c0,0,-22,-109,-69,-191c0,0,-47,-82,-122,-141c0,0,-75,-60,-180,-101Z" 
id="f0_14"
transform="scale(0.001,-0.001)" />

<path d="M912,152l-89,90L997,416H87V542H997L823,716l89,90L1206,512V445L912,152Z" 
id="f1_3"
transform="scale(0.001,-0.001)" />

<path d="M78,0V112L333,407c0,0,61,70,103,126c0,0,40,56,66,106c0,0,25,49,37,97c0,0,11,47,11,100c0,0,0,43,-9,79c0,0,-11,35,-29,61c0,0,-19,25,-48,40c0,0,-31,13,-70,13c0,0,-53,0,-84,-18c0,0,-33,-20,-52,-50c0,0,-19,-31,-25,-73c0,0,-7,-41,-7,-86c0,0,-28,0,-51,4c0,0,-24,4,-42,17c0,0,-18,11,-28,30c0,0,-10,19,-10,48c0,0,0,43,19,82c0,0,19,37,57,65c0,0,36,28,93,43c0,0,56,15,130,15c0,0,72,0,130,-18c0,0,56,-19,97,-51c0,0,41,-34,62,-81c0,0,21,-47,21,-105c0,0,-1,-54,-17,-104c0,0,-18,-52,-50,-104c0,0,-33,-54,-80,-111c0,0,-48,-58,-108,-124L191,122H545c7,0,36,1,56,10c0,0,21,10,36,25c0,0,14,15,22,37c0,0,7,20,13,42l6,28h61V0Z" 
id="f0_z"
transform="scale(0.001,-0.001)" />

<path d="M683,442L588,709c0,0,-25,68,-43,127c0,0,-21,59,-33,114c0,0,-6,-28,-12,-53c0,0,-8,-26,-16,-53c0,0,-9,-26,-19,-55c0,0,-10,-31,-23,-66L338,442ZM0,0V64H29c0,0,1,0,3,0c6,0,23,1,35,5c0,0,16,5,28,18c0,0,12,13,25,37c0,0,11,22,25,60l339,907H604L949,145c0,0,8,-23,19,-39c0,0,8,-16,21,-25c0,0,12,-10,29,-13c0,0,17,-4,39,-4h20V0H657V64h35c0,0,92,0,92,73c0,0,0,12,-3,26c0,0,-4,14,-10,31L710,365H309L251,204c0,0,-8,-18,-11,-35c0,0,-4,-18,-4,-30c0,0,0,-40,26,-57c0,0,24,-18,76,-18h35V0Z" 
id="f0_18"
transform="scale(0.001,-0.001)" />

<path d="M421,83c0,0,59,0,100,20c0,0,39,19,65,60c0,0,23,39,34,101c0,0,10,61,10,144c0,0,0,79,-10,141c0,0,-11,61,-34,103c0,0,-25,41,-65,63c0,0,-41,21,-101,21c0,0,-51,0,-86,-21c0,0,-36,-23,-58,-64c0,0,-24,-42,-34,-103c0,0,-10,-62,-10,-141c0,0,0,-163,44,-244c0,0,43,-80,145,-80ZM395,-14c-8,0,-78,1,-133,24c0,0,-59,24,-98,77c0,0,-39,52,-60,132c0,0,-20,79,-20,189c0,0,0,110,20,191c0,0,21,80,60,133c0,0,39,51,98,77c0,0,58,25,133,25c0,0,44,0,80,-10c0,0,36,-10,65,-27c0,0,28,-18,51,-43c0,0,21,-24,39,-54h4c0,0,0,36,0,70c0,0,0,27,0,57c0,0,0,27,0,41V993c0,0,-1,33,-10,54c0,0,-11,21,-29,32c0,0,-18,11,-41,15c0,0,-24,3,-49,3H492v64H773V168c0,0,0,-34,10,-54c0,0,10,-21,27,-32c0,0,17,-11,40,-14c0,0,22,-4,48,-4h13V0H652L636,137h-6c0,0,-18,-35,-39,-62c0,0,-23,-29,-51,-48C540,27,512,6,476,-3c0,0,-36,-11,-81,-11Z" 
id="f0_c"
transform="scale(0.001,-0.001)" />

<path d="M383,-14c-2,0,-4,0,-6,0h-1c-12,0,-79,1,-128,14c0,0,-56,12,-90,36c0,0,-36,23,-52,54c0,0,-17,30,-17,64c0,0,0,46,26,73c0,0,25,25,70,25c0,0,0,-40,13,-74c0,0,12,-35,38,-59c0,0,24,-24,61,-38c0,0,34,-14,79,-14c1,0,2,0,3,0c0,0,45,0,86,13c0,0,42,12,73,42c0,0,30,29,50,76c0,0,18,47,18,115c0,0,0,48,-18,88c0,0,-20,38,-55,67c0,0,-36,27,-88,43c0,0,-52,14,-115,15H281v78h49c0,0,50,0,94,17c0,0,44,16,77,47c0,0,31,29,50,74c0,0,19,43,19,98c0,0,0,45,-9,80c0,0,-10,34,-28,59c0,0,-21,25,-51,38c0,0,-32,12,-75,12c0,0,-53,0,-85,-18c0,0,-33,-20,-52,-50c0,0,-19,-31,-25,-73c0,0,-7,-41,-7,-86c0,0,-28,0,-52,4c0,0,-23,4,-41,17c0,0,-18,11,-28,30c0,0,-10,19,-10,48c0,0,0,43,19,82c0,0,19,37,57,65c0,0,38,28,94,43c0,0,56,15,130,15c0,0,71,0,131,-16c0,0,59,-17,101,-47c0,0,41,-31,65,-76c0,0,23,-46,23,-104c0,0,0,-51,-18,-97c0,0,-19,-46,-51,-82c0,0,-33,-38,-78,-63c0,0,-45,-27,-97,-39c0,0,27,-4,60,-10c0,0,32,-8,63,-21c0,0,32,-13,61,-33c0,0,28,-20,51,-50c0,0,21,-29,35,-67c0,0,12,-39,12,-89c0,0,0,-62,-16,-110c0,0,-17,-48,-45,-84c0,0,-29,-37,-67,-62c0,0,-38,-26,-81,-41C556,15,512,0,467,-6c0,0,-42,-8,-84,-8Z" 
id="f0_19"
transform="scale(0.001,-0.001)" />

<path d="M357,-366c0,0,-31,0,-47,24c0,0,-15,22,-15,62c0,0,-1,41,7,82c0,0,8,39,19,77c0,0,10,36,25,69c0,0,14,32,27,59c0,0,-26,99,-49,191c0,0,-24,90,-47,171c0,0,-24,79,-47,146c0,0,-24,66,-46,113c0,0,-24,47,-46,73c0,0,-24,26,-46,26c0,0,-17,0,-32,-6c0,0,-15,-6,-29,-14L0,753c0,0,14,14,34,27c0,0,19,11,41,22c0,0,20,10,44,16c0,0,22,5,46,6c0,0,32,-1,59,-13c0,0,25,-14,49,-43c0,0,23,-32,46,-82c0,0,20,-51,45,-127c0,0,22,-77,51,-181c0,0,27,-105,62,-242c0,0,47,48,87,110c0,0,38,61,65,128c0,0,25,65,40,130c0,0,14,63,14,114c0,0,0,47,-19,81c0,0,-19,32,-59,43c0,0,-1,47,25,70c0,0,26,22,64,22c0,0,30,-1,50,-13c0,0,19,-13,32,-34c0,0,11,-22,15,-47c0,0,5,-27,5,-54c0,0,0,-55,-13,-115c0,0,-14,-62,-36,-123c0,0,-24,-63,-53,-122c0,0,-31,-60,-64,-114c0,0,-34,-55,-70,-98c0,0,-36,-45,-69,-74c0,0,1,-20,1,-39c0,0,0,-18,0,-37c0,0,0,-73,-9,-132c0,0,-11,-61,-29,-105c0,0,-18,-44,-43,-68c0,0,-25,-25,-54,-25Z" 
id="f0_2a"
transform="scale(0.001,-0.001)" />

<path d="M153,-194V1161H494v-64H427c0,0,-26,-1,-47,-4c0,0,-24,-4,-41,-15c0,0,-17,-13,-26,-34c0,0,-11,-21,-10,-57V-21c0,0,-1,-36,10,-57c0,0,9,-22,26,-33c0,0,17,-13,41,-16c0,0,21,-3,47,-3h67v-64Z" 
id="f0_2b"
transform="scale(0.001,-0.001)" />

<path d="M57,-194v64h65c0,0,26,0,50,3c0,0,22,3,39,16c0,0,17,11,27,33c0,0,10,21,10,57V987c0,0,0,36,-10,57c0,0,-10,21,-27,34c0,0,-17,11,-39,15c0,0,-24,3,-50,4H57v64H397V-194Z" 
id="f0_2c"
transform="scale(0.001,-0.001)" />

<path d="M197,0V27c0,0,71,2,92,13c0,0,21,10,29,29c0,0,9,18,9,109V725c0,0,0,110,-8,141c0,0,-5,24,-19,35c0,0,-14,11,-33,11c0,0,-28,0,-77,-23l-11,23l246,121h25V178c0,0,0,-85,7,-106c0,0,7,-21,29,-32c0,0,23,-11,91,-13V0Z" 
id="f2_l"
transform="scale(0.001,-0.001)" />

<path d="M247,-17c0,0,-91,0,-132,30c0,0,-42,31,-42,68c0,0,0,21,17,37c0,0,18,16,44,17c0,0,19,0,34,-6c0,0,14,-7,49,-31c0,0,56,-39,113,-39c0,0,88,0,154,66c0,0,66,66,66,161c0,0,0,92,-59,171c0,0,-59,80,-163,123c0,0,-81,34,-221,39l194,393H663L605,885H301L234,750c0,0,198,-29,313,-147c0,0,100,-102,100,-239c0,0,0,-80,-33,-148c0,0,-32,-68,-81,-116c0,0,-50,-47,-110,-77c0,0,-86,-40,-176,-40Z" 
id="f2_p"
transform="scale(0.001,-0.001)" />


</defs>
</svg>