<?xml version="1.0" encoding="UTF-8" standalone="no"?>
<!DOCTYPE svg PUBLIC "-//W3C//DTD SVG 1.1//EN"
"http://www.w3.org/Graphics/SVG/1.1/DTD/svg11.dtd">
<svg viewBox="0 0 909 1286" version="1.1" xmlns="http://www.w3.org/2000/svg" xmlns:xlink="http://www.w3.org/1999/xlink">
<defs>
<clipPath id="c0_330"><path d="M35.1,1194.7V113.1H873.9V1194.7Z" /></clipPath>
</defs>
<image preserveAspectRatio="none" x="47" y="115" width="110" height="33" xlink:href="img/1.png" />
<g clip-path="url(#c0_330)">
<g fill="#000000" >
<use xlink:href="#f0_i" transform="matrix(12,0,0,12,157.4,136)" />
<use xlink:href="#f0_a" transform="matrix(12,0,0,12,167.7,136)" />
<use xlink:href="#f0_b" transform="matrix(12,0,0,12,179.5,136)" />
<use xlink:href="#f0_s" transform="matrix(12,0,0,12,195.5,136)" />
<use xlink:href="#f0_9" transform="matrix(12,0,0,12,206.1,136)" />
<use xlink:href="#f0_8" transform="matrix(12,0,0,12,215.9,136)" />
<use xlink:href="#f0_f" transform="matrix(12,0,0,12,221.6,136)" />
<use xlink:href="#f0_g" transform="matrix(12,0,0,12,232.2,136)" />
<use xlink:href="#f0_5" transform="matrix(12,0,0,12,241.2,136)" />
<use xlink:href="#f0_d" transform="matrix(12,0,0,12,247,136)" />
<use xlink:href="#f0_l" transform="matrix(12,0,0,12,253.5,136)" />
<use xlink:href="#f0_5" transform="matrix(12,0,0,12,268.6,136)" />
<use xlink:href="#f0_4" transform="matrix(12,0,0,12,274.4,136)" />
<use xlink:href="#f0_1l" transform="matrix(12,0,0,12,287.4,136)" />
<use xlink:href="#f0_o" transform="matrix(12,0,0,12,297.7,136)" />
<use xlink:href="#f1_1d" transform="matrix(12,0,0,12,47.4,189.4)" />
<use xlink:href="#f1_18" transform="matrix(12,0,0,12,54.7,189.4)" />
<use xlink:href="#f1_1e" transform="matrix(12,0,0,12,66.6,189.4)" />
<use xlink:href="#f0_1b" transform="matrix(12,0,0,12,78.7,189.4)" />
<use xlink:href="#f0_f" transform="matrix(12,0,0,12,89.5,189.4)" />
<use xlink:href="#f0_u" transform="matrix(12,0,0,12,100,189.4)" />
<use xlink:href="#f0_b" transform="matrix(12,0,0,12,113.4,189.4)" />
<use xlink:href="#f0_5" transform="matrix(12,0,0,12,124.7,189.4)" />
<use xlink:href="#f0_4" transform="matrix(12,0,0,12,130.5,189.4)" />
<use xlink:href="#f0_7" transform="matrix(12,0,0,12,138.8,189.4)" />
<use xlink:href="#f0_8" transform="matrix(12,0,0,12,150,189.4)" />
<use xlink:href="#f0_i" transform="matrix(12,0,0,12,155.7,189.4)" />
<use xlink:href="#f0_g" transform="matrix(12,0,0,12,166,189.4)" />
<use xlink:href="#f0_9" transform="matrix(12,0,0,12,175,189.4)" />
<use xlink:href="#f0_6" transform="matrix(12,0,0,12,184.8,189.4)" />
<use xlink:href="#f0_9" transform="matrix(12,0,0,12,202.1,189.4)" />
<use xlink:href="#f0_a" transform="matrix(12,0,0,12,212,189.4)" />
<use xlink:href="#f0_d" transform="matrix(12,0,0,12,223.8,189.4)" />
<use xlink:href="#f0_r" transform="matrix(12,0,0,12,230.2,189.4)" />
<use xlink:href="#f2_3" transform="matrix(12,0,0,12,239.6,189.4)" />
<use xlink:href="#f0_w" transform="matrix(12,0,0,12,249.6,189.4)" />
<use xlink:href="#f0_1h" transform="matrix(12,0,0,12,264.5,189.4)" />
<use xlink:href="#f0_g" transform="matrix(12,0,0,12,279.5,189.4)" />
<use xlink:href="#f0_6" transform="matrix(12,0,0,12,288.6,189.4)" />
<use xlink:href="#f0_w" transform="matrix(12,0,0,12,310.6,189.4)" />
<use xlink:href="#f0_1l" transform="matrix(12,0,0,12,325.6,189.4)" />
<use xlink:href="#f0_o" transform="matrix(12,0,0,12,335.8,189.4)" />
<use xlink:href="#f0_1l" transform="matrix(12,0,0,12,341.1,189.4)" />
<use xlink:href="#f0_1h" transform="matrix(12,0,0,12,351.3,189.4)" />
<use xlink:href="#f0_6" transform="matrix(12,0,0,12,366.3,189.4)" />
<use xlink:href="#f0_2" transform="matrix(12,0,0,12,47.4,239.9)" />
<use xlink:href="#f0_g" transform="matrix(12,0,0,12,60.3,239.9)" />
<use xlink:href="#f0_g" transform="matrix(12,0,0,12,69.3,239.9)" />
<use xlink:href="#f0_9" transform="matrix(12,0,0,12,78.3,239.9)" />
<use xlink:href="#f0_8" transform="matrix(12,0,0,12,88.1,239.9)" />
<use xlink:href="#f0_9" transform="matrix(12,0,0,12,93.8,239.9)" />
<use xlink:href="#f0_u" transform="matrix(12,0,0,12,103.6,239.9)" />
<use xlink:href="#f0_i" transform="matrix(12,0,0,12,112.2,239.9)" />
<use xlink:href="#f0_d" transform="matrix(12,0,0,12,122.6,239.9)" />
<use xlink:href="#f0_5" transform="matrix(12,0,0,12,129,239.9)" />
<use xlink:href="#f0_f" transform="matrix(12,0,0,12,134.9,239.9)" />
<use xlink:href="#f0_a" transform="matrix(12,0,0,12,145.4,239.9)" />
<use xlink:href="#f0_5" transform="matrix(12,0,0,12,162,239.9)" />
<use xlink:href="#f0_4" transform="matrix(12,0,0,12,167.8,239.9)" />
<use xlink:href="#f0_m" transform="matrix(12,0,0,12,180.9,239.9)" />
<use xlink:href="#f0_5" transform="matrix(12,0,0,12,190.7,239.9)" />
<use xlink:href="#f0_s" transform="matrix(12,0,0,12,196.6,239.9)" />
<use xlink:href="#f0_9" transform="matrix(12,0,0,12,207.2,239.9)" />
<use xlink:href="#f0_a" transform="matrix(12,0,0,12,217,239.9)" />
<use xlink:href="#f0_k" transform="matrix(12,0,0,12,233.5,239.9)" />
<use xlink:href="#f0_l" transform="matrix(12,0,0,12,244.8,239.9)" />
<use xlink:href="#f0_13" transform="matrix(12,0,0,12,255.1,239.9)" />
<use xlink:href="#f2_g" transform="matrix(12,0,0,12,47.4,290.3)" />
<use xlink:href="#f0_w" transform="matrix(12,0,0,12,62.7,290.3)" />
</g>
</g>
<image preserveAspectRatio="none" x="78" y="269" width="58" height="34" xlink:href="img/2.png" />
<image preserveAspectRatio="none" x="47" y="321" width="126" height="75" xlink:href="img/3.png" />
<image preserveAspectRatio="none" x="173" y="321" width="154" height="75" xlink:href="img/4.png" />
<image preserveAspectRatio="none" x="47" y="414" width="135" height="37" xlink:href="img/5.png" />
<g clip-path="url(#c0_330)">
<g fill="#000000" >
<use xlink:href="#f0_1t" transform="matrix(12,0,0,12,47.4,491.9)" />
<use xlink:href="#f0_9" transform="matrix(12,0,0,12,59.7,491.9)" />
<use xlink:href="#f0_8" transform="matrix(12,0,0,12,69.5,491.9)" />
<use xlink:href="#f0_f" transform="matrix(12,0,0,12,75.2,491.9)" />
<use xlink:href="#f0_g" transform="matrix(12,0,0,12,85.8,491.9)" />
<use xlink:href="#f0_5" transform="matrix(12,0,0,12,94.8,491.9)" />
<use xlink:href="#f0_d" transform="matrix(12,0,0,12,100.7,491.9)" />
<use xlink:href="#f0_l" transform="matrix(12,0,0,12,107.1,491.9)" />
<use xlink:href="#f0_5" transform="matrix(12,0,0,12,122.2,491.9)" />
<use xlink:href="#f0_4" transform="matrix(12,0,0,12,128,491.9)" />
<use xlink:href="#f0_m" transform="matrix(12,0,0,12,141.1,491.9)" />
<use xlink:href="#f0_5" transform="matrix(12,0,0,12,150.9,491.9)" />
<use xlink:href="#f0_s" transform="matrix(12,0,0,12,156.8,491.9)" />
<use xlink:href="#f0_9" transform="matrix(12,0,0,12,167.4,491.9)" />
<use xlink:href="#f0_a" transform="matrix(12,0,0,12,177.2,491.9)" />
<use xlink:href="#f0_k" transform="matrix(12,0,0,12,193.7,491.9)" />
<use xlink:href="#f0_l" transform="matrix(12,0,0,12,205,491.9)" />
<use xlink:href="#f0_13" transform="matrix(12,0,0,12,215.3,491.9)" />
<use xlink:href="#f2_4" transform="matrix(12,0,0,12,47.4,545.4)" />
</g>
</g>
<image preserveAspectRatio="none" x="63" y="519" width="134" height="42" xlink:href="img/6.png" />
<image preserveAspectRatio="none" x="47" y="579" width="152" height="64" xlink:href="img/7.png" />
<image preserveAspectRatio="none" x="47" y="662" width="245" height="64" xlink:href="img/8.png" />
<image preserveAspectRatio="none" x="292" y="662" width="124" height="64" xlink:href="img/9.png" />
<g clip-path="url(#c0_330)">
<g fill="#000000" >
<use xlink:href="#f0_w" transform="matrix(12,0,0,12,47.4,766.9)" />
<use xlink:href="#f0_1l" transform="matrix(12,0,0,12,62.4,766.9)" />
<use xlink:href="#f0_o" transform="matrix(12,0,0,12,72.6,766.9)" />
<use xlink:href="#f0_1f" transform="matrix(12,0,0,12,77.8,766.9)" />
<use xlink:href="#f0_1q" transform="matrix(12,0,0,12,92.8,766.9)" />
<use xlink:href="#f0_6" transform="matrix(12,0,0,12,104.3,766.9)" />
<use xlink:href="#f0_1p" transform="matrix(12,0,0,12,121.6,766.9)" />
<use xlink:href="#f0_4" transform="matrix(12,0,0,12,126.9,766.9)" />
<use xlink:href="#f0_1v" transform="matrix(12,0,0,12,47.4,817.4)" />
<use xlink:href="#f0_e" transform="matrix(12,0,0,12,66.6,817.4)" />
<use xlink:href="#f0_9" transform="matrix(12,0,0,12,78.2,817.4)" />
<use xlink:href="#f0_a" transform="matrix(12,0,0,12,88,817.4)" />
<use xlink:href="#f0_d" transform="matrix(12,0,0,12,104.6,817.4)" />
<use xlink:href="#f0_e" transform="matrix(12,0,0,12,111,817.4)" />
<use xlink:href="#f0_9" transform="matrix(12,0,0,12,122.6,817.4)" />
<use xlink:href="#f0_b" transform="matrix(12,0,0,12,137.2,817.4)" />
<use xlink:href="#f0_5" transform="matrix(12,0,0,12,148.4,817.4)" />
<use xlink:href="#f0_4" transform="matrix(12,0,0,12,154.3,817.4)" />
<use xlink:href="#f0_7" transform="matrix(12,0,0,12,162.5,817.4)" />
<use xlink:href="#f0_8" transform="matrix(12,0,0,12,173.8,817.4)" />
<use xlink:href="#f0_i" transform="matrix(12,0,0,12,179.5,817.4)" />
<use xlink:href="#f0_g" transform="matrix(12,0,0,12,189.8,817.4)" />
<use xlink:href="#f0_9" transform="matrix(12,0,0,12,198.8,817.4)" />
<use xlink:href="#f0_6" transform="matrix(12,0,0,12,208.6,817.4)" />
<use xlink:href="#f0_9" transform="matrix(12,0,0,12,225.9,817.4)" />
<use xlink:href="#f0_a" transform="matrix(12,0,0,12,235.7,817.4)" />
<use xlink:href="#f0_d" transform="matrix(12,0,0,12,247.5,817.4)" />
<use xlink:href="#f0_f" transform="matrix(12,0,0,12,258.7,817.4)" />
<use xlink:href="#f0_j" transform="matrix(12,0,0,12,269.3,817.4)" />
<use xlink:href="#f0_d" transform="matrix(12,0,0,12,280.8,817.4)" />
<use xlink:href="#f0_e" transform="matrix(12,0,0,12,287.3,817.4)" />
<use xlink:href="#f0_9" transform="matrix(12,0,0,12,298.9,817.4)" />
<use xlink:href="#f0_k" transform="matrix(12,0,0,12,313.5,817.4)" />
<use xlink:href="#f0_f" transform="matrix(12,0,0,12,324.7,817.4)" />
<use xlink:href="#f0_b" transform="matrix(12,0,0,12,335.3,817.4)" />
<use xlink:href="#f0_l" transform="matrix(12,0,0,12,346.5,817.4)" />
<use xlink:href="#f0_5" transform="matrix(12,0,0,12,361.6,817.4)" />
<use xlink:href="#f0_4" transform="matrix(12,0,0,12,367.5,817.4)" />
<use xlink:href="#f0_1h" transform="matrix(12,0,0,12,380.5,817.4)" />
<use xlink:href="#f0_g" transform="matrix(12,0,0,12,395.5,817.4)" />
<use xlink:href="#f0_6" transform="matrix(12,0,0,12,404.5,817.4)" />
<use xlink:href="#f0_r" transform="matrix(12,0,0,12,421.8,817.4)" />
<use xlink:href="#f0_5" transform="matrix(12,0,0,12,431.1,817.4)" />
<use xlink:href="#f0_d" transform="matrix(12,0,0,12,437,817.4)" />
<use xlink:href="#f0_4" transform="matrix(12,0,0,12,443.4,817.4)" />
<use xlink:href="#f0_i" transform="matrix(12,0,0,12,456.4,817.4)" />
<use xlink:href="#f0_g" transform="matrix(12,0,0,12,466.7,817.4)" />
<use xlink:href="#f0_g" transform="matrix(12,0,0,12,475.8,817.4)" />
<use xlink:href="#f0_9" transform="matrix(12,0,0,12,484.8,817.4)" />
<use xlink:href="#f0_8" transform="matrix(12,0,0,12,494.6,817.4)" />
<use xlink:href="#f0_9" transform="matrix(12,0,0,12,500.3,817.4)" />
<use xlink:href="#f0_u" transform="matrix(12,0,0,12,510.1,817.4)" />
<use xlink:href="#f0_i" transform="matrix(12,0,0,12,518.7,817.4)" />
<use xlink:href="#f0_d" transform="matrix(12,0,0,12,529,817.4)" />
<use xlink:href="#f0_5" transform="matrix(12,0,0,12,535.5,817.4)" />
<use xlink:href="#f0_f" transform="matrix(12,0,0,12,541.3,817.4)" />
<use xlink:href="#f0_a" transform="matrix(12,0,0,12,551.9,817.4)" />
<use xlink:href="#f0_5" transform="matrix(12,0,0,12,568.5,817.4)" />
<use xlink:href="#f0_4" transform="matrix(12,0,0,12,574.3,817.4)" />
</g>
</g>
<image preserveAspectRatio="none" x="587" y="796" width="102" height="34" xlink:href="img/10.png" />
<g clip-path="url(#c0_330)">
<g fill="#000000" >
<use xlink:href="#f0_i" transform="matrix(12,0,0,12,689.7,817.4)" />
<use xlink:href="#f0_a" transform="matrix(12,0,0,12,700,817.4)" />
<use xlink:href="#f0_b" transform="matrix(12,0,0,12,711.8,817.4)" />
<use xlink:href="#f0_s" transform="matrix(12,0,0,12,727.8,817.4)" />
<use xlink:href="#f0_9" transform="matrix(12,0,0,12,738.4,817.4)" />
<use xlink:href="#f0_8" transform="matrix(12,0,0,12,748.2,817.4)" />
<use xlink:href="#f0_f" transform="matrix(12,0,0,12,753.9,817.4)" />
<use xlink:href="#f0_g" transform="matrix(12,0,0,12,764.5,817.4)" />
<use xlink:href="#f0_5" transform="matrix(12,0,0,12,773.5,817.4)" />
<use xlink:href="#f0_d" transform="matrix(12,0,0,12,779.3,817.4)" />
<use xlink:href="#f0_l" transform="matrix(12,0,0,12,785.8,817.4)" />
<use xlink:href="#f0_5" transform="matrix(12,0,0,12,800.9,817.4)" />
<use xlink:href="#f0_4" transform="matrix(12,0,0,12,806.7,817.4)" />
<use xlink:href="#f0_1l" transform="matrix(12,0,0,12,47.4,852.5)" />
<use xlink:href="#f0_o" transform="matrix(12,0,0,12,57.6,852.5)" />
<use xlink:href="#f0_1f" transform="matrix(12,0,0,12,62.8,852.5)" />
<use xlink:href="#f0_1q" transform="matrix(12,0,0,12,73.1,852.5)" />
<use xlink:href="#f0_6" transform="matrix(12,0,0,12,84.6,852.5)" />
<use xlink:href="#f0_1p" transform="matrix(12,0,0,12,101.9,852.5)" />
<use xlink:href="#f0_4" transform="matrix(12,0,0,12,107.2,852.5)" />
<use xlink:href="#f0_o" transform="matrix(12,0,0,12,115.4,852.5)" />
<use xlink:href="#f1_1d" transform="matrix(12,0,0,12,47.4,902.9)" />
<use xlink:href="#f1_o" transform="matrix(12,0,0,12,54.7,902.9)" />
<use xlink:href="#f1_1e" transform="matrix(12,0,0,12,64.3,902.9)" />
<use xlink:href="#f0_1b" transform="matrix(12,0,0,12,76.4,902.9)" />
<use xlink:href="#f0_f" transform="matrix(12,0,0,12,87.2,902.9)" />
<use xlink:href="#f0_u" transform="matrix(12,0,0,12,97.8,902.9)" />
<use xlink:href="#f0_b" transform="matrix(12,0,0,12,111.2,902.9)" />
<use xlink:href="#f0_5" transform="matrix(12,0,0,12,122.4,902.9)" />
<use xlink:href="#f0_4" transform="matrix(12,0,0,12,128.3,902.9)" />
<use xlink:href="#f0_7" transform="matrix(12,0,0,12,136.5,902.9)" />
<use xlink:href="#f0_8" transform="matrix(12,0,0,12,147.8,902.9)" />
<use xlink:href="#f0_i" transform="matrix(12,0,0,12,153.4,902.9)" />
<use xlink:href="#f0_g" transform="matrix(12,0,0,12,163.8,902.9)" />
<use xlink:href="#f0_9" transform="matrix(12,0,0,12,172.8,902.9)" />
<use xlink:href="#f0_6" transform="matrix(12,0,0,12,182.6,902.9)" />
<use xlink:href="#f0_9" transform="matrix(12,0,0,12,199.9,902.9)" />
<use xlink:href="#f0_a" transform="matrix(12,0,0,12,209.7,902.9)" />
<use xlink:href="#f0_d" transform="matrix(12,0,0,12,221.5,902.9)" />
<use xlink:href="#f0_r" transform="matrix(12,0,0,12,228,902.9)" />
<use xlink:href="#f2_3" transform="matrix(12,0,0,12,237.3,902.9)" />
<use xlink:href="#f0_w" transform="matrix(12,0,0,12,247.3,902.9)" />
<use xlink:href="#f0_1l" transform="matrix(12,0,0,12,262.3,902.9)" />
<use xlink:href="#f0_2" transform="matrix(12,0,0,12,47.4,953.3)" />
<use xlink:href="#f0_g" transform="matrix(12,0,0,12,60.3,953.3)" />
<use xlink:href="#f0_g" transform="matrix(12,0,0,12,69.3,953.3)" />
<use xlink:href="#f0_9" transform="matrix(12,0,0,12,78.3,953.3)" />
<use xlink:href="#f0_8" transform="matrix(12,0,0,12,88.1,953.3)" />
<use xlink:href="#f0_9" transform="matrix(12,0,0,12,93.8,953.3)" />
<use xlink:href="#f0_u" transform="matrix(12,0,0,12,103.6,953.3)" />
<use xlink:href="#f0_i" transform="matrix(12,0,0,12,112.2,953.3)" />
<use xlink:href="#f0_d" transform="matrix(12,0,0,12,122.6,953.3)" />
<use xlink:href="#f0_5" transform="matrix(12,0,0,12,129,953.3)" />
<use xlink:href="#f0_f" transform="matrix(12,0,0,12,134.9,953.3)" />
<use xlink:href="#f0_a" transform="matrix(12,0,0,12,145.4,953.3)" />
<use xlink:href="#f0_5" transform="matrix(12,0,0,12,162,953.3)" />
<use xlink:href="#f0_4" transform="matrix(12,0,0,12,167.8,953.3)" />
<use xlink:href="#f0_m" transform="matrix(12,0,0,12,180.9,953.3)" />
<use xlink:href="#f0_5" transform="matrix(12,0,0,12,190.7,953.3)" />
<use xlink:href="#f0_s" transform="matrix(12,0,0,12,196.6,953.3)" />
<use xlink:href="#f0_9" transform="matrix(12,0,0,12,207.2,953.3)" />
<use xlink:href="#f0_a" transform="matrix(12,0,0,12,217,953.3)" />
<use xlink:href="#f0_k" transform="matrix(12,0,0,12,233.5,953.3)" />
<use xlink:href="#f0_l" transform="matrix(12,0,0,12,244.8,953.3)" />
<use xlink:href="#f0_13" transform="matrix(12,0,0,12,255.1,953.3)" />
<use xlink:href="#f2_g" transform="matrix(12,0,0,12,47.4,1003.8)" />
<use xlink:href="#f0_w" transform="matrix(12,0,0,12,62.7,1003.8)" />
</g>
</g>
<image preserveAspectRatio="none" x="73" y="982" width="58" height="34" xlink:href="img/11.png" />
<g clip-path="url(#c0_330)">
<g fill="#000000" >
<use xlink:href="#f0_w" transform="matrix(12,0,0,12,131,1003.8)" />
<use xlink:href="#f0_1l" transform="matrix(12,0,0,12,146,1003.8)" />
<use xlink:href="#f0_1t" transform="matrix(12,0,0,12,47.4,1057.2)" />
<use xlink:href="#f0_9" transform="matrix(12,0,0,12,59.7,1057.2)" />
<use xlink:href="#f0_8" transform="matrix(12,0,0,12,69.5,1057.2)" />
<use xlink:href="#f0_f" transform="matrix(12,0,0,12,75.2,1057.2)" />
<use xlink:href="#f0_g" transform="matrix(12,0,0,12,85.8,1057.2)" />
<use xlink:href="#f0_5" transform="matrix(12,0,0,12,94.8,1057.2)" />
<use xlink:href="#f0_d" transform="matrix(12,0,0,12,100.7,1057.2)" />
<use xlink:href="#f0_l" transform="matrix(12,0,0,12,107.1,1057.2)" />
<use xlink:href="#f0_5" transform="matrix(12,0,0,12,122.2,1057.2)" />
<use xlink:href="#f0_4" transform="matrix(12,0,0,12,128,1057.2)" />
<use xlink:href="#f0_m" transform="matrix(12,0,0,12,141.1,1057.2)" />
<use xlink:href="#f0_5" transform="matrix(12,0,0,12,150.9,1057.2)" />
<use xlink:href="#f0_s" transform="matrix(12,0,0,12,156.8,1057.2)" />
<use xlink:href="#f0_9" transform="matrix(12,0,0,12,167.4,1057.2)" />
<use xlink:href="#f0_a" transform="matrix(12,0,0,12,177.2,1057.2)" />
<use xlink:href="#f0_k" transform="matrix(12,0,0,12,193.7,1057.2)" />
<use xlink:href="#f0_l" transform="matrix(12,0,0,12,205,1057.2)" />
<use xlink:href="#f0_13" transform="matrix(12,0,0,12,215.3,1057.2)" />
<use xlink:href="#f0_1t" transform="matrix(12,0,0,12,47.4,1110.7)" />
<use xlink:href="#f0_w" transform="matrix(12,0,0,12,59.7,1110.7)" />
</g>
</g>
<image preserveAspectRatio="none" x="75" y="1085" width="134" height="41" xlink:href="img/12.png" />
<g fill="#000000" >
<use xlink:href="#f3_q" transform="matrix(12,0,0,12,835.7,1269.6)" />
<use xlink:href="#f3_t" transform="matrix(12,0,0,12,844.9,1269.6)" />
</g>
<defs>
<path d="M348,79c0,0,46,0,85,15c0,0,36,14,64,42c0,0,25,27,40,66c0,0,14,39,14,87V412H454c0,0,-65,0,-109,-14c0,0,-44,-13,-70,-36c0,0,-27,-25,-39,-59c0,0,-12,-35,-11,-80c0,0,0,-73,30,-108c0,0,29,-36,93,-36ZM313,-14c0,0,-50,0,-94,14c0,0,-44,14,-75,45c0,0,-33,30,-50,77c0,0,-18,47,-18,109c0,0,0,123,87,182c0,0,85,59,261,60H551v93c0,0,0,42,-4,78c0,0,-5,34,-20,60c0,0,-15,26,-42,40c0,0,-28,14,-75,14c0,0,-44,0,-71,-12c0,0,-29,-13,-43,-35c0,0,-16,-23,-21,-53c0,0,-6,-31,-5,-66c0,0,-64,0,-96,21c0,0,-34,21,-34,75c0,0,0,39,22,67c0,0,21,28,60,45c0,0,36,17,87,26c0,0,49,7,107,8c0,0,69,0,122,-13c0,0,52,-15,87,-46c0,0,34,-31,53,-81c0,0,17,-52,17,-124V174c0,0,0,-33,5,-53c0,0,6,-22,17,-34c0,0,10,-12,30,-18c0,0,15,-5,38,-5c2,0,3,0,5,0h4V0H588L564,131H551c0,0,-24,-33,-46,-59c0,0,-22,-27,-49,-46C456,26,429,6,395,-3c0,0,-35,-11,-82,-11Z" 
id="f0_i"
transform="scale(0.001,-0.001)" />

<path d="M43,0V64H55c0,0,26,0,49,4c0,0,23,3,40,16c0,0,16,11,27,32c0,0,10,21,10,58V650c0,0,0,33,-10,55c0,0,-11,20,-28,31c0,0,-17,11,-39,15c0,0,-24,3,-49,4H51v64H298L318,695h7c0,0,23,42,51,70c0,0,25,27,56,43c0,0,29,14,63,21c0,0,32,5,69,5c0,0,60,-1,108,-17c0,0,47,-18,81,-54c0,0,32,-37,50,-93c0,0,17,-58,18,-135V174c0,0,0,-37,9,-58c0,0,7,-21,23,-32c0,0,16,-13,38,-16c0,0,21,-4,47,-4h5V0H677V527c0,0,0,50,-9,89c0,0,-10,39,-29,66c0,0,-20,26,-52,41c0,0,-33,13,-78,13c0,0,-53,0,-88,-20c0,0,-36,-20,-57,-54c0,0,-22,-35,-31,-79c0,0,-10,-45,-9,-94V166c0,0,0,-33,10,-53c0,0,10,-22,27,-32c0,0,16,-10,40,-13c0,0,22,-4,48,-4h5V0Z" 
id="f0_a"
transform="scale(0.001,-0.001)" />

<path d="M421,83c0,0,59,0,100,20c0,0,39,19,65,60c0,0,23,39,34,101c0,0,10,61,10,144c0,0,0,79,-10,141c0,0,-11,61,-34,103c0,0,-25,41,-65,63c0,0,-41,21,-101,21c0,0,-51,0,-86,-21c0,0,-36,-23,-58,-64c0,0,-24,-42,-34,-103c0,0,-10,-62,-10,-141c0,0,0,-163,44,-244c0,0,43,-80,145,-80ZM395,-14c-8,0,-78,1,-133,24c0,0,-59,24,-98,77c0,0,-39,52,-60,132c0,0,-20,79,-20,189c0,0,0,110,20,191c0,0,21,80,60,133c0,0,39,51,98,77c0,0,58,25,133,25c0,0,44,0,80,-10c0,0,36,-10,65,-27c0,0,28,-18,51,-43c0,0,21,-24,39,-54h4c0,0,0,36,0,70c0,0,0,27,0,57c0,0,0,27,0,41V993c0,0,-1,33,-10,54c0,0,-11,21,-29,32c0,0,-18,11,-41,15c0,0,-24,3,-49,3H492v64H773V168c0,0,0,-34,10,-54c0,0,10,-21,27,-32c0,0,17,-11,40,-14c0,0,22,-4,48,-4h13V0H652L636,137h-6c0,0,-18,-35,-39,-62c0,0,-23,-29,-51,-48C540,27,512,6,476,-3c0,0,-36,-11,-81,-11Z" 
id="f0_b"
transform="scale(0.001,-0.001)" />

<path d="M365,0L119,674c0,0,-9,23,-18,39c0,0,-11,15,-23,26c0,0,-12,8,-29,12c0,0,-17,3,-39,4H6v64H388V755H369c0,0,-47,0,-69,-18c0,0,-24,-18,-23,-56c0,0,-1,-13,3,-25c0,0,3,-14,9,-31L392,336c0,0,10,-26,21,-58c0,0,9,-33,20,-65c0,0,8,-31,16,-59c0,0,7,-29,11,-47h5c0,0,3,16,12,41c0,0,8,23,20,53c0,0,10,27,22,58c0,0,11,29,22,57L650,614c0,0,8,19,12,36c0,0,3,16,3,30c0,0,0,38,-25,57c0,0,-26,18,-76,18H553v64H880V755H862c0,0,-23,0,-38,-5c0,0,-17,-6,-29,-18c0,0,-12,-14,-24,-37c0,0,-12,-24,-26,-59L504,0Z" 
id="f0_s"
transform="scale(0.001,-0.001)" />

<path d="M586,481c0,0,0,60,-9,111c0,0,-9,50,-29,85c0,0,-19,36,-51,56c0,0,-33,18,-79,19c0,0,-87,-1,-133,-69c0,0,-46,-69,-46,-202ZM439,-14c0,0,-83,0,-149,27c0,0,-66,28,-112,82c0,0,-46,53,-69,132c0,0,-25,77,-25,177c0,0,0,213,88,322c0,0,88,108,251,108c0,0,73,0,133,-23c0,0,58,-24,100,-69c0,0,41,-46,63,-114c0,0,21,-69,22,-159V399H233c0,0,0,-84,15,-143c0,0,15,-61,44,-99c0,0,28,-40,71,-57c0,0,40,-19,93,-19c1,0,2,0,4,0c0,0,38,0,73,9c0,0,33,9,62,24c0,0,26,14,48,34c0,0,21,18,35,40c0,0,10,-4,20,-19c0,0,9,-15,9,-33c0,0,0,-24,-16,-49c0,0,-17,-27,-50,-50C641,37,607,14,557,0c0,0,-50,-14,-118,-14Z" 
id="f0_9"
transform="scale(0.001,-0.001)" />

<path d="M20,0V64H40c0,0,25,0,49,4c0,0,22,3,39,16c0,0,17,11,27,32c0,0,10,21,10,58V993c0,0,0,33,-10,54c0,0,-11,21,-27,32c0,0,-18,11,-40,15c0,0,-24,3,-48,3H20v64H309V174c0,0,-1,-37,10,-58c0,0,9,-21,26,-32c0,0,17,-13,41,-16c0,0,22,-4,48,-4h20V0Z" 
id="f0_8"
transform="scale(0.001,-0.001)" />

<path d="M442,64c0,0,56,0,97,23c0,0,38,22,64,66c0,0,24,43,36,108c0,0,9,65,10,150c0,0,0,85,-11,149c0,0,-11,64,-36,108c0,0,-25,42,-64,64c0,0,-41,21,-98,21c0,0,-58,0,-97,-21c0,0,-39,-22,-64,-64c0,0,-25,-44,-36,-108c0,0,-11,-64,-11,-149c0,0,0,-85,11,-150c0,0,11,-65,37,-108c0,0,24,-44,65,-66c0,0,38,-23,97,-23Zm-3,-78c0,0,-83,0,-149,25c0,0,-66,26,-111,79c0,0,-47,52,-70,134c0,0,-25,79,-25,187c0,0,0,213,91,319c0,0,90,103,268,104c0,0,82,0,149,-25c0,0,65,-26,111,-79c0,0,46,-53,71,-132c0,0,23,-80,23,-187c0,0,0,-216,-91,-321C706,90,614,-14,439,-14Z" 
id="f0_f"
transform="scale(0.001,-0.001)" />

<path d="M433,-14c0,0,-77,0,-141,23c0,0,-64,23,-110,74c0,0,-46,50,-72,130c0,0,-26,79,-26,192c0,0,0,122,26,205c0,0,26,82,72,132c0,0,46,49,108,71c0,0,61,21,134,21c0,0,47,0,96,-9c0,0,47,-10,85,-29c0,0,38,-19,62,-49c0,0,23,-30,24,-69c0,0,0,-54,-35,-74c0,0,-35,-22,-102,-22c0,0,0,35,-6,68c0,0,-6,32,-20,56c0,0,-15,24,-39,38c0,0,-26,14,-65,14c0,0,-44,0,-79,-16c0,0,-35,-18,-61,-57c0,0,-26,-40,-39,-108c0,0,-13,-69,-13,-170c0,0,-1,-164,54,-243c0,0,54,-80,177,-80h1c6,0,72,1,123,30c0,0,52,30,79,77c0,0,11,-10,19,-24c0,0,7,-15,7,-36c0,0,0,-27,-16,-52c0,0,-17,-26,-49,-47C627,32,594,10,546,0c0,0,-48,-14,-113,-14Z" 
id="f0_g"
transform="scale(0.001,-0.001)" />

<path d="M35,0V64H55c0,0,25,0,49,4c0,0,22,3,39,13c0,0,17,10,28,32c0,0,10,20,10,53V650c0,0,0,33,-10,55c0,0,-11,20,-28,31c0,0,-17,11,-39,15c0,0,-24,3,-49,4H51v64H324V174c0,0,0,-37,10,-58c0,0,10,-21,27,-32c0,0,16,-13,40,-16c0,0,22,-4,48,-4h20V0ZM249,972c-1,0,-2,0,-3,0c0,0,-1,0,-2,0c-5,0,-20,0,-32,5c0,0,-16,5,-28,16c0,0,-12,11,-18,29c0,0,-7,18,-7,45c0,0,0,27,7,45c0,0,6,17,18,29c0,0,12,11,28,15c0,0,15,5,34,5c0,0,18,0,34,-5c0,0,15,-4,27,-15c0,0,11,-12,19,-29c0,0,7,-18,7,-45c0,0,0,-27,-7,-45c0,0,-8,-18,-19,-29c0,0,-12,-11,-27,-16c0,0,-14,-5,-31,-5Z" 
id="f0_5"
transform="scale(0.001,-0.001)" />

<path d="M367,-14c0,0,-59,0,-100,13c0,0,-42,10,-69,38c0,0,-27,27,-39,73c0,0,-14,45,-14,112V732H29v61c0,0,28,0,61,11c0,0,32,11,58,37c0,0,26,28,43,68c0,0,15,38,28,98h70V819H489V732H289V217c0,0,-1,-78,32,-115c0,0,30,-36,83,-36c0,0,1,0,1,0c0,0,2,0,6,0c9,0,28,0,45,3c0,0,23,3,47,7V9C503,9,492,4,477,0c0,0,-15,-3,-33,-6c0,0,-20,-5,-39,-6c0,0,-20,-2,-38,-2Z" 
id="f0_d"
transform="scale(0.001,-0.001)" />

<path d="M58,-366v72h1c8,0,79,1,133,23c0,0,55,24,97,64c0,0,39,40,68,95c0,0,26,55,45,118L119,674c0,0,-10,23,-20,39c0,0,-10,14,-21,25c0,0,-13,9,-29,13c0,0,-17,3,-39,4H6v64H373V755h-4c0,0,-47,0,-69,-18c0,0,-24,-18,-23,-56c0,0,-1,-13,3,-25c0,0,2,-14,9,-31L401,353c0,0,9,-27,22,-57c0,0,11,-31,22,-61c0,0,9,-31,18,-57c0,0,7,-28,11,-47h4c0,0,8,34,23,82c0,0,14,48,34,103L637,614c0,0,7,19,11,36c0,0,2,16,2,30c0,0,0,38,-24,57c0,0,-26,18,-76,18h-5v64H863V755h-4c0,0,-23,0,-38,-5c0,0,-18,-6,-30,-18c0,0,-13,-14,-24,-37c0,0,-11,-24,-25,-59L510,-5c0,0,-27,-74,-50,-130c0,0,-25,-56,-50,-95c0,0,-27,-41,-57,-67c0,0,-32,-26,-71,-41c0,0,-40,-17,-91,-22c0,0,-51,-6,-119,-6Z" 
id="f0_l"
transform="scale(0.001,-0.001)" />

<path d="M321,-14c0,0,-58,0,-104,11c0,0,-48,7,-80,29c0,0,-33,20,-50,51c0,0,-18,30,-18,70c0,0,0,30,10,51c0,0,10,20,25,33c0,0,14,11,31,17c0,0,16,4,30,4c0,0,0,-41,8,-75c0,0,8,-36,28,-61c0,0,18,-28,51,-42c0,0,31,-16,78,-16c0,0,41,0,72,11c0,0,31,9,53,28c0,0,21,18,32,44c0,0,11,25,11,56c0,0,0,28,-8,49c0,0,-9,20,-30,38c0,0,-21,17,-58,37c0,0,-37,18,-92,42c0,0,-59,26,-102,51c0,0,-45,23,-72,52c0,0,-29,28,-43,65c0,0,-15,35,-14,86c0,0,-1,52,21,92c0,0,20,40,58,68c0,0,38,26,91,41c0,0,52,15,118,15c0,0,54,0,96,-12c0,0,41,-11,70,-30c0,0,28,-19,43,-44c0,0,14,-27,14,-55c0,0,-1,-42,-28,-66c0,0,-29,-25,-80,-25c-1,0,-2,0,-2,0c0,0,0,76,-32,119c0,0,-32,42,-100,42c0,0,-39,0,-66,-9c0,0,-28,-9,-45,-25c0,0,-18,-17,-26,-39c0,0,-8,-22,-8,-49c0,0,0,-29,10,-50c0,0,10,-22,34,-39c0,0,22,-18,59,-35c0,0,36,-17,86,-38c0,0,60,-26,104,-50c0,0,43,-24,72,-54c0,0,27,-29,41,-65c0,0,13,-37,13,-84c0,0,-1,-60,-21,-105c0,0,-23,-45,-62,-74C539,46,499,14,445,0c0,0,-56,-14,-124,-14Z" 
id="f0_4"
transform="scale(0.001,-0.001)" />

<path d="M427,67c0,0,56,0,94,33c0,0,38,32,62,94c0,0,23,61,34,151c0,0,10,88,10,202c0,0,0,112,-10,202c0,0,-11,88,-34,150c0,0,-24,60,-61,93c0,0,-39,31,-93,31c0,0,-56,0,-94,-31c0,0,-40,-33,-63,-93c0,0,-24,-62,-34,-150c0,0,-10,-90,-10,-202c0,0,0,-114,10,-202c0,0,10,-90,34,-151c0,0,23,-62,62,-94c0,0,38,-33,93,-33Zm0,-81c0,0,-94,0,-161,39c0,0,-69,41,-112,115c0,0,-44,73,-64,178c0,0,-22,103,-21,230c0,0,-1,126,21,230c0,0,20,103,64,176c0,0,44,72,112,113c0,0,67,39,163,39c0,0,89,0,157,-39c0,0,65,-41,111,-113c0,0,45,-73,67,-176c0,0,21,-104,22,-231c0,0,-1,-127,-22,-230c0,0,-22,-104,-67,-177C697,140,652,66,585,25c0,0,-67,-39,-158,-39Z" 
id="f0_1l"
transform="scale(0.001,-0.001)" />

<path d="M222,-9c-1,0,-2,0,-3,0c0,0,-1,0,-3,0c-6,0,-22,0,-35,5c0,0,-18,4,-30,16c0,0,-14,12,-21,32c0,0,-8,20,-8,49c0,0,0,30,8,50c0,0,7,19,21,32c0,0,12,11,30,17c0,0,17,5,38,5c0,0,18,0,37,-5c0,0,16,-6,30,-17c0,0,12,-13,21,-32c0,0,8,-20,8,-50c0,0,0,-29,-8,-49c0,0,-9,-20,-21,-32C286,12,272,0,256,-4c0,0,-17,-5,-34,-5Z" 
id="f0_o"
transform="scale(0.001,-0.001)" />

<path d="M562,-212c0,0,-127,52,-217,121c0,0,-91,68,-147,155c0,0,-58,87,-84,193c0,0,-27,104,-27,229c0,0,0,123,27,228c0,0,26,104,84,191c0,0,56,86,147,155c0,0,90,68,217,119v-96c0,0,-70,-47,-115,-112c0,0,-45,-66,-70,-143c0,0,-26,-78,-35,-164c0,0,-10,-88,-9,-178c0,0,-1,-91,9,-179c0,0,9,-88,35,-165c0,0,25,-79,70,-143c0,0,45,-67,115,-113v-98Z" 
id="f1_1d"
transform="scale(0.001,-0.001)" />

<path d="M540,99c1,0,2,0,2,0c3,0,76,1,109,82c0,0,34,81,34,233c0,0,0,155,-34,234c0,0,-33,76,-110,76c0,0,-46,0,-76,-18c0,0,-30,-20,-47,-58c0,0,-18,-40,-26,-97c0,0,-8,-60,-7,-138c0,0,-1,-76,7,-134c0,0,8,-60,26,-98c0,0,18,-41,48,-61c0,0,29,-21,74,-21ZM610,-14c-1,0,-2,0,-4,0h-1c-9,0,-47,1,-78,10c0,0,-37,8,-64,26c0,0,-30,18,-51,43c0,0,-23,24,-39,54H359L316,0H26V81H37c0,0,20,0,42,4c0,0,20,3,37,15c0,0,17,10,27,32c0,0,10,21,10,56V978c0,0,0,32,-10,53c0,0,-10,19,-26,31c0,0,-17,11,-38,14c0,0,-22,3,-47,4H26v81H383V900c0,0,0,-24,0,-56c0,0,0,-33,-3,-61c0,0,-4,-34,-7,-68h10c0,0,33,56,88,89c0,0,55,32,141,33c0,0,75,0,132,-25c0,0,57,-26,97,-76c0,0,39,-53,59,-132c0,0,20,-81,20,-191c0,0,0,-112,-20,-192c0,0,-22,-81,-61,-133c0,0,-39,-53,-97,-78c0,0,-59,-24,-132,-24Z" 
id="f1_18"
transform="scale(0.001,-0.001)" />

<path d="M49,-212v98c0,0,70,46,116,113c0,0,44,64,70,143c0,0,24,77,34,165c0,0,9,88,9,179c0,0,0,90,-9,178c0,0,-10,86,-34,164c0,0,-26,77,-70,143c0,0,-46,65,-116,112v96c0,0,127,-51,218,-119c0,0,90,-69,148,-155c0,0,56,-87,83,-191c0,0,25,-105,26,-228c0,0,-1,-125,-26,-229c0,0,-27,-106,-83,-193c0,0,-58,-87,-148,-155c0,0,-91,-69,-218,-121Z" 
id="f1_1e"
transform="scale(0.001,-0.001)" />

<path d="M58,0V64H78c0,0,24,0,48,4c0,0,22,3,40,13c0,0,16,10,27,32c0,0,10,20,10,53V923c0,0,0,33,-10,54c0,0,-11,20,-27,32c0,0,-18,11,-40,14c0,0,-24,3,-48,3H58v65H832V824H756l-7,65c0,0,-4,26,-12,49c0,0,-9,23,-25,40c0,0,-17,16,-43,27c0,0,-26,10,-61,10H357V573H726V498H357V174c0,0,0,-37,11,-58c0,0,9,-21,27,-32c0,0,15,-13,39,-16c0,0,23,-4,49,-4h50V0Z" 
id="f0_1b"
transform="scale(0.001,-0.001)" />

<path d="M51,0V64h4c0,0,26,0,49,4c0,0,23,3,40,16c0,0,16,11,27,32c0,0,10,21,10,58V650c0,0,0,33,-10,55c0,0,-11,20,-28,31c0,0,-17,11,-39,15c0,0,-24,3,-49,4H51v64H286L315,668h7c0,0,14,34,31,65c0,0,15,29,39,53c0,0,22,22,56,35c0,0,33,12,84,13c0,0,83,0,124,-29c0,0,41,-30,41,-82c0,0,0,-24,-8,-44c0,0,-9,-20,-25,-34c0,0,-17,-15,-44,-23c0,0,-27,-8,-66,-8c0,0,0,63,-18,92c0,0,-18,27,-62,27c0,0,-29,0,-51,-15c0,0,-22,-18,-39,-43c0,0,-17,-27,-28,-61c0,0,-13,-35,-19,-70c0,0,-8,-37,-10,-73c0,0,-4,-35,-3,-64V166c0,0,0,-33,10,-53c0,0,10,-22,27,-32c0,0,16,-10,40,-13c0,0,22,-4,48,-4h43V0Z" 
id="f0_u"
transform="scale(0.001,-0.001)" />

<path d="M518,83c0,0,50,0,86,21c0,0,35,21,58,63c0,0,23,41,33,104c0,0,10,61,11,142c0,0,-1,80,-11,142c0,0,-10,60,-33,101c0,0,-23,40,-58,60c0,0,-38,20,-88,20c0,0,-60,0,-99,-19c0,0,-41,-20,-64,-61c0,0,-24,-40,-34,-101c0,0,-10,-62,-10,-144c0,0,0,-80,10,-141c0,0,10,-62,35,-103c0,0,23,-42,64,-63c0,0,39,-21,100,-21ZM28,-366v64H40c0,0,25,0,49,4c0,0,22,3,39,16c0,0,17,11,27,33c0,0,10,21,10,58V650c0,0,0,33,-10,55c0,0,-11,20,-27,31c0,0,-18,11,-40,15c0,0,-24,3,-48,4H20v64H287L303,681h6c0,0,16,34,39,63c0,0,21,28,50,49c0,0,27,19,64,31c0,0,36,9,80,10c0,0,75,0,134,-25c0,0,58,-26,98,-76c0,0,38,-53,60,-132c0,0,20,-80,20,-190c0,0,0,-111,-20,-191c0,0,-22,-80,-60,-133c0,0,-40,-53,-98,-77c0,0,-57,-24,-131,-24c-1,0,-2,0,-3,0h-2c-8,0,-46,1,-77,10c0,0,-37,8,-65,26c0,0,-29,18,-50,43c0,0,-23,24,-39,54h-3c0,0,0,-39,0,-73c0,0,0,-15,0,-30c0,0,0,-15,0,-28c0,0,0,-14,0,-24c0,0,0,-11,0,-17V-199c0,0,0,-33,10,-54c0,0,10,-21,28,-31c0,0,17,-11,41,-14c0,0,23,-4,49,-4h5v-64Z" 
id="f0_7"
transform="scale(0.001,-0.001)" />

<path d="M43,0V64H63c0,0,25,0,47,4c0,0,21,3,38,16c0,0,15,11,24,32c0,0,8,21,9,58V650c0,0,0,33,-9,55c0,0,-9,20,-25,31c0,0,-16,11,-37,15c0,0,-22,3,-47,4H58v64H298L318,695h7c0,0,23,42,49,70c0,0,25,27,54,43c0,0,28,14,61,21c0,0,31,5,67,5c0,0,36,0,71,-7c0,0,33,-9,62,-24c0,0,28,-17,52,-43c0,0,21,-27,36,-65h13c0,0,23,42,50,70c0,0,27,27,57,43c0,0,30,14,64,21c0,0,32,5,68,5c0,0,59,-1,105,-17c0,0,45,-18,78,-54c0,0,32,-37,49,-93c0,0,17,-58,18,-135V174c0,0,0,-37,9,-58c0,0,9,-21,24,-32c0,0,16,-13,37,-16c0,0,21,-4,47,-4h5V0H1135V527c0,0,0,50,-8,89c0,0,-9,39,-27,66c0,0,-21,26,-50,41c0,0,-32,13,-75,13c0,0,-48,0,-80,-18c0,0,-33,-19,-53,-50c0,0,-21,-31,-28,-72c0,0,-9,-42,-9,-87V174c0,0,0,-37,9,-58c0,0,9,-21,24,-32c0,0,16,-13,38,-16c0,0,21,-4,47,-4h4V0H662V527c0,0,-1,50,-9,89c0,0,-8,39,-27,66c0,0,-20,26,-50,41c0,0,-31,13,-75,13c0,0,-50,0,-83,-20c0,0,-35,-20,-55,-54c0,0,-22,-35,-30,-79c0,0,-9,-45,-9,-94V166c0,0,0,-33,10,-53c0,0,10,-22,27,-32c0,0,16,-10,40,-13c0,0,22,-4,48,-4h5V0Z" 
id="f0_6"
transform="scale(0.001,-0.001)" />

<path d="M46,-234v64c0,0,74,23,110,58c0,0,34,35,35,79c0,0,-1,15,-8,26c0,0,-9,8,-21,17c0,0,-13,6,-27,15c0,0,-15,7,-27,18c0,0,-13,9,-21,26c0,0,-8,14,-8,38c0,0,0,43,29,67c0,0,28,23,71,23c0,0,23,-1,45,-8c0,0,20,-9,37,-26c0,0,16,-17,26,-41c0,0,9,-27,9,-58c0,0,0,-48,-13,-93c0,0,-14,-46,-44,-84c0,0,-30,-40,-77,-70c0,0,-49,-31,-116,-51Z" 
id="f0_r"
transform="scale(0.001,-0.001)" />

<path d="M-30,0l18,64H6c0,0,41,0,73,20c0,0,30,18,86,85L360,407L261,645c0,0,-29,70,-48,91c0,0,-19,18,-62,19H131l13,64H347L463,510L666,819H862L837,755H818c0,0,-45,-1,-75,-22c0,0,-31,-21,-84,-88L498,439L604,174c0,0,26,-69,46,-89c0,0,18,-21,61,-21q1,0,2,0h20L721,0H516L392,336L163,0Z" 
id="f2_3"
transform="scale(0.001,-0.001)" />

<path d="M99,350v90H755V350Zm0,300v91H755V650Z" 
id="f0_w"
transform="scale(0.001,-0.001)" />

<path d="M383,-14c-2,0,-4,0,-6,0h-1c-12,0,-79,1,-128,14c0,0,-56,12,-90,36c0,0,-36,23,-52,54c0,0,-17,30,-17,64c0,0,0,46,26,73c0,0,25,25,70,25c0,0,0,-40,13,-74c0,0,12,-35,38,-59c0,0,24,-24,61,-38c0,0,34,-14,79,-14c1,0,2,0,3,0c0,0,45,0,86,13c0,0,42,12,73,42c0,0,30,29,50,76c0,0,18,47,18,115c0,0,0,48,-18,88c0,0,-20,38,-55,67c0,0,-36,27,-88,43c0,0,-52,14,-115,15H281v78h49c0,0,50,0,94,17c0,0,44,16,77,47c0,0,31,29,50,74c0,0,19,43,19,98c0,0,0,45,-9,80c0,0,-10,34,-28,59c0,0,-21,25,-51,38c0,0,-32,12,-75,12c0,0,-53,0,-85,-18c0,0,-33,-20,-52,-50c0,0,-19,-31,-25,-73c0,0,-7,-41,-7,-86c0,0,-28,0,-52,4c0,0,-23,4,-41,17c0,0,-18,11,-28,30c0,0,-10,19,-10,48c0,0,0,43,19,82c0,0,19,37,57,65c0,0,38,28,94,43c0,0,56,15,130,15c0,0,71,0,131,-16c0,0,59,-17,101,-47c0,0,41,-31,65,-76c0,0,23,-46,23,-104c0,0,0,-51,-18,-97c0,0,-19,-46,-51,-82c0,0,-33,-38,-78,-63c0,0,-45,-27,-97,-39c0,0,27,-4,60,-10c0,0,32,-8,63,-21c0,0,32,-13,61,-33c0,0,28,-20,51,-50c0,0,21,-29,35,-67c0,0,12,-39,12,-89c0,0,0,-62,-16,-110c0,0,-17,-48,-45,-84c0,0,-29,-37,-67,-62c0,0,-38,-26,-81,-41C556,15,512,0,467,-6c0,0,-42,-8,-84,-8Z" 
id="f0_1h"
transform="scale(0.001,-0.001)" />

<path d="M683,442L588,709c0,0,-25,68,-43,127c0,0,-21,59,-33,114c0,0,-6,-28,-12,-53c0,0,-8,-26,-16,-53c0,0,-9,-26,-19,-55c0,0,-10,-31,-23,-66L338,442ZM0,0V64H29c0,0,1,0,3,0c6,0,23,1,35,5c0,0,16,5,28,18c0,0,12,13,25,37c0,0,11,22,25,60l339,907H604L949,145c0,0,8,-23,19,-39c0,0,8,-16,21,-25c0,0,12,-10,29,-13c0,0,17,-4,39,-4h20V0H657V64h35c0,0,92,0,92,73c0,0,0,12,-3,26c0,0,-4,14,-10,31L710,365H309L251,204c0,0,-8,-18,-11,-35c0,0,-4,-18,-4,-30c0,0,0,-40,26,-57c0,0,24,-18,76,-18h35V0Z" 
id="f0_2"
transform="scale(0.001,-0.001)" />

<path d="M351,-291c2,0,3,0,5,0c0,0,1,0,2,0c12,0,84,1,134,15c0,0,52,13,84,38c0,0,31,23,44,58c0,0,12,34,13,74c0,0,0,35,-10,59c0,0,-11,22,-30,35c0,0,-20,12,-49,17c0,0,-29,5,-67,5H327c0,0,-33,0,-62,-5c0,0,-31,-5,-54,-20c0,0,-24,-17,-38,-44c0,0,-15,-29,-14,-74c0,0,0,-34,9,-63c0,0,9,-29,31,-50c0,0,23,-22,61,-33c0,0,35,-12,91,-12Zm34,658c0,0,1,0,1,0c0,0,37,0,64,11c0,0,24,11,42,35c0,0,15,22,23,59c0,0,7,35,7,86c0,0,0,103,-31,152c0,0,-31,49,-106,49c0,0,-74,0,-105,-50c0,0,-33,-50,-32,-153c0,0,0,-98,32,-143c0,0,32,-46,105,-46ZM353,-366c-8,0,-162,1,-239,59c0,0,-80,59,-79,164c0,0,0,45,16,78c0,0,15,34,42,58c0,0,26,22,61,38c0,0,34,14,72,21c0,0,-16,7,-31,18c0,0,-14,11,-26,27c0,0,-13,16,-20,36c0,0,-8,20,-7,45c0,0,0,45,24,79c0,0,23,32,76,64c0,0,-33,13,-58,37c0,0,-27,23,-44,54c0,0,-18,30,-27,65c0,0,-10,36,-9,74c0,0,0,66,18,119c0,0,18,51,53,89c0,0,36,36,90,56c0,0,53,18,126,19c0,0,28,-1,54,-4c0,0,26,-4,50,-11c0,0,22,-8,41,-16c0,0,18,-9,29,-19c0,0,12,12,27,27c0,0,14,14,33,27c0,0,19,12,41,20c0,0,21,7,47,8c0,0,23,-1,40,-6c0,0,17,-7,28,-17c0,0,11,-11,17,-25c0,0,5,-15,5,-31c0,0,0,-17,-4,-31c0,0,-6,-15,-15,-25c0,0,-10,-12,-25,-17c0,0,-15,-7,-36,-7c0,0,0,9,-2,18c0,0,-3,9,-8,17c0,0,-6,7,-16,13c0,0,-10,4,-25,4c0,0,-19,0,-35,-4c0,0,-16,-5,-31,-14c0,0,26,-33,44,-76c0,0,16,-44,16,-109c0,0,-1,-57,-17,-105c0,0,-17,-48,-51,-82c0,0,-35,-36,-86,-56c0,0,-52,-19,-121,-19H348c0,0,-11,0,-21,1c0,0,-10,1,-15,3c0,0,-15,-9,-29,-17c0,0,-13,-9,-23,-20c0,0,-11,-11,-16,-25c0,0,-6,-15,-6,-32c0,0,-1,-19,7,-29c0,0,7,-12,20,-18c0,0,12,-7,30,-8c0,0,17,-2,38,-2H506c0,0,68,-1,116,-17c0,0,48,-17,78,-47c0,0,30,-32,44,-73c0,0,14,-41,14,-90c0,0,-1,-67,-24,-119c0,0,-25,-53,-75,-89c0,0,-50,-38,-126,-58c0,0,-77,-20,-180,-20Z" 
id="f0_m"
transform="scale(0.001,-0.001)" />

<path d="M518,83c0,0,50,0,86,21c0,0,35,21,58,63c0,0,23,41,33,104c0,0,10,61,11,142c0,0,-1,80,-11,142c0,0,-10,60,-33,101c0,0,-23,40,-58,60c0,0,-38,20,-88,20c0,0,-60,0,-99,-19c0,0,-41,-20,-64,-61c0,0,-24,-40,-34,-101c0,0,-10,-62,-10,-144c0,0,0,-80,10,-141c0,0,10,-62,35,-103c0,0,23,-42,64,-63c0,0,39,-21,100,-21Zm27,-97c-1,0,-2,0,-3,0h-2c-8,0,-46,1,-77,10c0,0,-37,8,-65,26c0,0,-29,18,-50,43c0,0,-23,24,-39,54H299L272,0H28V64H40c0,0,25,0,49,4c0,0,22,3,39,16c0,0,17,11,27,32c0,0,10,21,10,58V993c0,0,0,33,-10,54c0,0,-11,21,-27,32c0,0,-18,11,-40,15c0,0,-24,3,-48,3H28v64H306V880c0,0,0,-26,0,-59c0,0,0,-35,0,-66c0,0,0,-36,0,-74h3c0,0,16,34,39,63c0,0,21,28,50,49c0,0,27,19,64,31c0,0,36,9,80,10c0,0,75,0,134,-25c0,0,58,-26,98,-76c0,0,38,-53,60,-132c0,0,20,-80,20,-190c0,0,0,-111,-20,-191c0,0,-22,-80,-60,-133c0,0,-40,-53,-98,-77c0,0,-57,-24,-131,-24Z" 
id="f0_k"
transform="scale(0.001,-0.001)" />

<path d="M223,-9c-1,0,-2,0,-3,0c0,0,-1,0,-2,0c-6,0,-22,0,-35,5c0,0,-19,4,-31,16c0,0,-13,12,-21,32c0,0,-8,20,-7,49c0,0,-1,30,7,50c0,0,8,19,21,32c0,0,12,11,31,17c0,0,16,5,37,5c0,0,19,0,37,-5c0,0,17,-6,31,-17c0,0,12,-13,21,-32c0,0,7,-20,7,-50c0,0,0,-29,-7,-49c0,0,-9,-20,-21,-32C288,12,274,0,257,-4c0,0,-16,-5,-34,-5Zm0,627c-1,0,-2,0,-3,0c0,0,-1,0,-2,0c-6,0,-22,1,-35,6c0,0,-19,5,-31,18c0,0,-13,11,-21,32c0,0,-8,20,-7,49c0,0,-1,30,7,50c0,0,8,18,21,31c0,0,12,11,31,17c0,0,16,6,37,6c0,0,19,0,37,-6c0,0,17,-6,31,-17c0,0,12,-13,21,-31c0,0,7,-20,7,-50c0,0,0,-29,-7,-49c0,0,-9,-21,-21,-32c0,0,-14,-13,-31,-18c0,0,-16,-6,-34,-6Z" 
id="f0_13"
transform="scale(0.001,-0.001)" />

<path d="M318,81c2,0,76,1,159,113c0,0,84,113,111,246l57,270c0,0,-36,55,-116,55c0,0,-131,0,-219,-165c0,0,-88,-167,-88,-342c0,0,0,-177,96,-177ZM263,-14c0,0,-94,0,-145,73c0,0,-53,72,-52,205c0,0,0,210,131,390c0,0,130,180,324,180c0,0,103,-1,179,-55l67,39h49L712,328c0,0,-23,-106,-23,-169c0,0,0,-78,50,-78c0,0,44,0,111,40L877,76c0,0,-109,-90,-215,-90c0,0,-120,0,-120,126c0,0,0,48,16,119H548C548,231,438,-14,263,-14Z" 
id="f2_g"
transform="scale(0.001,-0.001)" />

<path d="M458,0L128,946c0,0,-8,23,-18,39c0,0,-10,16,-22,25c0,0,-13,9,-29,13c0,0,-17,3,-39,3H0v65H420v-65H385c0,0,-46,0,-69,-17c0,0,-24,-18,-23,-56c0,0,0,-12,4,-26c0,0,3,-14,9,-30L474,401c0,0,22,-69,39,-132c0,0,17,-65,29,-119c0,0,12,54,29,117c0,0,15,61,41,134L781,886c0,0,5,19,10,36c0,0,3,16,3,30c0,0,0,39,-24,57c0,0,-26,17,-76,17H659v65h372v-65h-29c0,0,-23,0,-38,-4c0,0,-17,-5,-29,-17c0,0,-14,-14,-25,-37c0,0,-12,-24,-24,-60L570,0Z" 
id="f0_1t"
transform="scale(0.001,-0.001)" />

<path d="M254,-12L147,674c0,0,-13,81,-106,81H26l12,64H267L338,367c0,0,27,-174,35,-271h4c0,0,114,110,198,257c0,0,84,146,84,235c0,0,-1,54,-26,85c0,0,-27,31,-69,31c0,0,-1,55,30,89c0,0,30,34,74,34c0,0,103,0,103,-142c0,0,0,-139,-105,-325C666,360,559,173,391,1L254,-12Z" 
id="f2_4"
transform="scale(0.001,-0.001)" />

<path d="M501,385V668c0,0,0,33,0,74c0,0,0,40,0,82c0,0,0,41,0,83c0,0,0,41,6,77c0,0,-6,-11,-15,-28c0,0,-10,-18,-21,-39c0,0,-13,-23,-26,-46c0,0,-15,-24,-28,-46c0,0,-15,-24,-26,-42c0,0,-13,-21,-21,-34L136,385ZM328,0V64h43c0,0,26,0,50,4c0,0,22,3,39,16c0,0,17,11,27,32c0,0,10,21,10,58V299H26v63l472,729H643V385H833V299H643V174c0,0,0,-37,10,-58c0,0,10,-21,27,-32c0,0,16,-13,40,-16c0,0,22,-4,48,-4h21V0Z" 
id="f0_1f"
transform="scale(0.001,-0.001)" />

<path d="M759,-11c0,0,-32,0,-59,11c0,0,-27,8,-46,31c0,0,-19,20,-29,56c0,0,-10,34,-10,82c0,0,0,28,0,66c0,0,0,37,0,80c0,0,0,41,0,86c0,0,-1,44,5,86c0,0,10,99,23,205H339V260c0,0,0,-68,-12,-115c0,0,-12,-50,-36,-82c0,0,-25,-32,-63,-47C228,16,188,0,133,0H66V64c0,0,29,0,55,11c0,0,24,10,45,38c0,0,18,25,33,71c0,0,13,44,21,112l44,396H206c0,0,-45,0,-66,-27c0,0,-21,-28,-27,-69H49c0,0,0,46,9,86c0,0,9,40,29,71c0,0,20,30,53,48c0,0,32,18,79,18H900V692H726c0,0,0,-100,0,-191c0,0,0,-41,0,-82c0,0,0,-42,0,-81c0,0,0,-40,0,-76c0,0,0,-36,0,-64c0,0,-1,-39,7,-61c0,0,8,-24,20,-36c0,0,13,-13,29,-16c0,0,15,-4,30,-4c0,0,17,0,32,4c0,0,13,3,28,8V23C872,23,854,8,824,0c0,0,-31,-11,-65,-11Z" 
id="f0_1q"
transform="scale(0.001,-0.001)" />

<path d="M0,-184L351,1161h89L90,-184Z" 
id="f0_1p"
transform="scale(0.001,-0.001)" />

<path d="M421,0L142,946c0,0,-8,23,-17,39c0,0,-10,16,-22,25c0,0,-13,9,-30,13c0,0,-17,3,-39,3H13v65H434v-65H399c0,0,-46,0,-69,-17c0,0,-23,-18,-23,-56c0,0,0,-12,4,-26c0,0,3,-14,8,-30L460,408c0,0,18,-70,36,-136c0,0,16,-68,30,-122c0,0,11,59,27,130c0,0,14,71,35,144l182,656H880L1071,419c0,0,21,-77,39,-146c0,0,16,-71,27,-123c0,0,11,54,26,116c0,0,13,61,35,135l134,471c0,0,2,9,6,20c0,0,3,11,5,23c0,0,2,10,4,20c0,0,1,10,2,17c0,0,0,39,-25,57c0,0,-26,17,-76,17h-35v65h373v-65h-29c0,0,-23,0,-39,-4c0,0,-17,-5,-31,-17c0,0,-13,-13,-24,-36c0,0,-11,-24,-23,-61L1182,0H1045L796,856L562,0Z" 
id="f0_1v"
transform="scale(0.001,-0.001)" />

<path d="M28,0V64H40c0,0,25,0,49,4c0,0,22,3,39,16c0,0,17,11,27,32c0,0,10,21,10,58V993c0,0,0,33,-10,54c0,0,-11,21,-27,32c0,0,-18,11,-40,15c0,0,-24,3,-48,3H28v64H308V825c0,0,0,-22,0,-43c0,0,-1,-24,-4,-43c0,0,0,-23,0,-44h6c0,0,68,139,225,139c0,0,65,-1,115,-17c0,0,50,-18,85,-54c0,0,34,-37,52,-93c0,0,18,-58,18,-135V174c0,0,0,-37,9,-58c0,0,9,-21,24,-32c0,0,16,-13,38,-16c0,0,21,-4,47,-4h4V0H662V527c0,0,0,50,-9,89c0,0,-10,39,-29,66c0,0,-20,26,-52,41c0,0,-33,13,-78,13c0,0,-49,0,-82,-17c0,0,-35,-18,-58,-50c0,0,-24,-33,-34,-78c0,0,-11,-46,-11,-102V166c0,0,0,-33,10,-53c0,0,10,-22,27,-32c0,0,17,-10,40,-13c0,0,22,-4,48,-4h5V0Z" 
id="f0_e"
transform="scale(0.001,-0.001)" />

<path d="M41,0V64H61c0,0,26,0,49,4c0,0,23,3,40,16c0,0,16,11,27,32c0,0,9,21,9,58V747H47v72H186v76c0,0,0,68,19,121c0,0,19,52,54,88c0,0,34,35,85,55c0,0,50,17,113,17c0,0,58,0,100,-7c0,0,41,-8,67,-22c0,0,24,-15,35,-34c0,0,12,-20,12,-43c0,0,0,-22,-9,-37c0,0,-11,-17,-26,-27c0,0,-18,-11,-40,-16c0,0,-24,-6,-51,-6c0,0,0,23,-4,45c0,0,-6,21,-17,39c0,0,-12,17,-31,28c0,0,-19,10,-48,10c0,0,-34,0,-55,-12c0,0,-22,-13,-36,-38c0,0,-13,-26,-18,-62c0,0,-6,-37,-6,-85V819H545V747H330V174c0,0,0,-37,10,-58c0,0,10,-21,27,-32c0,0,16,-13,40,-16c0,0,22,-4,48,-4h58V0Z" 
id="f0_j"
transform="scale(0.001,-0.001)" />

<path d="M451,-14c0,0,-85,0,-154,21c0,0,-71,21,-120,71c0,0,-51,50,-78,131c0,0,-28,80,-27,198c0,0,0,123,29,206c0,0,27,82,79,133c0,0,50,50,118,72c0,0,68,20,148,20c0,0,73,0,131,-11c0,0,56,-14,94,-35c0,0,38,-21,59,-50c0,0,18,-31,19,-64c0,0,-1,-25,-8,-48c0,0,-10,-24,-31,-41c0,0,-22,-18,-60,-30c0,0,-40,-11,-99,-11c0,0,0,39,-4,76c0,0,-6,35,-17,62c0,0,-11,26,-29,44c0,0,-20,15,-49,15c0,0,-34,0,-60,-15c0,0,-26,-18,-45,-56c0,0,-20,-39,-29,-103c0,0,-11,-66,-11,-163c0,0,0,-156,43,-232c0,0,42,-77,137,-77q1,0,2,0h1c8,0,42,1,73,10c0,0,35,9,63,26c0,0,27,16,50,40c0,0,21,22,34,48c0,0,19,-11,28,-30c0,0,9,-19,9,-40c0,0,-1,-29,-17,-59c0,0,-18,-31,-53,-54C677,40,639,15,584,1c0,0,-57,-15,-133,-15Z" 
id="f1_o"
transform="scale(0.001,-0.001)" />

<path d="M405,24c0,0,65,0,116,62c0,0,51,61,51,174c0,0,0,128,-50,221c0,0,-51,93,-144,93c0,0,-29,0,-61,-12c0,0,-33,-12,-96,-51c0,0,-14,-101,-14,-163c0,0,0,-72,27,-155c0,0,26,-84,79,-134c0,0,38,-35,92,-35ZM384,-17c0,0,-104,0,-177,68C207,51,66,185,66,397c0,0,0,136,54,258c0,0,54,122,156,217c0,0,101,95,193,128c0,0,93,33,172,33h44v-28c0,0,-99,-10,-161,-39c0,0,-62,-29,-123,-90c0,0,-61,-60,-101,-135c0,0,-39,-74,-66,-176c0,0,107,73,215,73c0,0,104,0,180,-83c0,0,76,-84,76,-215c0,0,0,-126,-77,-231c0,0,-92,-126,-244,-126Z" 
id="f3_q"
transform="scale(0.001,-0.001)" />

<path d="M379,437c0,0,34,0,81,16c0,0,47,17,83,47c0,0,14,97,14,155c0,0,0,72,-25,156c0,0,-25,83,-70,128c0,0,-45,45,-103,45c0,0,-66,0,-116,-60c0,0,-50,-59,-50,-177c0,0,0,-157,66,-246c0,0,49,-64,120,-64ZM80,-20V7c0,0,97,1,181,45c0,0,83,44,161,153c0,0,78,109,109,240c0,0,-117,-75,-212,-75c0,0,-107,0,-183,82c0,0,-76,82,-76,219c0,0,0,132,76,236c0,0,92,126,240,126c0,0,124,0,213,-103c0,0,109,-128,109,-315c0,0,0,-169,-82,-314C616,301,533,155,385,59c0,0,-120,-79,-262,-79Z" 
id="f3_t"
transform="scale(0.001,-0.001)" />


</defs>
</svg>