<?xml version="1.0" encoding="UTF-8" standalone="no"?>
<!DOCTYPE svg PUBLIC "-//W3C//DTD SVG 1.1//EN"
"http://www.w3.org/Graphics/SVG/1.1/DTD/svg11.dtd">
<svg viewBox="0 0 909 1286" version="1.1" xmlns="http://www.w3.org/2000/svg" xmlns:xlink="http://www.w3.org/1999/xlink">
<defs>
<clipPath id="c0_283"><path d="M35.1,1194.7V113.1H873.9V1194.7Z" /></clipPath>
</defs>
<image preserveAspectRatio="none" x="47" y="113" width="326" height="110" xlink:href="img/1.png" />
<image preserveAspectRatio="none" x="47" y="241" width="618" height="74" xlink:href="img/2.png" />
<image preserveAspectRatio="none" x="47" y="333" width="373" height="127" xlink:href="img/3.png" />
<image preserveAspectRatio="none" x="47" y="478" width="129" height="127" xlink:href="img/4.png" />
<image preserveAspectRatio="none" x="47" y="623" width="84" height="72" xlink:href="img/5.png" />
<image preserveAspectRatio="none" x="47" y="713" width="86" height="63" xlink:href="img/6.png" />
<image preserveAspectRatio="none" x="47" y="794" width="330" height="78" xlink:href="img/7.png" />
<image preserveAspectRatio="none" x="47" y="891" width="123" height="102" xlink:href="img/8.png" />
<image preserveAspectRatio="none" x="47" y="1011" width="138" height="72" xlink:href="img/9.png" />
<g clip-path="url(#c0_283)">
<g fill="#000000" >
<use xlink:href="#f0_p" transform="matrix(12,0,0,12,47.4,1144.3)" />
<use xlink:href="#f0_19" transform="matrix(12,0,0,12,57.6,1144.3)" />
<use xlink:href="#f0_n" transform="matrix(12,0,0,12,67.8,1144.3)" />
<use xlink:href="#f0_10" transform="matrix(12,0,0,12,73.4,1144.3)" />
<use xlink:href="#f0_t" transform="matrix(12,0,0,12,92,1144.3)" />
<use xlink:href="#f0_3" transform="matrix(12,0,0,12,103.8,1144.3)" />
<use xlink:href="#f0_6" transform="matrix(12,0,0,12,114.8,1144.3)" />
<use xlink:href="#f0_4" transform="matrix(12,0,0,12,124.3,1144.3)" />
<use xlink:href="#f0_7" transform="matrix(12,0,0,12,131.7,1144.3)" />
<use xlink:href="#f0_o" transform="matrix(12,0,0,12,138.2,1144.3)" />
<use xlink:href="#f0_8" transform="matrix(12,0,0,12,147.8,1144.3)" />
<use xlink:href="#f0_5" transform="matrix(12,0,0,12,154.3,1144.3)" />
<use xlink:href="#f0_7" transform="matrix(12,0,0,12,169.5,1144.3)" />
<use xlink:href="#f0_s" transform="matrix(12,0,0,12,175.9,1144.3)" />
<use xlink:href="#f0_f" transform="matrix(12,0,0,12,189.6,1144.3)" />
<use xlink:href="#f0_b" transform="matrix(12,0,0,12,207.7,1144.3)" />
<use xlink:href="#f0_1c" transform="matrix(12,0,0,12,218.9,1144.3)" />
<use xlink:href="#f0_7" transform="matrix(12,0,0,12,230,1144.3)" />
<use xlink:href="#f0_d" transform="matrix(12,0,0,12,236.4,1144.3)" />
<use xlink:href="#f0_l" transform="matrix(12,0,0,12,248.6,1144.3)" />
<use xlink:href="#f0_c" transform="matrix(12,0,0,12,263.7,1144.3)" />
<use xlink:href="#f0_7" transform="matrix(12,0,0,12,279.3,1144.3)" />
<use xlink:href="#f0_4" transform="matrix(12,0,0,12,285.8,1144.3)" />
<use xlink:href="#f0_u" transform="matrix(12,0,0,12,293.2,1144.3)" />
<use xlink:href="#f0_j" transform="matrix(12,0,0,12,310.2,1144.3)" />
<use xlink:href="#f0_1l" transform="matrix(12,0,0,12,320.9,1144.3)" />
<use xlink:href="#f0_1i" transform="matrix(12,0,0,12,335.9,1144.3)" />
<use xlink:href="#f0_7" transform="matrix(12,0,0,12,355.1,1144.3)" />
<use xlink:href="#f0_d" transform="matrix(12,0,0,12,361.5,1144.3)" />
<use xlink:href="#f0_3" transform="matrix(12,0,0,12,378.5,1144.3)" />
<use xlink:href="#f0_s" transform="matrix(12,0,0,12,394.2,1144.3)" />
<use xlink:href="#f0_4" transform="matrix(12,0,0,12,403.2,1144.3)" />
<use xlink:href="#f0_6" transform="matrix(12,0,0,12,410.6,1144.3)" />
<use xlink:href="#f0_3" transform="matrix(12,0,0,12,420.1,1144.3)" />
<use xlink:href="#f0_7" transform="matrix(12,0,0,12,431.1,1144.3)" />
<use xlink:href="#f0_l" transform="matrix(12,0,0,12,437.6,1144.3)" />
<use xlink:href="#f0_u" transform="matrix(12,0,0,12,447.8,1144.3)" />
<use xlink:href="#f0_4" transform="matrix(12,0,0,12,460.1,1144.3)" />
<use xlink:href="#f0_8" transform="matrix(12,0,0,12,472.2,1144.3)" />
<use xlink:href="#f0_7" transform="matrix(12,0,0,12,478.6,1144.3)" />
<use xlink:href="#f0_d" transform="matrix(12,0,0,12,485.1,1144.3)" />
<use xlink:href="#f0_5" transform="matrix(12,0,0,12,497.3,1144.3)" />
<use xlink:href="#f0_n" transform="matrix(12,0,0,12,507.8,1144.3)" />
<use xlink:href="#f0_1o" transform="matrix(12,0,0,12,518.1,1144.3)" />
<use xlink:href="#f0_u" transform="matrix(12,0,0,12,537.6,1144.3)" />
<use xlink:href="#f0_5" transform="matrix(12,0,0,12,549.9,1144.3)" />
<use xlink:href="#f0_d" transform="matrix(12,0,0,12,560.3,1144.3)" />
<use xlink:href="#f0_4" transform="matrix(12,0,0,12,577.3,1144.3)" />
<use xlink:href="#f0_u" transform="matrix(12,0,0,12,584.7,1144.3)" />
<use xlink:href="#f0_5" transform="matrix(12,0,0,12,596.9,1144.3)" />
<use xlink:href="#f0_a" transform="matrix(12,0,0,12,612.1,1144.3)" />
<use xlink:href="#f0_7" transform="matrix(12,0,0,12,624,1144.3)" />
<use xlink:href="#f0_s" transform="matrix(12,0,0,12,630.4,1144.3)" />
<use xlink:href="#f0_4" transform="matrix(12,0,0,12,639.4,1144.3)" />
<use xlink:href="#f0_3" transform="matrix(12,0,0,12,646.8,1144.3)" />
<use xlink:href="#f0_d" transform="matrix(12,0,0,12,657.8,1144.3)" />
<use xlink:href="#f0_o" transform="matrix(12,0,0,12,670,1144.3)" />
<use xlink:href="#f0_5" transform="matrix(12,0,0,12,679.6,1144.3)" />
<use xlink:href="#f0_b" transform="matrix(12,0,0,12,694.8,1144.3)" />
<use xlink:href="#f0_e" transform="matrix(12,0,0,12,706,1144.3)" />
<use xlink:href="#f0_4" transform="matrix(12,0,0,12,718.2,1144.3)" />
<use xlink:href="#f0_u" transform="matrix(12,0,0,12,725.6,1144.3)" />
<use xlink:href="#f0_5" transform="matrix(12,0,0,12,737.9,1144.3)" />
<use xlink:href="#f0_t" transform="matrix(12,0,0,12,753.1,1144.3)" />
<use xlink:href="#f0_3" transform="matrix(12,0,0,12,764.9,1144.3)" />
<use xlink:href="#f0_6" transform="matrix(12,0,0,12,775.9,1144.3)" />
<use xlink:href="#f0_4" transform="matrix(12,0,0,12,785.4,1144.3)" />
<use xlink:href="#f0_7" transform="matrix(12,0,0,12,792.8,1144.3)" />
<use xlink:href="#f0_o" transform="matrix(12,0,0,12,799.3,1144.3)" />
<use xlink:href="#f0_8" transform="matrix(12,0,0,12,808.9,1144.3)" />
<use xlink:href="#f0_5" transform="matrix(12,0,0,12,815.4,1144.3)" />
<use xlink:href="#f0_e" transform="matrix(12,0,0,12,47.4,1176.4)" />
<use xlink:href="#f0_6" transform="matrix(12,0,0,12,54.8,1176.4)" />
<use xlink:href="#f0_b" transform="matrix(12,0,0,12,64.4,1176.4)" />
<use xlink:href="#f0_f" transform="matrix(12,0,0,12,75.6,1176.4)" />
<use xlink:href="#f0_f" transform="matrix(12,0,0,12,98.4,1176.4)" />
<use xlink:href="#f0_5" transform="matrix(12,0,0,12,116.5,1176.4)" />
<use xlink:href="#f0_3" transform="matrix(12,0,0,12,126.9,1176.4)" />
<use xlink:href="#f0_d" transform="matrix(12,0,0,12,137.9,1176.4)" />
<use xlink:href="#f0_t" transform="matrix(12,0,0,12,154.9,1176.4)" />
<use xlink:href="#f0_b" transform="matrix(12,0,0,12,166.7,1176.4)" />
<use xlink:href="#f0_s" transform="matrix(12,0,0,12,177.9,1176.4)" />
<use xlink:href="#f0_7" transform="matrix(12,0,0,12,186.9,1176.4)" />
<use xlink:href="#f0_4" transform="matrix(12,0,0,12,193.3,1176.4)" />
<use xlink:href="#f0_7" transform="matrix(12,0,0,12,200.7,1176.4)" />
<use xlink:href="#f0_b" transform="matrix(12,0,0,12,207.2,1176.4)" />
<use xlink:href="#f0_d" transform="matrix(12,0,0,12,218.4,1176.4)" />
<use xlink:href="#f0_u" transform="matrix(12,0,0,12,235.3,1176.4)" />
<use xlink:href="#f0_3" transform="matrix(12,0,0,12,247.6,1176.4)" />
<use xlink:href="#f0_s" transform="matrix(12,0,0,12,258.6,1176.4)" />
<use xlink:href="#f0_1c" transform="matrix(12,0,0,12,272.2,1176.4)" />
<use xlink:href="#f0_3" transform="matrix(12,0,0,12,283.3,1176.4)" />
<use xlink:href="#f0_8" transform="matrix(12,0,0,12,294.3,1176.4)" />
<use xlink:href="#f0_m" transform="matrix(12,0,0,12,300.8,1176.4)" />
<use xlink:href="#f0_5" transform="matrix(12,0,0,12,313,1176.4)" />
<use xlink:href="#f0_s" transform="matrix(12,0,0,12,323.4,1176.4)" />
<use xlink:href="#f0_1n" transform="matrix(12,0,0,12,337.1,1176.4)" />
<use xlink:href="#f0_p" transform="matrix(12,0,0,12,349,1176.4)" />
<use xlink:href="#f0_3" transform="matrix(12,0,0,12,363.9,1176.4)" />
<use xlink:href="#f0_d" transform="matrix(12,0,0,12,374.9,1176.4)" />
<use xlink:href="#f0_a" transform="matrix(12,0,0,12,387.1,1176.4)" />
<use xlink:href="#f0_1n" transform="matrix(12,0,0,12,403.8,1176.4)" />
<use xlink:href="#f0_r" transform="matrix(12,0,0,12,415.6,1176.4)" />
<use xlink:href="#f0_4" transform="matrix(12,0,0,12,430.6,1176.4)" />
<use xlink:href="#f0_u" transform="matrix(12,0,0,12,438,1176.4)" />
<use xlink:href="#f0_5" transform="matrix(12,0,0,12,450.2,1176.4)" />
<use xlink:href="#f0_o" transform="matrix(12,0,0,12,465.4,1176.4)" />
<use xlink:href="#f0_b" transform="matrix(12,0,0,12,475.1,1176.4)" />
<use xlink:href="#f0_6" transform="matrix(12,0,0,12,486.3,1176.4)" />
<use xlink:href="#f0_6" transform="matrix(12,0,0,12,495.9,1176.4)" />
<use xlink:href="#f0_5" transform="matrix(12,0,0,12,505.5,1176.4)" />
<use xlink:href="#f0_s" transform="matrix(12,0,0,12,515.9,1176.4)" />
<use xlink:href="#f0_t" transform="matrix(12,0,0,12,524.8,1176.4)" />
<use xlink:href="#f0_b" transform="matrix(12,0,0,12,536.7,1176.4)" />
<use xlink:href="#f0_d" transform="matrix(12,0,0,12,547.9,1176.4)" />
<use xlink:href="#f0_a" transform="matrix(12,0,0,12,560.1,1176.4)" />
<use xlink:href="#f0_7" transform="matrix(12,0,0,12,572,1176.4)" />
<use xlink:href="#f0_d" transform="matrix(12,0,0,12,578.4,1176.4)" />
<use xlink:href="#f0_l" transform="matrix(12,0,0,12,590.7,1176.4)" />
<use xlink:href="#f0_1c" transform="matrix(12,0,0,12,605.7,1176.4)" />
<use xlink:href="#f0_3" transform="matrix(12,0,0,12,616.8,1176.4)" />
<use xlink:href="#f0_8" transform="matrix(12,0,0,12,627.7,1176.4)" />
<use xlink:href="#f0_m" transform="matrix(12,0,0,12,634.2,1176.4)" />
<use xlink:href="#f0_5" transform="matrix(12,0,0,12,646.4,1176.4)" />
<use xlink:href="#f0_s" transform="matrix(12,0,0,12,656.9,1176.4)" />
<use xlink:href="#f0_b" transform="matrix(12,0,0,12,670.6,1176.4)" />
<use xlink:href="#f0_e" transform="matrix(12,0,0,12,681.8,1176.4)" />
<use xlink:href="#f0_1c" transform="matrix(12,0,0,12,694,1176.4)" />
<use xlink:href="#f0_5" transform="matrix(12,0,0,12,705.1,1176.4)" />
<use xlink:href="#f0_8" transform="matrix(12,0,0,12,715.5,1176.4)" />
<use xlink:href="#f0_b" transform="matrix(12,0,0,12,722,1176.4)" />
<use xlink:href="#f0_o" transform="matrix(12,0,0,12,733.2,1176.4)" />
<use xlink:href="#f0_7" transform="matrix(12,0,0,12,742.8,1176.4)" />
<use xlink:href="#f0_4" transform="matrix(12,0,0,12,749.3,1176.4)" />
<use xlink:href="#f0_7" transform="matrix(12,0,0,12,756.7,1176.4)" />
<use xlink:href="#f0_5" transform="matrix(12,0,0,12,763.1,1176.4)" />
<use xlink:href="#f0_s" transform="matrix(12,0,0,12,773.6,1176.4)" />
<use xlink:href="#f0_3" transform="matrix(12,0,0,12,787.3,1176.4)" />
<use xlink:href="#f0_6" transform="matrix(12,0,0,12,798.2,1176.4)" />
<use xlink:href="#f0_5" transform="matrix(12,0,0,12,807.8,1176.4)" />
<use xlink:href="#f0_1c" transform="matrix(12,0,0,12,823,1176.4)" />
<use xlink:href="#f0_p" transform="matrix(12,0,0,12,834.1,1176.4)" />
</g>
</g>
<g fill="#000000" >
<use xlink:href="#f1_m" transform="matrix(12,0,0,12,835.7,1269.6)" />
<use xlink:href="#f1_m" transform="matrix(12,0,0,12,844.9,1269.6)" />
</g>
<defs>
<path d="M148,0V81H274c0,0,1,0,2,0c5,0,19,1,31,6c0,0,14,4,24,15c0,0,10,11,14,31c0,0,5,18,5,48V946c0,0,-29,-36,-55,-65c0,0,-26,-29,-50,-50c0,0,-23,-22,-46,-32c0,0,-22,-12,-44,-12q-1,0,-2,0c0,0,-19,0,-34,8c0,0,-18,8,-29,23c0,0,-12,14,-18,35c0,0,-9,21,-8,47c0,0,23,5,49,15c0,0,25,7,54,22c0,0,28,13,61,34c0,0,32,18,71,47l108,79H577V181c0,0,0,-24,4,-43c0,0,3,-19,12,-31c0,0,8,-14,24,-19c0,0,14,-7,39,-7H779V0Z" 
id="f0_p"
transform="scale(0.001,-0.001)" />

<path d="M452,86c0,0,58,0,93,60c0,0,34,59,34,192c0,0,-1,124,-37,181c0,0,-38,57,-103,57c0,0,-22,-1,-44,-6c0,0,-24,-8,-44,-17c0,0,-23,-11,-39,-23c0,0,-18,-14,-28,-27c0,0,0,-110,14,-189c0,0,12,-80,35,-130c0,0,23,-51,53,-74c0,0,30,-24,66,-24ZM448,-14c0,0,-85,0,-155,30c0,0,-71,30,-119,95c0,0,-51,64,-78,162c0,0,-28,97,-27,231c0,0,0,126,26,236c0,0,26,109,81,191c0,0,54,81,136,128c0,0,81,47,192,47c0,0,74,0,126,-14c0,0,50,-15,83,-37c0,0,32,-24,47,-54c0,0,14,-31,14,-63c0,0,0,-24,-9,-45c0,0,-11,-22,-32,-38c0,0,-21,-17,-56,-26c0,0,-33,-10,-80,-10c-2,0,-4,0,-5,0c0,0,0,34,-5,69c0,0,-4,35,-16,64c0,0,-11,27,-31,46c0,0,-20,18,-51,18c0,0,-45,0,-81,-27c0,0,-37,-27,-63,-78c0,0,-27,-52,-43,-126c0,0,-16,-76,-16,-173c0,0,16,10,36,21c0,0,20,10,46,18c0,0,25,8,58,14c0,0,31,4,71,4c0,0,68,-1,125,-21c0,0,55,-22,96,-62c0,0,38,-42,61,-100c0,0,21,-59,21,-133c0,0,0,-82,-22,-149c0,0,-23,-69,-66,-117C712,87,667,39,601,12c0,0,-66,-26,-153,-26Z" 
id="f0_19"
transform="scale(0.001,-0.001)" />

<path d="M232,-11c0,0,-26,0,-49,7c0,0,-24,4,-40,19c0,0,-17,13,-27,37c0,0,-10,23,-9,58c0,0,-1,34,9,59c0,0,10,22,27,37c0,0,16,14,40,20c0,0,23,5,49,6c0,0,25,-1,48,-6c0,0,23,-6,40,-20c0,0,16,-15,28,-37c0,0,9,-25,9,-59c0,0,0,-35,-9,-58c0,0,-12,-24,-28,-37C320,15,303,0,280,-4c0,0,-23,-7,-48,-7Z" 
id="f0_n"
transform="scale(0.001,-0.001)" />

<path d="M674,452L593,703c0,0,-9,25,-16,55c0,0,-10,28,-18,58c0,0,-8,29,-16,60c0,0,-9,29,-14,56c0,0,-7,-24,-16,-51c0,0,-9,-28,-18,-57c0,0,-11,-29,-21,-58c0,0,-10,-29,-19,-56L365,452ZM6,0V81H25c0,0,20,0,37,5c0,0,16,4,31,17c0,0,14,12,28,34c0,0,12,20,26,55l331,899H688L1007,191c0,0,11,-33,24,-53c0,0,12,-22,27,-34c0,0,13,-12,30,-17c0,0,15,-6,32,-6c1,0,2,0,3,0h27V0H646V81h60c0,0,10,0,23,4c0,0,11,2,21,10c0,0,9,7,15,18c0,0,6,12,6,27c0,0,0,19,-4,36c0,0,-5,16,-9,30L704,359H333L289,228c0,0,-7,-20,-12,-44c0,0,-7,-26,-7,-44c0,0,0,-15,6,-26c0,0,5,-11,16,-18c0,0,9,-8,22,-11c0,0,12,-4,25,-4h65V0Z" 
id="f0_10"
transform="scale(0.001,-0.001)" />

<path d="M535,95c0,0,77,0,110,77c0,0,32,77,33,233c0,0,-1,152,-33,234c0,0,-34,81,-109,81c0,0,-46,0,-76,-20c0,0,-30,-22,-48,-61c0,0,-18,-40,-26,-98c0,0,-8,-60,-7,-134c0,0,-1,-80,7,-138c0,0,8,-59,26,-97c0,0,17,-40,48,-58c0,0,29,-19,75,-19ZM20,-366v81H38c0,0,16,0,37,4c0,0,18,3,35,13c0,0,15,10,27,30c0,0,9,19,10,53V631c0,0,0,34,-7,56c0,0,-9,21,-22,32c0,0,-15,11,-33,15c0,0,-20,3,-41,4H34v81H333L360,700h7c0,0,16,30,39,54c0,0,21,25,51,43c0,0,27,17,64,27c0,0,36,10,80,10c0,0,75,0,135,-25c0,0,58,-26,97,-77c0,0,39,-53,61,-134c0,0,20,-81,20,-191c0,0,0,-112,-20,-191c0,0,-20,-80,-59,-132C835,84,795,31,739,7c0,0,-56,-25,-129,-25c-1,0,-2,0,-4,0c0,0,-87,0,-141,33c0,0,-55,32,-88,89H367c0,0,3,-35,7,-69c0,0,3,-28,3,-59c0,0,0,-33,0,-56V-185c0,0,0,-34,11,-53c0,0,11,-20,27,-30c0,0,16,-10,36,-13c0,0,18,-4,35,-4h35v-81Z" 
id="f0_t"
transform="scale(0.001,-0.001)" />

<path d="M392,96c0,0,32,0,60,14c0,0,25,13,46,38c0,0,18,26,29,62c0,0,9,35,9,79V403H468c0,0,-47,-1,-77,-13c0,0,-31,-13,-50,-34c0,0,-19,-22,-27,-53c0,0,-8,-33,-8,-74c0,0,-1,-67,21,-100c0,0,21,-33,65,-33ZM314,-14c-2,0,-3,0,-5,0c0,0,-51,0,-94,14c0,0,-44,15,-76,46c0,0,-33,32,-52,79c0,0,-19,47,-18,111c0,0,-1,125,85,185c0,0,85,61,257,61H536v86c0,0,0,38,-3,71c0,0,-3,32,-12,57c0,0,-11,23,-29,37c0,0,-19,11,-50,12c0,0,-30,0,-49,-12c0,0,-20,-13,-32,-34c0,0,-13,-22,-16,-52c0,0,-6,-31,-6,-67h-1c-11,0,-105,1,-153,24c0,0,-53,23,-52,79c0,0,-1,41,25,71c0,0,24,29,68,49c0,0,43,18,100,27c0,0,57,8,122,8c0,0,80,0,141,-13c0,0,59,-15,100,-45c0,0,38,-30,59,-80c0,0,20,-50,20,-121V189c0,0,0,-31,6,-52c0,0,4,-21,15,-33c0,0,9,-12,28,-17c0,0,15,-6,39,-6c1,0,3,0,4,0h6V0H582L550,105H536c0,0,-26,-30,-47,-53c0,0,-23,-24,-48,-38C441,14,415,0,384,-6c0,0,-30,-8,-70,-8Z" 
id="f0_3"
transform="scale(0.001,-0.001)" />

<path d="M31,0V81h4c0,0,25,0,48,4c0,0,21,3,37,16c0,0,16,11,25,33c0,0,7,20,8,57V634c0,0,0,33,-8,55c0,0,-8,20,-22,31c0,0,-15,11,-35,15c0,0,-20,3,-45,3H38v81H347L377,700h8c0,0,14,34,33,60c0,0,17,26,43,43c0,0,24,16,59,26c0,0,34,7,81,8c0,0,90,0,132,-31c0,0,43,-33,43,-93c0,0,-1,-71,-51,-109c0,0,-50,-39,-141,-39c0,0,-1,0,-2,0c0,0,-1,32,-4,56c0,0,-4,23,-12,39c0,0,-9,16,-23,24c0,0,-15,8,-36,8c0,0,-28,0,-47,-13c0,0,-20,-14,-33,-34c0,0,-14,-22,-22,-49c0,0,-9,-27,-13,-54c0,0,-6,-28,-6,-52c0,0,0,-25,0,-42V184c0,0,0,-34,9,-54c0,0,7,-22,22,-32c0,0,13,-10,34,-13c0,0,18,-4,41,-4h49V0Z" 
id="f0_6"
transform="scale(0.001,-0.001)" />

<path d="M371,-14c0,0,-52,0,-93,13c0,0,-42,11,-71,40c0,0,-29,27,-44,74c0,0,-16,46,-16,113V715H32v78c0,0,49,0,88,19c0,0,38,19,62,45c0,0,46,49,70,152H379V819H574V715H379V242c0,0,0,-70,24,-102c0,0,22,-32,75,-32c0,0,1,0,2,0c0,0,29,0,57,5c0,0,27,3,51,9V23c0,0,-13,-6,-32,-13C556,10,534,4,508,0c0,0,-28,-7,-62,-10c0,0,-35,-4,-75,-4Z" 
id="f0_4"
transform="scale(0.001,-0.001)" />

<path d="M26,0V81H44c0,0,16,0,37,4c0,0,17,3,35,13c0,0,15,10,26,30c0,0,10,19,11,53V645c0,0,-1,29,-11,49c0,0,-11,18,-27,28c0,0,-17,9,-35,13c0,0,-20,3,-36,3H26v81H385V181c0,0,0,-34,11,-53c0,0,10,-20,27,-30c0,0,16,-10,35,-13c0,0,19,-4,36,-4h18V0ZM261,956c0,0,-28,0,-51,7c0,0,-24,7,-41,20c0,0,-18,13,-27,35c0,0,-11,20,-11,49c0,0,0,28,11,50c0,0,9,21,27,34c0,0,17,12,41,19c0,0,23,6,51,6c0,0,25,0,50,-6c0,0,23,-7,42,-19c0,0,18,-13,29,-34c0,0,10,-22,10,-50c0,0,0,-29,-10,-49c0,0,-11,-22,-29,-35c0,0,-19,-13,-42,-20c0,0,-25,-7,-50,-7Z" 
id="f0_7"
transform="scale(0.001,-0.001)" />

<path d="M451,-14c0,0,-85,0,-154,21c0,0,-71,21,-120,71c0,0,-51,50,-78,131c0,0,-28,80,-27,198c0,0,0,123,29,206c0,0,27,82,79,133c0,0,50,50,118,72c0,0,68,20,148,20c0,0,73,0,131,-11c0,0,56,-14,94,-35c0,0,38,-21,59,-50c0,0,18,-31,19,-64c0,0,-1,-25,-8,-48c0,0,-10,-24,-31,-41c0,0,-22,-18,-60,-30c0,0,-40,-11,-99,-11c0,0,0,39,-4,76c0,0,-6,35,-17,62c0,0,-11,26,-29,44c0,0,-20,15,-49,15c0,0,-34,0,-60,-15c0,0,-26,-18,-45,-56c0,0,-20,-39,-29,-103c0,0,-11,-66,-11,-163c0,0,0,-156,43,-232c0,0,42,-77,137,-77q1,0,2,0h1c8,0,42,1,73,10c0,0,35,9,63,26c0,0,27,16,50,40c0,0,21,22,34,48c0,0,19,-11,28,-30c0,0,9,-19,9,-40c0,0,-1,-29,-17,-59c0,0,-18,-31,-53,-54C677,40,639,15,584,1c0,0,-57,-15,-133,-15Z" 
id="f0_o"
transform="scale(0.001,-0.001)" />

<path d="M26,0V81H44c0,0,16,0,37,4c0,0,17,3,35,13c0,0,15,10,26,30c0,0,10,19,11,53V987c0,0,-1,30,-11,49c0,0,-11,18,-27,29c0,0,-17,8,-35,12c0,0,-20,3,-36,3H26v81H385V181c0,0,0,-34,11,-53c0,0,10,-20,27,-30c0,0,16,-10,35,-13c0,0,19,-4,36,-4h18V0Z" 
id="f0_8"
transform="scale(0.001,-0.001)" />

<path d="M574,490c0,0,0,58,-6,105c0,0,-8,45,-22,78c0,0,-15,32,-37,49c0,0,-24,17,-56,17c0,0,-65,0,-103,-63c0,0,-38,-64,-38,-186ZM468,-14c0,0,-98,0,-171,27c0,0,-75,28,-125,82c0,0,-50,54,-75,133c0,0,-26,76,-25,177c0,0,-1,107,25,189c0,0,25,80,74,136c0,0,48,53,119,82c0,0,70,26,161,26c0,0,82,0,149,-23c0,0,65,-24,112,-70c0,0,46,-47,71,-115c0,0,25,-69,25,-159V392H308c0,0,0,-77,15,-132c0,0,14,-55,40,-91c0,0,26,-36,63,-53c0,0,37,-17,85,-17c0,0,1,0,2,0c8,0,41,1,71,10c0,0,34,9,61,26c0,0,28,16,48,40c0,0,21,22,34,48c0,0,41,-22,41,-75c0,0,0,-32,-18,-61c0,0,-18,-31,-55,-53C695,34,658,12,602,0c0,0,-57,-14,-134,-14Z" 
id="f0_5"
transform="scale(0.001,-0.001)" />

<path d="M357,-14c-1,0,-3,0,-4,0c0,0,-83,0,-141,14c0,0,-60,12,-96,36c0,0,-37,23,-53,57c0,0,-17,32,-17,70c0,0,0,37,14,61c0,0,15,22,37,35c0,0,21,12,46,17c0,0,25,3,45,4c0,0,-1,-49,12,-86c0,0,12,-39,33,-64c0,0,21,-27,53,-41c0,0,28,-14,64,-14c1,0,2,0,3,0c0,0,39,0,68,8c0,0,28,7,47,23c0,0,18,14,27,34c0,0,9,17,9,39c0,0,0,25,-9,46c0,0,-10,18,-31,37c0,0,-22,16,-57,34c0,0,-38,16,-91,35c0,0,-62,21,-109,46c0,0,-48,24,-79,56c0,0,-33,30,-50,71c0,0,-17,38,-17,91c0,0,0,60,24,106c0,0,22,46,66,76c0,0,44,30,104,45c0,0,61,14,134,15c0,0,73,0,123,-12c0,0,50,-13,83,-33c0,0,32,-20,47,-45c0,0,14,-26,15,-52c0,0,0,-51,-36,-78c0,0,-37,-27,-120,-27c0,0,0,76,-33,119c0,0,-35,41,-101,41c0,0,-25,0,-47,-6c0,0,-24,-5,-40,-17c0,0,-17,-13,-26,-30c0,0,-11,-18,-11,-41c0,0,-1,-26,10,-44c0,0,9,-20,33,-37c0,0,23,-18,63,-36c0,0,40,-18,103,-39c0,0,50,-18,94,-40c0,0,43,-24,74,-53c0,0,30,-30,48,-67c0,0,16,-39,17,-86c0,0,-1,-65,-22,-114c0,0,-22,-50,-65,-84C598,56,555,21,494,4c0,0,-60,-18,-137,-18Z" 
id="f0_s"
transform="scale(0.001,-0.001)" />

<path d="M31,0V81h3c0,0,25,0,47,4c0,0,21,3,38,14c0,0,16,11,25,32c0,0,9,20,9,55V643c0,0,0,32,-8,52c0,0,-8,18,-22,30c0,0,-15,10,-35,14c0,0,-20,3,-45,3H38v77H359L379,710h7c0,0,24,43,50,69c0,0,25,25,54,39c0,0,29,13,62,17c0,0,32,3,68,3c0,0,83,0,144,-29c0,0,59,-31,87,-99h14c0,0,22,43,50,69c0,0,27,25,59,39c0,0,29,13,64,17c0,0,34,3,70,3c0,0,59,0,106,-17c0,0,47,-17,80,-53c0,0,32,-36,49,-91c0,0,16,-56,17,-133V189c0,0,0,-35,7,-56c0,0,5,-22,18,-33c0,0,12,-12,32,-15c0,0,19,-4,45,-4h5V0H1127V503c0,0,0,98,-27,152c0,0,-28,54,-94,54c0,0,-36,-1,-62,-17c0,0,-26,-18,-41,-48c0,0,-17,-31,-23,-70c0,0,-9,-41,-8,-84V189c0,0,0,-35,7,-56c0,0,5,-22,18,-33c0,0,12,-12,33,-15c0,0,18,-4,45,-4h4V0H640V503c0,0,-1,48,-6,88c0,0,-7,38,-21,64c0,0,-15,25,-38,40c0,0,-24,14,-57,14c0,0,-38,-1,-64,-20c0,0,-26,-19,-40,-51c0,0,-16,-33,-22,-76c0,0,-7,-44,-7,-90V181c0,0,0,-33,8,-52c0,0,7,-20,22,-30c0,0,13,-11,35,-14c0,0,19,-4,45,-4h5V0Z" 
id="f0_f"
transform="scale(0.001,-0.001)" />

<path d="M469,81c0,0,43,0,75,22c0,0,30,21,49,63c0,0,19,41,27,103c0,0,7,61,8,144c0,0,-1,81,-8,144c0,0,-9,60,-28,102c0,0,-20,40,-50,62c0,0,-31,20,-74,20c0,0,-45,0,-75,-20c0,0,-30,-22,-49,-62c0,0,-19,-42,-27,-102c0,0,-8,-63,-8,-144c0,0,0,-83,9,-144c0,0,7,-62,27,-103c0,0,19,-42,50,-63c0,0,29,-22,74,-22Zm-1,-95c0,0,-1,0,-2,0c0,0,-92,0,-165,26c0,0,-73,25,-123,79c0,0,-52,52,-79,134c0,0,-28,80,-27,188c0,0,-1,215,101,320c0,0,101,105,298,105c0,0,91,0,165,-26c0,0,72,-26,123,-79c0,0,50,-53,79,-132c0,0,27,-81,27,-188c0,0,0,-217,-101,-322C764,91,662,-14,468,-14Z" 
id="f0_b"
transform="scale(0.001,-0.001)" />

<path d="M373,0L122,665c0,0,-9,21,-18,35c0,0,-11,15,-26,23c0,0,-15,7,-33,12c0,0,-20,3,-45,3v81H474V738H410c0,0,-24,0,-37,-12c0,0,-15,-14,-14,-37c0,0,-1,-19,5,-36c0,0,5,-19,9,-31L475,333c0,0,18,-49,33,-98c0,0,13,-49,21,-88c0,0,3,18,10,42c0,0,7,23,14,47c0,0,6,21,12,41c0,0,6,18,8,26L677,609c0,0,6,21,12,43c0,0,5,20,5,42c0,0,0,24,-17,35c0,0,-18,9,-43,9H590v81H926V738H895c0,0,-15,-1,-27,-4c0,0,-13,-4,-24,-15c0,0,-13,-13,-23,-33c0,0,-12,-23,-25,-59L574,0Z" 
id="f0_1c"
transform="scale(0.001,-0.001)" />

<path d="M31,0V81h3c0,0,25,0,47,4c0,0,21,3,38,14c0,0,16,11,25,32c0,0,9,20,9,55V639c0,0,0,32,-8,51c0,0,-8,19,-22,31c0,0,-15,9,-35,14c0,0,-20,3,-45,3H38v81H359L379,710h7c0,0,24,43,50,69c0,0,25,25,54,39c0,0,29,13,62,17c0,0,32,3,68,3c0,0,59,0,106,-17c0,0,47,-17,80,-53c0,0,32,-36,49,-91c0,0,16,-56,17,-133V189c0,0,0,-35,7,-56c0,0,5,-22,18,-33c0,0,12,-12,33,-15c0,0,18,-4,45,-4h4V0H640V503c0,0,-1,48,-6,88c0,0,-7,38,-21,64c0,0,-15,25,-38,40c0,0,-24,14,-57,14c0,0,-38,-1,-64,-20c0,0,-26,-19,-40,-51c0,0,-16,-33,-22,-76c0,0,-7,-44,-7,-90V181c0,0,0,-33,8,-52c0,0,7,-20,22,-30c0,0,13,-11,35,-14c0,0,19,-4,45,-4h5V0Z" 
id="f0_d"
transform="scale(0.001,-0.001)" />

<path d="M364,-274c9,0,135,0,195,39c0,0,61,38,61,114c0,0,-1,47,-31,68c0,0,-31,18,-92,19H319c0,0,-24,-1,-47,-4c0,0,-24,-5,-43,-17c0,0,-21,-13,-33,-35c0,0,-12,-24,-12,-60c0,0,0,-65,46,-94c0,0,45,-30,133,-30h1Zm28,653c0,0,30,0,51,13c0,0,20,12,32,35c0,0,11,24,17,57c0,0,5,32,5,74c0,0,0,43,-5,78c0,0,-6,34,-18,59c0,0,-12,23,-32,38c0,0,-21,14,-51,14c0,0,-31,0,-50,-14c0,0,-20,-15,-32,-40c0,0,-13,-26,-18,-60c0,0,-6,-36,-5,-77c0,0,0,-41,6,-73c0,0,5,-32,18,-56c0,0,12,-23,32,-35c0,0,20,-13,50,-13ZM366,-366c-2,0,-4,0,-6,0c-9,0,-183,1,-268,54c0,0,-89,54,-89,159c0,0,0,81,53,126c0,0,52,42,154,50c0,0,-22,8,-41,20c0,0,-21,12,-36,29c0,0,-16,17,-26,38c0,0,-10,21,-9,49c0,0,0,25,10,47c0,0,10,21,28,42c0,0,17,18,43,37c0,0,24,16,54,34c0,0,-34,12,-61,34c0,0,-30,20,-50,51c0,0,-21,29,-32,67c0,0,-13,39,-12,85c0,0,0,133,78,209c0,0,77,73,241,73c0,0,54,0,101,-13c0,0,46,-15,81,-34c0,0,12,14,28,30c0,0,14,14,35,27c0,0,18,12,43,21c0,0,23,8,53,8c0,0,27,0,48,-6c0,0,20,-9,35,-20c0,0,12,-13,20,-27c0,0,7,-16,7,-34c0,0,0,-17,-5,-33c0,0,-6,-17,-17,-28c0,0,-13,-13,-34,-19c0,0,-20,-7,-49,-7c-1,0,-2,0,-4,0c0,0,0,15,-4,27c0,0,-6,12,-14,20c0,0,-9,8,-18,13c0,0,-11,3,-22,4c0,0,-13,0,-27,-5c0,0,-15,-6,-23,-12c0,0,16,-17,29,-38c0,0,14,-23,24,-48c0,0,10,-25,16,-52c0,0,5,-27,6,-56c0,0,0,-58,-18,-106c0,0,-20,-49,-57,-84c0,0,-38,-36,-96,-56c0,0,-59,-21,-138,-21H351c0,0,-13,0,-24,2c0,0,-13,1,-18,2c0,0,-11,-6,-20,-13c0,0,-10,-8,-17,-17c0,0,-9,-11,-13,-22c0,0,-6,-13,-5,-25c0,0,0,-27,20,-38c0,0,17,-12,48,-12c1,0,2,0,3,0H510c0,0,76,0,132,-15c0,0,54,-17,91,-47c0,0,36,-30,53,-73c0,0,17,-43,17,-97c0,0,0,-72,-26,-126c0,0,-27,-56,-82,-94c0,0,-55,-40,-138,-59c0,0,-81,-21,-191,-21Z" 
id="f0_l"
transform="scale(0.001,-0.001)" />

<path d="M304,0L108,657c0,0,-8,23,-18,40c0,0,-10,15,-22,24c0,0,-13,9,-29,13c0,0,-17,3,-39,4H-3v81H443V738H423c0,0,-46,-1,-69,-13c0,0,-24,-13,-23,-51c0,0,0,-13,5,-31c0,0,3,-19,8,-35L401,410c0,0,7,-29,14,-57c0,0,6,-29,12,-57c0,0,6,-28,12,-52c0,0,3,-25,7,-44h5c0,0,6,37,18,79c0,0,11,40,31,97L656,811h99L904,360c0,0,19,-55,27,-93c0,0,7,-39,13,-67h5c0,0,3,19,7,36c0,0,3,17,9,36c0,0,4,19,10,41c0,0,5,21,15,50l67,223c0,0,5,19,11,42c0,0,2,22,3,35c0,0,0,39,-24,57c0,0,-26,18,-77,18H959v81h350V738h-19c0,0,-23,0,-39,-5c0,0,-17,-5,-29,-17c0,0,-13,-13,-24,-36c0,0,-11,-25,-23,-62L978,0H813L646,507L471,0Z" 
id="f0_c"
transform="scale(0.001,-0.001)" />

<path d="M31,0V81h3c0,0,25,0,47,4c0,0,21,3,38,14c0,0,16,11,25,32c0,0,9,20,9,55V987c0,0,-1,30,-11,49c0,0,-11,18,-27,29c0,0,-17,8,-35,12c0,0,-20,3,-36,3H26v81H383V909c0,0,0,-30,0,-64c0,0,0,-35,-3,-63c0,0,-4,-35,-7,-67h13c0,0,24,43,50,68c0,0,25,24,54,37c0,0,29,12,62,16c0,0,32,2,68,2c0,0,59,0,106,-17c0,0,47,-17,80,-53c0,0,32,-36,49,-91c0,0,16,-56,17,-133V189c0,0,0,-35,7,-56c0,0,5,-22,18,-33c0,0,12,-12,33,-15c0,0,18,-4,45,-4h4V0H640V503c0,0,-1,48,-6,88c0,0,-7,38,-21,64c0,0,-15,25,-38,40c0,0,-24,14,-57,14c0,0,-38,-1,-64,-20c0,0,-26,-19,-40,-51c0,0,-16,-33,-22,-76c0,0,-7,-44,-7,-90V181c0,0,0,-33,8,-52c0,0,7,-20,22,-30c0,0,13,-11,35,-14c0,0,19,-4,45,-4h5V0Z" 
id="f0_u"
transform="scale(0.001,-0.001)" />

<path d="M404,-14c0,0,-104,0,-172,18c0,0,-69,19,-110,50c0,0,-42,30,-59,69c0,0,-17,38,-17,75c0,0,0,39,14,67c0,0,15,27,39,44c0,0,23,16,55,24c0,0,30,8,65,8c0,0,0,-66,15,-115c0,0,15,-51,44,-83c0,0,26,-33,66,-50c0,0,37,-17,83,-17c0,0,45,0,80,13c0,0,35,12,60,35c0,0,25,22,37,53c0,0,12,30,13,65c0,0,0,38,-16,69c0,0,-15,30,-47,56c0,0,-33,25,-80,49c0,0,-49,23,-112,50c0,0,-80,32,-134,68c0,0,-56,34,-89,75c0,0,-34,40,-48,87c0,0,-15,47,-15,103c0,0,0,69,28,127c0,0,28,56,79,97c0,0,50,40,118,62c0,0,68,21,150,21c0,0,83,0,145,-13c0,0,61,-15,101,-38c0,0,39,-24,59,-56c0,0,19,-34,20,-70c0,0,0,-27,-11,-50c0,0,-13,-24,-35,-41c0,0,-25,-17,-59,-26c0,0,-34,-10,-78,-10c-2,0,-4,0,-5,0c0,0,-1,32,-8,69c0,0,-10,36,-29,69c0,0,-20,31,-50,52c0,0,-32,21,-75,21c0,0,-31,0,-58,-9c0,0,-29,-9,-48,-27c0,0,-22,-18,-33,-44c0,0,-12,-27,-12,-61c0,0,0,-33,11,-60c0,0,9,-29,39,-56c0,0,27,-28,76,-54c0,0,48,-28,126,-59c0,0,79,-33,134,-66c0,0,54,-33,91,-71c0,0,34,-40,51,-85c0,0,16,-46,16,-102c0,0,0,-74,-29,-135c0,0,-29,-62,-84,-106C706,78,651,34,576,10c0,0,-78,-24,-172,-24Z" 
id="f0_j"
transform="scale(0.001,-0.001)" />

<path d="M43,0V81h64c0,0,15,0,30,4c0,0,14,3,26,13c0,0,9,10,16,30c0,0,5,19,6,53V916c0,0,-1,30,-6,49c0,0,-7,17,-17,28c0,0,-11,10,-25,13c0,0,-15,3,-30,3H43v82H570v-82H504c0,0,-17,0,-30,-3c0,0,-15,-4,-25,-14c0,0,-11,-11,-16,-30c0,0,-7,-20,-7,-52V615H825V910c0,0,-1,32,-6,52c0,0,-7,19,-16,30c0,0,-12,10,-26,14c0,0,-15,3,-30,3H681v82h528v-82h-65c0,0,-15,0,-30,-3c0,0,-14,-4,-24,-14c0,0,-12,-11,-17,-30c0,0,-6,-20,-6,-52V172c0,0,0,-30,6,-47c0,0,6,-20,18,-28c0,0,9,-10,24,-13c0,0,11,-3,25,-3c2,0,3,0,4,0h65V0H681V81h66c0,0,15,0,30,4c0,0,14,3,26,13c0,0,9,10,16,30c0,0,5,19,6,53V522H426V181c0,0,0,-34,7,-53c0,0,5,-20,16,-30c0,0,10,-10,25,-13c0,0,13,-4,30,-4h66V0Z" 
id="f0_1l"
transform="scale(0.001,-0.001)" />

<path d="M43,0V81h64c0,0,15,0,30,4c0,0,14,3,26,13c0,0,9,10,16,30c0,0,5,19,6,53V917c0,0,-1,30,-6,49c0,0,-7,17,-17,28c0,0,-11,9,-25,13c0,0,-15,3,-30,3H43v81H382L921,328V917c0,0,0,30,-6,49c0,0,-7,17,-17,28c0,0,-11,9,-25,13c0,0,-15,3,-30,3H779v81h399v-81h-64c0,0,-16,0,-30,-3c0,0,-15,-4,-25,-14c0,0,-12,-11,-17,-30c0,0,-6,-20,-6,-52V0H895L299,841V181c0,0,0,-34,7,-53c0,0,5,-20,16,-30c0,0,10,-10,26,-13c0,0,14,-4,29,-4h65V0Z" 
id="f0_1i"
transform="scale(0.001,-0.001)" />

<path d="M408,0L128,929c0,0,-6,23,-16,39c0,0,-11,15,-22,26c0,0,-14,9,-30,12c0,0,-17,3,-40,4H0v81H510v-81H475c0,0,-46,0,-68,-18c0,0,-24,-18,-24,-56c0,0,0,-13,6,-36c0,0,4,-25,10,-46L501,501c0,0,8,-29,18,-62c0,0,9,-35,17,-69c0,0,8,-35,15,-67c0,0,6,-33,10,-57c0,0,10,49,23,93c0,0,12,42,25,87l202,654H923L1134,497c0,0,13,-36,25,-73c0,0,11,-37,21,-70c0,0,9,-35,17,-62c0,0,8,-29,12,-49c0,0,5,28,12,61c0,0,7,34,15,71c0,0,8,36,17,76c0,0,7,38,17,75l80,330c0,0,2,8,5,21c0,0,3,11,5,23c0,0,2,12,4,22c0,0,0,10,0,16c0,0,0,38,-23,56c0,0,-24,16,-74,16h-35v81h398v-81h-29c0,0,-23,0,-40,-4c0,0,-17,-6,-30,-18c0,0,-14,-13,-24,-36c0,0,-12,-24,-22,-61L1248,0H1074L818,717L598,0Z" 
id="f0_1o"
transform="scale(0.001,-0.001)" />

<path d="M448,99c0,0,45,0,76,20c0,0,29,18,48,57c0,0,17,38,26,98c0,0,7,57,7,137c0,0,0,75,-7,134c0,0,-9,59,-26,99c0,0,-19,39,-48,60c0,0,-31,20,-76,20c0,0,-38,0,-65,-20c0,0,-29,-21,-44,-61c0,0,-17,-40,-25,-98c0,0,-8,-60,-8,-135c0,0,0,-156,33,-233c0,0,31,-78,109,-78ZM386,-14c-1,0,-3,0,-4,0h-1c-7,0,-77,1,-132,24c0,0,-59,24,-98,77c0,0,-40,52,-60,132c0,0,-22,79,-21,189c0,0,-1,110,21,192c0,0,20,80,60,133c0,0,38,53,97,79c0,0,56,25,131,25c0,0,43,0,78,-9c0,0,35,-10,63,-25c0,0,28,-17,49,-39c0,0,21,-22,37,-49h9c0,0,0,42,-6,79c0,0,0,15,0,33c0,0,0,16,-2,31c0,0,-2,14,-2,25c0,0,0,11,0,18v84c0,0,0,32,-10,51c0,0,-10,18,-27,29c0,0,-17,8,-39,12c0,0,-22,3,-48,3H469v81H837V188c0,0,0,-35,10,-56c0,0,10,-22,29,-32c0,0,16,-12,40,-15c0,0,22,-4,48,-4h6V0H674L631,119H617c0,0,-18,-31,-39,-56c0,0,-23,-25,-51,-41C527,22,498,4,463,-4c0,0,-34,-10,-77,-10Z" 
id="f0_a"
transform="scale(0.001,-0.001)" />

<path d="M29,0V81H63c0,0,16,0,35,4c0,0,18,3,36,13c0,0,15,10,26,30c0,0,10,19,11,53V715H35V819H171v57c0,0,-1,70,18,127c0,0,18,54,57,94c0,0,37,38,97,58c0,0,59,20,140,20c0,0,74,-1,123,-8c0,0,49,-10,78,-24c0,0,29,-16,42,-36c0,0,12,-21,12,-44c0,0,-1,-52,-46,-75c0,0,-47,-24,-142,-24c0,0,-1,18,-4,40c0,0,-4,21,-13,40c0,0,-9,19,-23,32c0,0,-15,12,-36,12c0,0,-20,0,-32,-10c0,0,-15,-11,-22,-32c0,0,-10,-23,-13,-58c0,0,-3,-35,-3,-85V819H614V715H404V181c0,0,0,-34,11,-53c0,0,9,-20,27,-30c0,0,15,-10,35,-13c0,0,18,-4,35,-4h71V0Z" 
id="f0_e"
transform="scale(0.001,-0.001)" />

<path d="M394,-14c0,0,-120,0,-183,73c0,0,-64,74,-64,228V630c0,0,-1,32,-6,54c0,0,-7,20,-19,33c0,0,-13,12,-32,16c0,0,-20,5,-47,5H40v81H379V330c0,0,0,-50,6,-89c0,0,5,-40,19,-67c0,0,13,-29,35,-43c0,0,23,-16,56,-16c0,0,1,0,1,0c5,0,38,1,63,16c0,0,25,16,43,47c0,0,16,29,25,73c0,0,7,42,7,96V640c0,0,0,34,-9,53c0,0,-10,19,-24,30c0,0,-15,9,-35,13c0,0,-20,2,-42,2h-5v81H866V178c0,0,0,-34,8,-53c0,0,8,-19,21,-29c0,0,13,-10,32,-12c0,0,16,-3,35,-3c2,0,4,0,6,0h13V0H677L643,108h-7c0,0,-24,-40,-50,-63C586,45,558,19,528,7C528,7,498,-5,464,-9c0,0,-35,-5,-70,-5Z" 
id="f0_m"
transform="scale(0.001,-0.001)" />

<path d="M17,0V81H31c0,0,1,0,3,0c7,0,28,1,45,6c0,0,20,4,40,15c0,0,17,11,36,30c0,0,18,19,42,47L389,411L197,657c0,0,-33,40,-64,61c0,0,-33,20,-67,20H46v81H526V738h-5c0,0,-26,0,-43,-3c0,0,-17,-5,-27,-10c0,0,-10,-7,-13,-14c0,0,-4,-8,-4,-17c0,0,0,-17,8,-32c0,0,8,-15,27,-38L554,519l73,87c0,0,18,23,28,44c0,0,10,21,10,42c0,0,0,28,-21,37c0,0,-22,9,-58,9h-4v81H935V738H921c0,0,-23,-1,-39,-4c0,0,-19,-5,-35,-15c0,0,-18,-11,-37,-30c0,0,-19,-19,-43,-49L609,448L834,162c0,0,34,-44,65,-62c0,0,28,-19,56,-19c0,0,1,0,1,0h20V0H490V81h9c5,0,91,1,91,50c0,0,0,9,-2,18c0,0,-3,8,-8,21c0,0,-6,11,-18,28c0,0,-12,16,-30,38L445,342L338,210c0,0,-15,-20,-23,-38c0,0,-9,-21,-9,-39c0,0,0,-26,21,-38c0,0,21,-14,74,-14h4V0Z" 
id="f0_1n"
transform="scale(0.001,-0.001)" />

<path d="M54,0V157L280,388c0,0,70,72,116,130c0,0,46,59,72,112c0,0,25,52,36,105c0,0,10,51,11,110c0,0,0,87,-32,128c0,0,-32,40,-88,40c0,0,-77,-1,-109,-66c0,0,-31,-67,-31,-198c0,0,-44,0,-79,8c0,0,-37,8,-62,26c0,0,-26,18,-40,47c0,0,-15,28,-14,70c0,0,0,41,21,79c0,0,21,36,63,65c0,0,41,28,105,46c0,0,62,16,146,16c0,0,85,0,152,-17c0,0,65,-19,109,-51c0,0,44,-32,67,-79c0,0,22,-47,22,-106c0,0,0,-36,-7,-70c0,0,-8,-33,-26,-69c0,0,-20,-37,-49,-75c0,0,-30,-41,-74,-88c0,0,-44,-49,-102,-107c0,0,-60,-58,-136,-131L198,168H555c4,0,48,1,80,27c0,0,32,27,46,79l13,47h86V0Z" 
id="f0_r"
transform="scale(0.001,-0.001)" />

<path d="M33,0V27c0,0,264,241,371,393c0,0,108,152,108,278c0,0,0,96,-59,158c0,0,-59,62,-141,62c0,0,-75,0,-134,-43c0,0,-59,-44,-88,-128H63c0,0,18,138,95,212c0,0,77,74,193,74c0,0,123,0,205,-80c0,0,83,-79,83,-186c0,0,0,-77,-36,-154c0,0,-55,-121,-179,-256C424,357,238,154,191,112H455c0,0,81,0,114,6c0,0,32,6,58,25c0,0,27,18,46,52h27L630,0Z" 
id="f1_m"
transform="scale(0.001,-0.001)" />


</defs>
</svg>