<?xml version="1.0" encoding="UTF-8" standalone="no"?>
<!DOCTYPE svg PUBLIC "-//W3C//DTD SVG 1.1//EN"
"http://www.w3.org/Graphics/SVG/1.1/DTD/svg11.dtd">
<svg viewBox="0 0 909 1286" version="1.1" xmlns="http://www.w3.org/2000/svg" xmlns:xlink="http://www.w3.org/1999/xlink">
<defs>
<clipPath id="c0_260"><path d="M35.1,1194.7V113.1H873.9V1194.7Z" /></clipPath>
</defs>
<image preserveAspectRatio="none" x="47" y="113" width="405" height="79" xlink:href="img/1.png" />
<g clip-path="url(#c0_260)">
<g fill="#000000" >
<use xlink:href="#f0_1m" transform="matrix(12,0,0,12,47.4,236.8)" />
<use xlink:href="#f0_8" transform="matrix(12,0,0,12,61.9,236.8)" />
<use xlink:href="#f0_4" transform="matrix(12,0,0,12,71.7,236.8)" />
<use xlink:href="#f0_e" transform="matrix(12,0,0,12,83.5,236.8)" />
<use xlink:href="#f0_8" transform="matrix(12,0,0,12,92.5,236.8)" />
<use xlink:href="#f0_q" transform="matrix(12,0,0,12,102.4,236.8)" />
<use xlink:href="#f0_f" transform="matrix(12,0,0,12,111.7,236.8)" />
<use xlink:href="#f0_r" transform="matrix(12,0,0,12,118.1,236.8)" />
<use xlink:href="#f0_8" transform="matrix(12,0,0,12,129.8,236.8)" />
<use xlink:href="#f0_9" transform="matrix(12,0,0,12,144.3,236.8)" />
<use xlink:href="#f0_b" transform="matrix(12,0,0,12,152.9,236.8)" />
<use xlink:href="#f0_7" transform="matrix(12,0,0,12,163.3,236.8)" />
<use xlink:href="#f0_6" transform="matrix(12,0,0,12,174.5,236.8)" />
<use xlink:href="#f0_g" transform="matrix(12,0,0,12,180.3,236.8)" />
<use xlink:href="#f0_5" transform="matrix(12,0,0,12,192,236.8)" />
<use xlink:href="#f0_3" transform="matrix(12,0,0,12,205,236.8)" />
<use xlink:href="#f0_s" transform="matrix(12,0,0,12,215.6,236.8)" />
<use xlink:href="#f0_b" transform="matrix(12,0,0,12,227.1,236.8)" />
<use xlink:href="#f0_e" transform="matrix(12,0,0,12,242.1,236.8)" />
<use xlink:href="#f0_b" transform="matrix(12,0,0,12,251.2,236.8)" />
<use xlink:href="#f0_9" transform="matrix(12,0,0,12,261.5,236.8)" />
<use xlink:href="#f0_h" transform="matrix(12,0,0,12,270.1,236.8)" />
<use xlink:href="#f0_3" transform="matrix(12,0,0,12,281.3,236.8)" />
<use xlink:href="#f0_4" transform="matrix(12,0,0,12,291.9,236.8)" />
<use xlink:href="#f0_b" transform="matrix(12,0,0,12,308.5,236.8)" />
<use xlink:href="#f0_f" transform="matrix(12,0,0,12,318.8,236.8)" />
<use xlink:href="#f0_3" transform="matrix(12,0,0,12,325.2,236.8)" />
<use xlink:href="#f0_u" transform="matrix(12,0,0,12,335.8,236.8)" />
<use xlink:href="#f0_6" transform="matrix(12,0,0,12,357.9,236.8)" />
<use xlink:href="#f0_5" transform="matrix(12,0,0,12,363.7,236.8)" />
<use xlink:href="#f0_1g" transform="matrix(12,0,0,12,376.7,236.8)" />
<use xlink:href="#f0_19" transform="matrix(12,0,0,12,387,236.8)" />
<use xlink:href="#f0_18" transform="matrix(12,0,0,12,392.2,236.8)" />
<use xlink:href="#f0_1t" transform="matrix(12,0,0,12,402.4,236.8)" />
</g>
</g>
<image preserveAspectRatio="none" x="417" y="211" width="25" height="43" xlink:href="img/2.png" />
<g clip-path="url(#c0_260)">
<g fill="#000000" >
<use xlink:href="#f0_19" transform="matrix(12,0,0,12,441.9,236.8)" />
<use xlink:href="#f0_1v" transform="matrix(12,0,0,12,47.4,294.9)" />
<use xlink:href="#f0_3" transform="matrix(12,0,0,12,58.2,294.9)" />
<use xlink:href="#f0_9" transform="matrix(12,0,0,12,68.8,294.9)" />
<use xlink:href="#f0_d" transform="matrix(12,0,0,12,82.1,294.9)" />
<use xlink:href="#f0_3" transform="matrix(12,0,0,12,92,294.9)" />
<use xlink:href="#f0_c" transform="matrix(12,0,0,12,102.6,294.9)" />
<use xlink:href="#f0_7" transform="matrix(12,0,0,12,108.2,294.9)" />
<use xlink:href="#f0_1c" transform="matrix(12,0,0,12,119.5,294.9)" />
<use xlink:href="#f1_7" transform="matrix(12,0,0,12,47.4,345.3)" />
<use xlink:href="#f0_x" transform="matrix(12,0,0,12,64.5,345.3)" />
</g>
</g>
<image preserveAspectRatio="none" x="79" y="322" width="156" height="37" xlink:href="img/3.png" />
<image preserveAspectRatio="none" x="47" y="377" width="216" height="37" xlink:href="img/4.png" />
<image preserveAspectRatio="none" x="47" y="432" width="434" height="84" xlink:href="img/5.png" />
<g clip-path="url(#c0_260)">
<g fill="#000000" >
<use xlink:href="#f0_1m" transform="matrix(12,0,0,12,47.4,560.7)" />
<use xlink:href="#f0_8" transform="matrix(12,0,0,12,61.9,560.7)" />
<use xlink:href="#f0_4" transform="matrix(12,0,0,12,71.7,560.7)" />
<use xlink:href="#f0_e" transform="matrix(12,0,0,12,83.5,560.7)" />
<use xlink:href="#f0_8" transform="matrix(12,0,0,12,92.5,560.7)" />
<use xlink:href="#f0_q" transform="matrix(12,0,0,12,102.4,560.7)" />
<use xlink:href="#f0_f" transform="matrix(12,0,0,12,111.7,560.7)" />
<use xlink:href="#f0_r" transform="matrix(12,0,0,12,118.1,560.7)" />
<use xlink:href="#f0_8" transform="matrix(12,0,0,12,129.8,560.7)" />
<use xlink:href="#f0_9" transform="matrix(12,0,0,12,144.3,560.7)" />
<use xlink:href="#f0_b" transform="matrix(12,0,0,12,152.9,560.7)" />
<use xlink:href="#f0_7" transform="matrix(12,0,0,12,163.3,560.7)" />
<use xlink:href="#f0_6" transform="matrix(12,0,0,12,174.5,560.7)" />
<use xlink:href="#f0_g" transform="matrix(12,0,0,12,180.3,560.7)" />
<use xlink:href="#f0_5" transform="matrix(12,0,0,12,192,560.7)" />
<use xlink:href="#f0_3" transform="matrix(12,0,0,12,205,560.7)" />
<use xlink:href="#f0_s" transform="matrix(12,0,0,12,215.6,560.7)" />
<use xlink:href="#f0_b" transform="matrix(12,0,0,12,227.1,560.7)" />
<use xlink:href="#f0_d" transform="matrix(12,0,0,12,242.1,560.7)" />
<use xlink:href="#f0_3" transform="matrix(12,0,0,12,252,560.7)" />
<use xlink:href="#f0_c" transform="matrix(12,0,0,12,262.6,560.7)" />
<use xlink:href="#f0_7" transform="matrix(12,0,0,12,268.2,560.7)" />
<use xlink:href="#f0_b" transform="matrix(12,0,0,12,284.2,560.7)" />
<use xlink:href="#f0_f" transform="matrix(12,0,0,12,294.6,560.7)" />
<use xlink:href="#f0_3" transform="matrix(12,0,0,12,301,560.7)" />
<use xlink:href="#f0_u" transform="matrix(12,0,0,12,311.6,560.7)" />
<use xlink:href="#f0_6" transform="matrix(12,0,0,12,333.6,560.7)" />
<use xlink:href="#f0_5" transform="matrix(12,0,0,12,339.5,560.7)" />
<use xlink:href="#f0_1g" transform="matrix(12,0,0,12,352.5,560.7)" />
<use xlink:href="#f0_19" transform="matrix(12,0,0,12,362.7,560.7)" />
<use xlink:href="#f0_1o" transform="matrix(12,0,0,12,368,560.7)" />
<use xlink:href="#f0_1t" transform="matrix(12,0,0,12,378.2,560.7)" />
</g>
</g>
<image preserveAspectRatio="none" x="388" y="535" width="25" height="43" xlink:href="img/6.png" />
<g clip-path="url(#c0_260)">
<g fill="#000000" >
<use xlink:href="#f0_19" transform="matrix(12,0,0,12,417.6,560.7)" />
<use xlink:href="#f0_1v" transform="matrix(12,0,0,12,47.4,618.8)" />
<use xlink:href="#f0_3" transform="matrix(12,0,0,12,58.2,618.8)" />
<use xlink:href="#f0_9" transform="matrix(12,0,0,12,68.8,618.8)" />
<use xlink:href="#f0_c" transform="matrix(12,0,0,12,82.1,618.8)" />
<use xlink:href="#f0_6" transform="matrix(12,0,0,12,87.8,618.8)" />
<use xlink:href="#f0_15" transform="matrix(12,0,0,12,93.6,618.8)" />
<use xlink:href="#f0_g" transform="matrix(12,0,0,12,104.9,618.8)" />
<use xlink:href="#f0_6" transform="matrix(12,0,0,12,116.5,618.8)" />
<use xlink:href="#f0_7" transform="matrix(12,0,0,12,122.4,618.8)" />
<use xlink:href="#f0_4" transform="matrix(12,0,0,12,138.4,618.8)" />
<use xlink:href="#f0_6" transform="matrix(12,0,0,12,150.2,618.8)" />
<use xlink:href="#f0_f" transform="matrix(12,0,0,12,156,618.8)" />
<use xlink:href="#f0_9" transform="matrix(12,0,0,12,162.5,618.8)" />
<use xlink:href="#f0_3" transform="matrix(12,0,0,12,171.1,618.8)" />
<use xlink:href="#f0_d" transform="matrix(12,0,0,12,181.7,618.8)" />
<use xlink:href="#f0_8" transform="matrix(12,0,0,12,191.5,618.8)" />
<use xlink:href="#f0_4" transform="matrix(12,0,0,12,201.3,618.8)" />
<use xlink:href="#f0_1c" transform="matrix(12,0,0,12,213.1,618.8)" />
</g>
</g>
<image preserveAspectRatio="none" x="47" y="646" width="191" height="37" xlink:href="img/7.png" />
<image preserveAspectRatio="none" x="47" y="701" width="204" height="37" xlink:href="img/8.png" />
<image preserveAspectRatio="none" x="47" y="756" width="427" height="89" xlink:href="img/9.png" />
<g clip-path="url(#c0_260)">
<g fill="#000000" >
<use xlink:href="#f0_1m" transform="matrix(12,0,0,12,47.4,889.2)" />
<use xlink:href="#f0_8" transform="matrix(12,0,0,12,61.9,889.2)" />
<use xlink:href="#f0_4" transform="matrix(12,0,0,12,71.7,889.2)" />
<use xlink:href="#f0_e" transform="matrix(12,0,0,12,83.5,889.2)" />
<use xlink:href="#f0_8" transform="matrix(12,0,0,12,92.5,889.2)" />
<use xlink:href="#f0_q" transform="matrix(12,0,0,12,102.4,889.2)" />
<use xlink:href="#f0_f" transform="matrix(12,0,0,12,111.7,889.2)" />
<use xlink:href="#f0_r" transform="matrix(12,0,0,12,118.1,889.2)" />
<use xlink:href="#f0_8" transform="matrix(12,0,0,12,129.8,889.2)" />
<use xlink:href="#f0_9" transform="matrix(12,0,0,12,144.3,889.2)" />
<use xlink:href="#f0_b" transform="matrix(12,0,0,12,152.9,889.2)" />
<use xlink:href="#f0_7" transform="matrix(12,0,0,12,163.3,889.2)" />
<use xlink:href="#f0_6" transform="matrix(12,0,0,12,174.5,889.2)" />
<use xlink:href="#f0_g" transform="matrix(12,0,0,12,180.3,889.2)" />
<use xlink:href="#f0_5" transform="matrix(12,0,0,12,192,889.2)" />
<use xlink:href="#f0_3" transform="matrix(12,0,0,12,205,889.2)" />
<use xlink:href="#f0_s" transform="matrix(12,0,0,12,215.6,889.2)" />
<use xlink:href="#f0_b" transform="matrix(12,0,0,12,227.1,889.2)" />
<use xlink:href="#f0_c" transform="matrix(12,0,0,12,242.1,889.2)" />
<use xlink:href="#f0_6" transform="matrix(12,0,0,12,247.8,889.2)" />
<use xlink:href="#f0_15" transform="matrix(12,0,0,12,253.7,889.2)" />
<use xlink:href="#f0_g" transform="matrix(12,0,0,12,264.9,889.2)" />
<use xlink:href="#f0_6" transform="matrix(12,0,0,12,276.5,889.2)" />
<use xlink:href="#f0_7" transform="matrix(12,0,0,12,282.4,889.2)" />
<use xlink:href="#f0_4" transform="matrix(12,0,0,12,298.4,889.2)" />
<use xlink:href="#f0_6" transform="matrix(12,0,0,12,310.2,889.2)" />
<use xlink:href="#f0_f" transform="matrix(12,0,0,12,316,889.2)" />
<use xlink:href="#f0_9" transform="matrix(12,0,0,12,322.5,889.2)" />
<use xlink:href="#f0_3" transform="matrix(12,0,0,12,331.1,889.2)" />
<use xlink:href="#f0_d" transform="matrix(12,0,0,12,341.7,889.2)" />
<use xlink:href="#f0_8" transform="matrix(12,0,0,12,351.5,889.2)" />
<use xlink:href="#f0_4" transform="matrix(12,0,0,12,361.3,889.2)" />
<use xlink:href="#f0_b" transform="matrix(12,0,0,12,377.9,889.2)" />
<use xlink:href="#f0_f" transform="matrix(12,0,0,12,388.2,889.2)" />
<use xlink:href="#f0_3" transform="matrix(12,0,0,12,394.7,889.2)" />
<use xlink:href="#f0_u" transform="matrix(12,0,0,12,405.2,889.2)" />
<use xlink:href="#f0_6" transform="matrix(12,0,0,12,427.3,889.2)" />
<use xlink:href="#f0_5" transform="matrix(12,0,0,12,433.1,889.2)" />
<use xlink:href="#f0_1g" transform="matrix(12,0,0,12,446.2,889.2)" />
<use xlink:href="#f0_19" transform="matrix(12,0,0,12,456.4,889.2)" />
<use xlink:href="#f0_1p" transform="matrix(12,0,0,12,461.6,889.2)" />
<use xlink:href="#f0_1p" transform="matrix(12,0,0,12,471.9,889.2)" />
</g>
</g>
<image preserveAspectRatio="none" x="487" y="863" width="25" height="43" xlink:href="img/10.png" />
<g clip-path="url(#c0_260)">
<g fill="#000000" >
<use xlink:href="#f0_19" transform="matrix(12,0,0,12,511.3,889.2)" />
<use xlink:href="#f0_1v" transform="matrix(12,0,0,12,47.4,947.2)" />
<use xlink:href="#f0_3" transform="matrix(12,0,0,12,58.2,947.2)" />
<use xlink:href="#f0_9" transform="matrix(12,0,0,12,68.8,947.2)" />
<use xlink:href="#f0_c" transform="matrix(12,0,0,12,82.1,947.2)" />
<use xlink:href="#f0_6" transform="matrix(12,0,0,12,87.8,947.2)" />
<use xlink:href="#f0_f" transform="matrix(12,0,0,12,93.6,947.2)" />
<use xlink:href="#f0_r" transform="matrix(12,0,0,12,100.1,947.2)" />
<use xlink:href="#f0_6" transform="matrix(12,0,0,12,111.7,947.2)" />
<use xlink:href="#f0_g" transform="matrix(12,0,0,12,117.6,947.2)" />
<use xlink:href="#f0_u" transform="matrix(12,0,0,12,129.2,947.2)" />
<use xlink:href="#f0_1c" transform="matrix(12,0,0,12,146.5,947.2)" />
<use xlink:href="#f1_7" transform="matrix(12,0,0,12,47.4,997.6)" />
<use xlink:href="#f0_x" transform="matrix(12,0,0,12,64.5,997.6)" />
</g>
</g>
<image preserveAspectRatio="none" x="79" y="976" width="121" height="34" xlink:href="img/11.png" />
<g clip-path="url(#c0_260)">
<g fill="#000000" >
<use xlink:href="#f0_1f" transform="matrix(12,0,0,12,200.2,997.6)" />
<use xlink:href="#f0_d" transform="matrix(12,0,0,12,211,997.6)" />
<use xlink:href="#f0_14" transform="matrix(12,0,0,12,47.4,1051.1)" />
<use xlink:href="#f0_x" transform="matrix(12,0,0,12,63.4,1051.1)" />
</g>
</g>
<image preserveAspectRatio="none" x="73" y="1028" width="164" height="37" xlink:href="img/12.png" />
<image preserveAspectRatio="none" x="47" y="1083" width="405" height="81" xlink:href="img/13.png" />
<g fill="#000000" >
<use xlink:href="#f2_o" transform="matrix(12,0,0,12,835.7,1269.6)" />
<use xlink:href="#f2_p" transform="matrix(12,0,0,12,844.9,1269.6)" />
</g>
<defs>
<path d="M58,0V64H78c0,0,25,0,49,4c0,0,22,3,39,16c0,0,17,11,27,32c0,0,10,21,10,58V923c0,0,0,33,-10,54c0,0,-11,20,-27,32c0,0,-18,11,-40,14c0,0,-24,3,-48,3H58v65H503v-65H483c0,0,-26,0,-49,-3c0,0,-24,-4,-39,-15c0,0,-18,-13,-27,-34c0,0,-11,-21,-11,-57V608H854V917c0,0,0,36,-10,57c0,0,-10,21,-26,34c0,0,-18,11,-40,15c0,0,-24,3,-49,3H709v65h444v-65h-19c0,0,-26,0,-49,-3c0,0,-23,-4,-40,-15c0,0,-17,-13,-27,-34c0,0,-10,-21,-9,-57V166c0,0,0,-33,10,-53c0,0,10,-22,27,-32c0,0,16,-10,40,-13c0,0,22,-4,48,-4h19V0H709V64h20c0,0,25,0,49,4c0,0,22,3,40,16c0,0,16,11,26,32c0,0,10,21,10,58V532H357V174c0,0,0,-37,11,-58c0,0,9,-21,27,-32c0,0,15,-13,39,-16c0,0,23,-4,49,-4h20V0Z" 
id="f0_1m"
transform="scale(0.001,-0.001)" />

<path d="M586,481c0,0,0,60,-9,111c0,0,-9,50,-29,85c0,0,-19,36,-51,56c0,0,-33,18,-79,19c0,0,-87,-1,-133,-69c0,0,-46,-69,-46,-202ZM439,-14c0,0,-83,0,-149,27c0,0,-66,28,-112,82c0,0,-46,53,-69,132c0,0,-25,77,-25,177c0,0,0,213,88,322c0,0,88,108,251,108c0,0,73,0,133,-23c0,0,58,-24,100,-69c0,0,41,-46,63,-114c0,0,21,-69,22,-159V399H233c0,0,0,-84,15,-143c0,0,15,-61,44,-99c0,0,28,-40,71,-57c0,0,40,-19,93,-19c1,0,2,0,4,0c0,0,38,0,73,9c0,0,33,9,62,24c0,0,26,14,48,34c0,0,21,18,35,40c0,0,10,-4,20,-19c0,0,9,-15,9,-33c0,0,0,-24,-16,-49c0,0,-17,-27,-50,-50C641,37,607,14,557,0c0,0,-50,-14,-118,-14Z" 
id="f0_8"
transform="scale(0.001,-0.001)" />

<path d="M43,0V64H55c0,0,26,0,49,4c0,0,23,3,40,16c0,0,16,11,27,32c0,0,10,21,10,58V650c0,0,0,33,-10,55c0,0,-11,20,-28,31c0,0,-17,11,-39,15c0,0,-24,3,-49,4H51v64H298L318,695h7c0,0,23,42,51,70c0,0,25,27,56,43c0,0,29,14,63,21c0,0,32,5,69,5c0,0,60,-1,108,-17c0,0,47,-18,81,-54c0,0,32,-37,50,-93c0,0,17,-58,18,-135V174c0,0,0,-37,9,-58c0,0,7,-21,23,-32c0,0,16,-13,38,-16c0,0,21,-4,47,-4h5V0H677V527c0,0,0,50,-9,89c0,0,-10,39,-29,66c0,0,-20,26,-52,41c0,0,-33,13,-78,13c0,0,-53,0,-88,-20c0,0,-36,-20,-57,-54c0,0,-22,-35,-31,-79c0,0,-10,-45,-9,-94V166c0,0,0,-33,10,-53c0,0,10,-22,27,-32c0,0,16,-10,40,-13c0,0,22,-4,48,-4h5V0Z" 
id="f0_4"
transform="scale(0.001,-0.001)" />

<path d="M433,-14c0,0,-77,0,-141,23c0,0,-64,23,-110,74c0,0,-46,50,-72,130c0,0,-26,79,-26,192c0,0,0,122,26,205c0,0,26,82,72,132c0,0,46,49,108,71c0,0,61,21,134,21c0,0,47,0,96,-9c0,0,47,-10,85,-29c0,0,38,-19,62,-49c0,0,23,-30,24,-69c0,0,0,-54,-35,-74c0,0,-35,-22,-102,-22c0,0,0,35,-6,68c0,0,-6,32,-20,56c0,0,-15,24,-39,38c0,0,-26,14,-65,14c0,0,-44,0,-79,-16c0,0,-35,-18,-61,-57c0,0,-26,-40,-39,-108c0,0,-13,-69,-13,-170c0,0,-1,-164,54,-243c0,0,54,-80,177,-80h1c6,0,72,1,123,30c0,0,52,30,79,77c0,0,11,-10,19,-24c0,0,7,-15,7,-36c0,0,0,-27,-16,-52c0,0,-17,-26,-49,-47C627,32,594,10,546,0c0,0,-48,-14,-113,-14Z" 
id="f0_e"
transform="scale(0.001,-0.001)" />

<path d="M46,-234v64c0,0,74,23,110,58c0,0,34,35,35,79c0,0,-1,15,-8,26c0,0,-9,8,-21,17c0,0,-13,6,-27,15c0,0,-15,7,-27,18c0,0,-13,9,-21,26c0,0,-8,14,-8,38c0,0,0,43,29,67c0,0,28,23,71,23c0,0,23,-1,45,-8c0,0,20,-9,37,-26c0,0,16,-17,26,-41c0,0,9,-27,9,-58c0,0,0,-48,-13,-93c0,0,-14,-46,-44,-84c0,0,-30,-40,-77,-70c0,0,-49,-31,-116,-51Z" 
id="f0_q"
transform="scale(0.001,-0.001)" />

<path d="M367,-14c0,0,-59,0,-100,13c0,0,-42,10,-69,38c0,0,-27,27,-39,73c0,0,-14,45,-14,112V732H29v61c0,0,28,0,61,11c0,0,32,11,58,37c0,0,26,28,43,68c0,0,15,38,28,98h70V819H489V732H289V217c0,0,-1,-78,32,-115c0,0,30,-36,83,-36c0,0,1,0,1,0c0,0,2,0,6,0c9,0,28,0,45,3c0,0,23,3,47,7V9C503,9,492,4,477,0c0,0,-15,-3,-33,-6c0,0,-20,-5,-39,-6c0,0,-20,-2,-38,-2Z" 
id="f0_f"
transform="scale(0.001,-0.001)" />

<path d="M28,0V64H40c0,0,25,0,49,4c0,0,22,3,39,16c0,0,17,11,27,32c0,0,10,21,10,58V993c0,0,0,33,-10,54c0,0,-11,21,-27,32c0,0,-18,11,-40,15c0,0,-24,3,-48,3H28v64H308V825c0,0,0,-22,0,-43c0,0,-1,-24,-4,-43c0,0,0,-23,0,-44h6c0,0,68,139,225,139c0,0,65,-1,115,-17c0,0,50,-18,85,-54c0,0,34,-37,52,-93c0,0,18,-58,18,-135V174c0,0,0,-37,9,-58c0,0,9,-21,24,-32c0,0,16,-13,38,-16c0,0,21,-4,47,-4h4V0H662V527c0,0,0,50,-9,89c0,0,-10,39,-29,66c0,0,-20,26,-52,41c0,0,-33,13,-78,13c0,0,-49,0,-82,-17c0,0,-35,-18,-58,-50c0,0,-24,-33,-34,-78c0,0,-11,-46,-11,-102V166c0,0,0,-33,10,-53c0,0,10,-22,27,-32c0,0,17,-10,40,-13c0,0,22,-4,48,-4h5V0Z" 
id="f0_r"
transform="scale(0.001,-0.001)" />

<path d="M51,0V64h4c0,0,26,0,49,4c0,0,23,3,40,16c0,0,16,11,27,32c0,0,10,21,10,58V650c0,0,0,33,-10,55c0,0,-11,20,-28,31c0,0,-17,11,-39,15c0,0,-24,3,-49,4H51v64H286L315,668h7c0,0,14,34,31,65c0,0,15,29,39,53c0,0,22,22,56,35c0,0,33,12,84,13c0,0,83,0,124,-29c0,0,41,-30,41,-82c0,0,0,-24,-8,-44c0,0,-9,-20,-25,-34c0,0,-17,-15,-44,-23c0,0,-27,-8,-66,-8c0,0,0,63,-18,92c0,0,-18,27,-62,27c0,0,-29,0,-51,-15c0,0,-22,-18,-39,-43c0,0,-17,-27,-28,-61c0,0,-13,-35,-19,-70c0,0,-8,-37,-10,-73c0,0,-4,-35,-3,-64V166c0,0,0,-33,10,-53c0,0,10,-22,27,-32c0,0,16,-10,40,-13c0,0,22,-4,48,-4h43V0Z" 
id="f0_9"
transform="scale(0.001,-0.001)" />

<path d="M348,79c0,0,46,0,85,15c0,0,36,14,64,42c0,0,25,27,40,66c0,0,14,39,14,87V412H454c0,0,-65,0,-109,-14c0,0,-44,-13,-70,-36c0,0,-27,-25,-39,-59c0,0,-12,-35,-11,-80c0,0,0,-73,30,-108c0,0,29,-36,93,-36ZM313,-14c0,0,-50,0,-94,14c0,0,-44,14,-75,45c0,0,-33,30,-50,77c0,0,-18,47,-18,109c0,0,0,123,87,182c0,0,85,59,261,60H551v93c0,0,0,42,-4,78c0,0,-5,34,-20,60c0,0,-15,26,-42,40c0,0,-28,14,-75,14c0,0,-44,0,-71,-12c0,0,-29,-13,-43,-35c0,0,-16,-23,-21,-53c0,0,-6,-31,-5,-66c0,0,-64,0,-96,21c0,0,-34,21,-34,75c0,0,0,39,22,67c0,0,21,28,60,45c0,0,36,17,87,26c0,0,49,7,107,8c0,0,69,0,122,-13c0,0,52,-15,87,-46c0,0,34,-31,53,-81c0,0,17,-52,17,-124V174c0,0,0,-33,5,-53c0,0,6,-22,17,-34c0,0,10,-12,30,-18c0,0,15,-5,38,-5c2,0,3,0,5,0h4V0H588L564,131H551c0,0,-24,-33,-46,-59c0,0,-22,-27,-49,-46C456,26,429,6,395,-3c0,0,-35,-11,-82,-11Z" 
id="f0_b"
transform="scale(0.001,-0.001)" />

<path d="M421,83c0,0,59,0,100,20c0,0,39,19,65,60c0,0,23,39,34,101c0,0,10,61,10,144c0,0,0,79,-10,141c0,0,-11,61,-34,103c0,0,-25,41,-65,63c0,0,-41,21,-101,21c0,0,-51,0,-86,-21c0,0,-36,-23,-58,-64c0,0,-24,-42,-34,-103c0,0,-10,-62,-10,-141c0,0,0,-163,44,-244c0,0,43,-80,145,-80ZM395,-14c-8,0,-78,1,-133,24c0,0,-59,24,-98,77c0,0,-39,52,-60,132c0,0,-20,79,-20,189c0,0,0,110,20,191c0,0,21,80,60,133c0,0,39,51,98,77c0,0,58,25,133,25c0,0,44,0,80,-10c0,0,36,-10,65,-27c0,0,28,-18,51,-43c0,0,21,-24,39,-54h4c0,0,0,36,0,70c0,0,0,27,0,57c0,0,0,27,0,41V993c0,0,-1,33,-10,54c0,0,-11,21,-29,32c0,0,-18,11,-41,15c0,0,-24,3,-49,3H492v64H773V168c0,0,0,-34,10,-54c0,0,10,-21,27,-32c0,0,17,-11,40,-14c0,0,22,-4,48,-4h13V0H652L636,137h-6c0,0,-18,-35,-39,-62c0,0,-23,-29,-51,-48C540,27,512,6,476,-3c0,0,-36,-11,-81,-11Z" 
id="f0_7"
transform="scale(0.001,-0.001)" />

<path d="M35,0V64H55c0,0,25,0,49,4c0,0,22,3,39,13c0,0,17,10,28,32c0,0,10,20,10,53V650c0,0,0,33,-10,55c0,0,-11,20,-28,31c0,0,-17,11,-39,15c0,0,-24,3,-49,4H51v64H324V174c0,0,0,-37,10,-58c0,0,10,-21,27,-32c0,0,16,-13,40,-16c0,0,22,-4,48,-4h20V0ZM249,972c-1,0,-2,0,-3,0c0,0,-1,0,-2,0c-5,0,-20,0,-32,5c0,0,-16,5,-28,16c0,0,-12,11,-18,29c0,0,-7,18,-7,45c0,0,0,27,7,45c0,0,6,17,18,29c0,0,12,11,28,15c0,0,15,5,34,5c0,0,18,0,34,-5c0,0,15,-4,27,-15c0,0,11,-12,19,-29c0,0,7,-18,7,-45c0,0,0,-27,-7,-45c0,0,-8,-18,-19,-29c0,0,-12,-11,-27,-16c0,0,-14,-5,-31,-5Z" 
id="f0_6"
transform="scale(0.001,-0.001)" />

<path d="M417,-14c0,0,-60,0,-107,16c0,0,-47,17,-79,54c0,0,-33,36,-49,93c0,0,-17,57,-17,135V650c0,0,0,33,-10,55c0,0,-11,20,-27,31c0,0,-18,11,-40,15c0,0,-24,3,-48,4H35v64H309V292c0,0,0,-51,8,-89c0,0,7,-40,26,-66c0,0,18,-27,49,-40c0,0,29,-14,74,-14c1,0,2,0,3,0c0,0,50,0,88,18c0,0,35,18,59,50c0,0,23,32,34,78c0,0,12,46,12,101V645c0,0,0,35,-10,58c0,0,-10,21,-27,33c0,0,-17,11,-39,15c0,0,-24,3,-50,4h-4v64H805V166c0,0,0,-33,10,-53c0,0,10,-22,27,-32c0,0,17,-10,41,-13c0,0,21,-4,47,-4h5V0H692L672,124h-7c0,0,-24,-44,-51,-70c0,0,-28,-28,-60,-42c0,0,-31,-15,-65,-20c0,0,-35,-6,-72,-6Z" 
id="f0_g"
transform="scale(0.001,-0.001)" />

<path d="M321,-14c0,0,-58,0,-104,11c0,0,-48,7,-80,29c0,0,-33,20,-50,51c0,0,-18,30,-18,70c0,0,0,30,10,51c0,0,10,20,25,33c0,0,14,11,31,17c0,0,16,4,30,4c0,0,0,-41,8,-75c0,0,8,-36,28,-61c0,0,18,-28,51,-42c0,0,31,-16,78,-16c0,0,41,0,72,11c0,0,31,9,53,28c0,0,21,18,32,44c0,0,11,25,11,56c0,0,0,28,-8,49c0,0,-9,20,-30,38c0,0,-21,17,-58,37c0,0,-37,18,-92,42c0,0,-59,26,-102,51c0,0,-45,23,-72,52c0,0,-29,28,-43,65c0,0,-15,35,-14,86c0,0,-1,52,21,92c0,0,20,40,58,68c0,0,38,26,91,41c0,0,52,15,118,15c0,0,54,0,96,-12c0,0,41,-11,70,-30c0,0,28,-19,43,-44c0,0,14,-27,14,-55c0,0,-1,-42,-28,-66c0,0,-29,-25,-80,-25c-1,0,-2,0,-2,0c0,0,0,76,-32,119c0,0,-32,42,-100,42c0,0,-39,0,-66,-9c0,0,-28,-9,-45,-25c0,0,-18,-17,-26,-39c0,0,-8,-22,-8,-49c0,0,0,-29,10,-50c0,0,10,-22,34,-39c0,0,22,-18,59,-35c0,0,36,-17,86,-38c0,0,60,-26,104,-50c0,0,43,-24,72,-54c0,0,27,-29,41,-65c0,0,13,-37,13,-84c0,0,-1,-60,-21,-105c0,0,-23,-45,-62,-74C539,46,499,14,445,0c0,0,-56,-14,-124,-14Z" 
id="f0_5"
transform="scale(0.001,-0.001)" />

<path d="M442,64c0,0,56,0,97,23c0,0,38,22,64,66c0,0,24,43,36,108c0,0,9,65,10,150c0,0,0,85,-11,149c0,0,-11,64,-36,108c0,0,-25,42,-64,64c0,0,-41,21,-98,21c0,0,-58,0,-97,-21c0,0,-39,-22,-64,-64c0,0,-25,-44,-36,-108c0,0,-11,-64,-11,-149c0,0,0,-85,11,-150c0,0,11,-65,37,-108c0,0,24,-44,65,-66c0,0,38,-23,97,-23Zm-3,-78c0,0,-83,0,-149,25c0,0,-66,26,-111,79c0,0,-47,52,-70,134c0,0,-25,79,-25,187c0,0,0,213,91,319c0,0,90,103,268,104c0,0,82,0,149,-25c0,0,65,-26,111,-79c0,0,46,-53,71,-132c0,0,23,-80,23,-187c0,0,0,-216,-91,-321C706,90,614,-14,439,-14Z" 
id="f0_3"
transform="scale(0.001,-0.001)" />

<path d="M41,0V64H61c0,0,26,0,49,4c0,0,23,3,40,16c0,0,16,11,27,32c0,0,9,21,9,58V747H47v72H186v76c0,0,0,68,19,121c0,0,19,52,54,88c0,0,34,35,85,55c0,0,50,17,113,17c0,0,58,0,100,-7c0,0,41,-8,67,-22c0,0,24,-15,35,-34c0,0,12,-20,12,-43c0,0,0,-22,-9,-37c0,0,-11,-17,-26,-27c0,0,-18,-11,-40,-16c0,0,-24,-6,-51,-6c0,0,0,23,-4,45c0,0,-6,21,-17,39c0,0,-12,17,-31,28c0,0,-19,10,-48,10c0,0,-34,0,-55,-12c0,0,-22,-13,-36,-38c0,0,-13,-26,-18,-62c0,0,-6,-37,-6,-85V819H545V747H330V174c0,0,0,-37,10,-58c0,0,10,-21,27,-32c0,0,16,-13,40,-16c0,0,22,-4,48,-4h58V0Z" 
id="f0_s"
transform="scale(0.001,-0.001)" />

<path d="M518,83c0,0,50,0,86,21c0,0,35,21,58,63c0,0,23,41,33,104c0,0,10,61,11,142c0,0,-1,80,-11,142c0,0,-10,60,-33,101c0,0,-23,40,-58,60c0,0,-38,20,-88,20c0,0,-60,0,-99,-19c0,0,-41,-20,-64,-61c0,0,-24,-40,-34,-101c0,0,-10,-62,-10,-144c0,0,0,-80,10,-141c0,0,10,-62,35,-103c0,0,23,-42,64,-63c0,0,39,-21,100,-21Zm27,-97c-1,0,-2,0,-3,0h-2c-8,0,-46,1,-77,10c0,0,-37,8,-65,26c0,0,-29,18,-50,43c0,0,-23,24,-39,54H299L272,0H28V64H40c0,0,25,0,49,4c0,0,22,3,39,16c0,0,17,11,27,32c0,0,10,21,10,58V993c0,0,0,33,-10,54c0,0,-11,21,-27,32c0,0,-18,11,-40,15c0,0,-24,3,-48,3H28v64H306V880c0,0,0,-26,0,-59c0,0,0,-35,0,-66c0,0,0,-36,0,-74h3c0,0,16,34,39,63c0,0,21,28,50,49c0,0,27,19,64,31c0,0,36,9,80,10c0,0,75,0,134,-25c0,0,58,-26,98,-76c0,0,38,-53,60,-132c0,0,20,-80,20,-190c0,0,0,-111,-20,-191c0,0,-22,-80,-60,-133c0,0,-40,-53,-98,-77c0,0,-57,-24,-131,-24Z" 
id="f0_h"
transform="scale(0.001,-0.001)" />

<path d="M43,0V64H63c0,0,25,0,47,4c0,0,21,3,38,16c0,0,15,11,24,32c0,0,8,21,9,58V650c0,0,0,33,-9,55c0,0,-9,20,-25,31c0,0,-16,11,-37,15c0,0,-22,3,-47,4H58v64H298L318,695h7c0,0,23,42,49,70c0,0,25,27,54,43c0,0,28,14,61,21c0,0,31,5,67,5c0,0,36,0,71,-7c0,0,33,-9,62,-24c0,0,28,-17,52,-43c0,0,21,-27,36,-65h13c0,0,23,42,50,70c0,0,27,27,57,43c0,0,30,14,64,21c0,0,32,5,68,5c0,0,59,-1,105,-17c0,0,45,-18,78,-54c0,0,32,-37,49,-93c0,0,17,-58,18,-135V174c0,0,0,-37,9,-58c0,0,9,-21,24,-32c0,0,16,-13,37,-16c0,0,21,-4,47,-4h5V0H1135V527c0,0,0,50,-8,89c0,0,-9,39,-27,66c0,0,-21,26,-50,41c0,0,-32,13,-75,13c0,0,-48,0,-80,-18c0,0,-33,-19,-53,-50c0,0,-21,-31,-28,-72c0,0,-9,-42,-9,-87V174c0,0,0,-37,9,-58c0,0,9,-21,24,-32c0,0,16,-13,38,-16c0,0,21,-4,47,-4h4V0H662V527c0,0,-1,50,-9,89c0,0,-8,39,-27,66c0,0,-20,26,-50,41c0,0,-31,13,-75,13c0,0,-50,0,-83,-20c0,0,-35,-20,-55,-54c0,0,-22,-35,-30,-79c0,0,-9,-45,-9,-94V166c0,0,0,-33,10,-53c0,0,10,-22,27,-32c0,0,16,-10,40,-13c0,0,22,-4,48,-4h5V0Z" 
id="f0_u"
transform="scale(0.001,-0.001)" />

<path d="M147,0V64H249c0,0,26,0,49,4c0,0,23,3,40,16c0,0,16,11,27,32c0,0,9,21,9,58V976c0,0,-29,-35,-55,-64c0,0,-27,-29,-50,-50c0,0,-24,-22,-46,-32c0,0,-22,-12,-44,-12c0,0,-1,0,-1,0c0,0,-1,0,-1,0c-3,0,-35,0,-55,23c0,0,-21,21,-21,59c0,0,23,5,47,15c0,0,23,7,50,22c0,0,25,13,57,34c0,0,30,18,69,47l107,79h98V174c0,0,-1,-37,10,-58c0,0,9,-21,26,-32c0,0,17,-13,41,-16c0,0,22,-4,48,-4h75V0Z" 
id="f0_1g"
transform="scale(0.001,-0.001)" />

<path d="M222,-9c-1,0,-2,0,-3,0c0,0,-1,0,-3,0c-6,0,-22,0,-35,5c0,0,-18,4,-30,16c0,0,-14,12,-21,32c0,0,-8,20,-8,49c0,0,0,30,8,50c0,0,7,19,21,32c0,0,12,11,30,17c0,0,17,5,38,5c0,0,18,0,37,-5c0,0,16,-6,30,-17c0,0,12,-13,21,-32c0,0,8,-20,8,-50c0,0,0,-29,-8,-49c0,0,-9,-20,-21,-32C286,12,272,0,256,-4c0,0,-17,-5,-34,-5Z" 
id="f0_19"
transform="scale(0.001,-0.001)" />

<path d="M78,0V112L333,407c0,0,61,70,103,126c0,0,40,56,66,106c0,0,25,49,37,97c0,0,11,47,11,100c0,0,0,43,-9,79c0,0,-11,35,-29,61c0,0,-19,25,-48,40c0,0,-31,13,-70,13c0,0,-53,0,-84,-18c0,0,-33,-20,-52,-50c0,0,-19,-31,-25,-73c0,0,-7,-41,-7,-86c0,0,-28,0,-51,4c0,0,-24,4,-42,17c0,0,-18,11,-28,30c0,0,-10,19,-10,48c0,0,0,43,19,82c0,0,19,37,57,65c0,0,36,28,93,43c0,0,56,15,130,15c0,0,72,0,130,-18c0,0,56,-19,97,-51c0,0,41,-34,62,-81c0,0,21,-47,21,-105c0,0,-1,-54,-17,-104c0,0,-18,-52,-50,-104c0,0,-33,-54,-80,-111c0,0,-48,-58,-108,-124L191,122H545c7,0,36,1,56,10c0,0,21,10,36,25c0,0,14,15,22,37c0,0,7,20,13,42l6,28h61V0Z" 
id="f0_18"
transform="scale(0.001,-0.001)" />

<path d="M413,510c0,0,36,0,67,11c0,0,30,9,55,27c0,0,23,15,42,39c0,0,16,22,27,47v3c0,0,0,101,-15,174c0,0,-15,72,-41,119c0,0,-27,47,-62,70c0,0,-36,22,-81,22c0,0,-81,-1,-125,-71c0,0,-45,-71,-45,-206c0,0,0,-62,11,-107c0,0,11,-46,34,-73c0,0,22,-29,55,-41c0,0,33,-14,78,-14ZM350,-16c-1,0,-2,0,-3,0c0,0,-1,0,-2,0c-12,0,-68,0,-106,12c0,0,-44,9,-67,29c0,0,-27,18,-36,42c0,0,-11,23,-11,48c0,0,0,27,15,48c0,0,14,18,31,25c0,0,10,-25,26,-46c0,0,15,-22,37,-38c0,0,23,-17,51,-27c0,0,27,-10,61,-10c1,0,3,0,4,0c0,0,127,0,189,114c0,0,61,112,61,343c0,0,-17,-20,-38,-39c0,0,-23,-20,-50,-33c0,0,-28,-16,-61,-23c0,0,-34,-9,-74,-9c0,0,-67,0,-121,19c0,0,-56,19,-95,59c0,0,-40,38,-62,97c0,0,-21,58,-21,135c0,0,0,83,22,153c0,0,22,67,65,118c0,0,41,49,103,78c0,0,59,27,137,27c0,0,77,0,143,-30c0,0,64,-30,112,-92c0,0,48,-63,75,-160c0,0,25,-97,26,-231c0,0,0,-80,-10,-156c0,0,-10,-77,-31,-145c0,0,-23,-68,-55,-124c0,0,-33,-58,-79,-98C586,70,539,28,480,6c0,0,-57,-22,-130,-22Z" 
id="f0_1t"
transform="scale(0.001,-0.001)" />

<path d="M58,0V64H78c0,0,24,0,48,4c0,0,22,3,40,13c0,0,16,10,27,32c0,0,10,20,10,53V923c0,0,0,33,-10,54c0,0,-11,20,-27,32c0,0,-18,11,-40,14c0,0,-24,3,-48,3H58v65H832V824H756l-7,65c0,0,-4,26,-12,49c0,0,-9,23,-25,40c0,0,-17,16,-43,27c0,0,-26,10,-61,10H357V573H726V498H357V174c0,0,0,-37,11,-58c0,0,9,-21,27,-32c0,0,15,-13,39,-16c0,0,23,-4,49,-4h50V0Z" 
id="f0_1v"
transform="scale(0.001,-0.001)" />

<path d="M351,-291c2,0,3,0,5,0c0,0,1,0,2,0c12,0,84,1,134,15c0,0,52,13,84,38c0,0,31,23,44,58c0,0,12,34,13,74c0,0,0,35,-10,59c0,0,-11,22,-30,35c0,0,-20,12,-49,17c0,0,-29,5,-67,5H327c0,0,-33,0,-62,-5c0,0,-31,-5,-54,-20c0,0,-24,-17,-38,-44c0,0,-15,-29,-14,-74c0,0,0,-34,9,-63c0,0,9,-29,31,-50c0,0,23,-22,61,-33c0,0,35,-12,91,-12Zm34,658c0,0,1,0,1,0c0,0,37,0,64,11c0,0,24,11,42,35c0,0,15,22,23,59c0,0,7,35,7,86c0,0,0,103,-31,152c0,0,-31,49,-106,49c0,0,-74,0,-105,-50c0,0,-33,-50,-32,-153c0,0,0,-98,32,-143c0,0,32,-46,105,-46ZM353,-366c-8,0,-162,1,-239,59c0,0,-80,59,-79,164c0,0,0,45,16,78c0,0,15,34,42,58c0,0,26,22,61,38c0,0,34,14,72,21c0,0,-16,7,-31,18c0,0,-14,11,-26,27c0,0,-13,16,-20,36c0,0,-8,20,-7,45c0,0,0,45,24,79c0,0,23,32,76,64c0,0,-33,13,-58,37c0,0,-27,23,-44,54c0,0,-18,30,-27,65c0,0,-10,36,-9,74c0,0,0,66,18,119c0,0,18,51,53,89c0,0,36,36,90,56c0,0,53,18,126,19c0,0,28,-1,54,-4c0,0,26,-4,50,-11c0,0,22,-8,41,-16c0,0,18,-9,29,-19c0,0,12,12,27,27c0,0,14,14,33,27c0,0,19,12,41,20c0,0,21,7,47,8c0,0,23,-1,40,-6c0,0,17,-7,28,-17c0,0,11,-11,17,-25c0,0,5,-15,5,-31c0,0,0,-17,-4,-31c0,0,-6,-15,-15,-25c0,0,-10,-12,-25,-17c0,0,-15,-7,-36,-7c0,0,0,9,-2,18c0,0,-3,9,-8,17c0,0,-6,7,-16,13c0,0,-10,4,-25,4c0,0,-19,0,-35,-4c0,0,-16,-5,-31,-14c0,0,26,-33,44,-76c0,0,16,-44,16,-109c0,0,-1,-57,-17,-105c0,0,-17,-48,-51,-82c0,0,-35,-36,-86,-56c0,0,-52,-19,-121,-19H348c0,0,-11,0,-21,1c0,0,-10,1,-15,3c0,0,-15,-9,-29,-17c0,0,-13,-9,-23,-20c0,0,-11,-11,-16,-25c0,0,-6,-15,-6,-32c0,0,-1,-19,7,-29c0,0,7,-12,20,-18c0,0,12,-7,30,-8c0,0,17,-2,38,-2H506c0,0,68,-1,116,-17c0,0,48,-17,78,-47c0,0,30,-32,44,-73c0,0,14,-41,14,-90c0,0,-1,-67,-24,-119c0,0,-25,-53,-75,-89c0,0,-50,-38,-126,-58c0,0,-77,-20,-180,-20Z" 
id="f0_d"
transform="scale(0.001,-0.001)" />

<path d="M20,0V64H40c0,0,25,0,49,4c0,0,22,3,39,16c0,0,17,11,27,32c0,0,10,21,10,58V993c0,0,0,33,-10,54c0,0,-11,21,-27,32c0,0,-18,11,-40,15c0,0,-24,3,-48,3H20v64H309V174c0,0,-1,-37,10,-58c0,0,9,-21,26,-32c0,0,17,-13,41,-16c0,0,22,-4,48,-4h20V0Z" 
id="f0_c"
transform="scale(0.001,-0.001)" />

<path d="M223,-9c-1,0,-2,0,-3,0c0,0,-1,0,-2,0c-6,0,-22,0,-35,5c0,0,-19,4,-31,16c0,0,-13,12,-21,32c0,0,-8,20,-7,49c0,0,-1,30,7,50c0,0,8,19,21,32c0,0,12,11,31,17c0,0,16,5,37,5c0,0,19,0,37,-5c0,0,17,-6,31,-17c0,0,12,-13,21,-32c0,0,7,-20,7,-50c0,0,0,-29,-7,-49c0,0,-9,-20,-21,-32C288,12,274,0,257,-4c0,0,-16,-5,-34,-5Zm0,627c-1,0,-2,0,-3,0c0,0,-1,0,-2,0c-6,0,-22,1,-35,6c0,0,-19,5,-31,18c0,0,-13,11,-21,32c0,0,-8,20,-7,49c0,0,-1,30,7,50c0,0,8,18,21,31c0,0,12,11,31,17c0,0,16,6,37,6c0,0,19,0,37,-6c0,0,17,-6,31,-17c0,0,12,-13,21,-31c0,0,7,-20,7,-50c0,0,0,-29,-7,-49c0,0,-9,-21,-21,-32c0,0,-14,-13,-31,-18c0,0,-16,-6,-34,-6Z" 
id="f0_1c"
transform="scale(0.001,-0.001)" />

<path d="M-30,0l14,64H3c0,0,75,0,106,27c0,0,29,27,39,75L309,923c0,0,5,27,6,42c0,0,0,61,-111,61H185l13,65H545L675,220l500,871h341l-14,-65h-20c0,0,-73,0,-105,-27c0,0,-33,-28,-43,-82L1175,168c0,0,-6,-28,-6,-43c0,0,0,-61,108,-61c0,0,1,0,2,0h20L1285,0H879l13,64h5c0,0,65,0,91,25c0,0,25,23,38,71l175,816L643,0H561L413,976L242,168c0,0,-7,-33,-7,-43c0,0,-1,-61,108,-61c1,0,2,0,2,0h20L351,0Z" 
id="f1_7"
transform="scale(0.001,-0.001)" />

<path d="M99,350v90H755V350Zm0,300v91H755V650Z" 
id="f0_x"
transform="scale(0.001,-0.001)" />

<path d="M377,-14c-2,0,-3,0,-4,0c0,0,-86,0,-140,14c0,0,-57,14,-89,37c0,0,-33,21,-46,50c0,0,-14,26,-14,52c0,0,0,42,24,66c0,0,23,23,73,24c0,0,-1,-34,11,-61c0,0,11,-28,35,-49c0,0,22,-21,57,-32c0,0,33,-12,77,-12c1,0,2,0,4,0c0,0,47,0,87,13c0,0,39,12,69,43c0,0,29,29,46,80c0,0,16,49,16,122c0,0,0,60,-16,105c0,0,-17,44,-47,74c0,0,-31,30,-73,45c0,0,-43,14,-96,14c0,0,-40,0,-68,-3c0,0,-29,-3,-50,-7c0,0,-23,-6,-39,-11c0,0,-17,-7,-31,-12l-36,10l49,541H690V859H630l-6,45c0,0,-3,16,-6,28c0,0,-5,12,-14,20c0,0,-9,7,-24,11c0,0,-16,3,-39,4H245L216,631c0,0,23,8,67,17c0,0,42,7,111,8c0,0,74,0,138,-20c0,0,63,-21,110,-61c0,0,47,-40,74,-101c0,0,26,-61,26,-141c0,0,0,-79,-24,-142c0,0,-26,-64,-73,-110C645,81,597,35,529,10c0,0,-67,-24,-152,-24Z" 
id="f0_1o"
transform="scale(0.001,-0.001)" />

<path d="M421,83c0,0,59,0,100,20c0,0,39,19,65,60c0,0,23,39,34,101c0,0,10,61,10,144c0,0,0,79,-10,141c0,0,-11,61,-34,103c0,0,-25,41,-65,63c0,0,-41,21,-101,21c0,0,-51,0,-86,-21c0,0,-36,-23,-58,-64c0,0,-24,-42,-34,-103c0,0,-10,-62,-10,-141c0,0,0,-163,44,-244c0,0,43,-80,145,-80Zm33,-449v64h51c0,0,26,0,50,4c0,0,22,3,40,16c0,0,17,11,27,33c0,0,10,21,11,58V-60c0,0,0,25,0,60c0,0,0,33,0,64c0,0,0,36,0,73h-3c0,0,-18,-35,-39,-62c0,0,-23,-29,-51,-48C540,27,512,6,476,-3c0,0,-36,-11,-81,-11c-8,0,-78,1,-133,24c0,0,-59,24,-98,77c0,0,-39,52,-60,132c0,0,-20,79,-20,189c0,0,0,110,20,191c0,0,21,80,60,133c0,0,39,51,98,77c0,0,58,25,133,25c0,0,44,0,80,-10c0,0,36,-10,65,-27c0,0,28,-18,51,-43c0,0,21,-24,39,-54h9l27,119H911V755H898c0,0,-26,-1,-48,-4c0,0,-24,-4,-40,-15c0,0,-17,-12,-27,-33c0,0,-10,-23,-10,-58V-197c0,0,0,-34,10,-54c0,0,10,-22,27,-32c0,0,17,-12,40,-15c0,0,22,-4,48,-4h13v-64Z" 
id="f0_15"
transform="scale(0.001,-0.001)" />

<path d="M290,0L650,967H249c0,0,-82,-1,-89,-78l-6,-76H94v276H781v-44L405,0Z" 
id="f0_1p"
transform="scale(0.001,-0.001)" />

<path d="M28,0V64H40c0,0,25,0,49,4c0,0,22,3,39,16c0,0,17,11,27,32c0,0,10,21,10,58V993c0,0,0,33,-10,54c0,0,-11,21,-27,32c0,0,-18,11,-40,15c0,0,-24,3,-48,3H28v64H306V571c0,0,0,-21,0,-53c0,0,0,-32,0,-64c0,0,0,-36,0,-75L495,588c0,0,24,27,40,48c0,0,16,21,25,37c0,0,10,16,14,28c0,0,3,12,3,23c0,0,0,19,-18,26c0,0,-19,5,-56,5v64H840V755c0,0,-54,-1,-104,-37c0,0,-52,-38,-111,-106L518,492L721,189c0,0,39,-61,79,-93c0,0,38,-32,89,-32q1,0,2,0h4V0H874c0,0,-67,0,-109,4c0,0,-44,3,-75,20c0,0,-32,14,-57,45c0,0,-27,29,-59,79L421,388L309,304V166c0,0,0,-33,10,-53c0,0,10,-22,27,-32c0,0,17,-10,40,-13c0,0,22,-4,48,-4h5V0Z" 
id="f0_1f"
transform="scale(0.001,-0.001)" />

<path d="M518,83c0,0,50,0,86,21c0,0,35,21,58,63c0,0,23,41,33,104c0,0,10,61,11,142c0,0,-1,80,-11,142c0,0,-10,60,-33,101c0,0,-23,40,-58,60c0,0,-38,20,-88,20c0,0,-60,0,-99,-19c0,0,-41,-20,-64,-61c0,0,-24,-40,-34,-101c0,0,-10,-62,-10,-144c0,0,0,-80,10,-141c0,0,10,-62,35,-103c0,0,23,-42,64,-63c0,0,39,-21,100,-21ZM28,-366v64H40c0,0,25,0,49,4c0,0,22,3,39,16c0,0,17,11,27,33c0,0,10,21,10,58V650c0,0,0,33,-10,55c0,0,-11,20,-27,31c0,0,-18,11,-40,15c0,0,-24,3,-48,4H20v64H287L303,681h6c0,0,16,34,39,63c0,0,21,28,50,49c0,0,27,19,64,31c0,0,36,9,80,10c0,0,75,0,134,-25c0,0,58,-26,98,-76c0,0,38,-53,60,-132c0,0,20,-80,20,-190c0,0,0,-111,-20,-191c0,0,-22,-80,-60,-133c0,0,-40,-53,-98,-77c0,0,-57,-24,-131,-24c-1,0,-2,0,-3,0h-2c-8,0,-46,1,-77,10c0,0,-37,8,-65,26c0,0,-29,18,-50,43c0,0,-23,24,-39,54h-3c0,0,0,-39,0,-73c0,0,0,-15,0,-30c0,0,0,-15,0,-28c0,0,0,-14,0,-24c0,0,0,-11,0,-17V-199c0,0,0,-33,10,-54c0,0,10,-21,28,-31c0,0,17,-11,41,-14c0,0,23,-4,49,-4h5v-64Z" 
id="f0_14"
transform="scale(0.001,-0.001)" />

<path d="M452,373V875L97,373ZM452,0V267H23v95l470,671h82V373H711V267H575V0Z" 
id="f2_o"
transform="scale(0.001,-0.001)" />

<path d="M247,-17c0,0,-91,0,-132,30c0,0,-42,31,-42,68c0,0,0,21,17,37c0,0,18,16,44,17c0,0,19,0,34,-6c0,0,14,-7,49,-31c0,0,56,-39,113,-39c0,0,88,0,154,66c0,0,66,66,66,161c0,0,0,92,-59,171c0,0,-59,80,-163,123c0,0,-81,34,-221,39l194,393H663L605,885H301L234,750c0,0,198,-29,313,-147c0,0,100,-102,100,-239c0,0,0,-80,-33,-148c0,0,-32,-68,-81,-116c0,0,-50,-47,-110,-77c0,0,-86,-40,-176,-40Z" 
id="f2_p"
transform="scale(0.001,-0.001)" />


</defs>
</svg>