<?xml version="1.0" encoding="UTF-8" standalone="no"?>
<!DOCTYPE svg PUBLIC "-//W3C//DTD SVG 1.1//EN"
"http://www.w3.org/Graphics/SVG/1.1/DTD/svg11.dtd">
<svg viewBox="0 0 909 1286" version="1.1" xmlns="http://www.w3.org/2000/svg" xmlns:xlink="http://www.w3.org/1999/xlink">
<defs>
<clipPath id="c0_321"><path d="M35.1,1194.7V113.1H873.9V1194.7Z" /></clipPath>
</defs>
<g clip-path="url(#c0_321)">
<g fill="#000000" >
<use xlink:href="#f0_1v" transform="matrix(12,0,0,12,47.4,136)" />
<use xlink:href="#f0_e" transform="matrix(12,0,0,12,66.6,136)" />
<use xlink:href="#f0_9" transform="matrix(12,0,0,12,78.2,136)" />
<use xlink:href="#f0_a" transform="matrix(12,0,0,12,88,136)" />
<use xlink:href="#f0_i" transform="matrix(12,0,0,12,104.6,136)" />
<use xlink:href="#f0_j" transform="matrix(12,0,0,12,119.6,136)" />
<use xlink:href="#f0_f" transform="matrix(12,0,0,12,126.4,136)" />
<use xlink:href="#f0_u" transform="matrix(12,0,0,12,137,136)" />
<use xlink:href="#f0_g" transform="matrix(12,0,0,12,145.6,136)" />
<use xlink:href="#f0_9" transform="matrix(12,0,0,12,154.6,136)" />
<use xlink:href="#f1_b" transform="matrix(12,0,0,12,169.2,136)" />
<use xlink:href="#f0_r" transform="matrix(12,0,0,12,180,136)" />
<use xlink:href="#f0_5" transform="matrix(12,0,0,12,189.3,136)" />
<use xlink:href="#f0_4" transform="matrix(12,0,0,12,195.1,136)" />
<use xlink:href="#f0_i" transform="matrix(12,0,0,12,208.2,136)" />
<use xlink:href="#f0_7" transform="matrix(12,0,0,12,218.5,136)" />
<use xlink:href="#f0_7" transform="matrix(12,0,0,12,229.7,136)" />
<use xlink:href="#f0_8" transform="matrix(12,0,0,12,241,136)" />
<use xlink:href="#f0_5" transform="matrix(12,0,0,12,246.6,136)" />
<use xlink:href="#f0_9" transform="matrix(12,0,0,12,252.5,136)" />
<use xlink:href="#f0_b" transform="matrix(12,0,0,12,262.3,136)" />
<use xlink:href="#f0_d" transform="matrix(12,0,0,12,278.3,136)" />
<use xlink:href="#f0_f" transform="matrix(12,0,0,12,284.7,136)" />
<use xlink:href="#f0_d" transform="matrix(12,0,0,12,300.1,136)" />
<use xlink:href="#f0_e" transform="matrix(12,0,0,12,306.5,136)" />
<use xlink:href="#f0_9" transform="matrix(12,0,0,12,318.1,136)" />
<use xlink:href="#f0_j" transform="matrix(12,0,0,12,332.7,136)" />
<use xlink:href="#f0_u" transform="matrix(12,0,0,12,339.5,136)" />
<use xlink:href="#f0_9" transform="matrix(12,0,0,12,348.1,136)" />
<use xlink:href="#f0_9" transform="matrix(12,0,0,12,357.9,136)" />
<use xlink:href="#f0_9" transform="matrix(12,0,0,12,372.4,136)" />
<use xlink:href="#f0_a" transform="matrix(12,0,0,12,382.3,136)" />
<use xlink:href="#f0_b" transform="matrix(12,0,0,12,394.1,136)" />
<use xlink:href="#f0_f" transform="matrix(12,0,0,12,410.1,136)" />
<use xlink:href="#f0_j" transform="matrix(12,0,0,12,420.6,136)" />
<use xlink:href="#f0_d" transform="matrix(12,0,0,12,432.1,136)" />
<use xlink:href="#f0_e" transform="matrix(12,0,0,12,438.6,136)" />
<use xlink:href="#f0_9" transform="matrix(12,0,0,12,450.2,136)" />
<use xlink:href="#f0_4" transform="matrix(12,0,0,12,464.8,136)" />
<use xlink:href="#f0_7" transform="matrix(12,0,0,12,473,136)" />
<use xlink:href="#f0_u" transform="matrix(12,0,0,12,484.3,136)" />
<use xlink:href="#f0_5" transform="matrix(12,0,0,12,492.9,136)" />
<use xlink:href="#f0_a" transform="matrix(12,0,0,12,498.7,136)" />
<use xlink:href="#f0_m" transform="matrix(12,0,0,12,510.6,136)" />
<use xlink:href="#f0_r" transform="matrix(12,0,0,12,520.4,136)" />
<use xlink:href="#f0_i" transform="matrix(12,0,0,12,529.8,136)" />
<use xlink:href="#f0_a" transform="matrix(12,0,0,12,540.1,136)" />
<use xlink:href="#f0_9" transform="matrix(12,0,0,12,556.6,136)" />
<use xlink:href="#f0_h" transform="matrix(12,0,0,12,566.4,136)" />
<use xlink:href="#f0_d" transform="matrix(12,0,0,12,577,136)" />
<use xlink:href="#f0_9" transform="matrix(12,0,0,12,583.5,136)" />
<use xlink:href="#f0_a" transform="matrix(12,0,0,12,593.3,136)" />
<use xlink:href="#f0_4" transform="matrix(12,0,0,12,605.1,136)" />
<use xlink:href="#f0_5" transform="matrix(12,0,0,12,613.4,136)" />
<use xlink:href="#f0_f" transform="matrix(12,0,0,12,619.2,136)" />
<use xlink:href="#f0_a" transform="matrix(12,0,0,12,629.8,136)" />
<use xlink:href="#f1_c" transform="matrix(12,0,0,12,646.4,136)" />
<use xlink:href="#f0_r" transform="matrix(12,0,0,12,651.9,136)" />
<use xlink:href="#f0_5" transform="matrix(12,0,0,12,661.3,136)" />
<use xlink:href="#f0_4" transform="matrix(12,0,0,12,667.1,136)" />
<use xlink:href="#f0_7" transform="matrix(12,0,0,12,680.1,136)" />
<use xlink:href="#f0_u" transform="matrix(12,0,0,12,691.4,136)" />
<use xlink:href="#f0_f" transform="matrix(12,0,0,12,700,136)" />
<use xlink:href="#f0_b" transform="matrix(12,0,0,12,710.6,136)" />
<use xlink:href="#f0_c" transform="matrix(12,0,0,12,721.8,136)" />
<use xlink:href="#f0_g" transform="matrix(12,0,0,12,733.4,136)" />
<use xlink:href="#f0_9" transform="matrix(12,0,0,12,742.5,136)" />
<use xlink:href="#f0_b" transform="matrix(12,0,0,12,752.3,136)" />
<use xlink:href="#f0_o" transform="matrix(12,0,0,12,763.5,136)" />
<use xlink:href="#f0_1b" transform="matrix(12,0,0,12,773.5,136)" />
<use xlink:href="#f0_f" transform="matrix(12,0,0,12,784.3,136)" />
<use xlink:href="#f0_u" transform="matrix(12,0,0,12,794.9,136)" />
<use xlink:href="#f0_d" transform="matrix(12,0,0,12,808.2,136)" />
<use xlink:href="#f0_e" transform="matrix(12,0,0,12,814.7,136)" />
<use xlink:href="#f0_9" transform="matrix(12,0,0,12,826.3,136)" />
<use xlink:href="#f0_6" transform="matrix(12,0,0,12,47.4,168.1)" />
<use xlink:href="#f0_i" transform="matrix(12,0,0,12,64.7,168.1)" />
<use xlink:href="#f0_h" transform="matrix(12,0,0,12,75,168.1)" />
<use xlink:href="#f0_5" transform="matrix(12,0,0,12,85.6,168.1)" />
<use xlink:href="#f0_6" transform="matrix(12,0,0,12,91.4,168.1)" />
<use xlink:href="#f0_c" transform="matrix(12,0,0,12,108.7,168.1)" />
<use xlink:href="#f0_6" transform="matrix(12,0,0,12,120.4,168.1)" />
<use xlink:href="#f0_9" transform="matrix(12,0,0,12,142.4,168.1)" />
<use xlink:href="#f0_h" transform="matrix(12,0,0,12,152.2,168.1)" />
<use xlink:href="#f0_d" transform="matrix(12,0,0,12,162.8,168.1)" />
<use xlink:href="#f0_9" transform="matrix(12,0,0,12,169.3,168.1)" />
<use xlink:href="#f0_a" transform="matrix(12,0,0,12,179.1,168.1)" />
<use xlink:href="#f0_4" transform="matrix(12,0,0,12,190.9,168.1)" />
<use xlink:href="#f0_5" transform="matrix(12,0,0,12,199.2,168.1)" />
<use xlink:href="#f0_f" transform="matrix(12,0,0,12,205,168.1)" />
<use xlink:href="#f0_a" transform="matrix(12,0,0,12,215.6,168.1)" />
<use xlink:href="#f0_r" transform="matrix(12,0,0,12,227.4,168.1)" />
<use xlink:href="#f0_5" transform="matrix(12,0,0,12,236.7,168.1)" />
<use xlink:href="#f0_d" transform="matrix(12,0,0,12,242.6,168.1)" />
<use xlink:href="#f0_g" transform="matrix(12,0,0,12,253.8,168.1)" />
<use xlink:href="#f0_i" transform="matrix(12,0,0,12,262.8,168.1)" />
<use xlink:href="#f0_a" transform="matrix(12,0,0,12,273.1,168.1)" />
<use xlink:href="#f0_k" transform="matrix(12,0,0,12,289.7,168.1)" />
<use xlink:href="#f0_9" transform="matrix(12,0,0,12,300.9,168.1)" />
<use xlink:href="#f0_t" transform="matrix(12,0,0,12,315.5,168.1)" />
<use xlink:href="#f0_u" transform="matrix(12,0,0,12,331.3,168.1)" />
<use xlink:href="#f0_5" transform="matrix(12,0,0,12,339.9,168.1)" />
<use xlink:href="#f0_d" transform="matrix(12,0,0,12,345.7,168.1)" />
<use xlink:href="#f0_d" transform="matrix(12,0,0,12,352.2,168.1)" />
<use xlink:href="#f0_9" transform="matrix(12,0,0,12,358.6,168.1)" />
<use xlink:href="#f0_a" transform="matrix(12,0,0,12,368.4,168.1)" />
<use xlink:href="#f0_i" transform="matrix(12,0,0,12,385,168.1)" />
<use xlink:href="#f0_4" transform="matrix(12,0,0,12,395.3,168.1)" />
<use xlink:href="#f0_13" transform="matrix(12,0,0,12,403.6,168.1)" />
<use xlink:href="#f1_b" transform="matrix(12,0,0,12,47.4,218.5)" />
<use xlink:href="#f0_w" transform="matrix(12,0,0,12,62.9,218.5)" />
<use xlink:href="#f1_9" transform="matrix(12,0,0,12,77.9,218.5)" />
<use xlink:href="#f1_c" transform="matrix(12,0,0,12,88.3,218.5)" />
<use xlink:href="#f0_1v" transform="matrix(12,0,0,12,47.4,268.9)" />
<use xlink:href="#f0_e" transform="matrix(12,0,0,12,66.6,268.9)" />
<use xlink:href="#f0_9" transform="matrix(12,0,0,12,78.2,268.9)" />
<use xlink:href="#f0_u" transform="matrix(12,0,0,12,88,268.9)" />
<use xlink:href="#f0_9" transform="matrix(12,0,0,12,96.6,268.9)" />
<use xlink:href="#f0_r" transform="matrix(12,0,0,12,106.4,268.9)" />
<use xlink:href="#f1_9" transform="matrix(12,0,0,12,115.8,268.9)" />
<use xlink:href="#f0_5" transform="matrix(12,0,0,12,130.9,268.9)" />
<use xlink:href="#f0_4" transform="matrix(12,0,0,12,136.8,268.9)" />
<use xlink:href="#f0_d" transform="matrix(12,0,0,12,149.8,268.9)" />
<use xlink:href="#f0_e" transform="matrix(12,0,0,12,156.2,268.9)" />
<use xlink:href="#f0_9" transform="matrix(12,0,0,12,167.8,268.9)" />
<use xlink:href="#f0_4" transform="matrix(12,0,0,12,182.4,268.9)" />
<use xlink:href="#f0_7" transform="matrix(12,0,0,12,190.7,268.9)" />
<use xlink:href="#f0_u" transform="matrix(12,0,0,12,201.9,268.9)" />
<use xlink:href="#f0_5" transform="matrix(12,0,0,12,210.5,268.9)" />
<use xlink:href="#f0_a" transform="matrix(12,0,0,12,216.4,268.9)" />
<use xlink:href="#f0_m" transform="matrix(12,0,0,12,228.2,268.9)" />
<use xlink:href="#f0_g" transform="matrix(12,0,0,12,242.8,268.9)" />
<use xlink:href="#f0_f" transform="matrix(12,0,0,12,251.8,268.9)" />
<use xlink:href="#f0_a" transform="matrix(12,0,0,12,262.4,268.9)" />
<use xlink:href="#f0_4" transform="matrix(12,0,0,12,274.2,268.9)" />
<use xlink:href="#f0_d" transform="matrix(12,0,0,12,282.5,268.9)" />
<use xlink:href="#f0_i" transform="matrix(12,0,0,12,288.9,268.9)" />
<use xlink:href="#f0_a" transform="matrix(12,0,0,12,299.2,268.9)" />
<use xlink:href="#f0_d" transform="matrix(12,0,0,12,311,268.9)" />
<use xlink:href="#f0_p" transform="matrix(12,0,0,12,47.4,333.1)" />
<use xlink:href="#f0_9" transform="matrix(12,0,0,12,61.9,333.1)" />
<use xlink:href="#f0_a" transform="matrix(12,0,0,12,71.7,333.1)" />
<use xlink:href="#f0_g" transform="matrix(12,0,0,12,83.5,333.1)" />
<use xlink:href="#f0_9" transform="matrix(12,0,0,12,92.5,333.1)" />
<use xlink:href="#f0_r" transform="matrix(12,0,0,12,102.4,333.1)" />
<use xlink:href="#f0_d" transform="matrix(12,0,0,12,111.7,333.1)" />
<use xlink:href="#f0_e" transform="matrix(12,0,0,12,118.1,333.1)" />
<use xlink:href="#f0_9" transform="matrix(12,0,0,12,129.8,333.1)" />
<use xlink:href="#f0_6" transform="matrix(12,0,0,12,144.3,333.1)" />
<use xlink:href="#f0_i" transform="matrix(12,0,0,12,161.6,333.1)" />
<use xlink:href="#f0_h" transform="matrix(12,0,0,12,171.9,333.1)" />
<use xlink:href="#f0_5" transform="matrix(12,0,0,12,182.5,333.1)" />
<use xlink:href="#f0_6" transform="matrix(12,0,0,12,188.4,333.1)" />
<use xlink:href="#f0_c" transform="matrix(12,0,0,12,205.7,333.1)" />
<use xlink:href="#f0_6" transform="matrix(12,0,0,12,217.3,333.1)" />
<use xlink:href="#f0_9" transform="matrix(12,0,0,12,239.4,333.1)" />
<use xlink:href="#f0_h" transform="matrix(12,0,0,12,249.2,333.1)" />
<use xlink:href="#f0_d" transform="matrix(12,0,0,12,259.8,333.1)" />
<use xlink:href="#f0_9" transform="matrix(12,0,0,12,266.2,333.1)" />
<use xlink:href="#f0_a" transform="matrix(12,0,0,12,276.1,333.1)" />
<use xlink:href="#f0_4" transform="matrix(12,0,0,12,287.9,333.1)" />
<use xlink:href="#f0_5" transform="matrix(12,0,0,12,296.1,333.1)" />
<use xlink:href="#f0_f" transform="matrix(12,0,0,12,302,333.1)" />
<use xlink:href="#f0_a" transform="matrix(12,0,0,12,312.5,333.1)" />
<use xlink:href="#f0_7" transform="matrix(12,0,0,12,329.1,333.1)" />
<use xlink:href="#f0_u" transform="matrix(12,0,0,12,340.4,333.1)" />
<use xlink:href="#f0_f" transform="matrix(12,0,0,12,349,333.1)" />
<use xlink:href="#f0_b" transform="matrix(12,0,0,12,359.6,333.1)" />
<use xlink:href="#f0_c" transform="matrix(12,0,0,12,370.8,333.1)" />
<use xlink:href="#f0_g" transform="matrix(12,0,0,12,382.4,333.1)" />
<use xlink:href="#f0_9" transform="matrix(12,0,0,12,391.4,333.1)" />
<use xlink:href="#f0_b" transform="matrix(12,0,0,12,401.3,333.1)" />
<use xlink:href="#f0_5" transform="matrix(12,0,0,12,417.3,333.1)" />
<use xlink:href="#f0_a" transform="matrix(12,0,0,12,423.1,333.1)" />
<use xlink:href="#f0_d" transform="matrix(12,0,0,12,439.7,333.1)" />
<use xlink:href="#f0_e" transform="matrix(12,0,0,12,446.1,333.1)" />
<use xlink:href="#f0_9" transform="matrix(12,0,0,12,457.7,333.1)" />
<use xlink:href="#f0_4" transform="matrix(12,0,0,12,472.3,333.1)" />
<use xlink:href="#f0_7" transform="matrix(12,0,0,12,480.6,333.1)" />
<use xlink:href="#f0_u" transform="matrix(12,0,0,12,491.8,333.1)" />
<use xlink:href="#f0_5" transform="matrix(12,0,0,12,500.4,333.1)" />
<use xlink:href="#f0_a" transform="matrix(12,0,0,12,506.3,333.1)" />
<use xlink:href="#f0_m" transform="matrix(12,0,0,12,518.1,333.1)" />
<use xlink:href="#f0_r" transform="matrix(12,0,0,12,527.9,333.1)" />
</g>
</g>
<image preserveAspectRatio="none" x="538" y="296" width="61" height="65" xlink:href="img/1.png" />
<g clip-path="url(#c0_321)">
<g fill="#000000" >
<use xlink:href="#f0_1b" transform="matrix(12,0,0,12,47.4,401.8)" />
<use xlink:href="#f0_f" transform="matrix(12,0,0,12,58.2,401.8)" />
<use xlink:href="#f0_u" transform="matrix(12,0,0,12,68.8,401.8)" />
<use xlink:href="#f0_d" transform="matrix(12,0,0,12,82.1,401.8)" />
<use xlink:href="#f0_e" transform="matrix(12,0,0,12,88.6,401.8)" />
<use xlink:href="#f0_9" transform="matrix(12,0,0,12,100.2,401.8)" />
<use xlink:href="#f0_d" transform="matrix(12,0,0,12,114.8,401.8)" />
<use xlink:href="#f0_t" transform="matrix(12,0,0,12,121.2,401.8)" />
<use xlink:href="#f0_f" transform="matrix(12,0,0,12,137,401.8)" />
<use xlink:href="#f0_k" transform="matrix(12,0,0,12,152.3,401.8)" />
<use xlink:href="#f0_8" transform="matrix(12,0,0,12,163.5,401.8)" />
<use xlink:href="#f0_f" transform="matrix(12,0,0,12,169.2,401.8)" />
<use xlink:href="#f0_g" transform="matrix(12,0,0,12,179.8,401.8)" />
<use xlink:href="#f0_1e" transform="matrix(12,0,0,12,188.8,401.8)" />
<use xlink:href="#f0_4" transform="matrix(12,0,0,12,204.3,401.8)" />
<use xlink:href="#f0_l" transform="matrix(12,0,0,12,212.6,401.8)" />
<use xlink:href="#f0_4" transform="matrix(12,0,0,12,222.9,401.8)" />
<use xlink:href="#f0_d" transform="matrix(12,0,0,12,231.1,401.8)" />
<use xlink:href="#f0_9" transform="matrix(12,0,0,12,237.6,401.8)" />
<use xlink:href="#f0_6" transform="matrix(12,0,0,12,247.4,401.8)" />
<use xlink:href="#f0_13" transform="matrix(12,0,0,12,264.7,401.8)" />
<use xlink:href="#f0_12" transform="matrix(12,0,0,12,47.4,452.2)" />
<use xlink:href="#f0_e" transform="matrix(12,0,0,12,58.6,452.2)" />
<use xlink:href="#f0_9" transform="matrix(12,0,0,12,70.2,452.2)" />
<use xlink:href="#f0_b" transform="matrix(12,0,0,12,84.8,452.2)" />
<use xlink:href="#f0_5" transform="matrix(12,0,0,12,96,452.2)" />
<use xlink:href="#f0_4" transform="matrix(12,0,0,12,101.9,452.2)" />
<use xlink:href="#f0_7" transform="matrix(12,0,0,12,110.1,452.2)" />
<use xlink:href="#f0_8" transform="matrix(12,0,0,12,121.4,452.2)" />
<use xlink:href="#f0_i" transform="matrix(12,0,0,12,127,452.2)" />
<use xlink:href="#f0_g" transform="matrix(12,0,0,12,137.4,452.2)" />
<use xlink:href="#f0_9" transform="matrix(12,0,0,12,146.4,452.2)" />
<use xlink:href="#f0_6" transform="matrix(12,0,0,12,156.2,452.2)" />
<use xlink:href="#f0_9" transform="matrix(12,0,0,12,173.5,452.2)" />
<use xlink:href="#f0_a" transform="matrix(12,0,0,12,183.3,452.2)" />
<use xlink:href="#f0_d" transform="matrix(12,0,0,12,195.1,452.2)" />
<use xlink:href="#f0_1s" transform="matrix(12,0,0,12,206.3,452.2)" />
<use xlink:href="#f1_3" transform="matrix(12,0,0,12,212.6,452.2)" />
<use xlink:href="#f0_16" transform="matrix(12,0,0,12,222.7,452.2)" />
<use xlink:href="#f0_7" transform="matrix(12,0,0,12,233.7,452.2)" />
<use xlink:href="#f0_u" transform="matrix(12,0,0,12,245,452.2)" />
<use xlink:href="#f0_f" transform="matrix(12,0,0,12,253.6,452.2)" />
<use xlink:href="#f0_b" transform="matrix(12,0,0,12,264.2,452.2)" />
<use xlink:href="#f0_c" transform="matrix(12,0,0,12,275.4,452.2)" />
<use xlink:href="#f0_g" transform="matrix(12,0,0,12,287,452.2)" />
<use xlink:href="#f0_9" transform="matrix(12,0,0,12,296.1,452.2)" />
<use xlink:href="#f0_b" transform="matrix(12,0,0,12,305.9,452.2)" />
<use xlink:href="#f0_5" transform="matrix(12,0,0,12,321.9,452.2)" />
<use xlink:href="#f0_a" transform="matrix(12,0,0,12,327.7,452.2)" />
<use xlink:href="#f0_d" transform="matrix(12,0,0,12,344.3,452.2)" />
<use xlink:href="#f0_e" transform="matrix(12,0,0,12,350.7,452.2)" />
<use xlink:href="#f0_5" transform="matrix(12,0,0,12,362.3,452.2)" />
<use xlink:href="#f0_4" transform="matrix(12,0,0,12,368.2,452.2)" />
<use xlink:href="#f0_g" transform="matrix(12,0,0,12,381.2,452.2)" />
<use xlink:href="#f0_i" transform="matrix(12,0,0,12,390.2,452.2)" />
<use xlink:href="#f0_4" transform="matrix(12,0,0,12,400.5,452.2)" />
<use xlink:href="#f0_9" transform="matrix(12,0,0,12,408.8,452.2)" />
<use xlink:href="#f0_5" transform="matrix(12,0,0,12,423.4,452.2)" />
<use xlink:href="#f0_4" transform="matrix(12,0,0,12,429.2,452.2)" />
<use xlink:href="#f0_13" transform="matrix(12,0,0,12,437.5,452.2)" />
</g>
</g>
<image preserveAspectRatio="none" x="47" y="480" width="61" height="64" xlink:href="img/2.png" />
<g clip-path="url(#c0_321)">
<g fill="#000000" >
<use xlink:href="#f0_1a" transform="matrix(12,0,0,12,47.4,598.9)" />
<use xlink:href="#f0_9" transform="matrix(12,0,0,12,61.3,598.9)" />
<use xlink:href="#f0_d" transform="matrix(12,0,0,12,71.2,598.9)" />
<use xlink:href="#f0_j" transform="matrix(12,0,0,12,82.4,598.9)" />
<use xlink:href="#f0_f" transform="matrix(12,0,0,12,89.1,598.9)" />
<use xlink:href="#f0_u" transform="matrix(12,0,0,12,99.7,598.9)" />
<use xlink:href="#f0_g" transform="matrix(12,0,0,12,108.3,598.9)" />
<use xlink:href="#f0_9" transform="matrix(12,0,0,12,117.3,598.9)" />
<use xlink:href="#f0_r" transform="matrix(12,0,0,12,127.1,598.9)" />
<use xlink:href="#f1_b" transform="matrix(12,0,0,12,136.5,598.9)" />
<use xlink:href="#f0_w" transform="matrix(12,0,0,12,152,598.9)" />
<use xlink:href="#f0_1y" transform="matrix(12,0,0,12,167,598.9)" />
<use xlink:href="#f0_17" transform="matrix(12,0,0,12,177.3,598.9)" />
<use xlink:href="#f1_9" transform="matrix(12,0,0,12,192.3,598.9)" />
<use xlink:href="#f1_3" transform="matrix(12,0,0,12,202.7,598.9)" />
</g>
</g>
<image preserveAspectRatio="none" x="217" y="562" width="53" height="64" xlink:href="img/3.png" />
<image preserveAspectRatio="none" x="47" y="645" width="81" height="64" xlink:href="img/4.png" />
<g clip-path="url(#c0_321)">
<g fill="#000000" >
<use xlink:href="#f2_1d" transform="matrix(12,0,0,12,47.4,750.1)" />
<use xlink:href="#f2_18" transform="matrix(12,0,0,12,54.7,750.1)" />
<use xlink:href="#f2_1e" transform="matrix(12,0,0,12,66.6,750.1)" />
<use xlink:href="#f0_1b" transform="matrix(12,0,0,12,78.7,750.1)" />
<use xlink:href="#f0_f" transform="matrix(12,0,0,12,89.5,750.1)" />
<use xlink:href="#f0_u" transform="matrix(12,0,0,12,100,750.1)" />
<use xlink:href="#f0_d" transform="matrix(12,0,0,12,113.4,750.1)" />
<use xlink:href="#f0_e" transform="matrix(12,0,0,12,119.9,750.1)" />
<use xlink:href="#f0_9" transform="matrix(12,0,0,12,131.5,750.1)" />
<use xlink:href="#f0_f" transform="matrix(12,0,0,12,146,750.1)" />
<use xlink:href="#f0_a" transform="matrix(12,0,0,12,156.6,750.1)" />
<use xlink:href="#f0_9" transform="matrix(12,0,0,12,168.4,750.1)" />
<use xlink:href="#f0_k" transform="matrix(12,0,0,12,183,750.1)" />
<use xlink:href="#f0_8" transform="matrix(12,0,0,12,194.2,750.1)" />
<use xlink:href="#f0_f" transform="matrix(12,0,0,12,199.9,750.1)" />
<use xlink:href="#f0_g" transform="matrix(12,0,0,12,210.5,750.1)" />
<use xlink:href="#f0_1e" transform="matrix(12,0,0,12,219.5,750.1)" />
<use xlink:href="#f0_4" transform="matrix(12,0,0,12,235,750.1)" />
<use xlink:href="#f0_l" transform="matrix(12,0,0,12,243.3,750.1)" />
<use xlink:href="#f0_4" transform="matrix(12,0,0,12,253.6,750.1)" />
<use xlink:href="#f0_d" transform="matrix(12,0,0,12,261.8,750.1)" />
<use xlink:href="#f0_9" transform="matrix(12,0,0,12,268.3,750.1)" />
<use xlink:href="#f0_6" transform="matrix(12,0,0,12,278.1,750.1)" />
<use xlink:href="#f0_13" transform="matrix(12,0,0,12,295.4,750.1)" />
<use xlink:href="#f0_1b" transform="matrix(12,0,0,12,47.4,800.6)" />
<use xlink:href="#f0_f" transform="matrix(12,0,0,12,58.2,800.6)" />
<use xlink:href="#f0_u" transform="matrix(12,0,0,12,68.8,800.6)" />
<use xlink:href="#f0_6" transform="matrix(12,0,0,12,82.1,800.6)" />
<use xlink:href="#f0_i" transform="matrix(12,0,0,12,99.4,800.6)" />
<use xlink:href="#f0_4" transform="matrix(12,0,0,12,109.7,800.6)" />
<use xlink:href="#f0_4" transform="matrix(12,0,0,12,118,800.6)" />
<use xlink:href="#f0_1s" transform="matrix(12,0,0,12,131,800.6)" />
<use xlink:href="#f1_a" transform="matrix(12,0,0,12,137.3,800.6)" />
<use xlink:href="#f0_16" transform="matrix(12,0,0,12,153.8,800.6)" />
<use xlink:href="#f0_f" transform="matrix(12,0,0,12,164.8,800.6)" />
<use xlink:href="#f0_j" transform="matrix(12,0,0,12,175.4,800.6)" />
<use xlink:href="#f0_d" transform="matrix(12,0,0,12,186.9,800.6)" />
<use xlink:href="#f0_e" transform="matrix(12,0,0,12,193.4,800.6)" />
<use xlink:href="#f0_9" transform="matrix(12,0,0,12,205,800.6)" />
<use xlink:href="#f0_k" transform="matrix(12,0,0,12,219.5,800.6)" />
<use xlink:href="#f0_8" transform="matrix(12,0,0,12,230.8,800.6)" />
<use xlink:href="#f0_f" transform="matrix(12,0,0,12,236.5,800.6)" />
<use xlink:href="#f0_g" transform="matrix(12,0,0,12,247,800.6)" />
<use xlink:href="#f0_1e" transform="matrix(12,0,0,12,256.1,800.6)" />
<use xlink:href="#f0_r" transform="matrix(12,0,0,12,266.8,800.6)" />
<use xlink:href="#f0_j" transform="matrix(12,0,0,12,276.1,800.6)" />
<use xlink:href="#f0_f" transform="matrix(12,0,0,12,282.9,800.6)" />
<use xlink:href="#f0_u" transform="matrix(12,0,0,12,293.5,800.6)" />
<use xlink:href="#f0_g" transform="matrix(12,0,0,12,302.1,800.6)" />
<use xlink:href="#f0_9" transform="matrix(12,0,0,12,311.1,800.6)" />
<use xlink:href="#f0_5" transform="matrix(12,0,0,12,325.7,800.6)" />
<use xlink:href="#f0_4" transform="matrix(12,0,0,12,331.5,800.6)" />
<use xlink:href="#f0_t" transform="matrix(12,0,0,12,344.5,800.6)" />
<use xlink:href="#f0_u" transform="matrix(12,0,0,12,360.3,800.6)" />
<use xlink:href="#f0_5" transform="matrix(12,0,0,12,368.9,800.6)" />
<use xlink:href="#f0_d" transform="matrix(12,0,0,12,374.8,800.6)" />
<use xlink:href="#f0_d" transform="matrix(12,0,0,12,381.2,800.6)" />
<use xlink:href="#f0_9" transform="matrix(12,0,0,12,387.7,800.6)" />
<use xlink:href="#f0_a" transform="matrix(12,0,0,12,397.5,800.6)" />
<use xlink:href="#f0_i" transform="matrix(12,0,0,12,414,800.6)" />
<use xlink:href="#f0_4" transform="matrix(12,0,0,12,424.3,800.6)" />
<use xlink:href="#f0_13" transform="matrix(12,0,0,12,432.6,800.6)" />
</g>
</g>
<image preserveAspectRatio="none" x="47" y="828" width="168" height="67" xlink:href="img/5.png" />
<g clip-path="url(#c0_321)">
<g fill="#000000" >
<use xlink:href="#f0_1v" transform="matrix(12,0,0,12,47.4,936.5)" />
<use xlink:href="#f0_e" transform="matrix(12,0,0,12,66.6,936.5)" />
<use xlink:href="#f0_9" transform="matrix(12,0,0,12,78.2,936.5)" />
<use xlink:href="#f0_u" transform="matrix(12,0,0,12,88,936.5)" />
<use xlink:href="#f0_9" transform="matrix(12,0,0,12,96.6,936.5)" />
<use xlink:href="#f0_r" transform="matrix(12,0,0,12,106.4,936.5)" />
<use xlink:href="#f1_3" transform="matrix(12,0,0,12,115.8,936.5)" />
<use xlink:href="#f0_5" transform="matrix(12,0,0,12,130.5,936.5)" />
<use xlink:href="#f0_4" transform="matrix(12,0,0,12,136.4,936.5)" />
<use xlink:href="#f0_d" transform="matrix(12,0,0,12,149.4,936.5)" />
<use xlink:href="#f0_e" transform="matrix(12,0,0,12,155.8,936.5)" />
<use xlink:href="#f0_9" transform="matrix(12,0,0,12,167.4,936.5)" />
<use xlink:href="#f0_b" transform="matrix(12,0,0,12,182,936.5)" />
<use xlink:href="#f0_5" transform="matrix(12,0,0,12,193.2,936.5)" />
<use xlink:href="#f0_4" transform="matrix(12,0,0,12,199.1,936.5)" />
<use xlink:href="#f0_7" transform="matrix(12,0,0,12,207.3,936.5)" />
<use xlink:href="#f0_8" transform="matrix(12,0,0,12,218.6,936.5)" />
<use xlink:href="#f0_i" transform="matrix(12,0,0,12,224.3,936.5)" />
<use xlink:href="#f0_g" transform="matrix(12,0,0,12,234.6,936.5)" />
<use xlink:href="#f0_9" transform="matrix(12,0,0,12,243.6,936.5)" />
<use xlink:href="#f0_6" transform="matrix(12,0,0,12,253.4,936.5)" />
<use xlink:href="#f0_9" transform="matrix(12,0,0,12,270.7,936.5)" />
<use xlink:href="#f0_a" transform="matrix(12,0,0,12,280.5,936.5)" />
<use xlink:href="#f0_d" transform="matrix(12,0,0,12,292.4,936.5)" />
<use xlink:href="#f0_f" transform="matrix(12,0,0,12,303.6,936.5)" />
<use xlink:href="#f0_j" transform="matrix(12,0,0,12,314.1,936.5)" />
<use xlink:href="#f0_d" transform="matrix(12,0,0,12,325.6,936.5)" />
<use xlink:href="#f0_e" transform="matrix(12,0,0,12,332.1,936.5)" />
<use xlink:href="#f0_9" transform="matrix(12,0,0,12,343.7,936.5)" />
<use xlink:href="#f0_k" transform="matrix(12,0,0,12,358.3,936.5)" />
<use xlink:href="#f0_8" transform="matrix(12,0,0,12,369.5,936.5)" />
<use xlink:href="#f0_f" transform="matrix(12,0,0,12,375.2,936.5)" />
<use xlink:href="#f0_g" transform="matrix(12,0,0,12,385.8,936.5)" />
<use xlink:href="#f0_1e" transform="matrix(12,0,0,12,394.8,936.5)" />
<use xlink:href="#f0_5" transform="matrix(12,0,0,12,410.3,936.5)" />
<use xlink:href="#f0_a" transform="matrix(12,0,0,12,416.1,936.5)" />
<use xlink:href="#f0_d" transform="matrix(12,0,0,12,432.7,936.5)" />
<use xlink:href="#f0_5" transform="matrix(12,0,0,12,439.1,936.5)" />
<use xlink:href="#f0_6" transform="matrix(12,0,0,12,445,936.5)" />
<use xlink:href="#f0_9" transform="matrix(12,0,0,12,462.3,936.5)" />
<use xlink:href="#f1_2" transform="matrix(12,0,0,12,476.8,936.5)" />
</g>
</g>
<image preserveAspectRatio="none" x="47" y="964" width="150" height="67" xlink:href="img/6.png" />
<g clip-path="url(#c0_321)">
<g fill="#000000" >
<use xlink:href="#f0_1d" transform="matrix(12,0,0,12,47.4,1072.5)" />
<use xlink:href="#f0_d" transform="matrix(12,0,0,12,54.1,1072.5)" />
<use xlink:href="#f0_5" transform="matrix(12,0,0,12,65.3,1072.5)" />
<use xlink:href="#f0_4" transform="matrix(12,0,0,12,71.1,1072.5)" />
<use xlink:href="#f0_a" transform="matrix(12,0,0,12,84.1,1072.5)" />
<use xlink:href="#f0_9" transform="matrix(12,0,0,12,96,1072.5)" />
<use xlink:href="#f0_m" transform="matrix(12,0,0,12,105.8,1072.5)" />
<use xlink:href="#f0_i" transform="matrix(12,0,0,12,115.6,1072.5)" />
<use xlink:href="#f0_d" transform="matrix(12,0,0,12,125.9,1072.5)" />
<use xlink:href="#f0_5" transform="matrix(12,0,0,12,132.4,1072.5)" />
<use xlink:href="#f0_s" transform="matrix(12,0,0,12,138.2,1072.5)" />
<use xlink:href="#f0_9" transform="matrix(12,0,0,12,148.8,1072.5)" />
<use xlink:href="#f0_k" transform="matrix(12,0,0,12,163.4,1072.5)" />
<use xlink:href="#f0_9" transform="matrix(12,0,0,12,174.6,1072.5)" />
<use xlink:href="#f0_g" transform="matrix(12,0,0,12,184.5,1072.5)" />
<use xlink:href="#f0_i" transform="matrix(12,0,0,12,193.5,1072.5)" />
<use xlink:href="#f0_c" transform="matrix(12,0,0,12,203.8,1072.5)" />
<use xlink:href="#f0_4" transform="matrix(12,0,0,12,215.4,1072.5)" />
<use xlink:href="#f0_9" transform="matrix(12,0,0,12,223.7,1072.5)" />
<use xlink:href="#f0_d" transform="matrix(12,0,0,12,238.2,1072.5)" />
<use xlink:href="#f0_e" transform="matrix(12,0,0,12,244.7,1072.5)" />
<use xlink:href="#f0_9" transform="matrix(12,0,0,12,256.3,1072.5)" />
<use xlink:href="#f0_b" transform="matrix(12,0,0,12,270.9,1072.5)" />
<use xlink:href="#f0_5" transform="matrix(12,0,0,12,282.1,1072.5)" />
<use xlink:href="#f0_u" transform="matrix(12,0,0,12,288,1072.5)" />
<use xlink:href="#f0_9" transform="matrix(12,0,0,12,296.6,1072.5)" />
<use xlink:href="#f0_g" transform="matrix(12,0,0,12,306.4,1072.5)" />
<use xlink:href="#f0_d" transform="matrix(12,0,0,12,315.4,1072.5)" />
<use xlink:href="#f0_5" transform="matrix(12,0,0,12,321.9,1072.5)" />
<use xlink:href="#f0_f" transform="matrix(12,0,0,12,327.7,1072.5)" />
<use xlink:href="#f0_a" transform="matrix(12,0,0,12,338.3,1072.5)" />
<use xlink:href="#f0_f" transform="matrix(12,0,0,12,354.9,1072.5)" />
<use xlink:href="#f0_j" transform="matrix(12,0,0,12,365.4,1072.5)" />
<use xlink:href="#f0_9" transform="matrix(12,0,0,12,376.9,1072.5)" />
<use xlink:href="#f0_8" transform="matrix(12,0,0,12,386.7,1072.5)" />
<use xlink:href="#f0_i" transform="matrix(12,0,0,12,392.4,1072.5)" />
<use xlink:href="#f0_4" transform="matrix(12,0,0,12,402.7,1072.5)" />
<use xlink:href="#f0_d" transform="matrix(12,0,0,12,411,1072.5)" />
<use xlink:href="#f0_5" transform="matrix(12,0,0,12,417.4,1072.5)" />
<use xlink:href="#f0_g" transform="matrix(12,0,0,12,423.3,1072.5)" />
<use xlink:href="#f0_j" transform="matrix(12,0,0,12,437.1,1072.5)" />
<use xlink:href="#f0_f" transform="matrix(12,0,0,12,443.8,1072.5)" />
<use xlink:href="#f0_u" transform="matrix(12,0,0,12,454.4,1072.5)" />
<use xlink:href="#f0_g" transform="matrix(12,0,0,12,463,1072.5)" />
<use xlink:href="#f0_9" transform="matrix(12,0,0,12,472,1072.5)" />
<use xlink:href="#f0_5" transform="matrix(12,0,0,12,486.6,1072.5)" />
<use xlink:href="#f0_4" transform="matrix(12,0,0,12,492.4,1072.5)" />
<use xlink:href="#f0_f" transform="matrix(12,0,0,12,505.5,1072.5)" />
<use xlink:href="#f0_7" transform="matrix(12,0,0,12,516,1072.5)" />
<use xlink:href="#f0_7" transform="matrix(12,0,0,12,527.3,1072.5)" />
<use xlink:href="#f0_f" transform="matrix(12,0,0,12,538.5,1072.5)" />
<use xlink:href="#f0_4" transform="matrix(12,0,0,12,549.1,1072.5)" />
<use xlink:href="#f0_5" transform="matrix(12,0,0,12,557.4,1072.5)" />
<use xlink:href="#f0_d" transform="matrix(12,0,0,12,563.2,1072.5)" />
<use xlink:href="#f0_9" transform="matrix(12,0,0,12,569.6,1072.5)" />
<use xlink:href="#f0_d" transform="matrix(12,0,0,12,584.2,1072.5)" />
<use xlink:href="#f0_f" transform="matrix(12,0,0,12,590.7,1072.5)" />
<use xlink:href="#f0_d" transform="matrix(12,0,0,12,606,1072.5)" />
<use xlink:href="#f0_e" transform="matrix(12,0,0,12,612.4,1072.5)" />
<use xlink:href="#f0_9" transform="matrix(12,0,0,12,624,1072.5)" />
<use xlink:href="#f0_b" transform="matrix(12,0,0,12,638.6,1072.5)" />
<use xlink:href="#f0_5" transform="matrix(12,0,0,12,649.9,1072.5)" />
<use xlink:href="#f0_u" transform="matrix(12,0,0,12,655.7,1072.5)" />
<use xlink:href="#f0_9" transform="matrix(12,0,0,12,664.3,1072.5)" />
<use xlink:href="#f0_g" transform="matrix(12,0,0,12,674.1,1072.5)" />
<use xlink:href="#f0_d" transform="matrix(12,0,0,12,683.2,1072.5)" />
<use xlink:href="#f0_5" transform="matrix(12,0,0,12,689.6,1072.5)" />
<use xlink:href="#f0_f" transform="matrix(12,0,0,12,695.4,1072.5)" />
<use xlink:href="#f0_a" transform="matrix(12,0,0,12,706,1072.5)" />
<use xlink:href="#f0_f" transform="matrix(12,0,0,12,722.6,1072.5)" />
<use xlink:href="#f0_j" transform="matrix(12,0,0,12,733.2,1072.5)" />
<use xlink:href="#f0_b" transform="matrix(12,0,0,12,47.4,1104.6)" />
<use xlink:href="#f0_5" transform="matrix(12,0,0,12,58.6,1104.6)" />
<use xlink:href="#f0_4" transform="matrix(12,0,0,12,64.5,1104.6)" />
<use xlink:href="#f0_7" transform="matrix(12,0,0,12,72.7,1104.6)" />
<use xlink:href="#f0_8" transform="matrix(12,0,0,12,84,1104.6)" />
<use xlink:href="#f0_i" transform="matrix(12,0,0,12,89.6,1104.6)" />
<use xlink:href="#f0_g" transform="matrix(12,0,0,12,100,1104.6)" />
<use xlink:href="#f0_9" transform="matrix(12,0,0,12,109,1104.6)" />
<use xlink:href="#f0_6" transform="matrix(12,0,0,12,118.8,1104.6)" />
<use xlink:href="#f0_9" transform="matrix(12,0,0,12,136.1,1104.6)" />
<use xlink:href="#f0_a" transform="matrix(12,0,0,12,145.9,1104.6)" />
<use xlink:href="#f0_d" transform="matrix(12,0,0,12,157.7,1104.6)" />
<use xlink:href="#f0_o" transform="matrix(12,0,0,12,164.2,1104.6)" />
</g>
</g>
<g fill="#000000" >
<use xlink:href="#f3_q" transform="matrix(12,0,0,12,835.7,1269.6)" />
<use xlink:href="#f3_k" transform="matrix(12,0,0,12,844.9,1269.6)" />
</g>
<defs>
<path d="M421,0L142,946c0,0,-8,23,-17,39c0,0,-10,16,-22,25c0,0,-13,9,-30,13c0,0,-17,3,-39,3H13v65H434v-65H399c0,0,-46,0,-69,-17c0,0,-23,-18,-23,-56c0,0,0,-12,4,-26c0,0,3,-14,8,-30L460,408c0,0,18,-70,36,-136c0,0,16,-68,30,-122c0,0,11,59,27,130c0,0,14,71,35,144l182,656H880L1071,419c0,0,21,-77,39,-146c0,0,16,-71,27,-123c0,0,11,54,26,116c0,0,13,61,35,135l134,471c0,0,2,9,6,20c0,0,3,11,5,23c0,0,2,10,4,20c0,0,1,10,2,17c0,0,0,39,-25,57c0,0,-26,17,-76,17h-35v65h373v-65h-29c0,0,-23,0,-39,-4c0,0,-17,-5,-31,-17c0,0,-13,-13,-24,-36c0,0,-11,-24,-23,-61L1182,0H1045L796,856L562,0Z" 
id="f0_1v"
transform="scale(0.001,-0.001)" />

<path d="M28,0V64H40c0,0,25,0,49,4c0,0,22,3,39,16c0,0,17,11,27,32c0,0,10,21,10,58V993c0,0,0,33,-10,54c0,0,-11,21,-27,32c0,0,-18,11,-40,15c0,0,-24,3,-48,3H28v64H308V825c0,0,0,-22,0,-43c0,0,-1,-24,-4,-43c0,0,0,-23,0,-44h6c0,0,68,139,225,139c0,0,65,-1,115,-17c0,0,50,-18,85,-54c0,0,34,-37,52,-93c0,0,18,-58,18,-135V174c0,0,0,-37,9,-58c0,0,9,-21,24,-32c0,0,16,-13,38,-16c0,0,21,-4,47,-4h4V0H662V527c0,0,0,50,-9,89c0,0,-10,39,-29,66c0,0,-20,26,-52,41c0,0,-33,13,-78,13c0,0,-49,0,-82,-17c0,0,-35,-18,-58,-50c0,0,-24,-33,-34,-78c0,0,-11,-46,-11,-102V166c0,0,0,-33,10,-53c0,0,10,-22,27,-32c0,0,17,-10,40,-13c0,0,22,-4,48,-4h5V0Z" 
id="f0_e"
transform="scale(0.001,-0.001)" />

<path d="M586,481c0,0,0,60,-9,111c0,0,-9,50,-29,85c0,0,-19,36,-51,56c0,0,-33,18,-79,19c0,0,-87,-1,-133,-69c0,0,-46,-69,-46,-202ZM439,-14c0,0,-83,0,-149,27c0,0,-66,28,-112,82c0,0,-46,53,-69,132c0,0,-25,77,-25,177c0,0,0,213,88,322c0,0,88,108,251,108c0,0,73,0,133,-23c0,0,58,-24,100,-69c0,0,41,-46,63,-114c0,0,21,-69,22,-159V399H233c0,0,0,-84,15,-143c0,0,15,-61,44,-99c0,0,28,-40,71,-57c0,0,40,-19,93,-19c1,0,2,0,4,0c0,0,38,0,73,9c0,0,33,9,62,24c0,0,26,14,48,34c0,0,21,18,35,40c0,0,10,-4,20,-19c0,0,9,-15,9,-33c0,0,0,-24,-16,-49c0,0,-17,-27,-50,-50C641,37,607,14,557,0c0,0,-50,-14,-118,-14Z" 
id="f0_9"
transform="scale(0.001,-0.001)" />

<path d="M43,0V64H55c0,0,26,0,49,4c0,0,23,3,40,16c0,0,16,11,27,32c0,0,10,21,10,58V650c0,0,0,33,-10,55c0,0,-11,20,-28,31c0,0,-17,11,-39,15c0,0,-24,3,-49,4H51v64H298L318,695h7c0,0,23,42,51,70c0,0,25,27,56,43c0,0,29,14,63,21c0,0,32,5,69,5c0,0,60,-1,108,-17c0,0,47,-18,81,-54c0,0,32,-37,50,-93c0,0,17,-58,18,-135V174c0,0,0,-37,9,-58c0,0,7,-21,23,-32c0,0,16,-13,38,-16c0,0,21,-4,47,-4h5V0H677V527c0,0,0,50,-9,89c0,0,-10,39,-29,66c0,0,-20,26,-52,41c0,0,-33,13,-78,13c0,0,-53,0,-88,-20c0,0,-36,-20,-57,-54c0,0,-22,-35,-31,-79c0,0,-10,-45,-9,-94V166c0,0,0,-33,10,-53c0,0,10,-22,27,-32c0,0,16,-10,40,-13c0,0,22,-4,48,-4h5V0Z" 
id="f0_a"
transform="scale(0.001,-0.001)" />

<path d="M348,79c0,0,46,0,85,15c0,0,36,14,64,42c0,0,25,27,40,66c0,0,14,39,14,87V412H454c0,0,-65,0,-109,-14c0,0,-44,-13,-70,-36c0,0,-27,-25,-39,-59c0,0,-12,-35,-11,-80c0,0,0,-73,30,-108c0,0,29,-36,93,-36ZM313,-14c0,0,-50,0,-94,14c0,0,-44,14,-75,45c0,0,-33,30,-50,77c0,0,-18,47,-18,109c0,0,0,123,87,182c0,0,85,59,261,60H551v93c0,0,0,42,-4,78c0,0,-5,34,-20,60c0,0,-15,26,-42,40c0,0,-28,14,-75,14c0,0,-44,0,-71,-12c0,0,-29,-13,-43,-35c0,0,-16,-23,-21,-53c0,0,-6,-31,-5,-66c0,0,-64,0,-96,21c0,0,-34,21,-34,75c0,0,0,39,22,67c0,0,21,28,60,45c0,0,36,17,87,26c0,0,49,7,107,8c0,0,69,0,122,-13c0,0,52,-15,87,-46c0,0,34,-31,53,-81c0,0,17,-52,17,-124V174c0,0,0,-33,5,-53c0,0,6,-22,17,-34c0,0,10,-12,30,-18c0,0,15,-5,38,-5c2,0,3,0,5,0h4V0H588L564,131H551c0,0,-24,-33,-46,-59c0,0,-22,-27,-49,-46C456,26,429,6,395,-3c0,0,-35,-11,-82,-11Z" 
id="f0_i"
transform="scale(0.001,-0.001)" />

<path d="M41,0V64H61c0,0,26,0,49,4c0,0,23,3,40,16c0,0,16,11,27,32c0,0,9,21,9,58V747H47v72H186v76c0,0,0,68,19,121c0,0,19,52,54,88c0,0,34,35,85,55c0,0,50,17,113,17c0,0,58,0,100,-7c0,0,41,-8,67,-22c0,0,24,-15,35,-34c0,0,12,-20,12,-43c0,0,0,-22,-9,-37c0,0,-11,-17,-26,-27c0,0,-18,-11,-40,-16c0,0,-24,-6,-51,-6c0,0,0,23,-4,45c0,0,-6,21,-17,39c0,0,-12,17,-31,28c0,0,-19,10,-48,10c0,0,-34,0,-55,-12c0,0,-22,-13,-36,-38c0,0,-13,-26,-18,-62c0,0,-6,-37,-6,-85V819H545V747H330V174c0,0,0,-37,10,-58c0,0,10,-21,27,-32c0,0,16,-13,40,-16c0,0,22,-4,48,-4h58V0Z" 
id="f0_j"
transform="scale(0.001,-0.001)" />

<path d="M442,64c0,0,56,0,97,23c0,0,38,22,64,66c0,0,24,43,36,108c0,0,9,65,10,150c0,0,0,85,-11,149c0,0,-11,64,-36,108c0,0,-25,42,-64,64c0,0,-41,21,-98,21c0,0,-58,0,-97,-21c0,0,-39,-22,-64,-64c0,0,-25,-44,-36,-108c0,0,-11,-64,-11,-149c0,0,0,-85,11,-150c0,0,11,-65,37,-108c0,0,24,-44,65,-66c0,0,38,-23,97,-23Zm-3,-78c0,0,-83,0,-149,25c0,0,-66,26,-111,79c0,0,-47,52,-70,134c0,0,-25,79,-25,187c0,0,0,213,91,319c0,0,90,103,268,104c0,0,82,0,149,-25c0,0,65,-26,111,-79c0,0,46,-53,71,-132c0,0,23,-80,23,-187c0,0,0,-216,-91,-321C706,90,614,-14,439,-14Z" 
id="f0_f"
transform="scale(0.001,-0.001)" />

<path d="M51,0V64h4c0,0,26,0,49,4c0,0,23,3,40,16c0,0,16,11,27,32c0,0,10,21,10,58V650c0,0,0,33,-10,55c0,0,-11,20,-28,31c0,0,-17,11,-39,15c0,0,-24,3,-49,4H51v64H286L315,668h7c0,0,14,34,31,65c0,0,15,29,39,53c0,0,22,22,56,35c0,0,33,12,84,13c0,0,83,0,124,-29c0,0,41,-30,41,-82c0,0,0,-24,-8,-44c0,0,-9,-20,-25,-34c0,0,-17,-15,-44,-23c0,0,-27,-8,-66,-8c0,0,0,63,-18,92c0,0,-18,27,-62,27c0,0,-29,0,-51,-15c0,0,-22,-18,-39,-43c0,0,-17,-27,-28,-61c0,0,-13,-35,-19,-70c0,0,-8,-37,-10,-73c0,0,-4,-35,-3,-64V166c0,0,0,-33,10,-53c0,0,10,-22,27,-32c0,0,16,-10,40,-13c0,0,22,-4,48,-4h43V0Z" 
id="f0_u"
transform="scale(0.001,-0.001)" />

<path d="M433,-14c0,0,-77,0,-141,23c0,0,-64,23,-110,74c0,0,-46,50,-72,130c0,0,-26,79,-26,192c0,0,0,122,26,205c0,0,26,82,72,132c0,0,46,49,108,71c0,0,61,21,134,21c0,0,47,0,96,-9c0,0,47,-10,85,-29c0,0,38,-19,62,-49c0,0,23,-30,24,-69c0,0,0,-54,-35,-74c0,0,-35,-22,-102,-22c0,0,0,35,-6,68c0,0,-6,32,-20,56c0,0,-15,24,-39,38c0,0,-26,14,-65,14c0,0,-44,0,-79,-16c0,0,-35,-18,-61,-57c0,0,-26,-40,-39,-108c0,0,-13,-69,-13,-170c0,0,-1,-164,54,-243c0,0,54,-80,177,-80h1c6,0,72,1,123,30c0,0,52,30,79,77c0,0,11,-10,19,-24c0,0,7,-15,7,-36c0,0,0,-27,-16,-52c0,0,-17,-26,-49,-47C627,32,594,10,546,0c0,0,-48,-14,-113,-14Z" 
id="f0_g"
transform="scale(0.001,-0.001)" />

<path d="M-31,0l12,64H0c0,0,72,0,103,25c0,0,31,24,45,77L309,923c0,0,5,27,6,42c0,0,0,61,-111,61H185l13,65H968L920,824H840l3,26c0,0,1,15,2,27c0,0,3,25,3,35c0,0,0,102,-115,103H483L388,573H756L741,498H373L304,174c0,0,-6,-25,-5,-38c0,0,-1,-72,106,-72h50L443,0Z" 
id="f1_b"
transform="scale(0.001,-0.001)" />

<path d="M46,-234v64c0,0,74,23,110,58c0,0,34,35,35,79c0,0,-1,15,-8,26c0,0,-9,8,-21,17c0,0,-13,6,-27,15c0,0,-15,7,-27,18c0,0,-13,9,-21,26c0,0,-8,14,-8,38c0,0,0,43,29,67c0,0,28,23,71,23c0,0,23,-1,45,-8c0,0,20,-9,37,-26c0,0,16,-17,26,-41c0,0,9,-27,9,-58c0,0,0,-48,-13,-93c0,0,-14,-46,-44,-84c0,0,-30,-40,-77,-70c0,0,-49,-31,-116,-51Z" 
id="f0_r"
transform="scale(0.001,-0.001)" />

<path d="M35,0V64H55c0,0,25,0,49,4c0,0,22,3,39,13c0,0,17,10,28,32c0,0,10,20,10,53V650c0,0,0,33,-10,55c0,0,-11,20,-28,31c0,0,-17,11,-39,15c0,0,-24,3,-49,4H51v64H324V174c0,0,0,-37,10,-58c0,0,10,-21,27,-32c0,0,16,-13,40,-16c0,0,22,-4,48,-4h20V0ZM249,972c-1,0,-2,0,-3,0c0,0,-1,0,-2,0c-5,0,-20,0,-32,5c0,0,-16,5,-28,16c0,0,-12,11,-18,29c0,0,-7,18,-7,45c0,0,0,27,7,45c0,0,6,17,18,29c0,0,12,11,28,15c0,0,15,5,34,5c0,0,18,0,34,-5c0,0,15,-4,27,-15c0,0,11,-12,19,-29c0,0,7,-18,7,-45c0,0,0,-27,-7,-45c0,0,-8,-18,-19,-29c0,0,-12,-11,-27,-16c0,0,-14,-5,-31,-5Z" 
id="f0_5"
transform="scale(0.001,-0.001)" />

<path d="M321,-14c0,0,-58,0,-104,11c0,0,-48,7,-80,29c0,0,-33,20,-50,51c0,0,-18,30,-18,70c0,0,0,30,10,51c0,0,10,20,25,33c0,0,14,11,31,17c0,0,16,4,30,4c0,0,0,-41,8,-75c0,0,8,-36,28,-61c0,0,18,-28,51,-42c0,0,31,-16,78,-16c0,0,41,0,72,11c0,0,31,9,53,28c0,0,21,18,32,44c0,0,11,25,11,56c0,0,0,28,-8,49c0,0,-9,20,-30,38c0,0,-21,17,-58,37c0,0,-37,18,-92,42c0,0,-59,26,-102,51c0,0,-45,23,-72,52c0,0,-29,28,-43,65c0,0,-15,35,-14,86c0,0,-1,52,21,92c0,0,20,40,58,68c0,0,38,26,91,41c0,0,52,15,118,15c0,0,54,0,96,-12c0,0,41,-11,70,-30c0,0,28,-19,43,-44c0,0,14,-27,14,-55c0,0,-1,-42,-28,-66c0,0,-29,-25,-80,-25c-1,0,-2,0,-2,0c0,0,0,76,-32,119c0,0,-32,42,-100,42c0,0,-39,0,-66,-9c0,0,-28,-9,-45,-25c0,0,-18,-17,-26,-39c0,0,-8,-22,-8,-49c0,0,0,-29,10,-50c0,0,10,-22,34,-39c0,0,22,-18,59,-35c0,0,36,-17,86,-38c0,0,60,-26,104,-50c0,0,43,-24,72,-54c0,0,27,-29,41,-65c0,0,13,-37,13,-84c0,0,-1,-60,-21,-105c0,0,-23,-45,-62,-74C539,46,499,14,445,0c0,0,-56,-14,-124,-14Z" 
id="f0_4"
transform="scale(0.001,-0.001)" />

<path d="M518,83c0,0,50,0,86,21c0,0,35,21,58,63c0,0,23,41,33,104c0,0,10,61,11,142c0,0,-1,80,-11,142c0,0,-10,60,-33,101c0,0,-23,40,-58,60c0,0,-38,20,-88,20c0,0,-60,0,-99,-19c0,0,-41,-20,-64,-61c0,0,-24,-40,-34,-101c0,0,-10,-62,-10,-144c0,0,0,-80,10,-141c0,0,10,-62,35,-103c0,0,23,-42,64,-63c0,0,39,-21,100,-21ZM28,-366v64H40c0,0,25,0,49,4c0,0,22,3,39,16c0,0,17,11,27,33c0,0,10,21,10,58V650c0,0,0,33,-10,55c0,0,-11,20,-27,31c0,0,-18,11,-40,15c0,0,-24,3,-48,4H20v64H287L303,681h6c0,0,16,34,39,63c0,0,21,28,50,49c0,0,27,19,64,31c0,0,36,9,80,10c0,0,75,0,134,-25c0,0,58,-26,98,-76c0,0,38,-53,60,-132c0,0,20,-80,20,-190c0,0,0,-111,-20,-191c0,0,-22,-80,-60,-133c0,0,-40,-53,-98,-77c0,0,-57,-24,-131,-24c-1,0,-2,0,-3,0h-2c-8,0,-46,1,-77,10c0,0,-37,8,-65,26c0,0,-29,18,-50,43c0,0,-23,24,-39,54h-3c0,0,0,-39,0,-73c0,0,0,-15,0,-30c0,0,0,-15,0,-28c0,0,0,-14,0,-24c0,0,0,-11,0,-17V-199c0,0,0,-33,10,-54c0,0,10,-21,28,-31c0,0,17,-11,41,-14c0,0,23,-4,49,-4h5v-64Z" 
id="f0_7"
transform="scale(0.001,-0.001)" />

<path d="M20,0V64H40c0,0,25,0,49,4c0,0,22,3,39,16c0,0,17,11,27,32c0,0,10,21,10,58V993c0,0,0,33,-10,54c0,0,-11,21,-27,32c0,0,-18,11,-40,15c0,0,-24,3,-48,3H20v64H309V174c0,0,-1,-37,10,-58c0,0,9,-21,26,-32c0,0,17,-13,41,-16c0,0,22,-4,48,-4h20V0Z" 
id="f0_8"
transform="scale(0.001,-0.001)" />

<path d="M421,83c0,0,59,0,100,20c0,0,39,19,65,60c0,0,23,39,34,101c0,0,10,61,10,144c0,0,0,79,-10,141c0,0,-11,61,-34,103c0,0,-25,41,-65,63c0,0,-41,21,-101,21c0,0,-51,0,-86,-21c0,0,-36,-23,-58,-64c0,0,-24,-42,-34,-103c0,0,-10,-62,-10,-141c0,0,0,-163,44,-244c0,0,43,-80,145,-80ZM395,-14c-8,0,-78,1,-133,24c0,0,-59,24,-98,77c0,0,-39,52,-60,132c0,0,-20,79,-20,189c0,0,0,110,20,191c0,0,21,80,60,133c0,0,39,51,98,77c0,0,58,25,133,25c0,0,44,0,80,-10c0,0,36,-10,65,-27c0,0,28,-18,51,-43c0,0,21,-24,39,-54h4c0,0,0,36,0,70c0,0,0,27,0,57c0,0,0,27,0,41V993c0,0,-1,33,-10,54c0,0,-11,21,-29,32c0,0,-18,11,-41,15c0,0,-24,3,-49,3H492v64H773V168c0,0,0,-34,10,-54c0,0,10,-21,27,-32c0,0,17,-11,40,-14c0,0,22,-4,48,-4h13V0H652L636,137h-6c0,0,-18,-35,-39,-62c0,0,-23,-29,-51,-48C540,27,512,6,476,-3c0,0,-36,-11,-81,-11Z" 
id="f0_b"
transform="scale(0.001,-0.001)" />

<path d="M367,-14c0,0,-59,0,-100,13c0,0,-42,10,-69,38c0,0,-27,27,-39,73c0,0,-14,45,-14,112V732H29v61c0,0,28,0,61,11c0,0,32,11,58,37c0,0,26,28,43,68c0,0,15,38,28,98h70V819H489V732H289V217c0,0,-1,-78,32,-115c0,0,30,-36,83,-36c0,0,1,0,1,0c0,0,2,0,6,0c9,0,28,0,45,3c0,0,23,3,47,7V9C503,9,492,4,477,0c0,0,-15,-3,-33,-6c0,0,-20,-5,-39,-6c0,0,-20,-2,-38,-2Z" 
id="f0_d"
transform="scale(0.001,-0.001)" />

<path d="M351,-291c2,0,3,0,5,0c0,0,1,0,2,0c12,0,84,1,134,15c0,0,52,13,84,38c0,0,31,23,44,58c0,0,12,34,13,74c0,0,0,35,-10,59c0,0,-11,22,-30,35c0,0,-20,12,-49,17c0,0,-29,5,-67,5H327c0,0,-33,0,-62,-5c0,0,-31,-5,-54,-20c0,0,-24,-17,-38,-44c0,0,-15,-29,-14,-74c0,0,0,-34,9,-63c0,0,9,-29,31,-50c0,0,23,-22,61,-33c0,0,35,-12,91,-12Zm34,658c0,0,1,0,1,0c0,0,37,0,64,11c0,0,24,11,42,35c0,0,15,22,23,59c0,0,7,35,7,86c0,0,0,103,-31,152c0,0,-31,49,-106,49c0,0,-74,0,-105,-50c0,0,-33,-50,-32,-153c0,0,0,-98,32,-143c0,0,32,-46,105,-46ZM353,-366c-8,0,-162,1,-239,59c0,0,-80,59,-79,164c0,0,0,45,16,78c0,0,15,34,42,58c0,0,26,22,61,38c0,0,34,14,72,21c0,0,-16,7,-31,18c0,0,-14,11,-26,27c0,0,-13,16,-20,36c0,0,-8,20,-7,45c0,0,0,45,24,79c0,0,23,32,76,64c0,0,-33,13,-58,37c0,0,-27,23,-44,54c0,0,-18,30,-27,65c0,0,-10,36,-9,74c0,0,0,66,18,119c0,0,18,51,53,89c0,0,36,36,90,56c0,0,53,18,126,19c0,0,28,-1,54,-4c0,0,26,-4,50,-11c0,0,22,-8,41,-16c0,0,18,-9,29,-19c0,0,12,12,27,27c0,0,14,14,33,27c0,0,19,12,41,20c0,0,21,7,47,8c0,0,23,-1,40,-6c0,0,17,-7,28,-17c0,0,11,-11,17,-25c0,0,5,-15,5,-31c0,0,0,-17,-4,-31c0,0,-6,-15,-15,-25c0,0,-10,-12,-25,-17c0,0,-15,-7,-36,-7c0,0,0,9,-2,18c0,0,-3,9,-8,17c0,0,-6,7,-16,13c0,0,-10,4,-25,4c0,0,-19,0,-35,-4c0,0,-16,-5,-31,-14c0,0,26,-33,44,-76c0,0,16,-44,16,-109c0,0,-1,-57,-17,-105c0,0,-17,-48,-51,-82c0,0,-35,-36,-86,-56c0,0,-52,-19,-121,-19H348c0,0,-11,0,-21,1c0,0,-10,1,-15,3c0,0,-15,-9,-29,-17c0,0,-13,-9,-23,-20c0,0,-11,-11,-16,-25c0,0,-6,-15,-6,-32c0,0,-1,-19,7,-29c0,0,7,-12,20,-18c0,0,12,-7,30,-8c0,0,17,-2,38,-2H506c0,0,68,-1,116,-17c0,0,48,-17,78,-47c0,0,30,-32,44,-73c0,0,14,-41,14,-90c0,0,-1,-67,-24,-119c0,0,-25,-53,-75,-89c0,0,-50,-38,-126,-58c0,0,-77,-20,-180,-20Z" 
id="f0_m"
transform="scale(0.001,-0.001)" />

<path d="M7,0V64H22c0,0,26,0,48,5c0,0,20,4,40,15c0,0,18,11,37,31c0,0,19,19,41,47L380,411L188,674c0,0,-34,38,-65,60c0,0,-33,21,-66,21H37v64H424V755h-4c0,0,-27,0,-43,-3c0,0,-17,-5,-27,-10c0,0,-11,-7,-14,-15c0,0,-3,-8,-3,-17c0,0,-1,-16,9,-30c0,0,9,-17,27,-40L469,503l79,114c0,0,17,25,28,49c0,0,10,23,10,44c0,0,0,28,-23,37c0,0,-24,7,-59,8h-4v64H834V755H821c0,0,-23,-1,-41,-4c0,0,-19,-4,-36,-14c0,0,-17,-11,-36,-30c0,0,-19,-20,-42,-50L509,448L733,145c0,0,34,-44,64,-62c0,0,29,-19,57,-19q1,0,2,0h20V0H481V64h8c0,0,91,0,91,51c0,0,0,7,-2,17c0,0,-2,8,-9,20c0,0,-7,11,-18,28c0,0,-11,16,-29,40L420,357L313,208c0,0,-6,-9,-14,-21c0,0,-8,-12,-13,-24c0,0,-7,-14,-10,-26c0,0,-4,-13,-4,-25c0,0,0,-27,22,-37c0,0,21,-11,73,-11h4V0Z" 
id="f0_h"
transform="scale(0.001,-0.001)" />

<path d="M238,-14c0,0,-56,0,-90,39c0,0,-36,41,-36,105c0,0,0,72,33,240L270,956c0,0,10,45,10,69c0,0,0,72,-108,72H154l14,64H457L280,328c0,0,-24,-109,-23,-169c0,0,0,-78,50,-78c0,0,44,0,110,40L445,76c0,0,-107,-90,-207,-90Z" 
id="f1_c"
transform="scale(0.001,-0.001)" />

<path d="M417,-14c0,0,-60,0,-107,16c0,0,-47,17,-79,54c0,0,-33,36,-49,93c0,0,-17,57,-17,135V650c0,0,0,33,-10,55c0,0,-11,20,-27,31c0,0,-18,11,-40,15c0,0,-24,3,-48,4H35v64H309V292c0,0,0,-51,8,-89c0,0,7,-40,26,-66c0,0,18,-27,49,-40c0,0,29,-14,74,-14c1,0,2,0,3,0c0,0,50,0,88,18c0,0,35,18,59,50c0,0,23,32,34,78c0,0,12,46,12,101V645c0,0,0,35,-10,58c0,0,-10,21,-27,33c0,0,-17,11,-39,15c0,0,-24,3,-50,4h-4v64H805V166c0,0,0,-33,10,-53c0,0,10,-22,27,-32c0,0,17,-10,41,-13c0,0,21,-4,47,-4h5V0H692L672,124h-7c0,0,-24,-44,-51,-70c0,0,-28,-28,-60,-42c0,0,-31,-15,-65,-20c0,0,-35,-6,-72,-6Z" 
id="f0_c"
transform="scale(0.001,-0.001)" />

<path d="M222,-9c-1,0,-2,0,-3,0c0,0,-1,0,-3,0c-6,0,-22,0,-35,5c0,0,-18,4,-30,16c0,0,-14,12,-21,32c0,0,-8,20,-8,49c0,0,0,30,8,50c0,0,7,19,21,32c0,0,12,11,30,17c0,0,17,5,38,5c0,0,18,0,37,-5c0,0,16,-6,30,-17c0,0,12,-13,21,-32c0,0,8,-20,8,-50c0,0,0,-29,-8,-49c0,0,-9,-20,-21,-32C286,12,272,0,256,-4c0,0,-17,-5,-34,-5Z" 
id="f0_o"
transform="scale(0.001,-0.001)" />

<path d="M58,0V64H78c0,0,24,0,48,4c0,0,22,3,40,13c0,0,16,10,27,32c0,0,10,20,10,53V923c0,0,0,33,-10,54c0,0,-11,20,-27,32c0,0,-18,11,-40,14c0,0,-24,3,-48,3H58v65H832V824H756l-7,65c0,0,-4,26,-12,49c0,0,-9,23,-25,40c0,0,-17,16,-43,27c0,0,-26,10,-61,10H357V573H726V498H357V174c0,0,0,-37,11,-58c0,0,9,-21,27,-32c0,0,15,-13,39,-16c0,0,23,-4,49,-4h50V0Z" 
id="f0_1b"
transform="scale(0.001,-0.001)" />

<path d="M43,0V64H63c0,0,25,0,47,4c0,0,21,3,38,16c0,0,15,11,24,32c0,0,8,21,9,58V650c0,0,0,33,-9,55c0,0,-9,20,-25,31c0,0,-16,11,-37,15c0,0,-22,3,-47,4H58v64H298L318,695h7c0,0,23,42,49,70c0,0,25,27,54,43c0,0,28,14,61,21c0,0,31,5,67,5c0,0,36,0,71,-7c0,0,33,-9,62,-24c0,0,28,-17,52,-43c0,0,21,-27,36,-65h13c0,0,23,42,50,70c0,0,27,27,57,43c0,0,30,14,64,21c0,0,32,5,68,5c0,0,59,-1,105,-17c0,0,45,-18,78,-54c0,0,32,-37,49,-93c0,0,17,-58,18,-135V174c0,0,0,-37,9,-58c0,0,9,-21,24,-32c0,0,16,-13,37,-16c0,0,21,-4,47,-4h5V0H1135V527c0,0,0,50,-8,89c0,0,-9,39,-27,66c0,0,-21,26,-50,41c0,0,-32,13,-75,13c0,0,-48,0,-80,-18c0,0,-33,-19,-53,-50c0,0,-21,-31,-28,-72c0,0,-9,-42,-9,-87V174c0,0,0,-37,9,-58c0,0,9,-21,24,-32c0,0,16,-13,38,-16c0,0,21,-4,47,-4h4V0H662V527c0,0,-1,50,-9,89c0,0,-8,39,-27,66c0,0,-20,26,-50,41c0,0,-31,13,-75,13c0,0,-50,0,-83,-20c0,0,-35,-20,-55,-54c0,0,-22,-35,-30,-79c0,0,-9,-45,-9,-94V166c0,0,0,-33,10,-53c0,0,10,-22,27,-32c0,0,16,-10,40,-13c0,0,22,-4,48,-4h5V0Z" 
id="f0_6"
transform="scale(0.001,-0.001)" />

<path d="M518,83c0,0,50,0,86,21c0,0,35,21,58,63c0,0,23,41,33,104c0,0,10,61,11,142c0,0,-1,80,-11,142c0,0,-10,60,-33,101c0,0,-23,40,-58,60c0,0,-38,20,-88,20c0,0,-60,0,-99,-19c0,0,-41,-20,-64,-61c0,0,-24,-40,-34,-101c0,0,-10,-62,-10,-144c0,0,0,-80,10,-141c0,0,10,-62,35,-103c0,0,23,-42,64,-63c0,0,39,-21,100,-21Zm27,-97c-1,0,-2,0,-3,0h-2c-8,0,-46,1,-77,10c0,0,-37,8,-65,26c0,0,-29,18,-50,43c0,0,-23,24,-39,54H299L272,0H28V64H40c0,0,25,0,49,4c0,0,22,3,39,16c0,0,17,11,27,32c0,0,10,21,10,58V993c0,0,0,33,-10,54c0,0,-11,21,-27,32c0,0,-18,11,-40,15c0,0,-24,3,-48,3H28v64H306V880c0,0,0,-26,0,-59c0,0,0,-35,0,-66c0,0,0,-36,0,-74h3c0,0,16,34,39,63c0,0,21,28,50,49c0,0,27,19,64,31c0,0,36,9,80,10c0,0,75,0,134,-25c0,0,58,-26,98,-76c0,0,38,-53,60,-132c0,0,20,-80,20,-190c0,0,0,-111,-20,-191c0,0,-22,-80,-60,-133c0,0,-40,-53,-98,-77c0,0,-57,-24,-131,-24Z" 
id="f0_k"
transform="scale(0.001,-0.001)" />

<path d="M315,0L115,674c0,0,-9,23,-19,39c0,0,-10,15,-22,26c0,0,-13,8,-29,12c0,0,-17,3,-39,4H1v64H379V755H359c0,0,-46,0,-69,-13c0,0,-24,-15,-23,-51c0,0,0,-13,5,-31c0,0,3,-18,8,-35L351,369c0,0,8,-29,16,-61c0,0,7,-33,16,-65c0,0,6,-33,12,-61c0,0,6,-29,10,-48h5c0,0,3,19,10,46c0,0,5,24,15,55c0,0,7,29,18,60c0,0,9,30,19,58L631,815h96L880,362c0,0,9,-29,20,-59c0,0,9,-33,18,-63c0,0,9,-31,17,-59c0,0,7,-28,11,-47h4c0,0,7,38,22,94c0,0,14,55,38,129l76,247c0,0,5,18,11,41c0,0,3,21,3,35c0,0,0,38,-24,57c0,0,-26,18,-77,18H988v64h327V755h-19c0,0,-23,0,-39,-5c0,0,-17,-5,-29,-17c0,0,-14,-13,-25,-36c0,0,-11,-24,-22,-61L984,0H862L680,538L652,639L436,0Z" 
id="f0_t"
transform="scale(0.001,-0.001)" />

<path d="M223,-9c-1,0,-2,0,-3,0c0,0,-1,0,-2,0c-6,0,-22,0,-35,5c0,0,-19,4,-31,16c0,0,-13,12,-21,32c0,0,-8,20,-7,49c0,0,-1,30,7,50c0,0,8,19,21,32c0,0,12,11,31,17c0,0,16,5,37,5c0,0,19,0,37,-5c0,0,17,-6,31,-17c0,0,12,-13,21,-32c0,0,7,-20,7,-50c0,0,0,-29,-7,-49c0,0,-9,-20,-21,-32C288,12,274,0,257,-4c0,0,-16,-5,-34,-5Zm0,627c-1,0,-2,0,-3,0c0,0,-1,0,-2,0c-6,0,-22,1,-35,6c0,0,-19,5,-31,18c0,0,-13,11,-21,32c0,0,-8,20,-7,49c0,0,-1,30,7,50c0,0,8,18,21,31c0,0,12,11,31,17c0,0,16,6,37,6c0,0,19,0,37,-6c0,0,17,-6,31,-17c0,0,12,-13,21,-31c0,0,7,-20,7,-50c0,0,0,-29,-7,-49c0,0,-9,-21,-21,-32c0,0,-14,-13,-31,-18c0,0,-16,-6,-34,-6Z" 
id="f0_13"
transform="scale(0.001,-0.001)" />

<path d="M99,350v90H755V350Zm0,300v91H755V650Z" 
id="f0_w"
transform="scale(0.001,-0.001)" />

<path d="M797,-9C786,-9,667,-9,611,19c0,0,-60,29,-101,128L411,391L272,303L210,0H67L266,944c0,0,14,68,14,81c0,0,0,72,-108,72H160l14,64H455L395,880c0,0,-82,-386,-118,-503L518,586c0,0,112,97,112,144c0,0,0,23,-68,23l14,65H914L900,753c0,0,-89,0,-246,-142L516,484L656,182c0,0,58,-128,154,-128c0,0,1,0,1,0L797,-9Z" 
id="f1_9"
transform="scale(0.001,-0.001)" />

<path d="M58,0V64H78c0,0,25,0,49,4c0,0,22,3,39,16c0,0,17,11,27,32c0,0,10,21,10,58V923c0,0,0,33,-10,54c0,0,-11,20,-27,32c0,0,-18,11,-40,14c0,0,-24,3,-48,3H58v65H503v-65H483c0,0,-26,0,-49,-3c0,0,-24,-4,-39,-15c0,0,-18,-13,-27,-34c0,0,-11,-21,-11,-57V608H854V917c0,0,0,36,-10,57c0,0,-10,21,-26,34c0,0,-18,11,-40,15c0,0,-24,3,-49,3H709v65h444v-65h-19c0,0,-26,0,-49,-3c0,0,-23,-4,-40,-15c0,0,-17,-13,-27,-34c0,0,-10,-21,-9,-57V166c0,0,0,-33,10,-53c0,0,10,-22,27,-32c0,0,16,-10,40,-13c0,0,22,-4,48,-4h19V0H709V64h20c0,0,25,0,49,4c0,0,22,3,40,16c0,0,16,11,26,32c0,0,10,21,10,58V532H357V174c0,0,0,-37,11,-58c0,0,9,-21,27,-32c0,0,15,-13,39,-16c0,0,23,-4,49,-4h20V0Z" 
id="f0_p"
transform="scale(0.001,-0.001)" />

<path d="M28,0V64H40c0,0,25,0,49,4c0,0,22,3,39,16c0,0,17,11,27,32c0,0,10,21,10,58V993c0,0,0,33,-10,54c0,0,-11,21,-27,32c0,0,-18,11,-40,15c0,0,-24,3,-48,3H28v64H306V571c0,0,0,-21,0,-53c0,0,0,-32,0,-64c0,0,0,-36,0,-75L495,588c0,0,24,27,40,48c0,0,16,21,25,37c0,0,10,16,14,28c0,0,3,12,3,23c0,0,0,19,-18,26c0,0,-19,5,-56,5v64H840V755c0,0,-54,-1,-104,-37c0,0,-52,-38,-111,-106L518,492L721,189c0,0,39,-61,79,-93c0,0,38,-32,89,-32q1,0,2,0h4V0H874c0,0,-67,0,-109,4c0,0,-44,3,-75,20c0,0,-32,14,-57,45c0,0,-27,29,-59,79L421,388L309,304V166c0,0,0,-33,10,-53c0,0,10,-22,27,-32c0,0,17,-10,40,-13c0,0,22,-4,48,-4h5V0Z" 
id="f0_1e"
transform="scale(0.001,-0.001)" />

<path d="M58,-366v72h1c8,0,79,1,133,23c0,0,55,24,97,64c0,0,39,40,68,95c0,0,26,55,45,118L119,674c0,0,-10,23,-20,39c0,0,-10,14,-21,25c0,0,-13,9,-29,13c0,0,-17,3,-39,4H6v64H373V755h-4c0,0,-47,0,-69,-18c0,0,-24,-18,-23,-56c0,0,-1,-13,3,-25c0,0,2,-14,9,-31L401,353c0,0,9,-27,22,-57c0,0,11,-31,22,-61c0,0,9,-31,18,-57c0,0,7,-28,11,-47h4c0,0,8,34,23,82c0,0,14,48,34,103L637,614c0,0,7,19,11,36c0,0,2,16,2,30c0,0,0,38,-24,57c0,0,-26,18,-76,18h-5v64H863V755h-4c0,0,-23,0,-38,-5c0,0,-18,-6,-30,-18c0,0,-13,-14,-24,-37c0,0,-11,-24,-25,-59L510,-5c0,0,-27,-74,-50,-130c0,0,-25,-56,-50,-95c0,0,-27,-41,-57,-67c0,0,-32,-26,-71,-41c0,0,-40,-17,-91,-22c0,0,-51,-6,-119,-6Z" 
id="f0_l"
transform="scale(0.001,-0.001)" />

<path d="M229,0V64h35c0,0,25,0,49,4c0,0,22,3,39,13c0,0,17,10,28,32c0,0,9,20,9,53v849H243c0,0,-33,0,-56,-10c0,0,-24,-11,-37,-28c0,0,-15,-17,-22,-39c0,0,-8,-24,-10,-49l-8,-65H34v267H902V824H827l-8,65c0,0,-4,25,-10,49c0,0,-9,22,-22,39c0,0,-15,17,-37,28c0,0,-24,10,-58,10H544V174c0,0,0,-37,10,-58c0,0,10,-21,27,-32c0,0,16,-13,40,-16c0,0,22,-4,48,-4h35V0Z" 
id="f0_12"
transform="scale(0.001,-0.001)" />

<path d="M480,-194c0,0,-106,41,-180,101c0,0,-75,59,-122,141c0,0,-48,82,-69,191c0,0,-22,107,-22,245c0,0,0,137,22,246c0,0,21,106,69,188c0,0,47,82,122,142c0,0,74,59,180,101v-69c0,0,-79,-48,-125,-114c0,0,-48,-67,-71,-146c0,0,-24,-80,-30,-168c0,0,-9,-90,-8,-180c0,0,-1,-92,8,-180c0,0,6,-88,30,-167c0,0,23,-80,71,-146c0,0,46,-68,125,-115v-70Z" 
id="f0_1s"
transform="scale(0.001,-0.001)" />

<path d="M-30,0l18,64H6c0,0,41,0,73,20c0,0,30,18,86,85L360,407L261,645c0,0,-29,70,-48,91c0,0,-19,18,-62,19H131l13,64H347L463,510L666,819H862L837,755H818c0,0,-45,-1,-75,-22c0,0,-31,-21,-84,-88L498,439L604,174c0,0,26,-69,46,-89c0,0,18,-21,61,-21q1,0,2,0h20L721,0H516L392,336L163,0Z" 
id="f1_3"
transform="scale(0.001,-0.001)" />

<path d="M49,-194v70c0,0,79,47,125,115c0,0,45,66,71,146c0,0,23,79,31,167c0,0,7,88,7,180c0,0,0,90,-7,180c0,0,-8,88,-31,168c0,0,-26,79,-71,146c0,0,-46,66,-125,114v69c0,0,105,-42,180,-101c0,0,75,-60,122,-142c0,0,47,-82,69,-188c0,0,21,-109,22,-246c0,0,-1,-138,-22,-245c0,0,-22,-109,-69,-191c0,0,-47,-82,-122,-141c0,0,-75,-60,-180,-101Z" 
id="f0_16"
transform="scale(0.001,-0.001)" />

<path d="M58,0V64H78c0,0,25,0,49,4c0,0,22,3,39,16c0,0,17,11,27,32c0,0,10,21,10,58V923c0,0,0,33,-10,54c0,0,-11,20,-27,32c0,0,-18,11,-40,14c0,0,-24,3,-48,3H58v65H338L885,246V923c0,0,0,33,-10,54c0,0,-11,20,-28,32c0,0,-17,11,-39,14c0,0,-24,3,-49,3H739v65h384v-65h-20c0,0,-26,0,-48,-3c0,0,-24,-4,-40,-15c0,0,-18,-13,-27,-34c0,0,-11,-21,-10,-57V0H869L296,880V174c0,0,0,-37,11,-58c0,0,9,-21,26,-32c0,0,16,-13,40,-16c0,0,22,-4,48,-4h21V0Z" 
id="f0_1a"
transform="scale(0.001,-0.001)" />

<path d="M380,219V501H99v91H380V874h92V592H755V501H472V219Z" 
id="f0_1y"
transform="scale(0.001,-0.001)" />

<path d="M78,0V112L333,407c0,0,61,70,103,126c0,0,40,56,66,106c0,0,25,49,37,97c0,0,11,47,11,100c0,0,0,43,-9,79c0,0,-11,35,-29,61c0,0,-19,25,-48,40c0,0,-31,13,-70,13c0,0,-53,0,-84,-18c0,0,-33,-20,-52,-50c0,0,-19,-31,-25,-73c0,0,-7,-41,-7,-86c0,0,-28,0,-51,4c0,0,-24,4,-42,17c0,0,-18,11,-28,30c0,0,-10,19,-10,48c0,0,0,43,19,82c0,0,19,37,57,65c0,0,36,28,93,43c0,0,56,15,130,15c0,0,72,0,130,-18c0,0,56,-19,97,-51c0,0,41,-34,62,-81c0,0,21,-47,21,-105c0,0,-1,-54,-17,-104c0,0,-18,-52,-50,-104c0,0,-33,-54,-80,-111c0,0,-48,-58,-108,-124L191,122H545c7,0,36,1,56,10c0,0,21,10,36,25c0,0,14,15,22,37c0,0,7,20,13,42l6,28h61V0Z" 
id="f0_17"
transform="scale(0.001,-0.001)" />

<path d="M562,-212c0,0,-127,52,-217,121c0,0,-91,68,-147,155c0,0,-58,87,-84,193c0,0,-27,104,-27,229c0,0,0,123,27,228c0,0,26,104,84,191c0,0,56,86,147,155c0,0,90,68,217,119v-96c0,0,-70,-47,-115,-112c0,0,-45,-66,-70,-143c0,0,-26,-78,-35,-164c0,0,-10,-88,-9,-178c0,0,-1,-91,9,-179c0,0,9,-88,35,-165c0,0,25,-79,70,-143c0,0,45,-67,115,-113v-98Z" 
id="f2_1d"
transform="scale(0.001,-0.001)" />

<path d="M540,99c1,0,2,0,2,0c3,0,76,1,109,82c0,0,34,81,34,233c0,0,0,155,-34,234c0,0,-33,76,-110,76c0,0,-46,0,-76,-18c0,0,-30,-20,-47,-58c0,0,-18,-40,-26,-97c0,0,-8,-60,-7,-138c0,0,-1,-76,7,-134c0,0,8,-60,26,-98c0,0,18,-41,48,-61c0,0,29,-21,74,-21ZM610,-14c-1,0,-2,0,-4,0h-1c-9,0,-47,1,-78,10c0,0,-37,8,-64,26c0,0,-30,18,-51,43c0,0,-23,24,-39,54H359L316,0H26V81H37c0,0,20,0,42,4c0,0,20,3,37,15c0,0,17,10,27,32c0,0,10,21,10,56V978c0,0,0,32,-10,53c0,0,-10,19,-26,31c0,0,-17,11,-38,14c0,0,-22,3,-47,4H26v81H383V900c0,0,0,-24,0,-56c0,0,0,-33,-3,-61c0,0,-4,-34,-7,-68h10c0,0,33,56,88,89c0,0,55,32,141,33c0,0,75,0,132,-25c0,0,57,-26,97,-76c0,0,39,-53,59,-132c0,0,20,-81,20,-191c0,0,0,-112,-20,-192c0,0,-22,-81,-61,-133c0,0,-39,-53,-97,-78c0,0,-59,-24,-132,-24Z" 
id="f2_18"
transform="scale(0.001,-0.001)" />

<path d="M49,-212v98c0,0,70,46,116,113c0,0,44,64,70,143c0,0,24,77,34,165c0,0,9,88,9,179c0,0,0,90,-9,178c0,0,-10,86,-34,164c0,0,-26,77,-70,143c0,0,-46,65,-116,112v96c0,0,127,-51,218,-119c0,0,90,-69,148,-155c0,0,56,-87,83,-191c0,0,25,-105,26,-228c0,0,-1,-125,-26,-229c0,0,-27,-106,-83,-193c0,0,-58,-87,-148,-155c0,0,-91,-69,-218,-121Z" 
id="f2_1e"
transform="scale(0.001,-0.001)" />

<path d="M1156,-14c-4,0,-64,1,-100,40c0,0,-38,40,-38,111c0,0,0,70,29,207l26,119c0,0,32,146,32,182c0,0,-1,90,-71,90c0,0,-78,-1,-162,-100c0,0,-84,-101,-117,-211L730,315c0,0,-10,-42,-27,-164C703,151,686,29,686,0H541c0,0,0,34,19,159c0,0,19,123,33,185l35,158c0,0,22,92,22,143c0,0,0,90,-70,90c0,0,-85,-1,-174,-116c0,0,-91,-116,-114,-228L210,0H67L195,614c0,0,9,42,9,69c0,0,0,72,-106,72H86l13,64H382L341,627h15c0,0,124,206,278,206c0,0,163,-1,163,-170c0,0,0,-19,-3,-36h15c0,0,124,206,279,206c0,0,163,-1,163,-170c0,0,0,-48,-28,-168L1184,315c0,0,-20,-89,-20,-161c0,0,0,-73,53,-73c0,0,44,0,98,35l28,-44c0,0,-98,-86,-187,-86Z" 
id="f1_a"
transform="scale(0.001,-0.001)" />

<path d="M280,-14c0,0,-167,0,-167,177c0,0,0,57,15,129l94,440H105l14,61c0,0,149,0,234,214h70L383,819H568L550,732H365L272,296c0,0,-19,-89,-18,-131c0,0,-1,-84,80,-84c0,0,1,0,1,0c0,0,61,0,125,34L486,58c0,0,-103,-72,-206,-72Z" 
id="f1_2"
transform="scale(0.001,-0.001)" />

<path d="M58,0V64H78c0,0,25,0,49,4c0,0,22,3,39,16c0,0,17,11,27,32c0,0,10,21,10,58V917c0,0,0,36,-10,57c0,0,-10,21,-27,34c0,0,-17,11,-39,15c0,0,-24,3,-49,3H58v65H503v-65H483c0,0,-26,0,-49,-3c0,0,-24,-4,-39,-15c0,0,-18,-13,-27,-34c0,0,-11,-21,-11,-57V174c0,0,0,-37,11,-58c0,0,9,-21,27,-32c0,0,15,-13,39,-16c0,0,23,-4,49,-4h20V0Z" 
id="f0_1d"
transform="scale(0.001,-0.001)" />

<path d="M365,0L119,674c0,0,-9,23,-18,39c0,0,-11,15,-23,26c0,0,-12,8,-29,12c0,0,-17,3,-39,4H6v64H388V755H369c0,0,-47,0,-69,-18c0,0,-24,-18,-23,-56c0,0,-1,-13,3,-25c0,0,3,-14,9,-31L392,336c0,0,10,-26,21,-58c0,0,9,-33,20,-65c0,0,8,-31,16,-59c0,0,7,-29,11,-47h5c0,0,3,16,12,41c0,0,8,23,20,53c0,0,10,27,22,58c0,0,11,29,22,57L650,614c0,0,8,19,12,36c0,0,3,16,3,30c0,0,0,38,-25,57c0,0,-26,18,-76,18H553v64H880V755H862c0,0,-23,0,-38,-5c0,0,-17,-6,-29,-18c0,0,-12,-14,-24,-37c0,0,-12,-24,-26,-59L504,0Z" 
id="f0_s"
transform="scale(0.001,-0.001)" />

<path d="M405,24c0,0,65,0,116,62c0,0,51,61,51,174c0,0,0,128,-50,221c0,0,-51,93,-144,93c0,0,-29,0,-61,-12c0,0,-33,-12,-96,-51c0,0,-14,-101,-14,-163c0,0,0,-72,27,-155c0,0,26,-84,79,-134c0,0,38,-35,92,-35ZM384,-17c0,0,-104,0,-177,68C207,51,66,185,66,397c0,0,0,136,54,258c0,0,54,122,156,217c0,0,101,95,193,128c0,0,93,33,172,33h44v-28c0,0,-99,-10,-161,-39c0,0,-62,-29,-123,-90c0,0,-61,-60,-101,-135c0,0,-39,-74,-66,-176c0,0,107,73,215,73c0,0,104,0,180,-83c0,0,76,-84,76,-215c0,0,0,-126,-77,-231c0,0,-92,-126,-244,-126Z" 
id="f3_q"
transform="scale(0.001,-0.001)" />

<path d="M379,29c0,0,41,0,84,37c0,0,43,36,65,121c0,0,34,128,34,362c0,0,0,173,-35,288c0,0,-27,86,-69,122c0,0,-31,25,-74,25c0,0,-51,0,-90,-46c0,0,-54,-62,-73,-195c0,0,-20,-132,-20,-261c0,0,0,-209,52,-341c0,0,42,-112,126,-112Zm-2,-46c0,0,-145,0,-241,170c0,0,-81,144,-81,347c0,0,0,173,52,298c0,0,52,125,139,186c0,0,67,49,139,49c0,0,116,0,208,-119c0,0,116,-147,116,-398c0,0,0,-176,-51,-299C658,217,608,94,529,38c0,0,-79,-55,-152,-55Z" 
id="f3_k"
transform="scale(0.001,-0.001)" />


</defs>
</svg>