<?xml version="1.0" encoding="UTF-8" standalone="no"?>
<!DOCTYPE svg PUBLIC "-//W3C//DTD SVG 1.1//EN"
"http://www.w3.org/Graphics/SVG/1.1/DTD/svg11.dtd">
<svg viewBox="0 0 909 1286" version="1.1" xmlns="http://www.w3.org/2000/svg" xmlns:xlink="http://www.w3.org/1999/xlink">
<defs>
<clipPath id="c0_194"><path d="M35.1,1194.7V113.1H873.9V1194.7Z" /></clipPath>
</defs>
<image preserveAspectRatio="none" x="47" y="113" width="133" height="64" xlink:href="img/1.png" />
<image preserveAspectRatio="none" x="47" y="196" width="156" height="64" xlink:href="img/2.png" />
<g clip-path="url(#c0_194)">
<g fill="#000000" >
<use xlink:href="#f0_1l" transform="matrix(12,0,0,12,47.4,301)" />
<use xlink:href="#f0_2" transform="matrix(10,0,0,10,61,305.6)" />
<use xlink:href="#f0_13" transform="matrix(12,0,0,12,75.2,301)" />
<use xlink:href="#f0_t" transform="matrix(12,0,0,12,90.2,301)" />
<use xlink:href="#f0_1q" transform="matrix(12,0,0,12,100.5,301)" />
<use xlink:href="#f0_t" transform="matrix(12,0,0,12,110.7,301)" />
<use xlink:href="#f0_1q" transform="matrix(12,0,0,12,120.9,301)" />
<use xlink:href="#f0_1o" transform="matrix(12,0,0,12,131.2,301)" />
<use xlink:href="#f0_d" transform="matrix(12,0,0,12,47.4,357.5)" />
<use xlink:href="#f0_i" transform="matrix(12,0,0,12,57.9,357.5)" />
<use xlink:href="#f0_u" transform="matrix(12,0,0,12,66.6,357.5)" />
<use xlink:href="#f0_1l" transform="matrix(12,0,0,12,75.9,357.5)" />
<use xlink:href="#f0_1f" transform="matrix(10,0,0,10,89.5,362.1)" />
<use xlink:href="#f0_1m" transform="matrix(12,0,0,12,101.6,357.5)" />
<use xlink:href="#f0_1l" transform="matrix(12,0,0,12,107.3,357.5)" />
<use xlink:href="#f0_2" transform="matrix(10,0,0,10,120.9,362.1)" />
<use xlink:href="#f0_13" transform="matrix(12,0,0,12,134.3,357.5)" />
<use xlink:href="#f0_1n" transform="matrix(12,0,0,12,149.3,357.5)" />
<use xlink:href="#f0_y" transform="matrix(12,0,0,12,159.6,357.5)" />
<use xlink:href="#f0_1b" transform="matrix(12,0,0,12,169.8,357.5)" />
<use xlink:href="#f0_1o" transform="matrix(12,0,0,12,180.1,357.5)" />
<use xlink:href="#f0_1l" transform="matrix(12,0,0,12,47.4,414)" />
<use xlink:href="#f0_1f" transform="matrix(10,0,0,10,61,418.6)" />
<use xlink:href="#f0_19" transform="matrix(12,0,0,12,77.8,414)" />
<use xlink:href="#f0_t" transform="matrix(12,0,0,12,91.7,414)" />
<use xlink:href="#f0_1q" transform="matrix(12,0,0,12,102,414)" />
<use xlink:href="#f0_t" transform="matrix(12,0,0,12,112.2,414)" />
<use xlink:href="#f0_1q" transform="matrix(12,0,0,12,122.5,414)" />
<use xlink:href="#f0_13" transform="matrix(12,0,0,12,137.5,414)" />
<use xlink:href="#f0_1n" transform="matrix(12,0,0,12,152.4,414)" />
<use xlink:href="#f0_y" transform="matrix(12,0,0,12,162.7,414)" />
<use xlink:href="#f0_1b" transform="matrix(12,0,0,12,172.9,414)" />
<use xlink:href="#f0_1o" transform="matrix(12,0,0,12,183.2,414)" />
<use xlink:href="#f0_1l" transform="matrix(12,0,0,12,47.4,470.6)" />
<use xlink:href="#f0_1f" transform="matrix(10,0,0,10,61,475.1)" />
<use xlink:href="#f0_13" transform="matrix(12,0,0,12,77.8,470.6)" />
<use xlink:href="#f0_1n" transform="matrix(12,0,0,12,92.8,470.6)" />
<use xlink:href="#f0_y" transform="matrix(12,0,0,12,103.1,470.6)" />
<use xlink:href="#f0_1b" transform="matrix(12,0,0,12,113.3,470.6)" />
<use xlink:href="#f0_1h" transform="matrix(12,0,0,12,128.3,470.6)" />
<use xlink:href="#f0_t" transform="matrix(12,0,0,12,143.3,470.6)" />
<use xlink:href="#f0_1q" transform="matrix(12,0,0,12,153.5,470.6)" />
<use xlink:href="#f0_t" transform="matrix(12,0,0,12,163.8,470.6)" />
<use xlink:href="#f0_1q" transform="matrix(12,0,0,12,174,470.6)" />
<use xlink:href="#f0_13" transform="matrix(12,0,0,12,189,470.6)" />
<use xlink:href="#f0_y" transform="matrix(12,0,0,12,204,470.6)" />
<use xlink:href="#f0_y" transform="matrix(12,0,0,12,214.2,470.6)" />
<use xlink:href="#f0_1a" transform="matrix(12,0,0,12,224.5,470.6)" />
<use xlink:href="#f0_1q" transform="matrix(12,0,0,12,234.7,470.6)" />
<use xlink:href="#f0_1o" transform="matrix(12,0,0,12,244.9,470.6)" />
<use xlink:href="#f0_17" transform="matrix(12,0,0,12,47.4,527.1)" />
<use xlink:href="#f0_o" transform="matrix(12,0,0,12,66.6,527.1)" />
<use xlink:href="#f0_3" transform="matrix(12,0,0,12,78.2,527.1)" />
<use xlink:href="#f0_7" transform="matrix(12,0,0,12,88,527.1)" />
<use xlink:href="#f0_4" transform="matrix(12,0,0,12,104.6,527.1)" />
<use xlink:href="#f0_o" transform="matrix(12,0,0,12,111,527.1)" />
<use xlink:href="#f0_3" transform="matrix(12,0,0,12,122.6,527.1)" />
<use xlink:href="#f0_b" transform="matrix(12,0,0,12,137.2,527.1)" />
<use xlink:href="#f0_6" transform="matrix(12,0,0,12,147,527.1)" />
<use xlink:href="#f0_c" transform="matrix(12,0,0,12,157.4,527.1)" />
<use xlink:href="#f0_8" transform="matrix(12,0,0,12,170.4,527.1)" />
<use xlink:href="#f0_c" transform="matrix(12,0,0,12,176.2,527.1)" />
<use xlink:href="#f0_k" transform="matrix(12,0,0,12,189.2,527.1)" />
<use xlink:href="#f0_6" transform="matrix(12,0,0,12,198.3,527.1)" />
<use xlink:href="#f0_i" transform="matrix(12,0,0,12,208.6,527.1)" />
<use xlink:href="#f0_i" transform="matrix(12,0,0,12,217.2,527.1)" />
<use xlink:href="#f0_8" transform="matrix(12,0,0,12,225.8,527.1)" />
<use xlink:href="#f0_3" transform="matrix(12,0,0,12,231.6,527.1)" />
<use xlink:href="#f0_9" transform="matrix(12,0,0,12,241.5,527.1)" />
<use xlink:href="#f0_4" transform="matrix(12,0,0,12,257.5,527.1)" />
<use xlink:href="#f0_o" transform="matrix(12,0,0,12,263.9,527.1)" />
<use xlink:href="#f0_i" transform="matrix(12,0,0,12,275.5,527.1)" />
<use xlink:href="#f0_d" transform="matrix(12,0,0,12,284.1,527.1)" />
<use xlink:href="#f0_m" transform="matrix(12,0,0,12,294.7,527.1)" />
<use xlink:href="#f0_b" transform="matrix(12,0,0,12,306.3,527.1)" />
<use xlink:href="#f0_o" transform="matrix(12,0,0,12,316.2,527.1)" />
<use xlink:href="#f0_1g" transform="matrix(12,0,0,12,332.6,527.1)" />
<use xlink:href="#f0_6" transform="matrix(12,0,0,12,343.8,527.1)" />
<use xlink:href="#f0_i" transform="matrix(12,0,0,12,354.1,527.1)" />
<use xlink:href="#f0_7" transform="matrix(12,0,0,12,362.8,527.1)" />
<use xlink:href="#f0_d" transform="matrix(12,0,0,12,374.6,527.1)" />
<use xlink:href="#f0_4" transform="matrix(12,0,0,12,385.1,527.1)" />
<use xlink:href="#f0_k" transform="matrix(12,0,0,12,396.3,527.1)" />
<use xlink:href="#f0_j" transform="matrix(12,0,0,12,405.4,527.1)" />
<use xlink:href="#f0_k" transform="matrix(12,0,0,12,415.7,527.1)" />
<use xlink:href="#f0_a" transform="matrix(12,0,0,12,424.7,527.1)" />
<use xlink:href="#f0_3" transform="matrix(12,0,0,12,430.4,527.1)" />
<use xlink:href="#f0_u" transform="matrix(12,0,0,12,440.2,527.1)" />
<use xlink:href="#f0_4" transform="matrix(12,0,0,12,449.5,527.1)" />
<use xlink:href="#f0_o" transform="matrix(12,0,0,12,456,527.1)" />
<use xlink:href="#f0_3" transform="matrix(12,0,0,12,467.6,527.1)" />
<use xlink:href="#f0_o" transform="matrix(12,0,0,12,482.2,527.1)" />
<use xlink:href="#f0_3" transform="matrix(12,0,0,12,493.8,527.1)" />
<use xlink:href="#f0_6" transform="matrix(12,0,0,12,503.6,527.1)" />
<use xlink:href="#f0_4" transform="matrix(12,0,0,12,513.9,527.1)" />
<use xlink:href="#f0_6" transform="matrix(12,0,0,12,525.1,527.1)" />
<use xlink:href="#f0_11" transform="matrix(12,0,0,12,535.4,527.1)" />
<use xlink:href="#f0_c" transform="matrix(12,0,0,12,546.7,527.1)" />
<use xlink:href="#f0_d" transform="matrix(12,0,0,12,554.9,527.1)" />
<use xlink:href="#f0_i" transform="matrix(12,0,0,12,565.5,527.1)" />
<use xlink:href="#f0_11" transform="matrix(12,0,0,12,574.1,527.1)" />
<use xlink:href="#f0_3" transform="matrix(12,0,0,12,585.4,527.1)" />
<use xlink:href="#f0_9" transform="matrix(12,0,0,12,595.2,527.1)" />
<use xlink:href="#f0_1l" transform="matrix(12,0,0,12,611.2,527.1)" />
<use xlink:href="#f0_1f" transform="matrix(10,0,0,10,624.8,531.7)" />
<use xlink:href="#f0_9" transform="matrix(12,0,0,12,641.6,527.1)" />
<use xlink:href="#f0_m" transform="matrix(12,0,0,12,652.9,527.1)" />
<use xlink:href="#f0_i" transform="matrix(12,0,0,12,664.5,527.1)" />
<use xlink:href="#f0_8" transform="matrix(12,0,0,12,673.1,527.1)" />
<use xlink:href="#f0_7" transform="matrix(12,0,0,12,679,527.1)" />
<use xlink:href="#f0_b" transform="matrix(12,0,0,12,690.8,527.1)" />
<use xlink:href="#f0_8" transform="matrix(12,0,0,12,705.4,527.1)" />
<use xlink:href="#f0_c" transform="matrix(12,0,0,12,711.3,527.1)" />
<use xlink:href="#f0_d" transform="matrix(12,0,0,12,719.5,527.1)" />
<use xlink:href="#f0_4" transform="matrix(12,0,0,12,730.1,527.1)" />
<use xlink:href="#f0_o" transform="matrix(12,0,0,12,736.5,527.1)" />
<use xlink:href="#f0_3" transform="matrix(12,0,0,12,748.2,527.1)" />
<use xlink:href="#f0_i" transform="matrix(12,0,0,12,758,527.1)" />
<use xlink:href="#f0_l" transform="matrix(12,0,0,12,766.6,527.1)" />
<use xlink:href="#f0_6" transform="matrix(12,0,0,12,783.9,527.1)" />
<use xlink:href="#f0_a" transform="matrix(12,0,0,12,794.2,527.1)" />
<use xlink:href="#f0_3" transform="matrix(12,0,0,12,47.4,565.3)" />
<use xlink:href="#f0_f" transform="matrix(12,0,0,12,57.2,565.3)" />
<use xlink:href="#f0_g" transform="matrix(12,0,0,12,67.8,565.3)" />
<use xlink:href="#f0_6" transform="matrix(12,0,0,12,79,565.3)" />
<use xlink:href="#f0_7" transform="matrix(12,0,0,12,89.3,565.3)" />
<use xlink:href="#f0_c" transform="matrix(12,0,0,12,101.1,565.3)" />
<use xlink:href="#f0_8" transform="matrix(12,0,0,12,109.4,565.3)" />
<use xlink:href="#f0_d" transform="matrix(12,0,0,12,115.3,565.3)" />
<use xlink:href="#f0_7" transform="matrix(12,0,0,12,125.8,565.3)" />
<use xlink:href="#f0_8" transform="matrix(12,0,0,12,142.4,565.3)" />
<use xlink:href="#f0_c" transform="matrix(12,0,0,12,148.2,565.3)" />
<use xlink:href="#f0_3" transform="matrix(12,0,0,12,161.3,565.3)" />
<use xlink:href="#f0_1r" transform="matrix(12,0,0,12,171.1,565.3)" />
<use xlink:href="#f0_m" transform="matrix(12,0,0,12,182.3,565.3)" />
<use xlink:href="#f0_6" transform="matrix(12,0,0,12,193.9,565.3)" />
<use xlink:href="#f0_a" transform="matrix(12,0,0,12,204.2,565.3)" />
<use xlink:href="#f0_4" transform="matrix(12,0,0,12,214.7,565.3)" />
<use xlink:href="#f0_d" transform="matrix(12,0,0,12,221.1,565.3)" />
<use xlink:href="#f0_4" transform="matrix(12,0,0,12,236.4,565.3)" />
<use xlink:href="#f0_o" transform="matrix(12,0,0,12,242.9,565.3)" />
<use xlink:href="#f0_3" transform="matrix(12,0,0,12,254.5,565.3)" />
<use xlink:href="#f0_e" transform="matrix(12,0,0,12,269.1,565.3)" />
<use xlink:href="#f0_d" transform="matrix(12,0,0,12,284.9,565.3)" />
<use xlink:href="#f0_i" transform="matrix(12,0,0,12,295.4,565.3)" />
<use xlink:href="#f0_10" transform="matrix(12,0,0,12,304.1,565.3)" />
<use xlink:href="#f0_9" transform="matrix(12,0,0,12,319.5,565.3)" />
<use xlink:href="#f0_d" transform="matrix(12,0,0,12,330.8,565.3)" />
<use xlink:href="#f0_7" transform="matrix(12,0,0,12,341.3,565.3)" />
<use xlink:href="#f0_3" transform="matrix(12,0,0,12,353.2,565.3)" />
<use xlink:href="#f0_11" transform="matrix(12,0,0,12,367.7,565.3)" />
<use xlink:href="#f0_j" transform="matrix(12,0,0,12,379,565.3)" />
<use xlink:href="#f0_b" transform="matrix(12,0,0,12,394,565.3)" />
<use xlink:href="#f0_6" transform="matrix(12,0,0,12,403.9,565.3)" />
<use xlink:href="#f0_c" transform="matrix(12,0,0,12,414.2,565.3)" />
<use xlink:href="#f0_n" transform="matrix(12,0,0,12,422.5,565.3)" />
<use xlink:href="#f0_v" transform="matrix(12,0,0,12,47.4,615.7)" />
<use xlink:href="#f0_t" transform="matrix(10,0,0,10,59.7,620.3)" />
<use xlink:href="#f0_19" transform="matrix(12,0,0,12,73,615.7)" />
<use xlink:href="#f0_1c" transform="matrix(12,0,0,12,86.9,615.7)" />
<use xlink:href="#f0_7" transform="matrix(12,0,0,12,93.6,615.7)" />
<use xlink:href="#f0_8" transform="matrix(12,0,0,12,105.5,615.7)" />
<use xlink:href="#f0_4" transform="matrix(12,0,0,12,111.3,615.7)" />
<use xlink:href="#f0_8" transform="matrix(12,0,0,12,117.8,615.7)" />
<use xlink:href="#f0_6" transform="matrix(12,0,0,12,123.6,615.7)" />
<use xlink:href="#f0_a" transform="matrix(12,0,0,12,133.9,615.7)" />
<use xlink:href="#f0_v" transform="matrix(12,0,0,12,144.4,615.7)" />
<use xlink:href="#f0_d" transform="matrix(12,0,0,12,156.7,615.7)" />
<use xlink:href="#f0_a" transform="matrix(12,0,0,12,167.3,615.7)" />
<use xlink:href="#f0_m" transform="matrix(12,0,0,12,173,615.7)" />
<use xlink:href="#f0_l" transform="matrix(12,0,0,12,184.6,615.7)" />
<use xlink:href="#f0_3" transform="matrix(12,0,0,12,201.9,615.7)" />
<use xlink:href="#f0_v" transform="matrix(12,0,0,12,47.4,672.2)" />
<use xlink:href="#f0_y" transform="matrix(10,0,0,10,59.7,676.8)" />
<use xlink:href="#f0_13" transform="matrix(12,0,0,12,73,672.2)" />
<use xlink:href="#f0_12" transform="matrix(12,0,0,12,88,672.2)" />
<use xlink:href="#f0_8" transform="matrix(12,0,0,12,98.8,672.2)" />
<use xlink:href="#f0_7" transform="matrix(12,0,0,12,104.7,672.2)" />
<use xlink:href="#f0_6" transform="matrix(12,0,0,12,116.5,672.2)" />
<use xlink:href="#f0_a" transform="matrix(12,0,0,12,126.8,672.2)" />
<use xlink:href="#f0_v" transform="matrix(12,0,0,12,137.2,672.2)" />
<use xlink:href="#f0_d" transform="matrix(12,0,0,12,149.6,672.2)" />
<use xlink:href="#f0_a" transform="matrix(12,0,0,12,160.2,672.2)" />
<use xlink:href="#f0_m" transform="matrix(12,0,0,12,165.8,672.2)" />
<use xlink:href="#f0_l" transform="matrix(12,0,0,12,177.5,672.2)" />
<use xlink:href="#f0_3" transform="matrix(12,0,0,12,194.8,672.2)" />
<use xlink:href="#f0_u" transform="matrix(12,0,0,12,204.6,672.2)" />
<use xlink:href="#f0_1c" transform="matrix(12,0,0,12,47.4,728.8)" />
<use xlink:href="#f0_7" transform="matrix(12,0,0,12,54.1,728.8)" />
<use xlink:href="#f0_8" transform="matrix(12,0,0,12,70.7,728.8)" />
<use xlink:href="#f0_c" transform="matrix(12,0,0,12,76.5,728.8)" />
<use xlink:href="#f0_d" transform="matrix(12,0,0,12,84.8,728.8)" />
<use xlink:href="#f0_4" transform="matrix(12,0,0,12,95.3,728.8)" />
<use xlink:href="#f0_o" transform="matrix(12,0,0,12,101.8,728.8)" />
<use xlink:href="#f0_3" transform="matrix(12,0,0,12,113.4,728.8)" />
<use xlink:href="#f0_i" transform="matrix(12,0,0,12,123.2,728.8)" />
<use xlink:href="#f0_l" transform="matrix(12,0,0,12,131.8,728.8)" />
<use xlink:href="#f0_6" transform="matrix(12,0,0,12,149.1,728.8)" />
<use xlink:href="#f0_a" transform="matrix(12,0,0,12,159.5,728.8)" />
<use xlink:href="#f0_3" transform="matrix(12,0,0,12,169.9,728.8)" />
<use xlink:href="#f0_f" transform="matrix(12,0,0,12,179.7,728.8)" />
<use xlink:href="#f0_g" transform="matrix(12,0,0,12,190.3,728.8)" />
<use xlink:href="#f0_6" transform="matrix(12,0,0,12,201.5,728.8)" />
<use xlink:href="#f0_7" transform="matrix(12,0,0,12,211.9,728.8)" />
<use xlink:href="#f0_c" transform="matrix(12,0,0,12,223.7,728.8)" />
<use xlink:href="#f0_8" transform="matrix(12,0,0,12,231.9,728.8)" />
<use xlink:href="#f0_d" transform="matrix(12,0,0,12,237.8,728.8)" />
<use xlink:href="#f0_7" transform="matrix(12,0,0,12,248.4,728.8)" />
<use xlink:href="#f0_u" transform="matrix(12,0,0,12,260.2,728.8)" />
<use xlink:href="#f0_1l" transform="matrix(12,0,0,12,47.4,796)" />
<use xlink:href="#f0_1f" transform="matrix(10,0,0,10,61,800.6)" />
<use xlink:href="#f0_13" transform="matrix(12,0,0,12,77.8,796)" />
<use xlink:href="#f0_y" transform="matrix(12,0,0,12,92.8,796)" />
<use xlink:href="#f0_n" transform="matrix(12,0,0,12,103.1,796)" />
<use xlink:href="#f0_1a" transform="matrix(12,0,0,12,108.3,796)" />
<use xlink:href="#f0_1b" transform="matrix(12,0,0,12,118.5,796)" />
<use xlink:href="#f0_1a" transform="matrix(12,0,0,12,128.8,796)" />
<use xlink:href="#f0_7" transform="matrix(12,0,0,12,143.8,796)" />
<use xlink:href="#f0_15" transform="matrix(12,0,0,12,155.6,796)" />
<use xlink:href="#f0_z" transform="matrix(12,0,0,12,167.6,796)" />
<use xlink:href="#f0_1f" transform="matrix(10,0,0,10,178.8,800.6)" />
<use xlink:href="#f0_2" transform="matrix(12,0,0,12,195.7,796)" />
<use xlink:href="#f0_d" transform="matrix(12,0,0,12,207.1,796)" />
<use xlink:href="#f0_b" transform="matrix(12,0,0,12,217.6,796)" />
<use xlink:href="#f0_t" transform="matrix(12,0,0,12,232.2,796)" />
<use xlink:href="#f0_1b" transform="matrix(12,0,0,12,242.5,796)" />
</g>
</g>
<image preserveAspectRatio="none" x="258" y="756" width="32" height="71" xlink:href="img/3.png" />
<g clip-path="url(#c0_194)">
<g fill="#000000" >
<use xlink:href="#f0_y" transform="matrix(12,0,0,12,47.4,884.6)" />
<use xlink:href="#f0_y" transform="matrix(12,0,0,12,57.6,884.6)" />
<use xlink:href="#f0_1a" transform="matrix(12,0,0,12,72.6,884.6)" />
<use xlink:href="#f0_1q" transform="matrix(12,0,0,12,82.8,884.6)" />
<use xlink:href="#f0_13" transform="matrix(12,0,0,12,97.8,884.6)" />
<use xlink:href="#f0_y" transform="matrix(12,0,0,12,112.8,884.6)" />
<use xlink:href="#f0_n" transform="matrix(12,0,0,12,123.1,884.6)" />
<use xlink:href="#f0_1a" transform="matrix(12,0,0,12,128.3,884.6)" />
<use xlink:href="#f0_1b" transform="matrix(12,0,0,12,138.5,884.6)" />
<use xlink:href="#f0_1a" transform="matrix(12,0,0,12,148.8,884.6)" />
<use xlink:href="#f0_1s" transform="matrix(12,0,0,12,163.8,884.6)" />
<use xlink:href="#f0_1k" transform="matrix(12,0,0,12,178.8,884.6)" />
<use xlink:href="#f0_1s" transform="matrix(12,0,0,12,193.7,884.6)" />
<use xlink:href="#f0_1q" transform="matrix(12,0,0,12,208.7,884.6)" />
<use xlink:href="#f0_n" transform="matrix(12,0,0,12,219,884.6)" />
<use xlink:href="#f0_1n" transform="matrix(12,0,0,12,224.2,884.6)" />
<use xlink:href="#f0_1s" transform="matrix(12,0,0,12,239.2,884.6)" />
<use xlink:href="#f0_1a" transform="matrix(12,0,0,12,254.2,884.6)" />
<use xlink:href="#f0_1i" transform="matrix(12,0,0,12,264.4,884.6)" />
<use xlink:href="#f0_1a" transform="matrix(12,0,0,12,274.7,884.6)" />
<use xlink:href="#f0_2" transform="matrix(12,0,0,12,289.7,884.6)" />
<use xlink:href="#f0_d" transform="matrix(12,0,0,12,301.1,884.6)" />
<use xlink:href="#f0_b" transform="matrix(12,0,0,12,311.6,884.6)" />
<use xlink:href="#f0_t" transform="matrix(12,0,0,12,326.3,884.6)" />
<use xlink:href="#f0_1b" transform="matrix(12,0,0,12,336.5,884.6)" />
</g>
</g>
<image preserveAspectRatio="none" x="351" y="845" width="32" height="70" xlink:href="img/4.png" />
<g clip-path="url(#c0_194)">
<g fill="#000000" >
<use xlink:href="#f0_2" transform="matrix(12,0,0,12,47.4,973.2)" />
<use xlink:href="#f0_d" transform="matrix(12,0,0,12,58.8,973.2)" />
<use xlink:href="#f0_b" transform="matrix(12,0,0,12,69.3,973.2)" />
<use xlink:href="#f0_t" transform="matrix(12,0,0,12,84,973.2)" />
<use xlink:href="#f0_1b" transform="matrix(12,0,0,12,94.2,973.2)" />
</g>
</g>
<image preserveAspectRatio="none" x="108" y="933" width="250" height="71" xlink:href="img/5.png" />
<g clip-path="url(#c0_194)">
<g fill="#000000" >
<use xlink:href="#f0_2" transform="matrix(12,0,0,12,47.4,1061.8)" />
<use xlink:href="#f0_d" transform="matrix(12,0,0,12,58.8,1061.8)" />
<use xlink:href="#f0_b" transform="matrix(12,0,0,12,69.3,1061.8)" />
<use xlink:href="#f0_t" transform="matrix(12,0,0,12,84,1061.8)" />
<use xlink:href="#f0_1b" transform="matrix(12,0,0,12,94.2,1061.8)" />
</g>
</g>
<image preserveAspectRatio="none" x="108" y="1022" width="126" height="70" xlink:href="img/6.png" />
<image preserveAspectRatio="none" x="47" y="1111" width="110" height="70" xlink:href="img/7.png" />
<g fill="#000000" >
<use xlink:href="#f1_r" transform="matrix(12,0,0,12,835.7,1269.6)" />
<use xlink:href="#f1_n" transform="matrix(12,0,0,12,844.9,1269.6)" />
</g>
<defs>
<path d="M567,67c0,0,85,0,145,33c0,0,59,32,96,94c0,0,36,61,53,151c0,0,16,88,16,202c0,0,0,112,-16,203c0,0,-17,88,-53,150c0,0,-37,60,-96,93c0,0,-59,32,-144,32c0,0,-85,0,-144,-32c0,0,-61,-33,-97,-93c0,0,-38,-62,-55,-150c0,0,-17,-91,-17,-203c0,0,0,-114,17,-202c0,0,17,-90,54,-151c0,0,37,-62,97,-94c0,0,59,-33,144,-33ZM853,-350c-9,0,-65,0,-119,16c0,0,-60,16,-110,55c0,0,-50,38,-82,105c0,0,-33,65,-41,163c0,0,-106,11,-182,55c0,0,-79,43,-130,117c0,0,-52,72,-77,171c0,0,-26,97,-26,216c0,0,-1,126,30,231c0,0,29,103,89,176c0,0,59,72,151,113c0,0,90,39,212,40c0,0,115,-1,205,-40c0,0,88,-41,150,-113c0,0,61,-74,92,-177c0,0,32,-104,32,-231c0,0,0,-112,-25,-206c0,0,-25,-94,-72,-166c0,0,-49,-72,-119,-118C831,57,759,10,669,-5c0,0,6,-78,26,-131c0,0,18,-52,47,-84c0,0,29,-33,68,-45c0,0,39,-14,85,-14h25v-71H853Z" 
id="f0_1l"
transform="scale(0.001,-0.001)" />

<path d="M58,0V64H78c0,0,25,0,49,4c0,0,22,3,39,16c0,0,17,11,27,32c0,0,10,21,10,58V917c0,0,0,36,-10,57c0,0,-10,21,-27,34c0,0,-17,11,-39,15c0,0,-24,3,-49,3H58v65H503v-65H483c0,0,-26,0,-48,-3c0,0,-24,-3,-40,-14c0,0,-18,-12,-27,-32c0,0,-11,-21,-11,-54V76H659c0,0,34,0,59,13c0,0,23,12,39,32c0,0,16,19,25,44c0,0,7,24,11,49l15,114h75V0Z" 
id="f0_2"
transform="scale(0.001,-0.001)" />

<path d="M99,350v90H755V350Zm0,300v91H755V650Z" 
id="f0_13"
transform="scale(0.001,-0.001)" />

<path d="M147,0V64H249c0,0,26,0,49,4c0,0,23,3,40,16c0,0,16,11,27,32c0,0,9,21,9,58V976c0,0,-29,-35,-55,-64c0,0,-27,-29,-50,-50c0,0,-24,-22,-46,-32c0,0,-22,-12,-44,-12c0,0,-1,0,-1,0c0,0,-1,0,-1,0c-3,0,-35,0,-55,23c0,0,-21,21,-21,59c0,0,23,5,47,15c0,0,23,7,50,22c0,0,25,13,57,34c0,0,30,18,69,47l107,79h98V174c0,0,-1,-37,10,-58c0,0,9,-21,26,-32c0,0,17,-13,41,-16c0,0,22,-4,48,-4h75V0Z" 
id="f0_t"
transform="scale(0.001,-0.001)" />

<path d="M424,55c0,0,50,0,91,16c0,0,41,14,70,42c0,0,27,27,44,64c0,0,16,36,16,81c0,0,0,39,-15,72c0,0,-15,33,-46,65c0,0,-33,29,-83,60c0,0,-51,28,-125,61c0,0,-73,-39,-115,-100c0,0,-42,-63,-42,-149c0,0,0,-48,13,-86c0,0,12,-40,39,-67c0,0,24,-29,64,-43c0,0,39,-16,89,-16Zm31,565c0,0,43,21,72,45c0,0,27,21,44,50c0,0,16,27,23,59c0,0,7,32,7,73c0,0,0,34,-9,68c0,0,-11,34,-30,61c0,0,-22,25,-54,42c0,0,-34,16,-82,16c0,0,-43,0,-75,-13c0,0,-34,-15,-56,-39c0,0,-23,-24,-34,-58c0,0,-13,-34,-12,-73c0,0,0,-42,14,-74c0,0,12,-33,38,-59c0,0,25,-27,65,-50c0,0,38,-25,89,-48ZM421,-14c-1,0,-3,0,-4,0c0,0,-87,0,-151,21c0,0,-65,23,-108,62c0,0,-45,39,-65,92c0,0,-23,52,-23,113c0,0,0,54,18,97c0,0,16,41,49,74c0,0,31,32,73,58c0,0,42,25,93,50c0,0,-44,24,-80,53c0,0,-37,28,-63,63c0,0,-26,34,-40,75c0,0,-15,40,-15,89c0,0,-1,52,19,102c0,0,18,49,58,87c0,0,39,37,103,61c0,0,62,23,151,23c0,0,71,0,127,-19c0,0,55,-21,95,-55c0,0,38,-35,58,-83c0,0,20,-49,20,-106c0,0,0,-51,-15,-88c0,0,-15,-38,-41,-68c0,0,-27,-31,-65,-54c0,0,-39,-25,-85,-48c0,0,57,-28,104,-58c0,0,46,-30,80,-66c0,0,33,-37,52,-78c0,0,18,-41,18,-91c0,0,-1,-73,-26,-129c0,0,-26,-59,-74,-97C684,66,636,26,568,6c0,0,-66,-20,-147,-20Z" 
id="f0_1q"
transform="scale(0.001,-0.001)" />

<path d="M-16,-366v72H-1c7,0,50,1,86,15c0,0,38,13,64,46c0,0,26,31,40,86c0,0,14,54,14,135V923c0,0,0,33,-10,54c0,0,-11,20,-27,32c0,0,-18,11,-40,14c0,0,-24,3,-48,3H58v65H503v-65H483c0,0,-26,0,-49,-3c0,0,-24,-4,-39,-15c0,0,-18,-13,-27,-34c0,0,-11,-21,-11,-57V-11c0,0,0,-103,-27,-171c0,0,-26,-68,-73,-109c0,0,-47,-41,-111,-58c0,0,-65,-17,-137,-17Z" 
id="f0_1o"
transform="scale(0.001,-0.001)" />

<path d="M442,64c0,0,56,0,97,23c0,0,38,22,64,66c0,0,24,43,36,108c0,0,9,65,10,150c0,0,0,85,-11,149c0,0,-11,64,-36,108c0,0,-25,42,-64,64c0,0,-41,21,-98,21c0,0,-58,0,-97,-21c0,0,-39,-22,-64,-64c0,0,-25,-44,-36,-108c0,0,-11,-64,-11,-149c0,0,0,-85,11,-150c0,0,11,-65,37,-108c0,0,24,-44,65,-66c0,0,38,-23,97,-23Zm-3,-78c0,0,-83,0,-149,25c0,0,-66,26,-111,79c0,0,-47,52,-70,134c0,0,-25,79,-25,187c0,0,0,213,91,319c0,0,90,103,268,104c0,0,82,0,149,-25c0,0,65,-26,111,-79c0,0,46,-53,71,-132c0,0,23,-80,23,-187c0,0,0,-216,-91,-321C706,90,614,-14,439,-14Z" 
id="f0_d"
transform="scale(0.001,-0.001)" />

<path d="M51,0V64h4c0,0,26,0,49,4c0,0,23,3,40,16c0,0,16,11,27,32c0,0,10,21,10,58V650c0,0,0,33,-10,55c0,0,-11,20,-28,31c0,0,-17,11,-39,15c0,0,-24,3,-49,4H51v64H286L315,668h7c0,0,14,34,31,65c0,0,15,29,39,53c0,0,22,22,56,35c0,0,33,12,84,13c0,0,83,0,124,-29c0,0,41,-30,41,-82c0,0,0,-24,-8,-44c0,0,-9,-20,-25,-34c0,0,-17,-15,-44,-23c0,0,-27,-8,-66,-8c0,0,0,63,-18,92c0,0,-18,27,-62,27c0,0,-29,0,-51,-15c0,0,-22,-18,-39,-43c0,0,-17,-27,-28,-61c0,0,-13,-35,-19,-70c0,0,-8,-37,-10,-73c0,0,-4,-35,-3,-64V166c0,0,0,-33,10,-53c0,0,10,-22,27,-32c0,0,16,-10,40,-13c0,0,22,-4,48,-4h43V0Z" 
id="f0_i"
transform="scale(0.001,-0.001)" />

<path d="M46,-234v64c0,0,74,23,110,58c0,0,34,35,35,79c0,0,-1,15,-8,26c0,0,-9,8,-21,17c0,0,-13,6,-27,15c0,0,-15,7,-27,18c0,0,-13,9,-21,26c0,0,-8,14,-8,38c0,0,0,43,29,67c0,0,28,23,71,23c0,0,23,-1,45,-8c0,0,20,-9,37,-26c0,0,16,-17,26,-41c0,0,9,-27,9,-58c0,0,0,-48,-13,-93c0,0,-14,-46,-44,-84c0,0,-30,-40,-77,-70c0,0,-49,-31,-116,-51Z" 
id="f0_u"
transform="scale(0.001,-0.001)" />

<path d="M58,0V64H78c0,0,25,0,49,4c0,0,22,3,39,16c0,0,17,11,27,32c0,0,10,21,10,58V923c0,0,0,33,-10,54c0,0,-11,20,-27,32c0,0,-18,11,-40,14c0,0,-24,3,-48,3H58v65H503v-65H483c0,0,-26,0,-49,-3c0,0,-24,-4,-39,-15c0,0,-18,-13,-27,-34c0,0,-11,-21,-11,-57V608H854V917c0,0,0,36,-10,57c0,0,-10,21,-26,34c0,0,-18,11,-40,15c0,0,-24,3,-49,3H709v65h444v-65h-19c0,0,-26,0,-49,-3c0,0,-23,-4,-40,-15c0,0,-17,-13,-27,-34c0,0,-10,-21,-9,-57V166c0,0,0,-33,10,-53c0,0,10,-22,27,-32c0,0,16,-10,40,-13c0,0,22,-4,48,-4h19V0H709V64h20c0,0,25,0,49,4c0,0,22,3,40,16c0,0,16,11,26,32c0,0,10,21,10,58V532H357V174c0,0,0,-37,11,-58c0,0,9,-21,27,-32c0,0,15,-13,39,-16c0,0,23,-4,49,-4h20V0Z" 
id="f0_1f"
transform="scale(0.001,-0.001)" />

<path d="M38,359V474H436V359Z" 
id="f0_1m"
transform="scale(0.001,-0.001)" />

<path d="M501,385V668c0,0,0,33,0,74c0,0,0,40,0,82c0,0,0,41,0,83c0,0,0,41,6,77c0,0,-6,-11,-15,-28c0,0,-10,-18,-21,-39c0,0,-13,-23,-26,-46c0,0,-15,-24,-28,-46c0,0,-15,-24,-26,-42c0,0,-13,-21,-21,-34L136,385ZM328,0V64h43c0,0,26,0,50,4c0,0,22,3,39,16c0,0,17,11,27,32c0,0,10,21,10,58V299H26v63l472,729H643V385H833V299H643V174c0,0,0,-37,10,-58c0,0,10,-21,27,-32c0,0,16,-13,40,-16c0,0,22,-4,48,-4h21V0Z" 
id="f0_1n"
transform="scale(0.001,-0.001)" />

<path d="M78,0V112L333,407c0,0,61,70,103,126c0,0,40,56,66,106c0,0,25,49,37,97c0,0,11,47,11,100c0,0,0,43,-9,79c0,0,-11,35,-29,61c0,0,-19,25,-48,40c0,0,-31,13,-70,13c0,0,-53,0,-84,-18c0,0,-33,-20,-52,-50c0,0,-19,-31,-25,-73c0,0,-7,-41,-7,-86c0,0,-28,0,-51,4c0,0,-24,4,-42,17c0,0,-18,11,-28,30c0,0,-10,19,-10,48c0,0,0,43,19,82c0,0,19,37,57,65c0,0,36,28,93,43c0,0,56,15,130,15c0,0,72,0,130,-18c0,0,56,-19,97,-51c0,0,41,-34,62,-81c0,0,21,-47,21,-105c0,0,-1,-54,-17,-104c0,0,-18,-52,-50,-104c0,0,-33,-54,-80,-111c0,0,-48,-58,-108,-124L191,122H545c7,0,36,1,56,10c0,0,21,10,36,25c0,0,14,15,22,37c0,0,7,20,13,42l6,28h61V0Z" 
id="f0_y"
transform="scale(0.001,-0.001)" />

<path d="M427,67c0,0,56,0,94,33c0,0,38,32,62,94c0,0,23,61,34,151c0,0,10,88,10,202c0,0,0,112,-10,202c0,0,-11,88,-34,150c0,0,-24,60,-61,93c0,0,-39,31,-93,31c0,0,-56,0,-94,-31c0,0,-40,-33,-63,-93c0,0,-24,-62,-34,-150c0,0,-10,-90,-10,-202c0,0,0,-114,10,-202c0,0,10,-90,34,-151c0,0,23,-62,62,-94c0,0,38,-33,93,-33Zm0,-81c0,0,-94,0,-161,39c0,0,-69,41,-112,115c0,0,-44,73,-64,178c0,0,-22,103,-21,230c0,0,-1,126,21,230c0,0,20,103,64,176c0,0,44,72,112,113c0,0,67,39,163,39c0,0,89,0,157,-39c0,0,65,-41,111,-113c0,0,45,-73,67,-176c0,0,21,-104,22,-231c0,0,-1,-127,-22,-230c0,0,-22,-104,-67,-177C697,140,652,66,585,25c0,0,-67,-39,-158,-39Z" 
id="f0_1b"
transform="scale(0.001,-0.001)" />

<path d="M-6,365v90H771V365Z" 
id="f0_19"
transform="scale(0.001,-0.001)" />

<path d="M380,219V501H99v91H380V874h92V592H755V501H472V219Z" 
id="f0_1h"
transform="scale(0.001,-0.001)" />

<path d="M383,-14c-2,0,-4,0,-6,0h-1c-12,0,-79,1,-128,14c0,0,-56,12,-90,36c0,0,-36,23,-52,54c0,0,-17,30,-17,64c0,0,0,46,26,73c0,0,25,25,70,25c0,0,0,-40,13,-74c0,0,12,-35,38,-59c0,0,24,-24,61,-38c0,0,34,-14,79,-14c1,0,2,0,3,0c0,0,45,0,86,13c0,0,42,12,73,42c0,0,30,29,50,76c0,0,18,47,18,115c0,0,0,48,-18,88c0,0,-20,38,-55,67c0,0,-36,27,-88,43c0,0,-52,14,-115,15H281v78h49c0,0,50,0,94,17c0,0,44,16,77,47c0,0,31,29,50,74c0,0,19,43,19,98c0,0,0,45,-9,80c0,0,-10,34,-28,59c0,0,-21,25,-51,38c0,0,-32,12,-75,12c0,0,-53,0,-85,-18c0,0,-33,-20,-52,-50c0,0,-19,-31,-25,-73c0,0,-7,-41,-7,-86c0,0,-28,0,-52,4c0,0,-23,4,-41,17c0,0,-18,11,-28,30c0,0,-10,19,-10,48c0,0,0,43,19,82c0,0,19,37,57,65c0,0,38,28,94,43c0,0,56,15,130,15c0,0,71,0,131,-16c0,0,59,-17,101,-47c0,0,41,-31,65,-76c0,0,23,-46,23,-104c0,0,0,-51,-18,-97c0,0,-19,-46,-51,-82c0,0,-33,-38,-78,-63c0,0,-45,-27,-97,-39c0,0,27,-4,60,-10c0,0,32,-8,63,-21c0,0,32,-13,61,-33c0,0,28,-20,51,-50c0,0,21,-29,35,-67c0,0,12,-39,12,-89c0,0,0,-62,-16,-110c0,0,-17,-48,-45,-84c0,0,-29,-37,-67,-62c0,0,-38,-26,-81,-41C556,15,512,0,467,-6c0,0,-42,-8,-84,-8Z" 
id="f0_1a"
transform="scale(0.001,-0.001)" />

<path d="M421,0L142,946c0,0,-8,23,-17,39c0,0,-10,16,-22,25c0,0,-13,9,-30,13c0,0,-17,3,-39,3H13v65H434v-65H399c0,0,-46,0,-69,-17c0,0,-23,-18,-23,-56c0,0,0,-12,4,-26c0,0,3,-14,8,-30L460,408c0,0,18,-70,36,-136c0,0,16,-68,30,-122c0,0,11,59,27,130c0,0,14,71,35,144l182,656H880L1071,419c0,0,21,-77,39,-146c0,0,16,-71,27,-123c0,0,11,54,26,116c0,0,13,61,35,135l134,471c0,0,2,9,6,20c0,0,3,11,5,23c0,0,2,10,4,20c0,0,1,10,2,17c0,0,0,39,-25,57c0,0,-26,17,-76,17h-35v65h373v-65h-29c0,0,-23,0,-39,-4c0,0,-17,-5,-31,-17c0,0,-13,-13,-24,-36c0,0,-11,-24,-23,-61L1182,0H1045L796,856L562,0Z" 
id="f0_17"
transform="scale(0.001,-0.001)" />

<path d="M28,0V64H40c0,0,25,0,49,4c0,0,22,3,39,16c0,0,17,11,27,32c0,0,10,21,10,58V993c0,0,0,33,-10,54c0,0,-11,21,-27,32c0,0,-18,11,-40,15c0,0,-24,3,-48,3H28v64H308V825c0,0,0,-22,0,-43c0,0,-1,-24,-4,-43c0,0,0,-23,0,-44h6c0,0,68,139,225,139c0,0,65,-1,115,-17c0,0,50,-18,85,-54c0,0,34,-37,52,-93c0,0,18,-58,18,-135V174c0,0,0,-37,9,-58c0,0,9,-21,24,-32c0,0,16,-13,38,-16c0,0,21,-4,47,-4h4V0H662V527c0,0,0,50,-9,89c0,0,-10,39,-29,66c0,0,-20,26,-52,41c0,0,-33,13,-78,13c0,0,-49,0,-82,-17c0,0,-35,-18,-58,-50c0,0,-24,-33,-34,-78c0,0,-11,-46,-11,-102V166c0,0,0,-33,10,-53c0,0,10,-22,27,-32c0,0,17,-10,40,-13c0,0,22,-4,48,-4h5V0Z" 
id="f0_o"
transform="scale(0.001,-0.001)" />

<path d="M586,481c0,0,0,60,-9,111c0,0,-9,50,-29,85c0,0,-19,36,-51,56c0,0,-33,18,-79,19c0,0,-87,-1,-133,-69c0,0,-46,-69,-46,-202ZM439,-14c0,0,-83,0,-149,27c0,0,-66,28,-112,82c0,0,-46,53,-69,132c0,0,-25,77,-25,177c0,0,0,213,88,322c0,0,88,108,251,108c0,0,73,0,133,-23c0,0,58,-24,100,-69c0,0,41,-46,63,-114c0,0,21,-69,22,-159V399H233c0,0,0,-84,15,-143c0,0,15,-61,44,-99c0,0,28,-40,71,-57c0,0,40,-19,93,-19c1,0,2,0,4,0c0,0,38,0,73,9c0,0,33,9,62,24c0,0,26,14,48,34c0,0,21,18,35,40c0,0,10,-4,20,-19c0,0,9,-15,9,-33c0,0,0,-24,-16,-49c0,0,-17,-27,-50,-50C641,37,607,14,557,0c0,0,-50,-14,-118,-14Z" 
id="f0_3"
transform="scale(0.001,-0.001)" />

<path d="M43,0V64H55c0,0,26,0,49,4c0,0,23,3,40,16c0,0,16,11,27,32c0,0,10,21,10,58V650c0,0,0,33,-10,55c0,0,-11,20,-28,31c0,0,-17,11,-39,15c0,0,-24,3,-49,4H51v64H298L318,695h7c0,0,23,42,51,70c0,0,25,27,56,43c0,0,29,14,63,21c0,0,32,5,69,5c0,0,60,-1,108,-17c0,0,47,-18,81,-54c0,0,32,-37,50,-93c0,0,17,-58,18,-135V174c0,0,0,-37,9,-58c0,0,7,-21,23,-32c0,0,16,-13,38,-16c0,0,21,-4,47,-4h5V0H677V527c0,0,0,50,-9,89c0,0,-10,39,-29,66c0,0,-20,26,-52,41c0,0,-33,13,-78,13c0,0,-53,0,-88,-20c0,0,-36,-20,-57,-54c0,0,-22,-35,-31,-79c0,0,-10,-45,-9,-94V166c0,0,0,-33,10,-53c0,0,10,-22,27,-32c0,0,16,-10,40,-13c0,0,22,-4,48,-4h5V0Z" 
id="f0_7"
transform="scale(0.001,-0.001)" />

<path d="M367,-14c0,0,-59,0,-100,13c0,0,-42,10,-69,38c0,0,-27,27,-39,73c0,0,-14,45,-14,112V732H29v61c0,0,28,0,61,11c0,0,32,11,58,37c0,0,26,28,43,68c0,0,15,38,28,98h70V819H489V732H289V217c0,0,-1,-78,32,-115c0,0,30,-36,83,-36c0,0,1,0,1,0c0,0,2,0,6,0c9,0,28,0,45,3c0,0,23,3,47,7V9C503,9,492,4,477,0c0,0,-15,-3,-33,-6c0,0,-20,-5,-39,-6c0,0,-20,-2,-38,-2Z" 
id="f0_4"
transform="scale(0.001,-0.001)" />

<path d="M351,-291c2,0,3,0,5,0c0,0,1,0,2,0c12,0,84,1,134,15c0,0,52,13,84,38c0,0,31,23,44,58c0,0,12,34,13,74c0,0,0,35,-10,59c0,0,-11,22,-30,35c0,0,-20,12,-49,17c0,0,-29,5,-67,5H327c0,0,-33,0,-62,-5c0,0,-31,-5,-54,-20c0,0,-24,-17,-38,-44c0,0,-15,-29,-14,-74c0,0,0,-34,9,-63c0,0,9,-29,31,-50c0,0,23,-22,61,-33c0,0,35,-12,91,-12Zm34,658c0,0,1,0,1,0c0,0,37,0,64,11c0,0,24,11,42,35c0,0,15,22,23,59c0,0,7,35,7,86c0,0,0,103,-31,152c0,0,-31,49,-106,49c0,0,-74,0,-105,-50c0,0,-33,-50,-32,-153c0,0,0,-98,32,-143c0,0,32,-46,105,-46ZM353,-366c-8,0,-162,1,-239,59c0,0,-80,59,-79,164c0,0,0,45,16,78c0,0,15,34,42,58c0,0,26,22,61,38c0,0,34,14,72,21c0,0,-16,7,-31,18c0,0,-14,11,-26,27c0,0,-13,16,-20,36c0,0,-8,20,-7,45c0,0,0,45,24,79c0,0,23,32,76,64c0,0,-33,13,-58,37c0,0,-27,23,-44,54c0,0,-18,30,-27,65c0,0,-10,36,-9,74c0,0,0,66,18,119c0,0,18,51,53,89c0,0,36,36,90,56c0,0,53,18,126,19c0,0,28,-1,54,-4c0,0,26,-4,50,-11c0,0,22,-8,41,-16c0,0,18,-9,29,-19c0,0,12,12,27,27c0,0,14,14,33,27c0,0,19,12,41,20c0,0,21,7,47,8c0,0,23,-1,40,-6c0,0,17,-7,28,-17c0,0,11,-11,17,-25c0,0,5,-15,5,-31c0,0,0,-17,-4,-31c0,0,-6,-15,-15,-25c0,0,-10,-12,-25,-17c0,0,-15,-7,-36,-7c0,0,0,9,-2,18c0,0,-3,9,-8,17c0,0,-6,7,-16,13c0,0,-10,4,-25,4c0,0,-19,0,-35,-4c0,0,-16,-5,-31,-14c0,0,26,-33,44,-76c0,0,16,-44,16,-109c0,0,-1,-57,-17,-105c0,0,-17,-48,-51,-82c0,0,-35,-36,-86,-56c0,0,-52,-19,-121,-19H348c0,0,-11,0,-21,1c0,0,-10,1,-15,3c0,0,-15,-9,-29,-17c0,0,-13,-9,-23,-20c0,0,-11,-11,-16,-25c0,0,-6,-15,-6,-32c0,0,-1,-19,7,-29c0,0,7,-12,20,-18c0,0,12,-7,30,-8c0,0,17,-2,38,-2H506c0,0,68,-1,116,-17c0,0,48,-17,78,-47c0,0,30,-32,44,-73c0,0,14,-41,14,-90c0,0,-1,-67,-24,-119c0,0,-25,-53,-75,-89c0,0,-50,-38,-126,-58c0,0,-77,-20,-180,-20Z" 
id="f0_b"
transform="scale(0.001,-0.001)" />

<path d="M348,79c0,0,46,0,85,15c0,0,36,14,64,42c0,0,25,27,40,66c0,0,14,39,14,87V412H454c0,0,-65,0,-109,-14c0,0,-44,-13,-70,-36c0,0,-27,-25,-39,-59c0,0,-12,-35,-11,-80c0,0,0,-73,30,-108c0,0,29,-36,93,-36ZM313,-14c0,0,-50,0,-94,14c0,0,-44,14,-75,45c0,0,-33,30,-50,77c0,0,-18,47,-18,109c0,0,0,123,87,182c0,0,85,59,261,60H551v93c0,0,0,42,-4,78c0,0,-5,34,-20,60c0,0,-15,26,-42,40c0,0,-28,14,-75,14c0,0,-44,0,-71,-12c0,0,-29,-13,-43,-35c0,0,-16,-23,-21,-53c0,0,-6,-31,-5,-66c0,0,-64,0,-96,21c0,0,-34,21,-34,75c0,0,0,39,22,67c0,0,21,28,60,45c0,0,36,17,87,26c0,0,49,7,107,8c0,0,69,0,122,-13c0,0,52,-15,87,-46c0,0,34,-31,53,-81c0,0,17,-52,17,-124V174c0,0,0,-33,5,-53c0,0,6,-22,17,-34c0,0,10,-12,30,-18c0,0,15,-5,38,-5c2,0,3,0,5,0h4V0H588L564,131H551c0,0,-24,-33,-46,-59c0,0,-22,-27,-49,-46C456,26,429,6,395,-3c0,0,-35,-11,-82,-11Z" 
id="f0_6"
transform="scale(0.001,-0.001)" />

<path d="M321,-14c0,0,-58,0,-104,11c0,0,-48,7,-80,29c0,0,-33,20,-50,51c0,0,-18,30,-18,70c0,0,0,30,10,51c0,0,10,20,25,33c0,0,14,11,31,17c0,0,16,4,30,4c0,0,0,-41,8,-75c0,0,8,-36,28,-61c0,0,18,-28,51,-42c0,0,31,-16,78,-16c0,0,41,0,72,11c0,0,31,9,53,28c0,0,21,18,32,44c0,0,11,25,11,56c0,0,0,28,-8,49c0,0,-9,20,-30,38c0,0,-21,17,-58,37c0,0,-37,18,-92,42c0,0,-59,26,-102,51c0,0,-45,23,-72,52c0,0,-29,28,-43,65c0,0,-15,35,-14,86c0,0,-1,52,21,92c0,0,20,40,58,68c0,0,38,26,91,41c0,0,52,15,118,15c0,0,54,0,96,-12c0,0,41,-11,70,-30c0,0,28,-19,43,-44c0,0,14,-27,14,-55c0,0,-1,-42,-28,-66c0,0,-29,-25,-80,-25c-1,0,-2,0,-2,0c0,0,0,76,-32,119c0,0,-32,42,-100,42c0,0,-39,0,-66,-9c0,0,-28,-9,-45,-25c0,0,-18,-17,-26,-39c0,0,-8,-22,-8,-49c0,0,0,-29,10,-50c0,0,10,-22,34,-39c0,0,22,-18,59,-35c0,0,36,-17,86,-38c0,0,60,-26,104,-50c0,0,43,-24,72,-54c0,0,27,-29,41,-65c0,0,13,-37,13,-84c0,0,-1,-60,-21,-105c0,0,-23,-45,-62,-74C539,46,499,14,445,0c0,0,-56,-14,-124,-14Z" 
id="f0_c"
transform="scale(0.001,-0.001)" />

<path d="M35,0V64H55c0,0,25,0,49,4c0,0,22,3,39,13c0,0,17,10,28,32c0,0,10,20,10,53V650c0,0,0,33,-10,55c0,0,-11,20,-28,31c0,0,-17,11,-39,15c0,0,-24,3,-49,4H51v64H324V174c0,0,0,-37,10,-58c0,0,10,-21,27,-32c0,0,16,-13,40,-16c0,0,22,-4,48,-4h20V0ZM249,972c-1,0,-2,0,-3,0c0,0,-1,0,-2,0c-5,0,-20,0,-32,5c0,0,-16,5,-28,16c0,0,-12,11,-18,29c0,0,-7,18,-7,45c0,0,0,27,7,45c0,0,6,17,18,29c0,0,12,11,28,15c0,0,15,5,34,5c0,0,18,0,34,-5c0,0,15,-4,27,-15c0,0,11,-12,19,-29c0,0,7,-18,7,-45c0,0,0,-27,-7,-45c0,0,-8,-18,-19,-29c0,0,-12,-11,-27,-16c0,0,-14,-5,-31,-5Z" 
id="f0_8"
transform="scale(0.001,-0.001)" />

<path d="M433,-14c0,0,-77,0,-141,23c0,0,-64,23,-110,74c0,0,-46,50,-72,130c0,0,-26,79,-26,192c0,0,0,122,26,205c0,0,26,82,72,132c0,0,46,49,108,71c0,0,61,21,134,21c0,0,47,0,96,-9c0,0,47,-10,85,-29c0,0,38,-19,62,-49c0,0,23,-30,24,-69c0,0,0,-54,-35,-74c0,0,-35,-22,-102,-22c0,0,0,35,-6,68c0,0,-6,32,-20,56c0,0,-15,24,-39,38c0,0,-26,14,-65,14c0,0,-44,0,-79,-16c0,0,-35,-18,-61,-57c0,0,-26,-40,-39,-108c0,0,-13,-69,-13,-170c0,0,-1,-164,54,-243c0,0,54,-80,177,-80h1c6,0,72,1,123,30c0,0,52,30,79,77c0,0,11,-10,19,-24c0,0,7,-15,7,-36c0,0,0,-27,-16,-52c0,0,-17,-26,-49,-47C627,32,594,10,546,0c0,0,-48,-14,-113,-14Z" 
id="f0_k"
transform="scale(0.001,-0.001)" />

<path d="M421,83c0,0,59,0,100,20c0,0,39,19,65,60c0,0,23,39,34,101c0,0,10,61,10,144c0,0,0,79,-10,141c0,0,-11,61,-34,103c0,0,-25,41,-65,63c0,0,-41,21,-101,21c0,0,-51,0,-86,-21c0,0,-36,-23,-58,-64c0,0,-24,-42,-34,-103c0,0,-10,-62,-10,-141c0,0,0,-163,44,-244c0,0,43,-80,145,-80ZM395,-14c-8,0,-78,1,-133,24c0,0,-59,24,-98,77c0,0,-39,52,-60,132c0,0,-20,79,-20,189c0,0,0,110,20,191c0,0,21,80,60,133c0,0,39,51,98,77c0,0,58,25,133,25c0,0,44,0,80,-10c0,0,36,-10,65,-27c0,0,28,-18,51,-43c0,0,21,-24,39,-54h4c0,0,0,36,0,70c0,0,0,27,0,57c0,0,0,27,0,41V993c0,0,-1,33,-10,54c0,0,-11,21,-29,32c0,0,-18,11,-41,15c0,0,-24,3,-49,3H492v64H773V168c0,0,0,-34,10,-54c0,0,10,-21,27,-32c0,0,17,-11,40,-14c0,0,22,-4,48,-4h13V0H652L636,137h-6c0,0,-18,-35,-39,-62c0,0,-23,-29,-51,-48C540,27,512,6,476,-3c0,0,-36,-11,-81,-11Z" 
id="f0_9"
transform="scale(0.001,-0.001)" />

<path d="M417,-14c0,0,-60,0,-107,16c0,0,-47,17,-79,54c0,0,-33,36,-49,93c0,0,-17,57,-17,135V650c0,0,0,33,-10,55c0,0,-11,20,-27,31c0,0,-18,11,-40,15c0,0,-24,3,-48,4H35v64H309V292c0,0,0,-51,8,-89c0,0,7,-40,26,-66c0,0,18,-27,49,-40c0,0,29,-14,74,-14c1,0,2,0,3,0c0,0,50,0,88,18c0,0,35,18,59,50c0,0,23,32,34,78c0,0,12,46,12,101V645c0,0,0,35,-10,58c0,0,-10,21,-27,33c0,0,-17,11,-39,15c0,0,-24,3,-50,4h-4v64H805V166c0,0,0,-33,10,-53c0,0,10,-22,27,-32c0,0,17,-10,41,-13c0,0,21,-4,47,-4h5V0H692L672,124h-7c0,0,-24,-44,-51,-70c0,0,-28,-28,-60,-42c0,0,-31,-15,-65,-20c0,0,-35,-6,-72,-6Z" 
id="f0_m"
transform="scale(0.001,-0.001)" />

<path d="M557,-14c-2,0,-4,0,-6,0c0,0,-115,0,-200,39c0,0,-87,41,-145,115c0,0,-60,73,-89,177c0,0,-30,103,-30,230c0,0,0,124,32,227c0,0,31,103,93,176c0,0,61,73,153,115c0,0,92,41,212,41c0,0,79,0,137,-12c0,0,57,-14,96,-37c0,0,38,-24,58,-54c0,0,18,-32,18,-68c0,0,0,-26,-9,-44c0,0,-11,-20,-29,-34c0,0,-18,-15,-42,-21c0,0,-23,-8,-49,-8c-1,0,-2,0,-4,0c0,0,0,36,-9,71c0,0,-10,34,-30,63c0,0,-22,28,-55,46c0,0,-35,16,-85,17c0,0,-86,0,-147,-31c0,0,-60,-33,-98,-93c0,0,-39,-62,-55,-150c0,0,-17,-89,-17,-204c0,0,0,-102,18,-187c0,0,17,-85,56,-146c0,0,39,-62,99,-95c0,0,59,-33,144,-33c0,0,56,0,100,11c0,0,42,10,75,28c0,0,32,18,58,42c0,0,25,22,44,49c0,0,12,-9,21,-23c0,0,8,-15,8,-37c0,0,0,-29,-19,-59c0,0,-20,-31,-61,-55C800,42,759,17,698,1c0,0,-59,-15,-141,-15Z" 
id="f0_1g"
transform="scale(0.001,-0.001)" />

<path d="M58,-366v72h1c8,0,79,1,133,23c0,0,55,24,97,64c0,0,39,40,68,95c0,0,26,55,45,118L119,674c0,0,-10,23,-20,39c0,0,-10,14,-21,25c0,0,-13,9,-29,13c0,0,-17,3,-39,4H6v64H373V755h-4c0,0,-47,0,-69,-18c0,0,-24,-18,-23,-56c0,0,-1,-13,3,-25c0,0,2,-14,9,-31L401,353c0,0,9,-27,22,-57c0,0,11,-31,22,-61c0,0,9,-31,18,-57c0,0,7,-28,11,-47h4c0,0,8,34,23,82c0,0,14,48,34,103L637,614c0,0,7,19,11,36c0,0,2,16,2,30c0,0,0,38,-24,57c0,0,-26,18,-76,18h-5v64H863V755h-4c0,0,-23,0,-38,-5c0,0,-18,-6,-30,-18c0,0,-13,-14,-24,-37c0,0,-11,-24,-25,-59L510,-5c0,0,-27,-74,-50,-130c0,0,-25,-56,-50,-95c0,0,-27,-41,-57,-67c0,0,-32,-26,-71,-41c0,0,-40,-17,-91,-22c0,0,-51,-6,-119,-6Z" 
id="f0_j"
transform="scale(0.001,-0.001)" />

<path d="M20,0V64H40c0,0,25,0,49,4c0,0,22,3,39,16c0,0,17,11,27,32c0,0,10,21,10,58V993c0,0,0,33,-10,54c0,0,-11,21,-27,32c0,0,-18,11,-40,15c0,0,-24,3,-48,3H20v64H309V174c0,0,-1,-37,10,-58c0,0,9,-21,26,-32c0,0,17,-13,41,-16c0,0,22,-4,48,-4h20V0Z" 
id="f0_a"
transform="scale(0.001,-0.001)" />

<path d="M518,83c0,0,50,0,86,21c0,0,35,21,58,63c0,0,23,41,33,104c0,0,10,61,11,142c0,0,-1,80,-11,142c0,0,-10,60,-33,101c0,0,-23,40,-58,60c0,0,-38,20,-88,20c0,0,-60,0,-99,-19c0,0,-41,-20,-64,-61c0,0,-24,-40,-34,-101c0,0,-10,-62,-10,-144c0,0,0,-80,10,-141c0,0,10,-62,35,-103c0,0,23,-42,64,-63c0,0,39,-21,100,-21Zm27,-97c-1,0,-2,0,-3,0h-2c-8,0,-46,1,-77,10c0,0,-37,8,-65,26c0,0,-29,18,-50,43c0,0,-23,24,-39,54H299L272,0H28V64H40c0,0,25,0,49,4c0,0,22,3,39,16c0,0,17,11,27,32c0,0,10,21,10,58V993c0,0,0,33,-10,54c0,0,-11,21,-27,32c0,0,-18,11,-40,15c0,0,-24,3,-48,3H28v64H306V880c0,0,0,-26,0,-59c0,0,0,-35,0,-66c0,0,0,-36,0,-74h3c0,0,16,34,39,63c0,0,21,28,50,49c0,0,27,19,64,31c0,0,36,9,80,10c0,0,75,0,134,-25c0,0,58,-26,98,-76c0,0,38,-53,60,-132c0,0,20,-80,20,-190c0,0,0,-111,-20,-191c0,0,-22,-80,-60,-133c0,0,-40,-53,-98,-77c0,0,-57,-24,-131,-24Z" 
id="f0_11"
transform="scale(0.001,-0.001)" />

<path d="M43,0V64H63c0,0,25,0,47,4c0,0,21,3,38,16c0,0,15,11,24,32c0,0,8,21,9,58V650c0,0,0,33,-9,55c0,0,-9,20,-25,31c0,0,-16,11,-37,15c0,0,-22,3,-47,4H58v64H298L318,695h7c0,0,23,42,49,70c0,0,25,27,54,43c0,0,28,14,61,21c0,0,31,5,67,5c0,0,36,0,71,-7c0,0,33,-9,62,-24c0,0,28,-17,52,-43c0,0,21,-27,36,-65h13c0,0,23,42,50,70c0,0,27,27,57,43c0,0,30,14,64,21c0,0,32,5,68,5c0,0,59,-1,105,-17c0,0,45,-18,78,-54c0,0,32,-37,49,-93c0,0,17,-58,18,-135V174c0,0,0,-37,9,-58c0,0,9,-21,24,-32c0,0,16,-13,37,-16c0,0,21,-4,47,-4h5V0H1135V527c0,0,0,50,-8,89c0,0,-9,39,-27,66c0,0,-21,26,-50,41c0,0,-32,13,-75,13c0,0,-48,0,-80,-18c0,0,-33,-19,-53,-50c0,0,-21,-31,-28,-72c0,0,-9,-42,-9,-87V174c0,0,0,-37,9,-58c0,0,9,-21,24,-32c0,0,16,-13,38,-16c0,0,21,-4,47,-4h4V0H662V527c0,0,-1,50,-9,89c0,0,-8,39,-27,66c0,0,-20,26,-50,41c0,0,-31,13,-75,13c0,0,-50,0,-83,-20c0,0,-35,-20,-55,-54c0,0,-22,-35,-30,-79c0,0,-9,-45,-9,-94V166c0,0,0,-33,10,-53c0,0,10,-22,27,-32c0,0,16,-10,40,-13c0,0,22,-4,48,-4h5V0Z" 
id="f0_l"
transform="scale(0.001,-0.001)" />

<path d="M7,0V64H22c0,0,26,0,48,5c0,0,20,4,40,15c0,0,18,11,37,31c0,0,19,19,41,47L380,411L188,674c0,0,-34,38,-65,60c0,0,-33,21,-66,21H37v64H424V755h-4c0,0,-27,0,-43,-3c0,0,-17,-5,-27,-10c0,0,-11,-7,-14,-15c0,0,-3,-8,-3,-17c0,0,-1,-16,9,-30c0,0,9,-17,27,-40L469,503l79,114c0,0,17,25,28,49c0,0,10,23,10,44c0,0,0,28,-23,37c0,0,-24,7,-59,8h-4v64H834V755H821c0,0,-23,-1,-41,-4c0,0,-19,-4,-36,-14c0,0,-17,-11,-36,-30c0,0,-19,-20,-42,-50L509,448L733,145c0,0,34,-44,64,-62c0,0,29,-19,57,-19q1,0,2,0h20V0H481V64h8c0,0,91,0,91,51c0,0,0,7,-2,17c0,0,-2,8,-9,20c0,0,-7,11,-18,28c0,0,-11,16,-29,40L420,357L313,208c0,0,-6,-9,-14,-21c0,0,-8,-12,-13,-24c0,0,-7,-14,-10,-26c0,0,-4,-13,-4,-25c0,0,0,-27,22,-37c0,0,21,-11,73,-11h4V0Z" 
id="f0_f"
transform="scale(0.001,-0.001)" />

<path d="M518,83c0,0,50,0,86,21c0,0,35,21,58,63c0,0,23,41,33,104c0,0,10,61,11,142c0,0,-1,80,-11,142c0,0,-10,60,-33,101c0,0,-23,40,-58,60c0,0,-38,20,-88,20c0,0,-60,0,-99,-19c0,0,-41,-20,-64,-61c0,0,-24,-40,-34,-101c0,0,-10,-62,-10,-144c0,0,0,-80,10,-141c0,0,10,-62,35,-103c0,0,23,-42,64,-63c0,0,39,-21,100,-21ZM28,-366v64H40c0,0,25,0,49,4c0,0,22,3,39,16c0,0,17,11,27,33c0,0,10,21,10,58V650c0,0,0,33,-10,55c0,0,-11,20,-27,31c0,0,-18,11,-40,15c0,0,-24,3,-48,4H20v64H287L303,681h6c0,0,16,34,39,63c0,0,21,28,50,49c0,0,27,19,64,31c0,0,36,9,80,10c0,0,75,0,134,-25c0,0,58,-26,98,-76c0,0,38,-53,60,-132c0,0,20,-80,20,-190c0,0,0,-111,-20,-191c0,0,-22,-80,-60,-133c0,0,-40,-53,-98,-77c0,0,-57,-24,-131,-24c-1,0,-2,0,-3,0h-2c-8,0,-46,1,-77,10c0,0,-37,8,-65,26c0,0,-29,18,-50,43c0,0,-23,24,-39,54h-3c0,0,0,-39,0,-73c0,0,0,-15,0,-30c0,0,0,-15,0,-28c0,0,0,-14,0,-24c0,0,0,-11,0,-17V-199c0,0,0,-33,10,-54c0,0,10,-21,28,-31c0,0,17,-11,41,-14c0,0,23,-4,49,-4h5v-64Z" 
id="f0_g"
transform="scale(0.001,-0.001)" />

<path d="M421,83c0,0,59,0,100,20c0,0,39,19,65,60c0,0,23,39,34,101c0,0,10,61,10,144c0,0,0,79,-10,141c0,0,-11,61,-34,103c0,0,-25,41,-65,63c0,0,-41,21,-101,21c0,0,-51,0,-86,-21c0,0,-36,-23,-58,-64c0,0,-24,-42,-34,-103c0,0,-10,-62,-10,-141c0,0,0,-163,44,-244c0,0,43,-80,145,-80Zm33,-449v64h51c0,0,26,0,50,4c0,0,22,3,40,16c0,0,17,11,27,33c0,0,10,21,11,58V-60c0,0,0,25,0,60c0,0,0,33,0,64c0,0,0,36,0,73h-3c0,0,-18,-35,-39,-62c0,0,-23,-29,-51,-48C540,27,512,6,476,-3c0,0,-36,-11,-81,-11c-8,0,-78,1,-133,24c0,0,-59,24,-98,77c0,0,-39,52,-60,132c0,0,-20,79,-20,189c0,0,0,110,20,191c0,0,21,80,60,133c0,0,39,51,98,77c0,0,58,25,133,25c0,0,44,0,80,-10c0,0,36,-10,65,-27c0,0,28,-18,51,-43c0,0,21,-24,39,-54h9l27,119H911V755H898c0,0,-26,-1,-48,-4c0,0,-24,-4,-40,-15c0,0,-17,-12,-27,-33c0,0,-10,-23,-10,-58V-197c0,0,0,-34,10,-54c0,0,10,-22,27,-32c0,0,17,-12,40,-15c0,0,22,-4,48,-4h13v-64Z" 
id="f0_1r"
transform="scale(0.001,-0.001)" />

<path d="M315,0L115,674c0,0,-9,23,-19,39c0,0,-10,15,-22,26c0,0,-13,8,-29,12c0,0,-17,3,-39,4H1v64H379V755H359c0,0,-46,0,-69,-13c0,0,-24,-15,-23,-51c0,0,0,-13,5,-31c0,0,3,-18,8,-35L351,369c0,0,8,-29,16,-61c0,0,7,-33,16,-65c0,0,6,-33,12,-61c0,0,6,-29,10,-48h5c0,0,3,19,10,46c0,0,5,24,15,55c0,0,7,29,18,60c0,0,9,30,19,58L631,815h96L880,362c0,0,9,-29,20,-59c0,0,9,-33,18,-63c0,0,9,-31,17,-59c0,0,7,-28,11,-47h4c0,0,7,38,22,94c0,0,14,55,38,129l76,247c0,0,5,18,11,41c0,0,3,21,3,35c0,0,0,38,-24,57c0,0,-26,18,-77,18H988v64h327V755h-19c0,0,-23,0,-39,-5c0,0,-17,-5,-29,-17c0,0,-14,-13,-25,-36c0,0,-11,-24,-22,-61L984,0H862L680,538L652,639L436,0Z" 
id="f0_e"
transform="scale(0.001,-0.001)" />

<path d="M28,0V64H40c0,0,25,0,49,4c0,0,22,3,39,16c0,0,17,11,27,32c0,0,10,21,10,58V993c0,0,0,33,-10,54c0,0,-11,21,-27,32c0,0,-18,11,-40,15c0,0,-24,3,-48,3H28v64H306V571c0,0,0,-21,0,-53c0,0,0,-32,0,-64c0,0,0,-36,0,-75L495,588c0,0,24,27,40,48c0,0,16,21,25,37c0,0,10,16,14,28c0,0,3,12,3,23c0,0,0,19,-18,26c0,0,-19,5,-56,5v64H840V755c0,0,-54,-1,-104,-37c0,0,-52,-38,-111,-106L518,492L721,189c0,0,39,-61,79,-93c0,0,38,-32,89,-32q1,0,2,0h4V0H874c0,0,-67,0,-109,4c0,0,-44,3,-75,20c0,0,-32,14,-57,45c0,0,-27,29,-59,79L421,388L309,304V166c0,0,0,-33,10,-53c0,0,10,-22,27,-32c0,0,17,-10,40,-13c0,0,22,-4,48,-4h5V0Z" 
id="f0_10"
transform="scale(0.001,-0.001)" />

<path d="M222,-9c-1,0,-2,0,-3,0c0,0,-1,0,-3,0c-6,0,-22,0,-35,5c0,0,-18,4,-30,16c0,0,-14,12,-21,32c0,0,-8,20,-8,49c0,0,0,30,8,50c0,0,7,19,21,32c0,0,12,11,30,17c0,0,17,5,38,5c0,0,18,0,37,-5c0,0,16,-6,30,-17c0,0,12,-13,21,-32c0,0,8,-20,8,-50c0,0,0,-29,-8,-49c0,0,-9,-20,-21,-32C286,12,272,0,256,-4c0,0,-17,-5,-34,-5Z" 
id="f0_n"
transform="scale(0.001,-0.001)" />

<path d="M458,0L128,946c0,0,-8,23,-18,39c0,0,-10,16,-22,25c0,0,-13,9,-29,13c0,0,-17,3,-39,3H0v65H420v-65H385c0,0,-46,0,-69,-17c0,0,-24,-18,-23,-56c0,0,0,-12,4,-26c0,0,3,-14,9,-30L474,401c0,0,22,-69,39,-132c0,0,17,-65,29,-119c0,0,12,54,29,117c0,0,15,61,41,134L781,886c0,0,5,19,10,36c0,0,3,16,3,30c0,0,0,39,-24,57c0,0,-26,17,-76,17H659v65h372v-65h-29c0,0,-23,0,-38,-4c0,0,-17,-5,-29,-17c0,0,-14,-14,-25,-37c0,0,-12,-24,-24,-60L570,0Z" 
id="f0_v"
transform="scale(0.001,-0.001)" />

<path d="M58,0V64H78c0,0,25,0,49,4c0,0,22,3,39,16c0,0,17,11,27,32c0,0,10,21,10,58V917c0,0,0,36,-10,57c0,0,-10,21,-27,34c0,0,-17,11,-39,15c0,0,-24,3,-49,3H58v65H503v-65H483c0,0,-26,0,-49,-3c0,0,-24,-4,-39,-15c0,0,-18,-13,-27,-34c0,0,-11,-21,-11,-57V174c0,0,0,-37,11,-58c0,0,9,-21,27,-32c0,0,15,-13,39,-16c0,0,23,-4,49,-4h20V0Z" 
id="f0_1c"
transform="scale(0.001,-0.001)" />

<path d="M58,0V64H78c0,0,24,0,48,4c0,0,22,3,40,13c0,0,16,10,27,32c0,0,10,20,10,53V923c0,0,0,33,-10,54c0,0,-11,20,-27,32c0,0,-18,11,-40,14c0,0,-24,3,-48,3H58v65H832V824H756l-7,65c0,0,-4,26,-12,49c0,0,-9,23,-25,40c0,0,-17,16,-43,27c0,0,-26,10,-61,10H357V573H726V498H357V174c0,0,0,-37,11,-58c0,0,9,-21,27,-32c0,0,15,-13,39,-16c0,0,23,-4,49,-4h50V0Z" 
id="f0_12"
transform="scale(0.001,-0.001)" />

<path d="M465,553c0,0,67,0,112,15c0,0,44,14,71,44c0,0,26,30,39,75c0,0,11,45,11,104c0,0,-1,61,-12,105c0,0,-14,42,-41,70c0,0,-29,27,-74,40c0,0,-46,12,-110,12H357V553ZM982,0C963,0,909,0,873,5c0,0,-46,5,-79,20c0,0,-32,15,-54,42c0,0,-24,26,-49,70L484,481H357V166c0,0,0,-33,11,-53c0,0,9,-22,27,-32c0,0,16,-10,40,-13c0,0,22,-4,48,-4h20V0H58V64H78c0,0,24,0,48,4c0,0,22,3,40,13c0,0,16,10,27,32c0,0,10,20,10,53V923c0,0,0,33,-10,54c0,0,-11,20,-27,32c0,0,-18,11,-40,14c0,0,-24,3,-48,3H58v65H469c0,0,198,-1,296,-73c0,0,97,-74,97,-222c0,0,-1,-62,-20,-107c0,0,-20,-46,-52,-80c0,0,-33,-33,-72,-55c0,0,-41,-23,-81,-36L847,186c0,0,38,-61,75,-91c0,0,37,-31,85,-31h5V0H990c0,0,-3,0,-8,0Z" 
id="f0_15"
transform="scale(0.001,-0.001)" />

<path d="M229,0V64h35c0,0,25,0,49,4c0,0,22,3,39,13c0,0,17,10,28,32c0,0,9,20,9,53v849H243c0,0,-33,0,-56,-10c0,0,-24,-11,-37,-28c0,0,-15,-17,-22,-39c0,0,-8,-24,-10,-49l-8,-65H34v267H902V824H827l-8,65c0,0,-4,25,-10,49c0,0,-9,22,-22,39c0,0,-15,17,-37,28c0,0,-24,10,-58,10H544V174c0,0,0,-37,10,-58c0,0,10,-21,27,-32c0,0,16,-13,40,-16c0,0,22,-4,48,-4h35V0Z" 
id="f0_z"
transform="scale(0.001,-0.001)" />

<path d="M172,229l-64,66L362,548L108,800l64,65L426,611L680,866l64,-66L490,547L744,293L680,229L426,483L172,229Z" 
id="f0_1s"
transform="scale(0.001,-0.001)" />

<path d="M377,-14c-2,0,-3,0,-4,0c0,0,-86,0,-140,14c0,0,-57,14,-89,37c0,0,-33,21,-46,50c0,0,-14,26,-14,52c0,0,0,42,24,66c0,0,23,23,73,24c0,0,-1,-34,11,-61c0,0,11,-28,35,-49c0,0,22,-21,57,-32c0,0,33,-12,77,-12c1,0,2,0,4,0c0,0,47,0,87,13c0,0,39,12,69,43c0,0,29,29,46,80c0,0,16,49,16,122c0,0,0,60,-16,105c0,0,-17,44,-47,74c0,0,-31,30,-73,45c0,0,-43,14,-96,14c0,0,-40,0,-68,-3c0,0,-29,-3,-50,-7c0,0,-23,-6,-39,-11c0,0,-17,-7,-31,-12l-36,10l49,541H690V859H630l-6,45c0,0,-3,16,-6,28c0,0,-5,12,-14,20c0,0,-9,7,-24,11c0,0,-16,3,-39,4H245L216,631c0,0,23,8,67,17c0,0,42,7,111,8c0,0,74,0,138,-20c0,0,63,-21,110,-61c0,0,47,-40,74,-101c0,0,26,-61,26,-141c0,0,0,-79,-24,-142c0,0,-26,-64,-73,-110C645,81,597,35,529,10c0,0,-67,-24,-152,-24Z" 
id="f0_1k"
transform="scale(0.001,-0.001)" />

<path d="M290,0L650,967H249c0,0,-82,-1,-89,-78l-6,-76H94v276H781v-44L405,0Z" 
id="f0_1i"
transform="scale(0.001,-0.001)" />

<path d="M275,-20L578,891H299c0,0,-84,0,-120,-20c0,0,-63,-35,-101,-106l-21,8l97,239H696V983L359,-20Z" 
id="f1_r"
transform="scale(0.001,-0.001)" />

<path d="M238,-17c0,0,-103,0,-139,25C99,8,62,33,62,62c0,0,0,22,17,38c0,0,18,16,42,16c0,0,19,0,38,-6c0,0,13,-3,58,-27c0,0,45,-23,62,-28c0,0,27,-8,59,-8c0,0,76,0,132,59c0,0,56,59,56,140c0,0,0,59,-26,115c0,0,-19,41,-42,63c0,0,-32,30,-88,54c0,0,-56,25,-114,25H232v22c0,0,59,8,118,42c0,0,59,35,86,85c0,0,27,49,27,108c0,0,0,76,-48,124c0,0,-48,47,-120,47c0,0,-116,0,-193,-124L77,819c0,0,44,102,110,158c0,0,66,56,164,56c0,0,122,0,187,-80c0,0,49,-58,49,-126c0,0,0,-110,-139,-228c0,0,93,-36,141,-104c0,0,48,-68,48,-160c0,0,0,-131,-84,-227C553,108,444,-17,238,-17Z" 
id="f1_n"
transform="scale(0.001,-0.001)" />


</defs>
</svg>