<?xml version="1.0" encoding="UTF-8" standalone="no"?>
<!DOCTYPE svg PUBLIC "-//W3C//DTD SVG 1.1//EN"
"http://www.w3.org/Graphics/SVG/1.1/DTD/svg11.dtd">
<svg viewBox="0 0 909 1286" version="1.1" xmlns="http://www.w3.org/2000/svg" xmlns:xlink="http://www.w3.org/1999/xlink">
<defs>
<clipPath id="c0_110"><path d="M35.1,1194.7V113.1H873.9V1194.7Z" /></clipPath>
</defs>
<g clip-path="url(#c0_110)">
<g fill="#000000" >
<use xlink:href="#f0_11" transform="matrix(12,0,0,12,47.4,136)" />
<use xlink:href="#f0_d" transform="matrix(12,0,0,12,61.2,136)" />
<use xlink:href="#f0_s" transform="matrix(12,0,0,12,73.4,136)" />
<use xlink:href="#f0_n" transform="matrix(12,0,0,12,82.3,136)" />
<use xlink:href="#f1_12" transform="matrix(12,0,0,12,92.6,136)" />
<use xlink:href="#f1_c" transform="matrix(12,0,0,12,99.4,136)" />
<use xlink:href="#f1_8" transform="matrix(12,0,0,12,111.2,136)" />
<use xlink:href="#f1_6" transform="matrix(12,0,0,12,117,136)" />
<use xlink:href="#f1_8" transform="matrix(12,0,0,12,123.5,136)" />
<use xlink:href="#f1_f" transform="matrix(12,0,0,12,129.3,136)" />
<use xlink:href="#f1_a" transform="matrix(12,0,0,12,139.6,136)" />
<use xlink:href="#f1_6" transform="matrix(12,0,0,12,150.1,136)" />
<use xlink:href="#f1_5" transform="matrix(12,0,0,12,156.5,136)" />
<use xlink:href="#f1_t" transform="matrix(12,0,0,12,166.3,136)" />
<use xlink:href="#f1_9" transform="matrix(12,0,0,12,183.6,136)" />
<use xlink:href="#f1_5" transform="matrix(12,0,0,12,194.9,136)" />
<use xlink:href="#f1_7" transform="matrix(12,0,0,12,204.7,136)" />
<use xlink:href="#f1_f" transform="matrix(12,0,0,12,213.3,136)" />
<use xlink:href="#f1_6" transform="matrix(12,0,0,12,223.6,136)" />
<use xlink:href="#f1_h" transform="matrix(12,0,0,12,230,136)" />
<use xlink:href="#f1_7" transform="matrix(12,0,0,12,241.7,136)" />
<use xlink:href="#f1_5" transform="matrix(12,0,0,12,250.3,136)" />
<use xlink:href="#f1_v" transform="matrix(12,0,0,12,260.1,136)" />
</g>
</g>
<image preserveAspectRatio="none" x="269" y="113" width="23" height="37" xlink:href="img/1.png" />
<g clip-path="url(#c0_110)">
<g fill="#000000" >
<use xlink:href="#f1_1a" transform="matrix(12,0,0,12,292.4,136)" />
<use xlink:href="#f1_k" transform="matrix(12,0,0,12,307.3,136)" />
<use xlink:href="#f1_l" transform="matrix(12,0,0,12,317.6,136)" />
<use xlink:href="#f1_13" transform="matrix(12,0,0,12,327.8,136)" />
<use xlink:href="#f1_14" transform="matrix(12,0,0,12,335.2,136)" />
<use xlink:href="#f1_1c" transform="matrix(12,0,0,12,47.4,191)" />
<use xlink:href="#f1_5" transform="matrix(12,0,0,12,58.8,191)" />
<use xlink:href="#f1_c" transform="matrix(12,0,0,12,68.6,191)" />
<use xlink:href="#f1_x" transform="matrix(12,0,0,12,80.4,191)" />
<use xlink:href="#f1_6" transform="matrix(12,0,0,12,90.3,191)" />
<use xlink:href="#f1_4" transform="matrix(12,0,0,12,96.7,191)" />
<use xlink:href="#f1_b" transform="matrix(12,0,0,12,113.1,191)" />
<use xlink:href="#f1_d" transform="matrix(12,0,0,12,123.7,191)" />
<use xlink:href="#f1_6" transform="matrix(12,0,0,12,135.2,191)" />
<use xlink:href="#f1_4" transform="matrix(12,0,0,12,141.6,191)" />
<use xlink:href="#f1_5" transform="matrix(12,0,0,12,153.2,191)" />
<use xlink:href="#f1_y" transform="matrix(12,0,0,12,167.8,191)" />
<use xlink:href="#f1_7" transform="matrix(12,0,0,12,179,191)" />
<use xlink:href="#f1_f" transform="matrix(12,0,0,12,187.7,191)" />
<use xlink:href="#f1_g" transform="matrix(12,0,0,12,198,191)" />
<use xlink:href="#f1_g" transform="matrix(12,0,0,12,206.2,191)" />
<use xlink:href="#f1_e" transform="matrix(12,0,0,12,219.2,191)" />
<use xlink:href="#f1_8" transform="matrix(12,0,0,12,235,191)" />
<use xlink:href="#f1_7" transform="matrix(12,0,0,12,240.9,191)" />
<use xlink:href="#f1_5" transform="matrix(12,0,0,12,249.5,191)" />
<use xlink:href="#f1_f" transform="matrix(12,0,0,12,264,191)" />
<use xlink:href="#f1_6" transform="matrix(12,0,0,12,274.4,191)" />
</g>
</g>
<image preserveAspectRatio="none" x="281" y="168" width="23" height="37" xlink:href="img/2.png" />
<g clip-path="url(#c0_110)">
<g fill="#000000" >
<use xlink:href="#f1_v" transform="matrix(12,0,0,12,303.7,191)" />
<use xlink:href="#f2_5" transform="matrix(12,0,0,12,313.1,191)" />
<use xlink:href="#f1_1a" transform="matrix(12,0,0,12,323.4,191)" />
<use xlink:href="#f1_o" transform="matrix(12,0,0,12,338.4,191)" />
<use xlink:href="#f1_n" transform="matrix(12,0,0,12,348.6,191)" />
<use xlink:href="#f1_1n" transform="matrix(12,0,0,12,353.8,191)" />
<use xlink:href="#f1_t" transform="matrix(12,0,0,12,368.8,191)" />
<use xlink:href="#f1_1d" transform="matrix(12,0,0,12,47.4,246)" />
<use xlink:href="#f1_8" transform="matrix(12,0,0,12,58.2,246)" />
<use xlink:href="#f1_c" transform="matrix(12,0,0,12,64,246)" />
<use xlink:href="#f1_f" transform="matrix(12,0,0,12,75.8,246)" />
<use xlink:href="#f1_a" transform="matrix(12,0,0,12,86.2,246)" />
<use xlink:href="#f1_6" transform="matrix(12,0,0,12,96.6,246)" />
<use xlink:href="#f1_5" transform="matrix(12,0,0,12,103,246)" />
<use xlink:href="#f1_t" transform="matrix(12,0,0,12,112.8,246)" />
<use xlink:href="#f1_9" transform="matrix(12,0,0,12,130.1,246)" />
<use xlink:href="#f1_5" transform="matrix(12,0,0,12,141.4,246)" />
<use xlink:href="#f1_7" transform="matrix(12,0,0,12,151.2,246)" />
<use xlink:href="#f1_f" transform="matrix(12,0,0,12,159.8,246)" />
<use xlink:href="#f1_6" transform="matrix(12,0,0,12,170.1,246)" />
<use xlink:href="#f1_h" transform="matrix(12,0,0,12,176.6,246)" />
<use xlink:href="#f1_7" transform="matrix(12,0,0,12,188.2,246)" />
<use xlink:href="#f1_5" transform="matrix(12,0,0,12,196.8,246)" />
<use xlink:href="#f1_v" transform="matrix(12,0,0,12,206.6,246)" />
</g>
</g>
<image preserveAspectRatio="none" x="215" y="223" width="26" height="37" xlink:href="img/3.png" />
<g clip-path="url(#c0_110)">
<g fill="#000000" >
<use xlink:href="#f1_1a" transform="matrix(12,0,0,12,241.9,246)" />
<use xlink:href="#f1_1b" transform="matrix(12,0,0,12,256.9,246)" />
<use xlink:href="#f1_m" transform="matrix(12,0,0,12,266.1,246)" />
<use xlink:href="#f1_1i" transform="matrix(12,0,0,12,276.3,246)" />
<use xlink:href="#f1_13" transform="matrix(12,0,0,12,286.6,246)" />
<use xlink:href="#f1_14" transform="matrix(12,0,0,12,293.9,246)" />
<use xlink:href="#f1_1o" transform="matrix(12,0,0,12,47.4,301)" />
<use xlink:href="#f1_8" transform="matrix(12,0,0,12,60.7,301)" />
<use xlink:href="#f1_f" transform="matrix(12,0,0,12,66.5,301)" />
<use xlink:href="#f1_t" transform="matrix(12,0,0,12,76.8,301)" />
<use xlink:href="#f1_5" transform="matrix(12,0,0,12,94.1,301)" />
<use xlink:href="#f1_6" transform="matrix(12,0,0,12,104,301)" />
<use xlink:href="#f1_5" transform="matrix(12,0,0,12,110.4,301)" />
<use xlink:href="#f1_7" transform="matrix(12,0,0,12,120.2,301)" />
<use xlink:href="#f1_b" transform="matrix(12,0,0,12,133.6,301)" />
<use xlink:href="#f1_d" transform="matrix(12,0,0,12,144.2,301)" />
<use xlink:href="#f1_6" transform="matrix(12,0,0,12,155.7,301)" />
<use xlink:href="#f1_4" transform="matrix(12,0,0,12,162.1,301)" />
<use xlink:href="#f1_5" transform="matrix(12,0,0,12,173.7,301)" />
<use xlink:href="#f1_e" transform="matrix(12,0,0,12,188.3,301)" />
<use xlink:href="#f1_8" transform="matrix(12,0,0,12,204.1,301)" />
<use xlink:href="#f1_7" transform="matrix(12,0,0,12,209.9,301)" />
<use xlink:href="#f1_5" transform="matrix(12,0,0,12,218.5,301)" />
<use xlink:href="#f1_v" transform="matrix(12,0,0,12,228.4,301)" />
<use xlink:href="#f2_6" transform="matrix(12,0,0,12,237.7,301)" />
<use xlink:href="#f1_1a" transform="matrix(12,0,0,12,253,301)" />
<use xlink:href="#f1_k" transform="matrix(12,0,0,12,268,301)" />
<use xlink:href="#f1_n" transform="matrix(12,0,0,12,278.3,301)" />
<use xlink:href="#f1_10" transform="matrix(12,0,0,12,283.5,301)" />
<use xlink:href="#f1_t" transform="matrix(12,0,0,12,298.5,301)" />
<use xlink:href="#f1_t" transform="matrix(12,0,0,12,315.8,301)" />
<use xlink:href="#f1_1a" transform="matrix(12,0,0,12,337.9,301)" />
</g>
</g>
<image preserveAspectRatio="none" x="353" y="280" width="75" height="33" xlink:href="img/4.png" />
<g clip-path="url(#c0_110)">
<g fill="#000000" >
<use xlink:href="#f1_t" transform="matrix(12,0,0,12,432.5,301)" />
<use xlink:href="#f1_3" transform="matrix(12,0,0,12,47.4,354.4)" />
<use xlink:href="#f1_5" transform="matrix(12,0,0,12,58.6,354.4)" />
<use xlink:href="#f1_c" transform="matrix(12,0,0,12,68.4,354.4)" />
<use xlink:href="#f1_g" transform="matrix(12,0,0,12,80.2,354.4)" />
<use xlink:href="#f1_8" transform="matrix(12,0,0,12,88.5,354.4)" />
<use xlink:href="#f1_b" transform="matrix(12,0,0,12,94.3,354.4)" />
<use xlink:href="#f1_c" transform="matrix(12,0,0,12,104.9,354.4)" />
<use xlink:href="#f1_u" transform="matrix(12,0,0,12,121.5,354.4)" />
<use xlink:href="#f1_5" transform="matrix(12,0,0,12,132.7,354.4)" />
<use xlink:href="#f1_j" transform="matrix(12,0,0,12,142.5,354.4)" />
<use xlink:href="#f1_5" transform="matrix(12,0,0,12,153.1,354.4)" />
<use xlink:href="#f1_a" transform="matrix(12,0,0,12,162.9,354.4)" />
<use xlink:href="#f1_b" transform="matrix(12,0,0,12,168.6,354.4)" />
<use xlink:href="#f1_9" transform="matrix(12,0,0,12,179.2,354.4)" />
<use xlink:href="#f1_5" transform="matrix(12,0,0,12,190.4,354.4)" />
<use xlink:href="#f1_u" transform="matrix(12,0,0,12,200.2,354.4)" />
<use xlink:href="#f1_8" transform="matrix(12,0,0,12,216.2,354.4)" />
<use xlink:href="#f1_c" transform="matrix(12,0,0,12,222.1,354.4)" />
<use xlink:href="#f1_6" transform="matrix(12,0,0,12,238.6,354.4)" />
<use xlink:href="#f1_4" transform="matrix(12,0,0,12,245.1,354.4)" />
<use xlink:href="#f1_5" transform="matrix(12,0,0,12,256.7,354.4)" />
<use xlink:href="#f1_e" transform="matrix(12,0,0,12,271.3,354.4)" />
<use xlink:href="#f1_8" transform="matrix(12,0,0,12,287.1,354.4)" />
<use xlink:href="#f1_7" transform="matrix(12,0,0,12,292.9,354.4)" />
<use xlink:href="#f1_5" transform="matrix(12,0,0,12,301.5,354.4)" />
<use xlink:href="#f1_1a" transform="matrix(12,0,0,12,316.1,354.4)" />
<use xlink:href="#f2_7" transform="matrix(12,0,0,12,331.1,354.4)" />
<use xlink:href="#f1_14" transform="matrix(12,0,0,12,47.4,404.9)" />
<use xlink:href="#f1_b" transform="matrix(12,0,0,12,58.6,404.9)" />
<use xlink:href="#f1_5" transform="matrix(12,0,0,12,69.2,404.9)" />
<use xlink:href="#f1_d" transform="matrix(12,0,0,12,79,404.9)" />
<use xlink:href="#f1_d" transform="matrix(12,0,0,12,85.7,404.9)" />
<use xlink:href="#f1_8" transform="matrix(12,0,0,12,92.5,404.9)" />
<use xlink:href="#f1_s" transform="matrix(12,0,0,12,98.4,404.9)" />
<use xlink:href="#f1_8" transform="matrix(12,0,0,12,107.4,404.9)" />
<use xlink:href="#f1_5" transform="matrix(12,0,0,12,113.2,404.9)" />
<use xlink:href="#f1_c" transform="matrix(12,0,0,12,123,404.9)" />
<use xlink:href="#f1_6" transform="matrix(12,0,0,12,134.9,404.9)" />
<use xlink:href="#f1_b" transform="matrix(12,0,0,12,146,404.9)" />
<use xlink:href="#f1_d" transform="matrix(12,0,0,12,156.6,404.9)" />
<use xlink:href="#f1_a" transform="matrix(12,0,0,12,168.1,404.9)" />
<use xlink:href="#f1_8" transform="matrix(12,0,0,12,173.8,404.9)" />
<use xlink:href="#f1_c" transform="matrix(12,0,0,12,179.7,404.9)" />
<use xlink:href="#f1_5" transform="matrix(12,0,0,12,191.5,404.9)" />
<use xlink:href="#f1_f" transform="matrix(12,0,0,12,201.3,404.9)" />
<use xlink:href="#f1_7" transform="matrix(12,0,0,12,211.6,404.9)" />
<use xlink:href="#f1_5" transform="matrix(12,0,0,12,225,404.9)" />
<use xlink:href="#f1_11" transform="matrix(12,0,0,12,234.8,404.9)" />
<use xlink:href="#f1_9" transform="matrix(12,0,0,12,245.4,404.9)" />
<use xlink:href="#f1_f" transform="matrix(12,0,0,12,256.6,404.9)" />
<use xlink:href="#f1_c" transform="matrix(12,0,0,12,266.9,404.9)" />
<use xlink:href="#f1_g" transform="matrix(12,0,0,12,278.7,404.9)" />
<use xlink:href="#f1_8" transform="matrix(12,0,0,12,287,404.9)" />
<use xlink:href="#f1_b" transform="matrix(12,0,0,12,292.9,404.9)" />
<use xlink:href="#f1_c" transform="matrix(12,0,0,12,303.4,404.9)" />
<use xlink:href="#f1_b" transform="matrix(12,0,0,12,320,404.9)" />
<use xlink:href="#f1_d" transform="matrix(12,0,0,12,330.6,404.9)" />
<use xlink:href="#f1_y" transform="matrix(12,0,0,12,342.1,404.9)" />
<use xlink:href="#f1_7" transform="matrix(12,0,0,12,353.3,404.9)" />
<use xlink:href="#f1_f" transform="matrix(12,0,0,12,361.9,404.9)" />
<use xlink:href="#f1_g" transform="matrix(12,0,0,12,372.3,404.9)" />
<use xlink:href="#f1_g" transform="matrix(12,0,0,12,380.5,404.9)" />
<use xlink:href="#f1_v" transform="matrix(12,0,0,12,388.8,404.9)" />
<use xlink:href="#f2_8" transform="matrix(12,0,0,12,398.1,404.9)" />
<use xlink:href="#f1_1a" transform="matrix(12,0,0,12,409.1,404.9)" />
</g>
</g>
<image preserveAspectRatio="none" x="425" y="383" width="139" height="34" xlink:href="img/5.png" />
<g clip-path="url(#c0_110)">
<g fill="#000000" >
<use xlink:href="#f1_1q" transform="matrix(12,0,0,12,47.4,458.3)" />
<use xlink:href="#f1_b" transform="matrix(12,0,0,12,58.8,458.3)" />
<use xlink:href="#f1_h" transform="matrix(12,0,0,12,69.4,458.3)" />
<use xlink:href="#f1_c" transform="matrix(12,0,0,12,81,458.3)" />
<use xlink:href="#f1_x" transform="matrix(12,0,0,12,92.8,458.3)" />
<use xlink:href="#f1_1m" transform="matrix(12,0,0,12,102.7,458.3)" />
<use xlink:href="#f1_g" transform="matrix(12,0,0,12,106.7,458.3)" />
<use xlink:href="#f1_t" transform="matrix(12,0,0,12,119.7,458.3)" />
<use xlink:href="#f1_b" transform="matrix(12,0,0,12,137,458.3)" />
<use xlink:href="#f1_u" transform="matrix(12,0,0,12,147.6,458.3)" />
<use xlink:href="#f1_h" transform="matrix(12,0,0,12,158.9,458.3)" />
<use xlink:href="#f1_a" transform="matrix(12,0,0,12,170.5,458.3)" />
<use xlink:href="#f1_h" transform="matrix(12,0,0,12,176.2,458.3)" />
<use xlink:href="#f1_g" transform="matrix(12,0,0,12,187.8,458.3)" />
<use xlink:href="#f1_b" transform="matrix(12,0,0,12,200.8,458.3)" />
<use xlink:href="#f1_d" transform="matrix(12,0,0,12,211.4,458.3)" />
<use xlink:href="#f1_y" transform="matrix(12,0,0,12,222.9,458.3)" />
<use xlink:href="#f1_7" transform="matrix(12,0,0,12,234.1,458.3)" />
<use xlink:href="#f1_f" transform="matrix(12,0,0,12,242.7,458.3)" />
<use xlink:href="#f1_g" transform="matrix(12,0,0,12,253.1,458.3)" />
<use xlink:href="#f1_g" transform="matrix(12,0,0,12,261.3,458.3)" />
<use xlink:href="#f1_v" transform="matrix(12,0,0,12,269.6,458.3)" />
<use xlink:href="#f2_9" transform="matrix(12,0,0,12,278.9,458.3)" />
<use xlink:href="#f1_1a" transform="matrix(12,0,0,12,295.1,458.3)" />
</g>
</g>
<image preserveAspectRatio="none" x="310" y="437" width="139" height="34" xlink:href="img/6.png" />
<g clip-path="url(#c0_110)">
<g fill="#000000" >
<use xlink:href="#f1_1q" transform="matrix(12,0,0,12,47.4,511.8)" />
<use xlink:href="#f1_b" transform="matrix(12,0,0,12,58.8,511.8)" />
<use xlink:href="#f1_h" transform="matrix(12,0,0,12,69.4,511.8)" />
<use xlink:href="#f1_c" transform="matrix(12,0,0,12,81,511.8)" />
<use xlink:href="#f1_x" transform="matrix(12,0,0,12,92.8,511.8)" />
<use xlink:href="#f1_1m" transform="matrix(12,0,0,12,102.7,511.8)" />
<use xlink:href="#f1_g" transform="matrix(12,0,0,12,106.7,511.8)" />
<use xlink:href="#f1_t" transform="matrix(12,0,0,12,119.7,511.8)" />
<use xlink:href="#f1_b" transform="matrix(12,0,0,12,137,511.8)" />
<use xlink:href="#f1_u" transform="matrix(12,0,0,12,147.6,511.8)" />
<use xlink:href="#f1_h" transform="matrix(12,0,0,12,158.9,511.8)" />
<use xlink:href="#f1_a" transform="matrix(12,0,0,12,170.5,511.8)" />
<use xlink:href="#f1_h" transform="matrix(12,0,0,12,176.2,511.8)" />
<use xlink:href="#f1_g" transform="matrix(12,0,0,12,187.8,511.8)" />
<use xlink:href="#f1_8" transform="matrix(12,0,0,12,200.8,511.8)" />
<use xlink:href="#f1_g" transform="matrix(12,0,0,12,206.7,511.8)" />
<use xlink:href="#f1_x" transform="matrix(12,0,0,12,219.7,511.8)" />
<use xlink:href="#f1_8" transform="matrix(12,0,0,12,229.5,511.8)" />
<use xlink:href="#f1_j" transform="matrix(12,0,0,12,235.4,511.8)" />
<use xlink:href="#f1_5" transform="matrix(12,0,0,12,246,511.8)" />
<use xlink:href="#f1_c" transform="matrix(12,0,0,12,255.8,511.8)" />
<use xlink:href="#f1_y" transform="matrix(12,0,0,12,272.4,511.8)" />
<use xlink:href="#f1_w" transform="matrix(12,0,0,12,283.6,511.8)" />
<use xlink:href="#f1_6" transform="matrix(12,0,0,12,298.7,511.8)" />
<use xlink:href="#f1_4" transform="matrix(12,0,0,12,305.1,511.8)" />
<use xlink:href="#f1_5" transform="matrix(12,0,0,12,316.8,511.8)" />
<use xlink:href="#f1_7" transform="matrix(12,0,0,12,331.3,511.8)" />
<use xlink:href="#f1_5" transform="matrix(12,0,0,12,339.9,511.8)" />
<use xlink:href="#f1_a" transform="matrix(12,0,0,12,349.7,511.8)" />
<use xlink:href="#f1_f" transform="matrix(12,0,0,12,355.4,511.8)" />
<use xlink:href="#f1_6" transform="matrix(12,0,0,12,365.7,511.8)" />
<use xlink:href="#f1_8" transform="matrix(12,0,0,12,372.2,511.8)" />
<use xlink:href="#f1_b" transform="matrix(12,0,0,12,378,511.8)" />
<use xlink:href="#f1_c" transform="matrix(12,0,0,12,388.6,511.8)" />
<use xlink:href="#f1_19" transform="matrix(12,0,0,12,400.4,511.8)" />
</g>
</g>
<image preserveAspectRatio="none" x="47" y="539" width="171" height="124" xlink:href="img/7.png" />
<image preserveAspectRatio="none" x="47" y="681" width="116" height="65" xlink:href="img/8.png" />
<g clip-path="url(#c0_110)">
<g fill="#000000" >
<use xlink:href="#f1_1f" transform="matrix(12,0,0,12,163.5,718.1)" />
<use xlink:href="#f1_1f" transform="matrix(12,0,0,12,179.2,718.1)" />
<use xlink:href="#f1_1f" transform="matrix(12,0,0,12,194.9,718.1)" />
<use xlink:href="#f1_1f" transform="matrix(12,0,0,12,210.6,718.1)" />
<use xlink:href="#f1_n" transform="matrix(12,0,0,12,226.3,718.1)" />
<use xlink:href="#f1_n" transform="matrix(12,0,0,12,231.5,718.1)" />
<use xlink:href="#f1_17" transform="matrix(12,0,0,12,236.8,718.1)" />
<use xlink:href="#f1_8" transform="matrix(12,0,0,12,243.1,718.1)" />
<use xlink:href="#f1_18" transform="matrix(12,0,0,12,248.9,718.1)" />
<use xlink:href="#f1_1r" transform="matrix(12,0,0,12,47.4,786.8)" />
<use xlink:href="#f1_4" transform="matrix(12,0,0,12,66.6,786.8)" />
<use xlink:href="#f1_5" transform="matrix(12,0,0,12,78.2,786.8)" />
<use xlink:href="#f1_7" transform="matrix(12,0,0,12,88,786.8)" />
<use xlink:href="#f1_5" transform="matrix(12,0,0,12,96.6,786.8)" />
<use xlink:href="#f1_v" transform="matrix(12,0,0,12,106.4,786.8)" />
<use xlink:href="#f2_7" transform="matrix(12,0,0,12,47.4,837.2)" />
<use xlink:href="#f1_1a" transform="matrix(12,0,0,12,62.9,837.2)" />
<use xlink:href="#f1_3" transform="matrix(12,0,0,12,77.9,837.2)" />
<use xlink:href="#f1_5" transform="matrix(12,0,0,12,89.1,837.2)" />
<use xlink:href="#f1_c" transform="matrix(12,0,0,12,98.9,837.2)" />
<use xlink:href="#f1_g" transform="matrix(12,0,0,12,110.8,837.2)" />
<use xlink:href="#f1_8" transform="matrix(12,0,0,12,119,837.2)" />
<use xlink:href="#f1_b" transform="matrix(12,0,0,12,124.9,837.2)" />
<use xlink:href="#f1_c" transform="matrix(12,0,0,12,135.4,837.2)" />
<use xlink:href="#f1_u" transform="matrix(12,0,0,12,152,837.2)" />
<use xlink:href="#f1_5" transform="matrix(12,0,0,12,163.3,837.2)" />
<use xlink:href="#f1_j" transform="matrix(12,0,0,12,173.1,837.2)" />
<use xlink:href="#f1_5" transform="matrix(12,0,0,12,183.7,837.2)" />
<use xlink:href="#f1_a" transform="matrix(12,0,0,12,193.5,837.2)" />
<use xlink:href="#f1_b" transform="matrix(12,0,0,12,199.2,837.2)" />
<use xlink:href="#f1_9" transform="matrix(12,0,0,12,209.7,837.2)" />
<use xlink:href="#f1_5" transform="matrix(12,0,0,12,221,837.2)" />
<use xlink:href="#f1_u" transform="matrix(12,0,0,12,230.8,837.2)" />
<use xlink:href="#f1_8" transform="matrix(12,0,0,12,246.8,837.2)" />
<use xlink:href="#f1_c" transform="matrix(12,0,0,12,252.6,837.2)" />
<use xlink:href="#f1_6" transform="matrix(12,0,0,12,269.2,837.2)" />
<use xlink:href="#f1_4" transform="matrix(12,0,0,12,275.6,837.2)" />
<use xlink:href="#f1_5" transform="matrix(12,0,0,12,287.3,837.2)" />
<use xlink:href="#f1_e" transform="matrix(12,0,0,12,301.8,837.2)" />
<use xlink:href="#f1_8" transform="matrix(12,0,0,12,317.6,837.2)" />
<use xlink:href="#f1_7" transform="matrix(12,0,0,12,323.5,837.2)" />
<use xlink:href="#f1_5" transform="matrix(12,0,0,12,332.1,837.2)" />
<use xlink:href="#f2_a" transform="matrix(12,0,0,12,47.4,887.6)" />
<use xlink:href="#f1_1a" transform="matrix(12,0,0,12,65,887.6)" />
<use xlink:href="#f1_r" transform="matrix(12,0,0,12,80,887.6)" />
<use xlink:href="#f1_7" transform="matrix(12,0,0,12,92.9,887.6)" />
<use xlink:href="#f1_5" transform="matrix(12,0,0,12,101.5,887.6)" />
<use xlink:href="#f1_f" transform="matrix(12,0,0,12,111.4,887.6)" />
<use xlink:href="#f1_b" transform="matrix(12,0,0,12,126.4,887.6)" />
<use xlink:href="#f1_d" transform="matrix(12,0,0,12,137,887.6)" />
<use xlink:href="#f1_s" transform="matrix(12,0,0,12,148.5,887.6)" />
<use xlink:href="#f1_7" transform="matrix(12,0,0,12,157.5,887.6)" />
<use xlink:href="#f1_b" transform="matrix(12,0,0,12,166.1,887.6)" />
<use xlink:href="#f1_g" transform="matrix(12,0,0,12,176.7,887.6)" />
<use xlink:href="#f1_g" transform="matrix(12,0,0,12,185,887.6)" />
<use xlink:href="#f1_1k" transform="matrix(12,0,0,12,193.2,887.6)" />
<use xlink:href="#f1_g" transform="matrix(12,0,0,12,198.9,887.6)" />
<use xlink:href="#f1_5" transform="matrix(12,0,0,12,207.2,887.6)" />
<use xlink:href="#f1_s" transform="matrix(12,0,0,12,217,887.6)" />
<use xlink:href="#f1_6" transform="matrix(12,0,0,12,226,887.6)" />
<use xlink:href="#f1_8" transform="matrix(12,0,0,12,232.5,887.6)" />
<use xlink:href="#f1_b" transform="matrix(12,0,0,12,238.3,887.6)" />
<use xlink:href="#f1_c" transform="matrix(12,0,0,12,248.9,887.6)" />
<use xlink:href="#f1_b" transform="matrix(12,0,0,12,265.5,887.6)" />
<use xlink:href="#f1_d" transform="matrix(12,0,0,12,276,887.6)" />
<use xlink:href="#f1_6" transform="matrix(12,0,0,12,287.5,887.6)" />
<use xlink:href="#f1_4" transform="matrix(12,0,0,12,294,887.6)" />
<use xlink:href="#f1_5" transform="matrix(12,0,0,12,305.6,887.6)" />
<use xlink:href="#f1_e" transform="matrix(12,0,0,12,320.2,887.6)" />
<use xlink:href="#f1_8" transform="matrix(12,0,0,12,335.9,887.6)" />
<use xlink:href="#f1_7" transform="matrix(12,0,0,12,341.8,887.6)" />
<use xlink:href="#f1_5" transform="matrix(12,0,0,12,350.4,887.6)" />
<use xlink:href="#f1_n" transform="matrix(12,0,0,12,360.2,887.6)" />
<use xlink:href="#f1_1p" transform="matrix(12,0,0,12,47.4,938.1)" />
<use xlink:href="#f2_b" transform="matrix(12,0,0,12,58.5,938.1)" />
<use xlink:href="#f1_1a" transform="matrix(12,0,0,12,74.6,938.1)" />
<use xlink:href="#f1_14" transform="matrix(12,0,0,12,89.6,938.1)" />
<use xlink:href="#f1_4" transform="matrix(12,0,0,12,100.9,938.1)" />
<use xlink:href="#f1_f" transform="matrix(12,0,0,12,112.5,938.1)" />
<use xlink:href="#f1_c" transform="matrix(12,0,0,12,122.8,938.1)" />
<use xlink:href="#f1_x" transform="matrix(12,0,0,12,134.6,938.1)" />
<use xlink:href="#f1_5" transform="matrix(12,0,0,12,144.5,938.1)" />
<use xlink:href="#f1_8" transform="matrix(12,0,0,12,159.1,938.1)" />
<use xlink:href="#f1_c" transform="matrix(12,0,0,12,164.9,938.1)" />
<use xlink:href="#f1_6" transform="matrix(12,0,0,12,181.5,938.1)" />
<use xlink:href="#f1_4" transform="matrix(12,0,0,12,187.9,938.1)" />
<use xlink:href="#f1_5" transform="matrix(12,0,0,12,199.5,938.1)" />
<use xlink:href="#f1_a" transform="matrix(12,0,0,12,214.1,938.1)" />
<use xlink:href="#f1_5" transform="matrix(12,0,0,12,219.8,938.1)" />
<use xlink:href="#f1_c" transform="matrix(12,0,0,12,229.6,938.1)" />
<use xlink:href="#f1_x" transform="matrix(12,0,0,12,241.4,938.1)" />
<use xlink:href="#f1_6" transform="matrix(12,0,0,12,251.3,938.1)" />
<use xlink:href="#f1_4" transform="matrix(12,0,0,12,257.7,938.1)" />
<use xlink:href="#f1_v" transform="matrix(12,0,0,12,269.3,938.1)" />
<use xlink:href="#f1_x" transform="matrix(12,0,0,12,278.7,938.1)" />
<use xlink:href="#f1_8" transform="matrix(12,0,0,12,288.5,938.1)" />
<use xlink:href="#f1_j" transform="matrix(12,0,0,12,294.4,938.1)" />
<use xlink:href="#f1_5" transform="matrix(12,0,0,12,305,938.1)" />
<use xlink:href="#f1_c" transform="matrix(12,0,0,12,314.8,938.1)" />
<use xlink:href="#f1_y" transform="matrix(12,0,0,12,331.4,938.1)" />
<use xlink:href="#f1_w" transform="matrix(12,0,0,12,342.6,938.1)" />
<use xlink:href="#f1_6" transform="matrix(12,0,0,12,357.7,938.1)" />
<use xlink:href="#f1_4" transform="matrix(12,0,0,12,364.1,938.1)" />
<use xlink:href="#f1_5" transform="matrix(12,0,0,12,375.8,938.1)" />
<use xlink:href="#f1_7" transform="matrix(12,0,0,12,390.3,938.1)" />
<use xlink:href="#f1_5" transform="matrix(12,0,0,12,398.9,938.1)" />
<use xlink:href="#f1_a" transform="matrix(12,0,0,12,408.8,938.1)" />
<use xlink:href="#f1_f" transform="matrix(12,0,0,12,414.4,938.1)" />
<use xlink:href="#f1_6" transform="matrix(12,0,0,12,424.7,938.1)" />
<use xlink:href="#f1_8" transform="matrix(12,0,0,12,431.2,938.1)" />
<use xlink:href="#f1_b" transform="matrix(12,0,0,12,437,938.1)" />
<use xlink:href="#f1_c" transform="matrix(12,0,0,12,447.6,938.1)" />
<use xlink:href="#f1_19" transform="matrix(12,0,0,12,459.4,938.1)" />
<use xlink:href="#f1_1p" transform="matrix(12,0,0,12,47.4,991.5)" />
<use xlink:href="#f2_b" transform="matrix(12,0,0,12,58.5,991.5)" />
<use xlink:href="#f1_1a" transform="matrix(12,0,0,12,74.6,991.5)" />
<use xlink:href="#f2_8" transform="matrix(12,0,0,12,89.6,991.5)" />
<use xlink:href="#f2_b" transform="matrix(12,0,0,12,100.6,991.5)" />
</g>
</g>
<image preserveAspectRatio="none" x="112" y="966" width="85" height="41" xlink:href="img/9.png" />
<g clip-path="url(#c0_110)">
<g fill="#000000" >
<use xlink:href="#f1_1f" transform="matrix(12,0,0,12,202.3,991.5)" />
<use xlink:href="#f1_17" transform="matrix(12,0,0,12,222.8,991.5)" />
<use xlink:href="#f2_4" transform="matrix(12,0,0,12,229.1,991.5)" />
<use xlink:href="#f2_4" transform="matrix(12,0,0,12,234.7,991.5)" />
<use xlink:href="#f1_18" transform="matrix(12,0,0,12,240.2,991.5)" />
<use xlink:href="#f1_1s" transform="matrix(12,0,0,12,47.4,1048.1)" />
<use xlink:href="#f1_i" transform="matrix(12,0,0,12,58.8,1048.1)" />
<use xlink:href="#f1_h" transform="matrix(12,0,0,12,70,1048.1)" />
<use xlink:href="#f1_f" transform="matrix(12,0,0,12,81.6,1048.1)" />
<use xlink:href="#f1_6" transform="matrix(12,0,0,12,92,1048.1)" />
<use xlink:href="#f1_8" transform="matrix(12,0,0,12,98.4,1048.1)" />
<use xlink:href="#f1_c" transform="matrix(12,0,0,12,104.2,1048.1)" />
<use xlink:href="#f1_x" transform="matrix(12,0,0,12,116.1,1048.1)" />
<use xlink:href="#f1_5" transform="matrix(12,0,0,12,130.7,1048.1)" />
<use xlink:href="#f1_i" transform="matrix(12,0,0,12,140.5,1048.1)" />
<use xlink:href="#f1_h" transform="matrix(12,0,0,12,151.7,1048.1)" />
<use xlink:href="#f1_f" transform="matrix(12,0,0,12,163.4,1048.1)" />
<use xlink:href="#f1_6" transform="matrix(12,0,0,12,173.7,1048.1)" />
<use xlink:href="#f1_8" transform="matrix(12,0,0,12,180.1,1048.1)" />
<use xlink:href="#f1_b" transform="matrix(12,0,0,12,186,1048.1)" />
<use xlink:href="#f1_c" transform="matrix(12,0,0,12,196.5,1048.1)" />
<use xlink:href="#f1_g" transform="matrix(12,0,0,12,208.4,1048.1)" />
<use xlink:href="#f1_17" transform="matrix(12,0,0,12,221.4,1048.1)" />
<use xlink:href="#f2_4" transform="matrix(12,0,0,12,227.7,1048.1)" />
<use xlink:href="#f1_18" transform="matrix(12,0,0,12,233.2,1048.1)" />
<use xlink:href="#f1_f" transform="matrix(12,0,0,12,244.3,1048.1)" />
<use xlink:href="#f1_c" transform="matrix(12,0,0,12,254.6,1048.1)" />
<use xlink:href="#f1_u" transform="matrix(12,0,0,12,266.5,1048.1)" />
<use xlink:href="#f1_17" transform="matrix(12,0,0,12,282.4,1048.1)" />
<use xlink:href="#f2_4" transform="matrix(12,0,0,12,288.8,1048.1)" />
<use xlink:href="#f2_4" transform="matrix(12,0,0,12,294.3,1048.1)" />
<use xlink:href="#f1_18" transform="matrix(12,0,0,12,299.9,1048.1)" />
<use xlink:href="#f1_v" transform="matrix(12,0,0,12,306.2,1048.1)" />
<use xlink:href="#f1_e" transform="matrix(12,0,0,12,315.6,1048.1)" />
<use xlink:href="#f1_5" transform="matrix(12,0,0,12,331.3,1048.1)" />
<use xlink:href="#f1_x" transform="matrix(12,0,0,12,345.9,1048.1)" />
<use xlink:href="#f1_5" transform="matrix(12,0,0,12,355.8,1048.1)" />
<use xlink:href="#f1_6" transform="matrix(12,0,0,12,365.6,1048.1)" />
<use xlink:href="#f1_19" transform="matrix(12,0,0,12,372,1048.1)" />
</g>
</g>
<image preserveAspectRatio="none" x="47" y="1076" width="251" height="103" xlink:href="img/10.png" />
<g fill="#000000" >
<use xlink:href="#f3_l" transform="matrix(12,0,0,12,835.7,1269.6)" />
<use xlink:href="#f3_t" transform="matrix(12,0,0,12,844.9,1269.6)" />
</g>
<defs>
<path d="M674,452L593,703c0,0,-9,25,-16,55c0,0,-10,28,-18,58c0,0,-8,29,-16,60c0,0,-9,29,-14,56c0,0,-7,-24,-16,-51c0,0,-9,-28,-18,-57c0,0,-11,-29,-21,-58c0,0,-10,-29,-19,-56L365,452ZM6,0V81H25c0,0,20,0,37,5c0,0,16,4,31,17c0,0,14,12,28,34c0,0,12,20,26,55l331,899H688L1007,191c0,0,11,-33,24,-53c0,0,12,-22,27,-34c0,0,13,-12,30,-17c0,0,15,-6,32,-6c1,0,2,0,3,0h27V0H646V81h60c0,0,10,0,23,4c0,0,11,2,21,10c0,0,9,7,15,18c0,0,6,12,6,27c0,0,0,19,-4,36c0,0,-5,16,-9,30L704,359H333L289,228c0,0,-7,-20,-12,-44c0,0,-7,-26,-7,-44c0,0,0,-15,6,-26c0,0,5,-11,16,-18c0,0,9,-8,22,-11c0,0,12,-4,25,-4h65V0Z" 
id="f0_11"
transform="scale(0.001,-0.001)" />

<path d="M31,0V81h3c0,0,25,0,47,4c0,0,21,3,38,14c0,0,16,11,25,32c0,0,9,20,9,55V639c0,0,0,32,-8,51c0,0,-8,19,-22,31c0,0,-15,9,-35,14c0,0,-20,3,-45,3H38v81H359L379,710h7c0,0,24,43,50,69c0,0,25,25,54,39c0,0,29,13,62,17c0,0,32,3,68,3c0,0,59,0,106,-17c0,0,47,-17,80,-53c0,0,32,-36,49,-91c0,0,16,-56,17,-133V189c0,0,0,-35,7,-56c0,0,5,-22,18,-33c0,0,12,-12,33,-15c0,0,18,-4,45,-4h4V0H640V503c0,0,-1,48,-6,88c0,0,-7,38,-21,64c0,0,-15,25,-38,40c0,0,-24,14,-57,14c0,0,-38,-1,-64,-20c0,0,-26,-19,-40,-51c0,0,-16,-33,-22,-76c0,0,-7,-44,-7,-90V181c0,0,0,-33,8,-52c0,0,7,-20,22,-30c0,0,13,-11,35,-14c0,0,19,-4,45,-4h5V0Z" 
id="f0_d"
transform="scale(0.001,-0.001)" />

<path d="M357,-14c-1,0,-3,0,-4,0c0,0,-83,0,-141,14c0,0,-60,12,-96,36c0,0,-37,23,-53,57c0,0,-17,32,-17,70c0,0,0,37,14,61c0,0,15,22,37,35c0,0,21,12,46,17c0,0,25,3,45,4c0,0,-1,-49,12,-86c0,0,12,-39,33,-64c0,0,21,-27,53,-41c0,0,28,-14,64,-14c1,0,2,0,3,0c0,0,39,0,68,8c0,0,28,7,47,23c0,0,18,14,27,34c0,0,9,17,9,39c0,0,0,25,-9,46c0,0,-10,18,-31,37c0,0,-22,16,-57,34c0,0,-38,16,-91,35c0,0,-62,21,-109,46c0,0,-48,24,-79,56c0,0,-33,30,-50,71c0,0,-17,38,-17,91c0,0,0,60,24,106c0,0,22,46,66,76c0,0,44,30,104,45c0,0,61,14,134,15c0,0,73,0,123,-12c0,0,50,-13,83,-33c0,0,32,-20,47,-45c0,0,14,-26,15,-52c0,0,0,-51,-36,-78c0,0,-37,-27,-120,-27c0,0,0,76,-33,119c0,0,-35,41,-101,41c0,0,-25,0,-47,-6c0,0,-24,-5,-40,-17c0,0,-17,-13,-26,-30c0,0,-11,-18,-11,-41c0,0,-1,-26,10,-44c0,0,9,-20,33,-37c0,0,23,-18,63,-36c0,0,40,-18,103,-39c0,0,50,-18,94,-40c0,0,43,-24,74,-53c0,0,30,-30,48,-67c0,0,16,-39,17,-86c0,0,-1,-65,-22,-114c0,0,-22,-50,-65,-84C598,56,555,21,494,4c0,0,-60,-18,-137,-18Z" 
id="f0_s"
transform="scale(0.001,-0.001)" />

<path d="M232,-11c0,0,-26,0,-49,7c0,0,-24,4,-40,19c0,0,-17,13,-27,37c0,0,-10,23,-9,58c0,0,-1,34,9,59c0,0,10,22,27,37c0,0,16,14,40,20c0,0,23,5,49,6c0,0,25,-1,48,-6c0,0,23,-6,40,-20c0,0,16,-15,28,-37c0,0,9,-25,9,-59c0,0,0,-35,-9,-58c0,0,-12,-24,-28,-37C320,15,303,0,280,-4c0,0,-23,-7,-48,-7Z" 
id="f0_n"
transform="scale(0.001,-0.001)" />

<path d="M58,0V64H78c0,0,25,0,49,4c0,0,22,3,39,16c0,0,17,11,27,32c0,0,10,21,10,58V917c0,0,0,36,-10,57c0,0,-10,21,-27,34c0,0,-17,11,-39,15c0,0,-24,3,-49,3H58v65H503v-65H483c0,0,-26,0,-49,-3c0,0,-24,-4,-39,-15c0,0,-18,-13,-27,-34c0,0,-11,-21,-11,-57V174c0,0,0,-37,11,-58c0,0,9,-21,27,-32c0,0,15,-13,39,-16c0,0,23,-4,49,-4h20V0Z" 
id="f1_12"
transform="scale(0.001,-0.001)" />

<path d="M43,0V64H55c0,0,26,0,49,4c0,0,23,3,40,16c0,0,16,11,27,32c0,0,10,21,10,58V650c0,0,0,33,-10,55c0,0,-11,20,-28,31c0,0,-17,11,-39,15c0,0,-24,3,-49,4H51v64H298L318,695h7c0,0,23,42,51,70c0,0,25,27,56,43c0,0,29,14,63,21c0,0,32,5,69,5c0,0,60,-1,108,-17c0,0,47,-18,81,-54c0,0,32,-37,50,-93c0,0,17,-58,18,-135V174c0,0,0,-37,9,-58c0,0,7,-21,23,-32c0,0,16,-13,38,-16c0,0,21,-4,47,-4h5V0H677V527c0,0,0,50,-9,89c0,0,-10,39,-29,66c0,0,-20,26,-52,41c0,0,-33,13,-78,13c0,0,-53,0,-88,-20c0,0,-36,-20,-57,-54c0,0,-22,-35,-31,-79c0,0,-10,-45,-9,-94V166c0,0,0,-33,10,-53c0,0,10,-22,27,-32c0,0,16,-10,40,-13c0,0,22,-4,48,-4h5V0Z" 
id="f1_c"
transform="scale(0.001,-0.001)" />

<path d="M35,0V64H55c0,0,25,0,49,4c0,0,22,3,39,13c0,0,17,10,28,32c0,0,10,20,10,53V650c0,0,0,33,-10,55c0,0,-11,20,-28,31c0,0,-17,11,-39,15c0,0,-24,3,-49,4H51v64H324V174c0,0,0,-37,10,-58c0,0,10,-21,27,-32c0,0,16,-13,40,-16c0,0,22,-4,48,-4h20V0ZM249,972c-1,0,-2,0,-3,0c0,0,-1,0,-2,0c-5,0,-20,0,-32,5c0,0,-16,5,-28,16c0,0,-12,11,-18,29c0,0,-7,18,-7,45c0,0,0,27,7,45c0,0,6,17,18,29c0,0,12,11,28,15c0,0,15,5,34,5c0,0,18,0,34,-5c0,0,15,-4,27,-15c0,0,11,-12,19,-29c0,0,7,-18,7,-45c0,0,0,-27,-7,-45c0,0,-8,-18,-19,-29c0,0,-12,-11,-27,-16c0,0,-14,-5,-31,-5Z" 
id="f1_8"
transform="scale(0.001,-0.001)" />

<path d="M367,-14c0,0,-59,0,-100,13c0,0,-42,10,-69,38c0,0,-27,27,-39,73c0,0,-14,45,-14,112V732H29v61c0,0,28,0,61,11c0,0,32,11,58,37c0,0,26,28,43,68c0,0,15,38,28,98h70V819H489V732H289V217c0,0,-1,-78,32,-115c0,0,30,-36,83,-36c0,0,1,0,1,0c0,0,2,0,6,0c9,0,28,0,45,3c0,0,23,3,47,7V9C503,9,492,4,477,0c0,0,-15,-3,-33,-6c0,0,-20,-5,-39,-6c0,0,-20,-2,-38,-2Z" 
id="f1_6"
transform="scale(0.001,-0.001)" />

<path d="M348,79c0,0,46,0,85,15c0,0,36,14,64,42c0,0,25,27,40,66c0,0,14,39,14,87V412H454c0,0,-65,0,-109,-14c0,0,-44,-13,-70,-36c0,0,-27,-25,-39,-59c0,0,-12,-35,-11,-80c0,0,0,-73,30,-108c0,0,29,-36,93,-36ZM313,-14c0,0,-50,0,-94,14c0,0,-44,14,-75,45c0,0,-33,30,-50,77c0,0,-18,47,-18,109c0,0,0,123,87,182c0,0,85,59,261,60H551v93c0,0,0,42,-4,78c0,0,-5,34,-20,60c0,0,-15,26,-42,40c0,0,-28,14,-75,14c0,0,-44,0,-71,-12c0,0,-29,-13,-43,-35c0,0,-16,-23,-21,-53c0,0,-6,-31,-5,-66c0,0,-64,0,-96,21c0,0,-34,21,-34,75c0,0,0,39,22,67c0,0,21,28,60,45c0,0,36,17,87,26c0,0,49,7,107,8c0,0,69,0,122,-13c0,0,52,-15,87,-46c0,0,34,-31,53,-81c0,0,17,-52,17,-124V174c0,0,0,-33,5,-53c0,0,6,-22,17,-34c0,0,10,-12,30,-18c0,0,15,-5,38,-5c2,0,3,0,5,0h4V0H588L564,131H551c0,0,-24,-33,-46,-59c0,0,-22,-27,-49,-46C456,26,429,6,395,-3c0,0,-35,-11,-82,-11Z" 
id="f1_f"
transform="scale(0.001,-0.001)" />

<path d="M20,0V64H40c0,0,25,0,49,4c0,0,22,3,39,16c0,0,17,11,27,32c0,0,10,21,10,58V993c0,0,0,33,-10,54c0,0,-11,21,-27,32c0,0,-18,11,-40,15c0,0,-24,3,-48,3H20v64H309V174c0,0,-1,-37,10,-58c0,0,9,-21,26,-32c0,0,17,-13,41,-16c0,0,22,-4,48,-4h20V0Z" 
id="f1_a"
transform="scale(0.001,-0.001)" />

<path d="M586,481c0,0,0,60,-9,111c0,0,-9,50,-29,85c0,0,-19,36,-51,56c0,0,-33,18,-79,19c0,0,-87,-1,-133,-69c0,0,-46,-69,-46,-202ZM439,-14c0,0,-83,0,-149,27c0,0,-66,28,-112,82c0,0,-46,53,-69,132c0,0,-25,77,-25,177c0,0,0,213,88,322c0,0,88,108,251,108c0,0,73,0,133,-23c0,0,58,-24,100,-69c0,0,41,-46,63,-114c0,0,21,-69,22,-159V399H233c0,0,0,-84,15,-143c0,0,15,-61,44,-99c0,0,28,-40,71,-57c0,0,40,-19,93,-19c1,0,2,0,4,0c0,0,38,0,73,9c0,0,33,9,62,24c0,0,26,14,48,34c0,0,21,18,35,40c0,0,10,-4,20,-19c0,0,9,-15,9,-33c0,0,0,-24,-16,-49c0,0,-17,-27,-50,-50C641,37,607,14,557,0c0,0,-50,-14,-118,-14Z" 
id="f1_5"
transform="scale(0.001,-0.001)" />

<path d="M43,0V64H63c0,0,25,0,47,4c0,0,21,3,38,16c0,0,15,11,24,32c0,0,8,21,9,58V650c0,0,0,33,-9,55c0,0,-9,20,-25,31c0,0,-16,11,-37,15c0,0,-22,3,-47,4H58v64H298L318,695h7c0,0,23,42,49,70c0,0,25,27,54,43c0,0,28,14,61,21c0,0,31,5,67,5c0,0,36,0,71,-7c0,0,33,-9,62,-24c0,0,28,-17,52,-43c0,0,21,-27,36,-65h13c0,0,23,42,50,70c0,0,27,27,57,43c0,0,30,14,64,21c0,0,32,5,68,5c0,0,59,-1,105,-17c0,0,45,-18,78,-54c0,0,32,-37,49,-93c0,0,17,-58,18,-135V174c0,0,0,-37,9,-58c0,0,9,-21,24,-32c0,0,16,-13,37,-16c0,0,21,-4,47,-4h5V0H1135V527c0,0,0,50,-8,89c0,0,-9,39,-27,66c0,0,-21,26,-50,41c0,0,-32,13,-75,13c0,0,-48,0,-80,-18c0,0,-33,-19,-53,-50c0,0,-21,-31,-28,-72c0,0,-9,-42,-9,-87V174c0,0,0,-37,9,-58c0,0,9,-21,24,-32c0,0,16,-13,38,-16c0,0,21,-4,47,-4h4V0H662V527c0,0,-1,50,-9,89c0,0,-8,39,-27,66c0,0,-20,26,-50,41c0,0,-31,13,-75,13c0,0,-50,0,-83,-20c0,0,-35,-20,-55,-54c0,0,-22,-35,-30,-79c0,0,-9,-45,-9,-94V166c0,0,0,-33,10,-53c0,0,10,-22,27,-32c0,0,16,-10,40,-13c0,0,22,-4,48,-4h5V0Z" 
id="f1_t"
transform="scale(0.001,-0.001)" />

<path d="M518,83c0,0,50,0,86,21c0,0,35,21,58,63c0,0,23,41,33,104c0,0,10,61,11,142c0,0,-1,80,-11,142c0,0,-10,60,-33,101c0,0,-23,40,-58,60c0,0,-38,20,-88,20c0,0,-60,0,-99,-19c0,0,-41,-20,-64,-61c0,0,-24,-40,-34,-101c0,0,-10,-62,-10,-144c0,0,0,-80,10,-141c0,0,10,-62,35,-103c0,0,23,-42,64,-63c0,0,39,-21,100,-21ZM28,-366v64H40c0,0,25,0,49,4c0,0,22,3,39,16c0,0,17,11,27,33c0,0,10,21,10,58V650c0,0,0,33,-10,55c0,0,-11,20,-27,31c0,0,-18,11,-40,15c0,0,-24,3,-48,4H20v64H287L303,681h6c0,0,16,34,39,63c0,0,21,28,50,49c0,0,27,19,64,31c0,0,36,9,80,10c0,0,75,0,134,-25c0,0,58,-26,98,-76c0,0,38,-53,60,-132c0,0,20,-80,20,-190c0,0,0,-111,-20,-191c0,0,-22,-80,-60,-133c0,0,-40,-53,-98,-77c0,0,-57,-24,-131,-24c-1,0,-2,0,-3,0h-2c-8,0,-46,1,-77,10c0,0,-37,8,-65,26c0,0,-29,18,-50,43c0,0,-23,24,-39,54h-3c0,0,0,-39,0,-73c0,0,0,-15,0,-30c0,0,0,-15,0,-28c0,0,0,-14,0,-24c0,0,0,-11,0,-17V-199c0,0,0,-33,10,-54c0,0,10,-21,28,-31c0,0,17,-11,41,-14c0,0,23,-4,49,-4h5v-64Z" 
id="f1_9"
transform="scale(0.001,-0.001)" />

<path d="M51,0V64h4c0,0,26,0,49,4c0,0,23,3,40,16c0,0,16,11,27,32c0,0,10,21,10,58V650c0,0,0,33,-10,55c0,0,-11,20,-28,31c0,0,-17,11,-39,15c0,0,-24,3,-49,4H51v64H286L315,668h7c0,0,14,34,31,65c0,0,15,29,39,53c0,0,22,22,56,35c0,0,33,12,84,13c0,0,83,0,124,-29c0,0,41,-30,41,-82c0,0,0,-24,-8,-44c0,0,-9,-20,-25,-34c0,0,-17,-15,-44,-23c0,0,-27,-8,-66,-8c0,0,0,63,-18,92c0,0,-18,27,-62,27c0,0,-29,0,-51,-15c0,0,-22,-18,-39,-43c0,0,-17,-27,-28,-61c0,0,-13,-35,-19,-70c0,0,-8,-37,-10,-73c0,0,-4,-35,-3,-64V166c0,0,0,-33,10,-53c0,0,10,-22,27,-32c0,0,16,-10,40,-13c0,0,22,-4,48,-4h43V0Z" 
id="f1_7"
transform="scale(0.001,-0.001)" />

<path d="M417,-14c0,0,-60,0,-107,16c0,0,-47,17,-79,54c0,0,-33,36,-49,93c0,0,-17,57,-17,135V650c0,0,0,33,-10,55c0,0,-11,20,-27,31c0,0,-18,11,-40,15c0,0,-24,3,-48,4H35v64H309V292c0,0,0,-51,8,-89c0,0,7,-40,26,-66c0,0,18,-27,49,-40c0,0,29,-14,74,-14c1,0,2,0,3,0c0,0,50,0,88,18c0,0,35,18,59,50c0,0,23,32,34,78c0,0,12,46,12,101V645c0,0,0,35,-10,58c0,0,-10,21,-27,33c0,0,-17,11,-39,15c0,0,-24,3,-50,4h-4v64H805V166c0,0,0,-33,10,-53c0,0,10,-22,27,-32c0,0,17,-10,41,-13c0,0,21,-4,47,-4h5V0H692L672,124h-7c0,0,-24,-44,-51,-70c0,0,-28,-28,-60,-42c0,0,-31,-15,-65,-20c0,0,-35,-6,-72,-6Z" 
id="f1_h"
transform="scale(0.001,-0.001)" />

<path d="M46,-234v64c0,0,74,23,110,58c0,0,34,35,35,79c0,0,-1,15,-8,26c0,0,-9,8,-21,17c0,0,-13,6,-27,15c0,0,-15,7,-27,18c0,0,-13,9,-21,26c0,0,-8,14,-8,38c0,0,0,43,29,67c0,0,28,23,71,23c0,0,23,-1,45,-8c0,0,20,-9,37,-26c0,0,16,-17,26,-41c0,0,9,-27,9,-58c0,0,0,-48,-13,-93c0,0,-14,-46,-44,-84c0,0,-30,-40,-77,-70c0,0,-49,-31,-116,-51Z" 
id="f1_v"
transform="scale(0.001,-0.001)" />

<path d="M99,350v90H755V350Zm0,300v91H755V650Z" 
id="f1_1a"
transform="scale(0.001,-0.001)" />

<path d="M78,0V112L333,407c0,0,61,70,103,126c0,0,40,56,66,106c0,0,25,49,37,97c0,0,11,47,11,100c0,0,0,43,-9,79c0,0,-11,35,-29,61c0,0,-19,25,-48,40c0,0,-31,13,-70,13c0,0,-53,0,-84,-18c0,0,-33,-20,-52,-50c0,0,-19,-31,-25,-73c0,0,-7,-41,-7,-86c0,0,-28,0,-51,4c0,0,-24,4,-42,17c0,0,-18,11,-28,30c0,0,-10,19,-10,48c0,0,0,43,19,82c0,0,19,37,57,65c0,0,36,28,93,43c0,0,56,15,130,15c0,0,72,0,130,-18c0,0,56,-19,97,-51c0,0,41,-34,62,-81c0,0,21,-47,21,-105c0,0,-1,-54,-17,-104c0,0,-18,-52,-50,-104c0,0,-33,-54,-80,-111c0,0,-48,-58,-108,-124L191,122H545c7,0,36,1,56,10c0,0,21,10,36,25c0,0,14,15,22,37c0,0,7,20,13,42l6,28h61V0Z" 
id="f1_k"
transform="scale(0.001,-0.001)" />

<path d="M290,0L650,967H249c0,0,-82,-1,-89,-78l-6,-76H94v276H781v-44L405,0Z" 
id="f1_l"
transform="scale(0.001,-0.001)" />

<path d="M304,718c0,0,29,0,56,12c0,0,25,11,44,30c0,0,19,19,30,45c0,0,10,25,11,54c0,0,-1,29,-11,56c0,0,-11,25,-30,44c0,0,-19,19,-44,30c0,0,-27,11,-56,11c0,0,-29,0,-54,-11c0,0,-26,-11,-44,-30c0,0,-20,-19,-30,-44c0,0,-11,-27,-11,-56c0,0,0,-29,11,-54c0,0,10,-26,30,-45c0,0,18,-19,44,-30c0,0,25,-12,54,-12Zm0,-90c0,0,-48,0,-89,18c0,0,-43,18,-74,49c0,0,-31,32,-49,74c0,0,-20,41,-19,90c0,0,-1,47,19,91c0,0,18,41,49,73c0,0,31,30,74,50c0,0,41,18,89,18c0,0,48,0,91,-18c0,0,41,-20,73,-50c0,0,31,-32,50,-73c0,0,18,-44,18,-91c0,0,0,-49,-18,-90c0,0,-19,-42,-50,-74c0,0,-32,-31,-73,-49c0,0,-43,-18,-91,-18Z" 
id="f1_13"
transform="scale(0.001,-0.001)" />

<path d="M557,-14c-2,0,-4,0,-6,0c0,0,-115,0,-200,39c0,0,-87,41,-145,115c0,0,-60,73,-89,177c0,0,-30,103,-30,230c0,0,0,124,32,227c0,0,31,103,93,176c0,0,61,73,153,115c0,0,92,41,212,41c0,0,79,0,137,-12c0,0,57,-14,96,-37c0,0,38,-24,58,-54c0,0,18,-32,18,-68c0,0,0,-26,-9,-44c0,0,-11,-20,-29,-34c0,0,-18,-15,-42,-21c0,0,-23,-8,-49,-8c-1,0,-2,0,-4,0c0,0,0,36,-9,71c0,0,-10,34,-30,63c0,0,-22,28,-55,46c0,0,-35,16,-85,17c0,0,-86,0,-147,-31c0,0,-60,-33,-98,-93c0,0,-39,-62,-55,-150c0,0,-17,-89,-17,-204c0,0,0,-102,18,-187c0,0,17,-85,56,-146c0,0,39,-62,99,-95c0,0,59,-33,144,-33c0,0,56,0,100,11c0,0,42,10,75,28c0,0,32,18,58,42c0,0,25,22,44,49c0,0,12,-9,21,-23c0,0,8,-15,8,-37c0,0,0,-29,-19,-59c0,0,-20,-31,-61,-55C800,42,759,17,698,1c0,0,-59,-15,-141,-15Z" 
id="f1_14"
transform="scale(0.001,-0.001)" />

<path d="M58,0V64H78c0,0,25,0,49,4c0,0,22,3,39,16c0,0,17,11,27,32c0,0,10,21,10,58V917c0,0,0,36,-10,57c0,0,-10,21,-27,34c0,0,-17,11,-39,15c0,0,-24,3,-49,3H58v65H503v-65H483c0,0,-26,0,-48,-3c0,0,-24,-3,-40,-14c0,0,-18,-12,-27,-32c0,0,-11,-21,-11,-54V76H659c0,0,34,0,59,13c0,0,23,12,39,32c0,0,16,19,25,44c0,0,7,24,11,49l15,114h75V0Z" 
id="f1_1c"
transform="scale(0.001,-0.001)" />

<path d="M351,-291c2,0,3,0,5,0c0,0,1,0,2,0c12,0,84,1,134,15c0,0,52,13,84,38c0,0,31,23,44,58c0,0,12,34,13,74c0,0,0,35,-10,59c0,0,-11,22,-30,35c0,0,-20,12,-49,17c0,0,-29,5,-67,5H327c0,0,-33,0,-62,-5c0,0,-31,-5,-54,-20c0,0,-24,-17,-38,-44c0,0,-15,-29,-14,-74c0,0,0,-34,9,-63c0,0,9,-29,31,-50c0,0,23,-22,61,-33c0,0,35,-12,91,-12Zm34,658c0,0,1,0,1,0c0,0,37,0,64,11c0,0,24,11,42,35c0,0,15,22,23,59c0,0,7,35,7,86c0,0,0,103,-31,152c0,0,-31,49,-106,49c0,0,-74,0,-105,-50c0,0,-33,-50,-32,-153c0,0,0,-98,32,-143c0,0,32,-46,105,-46ZM353,-366c-8,0,-162,1,-239,59c0,0,-80,59,-79,164c0,0,0,45,16,78c0,0,15,34,42,58c0,0,26,22,61,38c0,0,34,14,72,21c0,0,-16,7,-31,18c0,0,-14,11,-26,27c0,0,-13,16,-20,36c0,0,-8,20,-7,45c0,0,0,45,24,79c0,0,23,32,76,64c0,0,-33,13,-58,37c0,0,-27,23,-44,54c0,0,-18,30,-27,65c0,0,-10,36,-9,74c0,0,0,66,18,119c0,0,18,51,53,89c0,0,36,36,90,56c0,0,53,18,126,19c0,0,28,-1,54,-4c0,0,26,-4,50,-11c0,0,22,-8,41,-16c0,0,18,-9,29,-19c0,0,12,12,27,27c0,0,14,14,33,27c0,0,19,12,41,20c0,0,21,7,47,8c0,0,23,-1,40,-6c0,0,17,-7,28,-17c0,0,11,-11,17,-25c0,0,5,-15,5,-31c0,0,0,-17,-4,-31c0,0,-6,-15,-15,-25c0,0,-10,-12,-25,-17c0,0,-15,-7,-36,-7c0,0,0,9,-2,18c0,0,-3,9,-8,17c0,0,-6,7,-16,13c0,0,-10,4,-25,4c0,0,-19,0,-35,-4c0,0,-16,-5,-31,-14c0,0,26,-33,44,-76c0,0,16,-44,16,-109c0,0,-1,-57,-17,-105c0,0,-17,-48,-51,-82c0,0,-35,-36,-86,-56c0,0,-52,-19,-121,-19H348c0,0,-11,0,-21,1c0,0,-10,1,-15,3c0,0,-15,-9,-29,-17c0,0,-13,-9,-23,-20c0,0,-11,-11,-16,-25c0,0,-6,-15,-6,-32c0,0,-1,-19,7,-29c0,0,7,-12,20,-18c0,0,12,-7,30,-8c0,0,17,-2,38,-2H506c0,0,68,-1,116,-17c0,0,48,-17,78,-47c0,0,30,-32,44,-73c0,0,14,-41,14,-90c0,0,-1,-67,-24,-119c0,0,-25,-53,-75,-89c0,0,-50,-38,-126,-58c0,0,-77,-20,-180,-20Z" 
id="f1_x"
transform="scale(0.001,-0.001)" />

<path d="M28,0V64H40c0,0,25,0,49,4c0,0,22,3,39,16c0,0,17,11,27,32c0,0,10,21,10,58V993c0,0,0,33,-10,54c0,0,-11,21,-27,32c0,0,-18,11,-40,15c0,0,-24,3,-48,3H28v64H308V825c0,0,0,-22,0,-43c0,0,-1,-24,-4,-43c0,0,0,-23,0,-44h6c0,0,68,139,225,139c0,0,65,-1,115,-17c0,0,50,-18,85,-54c0,0,34,-37,52,-93c0,0,18,-58,18,-135V174c0,0,0,-37,9,-58c0,0,9,-21,24,-32c0,0,16,-13,38,-16c0,0,21,-4,47,-4h4V0H662V527c0,0,0,50,-9,89c0,0,-10,39,-29,66c0,0,-20,26,-52,41c0,0,-33,13,-78,13c0,0,-49,0,-82,-17c0,0,-35,-18,-58,-50c0,0,-24,-33,-34,-78c0,0,-11,-46,-11,-102V166c0,0,0,-33,10,-53c0,0,10,-22,27,-32c0,0,17,-10,40,-13c0,0,22,-4,48,-4h5V0Z" 
id="f1_4"
transform="scale(0.001,-0.001)" />

<path d="M442,64c0,0,56,0,97,23c0,0,38,22,64,66c0,0,24,43,36,108c0,0,9,65,10,150c0,0,0,85,-11,149c0,0,-11,64,-36,108c0,0,-25,42,-64,64c0,0,-41,21,-98,21c0,0,-58,0,-97,-21c0,0,-39,-22,-64,-64c0,0,-25,-44,-36,-108c0,0,-11,-64,-11,-149c0,0,0,-85,11,-150c0,0,11,-65,37,-108c0,0,24,-44,65,-66c0,0,38,-23,97,-23Zm-3,-78c0,0,-83,0,-149,25c0,0,-66,26,-111,79c0,0,-47,52,-70,134c0,0,-25,79,-25,187c0,0,0,213,91,319c0,0,90,103,268,104c0,0,82,0,149,-25c0,0,65,-26,111,-79c0,0,46,-53,71,-132c0,0,23,-80,23,-187c0,0,0,-216,-91,-321C706,90,614,-14,439,-14Z" 
id="f1_b"
transform="scale(0.001,-0.001)" />

<path d="M41,0V64H61c0,0,26,0,49,4c0,0,23,3,40,16c0,0,16,11,27,32c0,0,9,21,9,58V747H47v72H186v76c0,0,0,68,19,121c0,0,19,52,54,88c0,0,34,35,85,55c0,0,50,17,113,17c0,0,58,0,100,-7c0,0,41,-8,67,-22c0,0,24,-15,35,-34c0,0,12,-20,12,-43c0,0,0,-22,-9,-37c0,0,-11,-17,-26,-27c0,0,-18,-11,-40,-16c0,0,-24,-6,-51,-6c0,0,0,23,-4,45c0,0,-6,21,-17,39c0,0,-12,17,-31,28c0,0,-19,10,-48,10c0,0,-34,0,-55,-12c0,0,-22,-13,-36,-38c0,0,-13,-26,-18,-62c0,0,-6,-37,-6,-85V819H545V747H330V174c0,0,0,-37,10,-58c0,0,10,-21,27,-32c0,0,16,-13,40,-16c0,0,22,-4,48,-4h58V0Z" 
id="f1_d"
transform="scale(0.001,-0.001)" />

<path d="M518,83c0,0,50,0,86,21c0,0,35,21,58,63c0,0,23,41,33,104c0,0,10,61,11,142c0,0,-1,80,-11,142c0,0,-10,60,-33,101c0,0,-23,40,-58,60c0,0,-38,20,-88,20c0,0,-60,0,-99,-19c0,0,-41,-20,-64,-61c0,0,-24,-40,-34,-101c0,0,-10,-62,-10,-144c0,0,0,-80,10,-141c0,0,10,-62,35,-103c0,0,23,-42,64,-63c0,0,39,-21,100,-21Zm27,-97c-1,0,-2,0,-3,0h-2c-8,0,-46,1,-77,10c0,0,-37,8,-65,26c0,0,-29,18,-50,43c0,0,-23,24,-39,54H299L272,0H28V64H40c0,0,25,0,49,4c0,0,22,3,39,16c0,0,17,11,27,32c0,0,10,21,10,58V993c0,0,0,33,-10,54c0,0,-11,21,-27,32c0,0,-18,11,-40,15c0,0,-24,3,-48,3H28v64H306V880c0,0,0,-26,0,-59c0,0,0,-35,0,-66c0,0,0,-36,0,-74h3c0,0,16,34,39,63c0,0,21,28,50,49c0,0,27,19,64,31c0,0,36,9,80,10c0,0,75,0,134,-25c0,0,58,-26,98,-76c0,0,38,-53,60,-132c0,0,20,-80,20,-190c0,0,0,-111,-20,-191c0,0,-22,-80,-60,-133c0,0,-40,-53,-98,-77c0,0,-57,-24,-131,-24Z" 
id="f1_y"
transform="scale(0.001,-0.001)" />

<path d="M321,-14c0,0,-58,0,-104,11c0,0,-48,7,-80,29c0,0,-33,20,-50,51c0,0,-18,30,-18,70c0,0,0,30,10,51c0,0,10,20,25,33c0,0,14,11,31,17c0,0,16,4,30,4c0,0,0,-41,8,-75c0,0,8,-36,28,-61c0,0,18,-28,51,-42c0,0,31,-16,78,-16c0,0,41,0,72,11c0,0,31,9,53,28c0,0,21,18,32,44c0,0,11,25,11,56c0,0,0,28,-8,49c0,0,-9,20,-30,38c0,0,-21,17,-58,37c0,0,-37,18,-92,42c0,0,-59,26,-102,51c0,0,-45,23,-72,52c0,0,-29,28,-43,65c0,0,-15,35,-14,86c0,0,-1,52,21,92c0,0,20,40,58,68c0,0,38,26,91,41c0,0,52,15,118,15c0,0,54,0,96,-12c0,0,41,-11,70,-30c0,0,28,-19,43,-44c0,0,14,-27,14,-55c0,0,-1,-42,-28,-66c0,0,-29,-25,-80,-25c-1,0,-2,0,-2,0c0,0,0,76,-32,119c0,0,-32,42,-100,42c0,0,-39,0,-66,-9c0,0,-28,-9,-45,-25c0,0,-18,-17,-26,-39c0,0,-8,-22,-8,-49c0,0,0,-29,10,-50c0,0,10,-22,34,-39c0,0,22,-18,59,-35c0,0,36,-17,86,-38c0,0,60,-26,104,-50c0,0,43,-24,72,-54c0,0,27,-29,41,-65c0,0,13,-37,13,-84c0,0,-1,-60,-21,-105c0,0,-23,-45,-62,-74C539,46,499,14,445,0c0,0,-56,-14,-124,-14Z" 
id="f1_g"
transform="scale(0.001,-0.001)" />

<path d="M315,0L115,674c0,0,-9,23,-19,39c0,0,-10,15,-22,26c0,0,-13,8,-29,12c0,0,-17,3,-39,4H1v64H379V755H359c0,0,-46,0,-69,-13c0,0,-24,-15,-23,-51c0,0,0,-13,5,-31c0,0,3,-18,8,-35L351,369c0,0,8,-29,16,-61c0,0,7,-33,16,-65c0,0,6,-33,12,-61c0,0,6,-29,10,-48h5c0,0,3,19,10,46c0,0,5,24,15,55c0,0,7,29,18,60c0,0,9,30,19,58L631,815h96L880,362c0,0,9,-29,20,-59c0,0,9,-33,18,-63c0,0,9,-31,17,-59c0,0,7,-28,11,-47h4c0,0,7,38,22,94c0,0,14,55,38,129l76,247c0,0,5,18,11,41c0,0,3,21,3,35c0,0,0,38,-24,57c0,0,-26,18,-77,18H988v64h327V755h-19c0,0,-23,0,-39,-5c0,0,-17,-5,-29,-17c0,0,-14,-13,-25,-36c0,0,-11,-24,-22,-61L984,0H862L680,538L652,639L436,0Z" 
id="f1_e"
transform="scale(0.001,-0.001)" />

<path d="M238,-14c0,0,-56,0,-90,39c0,0,-36,41,-36,105c0,0,0,72,33,240L270,956c0,0,10,45,10,69c0,0,0,72,-108,72H154l14,64H457L280,328c0,0,-24,-109,-23,-169c0,0,0,-78,50,-78c0,0,44,0,110,40L445,76c0,0,-107,-90,-207,-90Z" 
id="f2_5"
transform="scale(0.001,-0.001)" />

<path d="M147,0V64H249c0,0,26,0,49,4c0,0,23,3,40,16c0,0,16,11,27,32c0,0,9,21,9,58V976c0,0,-29,-35,-55,-64c0,0,-27,-29,-50,-50c0,0,-24,-22,-46,-32c0,0,-22,-12,-44,-12c0,0,-1,0,-1,0c0,0,-1,0,-1,0c-3,0,-35,0,-55,23c0,0,-21,21,-21,59c0,0,23,5,47,15c0,0,23,7,50,22c0,0,25,13,57,34c0,0,30,18,69,47l107,79h98V174c0,0,-1,-37,10,-58c0,0,9,-21,26,-32c0,0,17,-13,41,-16c0,0,22,-4,48,-4h75V0Z" 
id="f1_o"
transform="scale(0.001,-0.001)" />

<path d="M222,-9c-1,0,-2,0,-3,0c0,0,-1,0,-3,0c-6,0,-22,0,-35,5c0,0,-18,4,-30,16c0,0,-14,12,-21,32c0,0,-8,20,-8,49c0,0,0,30,8,50c0,0,7,19,21,32c0,0,12,11,30,17c0,0,17,5,38,5c0,0,18,0,37,-5c0,0,16,-6,30,-17c0,0,12,-13,21,-32c0,0,8,-20,8,-50c0,0,0,-29,-8,-49c0,0,-9,-20,-21,-32C286,12,272,0,256,-4c0,0,-17,-5,-34,-5Z" 
id="f1_n"
transform="scale(0.001,-0.001)" />

<path d="M424,55c0,0,50,0,91,16c0,0,41,14,70,42c0,0,27,27,44,64c0,0,16,36,16,81c0,0,0,39,-15,72c0,0,-15,33,-46,65c0,0,-33,29,-83,60c0,0,-51,28,-125,61c0,0,-73,-39,-115,-100c0,0,-42,-63,-42,-149c0,0,0,-48,13,-86c0,0,12,-40,39,-67c0,0,24,-29,64,-43c0,0,39,-16,89,-16Zm31,565c0,0,43,21,72,45c0,0,27,21,44,50c0,0,16,27,23,59c0,0,7,32,7,73c0,0,0,34,-9,68c0,0,-11,34,-30,61c0,0,-22,25,-54,42c0,0,-34,16,-82,16c0,0,-43,0,-75,-13c0,0,-34,-15,-56,-39c0,0,-23,-24,-34,-58c0,0,-13,-34,-12,-73c0,0,0,-42,14,-74c0,0,12,-33,38,-59c0,0,25,-27,65,-50c0,0,38,-25,89,-48ZM421,-14c-1,0,-3,0,-4,0c0,0,-87,0,-151,21c0,0,-65,23,-108,62c0,0,-45,39,-65,92c0,0,-23,52,-23,113c0,0,0,54,18,97c0,0,16,41,49,74c0,0,31,32,73,58c0,0,42,25,93,50c0,0,-44,24,-80,53c0,0,-37,28,-63,63c0,0,-26,34,-40,75c0,0,-15,40,-15,89c0,0,-1,52,19,102c0,0,18,49,58,87c0,0,39,37,103,61c0,0,62,23,151,23c0,0,71,0,127,-19c0,0,55,-21,95,-55c0,0,38,-35,58,-83c0,0,20,-49,20,-106c0,0,0,-51,-15,-88c0,0,-15,-38,-41,-68c0,0,-27,-31,-65,-54c0,0,-39,-25,-85,-48c0,0,57,-28,104,-58c0,0,46,-30,80,-66c0,0,33,-37,52,-78c0,0,18,-41,18,-91c0,0,-1,-73,-26,-129c0,0,-26,-59,-74,-97C684,66,636,26,568,6c0,0,-66,-20,-147,-20Z" 
id="f1_1n"
transform="scale(0.001,-0.001)" />

<path d="M58,0V64H78c0,0,24,0,48,4c0,0,22,3,40,13c0,0,16,10,27,32c0,0,10,20,10,53V923c0,0,0,33,-10,54c0,0,-11,20,-27,32c0,0,-18,11,-40,14c0,0,-24,3,-48,3H58v65H832V824H756l-7,65c0,0,-4,26,-12,49c0,0,-9,23,-25,40c0,0,-17,16,-43,27c0,0,-26,10,-61,10H357V573H726V498H357V174c0,0,0,-37,11,-58c0,0,9,-21,27,-32c0,0,15,-13,39,-16c0,0,23,-4,49,-4h50V0Z" 
id="f1_1d"
transform="scale(0.001,-0.001)" />

<path d="M-6,365v90H771V365Z" 
id="f1_1b"
transform="scale(0.001,-0.001)" />

<path d="M383,-14c-2,0,-4,0,-6,0h-1c-12,0,-79,1,-128,14c0,0,-56,12,-90,36c0,0,-36,23,-52,54c0,0,-17,30,-17,64c0,0,0,46,26,73c0,0,25,25,70,25c0,0,0,-40,13,-74c0,0,12,-35,38,-59c0,0,24,-24,61,-38c0,0,34,-14,79,-14c1,0,2,0,3,0c0,0,45,0,86,13c0,0,42,12,73,42c0,0,30,29,50,76c0,0,18,47,18,115c0,0,0,48,-18,88c0,0,-20,38,-55,67c0,0,-36,27,-88,43c0,0,-52,14,-115,15H281v78h49c0,0,50,0,94,17c0,0,44,16,77,47c0,0,31,29,50,74c0,0,19,43,19,98c0,0,0,45,-9,80c0,0,-10,34,-28,59c0,0,-21,25,-51,38c0,0,-32,12,-75,12c0,0,-53,0,-85,-18c0,0,-33,-20,-52,-50c0,0,-19,-31,-25,-73c0,0,-7,-41,-7,-86c0,0,-28,0,-52,4c0,0,-23,4,-41,17c0,0,-18,11,-28,30c0,0,-10,19,-10,48c0,0,0,43,19,82c0,0,19,37,57,65c0,0,38,28,94,43c0,0,56,15,130,15c0,0,71,0,131,-16c0,0,59,-17,101,-47c0,0,41,-31,65,-76c0,0,23,-46,23,-104c0,0,0,-51,-18,-97c0,0,-19,-46,-51,-82c0,0,-33,-38,-78,-63c0,0,-45,-27,-97,-39c0,0,27,-4,60,-10c0,0,32,-8,63,-21c0,0,32,-13,61,-33c0,0,28,-20,51,-50c0,0,21,-29,35,-67c0,0,12,-39,12,-89c0,0,0,-62,-16,-110c0,0,-17,-48,-45,-84c0,0,-29,-37,-67,-62c0,0,-38,-26,-81,-41C556,15,512,0,467,-6c0,0,-42,-8,-84,-8Z" 
id="f1_m"
transform="scale(0.001,-0.001)" />

<path d="M413,510c0,0,36,0,67,11c0,0,30,9,55,27c0,0,23,15,42,39c0,0,16,22,27,47v3c0,0,0,101,-15,174c0,0,-15,72,-41,119c0,0,-27,47,-62,70c0,0,-36,22,-81,22c0,0,-81,-1,-125,-71c0,0,-45,-71,-45,-206c0,0,0,-62,11,-107c0,0,11,-46,34,-73c0,0,22,-29,55,-41c0,0,33,-14,78,-14ZM350,-16c-1,0,-2,0,-3,0c0,0,-1,0,-2,0c-12,0,-68,0,-106,12c0,0,-44,9,-67,29c0,0,-27,18,-36,42c0,0,-11,23,-11,48c0,0,0,27,15,48c0,0,14,18,31,25c0,0,10,-25,26,-46c0,0,15,-22,37,-38c0,0,23,-17,51,-27c0,0,27,-10,61,-10c1,0,3,0,4,0c0,0,127,0,189,114c0,0,61,112,61,343c0,0,-17,-20,-38,-39c0,0,-23,-20,-50,-33c0,0,-28,-16,-61,-23c0,0,-34,-9,-74,-9c0,0,-67,0,-121,19c0,0,-56,19,-95,59c0,0,-40,38,-62,97c0,0,-21,58,-21,135c0,0,0,83,22,153c0,0,22,67,65,118c0,0,41,49,103,78c0,0,59,27,137,27c0,0,77,0,143,-30c0,0,64,-30,112,-92c0,0,48,-63,75,-160c0,0,25,-97,26,-231c0,0,0,-80,-10,-156c0,0,-10,-77,-31,-145c0,0,-23,-68,-55,-124c0,0,-33,-58,-79,-98C586,70,539,28,480,6c0,0,-57,-22,-130,-22Z" 
id="f1_1i"
transform="scale(0.001,-0.001)" />

<path d="M490,78c0,0,90,0,160,31c0,0,67,30,113,90c0,0,45,59,69,147c0,0,22,87,22,201c0,0,0,227,-90,347c0,0,-91,120,-272,121H357V78ZM529,0c-1,0,-2,0,-3,0H58V64H78c0,0,25,0,49,4c0,0,22,3,39,16c0,0,17,11,27,32c0,0,10,21,10,58V923c0,0,0,33,-10,54c0,0,-11,20,-27,32c0,0,-18,11,-40,14c0,0,-24,3,-48,3H58v65H526c0,0,117,0,210,-36c0,0,93,-37,157,-106c0,0,63,-69,97,-171c0,0,33,-102,33,-231c0,0,0,-126,-31,-226c0,0,-32,-102,-93,-173C899,148,836,77,744,39C744,39,651,0,529,0Z" 
id="f1_1o"
transform="scale(0.001,-0.001)" />

<path d="M318,81c2,0,76,1,159,113c0,0,84,113,111,246l57,270c0,0,-36,55,-116,55c0,0,-131,0,-219,-165c0,0,-88,-167,-88,-342c0,0,0,-177,96,-177ZM263,-14c0,0,-94,0,-145,73c0,0,-53,72,-52,205c0,0,0,210,131,390c0,0,130,180,324,180c0,0,85,0,150,-37c0,0,11,71,17,86l15,73c0,0,9,52,10,69c0,0,-1,72,-107,72H595l13,64H889L712,328c0,0,-23,-106,-23,-169c0,0,0,-78,50,-78c0,0,44,0,111,40L877,76c0,0,-109,-90,-215,-90c0,0,-120,0,-120,126c0,0,0,48,16,119H548C548,231,438,-14,263,-14Z" 
id="f2_6"
transform="scale(0.001,-0.001)" />

<path d="M427,67c0,0,56,0,94,33c0,0,38,32,62,94c0,0,23,61,34,151c0,0,10,88,10,202c0,0,0,112,-10,202c0,0,-11,88,-34,150c0,0,-24,60,-61,93c0,0,-39,31,-93,31c0,0,-56,0,-94,-31c0,0,-40,-33,-63,-93c0,0,-24,-62,-34,-150c0,0,-10,-90,-10,-202c0,0,0,-114,10,-202c0,0,10,-90,34,-151c0,0,23,-62,62,-94c0,0,38,-33,93,-33Zm0,-81c0,0,-94,0,-161,39c0,0,-69,41,-112,115c0,0,-44,73,-64,178c0,0,-22,103,-21,230c0,0,-1,126,21,230c0,0,20,103,64,176c0,0,44,72,112,113c0,0,67,39,163,39c0,0,89,0,157,-39c0,0,65,-41,111,-113c0,0,45,-73,67,-176c0,0,21,-104,22,-231c0,0,-1,-127,-22,-230c0,0,-22,-104,-67,-177C697,140,652,66,585,25c0,0,-67,-39,-158,-39Z" 
id="f1_10"
transform="scale(0.001,-0.001)" />

<path d="M229,0V64h35c0,0,25,0,49,4c0,0,22,3,39,13c0,0,17,10,28,32c0,0,9,20,9,53v849H243c0,0,-33,0,-56,-10c0,0,-24,-11,-37,-28c0,0,-15,-17,-22,-39c0,0,-8,-24,-10,-49l-8,-65H34v267H902V824H827l-8,65c0,0,-4,25,-10,49c0,0,-9,22,-22,39c0,0,-15,17,-37,28c0,0,-24,10,-58,10H544V174c0,0,0,-37,10,-58c0,0,10,-21,27,-32c0,0,16,-13,40,-16c0,0,22,-4,48,-4h35V0Z" 
id="f1_3"
transform="scale(0.001,-0.001)" />

<path d="M421,83c0,0,59,0,100,20c0,0,39,19,65,60c0,0,23,39,34,101c0,0,10,61,10,144c0,0,0,79,-10,141c0,0,-11,61,-34,103c0,0,-25,41,-65,63c0,0,-41,21,-101,21c0,0,-51,0,-86,-21c0,0,-36,-23,-58,-64c0,0,-24,-42,-34,-103c0,0,-10,-62,-10,-141c0,0,0,-163,44,-244c0,0,43,-80,145,-80ZM395,-14c-8,0,-78,1,-133,24c0,0,-59,24,-98,77c0,0,-39,52,-60,132c0,0,-20,79,-20,189c0,0,0,110,20,191c0,0,21,80,60,133c0,0,39,51,98,77c0,0,58,25,133,25c0,0,44,0,80,-10c0,0,36,-10,65,-27c0,0,28,-18,51,-43c0,0,21,-24,39,-54h4c0,0,0,36,0,70c0,0,0,27,0,57c0,0,0,27,0,41V993c0,0,-1,33,-10,54c0,0,-11,21,-29,32c0,0,-18,11,-41,15c0,0,-24,3,-49,3H492v64H773V168c0,0,0,-34,10,-54c0,0,10,-21,27,-32c0,0,17,-11,40,-14c0,0,22,-4,48,-4h13V0H652L636,137h-6c0,0,-18,-35,-39,-62c0,0,-23,-29,-51,-48C540,27,512,6,476,-3c0,0,-36,-11,-81,-11Z" 
id="f1_u"
transform="scale(0.001,-0.001)" />

<path d="M365,0L119,674c0,0,-9,23,-18,39c0,0,-11,15,-23,26c0,0,-12,8,-29,12c0,0,-17,3,-39,4H6v64H388V755H369c0,0,-47,0,-69,-18c0,0,-24,-18,-23,-56c0,0,-1,-13,3,-25c0,0,3,-14,9,-31L392,336c0,0,10,-26,21,-58c0,0,9,-33,20,-65c0,0,8,-31,16,-59c0,0,7,-29,11,-47h5c0,0,3,16,12,41c0,0,8,23,20,53c0,0,10,27,22,58c0,0,11,29,22,57L650,614c0,0,8,19,12,36c0,0,3,16,3,30c0,0,0,38,-25,57c0,0,-26,18,-76,18H553v64H880V755H862c0,0,-23,0,-38,-5c0,0,-17,-6,-29,-18c0,0,-12,-14,-24,-37c0,0,-12,-24,-26,-59L504,0Z" 
id="f1_j"
transform="scale(0.001,-0.001)" />

<path d="M-31,0l12,64H0c0,0,72,0,103,25c0,0,31,24,45,77L309,923c0,0,5,27,6,42c0,0,0,61,-111,61H185l13,65H968L920,824H840l3,26c0,0,1,15,2,27c0,0,3,25,3,35c0,0,0,102,-115,103H483L388,573H756L741,498H373L304,174c0,0,-6,-25,-5,-38c0,0,-1,-72,106,-72h50L443,0Z" 
id="f2_7"
transform="scale(0.001,-0.001)" />

<path d="M433,-14c0,0,-77,0,-141,23c0,0,-64,23,-110,74c0,0,-46,50,-72,130c0,0,-26,79,-26,192c0,0,0,122,26,205c0,0,26,82,72,132c0,0,46,49,108,71c0,0,61,21,134,21c0,0,47,0,96,-9c0,0,47,-10,85,-29c0,0,38,-19,62,-49c0,0,23,-30,24,-69c0,0,0,-54,-35,-74c0,0,-35,-22,-102,-22c0,0,0,35,-6,68c0,0,-6,32,-20,56c0,0,-15,24,-39,38c0,0,-26,14,-65,14c0,0,-44,0,-79,-16c0,0,-35,-18,-61,-57c0,0,-26,-40,-39,-108c0,0,-13,-69,-13,-170c0,0,-1,-164,54,-243c0,0,54,-80,177,-80h1c6,0,72,1,123,30c0,0,52,30,79,77c0,0,11,-10,19,-24c0,0,7,-15,7,-36c0,0,0,-27,-16,-52c0,0,-17,-26,-49,-47C627,32,594,10,546,0c0,0,-48,-14,-113,-14Z" 
id="f1_s"
transform="scale(0.001,-0.001)" />

<path d="M7,0V64H22c0,0,26,0,48,5c0,0,20,4,40,15c0,0,18,11,37,31c0,0,19,19,41,47L380,411L188,674c0,0,-34,38,-65,60c0,0,-33,21,-66,21H37v64H424V755h-4c0,0,-27,0,-43,-3c0,0,-17,-5,-27,-10c0,0,-11,-7,-14,-15c0,0,-3,-8,-3,-17c0,0,-1,-16,9,-30c0,0,9,-17,27,-40L469,503l79,114c0,0,17,25,28,49c0,0,10,23,10,44c0,0,0,28,-23,37c0,0,-24,7,-59,8h-4v64H834V755H821c0,0,-23,-1,-41,-4c0,0,-19,-4,-36,-14c0,0,-17,-11,-36,-30c0,0,-19,-20,-42,-50L509,448L733,145c0,0,34,-44,64,-62c0,0,29,-19,57,-19q1,0,2,0h20V0H481V64h8c0,0,91,0,91,51c0,0,0,7,-2,17c0,0,-2,8,-9,20c0,0,-7,11,-18,28c0,0,-11,16,-29,40L420,357L313,208c0,0,-6,-9,-14,-21c0,0,-8,-12,-13,-24c0,0,-7,-14,-10,-26c0,0,-4,-13,-4,-25c0,0,0,-27,22,-37c0,0,21,-11,73,-11h4V0Z" 
id="f1_11"
transform="scale(0.001,-0.001)" />

<path d="M342,83c0,0,160,0,254,357l24,96c0,0,2,11,-5,73c0,0,-9,60,-41,95c0,0,-32,35,-88,35c0,0,-112,0,-190,-141c0,0,-80,-142,-79,-326c0,0,0,-189,125,-189ZM287,-14c0,0,-103,0,-163,75c0,0,-62,76,-61,206c0,0,0,240,120,404c0,0,119,162,288,163c0,0,161,-1,194,-160h9c0,0,56,103,113,145H897c0,0,-87,-111,-139,-301L713,350c0,0,-24,-90,-24,-171c0,0,0,-87,70,-87c0,0,30,0,78,30L865,73C865,73,777,-6,691,-6c-2,0,-126,0,-140,160h-6C545,154,436,-14,287,-14Z" 
id="f2_8"
transform="scale(0.001,-0.001)" />

<path d="M243,0V64h35c0,0,25,0,49,4c0,0,22,3,39,13c0,0,17,10,28,32c0,0,10,20,10,53V455L121,946c0,0,-13,21,-24,37c0,0,-11,14,-23,25c0,0,-14,10,-28,14c0,0,-15,4,-34,4H-6v65H413v-65H356c0,0,-22,0,-34,-3c0,0,-13,-4,-21,-11c0,0,-8,-6,-9,-15c0,0,-4,-9,-3,-19c0,0,-1,-22,9,-43c0,0,9,-22,18,-38L429,692c0,0,26,-47,45,-92c0,0,19,-46,32,-82c0,0,6,16,17,36c0,0,10,20,22,44c0,0,12,22,26,47c0,0,13,23,27,47l97,176c0,0,14,25,22,50c0,0,5,22,6,41c0,0,-1,34,-24,51c0,0,-25,16,-68,16H586v65H959v-65H941c0,0,-17,0,-30,-5c0,0,-16,-6,-30,-19c0,0,-15,-15,-31,-37c0,0,-17,-24,-35,-57L558,455V174c0,0,-1,-37,10,-58c0,0,9,-21,27,-32c0,0,16,-13,40,-16c0,0,21,-4,48,-4h35V0Z" 
id="f1_1q"
transform="scale(0.001,-0.001)" />

<path d="M133,732L87,1091H249L203,732Z" 
id="f1_1m"
transform="scale(0.001,-0.001)" />

<path d="M151,0l14,64h35c0,0,76,0,107,27c0,0,29,25,40,75l60,282L229,946c0,0,-17,48,-34,65c0,0,-17,15,-58,15H118l13,65H544l-14,-65H454c0,0,-63,0,-63,-41c0,0,0,-30,20,-88L480,692c0,0,36,-109,41,-183c0,0,14,27,115,160L781,863c0,0,56,75,56,124c0,0,-1,39,-73,39H707l14,65h378l-14,-65h-29c0,0,-30,0,-58,-23c0,0,-29,-24,-81,-92L561,445L501,168c0,0,-6,-28,-6,-43c0,0,0,-61,108,-61q1,0,2,0h35L627,0Z" 
id="f2_9"
transform="scale(0.001,-0.001)" />

<path d="M58,-366v72h1c8,0,79,1,133,23c0,0,55,24,97,64c0,0,39,40,68,95c0,0,26,55,45,118L119,674c0,0,-10,23,-20,39c0,0,-10,14,-21,25c0,0,-13,9,-29,13c0,0,-17,3,-39,4H6v64H373V755h-4c0,0,-47,0,-69,-18c0,0,-24,-18,-23,-56c0,0,-1,-13,3,-25c0,0,2,-14,9,-31L401,353c0,0,9,-27,22,-57c0,0,11,-31,22,-61c0,0,9,-31,18,-57c0,0,7,-28,11,-47h4c0,0,8,34,23,82c0,0,14,48,34,103L637,614c0,0,7,19,11,36c0,0,2,16,2,30c0,0,0,38,-24,57c0,0,-26,18,-76,18h-5v64H863V755h-4c0,0,-23,0,-38,-5c0,0,-18,-6,-30,-18c0,0,-13,-14,-24,-37c0,0,-11,-24,-25,-59L510,-5c0,0,-27,-74,-50,-130c0,0,-25,-56,-50,-95c0,0,-27,-41,-57,-67c0,0,-32,-26,-71,-41c0,0,-40,-17,-91,-22c0,0,-51,-6,-119,-6Z" 
id="f1_w"
transform="scale(0.001,-0.001)" />

<path d="M223,-9c-1,0,-2,0,-3,0c0,0,-1,0,-2,0c-6,0,-22,0,-35,5c0,0,-19,4,-31,16c0,0,-13,12,-21,32c0,0,-8,20,-7,49c0,0,-1,30,7,50c0,0,8,19,21,32c0,0,12,11,31,17c0,0,16,5,37,5c0,0,19,0,37,-5c0,0,17,-6,31,-17c0,0,12,-13,21,-32c0,0,7,-20,7,-50c0,0,0,-29,-7,-49c0,0,-9,-20,-21,-32C288,12,274,0,257,-4c0,0,-16,-5,-34,-5Zm0,627c-1,0,-2,0,-3,0c0,0,-1,0,-2,0c-6,0,-22,1,-35,6c0,0,-19,5,-31,18c0,0,-13,11,-21,32c0,0,-8,20,-7,49c0,0,-1,30,7,50c0,0,8,18,21,31c0,0,12,11,31,17c0,0,16,6,37,6c0,0,19,0,37,-6c0,0,17,-6,31,-17c0,0,12,-13,21,-31c0,0,7,-20,7,-50c0,0,0,-29,-7,-49c0,0,-9,-21,-21,-32c0,0,-14,-13,-31,-18c0,0,-16,-6,-34,-6Z" 
id="f1_19"
transform="scale(0.001,-0.001)" />

<path d="M222,-9c-1,0,-2,0,-3,0c0,0,-1,0,-3,0c-6,0,-22,0,-35,5c0,0,-18,4,-30,16c0,0,-14,12,-21,32c0,0,-8,20,-8,49c0,0,0,30,8,50c0,0,7,19,21,32c0,0,12,11,30,17c0,0,17,5,38,5c0,0,18,0,37,-5c0,0,16,-6,30,-17c0,0,12,-13,21,-32c0,0,8,-20,8,-50c0,0,0,-29,-8,-49c0,0,-9,-20,-21,-32C286,12,272,0,256,-4c0,0,-17,-5,-34,-5Zm437,0c-1,0,-2,0,-3,0c0,0,-1,0,-3,0c-5,0,-21,0,-35,5c0,0,-18,4,-30,16c0,0,-14,12,-21,32c0,0,-8,20,-8,49c0,0,0,30,8,50c0,0,7,19,21,32c0,0,12,11,30,17c0,0,17,5,38,5c0,0,18,0,37,-5c0,0,16,-6,31,-17c0,0,12,-13,20,-32c0,0,8,-20,8,-50c0,0,0,-29,-8,-49c0,0,-8,-20,-20,-32C724,12,709,0,693,-4c0,0,-17,-5,-34,-5Zm436,0c-1,0,-2,0,-3,0c0,0,-1,0,-2,0c-6,0,-22,0,-35,5c0,0,-19,4,-31,16c0,0,-13,12,-21,32c0,0,-8,20,-7,49c0,0,-1,30,7,50c0,0,8,19,21,32c0,0,12,11,31,17c0,0,16,5,37,5c0,0,19,0,37,-5c0,0,17,-6,31,-17c0,0,12,-13,21,-32c0,0,7,-20,7,-50c0,0,0,-29,-7,-49c0,0,-9,-20,-21,-32c0,0,-14,-12,-31,-16c0,0,-16,-5,-34,-5Z" 
id="f1_1f"
transform="scale(0.001,-0.001)" />

<path d="M480,-194c0,0,-106,41,-180,101c0,0,-75,59,-122,141c0,0,-48,82,-69,191c0,0,-22,107,-22,245c0,0,0,137,22,246c0,0,21,106,69,188c0,0,47,82,122,142c0,0,74,59,180,101v-69c0,0,-79,-48,-125,-114c0,0,-48,-67,-71,-146c0,0,-24,-80,-30,-168c0,0,-9,-90,-8,-180c0,0,-1,-92,8,-180c0,0,6,-88,30,-167c0,0,23,-80,71,-146c0,0,46,-68,125,-115v-70Z" 
id="f1_17"
transform="scale(0.001,-0.001)" />

<path d="M49,-194v70c0,0,79,47,125,115c0,0,45,66,71,146c0,0,23,79,31,167c0,0,7,88,7,180c0,0,0,90,-7,180c0,0,-8,88,-31,168c0,0,-26,79,-71,146c0,0,-46,66,-125,114v69c0,0,105,-42,180,-101c0,0,75,-60,122,-142c0,0,47,-82,69,-188c0,0,21,-109,22,-246c0,0,-1,-138,-22,-245c0,0,-22,-109,-69,-191c0,0,-47,-82,-122,-141c0,0,-75,-60,-180,-101Z" 
id="f1_18"
transform="scale(0.001,-0.001)" />

<path d="M421,0L142,946c0,0,-8,23,-17,39c0,0,-10,16,-22,25c0,0,-13,9,-30,13c0,0,-17,3,-39,3H13v65H434v-65H399c0,0,-46,0,-69,-17c0,0,-23,-18,-23,-56c0,0,0,-12,4,-26c0,0,3,-14,8,-30L460,408c0,0,18,-70,36,-136c0,0,16,-68,30,-122c0,0,11,59,27,130c0,0,14,71,35,144l182,656H880L1071,419c0,0,21,-77,39,-146c0,0,16,-71,27,-123c0,0,11,54,26,116c0,0,13,61,35,135l134,471c0,0,2,9,6,20c0,0,3,11,5,23c0,0,2,10,4,20c0,0,1,10,2,17c0,0,0,39,-25,57c0,0,-26,17,-76,17h-35v65h373v-65h-29c0,0,-23,0,-39,-4c0,0,-17,-5,-31,-17c0,0,-13,-13,-24,-36c0,0,-11,-24,-23,-61L1182,0H1045L796,856L562,0Z" 
id="f1_1r"
transform="scale(0.001,-0.001)" />

<path d="M695,442L657,709c0,0,-24,162,-24,241c0,0,-36,-83,-120,-227L350,442ZM-85,0l13,64h29c0,0,40,0,68,22c0,0,26,20,73,98l532,907H749L894,145c0,0,6,-48,26,-64c0,0,18,-17,64,-17h20L991,0H576l12,64h36c0,0,109,0,109,78c0,0,0,30,-3,52L706,365H304L213,204c0,0,-29,-50,-29,-85c0,0,0,-55,85,-55h35L292,0Z" 
id="f2_a"
transform="scale(0.001,-0.001)" />

<path d="M683,442L588,709c0,0,-25,68,-43,127c0,0,-21,59,-33,114c0,0,-6,-28,-12,-53c0,0,-8,-26,-16,-53c0,0,-9,-26,-19,-55c0,0,-10,-31,-23,-66L338,442ZM0,0V64H29c0,0,1,0,3,0c6,0,23,1,35,5c0,0,16,5,28,18c0,0,12,13,25,37c0,0,11,22,25,60l339,907H604L949,145c0,0,8,-23,19,-39c0,0,8,-16,21,-25c0,0,12,-10,29,-13c0,0,17,-4,39,-4h20V0H657V64h35c0,0,92,0,92,73c0,0,0,12,-3,26c0,0,-4,14,-10,31L710,365H309L251,204c0,0,-8,-18,-11,-35c0,0,-4,-18,-4,-30c0,0,0,-40,26,-57c0,0,24,-18,76,-18h35V0Z" 
id="f1_r"
transform="scale(0.001,-0.001)" />

<path d="M38,359V474H436V359Z" 
id="f1_1k"
transform="scale(0.001,-0.001)" />

<path d="M712,102L515,701c0,0,-24,67,-44,132c0,0,-20,62,-32,117c0,0,-13,-55,-29,-109c0,0,-17,-56,-41,-126L153,102ZM47,0V81L405,1091H538L882,92V0Z" 
id="f1_1p"
transform="scale(0.001,-0.001)" />

<path d="M-30,0l14,64H3c0,0,72,0,103,29c0,0,31,27,44,81L309,923c0,0,5,27,6,42c0,0,0,61,-111,61H185l13,65H643l-13,-65H609c0,0,-73,0,-103,-25c0,0,-32,-26,-43,-78L283,76H583c0,0,117,0,164,138l40,114h79L787,0Z" 
id="f2_b"
transform="scale(0.001,-0.001)" />

<path d="M236,-14c-3,0,-58,1,-91,40c0,0,-35,41,-35,104c0,0,-1,68,34,240l59,280c0,0,5,25,5,41c0,0,-1,63,-93,64H95l13,64H382L278,328c0,0,-24,-110,-23,-169c0,0,0,-78,51,-78c0,0,43,0,110,40L443,76c0,0,-107,-90,-207,-90ZM344,972q-1,0,-2,0c-3,0,-86,1,-85,84c0,0,-1,47,25,78c0,0,25,29,66,29c0,0,86,-1,86,-84c0,0,0,-53,-25,-79c0,0,-26,-28,-65,-28Z" 
id="f2_4"
transform="scale(0.001,-0.001)" />

<path d="M58,0V64H78c0,0,24,0,48,4c0,0,22,3,40,13c0,0,16,10,27,32c0,0,10,20,10,53V917c0,0,0,36,-10,57c0,0,-10,21,-27,34c0,0,-17,11,-39,15c0,0,-24,3,-49,3H58v65H832V824H756l-7,65c0,0,-4,25,-11,49c0,0,-9,22,-25,39c0,0,-17,17,-40,28c0,0,-25,10,-59,10H357V608H726V533H357V76H652c0,0,37,0,63,11c0,0,25,9,42,26c0,0,17,17,27,41c0,0,10,21,13,47l11,66h75V0Z" 
id="f1_1s"
transform="scale(0.001,-0.001)" />

<path d="M421,83c0,0,59,0,100,20c0,0,39,19,65,60c0,0,23,39,34,101c0,0,10,61,10,144c0,0,0,79,-10,141c0,0,-11,61,-34,103c0,0,-25,41,-65,63c0,0,-41,21,-101,21c0,0,-51,0,-86,-21c0,0,-36,-23,-58,-64c0,0,-24,-42,-34,-103c0,0,-10,-62,-10,-141c0,0,0,-163,44,-244c0,0,43,-80,145,-80Zm33,-449v64h51c0,0,26,0,50,4c0,0,22,3,40,16c0,0,17,11,27,33c0,0,10,21,11,58V-60c0,0,0,25,0,60c0,0,0,33,0,64c0,0,0,36,0,73h-3c0,0,-18,-35,-39,-62c0,0,-23,-29,-51,-48C540,27,512,6,476,-3c0,0,-36,-11,-81,-11c-8,0,-78,1,-133,24c0,0,-59,24,-98,77c0,0,-39,52,-60,132c0,0,-20,79,-20,189c0,0,0,110,20,191c0,0,21,80,60,133c0,0,39,51,98,77c0,0,58,25,133,25c0,0,44,0,80,-10c0,0,36,-10,65,-27c0,0,28,-18,51,-43c0,0,21,-24,39,-54h9l27,119H911V755H898c0,0,-26,-1,-48,-4c0,0,-24,-4,-40,-15c0,0,-17,-12,-27,-33c0,0,-10,-23,-10,-58V-197c0,0,0,-34,10,-54c0,0,10,-22,27,-32c0,0,17,-12,40,-15c0,0,22,-4,48,-4h13v-64Z" 
id="f1_i"
transform="scale(0.001,-0.001)" />

<path d="M197,0V27c0,0,71,2,92,13c0,0,21,10,29,29c0,0,9,18,9,109V725c0,0,0,110,-8,141c0,0,-5,24,-19,35c0,0,-14,11,-33,11c0,0,-28,0,-77,-23l-11,23l246,121h25V178c0,0,0,-85,7,-106c0,0,7,-21,29,-32c0,0,23,-11,91,-13V0Z" 
id="f3_l"
transform="scale(0.001,-0.001)" />

<path d="M379,437c0,0,34,0,81,16c0,0,47,17,83,47c0,0,14,97,14,155c0,0,0,72,-25,156c0,0,-25,83,-70,128c0,0,-45,45,-103,45c0,0,-66,0,-116,-60c0,0,-50,-59,-50,-177c0,0,0,-157,66,-246c0,0,49,-64,120,-64ZM80,-20V7c0,0,97,1,181,45c0,0,83,44,161,153c0,0,78,109,109,240c0,0,-117,-75,-212,-75c0,0,-107,0,-183,82c0,0,-76,82,-76,219c0,0,0,132,76,236c0,0,92,126,240,126c0,0,124,0,213,-103c0,0,109,-128,109,-315c0,0,0,-169,-82,-314C616,301,533,155,385,59c0,0,-120,-79,-262,-79Z" 
id="f3_t"
transform="scale(0.001,-0.001)" />


</defs>
</svg>