<?xml version="1.0" encoding="UTF-8" standalone="no"?>
<!DOCTYPE svg PUBLIC "-//W3C//DTD SVG 1.1//EN"
"http://www.w3.org/Graphics/SVG/1.1/DTD/svg11.dtd">
<svg viewBox="0 0 909 1286" version="1.1" xmlns="http://www.w3.org/2000/svg" xmlns:xlink="http://www.w3.org/1999/xlink">
<defs>
<clipPath id="c0_211"><path d="M35.1,1194.7V113.1H873.9V1194.7Z" /></clipPath>
</defs>
<g clip-path="url(#c0_211)">
<g fill="#000000" >
<use xlink:href="#f0_14" transform="matrix(12,0,0,12,52.1,136)" />
<use xlink:href="#f0_d" transform="matrix(10,0,0,10,63.4,140.6)" />
<use xlink:href="#f0_k" transform="matrix(12,0,0,12,78.4,136)" />
<use xlink:href="#f0_4" transform="matrix(12,0,0,12,94.4,136)" />
<use xlink:href="#f0_15" transform="matrix(12,0,0,12,105.6,136)" />
<use xlink:href="#f0_6" transform="matrix(12,0,0,12,120.6,136)" />
<use xlink:href="#f0_k" transform="matrix(12,0,0,12,136.4,136)" />
<use xlink:href="#f0_d" transform="matrix(12,0,0,12,152.4,136)" />
<use xlink:href="#f0_7" transform="matrix(12,0,0,12,169.5,136)" />
<use xlink:href="#f0_16" transform="matrix(12,0,0,12,184.5,136)" />
<use xlink:href="#f1_2" transform="matrix(12,0,0,12,207.6,136)" />
<use xlink:href="#f0_17" transform="matrix(12,0,0,12,222.9,136)" />
<use xlink:href="#f0_y" transform="matrix(12,0,0,12,229.3,136)" />
<use xlink:href="#f0_z" transform="matrix(12,0,0,12,239.5,136)" />
<use xlink:href="#f0_18" transform="matrix(12,0,0,12,47.4,192.5)" />
<use xlink:href="#f0_q" transform="matrix(12,0,0,12,60.3,192.5)" />
<use xlink:href="#f0_q" transform="matrix(12,0,0,12,69.3,192.5)" />
<use xlink:href="#f0_t" transform="matrix(12,0,0,12,78.3,192.5)" />
<use xlink:href="#f0_4" transform="matrix(12,0,0,12,88.3,192.5)" />
<use xlink:href="#f0_f" transform="matrix(12,0,0,12,94.7,192.5)" />
<use xlink:href="#f0_a" transform="matrix(12,0,0,12,110.1,192.5)" />
<use xlink:href="#f0_4" transform="matrix(12,0,0,12,118.3,192.5)" />
<use xlink:href="#f0_i" transform="matrix(12,0,0,12,124.8,192.5)" />
<use xlink:href="#f0_j" transform="matrix(12,0,0,12,135.1,192.5)" />
<use xlink:href="#f0_k" transform="matrix(12,0,0,12,146.9,192.5)" />
<use xlink:href="#f0_i" transform="matrix(12,0,0,12,158.1,192.5)" />
<use xlink:href="#f0_9" transform="matrix(12,0,0,12,168.5,192.5)" />
<use xlink:href="#f0_k" transform="matrix(12,0,0,12,177.1,192.5)" />
<use xlink:href="#f0_o" transform="matrix(12,0,0,12,193.1,192.5)" />
<use xlink:href="#f0_i" transform="matrix(12,0,0,12,202.9,192.5)" />
<use xlink:href="#f0_a" transform="matrix(12,0,0,12,213.2,192.5)" />
<use xlink:href="#f0_3" transform="matrix(12,0,0,12,226.3,192.5)" />
<use xlink:href="#f0_19" transform="matrix(12,0,0,12,236.1,192.5)" />
<use xlink:href="#f0_b" transform="matrix(12,0,0,12,247.3,192.5)" />
<use xlink:href="#f0_i" transform="matrix(12,0,0,12,258.9,192.5)" />
<use xlink:href="#f0_4" transform="matrix(12,0,0,12,269.2,192.5)" />
<use xlink:href="#f0_p" transform="matrix(12,0,0,12,275.7,192.5)" />
<use xlink:href="#f0_f" transform="matrix(12,0,0,12,281.5,192.5)" />
<use xlink:href="#f0_j" transform="matrix(12,0,0,12,292.1,192.5)" />
<use xlink:href="#f0_6" transform="matrix(12,0,0,12,47.4,242.9)" />
<use xlink:href="#f0_d" transform="matrix(12,0,0,12,58.4,242.9)" />
<use xlink:href="#f0_7" transform="matrix(12,0,0,12,75.5,242.9)" />
<use xlink:href="#f0_1a" transform="matrix(12,0,0,12,90.5,242.9)" />
<use xlink:href="#f0_l" transform="matrix(12,0,0,12,102.5,242.9)" />
<use xlink:href="#f0_1b" transform="matrix(12,0,0,12,47.4,293.3)" />
<use xlink:href="#f0_p" transform="matrix(12,0,0,12,60.7,293.3)" />
<use xlink:href="#f0_m" transform="matrix(12,0,0,12,66.5,293.3)" />
<use xlink:href="#f0_m" transform="matrix(12,0,0,12,73.3,293.3)" />
<use xlink:href="#f0_11" transform="matrix(12,0,0,12,84.8,293.3)" />
<use xlink:href="#f0_f" transform="matrix(12,0,0,12,96,293.3)" />
<use xlink:href="#f0_4" transform="matrix(12,0,0,12,106.6,293.3)" />
<use xlink:href="#f0_n" transform="matrix(12,0,0,12,113.1,293.3)" />
<use xlink:href="#f0_a" transform="matrix(12,0,0,12,129.4,293.3)" />
<use xlink:href="#f0_p" transform="matrix(12,0,0,12,137.7,293.3)" />
<use xlink:href="#f0_k" transform="matrix(12,0,0,12,143.5,293.3)" />
<use xlink:href="#f0_3" transform="matrix(12,0,0,12,154.8,293.3)" />
<use xlink:href="#f0_a" transform="matrix(12,0,0,12,164.6,293.3)" />
<use xlink:href="#f0_6" transform="matrix(12,0,0,12,47.4,343.8)" />
<use xlink:href="#f0_k" transform="matrix(12,0,0,12,63.2,343.8)" />
<use xlink:href="#f0_d" transform="matrix(12,0,0,12,79.2,343.8)" />
<use xlink:href="#f0_15" transform="matrix(12,0,0,12,96.3,343.8)" />
<use xlink:href="#f0_d" transform="matrix(12,0,0,12,111.3,343.8)" />
<use xlink:href="#f0_k" transform="matrix(12,0,0,12,128.4,343.8)" />
<use xlink:href="#f0_6" transform="matrix(12,0,0,12,144.4,343.8)" />
<use xlink:href="#f0_7" transform="matrix(12,0,0,12,160.2,343.8)" />
<use xlink:href="#f0_1a" transform="matrix(12,0,0,12,175.2,343.8)" />
<use xlink:href="#f0_k" transform="matrix(12,0,0,12,191.9,343.8)" />
<use xlink:href="#f0_1a" transform="matrix(12,0,0,12,207.9,343.8)" />
<use xlink:href="#f0_1a" transform="matrix(12,0,0,12,47.4,394.2)" />
<use xlink:href="#f0_k" transform="matrix(12,0,0,12,64.1,394.2)" />
<use xlink:href="#f0_l" transform="matrix(12,0,0,12,80.1,394.2)" />
<use xlink:href="#f0_7" transform="matrix(12,0,0,12,96.1,394.2)" />
<use xlink:href="#f0_6" transform="matrix(12,0,0,12,111.1,394.2)" />
<use xlink:href="#f0_k" transform="matrix(12,0,0,12,126.9,394.2)" />
<use xlink:href="#f0_d" transform="matrix(12,0,0,12,142.9,394.2)" />
<use xlink:href="#f0_15" transform="matrix(12,0,0,12,160,394.2)" />
<use xlink:href="#f0_d" transform="matrix(12,0,0,12,170.2,394.2)" />
<use xlink:href="#f0_k" transform="matrix(12,0,0,12,187.3,394.2)" />
<use xlink:href="#f0_6" transform="matrix(12,0,0,12,203.3,394.2)" />
<use xlink:href="#f0_17" transform="matrix(12,0,0,12,219.1,394.2)" />
<use xlink:href="#f0_k" transform="matrix(12,0,0,12,225.5,394.2)" />
<use xlink:href="#f0_1a" transform="matrix(12,0,0,12,241.5,394.2)" />
<use xlink:href="#f0_7" transform="matrix(12,0,0,12,253.5,394.2)" />
<use xlink:href="#f0_16" transform="matrix(12,0,0,12,263.7,394.2)" />
<use xlink:href="#f0_i" transform="matrix(12,0,0,12,282.1,394.2)" />
<use xlink:href="#f0_a" transform="matrix(12,0,0,12,292.4,394.2)" />
<use xlink:href="#f0_1a" transform="matrix(12,0,0,12,310.1,394.2)" />
<use xlink:href="#f0_p" transform="matrix(12,0,0,12,326.9,394.2)" />
<use xlink:href="#f0_a" transform="matrix(12,0,0,12,332.7,394.2)" />
<use xlink:href="#f0_i" transform="matrix(12,0,0,12,345.8,394.2)" />
<use xlink:href="#f0_q" transform="matrix(12,0,0,12,360.8,394.2)" />
<use xlink:href="#f0_f" transform="matrix(12,0,0,12,369.8,394.2)" />
<use xlink:href="#f0_j" transform="matrix(12,0,0,12,380.4,394.2)" />
<use xlink:href="#f0_a" transform="matrix(12,0,0,12,392.2,394.2)" />
<use xlink:href="#f0_4" transform="matrix(12,0,0,12,400.5,394.2)" />
<use xlink:href="#f0_i" transform="matrix(12,0,0,12,406.9,394.2)" />
<use xlink:href="#f0_j" transform="matrix(12,0,0,12,417.3,394.2)" />
<use xlink:href="#f0_4" transform="matrix(12,0,0,12,429.1,394.2)" />
<use xlink:href="#f0_z" transform="matrix(12,0,0,12,435.5,394.2)" />
<use xlink:href="#f0_k" transform="matrix(12,0,0,12,47.4,458.3)" />
<use xlink:href="#f0_l" transform="matrix(12,0,0,12,63.4,458.3)" />
<use xlink:href="#f0_7" transform="matrix(12,0,0,12,79.3,458.3)" />
</g>
</g>
<image preserveAspectRatio="none" x="95" y="422" width="120" height="62" xlink:href="img/1.png" />
<g clip-path="url(#c0_211)">
<g fill="#000000" >
<use xlink:href="#f0_1c" transform="matrix(12,0,0,12,47.4,525.6)" />
<use xlink:href="#f0_a" transform="matrix(12,0,0,12,60.5,525.6)" />
<use xlink:href="#f0_p" transform="matrix(12,0,0,12,68.8,525.6)" />
<use xlink:href="#f0_j" transform="matrix(12,0,0,12,74.6,525.6)" />
<use xlink:href="#f0_o" transform="matrix(12,0,0,12,86.4,525.6)" />
<use xlink:href="#f0_4" transform="matrix(12,0,0,12,101,525.6)" />
<use xlink:href="#f0_n" transform="matrix(12,0,0,12,107.5,525.6)" />
<use xlink:href="#f0_p" transform="matrix(12,0,0,12,119.1,525.6)" />
<use xlink:href="#f0_a" transform="matrix(12,0,0,12,124.9,525.6)" />
<use xlink:href="#f0_p" transform="matrix(12,0,0,12,138,525.6)" />
<use xlink:href="#f0_j" transform="matrix(12,0,0,12,143.8,525.6)" />
<use xlink:href="#f0_3" transform="matrix(12,0,0,12,160.4,525.6)" />
<use xlink:href="#f0_19" transform="matrix(12,0,0,12,170.2,525.6)" />
<use xlink:href="#f0_b" transform="matrix(12,0,0,12,181.4,525.6)" />
<use xlink:href="#f0_i" transform="matrix(12,0,0,12,193,525.6)" />
<use xlink:href="#f0_4" transform="matrix(12,0,0,12,203.4,525.6)" />
<use xlink:href="#f0_p" transform="matrix(12,0,0,12,209.8,525.6)" />
<use xlink:href="#f0_f" transform="matrix(12,0,0,12,215.7,525.6)" />
<use xlink:href="#f0_j" transform="matrix(12,0,0,12,226.2,525.6)" />
<use xlink:href="#f0_p" transform="matrix(12,0,0,12,242.8,525.6)" />
<use xlink:href="#f0_z" transform="matrix(12,0,0,12,248.6,525.6)" />
<use xlink:href="#f0_14" transform="matrix(12,0,0,12,47.4,592.8)" />
<use xlink:href="#f0_e" transform="matrix(12,0,0,12,63.4,592.8)" />
</g>
</g>
<image preserveAspectRatio="none" x="79" y="553" width="262" height="69" xlink:href="img/2.png" />
<g clip-path="url(#c0_211)">
<g fill="#000000" >
<use xlink:href="#f0_14" transform="matrix(12,0,0,12,47.4,663.1)" />
<use xlink:href="#f0_d" transform="matrix(10,0,0,10,58.6,667.6)" />
<use xlink:href="#f0_6" transform="matrix(12,0,0,12,73.6,663.1)" />
<use xlink:href="#f0_k" transform="matrix(12,0,0,12,89.4,663.1)" />
<use xlink:href="#f0_d" transform="matrix(12,0,0,12,105.4,663.1)" />
<use xlink:href="#f0_15" transform="matrix(12,0,0,12,122.6,663.1)" />
<use xlink:href="#f0_14" transform="matrix(12,0,0,12,137.5,663.1)" />
<use xlink:href="#f0_d" transform="matrix(10,0,0,10,148.8,667.6)" />
<use xlink:href="#f0_d" transform="matrix(12,0,0,12,163.8,663.1)" />
<use xlink:href="#f0_k" transform="matrix(12,0,0,12,180.9,663.1)" />
<use xlink:href="#f0_6" transform="matrix(12,0,0,12,196.9,663.1)" />
<use xlink:href="#f0_15" transform="matrix(12,0,0,12,212.7,663.1)" />
<use xlink:href="#f0_1a" transform="matrix(12,0,0,12,227.7,663.1)" />
<use xlink:href="#f0_6" transform="matrix(12,0,0,12,244.5,663.1)" />
<use xlink:href="#f0_k" transform="matrix(12,0,0,12,260.3,663.1)" />
<use xlink:href="#f0_d" transform="matrix(12,0,0,12,276.3,663.1)" />
<use xlink:href="#f0_7" transform="matrix(12,0,0,12,293.4,663.1)" />
<use xlink:href="#f0_16" transform="matrix(12,0,0,12,308.4,663.1)" />
<use xlink:href="#f0_17" transform="matrix(12,0,0,12,47.4,719.6)" />
<use xlink:href="#f0_14" transform="matrix(12,0,0,12,53.7,719.6)" />
<use xlink:href="#f0_d" transform="matrix(10,0,0,10,64.9,724.2)" />
<use xlink:href="#f0_15" transform="matrix(12,0,0,12,79.2,719.6)" />
<use xlink:href="#f0_1a" transform="matrix(12,0,0,12,94.2,719.6)" />
<use xlink:href="#f0_z" transform="matrix(12,0,0,12,106.2,719.6)" />
<use xlink:href="#f0_6" transform="matrix(12,0,0,12,117.3,719.6)" />
<use xlink:href="#f0_k" transform="matrix(12,0,0,12,133.1,719.6)" />
<use xlink:href="#f0_d" transform="matrix(12,0,0,12,149.1,719.6)" />
<use xlink:href="#f0_15" transform="matrix(12,0,0,12,166.2,719.6)" />
<use xlink:href="#f0_14" transform="matrix(12,0,0,12,181.2,719.6)" />
<use xlink:href="#f0_d" transform="matrix(10,0,0,10,192.4,724.2)" />
<use xlink:href="#f0_d" transform="matrix(12,0,0,12,206.7,719.6)" />
<use xlink:href="#f0_k" transform="matrix(12,0,0,12,223.8,719.6)" />
<use xlink:href="#f0_6" transform="matrix(12,0,0,12,239.8,719.6)" />
<use xlink:href="#f0_7" transform="matrix(12,0,0,12,255.6,719.6)" />
<use xlink:href="#f0_16" transform="matrix(12,0,0,12,270.6,719.6)" />
<use xlink:href="#f1_2" transform="matrix(12,0,0,12,288.9,719.6)" />
<use xlink:href="#f0_12" transform="matrix(12,0,0,12,304.3,719.6)" />
<use xlink:href="#f0_z" transform="matrix(12,0,0,12,314.5,719.6)" />
<use xlink:href="#f0_18" transform="matrix(12,0,0,12,47.4,776.1)" />
<use xlink:href="#f0_a" transform="matrix(12,0,0,12,60.3,776.1)" />
<use xlink:href="#f0_c" transform="matrix(12,0,0,12,68.5,776.1)" />
<use xlink:href="#f0_14" transform="matrix(12,0,0,12,77.9,776.1)" />
<use xlink:href="#f0_6" transform="matrix(10,0,0,10,89.1,780.7)" />
<use xlink:href="#f0_1d" transform="matrix(12,0,0,12,103.1,776.1)" />
<use xlink:href="#f0_14" transform="matrix(12,0,0,12,117,776.1)" />
<use xlink:href="#f0_d" transform="matrix(10,0,0,10,128.2,780.7)" />
<use xlink:href="#f0_7" transform="matrix(12,0,0,12,143.3,776.1)" />
<use xlink:href="#f0_1a" transform="matrix(12,0,0,12,158.3,776.1)" />
<use xlink:href="#f0_f" transform="matrix(12,0,0,12,47.4,832.6)" />
<use xlink:href="#f0_9" transform="matrix(12,0,0,12,57.9,832.6)" />
<use xlink:href="#f0_14" transform="matrix(12,0,0,12,71.3,832.6)" />
<use xlink:href="#f0_6" transform="matrix(10,0,0,10,82.5,837.2)" />
<use xlink:href="#f0_7" transform="matrix(12,0,0,12,96.5,832.6)" />
<use xlink:href="#f0_1a" transform="matrix(12,0,0,12,111.5,832.6)" />
<use xlink:href="#f0_15" transform="matrix(12,0,0,12,128.3,832.6)" />
<use xlink:href="#f0_14" transform="matrix(12,0,0,12,143.2,832.6)" />
<use xlink:href="#f0_d" transform="matrix(10,0,0,10,154.5,837.2)" />
<use xlink:href="#f0_u" transform="matrix(12,0,0,12,47.4,889.2)" />
<use xlink:href="#f0_f" transform="matrix(12,0,0,12,57.3,889.2)" />
<use xlink:href="#f0_3" transform="matrix(12,0,0,12,72.6,889.2)" />
<use xlink:href="#f0_19" transform="matrix(12,0,0,12,82.4,889.2)" />
<use xlink:href="#f0_b" transform="matrix(12,0,0,12,93.7,889.2)" />
<use xlink:href="#f0_i" transform="matrix(12,0,0,12,105.3,889.2)" />
<use xlink:href="#f0_4" transform="matrix(12,0,0,12,115.6,889.2)" />
<use xlink:href="#f0_p" transform="matrix(12,0,0,12,122.1,889.2)" />
<use xlink:href="#f0_f" transform="matrix(12,0,0,12,127.9,889.2)" />
<use xlink:href="#f0_j" transform="matrix(12,0,0,12,138.5,889.2)" />
<use xlink:href="#f0_12" transform="matrix(12,0,0,12,155.1,889.2)" />
<use xlink:href="#f0_z" transform="matrix(12,0,0,12,165.3,889.2)" />
<use xlink:href="#f0_11" transform="matrix(12,0,0,12,176.4,889.2)" />
<use xlink:href="#f0_3" transform="matrix(12,0,0,12,187.6,889.2)" />
<use xlink:href="#f0_q" transform="matrix(12,0,0,12,197.4,889.2)" />
<use xlink:href="#f0_f" transform="matrix(12,0,0,12,206.5,889.2)" />
<use xlink:href="#f0_h" transform="matrix(12,0,0,12,217,889.2)" />
<use xlink:href="#f0_3" transform="matrix(12,0,0,12,234.3,889.2)" />
<use xlink:href="#f0_a" transform="matrix(12,0,0,12,244.2,889.2)" />
<use xlink:href="#f0_14" transform="matrix(12,0,0,12,47.4,939.6)" />
<use xlink:href="#f0_6" transform="matrix(10,0,0,10,58.6,944.2)" />
<use xlink:href="#f0_6" transform="matrix(12,0,0,12,72.6,939.6)" />
<use xlink:href="#f0_k" transform="matrix(12,0,0,12,88.4,939.6)" />
<use xlink:href="#f0_d" transform="matrix(12,0,0,12,104.4,939.6)" />
<use xlink:href="#f0_15" transform="matrix(12,0,0,12,121.5,939.6)" />
<use xlink:href="#f0_14" transform="matrix(12,0,0,12,136.5,939.6)" />
<use xlink:href="#f0_d" transform="matrix(10,0,0,10,147.7,944.2)" />
<use xlink:href="#f0_d" transform="matrix(12,0,0,12,162.8,939.6)" />
<use xlink:href="#f0_k" transform="matrix(12,0,0,12,179.9,939.6)" />
<use xlink:href="#f0_6" transform="matrix(12,0,0,12,195.9,939.6)" />
<use xlink:href="#f0_7" transform="matrix(12,0,0,12,211.7,939.6)" />
<use xlink:href="#f0_16" transform="matrix(12,0,0,12,226.7,939.6)" />
<use xlink:href="#f0_1b" transform="matrix(12,0,0,12,47.4,996.1)" />
<use xlink:href="#f0_p" transform="matrix(12,0,0,12,60.7,996.1)" />
<use xlink:href="#f0_e" transform="matrix(12,0,0,12,66.5,996.1)" />
<use xlink:href="#f0_p" transform="matrix(12,0,0,12,77.1,996.1)" />
<use xlink:href="#f0_k" transform="matrix(12,0,0,12,83,996.1)" />
<use xlink:href="#f0_p" transform="matrix(12,0,0,12,94.2,996.1)" />
<use xlink:href="#f0_j" transform="matrix(12,0,0,12,100.1,996.1)" />
<use xlink:href="#f0_o" transform="matrix(12,0,0,12,111.9,996.1)" />
<use xlink:href="#f0_i" transform="matrix(12,0,0,12,126.5,996.1)" />
<use xlink:href="#f0_11" transform="matrix(12,0,0,12,136.8,996.1)" />
<use xlink:href="#f0_f" transform="matrix(12,0,0,12,148,996.1)" />
<use xlink:href="#f0_e" transform="matrix(12,0,0,12,158.6,996.1)" />
<use xlink:href="#f0_3" transform="matrix(12,0,0,12,169.2,996.1)" />
<use xlink:href="#f0_3" transform="matrix(12,0,0,12,183.8,996.1)" />
<use xlink:href="#f0_19" transform="matrix(12,0,0,12,193.6,996.1)" />
<use xlink:href="#f0_b" transform="matrix(12,0,0,12,204.8,996.1)" />
<use xlink:href="#f0_i" transform="matrix(12,0,0,12,216.5,996.1)" />
<use xlink:href="#f0_4" transform="matrix(12,0,0,12,226.8,996.1)" />
<use xlink:href="#f0_p" transform="matrix(12,0,0,12,233.2,996.1)" />
<use xlink:href="#f0_f" transform="matrix(12,0,0,12,239.1,996.1)" />
<use xlink:href="#f0_j" transform="matrix(12,0,0,12,249.6,996.1)" />
<use xlink:href="#f0_11" transform="matrix(12,0,0,12,266.2,996.1)" />
<use xlink:href="#f0_r" transform="matrix(12,0,0,12,277.5,996.1)" />
<use xlink:href="#f0_14" transform="matrix(12,0,0,12,292.5,996.1)" />
<use xlink:href="#f0_d" transform="matrix(10,0,0,10,303.8,1000.7)" />
<use xlink:href="#f0_6" transform="matrix(12,0,0,12,318.8,996.1)" />
<use xlink:href="#f0_d" transform="matrix(10,0,0,10,329.9,1000.7)" />
</g>
</g>
<image preserveAspectRatio="none" x="47" y="1034" width="231" height="69" xlink:href="img/3.png" />
<image preserveAspectRatio="none" x="278" y="1030" width="121" height="78" xlink:href="img/4.png" />
<image preserveAspectRatio="none" x="47" y="1126" width="167" height="63" xlink:href="img/5.png" />
<g fill="#000000" >
<use xlink:href="#f2_t" transform="matrix(12,0,0,12,835.7,1269.6)" />
<use xlink:href="#f2_k" transform="matrix(12,0,0,12,844.9,1269.6)" />
</g>
<defs>
<path d="M557,-14c-2,0,-4,0,-6,0c0,0,-115,0,-200,39c0,0,-87,41,-145,115c0,0,-60,73,-89,177c0,0,-30,103,-30,230c0,0,0,124,32,227c0,0,31,103,93,176c0,0,61,73,153,115c0,0,92,41,212,41c0,0,79,0,137,-12c0,0,57,-14,96,-37c0,0,38,-24,58,-54c0,0,18,-32,18,-68c0,0,0,-26,-9,-44c0,0,-11,-20,-29,-34c0,0,-18,-15,-42,-21c0,0,-23,-8,-49,-8c-1,0,-2,0,-4,0c0,0,0,36,-9,71c0,0,-10,34,-30,63c0,0,-22,28,-55,46c0,0,-35,16,-85,17c0,0,-86,0,-147,-31c0,0,-60,-33,-98,-93c0,0,-39,-62,-55,-150c0,0,-17,-89,-17,-204c0,0,0,-102,18,-187c0,0,17,-85,56,-146c0,0,39,-62,99,-95c0,0,59,-33,144,-33c0,0,56,0,100,11c0,0,42,10,75,28c0,0,32,18,58,42c0,0,25,22,44,49c0,0,12,-9,21,-23c0,0,8,-15,8,-37c0,0,0,-29,-19,-59c0,0,-20,-31,-61,-55C800,42,759,17,698,1c0,0,-59,-15,-141,-15Z" 
id="f0_14"
transform="scale(0.001,-0.001)" />

<path d="M458,0L128,946c0,0,-8,23,-18,39c0,0,-10,16,-22,25c0,0,-13,9,-29,13c0,0,-17,3,-39,3H0v65H420v-65H385c0,0,-46,0,-69,-17c0,0,-24,-18,-23,-56c0,0,0,-12,4,-26c0,0,3,-14,9,-30L474,401c0,0,22,-69,39,-132c0,0,17,-65,29,-119c0,0,12,54,29,117c0,0,15,61,41,134L781,886c0,0,5,19,10,36c0,0,3,16,3,30c0,0,0,39,-24,57c0,0,-26,17,-76,17H659v65h372v-65h-29c0,0,-23,0,-38,-4c0,0,-17,-5,-29,-17c0,0,-14,-14,-25,-37c0,0,-12,-24,-24,-60L570,0Z" 
id="f0_d"
transform="scale(0.001,-0.001)" />

<path d="M421,83c0,0,59,0,100,20c0,0,39,19,65,60c0,0,23,39,34,101c0,0,10,61,10,144c0,0,0,79,-10,141c0,0,-11,61,-34,103c0,0,-25,41,-65,63c0,0,-41,21,-101,21c0,0,-51,0,-86,-21c0,0,-36,-23,-58,-64c0,0,-24,-42,-34,-103c0,0,-10,-62,-10,-141c0,0,0,-163,44,-244c0,0,43,-80,145,-80ZM395,-14c-8,0,-78,1,-133,24c0,0,-59,24,-98,77c0,0,-39,52,-60,132c0,0,-20,79,-20,189c0,0,0,110,20,191c0,0,21,80,60,133c0,0,39,51,98,77c0,0,58,25,133,25c0,0,44,0,80,-10c0,0,36,-10,65,-27c0,0,28,-18,51,-43c0,0,21,-24,39,-54h4c0,0,0,36,0,70c0,0,0,27,0,57c0,0,0,27,0,41V993c0,0,-1,33,-10,54c0,0,-11,21,-29,32c0,0,-18,11,-41,15c0,0,-24,3,-49,3H492v64H773V168c0,0,0,-34,10,-54c0,0,10,-21,27,-32c0,0,17,-11,40,-14c0,0,22,-4,48,-4h13V0H652L636,137h-6c0,0,-18,-35,-39,-62c0,0,-23,-29,-51,-48C540,27,512,6,476,-3c0,0,-36,-11,-81,-11Z" 
id="f0_k"
transform="scale(0.001,-0.001)" />

<path d="M367,-14c0,0,-59,0,-100,13c0,0,-42,10,-69,38c0,0,-27,27,-39,73c0,0,-14,45,-14,112V732H29v61c0,0,28,0,61,11c0,0,32,11,58,37c0,0,26,28,43,68c0,0,15,38,28,98h70V819H489V732H289V217c0,0,-1,-78,32,-115c0,0,30,-36,83,-36c0,0,1,0,1,0c0,0,2,0,6,0c9,0,28,0,45,3c0,0,23,3,47,7V9C503,9,492,4,477,0c0,0,-15,-3,-33,-6c0,0,-20,-5,-39,-6c0,0,-20,-2,-38,-2Z" 
id="f0_4"
transform="scale(0.001,-0.001)" />

<path d="M380,219V501H99v91H380V874h92V592H755V501H472V219Z" 
id="f0_15"
transform="scale(0.001,-0.001)" />

<path d="M439,497c0,0,69,0,118,15c0,0,49,14,81,47c0,0,31,32,46,83c0,0,14,50,14,123c0,0,-1,64,-12,112c0,0,-14,47,-41,79c0,0,-29,31,-74,47c0,0,-46,14,-110,15H357V497ZM58,0V64H78c0,0,25,0,49,4c0,0,22,3,39,16c0,0,17,11,27,32c0,0,10,21,10,58V923c0,0,0,33,-10,54c0,0,-11,20,-27,32c0,0,-18,11,-40,14c0,0,-24,3,-48,3H58v65H487c0,0,96,-1,167,-22c0,0,70,-22,117,-63c0,0,46,-42,70,-101c0,0,22,-60,22,-134c0,0,0,-68,-21,-130c0,0,-22,-63,-70,-111c0,0,-48,-49,-127,-76c0,0,-79,-30,-191,-30H357V166c0,0,0,-33,11,-53c0,0,9,-22,27,-32c0,0,16,-10,40,-13c0,0,22,-4,48,-4h50V0Z" 
id="f0_6"
transform="scale(0.001,-0.001)" />

<path d="M99,350v90H755V350Zm0,300v91H755V650Z" 
id="f0_7"
transform="scale(0.001,-0.001)" />

<path d="M567,67c0,0,85,0,145,33c0,0,59,32,96,94c0,0,36,61,53,151c0,0,16,88,16,202c0,0,0,112,-16,203c0,0,-17,88,-53,150c0,0,-37,60,-96,93c0,0,-59,32,-144,32c0,0,-85,0,-144,-32c0,0,-61,-33,-97,-93c0,0,-38,-62,-55,-150c0,0,-17,-91,-17,-203c0,0,0,-114,17,-202c0,0,17,-90,54,-151c0,0,37,-62,97,-94c0,0,59,-33,144,-33Zm0,-81c0,0,-122,0,-212,39c0,0,-91,41,-150,115c0,0,-60,73,-89,178c0,0,-31,103,-30,230c0,0,-1,126,30,231c0,0,29,103,89,176c0,0,59,72,151,113c0,0,90,39,212,40c0,0,115,-1,205,-40c0,0,88,-41,150,-113c0,0,61,-74,92,-177c0,0,32,-104,32,-231c0,0,0,-127,-32,-230c0,0,-31,-104,-92,-177C923,140,861,66,772,25c0,0,-90,-39,-205,-39Z" 
id="f0_16"
transform="scale(0.001,-0.001)" />

<path d="M912,152l-89,90L997,416H87V542H997L823,716l89,90L1206,512V445L912,152Z" 
id="f1_2"
transform="scale(0.001,-0.001)" />

<path d="M480,-194c0,0,-106,41,-180,101c0,0,-75,59,-122,141c0,0,-48,82,-69,191c0,0,-22,107,-22,245c0,0,0,137,22,246c0,0,21,106,69,188c0,0,47,82,122,142c0,0,74,59,180,101v-69c0,0,-79,-48,-125,-114c0,0,-48,-67,-71,-146c0,0,-24,-80,-30,-168c0,0,-9,-90,-8,-180c0,0,-1,-92,8,-180c0,0,6,-88,30,-167c0,0,23,-80,71,-146c0,0,46,-68,125,-115v-70Z" 
id="f0_17"
transform="scale(0.001,-0.001)" />

<path d="M147,0V64H249c0,0,26,0,49,4c0,0,23,3,40,16c0,0,16,11,27,32c0,0,9,21,9,58V976c0,0,-29,-35,-55,-64c0,0,-27,-29,-50,-50c0,0,-24,-22,-46,-32c0,0,-22,-12,-44,-12c0,0,-1,0,-1,0c0,0,-1,0,-1,0c-3,0,-35,0,-55,23c0,0,-21,21,-21,59c0,0,23,5,47,15c0,0,23,7,50,22c0,0,25,13,57,34c0,0,30,18,69,47l107,79h98V174c0,0,-1,-37,10,-58c0,0,9,-21,26,-32c0,0,17,-13,41,-16c0,0,22,-4,48,-4h75V0Z" 
id="f0_y"
transform="scale(0.001,-0.001)" />

<path d="M49,-194v70c0,0,79,47,125,115c0,0,45,66,71,146c0,0,23,79,31,167c0,0,7,88,7,180c0,0,0,90,-7,180c0,0,-8,88,-31,168c0,0,-26,79,-71,146c0,0,-46,66,-125,114v69c0,0,105,-42,180,-101c0,0,75,-60,122,-142c0,0,47,-82,69,-188c0,0,21,-109,22,-246c0,0,-1,-138,-22,-245c0,0,-22,-109,-69,-191c0,0,-47,-82,-122,-141c0,0,-75,-60,-180,-101Z" 
id="f0_z"
transform="scale(0.001,-0.001)" />

<path d="M683,442L588,709c0,0,-25,68,-43,127c0,0,-21,59,-33,114c0,0,-6,-28,-12,-53c0,0,-8,-26,-16,-53c0,0,-9,-26,-19,-55c0,0,-10,-31,-23,-66L338,442ZM0,0V64H29c0,0,1,0,3,0c6,0,23,1,35,5c0,0,16,5,28,18c0,0,12,13,25,37c0,0,11,22,25,60l339,907H604L949,145c0,0,8,-23,19,-39c0,0,8,-16,21,-25c0,0,12,-10,29,-13c0,0,17,-4,39,-4h20V0H657V64h35c0,0,92,0,92,73c0,0,0,12,-3,26c0,0,-4,14,-10,31L710,365H309L251,204c0,0,-8,-18,-11,-35c0,0,-4,-18,-4,-30c0,0,0,-40,26,-57c0,0,24,-18,76,-18h35V0Z" 
id="f0_18"
transform="scale(0.001,-0.001)" />

<path d="M433,-14c0,0,-77,0,-141,23c0,0,-64,23,-110,74c0,0,-46,50,-72,130c0,0,-26,79,-26,192c0,0,0,122,26,205c0,0,26,82,72,132c0,0,46,49,108,71c0,0,61,21,134,21c0,0,47,0,96,-9c0,0,47,-10,85,-29c0,0,38,-19,62,-49c0,0,23,-30,24,-69c0,0,0,-54,-35,-74c0,0,-35,-22,-102,-22c0,0,0,35,-6,68c0,0,-6,32,-20,56c0,0,-15,24,-39,38c0,0,-26,14,-65,14c0,0,-44,0,-79,-16c0,0,-35,-18,-61,-57c0,0,-26,-40,-39,-108c0,0,-13,-69,-13,-170c0,0,-1,-164,54,-243c0,0,54,-80,177,-80h1c6,0,72,1,123,30c0,0,52,30,79,77c0,0,11,-10,19,-24c0,0,7,-15,7,-36c0,0,0,-27,-16,-52c0,0,-17,-26,-49,-47C627,32,594,10,546,0c0,0,-48,-14,-113,-14Z" 
id="f0_q"
transform="scale(0.001,-0.001)" />

<path d="M222,-9c-1,0,-2,0,-3,0c0,0,-1,0,-3,0c-6,0,-22,0,-35,5c0,0,-18,4,-30,16c0,0,-14,12,-21,32c0,0,-8,20,-8,49c0,0,0,30,8,50c0,0,7,19,21,32c0,0,12,11,30,17c0,0,17,5,38,5c0,0,18,0,37,-5c0,0,16,-6,30,-17c0,0,12,-13,21,-32c0,0,8,-20,8,-50c0,0,0,-29,-8,-49c0,0,-9,-20,-21,-32C286,12,272,0,256,-4c0,0,-17,-5,-34,-5Z" 
id="f0_t"
transform="scale(0.001,-0.001)" />

<path d="M442,64c0,0,56,0,97,23c0,0,38,22,64,66c0,0,24,43,36,108c0,0,9,65,10,150c0,0,0,85,-11,149c0,0,-11,64,-36,108c0,0,-25,42,-64,64c0,0,-41,21,-98,21c0,0,-58,0,-97,-21c0,0,-39,-22,-64,-64c0,0,-25,-44,-36,-108c0,0,-11,-64,-11,-149c0,0,0,-85,11,-150c0,0,11,-65,37,-108c0,0,24,-44,65,-66c0,0,38,-23,97,-23Zm-3,-78c0,0,-83,0,-149,25c0,0,-66,26,-111,79c0,0,-47,52,-70,134c0,0,-25,79,-25,187c0,0,0,213,91,319c0,0,90,103,268,104c0,0,82,0,149,-25c0,0,65,-26,111,-79c0,0,46,-53,71,-132c0,0,23,-80,23,-187c0,0,0,-216,-91,-321C706,90,614,-14,439,-14Z" 
id="f0_f"
transform="scale(0.001,-0.001)" />

<path d="M321,-14c0,0,-58,0,-104,11c0,0,-48,7,-80,29c0,0,-33,20,-50,51c0,0,-18,30,-18,70c0,0,0,30,10,51c0,0,10,20,25,33c0,0,14,11,31,17c0,0,16,4,30,4c0,0,0,-41,8,-75c0,0,8,-36,28,-61c0,0,18,-28,51,-42c0,0,31,-16,78,-16c0,0,41,0,72,11c0,0,31,9,53,28c0,0,21,18,32,44c0,0,11,25,11,56c0,0,0,28,-8,49c0,0,-9,20,-30,38c0,0,-21,17,-58,37c0,0,-37,18,-92,42c0,0,-59,26,-102,51c0,0,-45,23,-72,52c0,0,-29,28,-43,65c0,0,-15,35,-14,86c0,0,-1,52,21,92c0,0,20,40,58,68c0,0,38,26,91,41c0,0,52,15,118,15c0,0,54,0,96,-12c0,0,41,-11,70,-30c0,0,28,-19,43,-44c0,0,14,-27,14,-55c0,0,-1,-42,-28,-66c0,0,-29,-25,-80,-25c-1,0,-2,0,-2,0c0,0,0,76,-32,119c0,0,-32,42,-100,42c0,0,-39,0,-66,-9c0,0,-28,-9,-45,-25c0,0,-18,-17,-26,-39c0,0,-8,-22,-8,-49c0,0,0,-29,10,-50c0,0,10,-22,34,-39c0,0,22,-18,59,-35c0,0,36,-17,86,-38c0,0,60,-26,104,-50c0,0,43,-24,72,-54c0,0,27,-29,41,-65c0,0,13,-37,13,-84c0,0,-1,-60,-21,-105c0,0,-23,-45,-62,-74C539,46,499,14,445,0c0,0,-56,-14,-124,-14Z" 
id="f0_a"
transform="scale(0.001,-0.001)" />

<path d="M348,79c0,0,46,0,85,15c0,0,36,14,64,42c0,0,25,27,40,66c0,0,14,39,14,87V412H454c0,0,-65,0,-109,-14c0,0,-44,-13,-70,-36c0,0,-27,-25,-39,-59c0,0,-12,-35,-11,-80c0,0,0,-73,30,-108c0,0,29,-36,93,-36ZM313,-14c0,0,-50,0,-94,14c0,0,-44,14,-75,45c0,0,-33,30,-50,77c0,0,-18,47,-18,109c0,0,0,123,87,182c0,0,85,59,261,60H551v93c0,0,0,42,-4,78c0,0,-5,34,-20,60c0,0,-15,26,-42,40c0,0,-28,14,-75,14c0,0,-44,0,-71,-12c0,0,-29,-13,-43,-35c0,0,-16,-23,-21,-53c0,0,-6,-31,-5,-66c0,0,-64,0,-96,21c0,0,-34,21,-34,75c0,0,0,39,22,67c0,0,21,28,60,45c0,0,36,17,87,26c0,0,49,7,107,8c0,0,69,0,122,-13c0,0,52,-15,87,-46c0,0,34,-31,53,-81c0,0,17,-52,17,-124V174c0,0,0,-33,5,-53c0,0,6,-22,17,-34c0,0,10,-12,30,-18c0,0,15,-5,38,-5c2,0,3,0,5,0h4V0H588L564,131H551c0,0,-24,-33,-46,-59c0,0,-22,-27,-49,-46C456,26,429,6,395,-3c0,0,-35,-11,-82,-11Z" 
id="f0_i"
transform="scale(0.001,-0.001)" />

<path d="M43,0V64H55c0,0,26,0,49,4c0,0,23,3,40,16c0,0,16,11,27,32c0,0,10,21,10,58V650c0,0,0,33,-10,55c0,0,-11,20,-28,31c0,0,-17,11,-39,15c0,0,-24,3,-49,4H51v64H298L318,695h7c0,0,23,42,51,70c0,0,25,27,56,43c0,0,29,14,63,21c0,0,32,5,69,5c0,0,60,-1,108,-17c0,0,47,-18,81,-54c0,0,32,-37,50,-93c0,0,17,-58,18,-135V174c0,0,0,-37,9,-58c0,0,7,-21,23,-32c0,0,16,-13,38,-16c0,0,21,-4,47,-4h5V0H677V527c0,0,0,50,-9,89c0,0,-10,39,-29,66c0,0,-20,26,-52,41c0,0,-33,13,-78,13c0,0,-53,0,-88,-20c0,0,-36,-20,-57,-54c0,0,-22,-35,-31,-79c0,0,-10,-45,-9,-94V166c0,0,0,-33,10,-53c0,0,10,-22,27,-32c0,0,16,-10,40,-13c0,0,22,-4,48,-4h5V0Z" 
id="f0_j"
transform="scale(0.001,-0.001)" />

<path d="M51,0V64h4c0,0,26,0,49,4c0,0,23,3,40,16c0,0,16,11,27,32c0,0,10,21,10,58V650c0,0,0,33,-10,55c0,0,-11,20,-28,31c0,0,-17,11,-39,15c0,0,-24,3,-49,4H51v64H286L315,668h7c0,0,14,34,31,65c0,0,15,29,39,53c0,0,22,22,56,35c0,0,33,12,84,13c0,0,83,0,124,-29c0,0,41,-30,41,-82c0,0,0,-24,-8,-44c0,0,-9,-20,-25,-34c0,0,-17,-15,-44,-23c0,0,-27,-8,-66,-8c0,0,0,63,-18,92c0,0,-18,27,-62,27c0,0,-29,0,-51,-15c0,0,-22,-18,-39,-43c0,0,-17,-27,-28,-61c0,0,-13,-35,-19,-70c0,0,-8,-37,-10,-73c0,0,-4,-35,-3,-64V166c0,0,0,-33,10,-53c0,0,10,-22,27,-32c0,0,16,-10,40,-13c0,0,22,-4,48,-4h43V0Z" 
id="f0_9"
transform="scale(0.001,-0.001)" />

<path d="M351,-291c2,0,3,0,5,0c0,0,1,0,2,0c12,0,84,1,134,15c0,0,52,13,84,38c0,0,31,23,44,58c0,0,12,34,13,74c0,0,0,35,-10,59c0,0,-11,22,-30,35c0,0,-20,12,-49,17c0,0,-29,5,-67,5H327c0,0,-33,0,-62,-5c0,0,-31,-5,-54,-20c0,0,-24,-17,-38,-44c0,0,-15,-29,-14,-74c0,0,0,-34,9,-63c0,0,9,-29,31,-50c0,0,23,-22,61,-33c0,0,35,-12,91,-12Zm34,658c0,0,1,0,1,0c0,0,37,0,64,11c0,0,24,11,42,35c0,0,15,22,23,59c0,0,7,35,7,86c0,0,0,103,-31,152c0,0,-31,49,-106,49c0,0,-74,0,-105,-50c0,0,-33,-50,-32,-153c0,0,0,-98,32,-143c0,0,32,-46,105,-46ZM353,-366c-8,0,-162,1,-239,59c0,0,-80,59,-79,164c0,0,0,45,16,78c0,0,15,34,42,58c0,0,26,22,61,38c0,0,34,14,72,21c0,0,-16,7,-31,18c0,0,-14,11,-26,27c0,0,-13,16,-20,36c0,0,-8,20,-7,45c0,0,0,45,24,79c0,0,23,32,76,64c0,0,-33,13,-58,37c0,0,-27,23,-44,54c0,0,-18,30,-27,65c0,0,-10,36,-9,74c0,0,0,66,18,119c0,0,18,51,53,89c0,0,36,36,90,56c0,0,53,18,126,19c0,0,28,-1,54,-4c0,0,26,-4,50,-11c0,0,22,-8,41,-16c0,0,18,-9,29,-19c0,0,12,12,27,27c0,0,14,14,33,27c0,0,19,12,41,20c0,0,21,7,47,8c0,0,23,-1,40,-6c0,0,17,-7,28,-17c0,0,11,-11,17,-25c0,0,5,-15,5,-31c0,0,0,-17,-4,-31c0,0,-6,-15,-15,-25c0,0,-10,-12,-25,-17c0,0,-15,-7,-36,-7c0,0,0,9,-2,18c0,0,-3,9,-8,17c0,0,-6,7,-16,13c0,0,-10,4,-25,4c0,0,-19,0,-35,-4c0,0,-16,-5,-31,-14c0,0,26,-33,44,-76c0,0,16,-44,16,-109c0,0,-1,-57,-17,-105c0,0,-17,-48,-51,-82c0,0,-35,-36,-86,-56c0,0,-52,-19,-121,-19H348c0,0,-11,0,-21,1c0,0,-10,1,-15,3c0,0,-15,-9,-29,-17c0,0,-13,-9,-23,-20c0,0,-11,-11,-16,-25c0,0,-6,-15,-6,-32c0,0,-1,-19,7,-29c0,0,7,-12,20,-18c0,0,12,-7,30,-8c0,0,17,-2,38,-2H506c0,0,68,-1,116,-17c0,0,48,-17,78,-47c0,0,30,-32,44,-73c0,0,14,-41,14,-90c0,0,-1,-67,-24,-119c0,0,-25,-53,-75,-89c0,0,-50,-38,-126,-58c0,0,-77,-20,-180,-20Z" 
id="f0_o"
transform="scale(0.001,-0.001)" />

<path d="M586,481c0,0,0,60,-9,111c0,0,-9,50,-29,85c0,0,-19,36,-51,56c0,0,-33,18,-79,19c0,0,-87,-1,-133,-69c0,0,-46,-69,-46,-202ZM439,-14c0,0,-83,0,-149,27c0,0,-66,28,-112,82c0,0,-46,53,-69,132c0,0,-25,77,-25,177c0,0,0,213,88,322c0,0,88,108,251,108c0,0,73,0,133,-23c0,0,58,-24,100,-69c0,0,41,-46,63,-114c0,0,21,-69,22,-159V399H233c0,0,0,-84,15,-143c0,0,15,-61,44,-99c0,0,28,-40,71,-57c0,0,40,-19,93,-19c1,0,2,0,4,0c0,0,38,0,73,9c0,0,33,9,62,24c0,0,26,14,48,34c0,0,21,18,35,40c0,0,10,-4,20,-19c0,0,9,-15,9,-33c0,0,0,-24,-16,-49c0,0,-17,-27,-50,-50C641,37,607,14,557,0c0,0,-50,-14,-118,-14Z" 
id="f0_3"
transform="scale(0.001,-0.001)" />

<path d="M421,83c0,0,59,0,100,20c0,0,39,19,65,60c0,0,23,39,34,101c0,0,10,61,10,144c0,0,0,79,-10,141c0,0,-11,61,-34,103c0,0,-25,41,-65,63c0,0,-41,21,-101,21c0,0,-51,0,-86,-21c0,0,-36,-23,-58,-64c0,0,-24,-42,-34,-103c0,0,-10,-62,-10,-141c0,0,0,-163,44,-244c0,0,43,-80,145,-80Zm33,-449v64h51c0,0,26,0,50,4c0,0,22,3,40,16c0,0,17,11,27,33c0,0,10,21,11,58V-60c0,0,0,25,0,60c0,0,0,33,0,64c0,0,0,36,0,73h-3c0,0,-18,-35,-39,-62c0,0,-23,-29,-51,-48C540,27,512,6,476,-3c0,0,-36,-11,-81,-11c-8,0,-78,1,-133,24c0,0,-59,24,-98,77c0,0,-39,52,-60,132c0,0,-20,79,-20,189c0,0,0,110,20,191c0,0,21,80,60,133c0,0,39,51,98,77c0,0,58,25,133,25c0,0,44,0,80,-10c0,0,36,-10,65,-27c0,0,28,-18,51,-43c0,0,21,-24,39,-54h9l27,119H911V755H898c0,0,-26,-1,-48,-4c0,0,-24,-4,-40,-15c0,0,-17,-12,-27,-33c0,0,-10,-23,-10,-58V-197c0,0,0,-34,10,-54c0,0,10,-22,27,-32c0,0,17,-12,40,-15c0,0,22,-4,48,-4h13v-64Z" 
id="f0_19"
transform="scale(0.001,-0.001)" />

<path d="M417,-14c0,0,-60,0,-107,16c0,0,-47,17,-79,54c0,0,-33,36,-49,93c0,0,-17,57,-17,135V650c0,0,0,33,-10,55c0,0,-11,20,-27,31c0,0,-18,11,-40,15c0,0,-24,3,-48,4H35v64H309V292c0,0,0,-51,8,-89c0,0,7,-40,26,-66c0,0,18,-27,49,-40c0,0,29,-14,74,-14c1,0,2,0,3,0c0,0,50,0,88,18c0,0,35,18,59,50c0,0,23,32,34,78c0,0,12,46,12,101V645c0,0,0,35,-10,58c0,0,-10,21,-27,33c0,0,-17,11,-39,15c0,0,-24,3,-50,4h-4v64H805V166c0,0,0,-33,10,-53c0,0,10,-22,27,-32c0,0,17,-10,41,-13c0,0,21,-4,47,-4h5V0H692L672,124h-7c0,0,-24,-44,-51,-70c0,0,-28,-28,-60,-42c0,0,-31,-15,-65,-20c0,0,-35,-6,-72,-6Z" 
id="f0_b"
transform="scale(0.001,-0.001)" />

<path d="M35,0V64H55c0,0,25,0,49,4c0,0,22,3,39,13c0,0,17,10,28,32c0,0,10,20,10,53V650c0,0,0,33,-10,55c0,0,-11,20,-28,31c0,0,-17,11,-39,15c0,0,-24,3,-49,4H51v64H324V174c0,0,0,-37,10,-58c0,0,10,-21,27,-32c0,0,16,-13,40,-16c0,0,22,-4,48,-4h20V0ZM249,972c-1,0,-2,0,-3,0c0,0,-1,0,-2,0c-5,0,-20,0,-32,5c0,0,-16,5,-28,16c0,0,-12,11,-18,29c0,0,-7,18,-7,45c0,0,0,27,7,45c0,0,6,17,18,29c0,0,12,11,28,15c0,0,15,5,34,5c0,0,18,0,34,-5c0,0,15,-4,27,-15c0,0,11,-12,19,-29c0,0,7,-18,7,-45c0,0,0,-27,-7,-45c0,0,-8,-18,-19,-29c0,0,-12,-11,-27,-16c0,0,-14,-5,-31,-5Z" 
id="f0_p"
transform="scale(0.001,-0.001)" />

<path d="M465,553c0,0,67,0,112,15c0,0,44,14,71,44c0,0,26,30,39,75c0,0,11,45,11,104c0,0,-1,61,-12,105c0,0,-14,42,-41,70c0,0,-29,27,-74,40c0,0,-46,12,-110,12H357V553ZM982,0C963,0,909,0,873,5c0,0,-46,5,-79,20c0,0,-32,15,-54,42c0,0,-24,26,-49,70L484,481H357V166c0,0,0,-33,11,-53c0,0,9,-22,27,-32c0,0,16,-10,40,-13c0,0,22,-4,48,-4h20V0H58V64H78c0,0,24,0,48,4c0,0,22,3,40,13c0,0,16,10,27,32c0,0,10,20,10,53V923c0,0,0,33,-10,54c0,0,-11,20,-27,32c0,0,-18,11,-40,14c0,0,-24,3,-48,3H58v65H469c0,0,198,-1,296,-73c0,0,97,-74,97,-222c0,0,-1,-62,-20,-107c0,0,-20,-46,-52,-80c0,0,-33,-33,-72,-55c0,0,-41,-23,-81,-36L847,186c0,0,38,-61,75,-91c0,0,37,-31,85,-31h5V0H990c0,0,-3,0,-8,0Z" 
id="f0_1a"
transform="scale(0.001,-0.001)" />

<path d="M229,0V64h35c0,0,25,0,49,4c0,0,22,3,39,13c0,0,17,10,28,32c0,0,9,20,9,53v849H243c0,0,-33,0,-56,-10c0,0,-24,-11,-37,-28c0,0,-15,-17,-22,-39c0,0,-8,-24,-10,-49l-8,-65H34v267H902V824H827l-8,65c0,0,-4,25,-10,49c0,0,-9,22,-22,39c0,0,-15,17,-37,28c0,0,-24,10,-58,10H544V174c0,0,0,-37,10,-58c0,0,10,-21,27,-32c0,0,16,-13,40,-16c0,0,22,-4,48,-4h35V0Z" 
id="f0_l"
transform="scale(0.001,-0.001)" />

<path d="M490,78c0,0,90,0,160,31c0,0,67,30,113,90c0,0,45,59,69,147c0,0,22,87,22,201c0,0,0,227,-90,347c0,0,-91,120,-272,121H357V78ZM529,0c-1,0,-2,0,-3,0H58V64H78c0,0,25,0,49,4c0,0,22,3,39,16c0,0,17,11,27,32c0,0,10,21,10,58V923c0,0,0,33,-10,54c0,0,-11,20,-27,32c0,0,-18,11,-40,14c0,0,-24,3,-48,3H58v65H526c0,0,117,0,210,-36c0,0,93,-37,157,-106c0,0,63,-69,97,-171c0,0,33,-102,33,-231c0,0,0,-126,-31,-226c0,0,-32,-102,-93,-173C899,148,836,77,744,39C744,39,651,0,529,0Z" 
id="f0_1b"
transform="scale(0.001,-0.001)" />

<path d="M41,0V64H61c0,0,26,0,49,4c0,0,23,3,40,16c0,0,16,11,27,32c0,0,9,21,9,58V747H47v72H186v76c0,0,0,68,19,121c0,0,19,52,54,88c0,0,34,35,85,55c0,0,50,17,113,17c0,0,58,0,100,-7c0,0,41,-8,67,-22c0,0,24,-15,35,-34c0,0,12,-20,12,-43c0,0,0,-22,-9,-37c0,0,-11,-17,-26,-27c0,0,-18,-11,-40,-16c0,0,-24,-6,-51,-6c0,0,0,23,-4,45c0,0,-6,21,-17,39c0,0,-12,17,-31,28c0,0,-19,10,-48,10c0,0,-34,0,-55,-12c0,0,-22,-13,-36,-38c0,0,-13,-26,-18,-62c0,0,-6,-37,-6,-85V819H545V747H330V174c0,0,0,-37,10,-58c0,0,10,-21,27,-32c0,0,16,-13,40,-16c0,0,22,-4,48,-4h58V0Z" 
id="f0_m"
transform="scale(0.001,-0.001)" />

<path d="M518,83c0,0,50,0,86,21c0,0,35,21,58,63c0,0,23,41,33,104c0,0,10,61,11,142c0,0,-1,80,-11,142c0,0,-10,60,-33,101c0,0,-23,40,-58,60c0,0,-38,20,-88,20c0,0,-60,0,-99,-19c0,0,-41,-20,-64,-61c0,0,-24,-40,-34,-101c0,0,-10,-62,-10,-144c0,0,0,-80,10,-141c0,0,10,-62,35,-103c0,0,23,-42,64,-63c0,0,39,-21,100,-21Zm27,-97c-1,0,-2,0,-3,0h-2c-8,0,-46,1,-77,10c0,0,-37,8,-65,26c0,0,-29,18,-50,43c0,0,-23,24,-39,54H299L272,0H28V64H40c0,0,25,0,49,4c0,0,22,3,39,16c0,0,17,11,27,32c0,0,10,21,10,58V993c0,0,0,33,-10,54c0,0,-11,21,-27,32c0,0,-18,11,-40,15c0,0,-24,3,-48,3H28v64H306V880c0,0,0,-26,0,-59c0,0,0,-35,0,-66c0,0,0,-36,0,-74h3c0,0,16,34,39,63c0,0,21,28,50,49c0,0,27,19,64,31c0,0,36,9,80,10c0,0,75,0,134,-25c0,0,58,-26,98,-76c0,0,38,-53,60,-132c0,0,20,-80,20,-190c0,0,0,-111,-20,-191c0,0,-22,-80,-60,-133c0,0,-40,-53,-98,-77c0,0,-57,-24,-131,-24Z" 
id="f0_11"
transform="scale(0.001,-0.001)" />

<path d="M28,0V64H40c0,0,25,0,49,4c0,0,22,3,39,16c0,0,17,11,27,32c0,0,10,21,10,58V993c0,0,0,33,-10,54c0,0,-11,21,-27,32c0,0,-18,11,-40,15c0,0,-24,3,-48,3H28v64H308V825c0,0,0,-22,0,-43c0,0,-1,-24,-4,-43c0,0,0,-23,0,-44h6c0,0,68,139,225,139c0,0,65,-1,115,-17c0,0,50,-18,85,-54c0,0,34,-37,52,-93c0,0,18,-58,18,-135V174c0,0,0,-37,9,-58c0,0,9,-21,24,-32c0,0,16,-13,38,-16c0,0,21,-4,47,-4h4V0H662V527c0,0,0,50,-9,89c0,0,-10,39,-29,66c0,0,-20,26,-52,41c0,0,-33,13,-78,13c0,0,-49,0,-82,-17c0,0,-35,-18,-58,-50c0,0,-24,-33,-34,-78c0,0,-11,-46,-11,-102V166c0,0,0,-33,10,-53c0,0,10,-22,27,-32c0,0,17,-10,40,-13c0,0,22,-4,48,-4h5V0Z" 
id="f0_n"
transform="scale(0.001,-0.001)" />

<path d="M553,-14c0,0,-91,0,-162,18c0,0,-72,19,-121,61c0,0,-51,40,-76,107c0,0,-26,64,-26,158V923c0,0,0,33,-10,54c0,0,-11,20,-27,32c0,0,-18,11,-40,14c0,0,-24,3,-48,3H23v65H468v-65H448c0,0,-27,0,-49,-3c0,0,-24,-4,-39,-15c0,0,-18,-13,-27,-34c0,0,-11,-21,-11,-57V321c0,0,0,-67,20,-113c0,0,18,-47,53,-76c0,0,33,-29,80,-42c0,0,46,-14,102,-14c0,0,66,0,115,18c0,0,47,17,80,50c0,0,31,31,47,75c0,0,14,43,15,96V923c0,0,0,33,-10,54c0,0,-11,20,-27,32c0,0,-17,11,-40,14c0,0,-24,3,-48,3H689v65h384v-65h-20c0,0,-27,0,-49,-3c0,0,-24,-4,-39,-15c0,0,-18,-13,-27,-34c0,0,-11,-21,-11,-57V312c0,0,0,-76,-24,-137c0,0,-24,-62,-71,-103C832,72,783,30,714,7c0,0,-71,-21,-161,-21Z" 
id="f0_1c"
transform="scale(0.001,-0.001)" />

<path d="M365,0L119,674c0,0,-9,23,-18,39c0,0,-11,15,-23,26c0,0,-12,8,-29,12c0,0,-17,3,-39,4H6v64H388V755H369c0,0,-47,0,-69,-18c0,0,-24,-18,-23,-56c0,0,-1,-13,3,-25c0,0,3,-14,9,-31L392,336c0,0,10,-26,21,-58c0,0,9,-33,20,-65c0,0,8,-31,16,-59c0,0,7,-29,11,-47h5c0,0,3,16,12,41c0,0,8,23,20,53c0,0,10,27,22,58c0,0,11,29,22,57L650,614c0,0,8,19,12,36c0,0,3,16,3,30c0,0,0,38,-25,57c0,0,-26,18,-76,18H553v64H880V755H862c0,0,-23,0,-38,-5c0,0,-17,-6,-29,-18c0,0,-12,-14,-24,-37c0,0,-12,-24,-26,-59L504,0Z" 
id="f0_e"
transform="scale(0.001,-0.001)" />

<path d="M78,0V112L333,407c0,0,61,70,103,126c0,0,40,56,66,106c0,0,25,49,37,97c0,0,11,47,11,100c0,0,0,43,-9,79c0,0,-11,35,-29,61c0,0,-19,25,-48,40c0,0,-31,13,-70,13c0,0,-53,0,-84,-18c0,0,-33,-20,-52,-50c0,0,-19,-31,-25,-73c0,0,-7,-41,-7,-86c0,0,-28,0,-51,4c0,0,-24,4,-42,17c0,0,-18,11,-28,30c0,0,-10,19,-10,48c0,0,0,43,19,82c0,0,19,37,57,65c0,0,36,28,93,43c0,0,56,15,130,15c0,0,72,0,130,-18c0,0,56,-19,97,-51c0,0,41,-34,62,-81c0,0,21,-47,21,-105c0,0,-1,-54,-17,-104c0,0,-18,-52,-50,-104c0,0,-33,-54,-80,-111c0,0,-48,-58,-108,-124L191,122H545c7,0,36,1,56,10c0,0,21,10,36,25c0,0,14,15,22,37c0,0,7,20,13,42l6,28h61V0Z" 
id="f0_12"
transform="scale(0.001,-0.001)" />

<path d="M46,-234v64c0,0,74,23,110,58c0,0,34,35,35,79c0,0,-1,15,-8,26c0,0,-9,8,-21,17c0,0,-13,6,-27,15c0,0,-15,7,-27,18c0,0,-13,9,-21,26c0,0,-8,14,-8,38c0,0,0,43,29,67c0,0,28,23,71,23c0,0,23,-1,45,-8c0,0,20,-9,37,-26c0,0,16,-17,26,-41c0,0,9,-27,9,-58c0,0,0,-48,-13,-93c0,0,-14,-46,-44,-84c0,0,-30,-40,-77,-70c0,0,-49,-31,-116,-51Z" 
id="f0_c"
transform="scale(0.001,-0.001)" />

<path d="M-6,365v90H771V365Z" 
id="f0_1d"
transform="scale(0.001,-0.001)" />

<path d="M382,-14c-2,0,-3,0,-5,0c0,0,-75,0,-131,15c0,0,-57,15,-95,44c0,0,-40,27,-58,68c0,0,-20,38,-20,87c0,0,0,45,29,75c0,0,29,27,82,28c0,0,0,-49,13,-92c0,0,12,-44,36,-77c0,0,24,-34,64,-54c0,0,38,-20,92,-20c6,0,104,0,161,50c0,0,58,49,58,142c0,0,0,41,-12,74c0,0,-13,31,-39,60c0,0,-29,26,-73,52c0,0,-46,24,-113,52c0,0,-71,29,-123,63c0,0,-54,32,-88,74c0,0,-36,39,-53,90c0,0,-17,50,-17,113c0,0,0,65,26,117c0,0,24,51,69,87c0,0,44,34,106,54c0,0,60,18,133,18c0,0,68,0,122,-14c0,0,52,-15,90,-38c0,0,36,-25,56,-54c0,0,18,-32,18,-65c0,0,0,-50,-32,-74c0,0,-33,-26,-86,-26c0,0,-1,1,-2,1c0,0,-1,35,-8,70c0,0,-9,34,-29,62c0,0,-21,27,-53,44c0,0,-34,17,-81,17c0,0,-45,0,-79,-11c0,0,-36,-13,-59,-36c0,0,-24,-23,-36,-55c0,0,-13,-33,-13,-71c0,0,-1,-47,12,-80c0,0,12,-35,40,-63c0,0,27,-28,73,-53c0,0,46,-26,112,-52c0,0,67,-28,120,-58c0,0,52,-32,89,-68c0,0,37,-39,56,-84c0,0,19,-47,19,-106c0,0,0,-73,-26,-129c0,0,-27,-59,-76,-97C651,66,602,26,533,6c0,0,-67,-20,-151,-20Z" 
id="f0_u"
transform="scale(0.001,-0.001)" />

<path d="M43,0V64H63c0,0,25,0,47,4c0,0,21,3,38,16c0,0,15,11,24,32c0,0,8,21,9,58V650c0,0,0,33,-9,55c0,0,-9,20,-25,31c0,0,-16,11,-37,15c0,0,-22,3,-47,4H58v64H298L318,695h7c0,0,23,42,49,70c0,0,25,27,54,43c0,0,28,14,61,21c0,0,31,5,67,5c0,0,36,0,71,-7c0,0,33,-9,62,-24c0,0,28,-17,52,-43c0,0,21,-27,36,-65h13c0,0,23,42,50,70c0,0,27,27,57,43c0,0,30,14,64,21c0,0,32,5,68,5c0,0,59,-1,105,-17c0,0,45,-18,78,-54c0,0,32,-37,49,-93c0,0,17,-58,18,-135V174c0,0,0,-37,9,-58c0,0,9,-21,24,-32c0,0,16,-13,37,-16c0,0,21,-4,47,-4h5V0H1135V527c0,0,0,50,-8,89c0,0,-9,39,-27,66c0,0,-21,26,-50,41c0,0,-32,13,-75,13c0,0,-48,0,-80,-18c0,0,-33,-19,-53,-50c0,0,-21,-31,-28,-72c0,0,-9,-42,-9,-87V174c0,0,0,-37,9,-58c0,0,9,-21,24,-32c0,0,16,-13,38,-16c0,0,21,-4,47,-4h4V0H662V527c0,0,-1,50,-9,89c0,0,-8,39,-27,66c0,0,-20,26,-50,41c0,0,-31,13,-75,13c0,0,-50,0,-83,-20c0,0,-35,-20,-55,-54c0,0,-22,-35,-30,-79c0,0,-9,-45,-9,-94V166c0,0,0,-33,10,-53c0,0,10,-22,27,-32c0,0,16,-10,40,-13c0,0,22,-4,48,-4h5V0Z" 
id="f0_h"
transform="scale(0.001,-0.001)" />

<path d="M58,-366v72h1c8,0,79,1,133,23c0,0,55,24,97,64c0,0,39,40,68,95c0,0,26,55,45,118L119,674c0,0,-10,23,-20,39c0,0,-10,14,-21,25c0,0,-13,9,-29,13c0,0,-17,3,-39,4H6v64H373V755h-4c0,0,-47,0,-69,-18c0,0,-24,-18,-23,-56c0,0,-1,-13,3,-25c0,0,2,-14,9,-31L401,353c0,0,9,-27,22,-57c0,0,11,-31,22,-61c0,0,9,-31,18,-57c0,0,7,-28,11,-47h4c0,0,8,34,23,82c0,0,14,48,34,103L637,614c0,0,7,19,11,36c0,0,2,16,2,30c0,0,0,38,-24,57c0,0,-26,18,-76,18h-5v64H863V755h-4c0,0,-23,0,-38,-5c0,0,-18,-6,-30,-18c0,0,-13,-14,-24,-37c0,0,-11,-24,-25,-59L510,-5c0,0,-27,-74,-50,-130c0,0,-25,-56,-50,-95c0,0,-27,-41,-57,-67c0,0,-32,-26,-71,-41c0,0,-40,-17,-91,-22c0,0,-51,-6,-119,-6Z" 
id="f0_r"
transform="scale(0.001,-0.001)" />

<path d="M379,437c0,0,34,0,81,16c0,0,47,17,83,47c0,0,14,97,14,155c0,0,0,72,-25,156c0,0,-25,83,-70,128c0,0,-45,45,-103,45c0,0,-66,0,-116,-60c0,0,-50,-59,-50,-177c0,0,0,-157,66,-246c0,0,49,-64,120,-64ZM80,-20V7c0,0,97,1,181,45c0,0,83,44,161,153c0,0,78,109,109,240c0,0,-117,-75,-212,-75c0,0,-107,0,-183,82c0,0,-76,82,-76,219c0,0,0,132,76,236c0,0,92,126,240,126c0,0,124,0,213,-103c0,0,109,-128,109,-315c0,0,0,-169,-82,-314C616,301,533,155,385,59c0,0,-120,-79,-262,-79Z" 
id="f2_t"
transform="scale(0.001,-0.001)" />

<path d="M379,29c0,0,41,0,84,37c0,0,43,36,65,121c0,0,34,128,34,362c0,0,0,173,-35,288c0,0,-27,86,-69,122c0,0,-31,25,-74,25c0,0,-51,0,-90,-46c0,0,-54,-62,-73,-195c0,0,-20,-132,-20,-261c0,0,0,-209,52,-341c0,0,42,-112,126,-112Zm-2,-46c0,0,-145,0,-241,170c0,0,-81,144,-81,347c0,0,0,173,52,298c0,0,52,125,139,186c0,0,67,49,139,49c0,0,116,0,208,-119c0,0,116,-147,116,-398c0,0,0,-176,-51,-299C658,217,608,94,529,38c0,0,-79,-55,-152,-55Z" 
id="f2_k"
transform="scale(0.001,-0.001)" />


</defs>
</svg>