<?xml version="1.0" encoding="UTF-8" standalone="no"?>
<!DOCTYPE svg PUBLIC "-//W3C//DTD SVG 1.1//EN"
"http://www.w3.org/Graphics/SVG/1.1/DTD/svg11.dtd">
<svg viewBox="0 0 909 1286" version="1.1" xmlns="http://www.w3.org/2000/svg" xmlns:xlink="http://www.w3.org/1999/xlink">
<defs>
<clipPath id="c0_192"><path d="M35.1,1194.7V113.1H873.9V1194.7Z" /></clipPath>
</defs>
<g clip-path="url(#c0_192)">
<g fill="#000000" >
<use xlink:href="#f0_d" transform="matrix(12,0,0,12,47.4,149.7)" />
<use xlink:href="#f0_i" transform="matrix(12,0,0,12,57.9,149.7)" />
<use xlink:href="#f0_s" transform="matrix(12,0,0,12,71.3,149.7)" />
<use xlink:href="#f0_13" transform="matrix(12,0,0,12,87.1,149.7)" />
</g>
</g>
<image preserveAspectRatio="none" x="102" y="113" width="118" height="64" xlink:href="img/1.png" />
<g clip-path="url(#c0_192)">
<g fill="#000000" >
<use xlink:href="#f0_16" transform="matrix(12,0,0,12,47.4,218.5)" />
<use xlink:href="#f0_c" transform="matrix(12,0,0,12,60.5,218.5)" />
<use xlink:href="#f0_3" transform="matrix(12,0,0,12,68.8,218.5)" />
<use xlink:href="#f0_y" transform="matrix(12,0,0,12,83.3,218.5)" />
<use xlink:href="#f0_w" transform="matrix(12,0,0,12,93.6,218.5)" />
<use xlink:href="#f0_8" transform="matrix(12,0,0,12,104.6,218.5)" />
<use xlink:href="#f0_7" transform="matrix(12,0,0,12,110.5,218.5)" />
<use xlink:href="#f0_8" transform="matrix(12,0,0,12,127,218.5)" />
<use xlink:href="#f0_w" transform="matrix(12,0,0,12,132.9,218.5)" />
<use xlink:href="#f0_17" transform="matrix(12,0,0,12,47.4,291.8)" />
<use xlink:href="#f0_13" transform="matrix(12,0,0,12,71.3,291.8)" />
</g>
</g>
<image preserveAspectRatio="none" x="86" y="246" width="102" height="81" xlink:href="img/2.png" />
<g clip-path="url(#c0_192)">
<g fill="#000000" >
<use xlink:href="#f0_18" transform="matrix(12,0,0,12,47.4,368.2)" />
<use xlink:href="#f0_8" transform="matrix(12,0,0,12,57.3,368.2)" />
<use xlink:href="#f0_7" transform="matrix(12,0,0,12,63.2,368.2)" />
<use xlink:href="#f0_k" transform="matrix(12,0,0,12,75,368.2)" />
<use xlink:href="#f0_3" transform="matrix(12,0,0,12,84,368.2)" />
<use xlink:href="#f0_7" transform="matrix(12,0,0,12,98.6,368.2)" />
<use xlink:href="#f0_u" transform="matrix(12,0,0,12,110.4,368.2)" />
<use xlink:href="#f0_15" transform="matrix(12,0,0,12,119.7,368.2)" />
<use xlink:href="#f0_6" transform="matrix(12,0,0,12,136.5,368.2)" />
<use xlink:href="#f0_7" transform="matrix(12,0,0,12,146.8,368.2)" />
<use xlink:href="#f0_9" transform="matrix(12,0,0,12,158.6,368.2)" />
<use xlink:href="#f0_z" transform="matrix(12,0,0,12,174.6,368.2)" />
<use xlink:href="#f0_6" transform="matrix(12,0,0,12,190.6,368.2)" />
<use xlink:href="#f0_i" transform="matrix(12,0,0,12,200.9,368.2)" />
<use xlink:href="#f0_3" transform="matrix(12,0,0,12,209.5,368.2)" />
<use xlink:href="#f0_k" transform="matrix(12,0,0,12,224.1,368.2)" />
<use xlink:href="#f0_d" transform="matrix(12,0,0,12,233.1,368.2)" />
<use xlink:href="#f0_7" transform="matrix(12,0,0,12,243.7,368.2)" />
<use xlink:href="#f0_c" transform="matrix(12,0,0,12,255.5,368.2)" />
<use xlink:href="#f0_4" transform="matrix(12,0,0,12,263.7,368.2)" />
<use xlink:href="#f0_6" transform="matrix(12,0,0,12,270.2,368.2)" />
<use xlink:href="#f0_7" transform="matrix(12,0,0,12,280.5,368.2)" />
<use xlink:href="#f0_4" transform="matrix(12,0,0,12,292.3,368.2)" />
<use xlink:href="#f0_c" transform="matrix(12,0,0,12,303.5,368.2)" />
<use xlink:href="#f0_d" transform="matrix(12,0,0,12,311.8,368.2)" />
<use xlink:href="#f0_u" transform="matrix(12,0,0,12,322.3,368.2)" />
<use xlink:href="#f0_17" transform="matrix(12,0,0,12,47.4,441.5)" />
<use xlink:href="#f0_13" transform="matrix(12,0,0,12,71.3,441.5)" />
</g>
</g>
<image preserveAspectRatio="none" x="86" y="396" width="311" height="81" xlink:href="img/3.png" />
<g clip-path="url(#c0_192)">
<g fill="#000000" >
<use xlink:href="#f0_17" transform="matrix(12,0,0,12,47.4,537.8)" />
<use xlink:href="#f0_8" transform="matrix(12,0,0,12,71.3,537.8)" />
<use xlink:href="#f0_c" transform="matrix(12,0,0,12,77.2,537.8)" />
<use xlink:href="#f0_d" transform="matrix(12,0,0,12,85.4,537.8)" />
<use xlink:href="#f0_4" transform="matrix(12,0,0,12,96,537.8)" />
<use xlink:href="#f0_o" transform="matrix(12,0,0,12,102.4,537.8)" />
<use xlink:href="#f0_3" transform="matrix(12,0,0,12,114.1,537.8)" />
<use xlink:href="#f0_i" transform="matrix(12,0,0,12,123.9,537.8)" />
<use xlink:href="#f0_l" transform="matrix(12,0,0,12,132.5,537.8)" />
<use xlink:href="#f0_6" transform="matrix(12,0,0,12,149.8,537.8)" />
<use xlink:href="#f0_a" transform="matrix(12,0,0,12,160.1,537.8)" />
<use xlink:href="#f0_13" transform="matrix(12,0,0,12,170.5,537.8)" />
<use xlink:href="#f0_7" transform="matrix(12,0,0,12,185.5,537.8)" />
<use xlink:href="#f0_15" transform="matrix(12,0,0,12,197.3,537.8)" />
<use xlink:href="#f0_z" transform="matrix(12,0,0,12,209.4,537.8)" />
<use xlink:href="#f0_2" transform="matrix(12,0,0,12,225.3,537.8)" />
<use xlink:href="#f0_d" transform="matrix(12,0,0,12,236.7,537.8)" />
<use xlink:href="#f0_b" transform="matrix(12,0,0,12,247.3,537.8)" />
<use xlink:href="#f0_3" transform="matrix(12,0,0,12,257.2,537.8)" />
<use xlink:href="#f0_v" transform="matrix(12,0,0,12,271.7,537.8)" />
</g>
</g>
<image preserveAspectRatio="none" x="289" y="495" width="32" height="76" xlink:href="img/4.png" />
<g clip-path="url(#c0_192)">
<g fill="#000000" >
<use xlink:href="#f0_17" transform="matrix(12,0,0,12,47.4,629.4)" />
<use xlink:href="#f0_8" transform="matrix(12,0,0,12,71.3,629.4)" />
<use xlink:href="#f0_c" transform="matrix(12,0,0,12,77.2,629.4)" />
<use xlink:href="#f0_d" transform="matrix(12,0,0,12,85.4,629.4)" />
<use xlink:href="#f0_4" transform="matrix(12,0,0,12,96,629.4)" />
<use xlink:href="#f0_o" transform="matrix(12,0,0,12,102.4,629.4)" />
<use xlink:href="#f0_3" transform="matrix(12,0,0,12,114.1,629.4)" />
<use xlink:href="#f0_i" transform="matrix(12,0,0,12,123.9,629.4)" />
<use xlink:href="#f0_l" transform="matrix(12,0,0,12,132.5,629.4)" />
<use xlink:href="#f0_6" transform="matrix(12,0,0,12,149.8,629.4)" />
<use xlink:href="#f0_a" transform="matrix(12,0,0,12,160.1,629.4)" />
<use xlink:href="#f0_13" transform="matrix(12,0,0,12,170.5,629.4)" />
</g>
</g>
<image preserveAspectRatio="none" x="185" y="590" width="513" height="70" xlink:href="img/5.png" />
<g clip-path="url(#c0_192)">
<g fill="#000000" >
<use xlink:href="#f0_17" transform="matrix(12,0,0,12,47.4,718.1)" />
<use xlink:href="#f0_8" transform="matrix(12,0,0,12,71.3,718.1)" />
<use xlink:href="#f0_c" transform="matrix(12,0,0,12,77.2,718.1)" />
<use xlink:href="#f0_d" transform="matrix(12,0,0,12,85.4,718.1)" />
<use xlink:href="#f0_4" transform="matrix(12,0,0,12,96,718.1)" />
<use xlink:href="#f0_o" transform="matrix(12,0,0,12,102.4,718.1)" />
<use xlink:href="#f0_3" transform="matrix(12,0,0,12,114.1,718.1)" />
<use xlink:href="#f0_i" transform="matrix(12,0,0,12,123.9,718.1)" />
<use xlink:href="#f0_l" transform="matrix(12,0,0,12,132.5,718.1)" />
<use xlink:href="#f0_6" transform="matrix(12,0,0,12,149.8,718.1)" />
<use xlink:href="#f0_a" transform="matrix(12,0,0,12,160.1,718.1)" />
<use xlink:href="#f0_19" transform="matrix(12,0,0,12,170.5,718.1)" />
<use xlink:href="#f0_7" transform="matrix(12,0,0,12,184.5,718.1)" />
<use xlink:href="#f0_15" transform="matrix(12,0,0,12,196.3,718.1)" />
<use xlink:href="#f0_z" transform="matrix(12,0,0,12,208.3,718.1)" />
<use xlink:href="#f0_2" transform="matrix(12,0,0,12,224.2,718.1)" />
<use xlink:href="#f0_d" transform="matrix(12,0,0,12,235.7,718.1)" />
<use xlink:href="#f0_b" transform="matrix(12,0,0,12,246.2,718.1)" />
<use xlink:href="#f0_3" transform="matrix(12,0,0,12,256.1,718.1)" />
</g>
</g>
<image preserveAspectRatio="none" x="266" y="678" width="32" height="71" xlink:href="img/6.png" />
<g clip-path="url(#c0_192)">
<g fill="#000000" >
<use xlink:href="#f0_17" transform="matrix(12,0,0,12,47.4,806.7)" />
<use xlink:href="#f0_8" transform="matrix(12,0,0,12,71.3,806.7)" />
<use xlink:href="#f0_c" transform="matrix(12,0,0,12,77.2,806.7)" />
<use xlink:href="#f0_d" transform="matrix(12,0,0,12,85.4,806.7)" />
<use xlink:href="#f0_4" transform="matrix(12,0,0,12,96,806.7)" />
<use xlink:href="#f0_o" transform="matrix(12,0,0,12,102.4,806.7)" />
<use xlink:href="#f0_3" transform="matrix(12,0,0,12,114.1,806.7)" />
<use xlink:href="#f0_i" transform="matrix(12,0,0,12,123.9,806.7)" />
<use xlink:href="#f0_l" transform="matrix(12,0,0,12,132.5,806.7)" />
<use xlink:href="#f0_6" transform="matrix(12,0,0,12,149.8,806.7)" />
<use xlink:href="#f0_a" transform="matrix(12,0,0,12,160.1,806.7)" />
<use xlink:href="#f0_13" transform="matrix(12,0,0,12,170.5,806.7)" />
<use xlink:href="#f0_y" transform="matrix(12,0,0,12,185.5,806.7)" />
<use xlink:href="#f0_n" transform="matrix(12,0,0,12,195.8,806.7)" />
<use xlink:href="#f0_1a" transform="matrix(12,0,0,12,201,806.7)" />
<use xlink:href="#f0_1b" transform="matrix(12,0,0,12,211.2,806.7)" />
<use xlink:href="#f0_1a" transform="matrix(12,0,0,12,221.5,806.7)" />
<use xlink:href="#f0_7" transform="matrix(12,0,0,12,236.5,806.7)" />
<use xlink:href="#f0_15" transform="matrix(12,0,0,12,248.3,806.7)" />
<use xlink:href="#f0_z" transform="matrix(12,0,0,12,260.3,806.7)" />
<use xlink:href="#f0_2" transform="matrix(12,0,0,12,276.3,806.7)" />
<use xlink:href="#f0_d" transform="matrix(12,0,0,12,287.7,806.7)" />
<use xlink:href="#f0_b" transform="matrix(12,0,0,12,298.3,806.7)" />
<use xlink:href="#f0_t" transform="matrix(12,0,0,12,312.9,806.7)" />
<use xlink:href="#f0_1b" transform="matrix(12,0,0,12,323.1,806.7)" />
</g>
</g>
<image preserveAspectRatio="none" x="338" y="767" width="262" height="70" xlink:href="img/7.png" />
<g clip-path="url(#c0_192)">
<g fill="#000000" >
<use xlink:href="#f0_1c" transform="matrix(12,0,0,12,47.4,878.5)" />
<use xlink:href="#f0_p" transform="matrix(12,0,0,12,54.1,878.5)" />
<use xlink:href="#f0_1d" transform="matrix(12,0,0,12,65.6,878.5)" />
<use xlink:href="#f0_13" transform="matrix(12,0,0,12,87.5,878.5)" />
<use xlink:href="#f0_1d" transform="matrix(12,0,0,12,102.5,878.5)" />
<use xlink:href="#f0_d" transform="matrix(12,0,0,12,119.7,878.5)" />
<use xlink:href="#f0_a" transform="matrix(12,0,0,12,130.3,878.5)" />
<use xlink:href="#f0_3" transform="matrix(12,0,0,12,136,878.5)" />
<use xlink:href="#f0_k" transform="matrix(12,0,0,12,145.8,878.5)" />
<use xlink:href="#f0_m" transform="matrix(12,0,0,12,154.8,878.5)" />
<use xlink:href="#f0_a" transform="matrix(12,0,0,12,166.4,878.5)" />
<use xlink:href="#f0_6" transform="matrix(12,0,0,12,172.1,878.5)" />
<use xlink:href="#f0_i" transform="matrix(12,0,0,12,182.4,878.5)" />
<use xlink:href="#f0_1d" transform="matrix(12,0,0,12,195.8,878.5)" />
<use xlink:href="#f0_6" transform="matrix(12,0,0,12,213,878.5)" />
<use xlink:href="#f0_c" transform="matrix(12,0,0,12,223.3,878.5)" />
<use xlink:href="#f0_c" transform="matrix(12,0,0,12,231.6,878.5)" />
<use xlink:href="#f0_d" transform="matrix(12,0,0,12,244.6,878.5)" />
<use xlink:href="#f0_p" transform="matrix(12,0,0,12,255.1,878.5)" />
<use xlink:href="#f0_b" transform="matrix(12,0,0,12,266.6,878.5)" />
<use xlink:href="#f0_6" transform="matrix(12,0,0,12,276.5,878.5)" />
<use xlink:href="#f0_c" transform="matrix(12,0,0,12,286.8,878.5)" />
<use xlink:href="#f0_4" transform="matrix(12,0,0,12,299.8,878.5)" />
<use xlink:href="#f0_o" transform="matrix(12,0,0,12,306.3,878.5)" />
<use xlink:href="#f0_3" transform="matrix(12,0,0,12,317.9,878.5)" />
<use xlink:href="#f0_7" transform="matrix(12,0,0,12,327.7,878.5)" />
<use xlink:href="#f0_p" transform="matrix(12,0,0,12,344.3,878.5)" />
<use xlink:href="#f0_d" transform="matrix(12,0,0,12,351,878.5)" />
<use xlink:href="#f0_i" transform="matrix(12,0,0,12,361.6,878.5)" />
<use xlink:href="#f0_t" transform="matrix(12,0,0,12,375,878.5)" />
<use xlink:href="#f0_b" transform="matrix(12,0,0,12,390,878.5)" />
<use xlink:href="#f0_i" transform="matrix(12,0,0,12,399.8,878.5)" />
<use xlink:href="#f0_6" transform="matrix(12,0,0,12,408.4,878.5)" />
<use xlink:href="#f0_l" transform="matrix(12,0,0,12,418.8,878.5)" />
<use xlink:href="#f0_d" transform="matrix(12,0,0,12,440.8,878.5)" />
<use xlink:href="#f0_p" transform="matrix(12,0,0,12,451.4,878.5)" />
<use xlink:href="#f0_8" transform="matrix(12,0,0,12,462.9,878.5)" />
<use xlink:href="#f0_9" transform="matrix(12,0,0,12,468.7,878.5)" />
<use xlink:href="#f0_3" transform="matrix(12,0,0,12,480,878.5)" />
<use xlink:href="#f0_6" transform="matrix(12,0,0,12,489.8,878.5)" />
<use xlink:href="#f0_a" transform="matrix(12,0,0,12,500.1,878.5)" />
<use xlink:href="#f0_b" transform="matrix(12,0,0,12,510.5,878.5)" />
<use xlink:href="#f0_6" transform="matrix(12,0,0,12,520.4,878.5)" />
<use xlink:href="#f0_c" transform="matrix(12,0,0,12,530.7,878.5)" />
<use xlink:href="#f0_u" transform="matrix(12,0,0,12,539,878.5)" />
<use xlink:href="#f0_17" transform="matrix(12,0,0,12,47.4,945.7)" />
<use xlink:href="#f0_8" transform="matrix(12,0,0,12,71.3,945.7)" />
<use xlink:href="#f0_c" transform="matrix(12,0,0,12,77.2,945.7)" />
<use xlink:href="#f0_d" transform="matrix(12,0,0,12,85.4,945.7)" />
<use xlink:href="#f0_4" transform="matrix(12,0,0,12,96,945.7)" />
<use xlink:href="#f0_o" transform="matrix(12,0,0,12,102.4,945.7)" />
<use xlink:href="#f0_3" transform="matrix(12,0,0,12,114.1,945.7)" />
<use xlink:href="#f0_i" transform="matrix(12,0,0,12,123.9,945.7)" />
<use xlink:href="#f0_l" transform="matrix(12,0,0,12,132.5,945.7)" />
<use xlink:href="#f0_6" transform="matrix(12,0,0,12,149.8,945.7)" />
<use xlink:href="#f0_a" transform="matrix(12,0,0,12,160.1,945.7)" />
<use xlink:href="#f0_13" transform="matrix(12,0,0,12,170.5,945.7)" />
<use xlink:href="#f0_y" transform="matrix(12,0,0,12,185.5,945.7)" />
<use xlink:href="#f0_n" transform="matrix(12,0,0,12,195.8,945.7)" />
<use xlink:href="#f0_1a" transform="matrix(12,0,0,12,201,945.7)" />
<use xlink:href="#f0_1b" transform="matrix(12,0,0,12,211.2,945.7)" />
<use xlink:href="#f0_1a" transform="matrix(12,0,0,12,221.5,945.7)" />
</g>
</g>
<image preserveAspectRatio="none" x="237" y="906" width="139" height="70" xlink:href="img/8.png" />
<g clip-path="url(#c0_192)">
<g fill="#000000" >
<use xlink:href="#f0_17" transform="matrix(12,0,0,12,47.4,1034.3)" />
<use xlink:href="#f0_8" transform="matrix(12,0,0,12,71.3,1034.3)" />
<use xlink:href="#f0_c" transform="matrix(12,0,0,12,77.2,1034.3)" />
<use xlink:href="#f0_d" transform="matrix(12,0,0,12,85.4,1034.3)" />
<use xlink:href="#f0_4" transform="matrix(12,0,0,12,96,1034.3)" />
<use xlink:href="#f0_o" transform="matrix(12,0,0,12,102.4,1034.3)" />
<use xlink:href="#f0_3" transform="matrix(12,0,0,12,114.1,1034.3)" />
<use xlink:href="#f0_i" transform="matrix(12,0,0,12,123.9,1034.3)" />
<use xlink:href="#f0_l" transform="matrix(12,0,0,12,132.5,1034.3)" />
<use xlink:href="#f0_6" transform="matrix(12,0,0,12,149.8,1034.3)" />
<use xlink:href="#f0_a" transform="matrix(12,0,0,12,160.1,1034.3)" />
<use xlink:href="#f0_y" transform="matrix(12,0,0,12,170.5,1034.3)" />
<use xlink:href="#f0_n" transform="matrix(12,0,0,12,180.8,1034.3)" />
<use xlink:href="#f0_1a" transform="matrix(12,0,0,12,186,1034.3)" />
<use xlink:href="#f0_1b" transform="matrix(12,0,0,12,196.2,1034.3)" />
<use xlink:href="#f0_1a" transform="matrix(12,0,0,12,206.5,1034.3)" />
<use xlink:href="#f0_i" transform="matrix(12,0,0,12,221.5,1034.3)" />
<use xlink:href="#f0_z" transform="matrix(12,0,0,12,234.8,1034.3)" />
<use xlink:href="#f0_2" transform="matrix(12,0,0,12,250.8,1034.3)" />
<use xlink:href="#f0_d" transform="matrix(12,0,0,12,262.2,1034.3)" />
<use xlink:href="#f0_b" transform="matrix(12,0,0,12,272.8,1034.3)" />
<use xlink:href="#f0_t" transform="matrix(12,0,0,12,287.4,1034.3)" />
<use xlink:href="#f0_1b" transform="matrix(12,0,0,12,297.7,1034.3)" />
</g>
</g>
<image preserveAspectRatio="none" x="313" y="995" width="32" height="70" xlink:href="img/9.png" />
<g clip-path="url(#c0_192)">
<g fill="#000000" >
<use xlink:href="#f0_i" transform="matrix(12,0,0,12,47.4,1106.1)" />
<use xlink:href="#f0_13" transform="matrix(12,0,0,12,60.7,1106.1)" />
<use xlink:href="#f0_1e" transform="matrix(12,0,0,12,75.7,1106.1)" />
<use xlink:href="#f0_6" transform="matrix(12,0,0,12,88.8,1106.1)" />
<use xlink:href="#f0_c" transform="matrix(12,0,0,12,99.1,1106.1)" />
<use xlink:href="#f0_k" transform="matrix(12,0,0,12,112.1,1106.1)" />
<use xlink:href="#f0_d" transform="matrix(12,0,0,12,121.1,1106.1)" />
<use xlink:href="#f0_7" transform="matrix(12,0,0,12,131.7,1106.1)" />
<use xlink:href="#f0_c" transform="matrix(12,0,0,12,143.5,1106.1)" />
<use xlink:href="#f0_4" transform="matrix(12,0,0,12,151.8,1106.1)" />
<use xlink:href="#f0_6" transform="matrix(12,0,0,12,158.2,1106.1)" />
<use xlink:href="#f0_7" transform="matrix(12,0,0,12,168.6,1106.1)" />
<use xlink:href="#f0_4" transform="matrix(12,0,0,12,180.4,1106.1)" />
<use xlink:href="#f0_p" transform="matrix(12,0,0,12,191.6,1106.1)" />
<use xlink:href="#f0_d" transform="matrix(12,0,0,12,198.3,1106.1)" />
<use xlink:href="#f0_i" transform="matrix(12,0,0,12,208.9,1106.1)" />
<use xlink:href="#f0_t" transform="matrix(12,0,0,12,222.3,1106.1)" />
<use xlink:href="#f0_b" transform="matrix(12,0,0,12,237.3,1106.1)" />
<use xlink:href="#f0_l" transform="matrix(12,0,0,12,247.1,1106.1)" />
<use xlink:href="#f0_d" transform="matrix(12,0,0,12,269.2,1106.1)" />
<use xlink:href="#f0_p" transform="matrix(12,0,0,12,279.8,1106.1)" />
<use xlink:href="#f0_6" transform="matrix(12,0,0,12,291.3,1106.1)" />
<use xlink:href="#f0_7" transform="matrix(12,0,0,12,301.6,1106.1)" />
<use xlink:href="#f0_8" transform="matrix(12,0,0,12,318.1,1106.1)" />
<use xlink:href="#f0_9" transform="matrix(12,0,0,12,324,1106.1)" />
<use xlink:href="#f0_3" transform="matrix(12,0,0,12,335.2,1106.1)" />
<use xlink:href="#f0_6" transform="matrix(12,0,0,12,345,1106.1)" />
<use xlink:href="#f0_a" transform="matrix(12,0,0,12,355.4,1106.1)" />
<use xlink:href="#f0_b" transform="matrix(12,0,0,12,365.8,1106.1)" />
<use xlink:href="#f0_6" transform="matrix(12,0,0,12,375.6,1106.1)" />
<use xlink:href="#f0_c" transform="matrix(12,0,0,12,386,1106.1)" />
<use xlink:href="#f0_u" transform="matrix(12,0,0,12,394.2,1106.1)" />
</g>
</g>
<g fill="#000000" >
<use xlink:href="#f1_r" transform="matrix(12,0,0,12,835.7,1269.6)" />
<use xlink:href="#f1_l" transform="matrix(12,0,0,12,844.9,1269.6)" />
</g>
<defs>
<path d="M442,64c0,0,56,0,97,23c0,0,38,22,64,66c0,0,24,43,36,108c0,0,9,65,10,150c0,0,0,85,-11,149c0,0,-11,64,-36,108c0,0,-25,42,-64,64c0,0,-41,21,-98,21c0,0,-58,0,-97,-21c0,0,-39,-22,-64,-64c0,0,-25,-44,-36,-108c0,0,-11,-64,-11,-149c0,0,0,-85,11,-150c0,0,11,-65,37,-108c0,0,24,-44,65,-66c0,0,38,-23,97,-23Zm-3,-78c0,0,-83,0,-149,25c0,0,-66,26,-111,79c0,0,-47,52,-70,134c0,0,-25,79,-25,187c0,0,0,213,91,319c0,0,90,103,268,104c0,0,82,0,149,-25c0,0,65,-26,111,-79c0,0,46,-53,71,-132c0,0,23,-80,23,-187c0,0,0,-216,-91,-321C706,90,614,-14,439,-14Z" 
id="f0_d"
transform="scale(0.001,-0.001)" />

<path d="M51,0V64h4c0,0,26,0,49,4c0,0,23,3,40,16c0,0,16,11,27,32c0,0,10,21,10,58V650c0,0,0,33,-10,55c0,0,-11,20,-28,31c0,0,-17,11,-39,15c0,0,-24,3,-49,4H51v64H286L315,668h7c0,0,14,34,31,65c0,0,15,29,39,53c0,0,22,22,56,35c0,0,33,12,84,13c0,0,83,0,124,-29c0,0,41,-30,41,-82c0,0,0,-24,-8,-44c0,0,-9,-20,-25,-34c0,0,-17,-15,-44,-23c0,0,-27,-8,-66,-8c0,0,0,63,-18,92c0,0,-18,27,-62,27c0,0,-29,0,-51,-15c0,0,-22,-18,-39,-43c0,0,-17,-27,-28,-61c0,0,-13,-35,-19,-70c0,0,-8,-37,-10,-73c0,0,-4,-35,-3,-64V166c0,0,0,-33,10,-53c0,0,10,-22,27,-32c0,0,16,-10,40,-13c0,0,22,-4,48,-4h43V0Z" 
id="f0_i"
transform="scale(0.001,-0.001)" />

<path d="M439,497c0,0,69,0,118,15c0,0,49,14,81,47c0,0,31,32,46,83c0,0,14,50,14,123c0,0,-1,64,-12,112c0,0,-14,47,-41,79c0,0,-29,31,-74,47c0,0,-46,14,-110,15H357V497ZM58,0V64H78c0,0,25,0,49,4c0,0,22,3,39,16c0,0,17,11,27,32c0,0,10,21,10,58V923c0,0,0,33,-10,54c0,0,-11,20,-27,32c0,0,-18,11,-40,14c0,0,-24,3,-48,3H58v65H487c0,0,96,-1,167,-22c0,0,70,-22,117,-63c0,0,46,-42,70,-101c0,0,22,-60,22,-134c0,0,0,-68,-21,-130c0,0,-22,-63,-70,-111c0,0,-48,-49,-127,-76c0,0,-79,-30,-191,-30H357V166c0,0,0,-33,11,-53c0,0,9,-22,27,-32c0,0,16,-10,40,-13c0,0,22,-4,48,-4h50V0Z" 
id="f0_s"
transform="scale(0.001,-0.001)" />

<path d="M99,350v90H755V350Zm0,300v91H755V650Z" 
id="f0_13"
transform="scale(0.001,-0.001)" />

<path d="M553,-14c0,0,-91,0,-162,18c0,0,-72,19,-121,61c0,0,-51,40,-76,107c0,0,-26,64,-26,158V923c0,0,0,33,-10,54c0,0,-11,20,-27,32c0,0,-18,11,-40,14c0,0,-24,3,-48,3H23v65H468v-65H448c0,0,-27,0,-49,-3c0,0,-24,-4,-39,-15c0,0,-18,-13,-27,-34c0,0,-11,-21,-11,-57V321c0,0,0,-67,20,-113c0,0,18,-47,53,-76c0,0,33,-29,80,-42c0,0,46,-14,102,-14c0,0,66,0,115,18c0,0,47,17,80,50c0,0,31,31,47,75c0,0,14,43,15,96V923c0,0,0,33,-10,54c0,0,-11,20,-27,32c0,0,-17,11,-40,14c0,0,-24,3,-48,3H689v65h384v-65h-20c0,0,-27,0,-49,-3c0,0,-24,-4,-39,-15c0,0,-18,-13,-27,-34c0,0,-11,-21,-11,-57V312c0,0,0,-76,-24,-137c0,0,-24,-62,-71,-103C832,72,783,30,714,7c0,0,-71,-21,-161,-21Z" 
id="f0_16"
transform="scale(0.001,-0.001)" />

<path d="M321,-14c0,0,-58,0,-104,11c0,0,-48,7,-80,29c0,0,-33,20,-50,51c0,0,-18,30,-18,70c0,0,0,30,10,51c0,0,10,20,25,33c0,0,14,11,31,17c0,0,16,4,30,4c0,0,0,-41,8,-75c0,0,8,-36,28,-61c0,0,18,-28,51,-42c0,0,31,-16,78,-16c0,0,41,0,72,11c0,0,31,9,53,28c0,0,21,18,32,44c0,0,11,25,11,56c0,0,0,28,-8,49c0,0,-9,20,-30,38c0,0,-21,17,-58,37c0,0,-37,18,-92,42c0,0,-59,26,-102,51c0,0,-45,23,-72,52c0,0,-29,28,-43,65c0,0,-15,35,-14,86c0,0,-1,52,21,92c0,0,20,40,58,68c0,0,38,26,91,41c0,0,52,15,118,15c0,0,54,0,96,-12c0,0,41,-11,70,-30c0,0,28,-19,43,-44c0,0,14,-27,14,-55c0,0,-1,-42,-28,-66c0,0,-29,-25,-80,-25c-1,0,-2,0,-2,0c0,0,0,76,-32,119c0,0,-32,42,-100,42c0,0,-39,0,-66,-9c0,0,-28,-9,-45,-25c0,0,-18,-17,-26,-39c0,0,-8,-22,-8,-49c0,0,0,-29,10,-50c0,0,10,-22,34,-39c0,0,22,-18,59,-35c0,0,36,-17,86,-38c0,0,60,-26,104,-50c0,0,43,-24,72,-54c0,0,27,-29,41,-65c0,0,13,-37,13,-84c0,0,-1,-60,-21,-105c0,0,-23,-45,-62,-74C539,46,499,14,445,0c0,0,-56,-14,-124,-14Z" 
id="f0_c"
transform="scale(0.001,-0.001)" />

<path d="M586,481c0,0,0,60,-9,111c0,0,-9,50,-29,85c0,0,-19,36,-51,56c0,0,-33,18,-79,19c0,0,-87,-1,-133,-69c0,0,-46,-69,-46,-202ZM439,-14c0,0,-83,0,-149,27c0,0,-66,28,-112,82c0,0,-46,53,-69,132c0,0,-25,77,-25,177c0,0,0,213,88,322c0,0,88,108,251,108c0,0,73,0,133,-23c0,0,58,-24,100,-69c0,0,41,-46,63,-114c0,0,21,-69,22,-159V399H233c0,0,0,-84,15,-143c0,0,15,-61,44,-99c0,0,28,-40,71,-57c0,0,40,-19,93,-19c1,0,2,0,4,0c0,0,38,0,73,9c0,0,33,9,62,24c0,0,26,14,48,34c0,0,21,18,35,40c0,0,10,-4,20,-19c0,0,9,-15,9,-33c0,0,0,-24,-16,-49c0,0,-17,-27,-50,-50C641,37,607,14,557,0c0,0,-50,-14,-118,-14Z" 
id="f0_3"
transform="scale(0.001,-0.001)" />

<path d="M78,0V112L333,407c0,0,61,70,103,126c0,0,40,56,66,106c0,0,25,49,37,97c0,0,11,47,11,100c0,0,0,43,-9,79c0,0,-11,35,-29,61c0,0,-19,25,-48,40c0,0,-31,13,-70,13c0,0,-53,0,-84,-18c0,0,-33,-20,-52,-50c0,0,-19,-31,-25,-73c0,0,-7,-41,-7,-86c0,0,-28,0,-51,4c0,0,-24,4,-42,17c0,0,-18,11,-28,30c0,0,-10,19,-10,48c0,0,0,43,19,82c0,0,19,37,57,65c0,0,36,28,93,43c0,0,56,15,130,15c0,0,72,0,130,-18c0,0,56,-19,97,-51c0,0,41,-34,62,-81c0,0,21,-47,21,-105c0,0,-1,-54,-17,-104c0,0,-18,-52,-50,-104c0,0,-33,-54,-80,-111c0,0,-48,-58,-108,-124L191,122H545c7,0,36,1,56,10c0,0,21,10,36,25c0,0,14,15,22,37c0,0,7,20,13,42l6,28h61V0Z" 
id="f0_y"
transform="scale(0.001,-0.001)" />

<path d="M49,-194v70c0,0,79,47,125,115c0,0,45,66,71,146c0,0,23,79,31,167c0,0,7,88,7,180c0,0,0,90,-7,180c0,0,-8,88,-31,168c0,0,-26,79,-71,146c0,0,-46,66,-125,114v69c0,0,105,-42,180,-101c0,0,75,-60,122,-142c0,0,47,-82,69,-188c0,0,21,-109,22,-246c0,0,-1,-138,-22,-245c0,0,-22,-109,-69,-191c0,0,-47,-82,-122,-141c0,0,-75,-60,-180,-101Z" 
id="f0_w"
transform="scale(0.001,-0.001)" />

<path d="M35,0V64H55c0,0,25,0,49,4c0,0,22,3,39,13c0,0,17,10,28,32c0,0,10,20,10,53V650c0,0,0,33,-10,55c0,0,-11,20,-28,31c0,0,-17,11,-39,15c0,0,-24,3,-49,4H51v64H324V174c0,0,0,-37,10,-58c0,0,10,-21,27,-32c0,0,16,-13,40,-16c0,0,22,-4,48,-4h20V0ZM249,972c-1,0,-2,0,-3,0c0,0,-1,0,-2,0c-5,0,-20,0,-32,5c0,0,-16,5,-28,16c0,0,-12,11,-18,29c0,0,-7,18,-7,45c0,0,0,27,7,45c0,0,6,17,18,29c0,0,12,11,28,15c0,0,15,5,34,5c0,0,18,0,34,-5c0,0,15,-4,27,-15c0,0,11,-12,19,-29c0,0,7,-18,7,-45c0,0,0,-27,-7,-45c0,0,-8,-18,-19,-29c0,0,-12,-11,-27,-16c0,0,-14,-5,-31,-5Z" 
id="f0_8"
transform="scale(0.001,-0.001)" />

<path d="M43,0V64H55c0,0,26,0,49,4c0,0,23,3,40,16c0,0,16,11,27,32c0,0,10,21,10,58V650c0,0,0,33,-10,55c0,0,-11,20,-28,31c0,0,-17,11,-39,15c0,0,-24,3,-49,4H51v64H298L318,695h7c0,0,23,42,51,70c0,0,25,27,56,43c0,0,29,14,63,21c0,0,32,5,69,5c0,0,60,-1,108,-17c0,0,47,-18,81,-54c0,0,32,-37,50,-93c0,0,17,-58,18,-135V174c0,0,0,-37,9,-58c0,0,7,-21,23,-32c0,0,16,-13,38,-16c0,0,21,-4,47,-4h5V0H677V527c0,0,0,50,-9,89c0,0,-10,39,-29,66c0,0,-20,26,-52,41c0,0,-33,13,-78,13c0,0,-53,0,-88,-20c0,0,-36,-20,-57,-54c0,0,-22,-35,-31,-79c0,0,-10,-45,-9,-94V166c0,0,0,-33,10,-53c0,0,10,-22,27,-32c0,0,16,-10,40,-13c0,0,22,-4,48,-4h5V0Z" 
id="f0_7"
transform="scale(0.001,-0.001)" />

<path d="M421,0L142,946c0,0,-8,23,-17,39c0,0,-10,16,-22,25c0,0,-13,9,-30,13c0,0,-17,3,-39,3H13v65H434v-65H399c0,0,-46,0,-69,-17c0,0,-23,-18,-23,-56c0,0,0,-12,4,-26c0,0,3,-14,8,-30L460,408c0,0,18,-70,36,-136c0,0,16,-68,30,-122c0,0,11,59,27,130c0,0,14,71,35,144l182,656H880L1071,419c0,0,21,-77,39,-146c0,0,16,-71,27,-123c0,0,11,54,26,116c0,0,13,61,35,135l134,471c0,0,2,9,6,20c0,0,3,11,5,23c0,0,2,10,4,20c0,0,1,10,2,17c0,0,0,39,-25,57c0,0,-26,17,-76,17h-35v65h373v-65h-29c0,0,-23,0,-39,-4c0,0,-17,-5,-31,-17c0,0,-13,-13,-24,-36c0,0,-11,-24,-23,-61L1182,0H1045L796,856L562,0Z" 
id="f0_17"
transform="scale(0.001,-0.001)" />

<path d="M382,-14c-2,0,-3,0,-5,0c0,0,-75,0,-131,15c0,0,-57,15,-95,44c0,0,-40,27,-58,68c0,0,-20,38,-20,87c0,0,0,45,29,75c0,0,29,27,82,28c0,0,0,-49,13,-92c0,0,12,-44,36,-77c0,0,24,-34,64,-54c0,0,38,-20,92,-20c6,0,104,0,161,50c0,0,58,49,58,142c0,0,0,41,-12,74c0,0,-13,31,-39,60c0,0,-29,26,-73,52c0,0,-46,24,-113,52c0,0,-71,29,-123,63c0,0,-54,32,-88,74c0,0,-36,39,-53,90c0,0,-17,50,-17,113c0,0,0,65,26,117c0,0,24,51,69,87c0,0,44,34,106,54c0,0,60,18,133,18c0,0,68,0,122,-14c0,0,52,-15,90,-38c0,0,36,-25,56,-54c0,0,18,-32,18,-65c0,0,0,-50,-32,-74c0,0,-33,-26,-86,-26c0,0,-1,1,-2,1c0,0,-1,35,-8,70c0,0,-9,34,-29,62c0,0,-21,27,-53,44c0,0,-34,17,-81,17c0,0,-45,0,-79,-11c0,0,-36,-13,-59,-36c0,0,-24,-23,-36,-55c0,0,-13,-33,-13,-71c0,0,-1,-47,12,-80c0,0,12,-35,40,-63c0,0,27,-28,73,-53c0,0,46,-26,112,-52c0,0,67,-28,120,-58c0,0,52,-32,89,-68c0,0,37,-39,56,-84c0,0,19,-47,19,-106c0,0,0,-73,-26,-129c0,0,-27,-59,-76,-97C651,66,602,26,533,6c0,0,-67,-20,-151,-20Z" 
id="f0_18"
transform="scale(0.001,-0.001)" />

<path d="M433,-14c0,0,-77,0,-141,23c0,0,-64,23,-110,74c0,0,-46,50,-72,130c0,0,-26,79,-26,192c0,0,0,122,26,205c0,0,26,82,72,132c0,0,46,49,108,71c0,0,61,21,134,21c0,0,47,0,96,-9c0,0,47,-10,85,-29c0,0,38,-19,62,-49c0,0,23,-30,24,-69c0,0,0,-54,-35,-74c0,0,-35,-22,-102,-22c0,0,0,35,-6,68c0,0,-6,32,-20,56c0,0,-15,24,-39,38c0,0,-26,14,-65,14c0,0,-44,0,-79,-16c0,0,-35,-18,-61,-57c0,0,-26,-40,-39,-108c0,0,-13,-69,-13,-170c0,0,-1,-164,54,-243c0,0,54,-80,177,-80h1c6,0,72,1,123,30c0,0,52,30,79,77c0,0,11,-10,19,-24c0,0,7,-15,7,-36c0,0,0,-27,-16,-52c0,0,-17,-26,-49,-47C627,32,594,10,546,0c0,0,-48,-14,-113,-14Z" 
id="f0_k"
transform="scale(0.001,-0.001)" />

<path d="M46,-234v64c0,0,74,23,110,58c0,0,34,35,35,79c0,0,-1,15,-8,26c0,0,-9,8,-21,17c0,0,-13,6,-27,15c0,0,-15,7,-27,18c0,0,-13,9,-21,26c0,0,-8,14,-8,38c0,0,0,43,29,67c0,0,28,23,71,23c0,0,23,-1,45,-8c0,0,20,-9,37,-26c0,0,16,-17,26,-41c0,0,9,-27,9,-58c0,0,0,-48,-13,-93c0,0,-14,-46,-44,-84c0,0,-30,-40,-77,-70c0,0,-49,-31,-116,-51Z" 
id="f0_u"
transform="scale(0.001,-0.001)" />

<path d="M465,553c0,0,67,0,112,15c0,0,44,14,71,44c0,0,26,30,39,75c0,0,11,45,11,104c0,0,-1,61,-12,105c0,0,-14,42,-41,70c0,0,-29,27,-74,40c0,0,-46,12,-110,12H357V553ZM982,0C963,0,909,0,873,5c0,0,-46,5,-79,20c0,0,-32,15,-54,42c0,0,-24,26,-49,70L484,481H357V166c0,0,0,-33,11,-53c0,0,9,-22,27,-32c0,0,16,-10,40,-13c0,0,22,-4,48,-4h20V0H58V64H78c0,0,24,0,48,4c0,0,22,3,40,13c0,0,16,10,27,32c0,0,10,20,10,53V923c0,0,0,33,-10,54c0,0,-11,20,-27,32c0,0,-18,11,-40,14c0,0,-24,3,-48,3H58v65H469c0,0,198,-1,296,-73c0,0,97,-74,97,-222c0,0,-1,-62,-20,-107c0,0,-20,-46,-52,-80c0,0,-33,-33,-72,-55c0,0,-41,-23,-81,-36L847,186c0,0,38,-61,75,-91c0,0,37,-31,85,-31h5V0H990c0,0,-3,0,-8,0Z" 
id="f0_15"
transform="scale(0.001,-0.001)" />

<path d="M348,79c0,0,46,0,85,15c0,0,36,14,64,42c0,0,25,27,40,66c0,0,14,39,14,87V412H454c0,0,-65,0,-109,-14c0,0,-44,-13,-70,-36c0,0,-27,-25,-39,-59c0,0,-12,-35,-11,-80c0,0,0,-73,30,-108c0,0,29,-36,93,-36ZM313,-14c0,0,-50,0,-94,14c0,0,-44,14,-75,45c0,0,-33,30,-50,77c0,0,-18,47,-18,109c0,0,0,123,87,182c0,0,85,59,261,60H551v93c0,0,0,42,-4,78c0,0,-5,34,-20,60c0,0,-15,26,-42,40c0,0,-28,14,-75,14c0,0,-44,0,-71,-12c0,0,-29,-13,-43,-35c0,0,-16,-23,-21,-53c0,0,-6,-31,-5,-66c0,0,-64,0,-96,21c0,0,-34,21,-34,75c0,0,0,39,22,67c0,0,21,28,60,45c0,0,36,17,87,26c0,0,49,7,107,8c0,0,69,0,122,-13c0,0,52,-15,87,-46c0,0,34,-31,53,-81c0,0,17,-52,17,-124V174c0,0,0,-33,5,-53c0,0,6,-22,17,-34c0,0,10,-12,30,-18c0,0,15,-5,38,-5c2,0,3,0,5,0h4V0H588L564,131H551c0,0,-24,-33,-46,-59c0,0,-22,-27,-49,-46C456,26,429,6,395,-3c0,0,-35,-11,-82,-11Z" 
id="f0_6"
transform="scale(0.001,-0.001)" />

<path d="M421,83c0,0,59,0,100,20c0,0,39,19,65,60c0,0,23,39,34,101c0,0,10,61,10,144c0,0,0,79,-10,141c0,0,-11,61,-34,103c0,0,-25,41,-65,63c0,0,-41,21,-101,21c0,0,-51,0,-86,-21c0,0,-36,-23,-58,-64c0,0,-24,-42,-34,-103c0,0,-10,-62,-10,-141c0,0,0,-163,44,-244c0,0,43,-80,145,-80ZM395,-14c-8,0,-78,1,-133,24c0,0,-59,24,-98,77c0,0,-39,52,-60,132c0,0,-20,79,-20,189c0,0,0,110,20,191c0,0,21,80,60,133c0,0,39,51,98,77c0,0,58,25,133,25c0,0,44,0,80,-10c0,0,36,-10,65,-27c0,0,28,-18,51,-43c0,0,21,-24,39,-54h4c0,0,0,36,0,70c0,0,0,27,0,57c0,0,0,27,0,41V993c0,0,-1,33,-10,54c0,0,-11,21,-29,32c0,0,-18,11,-41,15c0,0,-24,3,-49,3H492v64H773V168c0,0,0,-34,10,-54c0,0,10,-21,27,-32c0,0,17,-11,40,-14c0,0,22,-4,48,-4h13V0H652L636,137h-6c0,0,-18,-35,-39,-62c0,0,-23,-29,-51,-48C540,27,512,6,476,-3c0,0,-36,-11,-81,-11Z" 
id="f0_9"
transform="scale(0.001,-0.001)" />

<path d="M229,0V64h35c0,0,25,0,49,4c0,0,22,3,39,13c0,0,17,10,28,32c0,0,9,20,9,53v849H243c0,0,-33,0,-56,-10c0,0,-24,-11,-37,-28c0,0,-15,-17,-22,-39c0,0,-8,-24,-10,-49l-8,-65H34v267H902V824H827l-8,65c0,0,-4,25,-10,49c0,0,-9,22,-22,39c0,0,-15,17,-37,28c0,0,-24,10,-58,10H544V174c0,0,0,-37,10,-58c0,0,10,-21,27,-32c0,0,16,-13,40,-16c0,0,22,-4,48,-4h35V0Z" 
id="f0_z"
transform="scale(0.001,-0.001)" />

<path d="M367,-14c0,0,-59,0,-100,13c0,0,-42,10,-69,38c0,0,-27,27,-39,73c0,0,-14,45,-14,112V732H29v61c0,0,28,0,61,11c0,0,32,11,58,37c0,0,26,28,43,68c0,0,15,38,28,98h70V819H489V732H289V217c0,0,-1,-78,32,-115c0,0,30,-36,83,-36c0,0,1,0,1,0c0,0,2,0,6,0c9,0,28,0,45,3c0,0,23,3,47,7V9C503,9,492,4,477,0c0,0,-15,-3,-33,-6c0,0,-20,-5,-39,-6c0,0,-20,-2,-38,-2Z" 
id="f0_4"
transform="scale(0.001,-0.001)" />

<path d="M28,0V64H40c0,0,25,0,49,4c0,0,22,3,39,16c0,0,17,11,27,32c0,0,10,21,10,58V993c0,0,0,33,-10,54c0,0,-11,21,-27,32c0,0,-18,11,-40,15c0,0,-24,3,-48,3H28v64H308V825c0,0,0,-22,0,-43c0,0,-1,-24,-4,-43c0,0,0,-23,0,-44h6c0,0,68,139,225,139c0,0,65,-1,115,-17c0,0,50,-18,85,-54c0,0,34,-37,52,-93c0,0,18,-58,18,-135V174c0,0,0,-37,9,-58c0,0,9,-21,24,-32c0,0,16,-13,38,-16c0,0,21,-4,47,-4h4V0H662V527c0,0,0,50,-9,89c0,0,-10,39,-29,66c0,0,-20,26,-52,41c0,0,-33,13,-78,13c0,0,-49,0,-82,-17c0,0,-35,-18,-58,-50c0,0,-24,-33,-34,-78c0,0,-11,-46,-11,-102V166c0,0,0,-33,10,-53c0,0,10,-22,27,-32c0,0,17,-10,40,-13c0,0,22,-4,48,-4h5V0Z" 
id="f0_o"
transform="scale(0.001,-0.001)" />

<path d="M43,0V64H63c0,0,25,0,47,4c0,0,21,3,38,16c0,0,15,11,24,32c0,0,8,21,9,58V650c0,0,0,33,-9,55c0,0,-9,20,-25,31c0,0,-16,11,-37,15c0,0,-22,3,-47,4H58v64H298L318,695h7c0,0,23,42,49,70c0,0,25,27,54,43c0,0,28,14,61,21c0,0,31,5,67,5c0,0,36,0,71,-7c0,0,33,-9,62,-24c0,0,28,-17,52,-43c0,0,21,-27,36,-65h13c0,0,23,42,50,70c0,0,27,27,57,43c0,0,30,14,64,21c0,0,32,5,68,5c0,0,59,-1,105,-17c0,0,45,-18,78,-54c0,0,32,-37,49,-93c0,0,17,-58,18,-135V174c0,0,0,-37,9,-58c0,0,9,-21,24,-32c0,0,16,-13,37,-16c0,0,21,-4,47,-4h5V0H1135V527c0,0,0,50,-8,89c0,0,-9,39,-27,66c0,0,-21,26,-50,41c0,0,-32,13,-75,13c0,0,-48,0,-80,-18c0,0,-33,-19,-53,-50c0,0,-21,-31,-28,-72c0,0,-9,-42,-9,-87V174c0,0,0,-37,9,-58c0,0,9,-21,24,-32c0,0,16,-13,38,-16c0,0,21,-4,47,-4h4V0H662V527c0,0,-1,50,-9,89c0,0,-8,39,-27,66c0,0,-20,26,-50,41c0,0,-31,13,-75,13c0,0,-50,0,-83,-20c0,0,-35,-20,-55,-54c0,0,-22,-35,-30,-79c0,0,-9,-45,-9,-94V166c0,0,0,-33,10,-53c0,0,10,-22,27,-32c0,0,16,-10,40,-13c0,0,22,-4,48,-4h5V0Z" 
id="f0_l"
transform="scale(0.001,-0.001)" />

<path d="M20,0V64H40c0,0,25,0,49,4c0,0,22,3,39,16c0,0,17,11,27,32c0,0,10,21,10,58V993c0,0,0,33,-10,54c0,0,-11,21,-27,32c0,0,-18,11,-40,15c0,0,-24,3,-48,3H20v64H309V174c0,0,-1,-37,10,-58c0,0,9,-21,26,-32c0,0,17,-13,41,-16c0,0,22,-4,48,-4h20V0Z" 
id="f0_a"
transform="scale(0.001,-0.001)" />

<path d="M58,0V64H78c0,0,25,0,49,4c0,0,22,3,39,16c0,0,17,11,27,32c0,0,10,21,10,58V917c0,0,0,36,-10,57c0,0,-10,21,-27,34c0,0,-17,11,-39,15c0,0,-24,3,-49,3H58v65H503v-65H483c0,0,-26,0,-48,-3c0,0,-24,-3,-40,-14c0,0,-18,-12,-27,-32c0,0,-11,-21,-11,-54V76H659c0,0,34,0,59,13c0,0,23,12,39,32c0,0,16,19,25,44c0,0,7,24,11,49l15,114h75V0Z" 
id="f0_2"
transform="scale(0.001,-0.001)" />

<path d="M351,-291c2,0,3,0,5,0c0,0,1,0,2,0c12,0,84,1,134,15c0,0,52,13,84,38c0,0,31,23,44,58c0,0,12,34,13,74c0,0,0,35,-10,59c0,0,-11,22,-30,35c0,0,-20,12,-49,17c0,0,-29,5,-67,5H327c0,0,-33,0,-62,-5c0,0,-31,-5,-54,-20c0,0,-24,-17,-38,-44c0,0,-15,-29,-14,-74c0,0,0,-34,9,-63c0,0,9,-29,31,-50c0,0,23,-22,61,-33c0,0,35,-12,91,-12Zm34,658c0,0,1,0,1,0c0,0,37,0,64,11c0,0,24,11,42,35c0,0,15,22,23,59c0,0,7,35,7,86c0,0,0,103,-31,152c0,0,-31,49,-106,49c0,0,-74,0,-105,-50c0,0,-33,-50,-32,-153c0,0,0,-98,32,-143c0,0,32,-46,105,-46ZM353,-366c-8,0,-162,1,-239,59c0,0,-80,59,-79,164c0,0,0,45,16,78c0,0,15,34,42,58c0,0,26,22,61,38c0,0,34,14,72,21c0,0,-16,7,-31,18c0,0,-14,11,-26,27c0,0,-13,16,-20,36c0,0,-8,20,-7,45c0,0,0,45,24,79c0,0,23,32,76,64c0,0,-33,13,-58,37c0,0,-27,23,-44,54c0,0,-18,30,-27,65c0,0,-10,36,-9,74c0,0,0,66,18,119c0,0,18,51,53,89c0,0,36,36,90,56c0,0,53,18,126,19c0,0,28,-1,54,-4c0,0,26,-4,50,-11c0,0,22,-8,41,-16c0,0,18,-9,29,-19c0,0,12,12,27,27c0,0,14,14,33,27c0,0,19,12,41,20c0,0,21,7,47,8c0,0,23,-1,40,-6c0,0,17,-7,28,-17c0,0,11,-11,17,-25c0,0,5,-15,5,-31c0,0,0,-17,-4,-31c0,0,-6,-15,-15,-25c0,0,-10,-12,-25,-17c0,0,-15,-7,-36,-7c0,0,0,9,-2,18c0,0,-3,9,-8,17c0,0,-6,7,-16,13c0,0,-10,4,-25,4c0,0,-19,0,-35,-4c0,0,-16,-5,-31,-14c0,0,26,-33,44,-76c0,0,16,-44,16,-109c0,0,-1,-57,-17,-105c0,0,-17,-48,-51,-82c0,0,-35,-36,-86,-56c0,0,-52,-19,-121,-19H348c0,0,-11,0,-21,1c0,0,-10,1,-15,3c0,0,-15,-9,-29,-17c0,0,-13,-9,-23,-20c0,0,-11,-11,-16,-25c0,0,-6,-15,-6,-32c0,0,-1,-19,7,-29c0,0,7,-12,20,-18c0,0,12,-7,30,-8c0,0,17,-2,38,-2H506c0,0,68,-1,116,-17c0,0,48,-17,78,-47c0,0,30,-32,44,-73c0,0,14,-41,14,-90c0,0,-1,-67,-24,-119c0,0,-25,-53,-75,-89c0,0,-50,-38,-126,-58c0,0,-77,-20,-180,-20Z" 
id="f0_b"
transform="scale(0.001,-0.001)" />

<path d="M458,0L128,946c0,0,-8,23,-18,39c0,0,-10,16,-22,25c0,0,-13,9,-29,13c0,0,-17,3,-39,3H0v65H420v-65H385c0,0,-46,0,-69,-17c0,0,-24,-18,-23,-56c0,0,0,-12,4,-26c0,0,3,-14,9,-30L474,401c0,0,22,-69,39,-132c0,0,17,-65,29,-119c0,0,12,54,29,117c0,0,15,61,41,134L781,886c0,0,5,19,10,36c0,0,3,16,3,30c0,0,0,39,-24,57c0,0,-26,17,-76,17H659v65h372v-65h-29c0,0,-23,0,-38,-4c0,0,-17,-5,-29,-17c0,0,-14,-14,-25,-37c0,0,-12,-24,-24,-60L570,0Z" 
id="f0_v"
transform="scale(0.001,-0.001)" />

<path d="M-6,365v90H771V365Z" 
id="f0_19"
transform="scale(0.001,-0.001)" />

<path d="M222,-9c-1,0,-2,0,-3,0c0,0,-1,0,-3,0c-6,0,-22,0,-35,5c0,0,-18,4,-30,16c0,0,-14,12,-21,32c0,0,-8,20,-8,49c0,0,0,30,8,50c0,0,7,19,21,32c0,0,12,11,30,17c0,0,17,5,38,5c0,0,18,0,37,-5c0,0,16,-6,30,-17c0,0,12,-13,21,-32c0,0,8,-20,8,-50c0,0,0,-29,-8,-49c0,0,-9,-20,-21,-32C286,12,272,0,256,-4c0,0,-17,-5,-34,-5Z" 
id="f0_n"
transform="scale(0.001,-0.001)" />

<path d="M383,-14c-2,0,-4,0,-6,0h-1c-12,0,-79,1,-128,14c0,0,-56,12,-90,36c0,0,-36,23,-52,54c0,0,-17,30,-17,64c0,0,0,46,26,73c0,0,25,25,70,25c0,0,0,-40,13,-74c0,0,12,-35,38,-59c0,0,24,-24,61,-38c0,0,34,-14,79,-14c1,0,2,0,3,0c0,0,45,0,86,13c0,0,42,12,73,42c0,0,30,29,50,76c0,0,18,47,18,115c0,0,0,48,-18,88c0,0,-20,38,-55,67c0,0,-36,27,-88,43c0,0,-52,14,-115,15H281v78h49c0,0,50,0,94,17c0,0,44,16,77,47c0,0,31,29,50,74c0,0,19,43,19,98c0,0,0,45,-9,80c0,0,-10,34,-28,59c0,0,-21,25,-51,38c0,0,-32,12,-75,12c0,0,-53,0,-85,-18c0,0,-33,-20,-52,-50c0,0,-19,-31,-25,-73c0,0,-7,-41,-7,-86c0,0,-28,0,-52,4c0,0,-23,4,-41,17c0,0,-18,11,-28,30c0,0,-10,19,-10,48c0,0,0,43,19,82c0,0,19,37,57,65c0,0,38,28,94,43c0,0,56,15,130,15c0,0,71,0,131,-16c0,0,59,-17,101,-47c0,0,41,-31,65,-76c0,0,23,-46,23,-104c0,0,0,-51,-18,-97c0,0,-19,-46,-51,-82c0,0,-33,-38,-78,-63c0,0,-45,-27,-97,-39c0,0,27,-4,60,-10c0,0,32,-8,63,-21c0,0,32,-13,61,-33c0,0,28,-20,51,-50c0,0,21,-29,35,-67c0,0,12,-39,12,-89c0,0,0,-62,-16,-110c0,0,-17,-48,-45,-84c0,0,-29,-37,-67,-62c0,0,-38,-26,-81,-41C556,15,512,0,467,-6c0,0,-42,-8,-84,-8Z" 
id="f0_1a"
transform="scale(0.001,-0.001)" />

<path d="M427,67c0,0,56,0,94,33c0,0,38,32,62,94c0,0,23,61,34,151c0,0,10,88,10,202c0,0,0,112,-10,202c0,0,-11,88,-34,150c0,0,-24,60,-61,93c0,0,-39,31,-93,31c0,0,-56,0,-94,-31c0,0,-40,-33,-63,-93c0,0,-24,-62,-34,-150c0,0,-10,-90,-10,-202c0,0,0,-114,10,-202c0,0,10,-90,34,-151c0,0,23,-62,62,-94c0,0,38,-33,93,-33Zm0,-81c0,0,-94,0,-161,39c0,0,-69,41,-112,115c0,0,-44,73,-64,178c0,0,-22,103,-21,230c0,0,-1,126,21,230c0,0,20,103,64,176c0,0,44,72,112,113c0,0,67,39,163,39c0,0,89,0,157,-39c0,0,65,-41,111,-113c0,0,45,-73,67,-176c0,0,21,-104,22,-231c0,0,-1,-127,-22,-230c0,0,-22,-104,-67,-177C697,140,652,66,585,25c0,0,-67,-39,-158,-39Z" 
id="f0_1b"
transform="scale(0.001,-0.001)" />

<path d="M147,0V64H249c0,0,26,0,49,4c0,0,23,3,40,16c0,0,16,11,27,32c0,0,9,21,9,58V976c0,0,-29,-35,-55,-64c0,0,-27,-29,-50,-50c0,0,-24,-22,-46,-32c0,0,-22,-12,-44,-12c0,0,-1,0,-1,0c0,0,-1,0,-1,0c-3,0,-35,0,-55,23c0,0,-21,21,-21,59c0,0,23,5,47,15c0,0,23,7,50,22c0,0,25,13,57,34c0,0,30,18,69,47l107,79h98V174c0,0,-1,-37,10,-58c0,0,9,-21,26,-32c0,0,17,-13,41,-16c0,0,22,-4,48,-4h75V0Z" 
id="f0_t"
transform="scale(0.001,-0.001)" />

<path d="M58,0V64H78c0,0,25,0,49,4c0,0,22,3,39,16c0,0,17,11,27,32c0,0,10,21,10,58V917c0,0,0,36,-10,57c0,0,-10,21,-27,34c0,0,-17,11,-39,15c0,0,-24,3,-49,3H58v65H503v-65H483c0,0,-26,0,-49,-3c0,0,-24,-4,-39,-15c0,0,-18,-13,-27,-34c0,0,-11,-21,-11,-57V174c0,0,0,-37,11,-58c0,0,9,-21,27,-32c0,0,15,-13,39,-16c0,0,23,-4,49,-4h20V0Z" 
id="f0_1c"
transform="scale(0.001,-0.001)" />

<path d="M41,0V64H61c0,0,26,0,49,4c0,0,23,3,40,16c0,0,16,11,27,32c0,0,9,21,9,58V747H47v72H186v76c0,0,0,68,19,121c0,0,19,52,54,88c0,0,34,35,85,55c0,0,50,17,113,17c0,0,58,0,100,-7c0,0,41,-8,67,-22c0,0,24,-15,35,-34c0,0,12,-20,12,-43c0,0,0,-22,-9,-37c0,0,-11,-17,-26,-27c0,0,-18,-11,-40,-16c0,0,-24,-6,-51,-6c0,0,0,23,-4,45c0,0,-6,21,-17,39c0,0,-12,17,-31,28c0,0,-19,10,-48,10c0,0,-34,0,-55,-12c0,0,-22,-13,-36,-38c0,0,-13,-26,-18,-62c0,0,-6,-37,-6,-85V819H545V747H330V174c0,0,0,-37,10,-58c0,0,10,-21,27,-32c0,0,16,-13,40,-16c0,0,22,-4,48,-4h58V0Z" 
id="f0_p"
transform="scale(0.001,-0.001)" />

<path d="M58,0V64H78c0,0,24,0,48,4c0,0,22,3,40,13c0,0,16,10,27,32c0,0,10,20,10,53V923c0,0,0,33,-10,54c0,0,-11,20,-27,32c0,0,-18,11,-40,14c0,0,-24,3,-48,3H58v65H407L723,217l313,874h339v-65h-20c0,0,-26,0,-48,-3c0,0,-24,-4,-40,-15c0,0,-17,-13,-27,-34c0,0,-11,-21,-10,-57V174c0,0,-1,-37,10,-58c0,0,10,-21,27,-32c0,0,16,-13,40,-16c0,0,22,-4,48,-4h20V0H968V64h6c0,0,24,0,44,4c0,0,20,3,34,13c0,0,14,10,22,29c0,0,8,19,8,50V976L733,0H650L296,974V174c0,0,-1,-37,8,-58c0,0,7,-21,22,-32c0,0,13,-13,35,-16c0,0,19,-4,46,-4h4V0Z" 
id="f0_1d"
transform="scale(0.001,-0.001)" />

<path d="M417,-14c0,0,-60,0,-107,16c0,0,-47,17,-79,54c0,0,-33,36,-49,93c0,0,-17,57,-17,135V650c0,0,0,33,-10,55c0,0,-11,20,-27,31c0,0,-18,11,-40,15c0,0,-24,3,-48,4H35v64H309V292c0,0,0,-51,8,-89c0,0,7,-40,26,-66c0,0,18,-27,49,-40c0,0,29,-14,74,-14c1,0,2,0,3,0c0,0,50,0,88,18c0,0,35,18,59,50c0,0,23,32,34,78c0,0,12,46,12,101V645c0,0,0,35,-10,58c0,0,-10,21,-27,33c0,0,-17,11,-39,15c0,0,-24,3,-50,4h-4v64H805V166c0,0,0,-33,10,-53c0,0,10,-22,27,-32c0,0,17,-10,41,-13c0,0,21,-4,47,-4h5V0H692L672,124h-7c0,0,-24,-44,-51,-70c0,0,-28,-28,-60,-42c0,0,-31,-15,-65,-20c0,0,-35,-6,-72,-6Z" 
id="f0_m"
transform="scale(0.001,-0.001)" />

<path d="M612,-14c0,0,-133,0,-231,39c0,0,-100,41,-164,115c0,0,-66,73,-98,177c0,0,-32,103,-32,230c0,0,0,124,35,227c0,0,32,103,101,176c0,0,67,73,167,115c0,0,99,41,232,41c0,0,84,0,149,-12c0,0,62,-14,105,-37c0,0,41,-24,62,-54c0,0,21,-32,21,-68c0,0,0,-26,-11,-44c0,0,-11,-20,-30,-34c0,0,-19,-15,-44,-21c0,0,-24,-8,-53,-8c-1,0,-2,0,-3,0c0,0,-1,36,-11,71c0,0,-11,34,-34,63c0,0,-24,28,-63,46c0,0,-39,16,-95,17c0,0,-97,0,-164,-31c0,0,-69,-33,-112,-93c0,0,-44,-62,-63,-150c0,0,-19,-89,-19,-204c0,0,0,-115,20,-203c0,0,19,-89,65,-149c0,0,45,-61,118,-92c0,0,73,-31,177,-31c0,0,43,0,86,4c0,0,40,4,73,14V336c0,0,0,33,-10,55c0,0,-11,20,-27,31c0,0,-17,10,-40,14c0,0,-24,3,-48,4h-6v64h397V440h-6c0,0,-23,-1,-41,-4c0,0,-20,-3,-34,-15c0,0,-15,-12,-22,-33c0,0,-9,-22,-9,-58V55C950,55,873,19,792,2c0,0,-82,-16,-180,-16Z" 
id="f0_1e"
transform="scale(0.001,-0.001)" />

<path d="M275,-20L578,891H299c0,0,-84,0,-120,-20c0,0,-63,-35,-101,-106l-21,8l97,239H696V983L359,-20Z" 
id="f1_r"
transform="scale(0.001,-0.001)" />

<path d="M197,0V27c0,0,71,2,92,13c0,0,21,10,29,29c0,0,9,18,9,109V725c0,0,0,110,-8,141c0,0,-5,24,-19,35c0,0,-14,11,-33,11c0,0,-28,0,-77,-23l-11,23l246,121h25V178c0,0,0,-85,7,-106c0,0,7,-21,29,-32c0,0,23,-11,91,-13V0Z" 
id="f1_l"
transform="scale(0.001,-0.001)" />


</defs>
</svg>