<?xml version="1.0" encoding="UTF-8" standalone="no"?>
<!DOCTYPE svg PUBLIC "-//W3C//DTD SVG 1.1//EN"
"http://www.w3.org/Graphics/SVG/1.1/DTD/svg11.dtd">
<svg viewBox="0 0 909 1286" version="1.1" xmlns="http://www.w3.org/2000/svg" xmlns:xlink="http://www.w3.org/1999/xlink">
<defs>
<clipPath id="c0_26"><path d="M35.1,1194.7V113.1H873.9V1194.7Z" /></clipPath>
</defs>
<image preserveAspectRatio="none" x="47" y="113" width="81" height="67" xlink:href="img/1.png" />
<g clip-path="url(#c0_26)">
<g fill="#000000" >
<use xlink:href="#f0_t" transform="matrix(12,0,0,12,47.4,221.5)" />
<use xlink:href="#f0_7" transform="matrix(12,0,0,12,58.6,221.5)" />
<use xlink:href="#f0_16" transform="matrix(12,0,0,12,68.9,221.5)" />
<use xlink:href="#f0_5" transform="matrix(12,0,0,12,79.6,221.5)" />
<use xlink:href="#f0_f" transform="matrix(12,0,0,12,85.5,221.5)" />
<use xlink:href="#f0_i" transform="matrix(12,0,0,12,97.3,221.5)" />
<use xlink:href="#f0_a" transform="matrix(12,0,0,12,111.9,221.5)" />
<use xlink:href="#f0_e" transform="matrix(12,0,0,12,120.9,221.5)" />
<use xlink:href="#f0_j" transform="matrix(12,0,0,12,132.5,221.5)" />
<use xlink:href="#f0_9" transform="matrix(12,0,0,12,143.8,221.5)" />
<use xlink:href="#f0_c" transform="matrix(12,0,0,12,158.3,221.5)" />
<use xlink:href="#f0_b" transform="matrix(12,0,0,12,167,221.5)" />
<use xlink:href="#f0_b" transform="matrix(12,0,0,12,177.5,221.5)" />
<use xlink:href="#f0_4" transform="matrix(12,0,0,12,188.1,221.5)" />
<use xlink:href="#f0_b" transform="matrix(12,0,0,12,199.3,221.5)" />
<use xlink:href="#f0_f" transform="matrix(12,0,0,12,209.9,221.5)" />
<use xlink:href="#f0_j" transform="matrix(12,0,0,12,226.4,221.5)" />
<use xlink:href="#f0_b" transform="matrix(12,0,0,12,237.7,221.5)" />
<use xlink:href="#f0_4" transform="matrix(12,0,0,12,248.3,221.5)" />
<use xlink:href="#f0_h" transform="matrix(12,0,0,12,254.7,221.5)" />
<use xlink:href="#f0_6" transform="matrix(12,0,0,12,271.1,221.5)" />
<use xlink:href="#f0_5" transform="matrix(12,0,0,12,279.3,221.5)" />
<use xlink:href="#f0_l" transform="matrix(12,0,0,12,285.2,221.5)" />
<use xlink:href="#f0_9" transform="matrix(12,0,0,12,296.4,221.5)" />
<use xlink:href="#f0_6" transform="matrix(12,0,0,12,306.2,221.5)" />
</g>
</g>
<image preserveAspectRatio="none" x="47" y="249" width="194" height="67" xlink:href="img/2.png" />
<g clip-path="url(#c0_26)">
<g fill="#000000" >
<use xlink:href="#f0_3" transform="matrix(12,0,0,12,47.4,363.6)" />
<use xlink:href="#f0_f" transform="matrix(12,0,0,12,54.1,363.6)" />
<use xlink:href="#f0_5" transform="matrix(12,0,0,12,65.9,363.6)" />
<use xlink:href="#f0_4" transform="matrix(12,0,0,12,71.8,363.6)" />
<use xlink:href="#f0_5" transform="matrix(12,0,0,12,78.2,363.6)" />
<use xlink:href="#f0_7" transform="matrix(12,0,0,12,84.1,363.6)" />
<use xlink:href="#f0_p" transform="matrix(12,0,0,12,94.4,363.6)" />
<use xlink:href="#f0_1b" transform="matrix(12,0,0,12,104.8,363.6)" />
<use xlink:href="#f0_e" transform="matrix(12,0,0,12,114.8,363.6)" />
<use xlink:href="#f0_c" transform="matrix(12,0,0,12,126.4,363.6)" />
<use xlink:href="#f0_q" transform="matrix(12,0,0,12,135,363.6)" />
<use xlink:href="#f0_7" transform="matrix(12,0,0,12,141.7,363.6)" />
<use xlink:href="#f0_a" transform="matrix(12,0,0,12,152.1,363.6)" />
<use xlink:href="#f0_9" transform="matrix(12,0,0,12,161.1,363.6)" />
<use xlink:href="#f0_z" transform="matrix(12,0,0,12,175.6,363.6)" />
<use xlink:href="#f0_c" transform="matrix(12,0,0,12,188.6,363.6)" />
<use xlink:href="#f0_9" transform="matrix(12,0,0,12,197.2,363.6)" />
<use xlink:href="#f0_7" transform="matrix(12,0,0,12,207,363.6)" />
<use xlink:href="#f0_17" transform="matrix(12,0,0,12,222.1,363.6)" />
<use xlink:href="#f0_13" transform="matrix(12,0,0,12,237,363.6)" />
<use xlink:href="#f0_1p" transform="matrix(12,0,0,12,252,363.6)" />
<use xlink:href="#f0_1i" transform="matrix(12,0,0,12,268.3,363.6)" />
<use xlink:href="#f0_1a" transform="matrix(10,0,0,10,280.3,356)" />
</g>
</g>
<image preserveAspectRatio="none" x="47" y="391" width="226" height="49" xlink:href="img/3.png" />
<g clip-path="url(#c0_26)">
<g fill="#000000" >
<use xlink:href="#f0_15" transform="matrix(12,0,0,12,47.4,481.3)" />
<use xlink:href="#f0_5" transform="matrix(12,0,0,12,58.2,481.3)" />
<use xlink:href="#f0_f" transform="matrix(12,0,0,12,64,481.3)" />
<use xlink:href="#f0_7" transform="matrix(12,0,0,12,75.8,481.3)" />
<use xlink:href="#f0_p" transform="matrix(12,0,0,12,86.2,481.3)" />
<use xlink:href="#f0_1b" transform="matrix(12,0,0,12,96.6,481.3)" />
<use xlink:href="#f0_e" transform="matrix(12,0,0,12,106.5,481.3)" />
<use xlink:href="#f0_c" transform="matrix(12,0,0,12,118.2,481.3)" />
<use xlink:href="#f0_q" transform="matrix(12,0,0,12,126.8,481.3)" />
<use xlink:href="#f0_7" transform="matrix(12,0,0,12,133.5,481.3)" />
<use xlink:href="#f0_a" transform="matrix(12,0,0,12,143.8,481.3)" />
<use xlink:href="#f0_9" transform="matrix(12,0,0,12,152.9,481.3)" />
<use xlink:href="#f0_z" transform="matrix(12,0,0,12,167.4,481.3)" />
<use xlink:href="#f0_c" transform="matrix(12,0,0,12,180.3,481.3)" />
<use xlink:href="#f0_9" transform="matrix(12,0,0,12,189,481.3)" />
<use xlink:href="#f0_7" transform="matrix(12,0,0,12,198.8,481.3)" />
<use xlink:href="#f0_17" transform="matrix(12,0,0,12,213.8,481.3)" />
</g>
</g>
<image preserveAspectRatio="none" x="229" y="460" width="99" height="33" xlink:href="img/4.png" />
<image preserveAspectRatio="none" x="47" y="512" width="171" height="75" xlink:href="img/5.png" />
<image preserveAspectRatio="none" x="47" y="605" width="271" height="79" xlink:href="img/6.png" />
<g clip-path="url(#c0_26)">
<g fill="#000000" >
<use xlink:href="#f0_3" transform="matrix(12,0,0,12,47.4,725.7)" />
<use xlink:href="#f0_f" transform="matrix(12,0,0,12,54.1,725.7)" />
<use xlink:href="#f0_a" transform="matrix(12,0,0,12,65.9,725.7)" />
<use xlink:href="#f0_c" transform="matrix(12,0,0,12,74.9,725.7)" />
<use xlink:href="#f0_9" transform="matrix(12,0,0,12,83.6,725.7)" />
<use xlink:href="#f0_7" transform="matrix(12,0,0,12,93.4,725.7)" />
<use xlink:href="#f0_6" transform="matrix(12,0,0,12,103.7,725.7)" />
<use xlink:href="#f0_9" transform="matrix(12,0,0,12,111.9,725.7)" />
<use xlink:href="#f0_5" transform="matrix(12,0,0,12,126.5,725.7)" />
<use xlink:href="#f0_f" transform="matrix(12,0,0,12,132.3,725.7)" />
<use xlink:href="#f0_1b" transform="matrix(12,0,0,12,148.9,725.7)" />
<use xlink:href="#f0_e" transform="matrix(12,0,0,12,158.9,725.7)" />
<use xlink:href="#f0_c" transform="matrix(12,0,0,12,170.5,725.7)" />
<use xlink:href="#f0_q" transform="matrix(12,0,0,12,179.1,725.7)" />
<use xlink:href="#f0_7" transform="matrix(12,0,0,12,185.9,725.7)" />
<use xlink:href="#f0_a" transform="matrix(12,0,0,12,196.2,725.7)" />
<use xlink:href="#f0_9" transform="matrix(12,0,0,12,205.2,725.7)" />
<use xlink:href="#f0_17" transform="matrix(12,0,0,12,219.8,725.7)" />
<use xlink:href="#f0_15" transform="matrix(12,0,0,12,234.8,725.7)" />
<use xlink:href="#f0_5" transform="matrix(12,0,0,12,245.6,725.7)" />
<use xlink:href="#f0_f" transform="matrix(12,0,0,12,251.4,725.7)" />
<use xlink:href="#f0_7" transform="matrix(12,0,0,12,263.2,725.7)" />
<use xlink:href="#f0_p" transform="matrix(12,0,0,12,273.5,725.7)" />
<use xlink:href="#f0_1b" transform="matrix(12,0,0,12,284,725.7)" />
<use xlink:href="#f0_e" transform="matrix(12,0,0,12,293.9,725.7)" />
<use xlink:href="#f0_c" transform="matrix(12,0,0,12,305.6,725.7)" />
<use xlink:href="#f0_q" transform="matrix(12,0,0,12,314.2,725.7)" />
<use xlink:href="#f0_7" transform="matrix(12,0,0,12,320.9,725.7)" />
<use xlink:href="#f0_a" transform="matrix(12,0,0,12,331.2,725.7)" />
<use xlink:href="#f0_9" transform="matrix(12,0,0,12,340.3,725.7)" />
<use xlink:href="#f0_z" transform="matrix(12,0,0,12,354.8,725.7)" />
<use xlink:href="#f0_c" transform="matrix(12,0,0,12,367.7,725.7)" />
<use xlink:href="#f0_9" transform="matrix(12,0,0,12,376.4,725.7)" />
<use xlink:href="#f0_7" transform="matrix(12,0,0,12,386.2,725.7)" />
<use xlink:href="#f0_1x" transform="matrix(12,0,0,12,401.2,725.7)" />
<use xlink:href="#f0_3" transform="matrix(12,0,0,12,415.1,725.7)" />
<use xlink:href="#f0_f" transform="matrix(12,0,0,12,421.9,725.7)" />
<use xlink:href="#f0_5" transform="matrix(12,0,0,12,433.7,725.7)" />
<use xlink:href="#f0_4" transform="matrix(12,0,0,12,439.5,725.7)" />
<use xlink:href="#f0_5" transform="matrix(12,0,0,12,446,725.7)" />
<use xlink:href="#f0_7" transform="matrix(12,0,0,12,451.8,725.7)" />
<use xlink:href="#f0_p" transform="matrix(12,0,0,12,462.2,725.7)" />
<use xlink:href="#f0_1b" transform="matrix(12,0,0,12,472.6,725.7)" />
<use xlink:href="#f0_e" transform="matrix(12,0,0,12,482.5,725.7)" />
<use xlink:href="#f0_c" transform="matrix(12,0,0,12,494.2,725.7)" />
<use xlink:href="#f0_q" transform="matrix(12,0,0,12,502.8,725.7)" />
<use xlink:href="#f0_7" transform="matrix(12,0,0,12,509.5,725.7)" />
<use xlink:href="#f0_a" transform="matrix(12,0,0,12,519.9,725.7)" />
<use xlink:href="#f0_9" transform="matrix(12,0,0,12,528.9,725.7)" />
<use xlink:href="#f0_z" transform="matrix(12,0,0,12,543.4,725.7)" />
<use xlink:href="#f0_c" transform="matrix(12,0,0,12,556.3,725.7)" />
<use xlink:href="#f0_9" transform="matrix(12,0,0,12,565,725.7)" />
<use xlink:href="#f0_7" transform="matrix(12,0,0,12,574.8,725.7)" />
</g>
</g>
<image preserveAspectRatio="none" x="47" y="753" width="335" height="116" xlink:href="img/7.png" />
<g clip-path="url(#c0_26)">
<g fill="#000000" >
<use xlink:href="#f0_1q" transform="matrix(12,0,0,12,47.4,910.6)" />
<use xlink:href="#f0_b" transform="matrix(12,0,0,12,66.6,910.6)" />
<use xlink:href="#f0_c" transform="matrix(12,0,0,12,77.1,910.6)" />
<use xlink:href="#f0_16" transform="matrix(12,0,0,12,85.7,910.6)" />
<use xlink:href="#f0_n" transform="matrix(12,0,0,12,101.2,910.6)" />
<use xlink:href="#f0_b" transform="matrix(12,0,0,12,114.5,910.6)" />
<use xlink:href="#f0_f" transform="matrix(12,0,0,12,125.1,910.6)" />
<use xlink:href="#f0_9" transform="matrix(12,0,0,12,136.9,910.6)" />
<use xlink:href="#f0_17" transform="matrix(12,0,0,12,151.5,910.6)" />
<use xlink:href="#f0_1b" transform="matrix(12,0,0,12,166.5,910.6)" />
<use xlink:href="#f0_e" transform="matrix(12,0,0,12,176.4,910.6)" />
<use xlink:href="#f0_c" transform="matrix(12,0,0,12,188.1,910.6)" />
<use xlink:href="#f0_q" transform="matrix(12,0,0,12,196.7,910.6)" />
<use xlink:href="#f0_7" transform="matrix(12,0,0,12,203.4,910.6)" />
<use xlink:href="#f0_a" transform="matrix(12,0,0,12,213.7,910.6)" />
<use xlink:href="#f0_9" transform="matrix(12,0,0,12,222.8,910.6)" />
<use xlink:href="#f0_t" transform="matrix(12,0,0,12,237.3,910.6)" />
<use xlink:href="#f0_9" transform="matrix(12,0,0,12,248.6,910.6)" />
<use xlink:href="#f0_f" transform="matrix(12,0,0,12,258.4,910.6)" />
<use xlink:href="#f0_6" transform="matrix(12,0,0,12,270.2,910.6)" />
<use xlink:href="#f0_5" transform="matrix(12,0,0,12,278.4,910.6)" />
<use xlink:href="#f0_b" transform="matrix(12,0,0,12,284.3,910.6)" />
<use xlink:href="#f0_f" transform="matrix(12,0,0,12,294.9,910.6)" />
<use xlink:href="#f0_1u" transform="matrix(12,0,0,12,311.4,910.6)" />
<use xlink:href="#f0_3" transform="matrix(12,0,0,12,321.7,910.6)" />
<use xlink:href="#f0_f" transform="matrix(12,0,0,12,328.4,910.6)" />
<use xlink:href="#f0_a" transform="matrix(12,0,0,12,340.2,910.6)" />
<use xlink:href="#f0_c" transform="matrix(12,0,0,12,349.2,910.6)" />
<use xlink:href="#f0_9" transform="matrix(12,0,0,12,357.9,910.6)" />
<use xlink:href="#f0_7" transform="matrix(12,0,0,12,367.7,910.6)" />
<use xlink:href="#f0_6" transform="matrix(12,0,0,12,378,910.6)" />
<use xlink:href="#f0_9" transform="matrix(12,0,0,12,386.2,910.6)" />
<use xlink:href="#f0_5" transform="matrix(12,0,0,12,400.8,910.6)" />
<use xlink:href="#f0_f" transform="matrix(12,0,0,12,406.7,910.6)" />
<use xlink:href="#f0_1b" transform="matrix(12,0,0,12,423.2,910.6)" />
<use xlink:href="#f0_e" transform="matrix(12,0,0,12,433.2,910.6)" />
<use xlink:href="#f0_c" transform="matrix(12,0,0,12,444.8,910.6)" />
<use xlink:href="#f0_q" transform="matrix(12,0,0,12,453.4,910.6)" />
<use xlink:href="#f0_7" transform="matrix(12,0,0,12,460.2,910.6)" />
<use xlink:href="#f0_a" transform="matrix(12,0,0,12,470.5,910.6)" />
<use xlink:href="#f0_9" transform="matrix(12,0,0,12,479.5,910.6)" />
<use xlink:href="#f0_z" transform="matrix(12,0,0,12,494.1,910.6)" />
<use xlink:href="#f0_c" transform="matrix(12,0,0,12,507,910.6)" />
<use xlink:href="#f0_9" transform="matrix(12,0,0,12,515.6,910.6)" />
<use xlink:href="#f0_7" transform="matrix(12,0,0,12,525.4,910.6)" />
</g>
</g>
<image preserveAspectRatio="none" x="47" y="938" width="398" height="116" xlink:href="img/8.png" />
<image preserveAspectRatio="none" x="47" y="1073" width="304" height="68" xlink:href="img/9.png" />
<g fill="#000000" >
<use xlink:href="#f1_m" transform="matrix(12,0,0,12,835.7,1269.6)" />
<use xlink:href="#f1_q" transform="matrix(12,0,0,12,844.9,1269.6)" />
</g>
<defs>
<path d="M229,0V64h35c0,0,25,0,49,4c0,0,22,3,39,13c0,0,17,10,28,32c0,0,9,20,9,53v849H243c0,0,-33,0,-56,-10c0,0,-24,-11,-37,-28c0,0,-15,-17,-22,-39c0,0,-8,-24,-10,-49l-8,-65H34v267H902V824H827l-8,65c0,0,-4,25,-10,49c0,0,-9,22,-22,39c0,0,-15,17,-37,28c0,0,-24,10,-58,10H544V174c0,0,0,-37,10,-58c0,0,10,-21,27,-32c0,0,16,-13,40,-16c0,0,22,-4,48,-4h35V0Z" 
id="f0_t"
transform="scale(0.001,-0.001)" />

<path d="M348,79c0,0,46,0,85,15c0,0,36,14,64,42c0,0,25,27,40,66c0,0,14,39,14,87V412H454c0,0,-65,0,-109,-14c0,0,-44,-13,-70,-36c0,0,-27,-25,-39,-59c0,0,-12,-35,-11,-80c0,0,0,-73,30,-108c0,0,29,-36,93,-36ZM313,-14c0,0,-50,0,-94,14c0,0,-44,14,-75,45c0,0,-33,30,-50,77c0,0,-18,47,-18,109c0,0,0,123,87,182c0,0,85,59,261,60H551v93c0,0,0,42,-4,78c0,0,-5,34,-20,60c0,0,-15,26,-42,40c0,0,-28,14,-75,14c0,0,-44,0,-71,-12c0,0,-29,-13,-43,-35c0,0,-16,-23,-21,-53c0,0,-6,-31,-5,-66c0,0,-64,0,-96,21c0,0,-34,21,-34,75c0,0,0,39,22,67c0,0,21,28,60,45c0,0,36,17,87,26c0,0,49,7,107,8c0,0,69,0,122,-13c0,0,52,-15,87,-46c0,0,34,-31,53,-81c0,0,17,-52,17,-124V174c0,0,0,-33,5,-53c0,0,6,-22,17,-34c0,0,10,-12,30,-18c0,0,15,-5,38,-5c2,0,3,0,5,0h4V0H588L564,131H551c0,0,-24,-33,-46,-59c0,0,-22,-27,-49,-46C456,26,429,6,395,-3c0,0,-35,-11,-82,-11Z" 
id="f0_7"
transform="scale(0.001,-0.001)" />

<path d="M28,0V64H40c0,0,25,0,49,4c0,0,22,3,39,16c0,0,17,11,27,32c0,0,10,21,10,58V993c0,0,0,33,-10,54c0,0,-11,21,-27,32c0,0,-18,11,-40,15c0,0,-24,3,-48,3H28v64H306V571c0,0,0,-21,0,-53c0,0,0,-32,0,-64c0,0,0,-36,0,-75L495,588c0,0,24,27,40,48c0,0,16,21,25,37c0,0,10,16,14,28c0,0,3,12,3,23c0,0,0,19,-18,26c0,0,-19,5,-56,5v64H840V755c0,0,-54,-1,-104,-37c0,0,-52,-38,-111,-106L518,492L721,189c0,0,39,-61,79,-93c0,0,38,-32,89,-32q1,0,2,0h4V0H874c0,0,-67,0,-109,4c0,0,-44,3,-75,20c0,0,-32,14,-57,45c0,0,-27,29,-59,79L421,388L309,304V166c0,0,0,-33,10,-53c0,0,10,-22,27,-32c0,0,17,-10,40,-13c0,0,22,-4,48,-4h5V0Z" 
id="f0_16"
transform="scale(0.001,-0.001)" />

<path d="M35,0V64H55c0,0,25,0,49,4c0,0,22,3,39,13c0,0,17,10,28,32c0,0,10,20,10,53V650c0,0,0,33,-10,55c0,0,-11,20,-28,31c0,0,-17,11,-39,15c0,0,-24,3,-49,4H51v64H324V174c0,0,0,-37,10,-58c0,0,10,-21,27,-32c0,0,16,-13,40,-16c0,0,22,-4,48,-4h20V0ZM249,972c-1,0,-2,0,-3,0c0,0,-1,0,-2,0c-5,0,-20,0,-32,5c0,0,-16,5,-28,16c0,0,-12,11,-18,29c0,0,-7,18,-7,45c0,0,0,27,7,45c0,0,6,17,18,29c0,0,12,11,28,15c0,0,15,5,34,5c0,0,18,0,34,-5c0,0,15,-4,27,-15c0,0,11,-12,19,-29c0,0,7,-18,7,-45c0,0,0,-27,-7,-45c0,0,-8,-18,-19,-29c0,0,-12,-11,-27,-16c0,0,-14,-5,-31,-5Z" 
id="f0_5"
transform="scale(0.001,-0.001)" />

<path d="M43,0V64H55c0,0,26,0,49,4c0,0,23,3,40,16c0,0,16,11,27,32c0,0,10,21,10,58V650c0,0,0,33,-10,55c0,0,-11,20,-28,31c0,0,-17,11,-39,15c0,0,-24,3,-49,4H51v64H298L318,695h7c0,0,23,42,51,70c0,0,25,27,56,43c0,0,29,14,63,21c0,0,32,5,69,5c0,0,60,-1,108,-17c0,0,47,-18,81,-54c0,0,32,-37,50,-93c0,0,17,-58,18,-135V174c0,0,0,-37,9,-58c0,0,7,-21,23,-32c0,0,16,-13,38,-16c0,0,21,-4,47,-4h5V0H677V527c0,0,0,50,-9,89c0,0,-10,39,-29,66c0,0,-20,26,-52,41c0,0,-33,13,-78,13c0,0,-53,0,-88,-20c0,0,-36,-20,-57,-54c0,0,-22,-35,-31,-79c0,0,-10,-45,-9,-94V166c0,0,0,-33,10,-53c0,0,10,-22,27,-32c0,0,16,-10,40,-13c0,0,22,-4,48,-4h5V0Z" 
id="f0_f"
transform="scale(0.001,-0.001)" />

<path d="M351,-291c2,0,3,0,5,0c0,0,1,0,2,0c12,0,84,1,134,15c0,0,52,13,84,38c0,0,31,23,44,58c0,0,12,34,13,74c0,0,0,35,-10,59c0,0,-11,22,-30,35c0,0,-20,12,-49,17c0,0,-29,5,-67,5H327c0,0,-33,0,-62,-5c0,0,-31,-5,-54,-20c0,0,-24,-17,-38,-44c0,0,-15,-29,-14,-74c0,0,0,-34,9,-63c0,0,9,-29,31,-50c0,0,23,-22,61,-33c0,0,35,-12,91,-12Zm34,658c0,0,1,0,1,0c0,0,37,0,64,11c0,0,24,11,42,35c0,0,15,22,23,59c0,0,7,35,7,86c0,0,0,103,-31,152c0,0,-31,49,-106,49c0,0,-74,0,-105,-50c0,0,-33,-50,-32,-153c0,0,0,-98,32,-143c0,0,32,-46,105,-46ZM353,-366c-8,0,-162,1,-239,59c0,0,-80,59,-79,164c0,0,0,45,16,78c0,0,15,34,42,58c0,0,26,22,61,38c0,0,34,14,72,21c0,0,-16,7,-31,18c0,0,-14,11,-26,27c0,0,-13,16,-20,36c0,0,-8,20,-7,45c0,0,0,45,24,79c0,0,23,32,76,64c0,0,-33,13,-58,37c0,0,-27,23,-44,54c0,0,-18,30,-27,65c0,0,-10,36,-9,74c0,0,0,66,18,119c0,0,18,51,53,89c0,0,36,36,90,56c0,0,53,18,126,19c0,0,28,-1,54,-4c0,0,26,-4,50,-11c0,0,22,-8,41,-16c0,0,18,-9,29,-19c0,0,12,12,27,27c0,0,14,14,33,27c0,0,19,12,41,20c0,0,21,7,47,8c0,0,23,-1,40,-6c0,0,17,-7,28,-17c0,0,11,-11,17,-25c0,0,5,-15,5,-31c0,0,0,-17,-4,-31c0,0,-6,-15,-15,-25c0,0,-10,-12,-25,-17c0,0,-15,-7,-36,-7c0,0,0,9,-2,18c0,0,-3,9,-8,17c0,0,-6,7,-16,13c0,0,-10,4,-25,4c0,0,-19,0,-35,-4c0,0,-16,-5,-31,-14c0,0,26,-33,44,-76c0,0,16,-44,16,-109c0,0,-1,-57,-17,-105c0,0,-17,-48,-51,-82c0,0,-35,-36,-86,-56c0,0,-52,-19,-121,-19H348c0,0,-11,0,-21,1c0,0,-10,1,-15,3c0,0,-15,-9,-29,-17c0,0,-13,-9,-23,-20c0,0,-11,-11,-16,-25c0,0,-6,-15,-6,-32c0,0,-1,-19,7,-29c0,0,7,-12,20,-18c0,0,12,-7,30,-8c0,0,17,-2,38,-2H506c0,0,68,-1,116,-17c0,0,48,-17,78,-47c0,0,30,-32,44,-73c0,0,14,-41,14,-90c0,0,-1,-67,-24,-119c0,0,-25,-53,-75,-89c0,0,-50,-38,-126,-58c0,0,-77,-20,-180,-20Z" 
id="f0_i"
transform="scale(0.001,-0.001)" />

<path d="M433,-14c0,0,-77,0,-141,23c0,0,-64,23,-110,74c0,0,-46,50,-72,130c0,0,-26,79,-26,192c0,0,0,122,26,205c0,0,26,82,72,132c0,0,46,49,108,71c0,0,61,21,134,21c0,0,47,0,96,-9c0,0,47,-10,85,-29c0,0,38,-19,62,-49c0,0,23,-30,24,-69c0,0,0,-54,-35,-74c0,0,-35,-22,-102,-22c0,0,0,35,-6,68c0,0,-6,32,-20,56c0,0,-15,24,-39,38c0,0,-26,14,-65,14c0,0,-44,0,-79,-16c0,0,-35,-18,-61,-57c0,0,-26,-40,-39,-108c0,0,-13,-69,-13,-170c0,0,-1,-164,54,-243c0,0,54,-80,177,-80h1c6,0,72,1,123,30c0,0,52,30,79,77c0,0,11,-10,19,-24c0,0,7,-15,7,-36c0,0,0,-27,-16,-52c0,0,-17,-26,-49,-47C627,32,594,10,546,0c0,0,-48,-14,-113,-14Z" 
id="f0_a"
transform="scale(0.001,-0.001)" />

<path d="M417,-14c0,0,-60,0,-107,16c0,0,-47,17,-79,54c0,0,-33,36,-49,93c0,0,-17,57,-17,135V650c0,0,0,33,-10,55c0,0,-11,20,-27,31c0,0,-18,11,-40,15c0,0,-24,3,-48,4H35v64H309V292c0,0,0,-51,8,-89c0,0,7,-40,26,-66c0,0,18,-27,49,-40c0,0,29,-14,74,-14c1,0,2,0,3,0c0,0,50,0,88,18c0,0,35,18,59,50c0,0,23,32,34,78c0,0,12,46,12,101V645c0,0,0,35,-10,58c0,0,-10,21,-27,33c0,0,-17,11,-39,15c0,0,-24,3,-50,4h-4v64H805V166c0,0,0,-33,10,-53c0,0,10,-22,27,-32c0,0,17,-10,41,-13c0,0,21,-4,47,-4h5V0H692L672,124h-7c0,0,-24,-44,-51,-70c0,0,-28,-28,-60,-42c0,0,-31,-15,-65,-20c0,0,-35,-6,-72,-6Z" 
id="f0_e"
transform="scale(0.001,-0.001)" />

<path d="M518,83c0,0,50,0,86,21c0,0,35,21,58,63c0,0,23,41,33,104c0,0,10,61,11,142c0,0,-1,80,-11,142c0,0,-10,60,-33,101c0,0,-23,40,-58,60c0,0,-38,20,-88,20c0,0,-60,0,-99,-19c0,0,-41,-20,-64,-61c0,0,-24,-40,-34,-101c0,0,-10,-62,-10,-144c0,0,0,-80,10,-141c0,0,10,-62,35,-103c0,0,23,-42,64,-63c0,0,39,-21,100,-21Zm27,-97c-1,0,-2,0,-3,0h-2c-8,0,-46,1,-77,10c0,0,-37,8,-65,26c0,0,-29,18,-50,43c0,0,-23,24,-39,54H299L272,0H28V64H40c0,0,25,0,49,4c0,0,22,3,39,16c0,0,17,11,27,32c0,0,10,21,10,58V993c0,0,0,33,-10,54c0,0,-11,21,-27,32c0,0,-18,11,-40,15c0,0,-24,3,-48,3H28v64H306V880c0,0,0,-26,0,-59c0,0,0,-35,0,-66c0,0,0,-36,0,-74h3c0,0,16,34,39,63c0,0,21,28,50,49c0,0,27,19,64,31c0,0,36,9,80,10c0,0,75,0,134,-25c0,0,58,-26,98,-76c0,0,38,-53,60,-132c0,0,20,-80,20,-190c0,0,0,-111,-20,-191c0,0,-22,-80,-60,-133c0,0,-40,-53,-98,-77c0,0,-57,-24,-131,-24Z" 
id="f0_j"
transform="scale(0.001,-0.001)" />

<path d="M586,481c0,0,0,60,-9,111c0,0,-9,50,-29,85c0,0,-19,36,-51,56c0,0,-33,18,-79,19c0,0,-87,-1,-133,-69c0,0,-46,-69,-46,-202ZM439,-14c0,0,-83,0,-149,27c0,0,-66,28,-112,82c0,0,-46,53,-69,132c0,0,-25,77,-25,177c0,0,0,213,88,322c0,0,88,108,251,108c0,0,73,0,133,-23c0,0,58,-24,100,-69c0,0,41,-46,63,-114c0,0,21,-69,22,-159V399H233c0,0,0,-84,15,-143c0,0,15,-61,44,-99c0,0,28,-40,71,-57c0,0,40,-19,93,-19c1,0,2,0,4,0c0,0,38,0,73,9c0,0,33,9,62,24c0,0,26,14,48,34c0,0,21,18,35,40c0,0,10,-4,20,-19c0,0,9,-15,9,-33c0,0,0,-24,-16,-49c0,0,-17,-27,-50,-50C641,37,607,14,557,0c0,0,-50,-14,-118,-14Z" 
id="f0_9"
transform="scale(0.001,-0.001)" />

<path d="M51,0V64h4c0,0,26,0,49,4c0,0,23,3,40,16c0,0,16,11,27,32c0,0,10,21,10,58V650c0,0,0,33,-10,55c0,0,-11,20,-28,31c0,0,-17,11,-39,15c0,0,-24,3,-49,4H51v64H286L315,668h7c0,0,14,34,31,65c0,0,15,29,39,53c0,0,22,22,56,35c0,0,33,12,84,13c0,0,83,0,124,-29c0,0,41,-30,41,-82c0,0,0,-24,-8,-44c0,0,-9,-20,-25,-34c0,0,-17,-15,-44,-23c0,0,-27,-8,-66,-8c0,0,0,63,-18,92c0,0,-18,27,-62,27c0,0,-29,0,-51,-15c0,0,-22,-18,-39,-43c0,0,-17,-27,-28,-61c0,0,-13,-35,-19,-70c0,0,-8,-37,-10,-73c0,0,-4,-35,-3,-64V166c0,0,0,-33,10,-53c0,0,10,-22,27,-32c0,0,16,-10,40,-13c0,0,22,-4,48,-4h43V0Z" 
id="f0_c"
transform="scale(0.001,-0.001)" />

<path d="M442,64c0,0,56,0,97,23c0,0,38,22,64,66c0,0,24,43,36,108c0,0,9,65,10,150c0,0,0,85,-11,149c0,0,-11,64,-36,108c0,0,-25,42,-64,64c0,0,-41,21,-98,21c0,0,-58,0,-97,-21c0,0,-39,-22,-64,-64c0,0,-25,-44,-36,-108c0,0,-11,-64,-11,-149c0,0,0,-85,11,-150c0,0,11,-65,37,-108c0,0,24,-44,65,-66c0,0,38,-23,97,-23Zm-3,-78c0,0,-83,0,-149,25c0,0,-66,26,-111,79c0,0,-47,52,-70,134c0,0,-25,79,-25,187c0,0,0,213,91,319c0,0,90,103,268,104c0,0,82,0,149,-25c0,0,65,-26,111,-79c0,0,46,-53,71,-132c0,0,23,-80,23,-187c0,0,0,-216,-91,-321C706,90,614,-14,439,-14Z" 
id="f0_b"
transform="scale(0.001,-0.001)" />

<path d="M367,-14c0,0,-59,0,-100,13c0,0,-42,10,-69,38c0,0,-27,27,-39,73c0,0,-14,45,-14,112V732H29v61c0,0,28,0,61,11c0,0,32,11,58,37c0,0,26,28,43,68c0,0,15,38,28,98h70V819H489V732H289V217c0,0,-1,-78,32,-115c0,0,30,-36,83,-36c0,0,1,0,1,0c0,0,2,0,6,0c9,0,28,0,45,3c0,0,23,3,47,7V9C503,9,492,4,477,0c0,0,-15,-3,-33,-6c0,0,-20,-5,-39,-6c0,0,-20,-2,-38,-2Z" 
id="f0_4"
transform="scale(0.001,-0.001)" />

<path d="M28,0V64H40c0,0,25,0,49,4c0,0,22,3,39,16c0,0,17,11,27,32c0,0,10,21,10,58V993c0,0,0,33,-10,54c0,0,-11,21,-27,32c0,0,-18,11,-40,15c0,0,-24,3,-48,3H28v64H308V825c0,0,0,-22,0,-43c0,0,-1,-24,-4,-43c0,0,0,-23,0,-44h6c0,0,68,139,225,139c0,0,65,-1,115,-17c0,0,50,-18,85,-54c0,0,34,-37,52,-93c0,0,18,-58,18,-135V174c0,0,0,-37,9,-58c0,0,9,-21,24,-32c0,0,16,-13,38,-16c0,0,21,-4,47,-4h4V0H662V527c0,0,0,50,-9,89c0,0,-10,39,-29,66c0,0,-20,26,-52,41c0,0,-33,13,-78,13c0,0,-49,0,-82,-17c0,0,-35,-18,-58,-50c0,0,-24,-33,-34,-78c0,0,-11,-46,-11,-102V166c0,0,0,-33,10,-53c0,0,10,-22,27,-32c0,0,17,-10,40,-13c0,0,22,-4,48,-4h5V0Z" 
id="f0_h"
transform="scale(0.001,-0.001)" />

<path d="M321,-14c0,0,-58,0,-104,11c0,0,-48,7,-80,29c0,0,-33,20,-50,51c0,0,-18,30,-18,70c0,0,0,30,10,51c0,0,10,20,25,33c0,0,14,11,31,17c0,0,16,4,30,4c0,0,0,-41,8,-75c0,0,8,-36,28,-61c0,0,18,-28,51,-42c0,0,31,-16,78,-16c0,0,41,0,72,11c0,0,31,9,53,28c0,0,21,18,32,44c0,0,11,25,11,56c0,0,0,28,-8,49c0,0,-9,20,-30,38c0,0,-21,17,-58,37c0,0,-37,18,-92,42c0,0,-59,26,-102,51c0,0,-45,23,-72,52c0,0,-29,28,-43,65c0,0,-15,35,-14,86c0,0,-1,52,21,92c0,0,20,40,58,68c0,0,38,26,91,41c0,0,52,15,118,15c0,0,54,0,96,-12c0,0,41,-11,70,-30c0,0,28,-19,43,-44c0,0,14,-27,14,-55c0,0,-1,-42,-28,-66c0,0,-29,-25,-80,-25c-1,0,-2,0,-2,0c0,0,0,76,-32,119c0,0,-32,42,-100,42c0,0,-39,0,-66,-9c0,0,-28,-9,-45,-25c0,0,-18,-17,-26,-39c0,0,-8,-22,-8,-49c0,0,0,-29,10,-50c0,0,10,-22,34,-39c0,0,22,-18,59,-35c0,0,36,-17,86,-38c0,0,60,-26,104,-50c0,0,43,-24,72,-54c0,0,27,-29,41,-65c0,0,13,-37,13,-84c0,0,-1,-60,-21,-105c0,0,-23,-45,-62,-74C539,46,499,14,445,0c0,0,-56,-14,-124,-14Z" 
id="f0_6"
transform="scale(0.001,-0.001)" />

<path d="M421,83c0,0,59,0,100,20c0,0,39,19,65,60c0,0,23,39,34,101c0,0,10,61,10,144c0,0,0,79,-10,141c0,0,-11,61,-34,103c0,0,-25,41,-65,63c0,0,-41,21,-101,21c0,0,-51,0,-86,-21c0,0,-36,-23,-58,-64c0,0,-24,-42,-34,-103c0,0,-10,-62,-10,-141c0,0,0,-163,44,-244c0,0,43,-80,145,-80ZM395,-14c-8,0,-78,1,-133,24c0,0,-59,24,-98,77c0,0,-39,52,-60,132c0,0,-20,79,-20,189c0,0,0,110,20,191c0,0,21,80,60,133c0,0,39,51,98,77c0,0,58,25,133,25c0,0,44,0,80,-10c0,0,36,-10,65,-27c0,0,28,-18,51,-43c0,0,21,-24,39,-54h4c0,0,0,36,0,70c0,0,0,27,0,57c0,0,0,27,0,41V993c0,0,-1,33,-10,54c0,0,-11,21,-29,32c0,0,-18,11,-41,15c0,0,-24,3,-49,3H492v64H773V168c0,0,0,-34,10,-54c0,0,10,-21,27,-32c0,0,17,-11,40,-14c0,0,22,-4,48,-4h13V0H652L636,137h-6c0,0,-18,-35,-39,-62c0,0,-23,-29,-51,-48C540,27,512,6,476,-3c0,0,-36,-11,-81,-11Z" 
id="f0_l"
transform="scale(0.001,-0.001)" />

<path d="M58,0V64H78c0,0,25,0,49,4c0,0,22,3,39,16c0,0,17,11,27,32c0,0,10,21,10,58V917c0,0,0,36,-10,57c0,0,-10,21,-27,34c0,0,-17,11,-39,15c0,0,-24,3,-49,3H58v65H503v-65H483c0,0,-26,0,-49,-3c0,0,-24,-4,-39,-15c0,0,-18,-13,-27,-34c0,0,-11,-21,-11,-57V174c0,0,0,-37,11,-58c0,0,9,-21,27,-32c0,0,15,-13,39,-16c0,0,23,-4,49,-4h20V0Z" 
id="f0_3"
transform="scale(0.001,-0.001)" />

<path d="M20,0V64H40c0,0,25,0,49,4c0,0,22,3,39,16c0,0,17,11,27,32c0,0,10,21,10,58V993c0,0,0,33,-10,54c0,0,-11,21,-27,32c0,0,-18,11,-40,15c0,0,-24,3,-48,3H20v64H309V174c0,0,-1,-37,10,-58c0,0,9,-21,26,-32c0,0,17,-13,41,-16c0,0,22,-4,48,-4h20V0Z" 
id="f0_p"
transform="scale(0.001,-0.001)" />

<path d="M382,-14c-2,0,-3,0,-5,0c0,0,-75,0,-131,15c0,0,-57,15,-95,44c0,0,-40,27,-58,68c0,0,-20,38,-20,87c0,0,0,45,29,75c0,0,29,27,82,28c0,0,0,-49,13,-92c0,0,12,-44,36,-77c0,0,24,-34,64,-54c0,0,38,-20,92,-20c6,0,104,0,161,50c0,0,58,49,58,142c0,0,0,41,-12,74c0,0,-13,31,-39,60c0,0,-29,26,-73,52c0,0,-46,24,-113,52c0,0,-71,29,-123,63c0,0,-54,32,-88,74c0,0,-36,39,-53,90c0,0,-17,50,-17,113c0,0,0,65,26,117c0,0,24,51,69,87c0,0,44,34,106,54c0,0,60,18,133,18c0,0,68,0,122,-14c0,0,52,-15,90,-38c0,0,36,-25,56,-54c0,0,18,-32,18,-65c0,0,0,-50,-32,-74c0,0,-33,-26,-86,-26c0,0,-1,1,-2,1c0,0,-1,35,-8,70c0,0,-9,34,-29,62c0,0,-21,27,-53,44c0,0,-34,17,-81,17c0,0,-45,0,-79,-11c0,0,-36,-13,-59,-36c0,0,-24,-23,-36,-55c0,0,-13,-33,-13,-71c0,0,-1,-47,12,-80c0,0,12,-35,40,-63c0,0,27,-28,73,-53c0,0,46,-26,112,-52c0,0,67,-28,120,-58c0,0,52,-32,89,-68c0,0,37,-39,56,-84c0,0,19,-47,19,-106c0,0,0,-73,-26,-129c0,0,-27,-59,-76,-97C651,66,602,26,533,6c0,0,-67,-20,-151,-20Z" 
id="f0_1b"
transform="scale(0.001,-0.001)" />

<path d="M41,0V64H61c0,0,26,0,49,4c0,0,23,3,40,16c0,0,16,11,27,32c0,0,9,21,9,58V747H47v72H186v76c0,0,0,68,19,121c0,0,19,52,54,88c0,0,34,35,85,55c0,0,50,17,113,17c0,0,58,0,100,-7c0,0,41,-8,67,-22c0,0,24,-15,35,-34c0,0,12,-20,12,-43c0,0,0,-22,-9,-37c0,0,-11,-17,-26,-27c0,0,-18,-11,-40,-16c0,0,-24,-6,-51,-6c0,0,0,23,-4,45c0,0,-6,21,-17,39c0,0,-12,17,-31,28c0,0,-19,10,-48,10c0,0,-34,0,-55,-12c0,0,-22,-13,-36,-38c0,0,-13,-26,-18,-62c0,0,-6,-37,-6,-85V819H545V747H330V174c0,0,0,-37,10,-58c0,0,10,-21,27,-32c0,0,16,-13,40,-16c0,0,22,-4,48,-4h58V0Z" 
id="f0_q"
transform="scale(0.001,-0.001)" />

<path d="M683,442L588,709c0,0,-25,68,-43,127c0,0,-21,59,-33,114c0,0,-6,-28,-12,-53c0,0,-8,-26,-16,-53c0,0,-9,-26,-19,-55c0,0,-10,-31,-23,-66L338,442ZM0,0V64H29c0,0,1,0,3,0c6,0,23,1,35,5c0,0,16,5,28,18c0,0,12,13,25,37c0,0,11,22,25,60l339,907H604L949,145c0,0,8,-23,19,-39c0,0,8,-16,21,-25c0,0,12,-10,29,-13c0,0,17,-4,39,-4h20V0H657V64h35c0,0,92,0,92,73c0,0,0,12,-3,26c0,0,-4,14,-10,31L710,365H309L251,204c0,0,-8,-18,-11,-35c0,0,-4,-18,-4,-30c0,0,0,-40,26,-57c0,0,24,-18,76,-18h35V0Z" 
id="f0_z"
transform="scale(0.001,-0.001)" />

<path d="M99,350v90H755V350Zm0,300v91H755V650Z" 
id="f0_17"
transform="scale(0.001,-0.001)" />

<path d="M501,385V668c0,0,0,33,0,74c0,0,0,40,0,82c0,0,0,41,0,83c0,0,0,41,6,77c0,0,-6,-11,-15,-28c0,0,-10,-18,-21,-39c0,0,-13,-23,-26,-46c0,0,-15,-24,-28,-46c0,0,-15,-24,-26,-42c0,0,-13,-21,-21,-34L136,385ZM328,0V64h43c0,0,26,0,50,4c0,0,22,3,39,16c0,0,17,11,27,32c0,0,10,21,10,58V299H26v63l472,729H643V385H833V299H643V174c0,0,0,-37,10,-58c0,0,10,-21,27,-32c0,0,16,-13,40,-16c0,0,22,-4,48,-4h21V0Z" 
id="f0_13"
transform="scale(0.001,-0.001)" />

<path d="M759,-11c0,0,-32,0,-59,11c0,0,-27,8,-46,31c0,0,-19,20,-29,56c0,0,-10,34,-10,82c0,0,0,28,0,66c0,0,0,37,0,80c0,0,0,41,0,86c0,0,-1,44,5,86c0,0,10,99,23,205H339V260c0,0,0,-68,-12,-115c0,0,-12,-50,-36,-82c0,0,-25,-32,-63,-47C228,16,188,0,133,0H66V64c0,0,29,0,55,11c0,0,24,10,45,38c0,0,18,25,33,71c0,0,13,44,21,112l44,396H206c0,0,-45,0,-66,-27c0,0,-21,-28,-27,-69H49c0,0,0,46,9,86c0,0,9,40,29,71c0,0,20,30,53,48c0,0,32,18,79,18H900V692H726c0,0,0,-100,0,-191c0,0,0,-41,0,-82c0,0,0,-42,0,-81c0,0,0,-40,0,-76c0,0,0,-36,0,-64c0,0,-1,-39,7,-61c0,0,8,-24,20,-36c0,0,13,-13,29,-16c0,0,15,-4,30,-4c0,0,17,0,32,4c0,0,13,3,28,8V23C872,23,854,8,824,0c0,0,-31,-11,-65,-11Z" 
id="f0_1p"
transform="scale(0.001,-0.001)" />

<path d="M465,553c0,0,67,0,112,15c0,0,44,14,71,44c0,0,26,30,39,75c0,0,11,45,11,104c0,0,-1,61,-12,105c0,0,-14,42,-41,70c0,0,-29,27,-74,40c0,0,-46,12,-110,12H357V553ZM982,0C963,0,909,0,873,5c0,0,-46,5,-79,20c0,0,-32,15,-54,42c0,0,-24,26,-49,70L484,481H357V166c0,0,0,-33,11,-53c0,0,9,-22,27,-32c0,0,16,-10,40,-13c0,0,22,-4,48,-4h20V0H58V64H78c0,0,24,0,48,4c0,0,22,3,40,13c0,0,16,10,27,32c0,0,10,20,10,53V923c0,0,0,33,-10,54c0,0,-11,20,-27,32c0,0,-18,11,-40,14c0,0,-24,3,-48,3H58v65H469c0,0,198,-1,296,-73c0,0,97,-74,97,-222c0,0,-1,-62,-20,-107c0,0,-20,-46,-52,-80c0,0,-33,-33,-72,-55c0,0,-41,-23,-81,-36L847,186c0,0,38,-61,75,-91c0,0,37,-31,85,-31h5V0H990c0,0,-3,0,-8,0Z" 
id="f0_1i"
transform="scale(0.001,-0.001)" />

<path d="M78,0V112L333,407c0,0,61,70,103,126c0,0,40,56,66,106c0,0,25,49,37,97c0,0,11,47,11,100c0,0,0,43,-9,79c0,0,-11,35,-29,61c0,0,-19,25,-48,40c0,0,-31,13,-70,13c0,0,-53,0,-84,-18c0,0,-33,-20,-52,-50c0,0,-19,-31,-25,-73c0,0,-7,-41,-7,-86c0,0,-28,0,-51,4c0,0,-24,4,-42,17c0,0,-18,11,-28,30c0,0,-10,19,-10,48c0,0,0,43,19,82c0,0,19,37,57,65c0,0,36,28,93,43c0,0,56,15,130,15c0,0,72,0,130,-18c0,0,56,-19,97,-51c0,0,41,-34,62,-81c0,0,21,-47,21,-105c0,0,-1,-54,-17,-104c0,0,-18,-52,-50,-104c0,0,-33,-54,-80,-111c0,0,-48,-58,-108,-124L191,122H545c7,0,36,1,56,10c0,0,21,10,36,25c0,0,14,15,22,37c0,0,7,20,13,42l6,28h61V0Z" 
id="f0_1a"
transform="scale(0.001,-0.001)" />

<path d="M58,0V64H78c0,0,24,0,48,4c0,0,22,3,40,13c0,0,16,10,27,32c0,0,10,20,10,53V923c0,0,0,33,-10,54c0,0,-11,20,-27,32c0,0,-18,11,-40,14c0,0,-24,3,-48,3H58v65H832V824H756l-7,65c0,0,-4,26,-12,49c0,0,-9,23,-25,40c0,0,-17,16,-43,27c0,0,-26,10,-61,10H357V573H726V498H357V174c0,0,0,-37,11,-58c0,0,9,-21,27,-32c0,0,15,-13,39,-16c0,0,23,-4,49,-4h50V0Z" 
id="f0_15"
transform="scale(0.001,-0.001)" />

<path d="M-6,365v90H771V365Z" 
id="f0_1x"
transform="scale(0.001,-0.001)" />

<path d="M421,0L142,946c0,0,-8,23,-17,39c0,0,-10,16,-22,25c0,0,-13,9,-30,13c0,0,-17,3,-39,3H13v65H434v-65H399c0,0,-46,0,-69,-17c0,0,-23,-18,-23,-56c0,0,0,-12,4,-26c0,0,3,-14,8,-30L460,408c0,0,18,-70,36,-136c0,0,16,-68,30,-122c0,0,11,59,27,130c0,0,14,71,35,144l182,656H880L1071,419c0,0,21,-77,39,-146c0,0,16,-71,27,-123c0,0,11,54,26,116c0,0,13,61,35,135l134,471c0,0,2,9,6,20c0,0,3,11,5,23c0,0,2,10,4,20c0,0,1,10,2,17c0,0,0,39,-25,57c0,0,-26,17,-76,17h-35v65h373v-65h-29c0,0,-23,0,-39,-4c0,0,-17,-5,-31,-17c0,0,-13,-13,-24,-36c0,0,-11,-24,-23,-61L1182,0H1045L796,856L562,0Z" 
id="f0_1q"
transform="scale(0.001,-0.001)" />

<path d="M490,78c0,0,90,0,160,31c0,0,67,30,113,90c0,0,45,59,69,147c0,0,22,87,22,201c0,0,0,227,-90,347c0,0,-91,120,-272,121H357V78ZM529,0c-1,0,-2,0,-3,0H58V64H78c0,0,25,0,49,4c0,0,22,3,39,16c0,0,17,11,27,32c0,0,10,21,10,58V923c0,0,0,33,-10,54c0,0,-11,20,-27,32c0,0,-18,11,-40,14c0,0,-24,3,-48,3H58v65H526c0,0,117,0,210,-36c0,0,93,-37,157,-106c0,0,63,-69,97,-171c0,0,33,-102,33,-231c0,0,0,-126,-31,-226c0,0,-32,-102,-93,-173C899,148,836,77,744,39C744,39,651,0,529,0Z" 
id="f0_n"
transform="scale(0.001,-0.001)" />

<path d="M172,229l-64,66L362,548L108,800l64,65L426,611L680,866l64,-66L490,547L744,293L680,229L426,483L172,229Z" 
id="f0_1u"
transform="scale(0.001,-0.001)" />

<path d="M33,0V27c0,0,264,241,371,393c0,0,108,152,108,278c0,0,0,96,-59,158c0,0,-59,62,-141,62c0,0,-75,0,-134,-43c0,0,-59,-44,-88,-128H63c0,0,18,138,95,212c0,0,77,74,193,74c0,0,123,0,205,-80c0,0,83,-79,83,-186c0,0,0,-77,-36,-154c0,0,-55,-121,-179,-256C424,357,238,154,191,112H455c0,0,81,0,114,6c0,0,32,6,58,25c0,0,27,18,46,52h27L630,0Z" 
id="f1_m"
transform="scale(0.001,-0.001)" />

<path d="M405,24c0,0,65,0,116,62c0,0,51,61,51,174c0,0,0,128,-50,221c0,0,-51,93,-144,93c0,0,-29,0,-61,-12c0,0,-33,-12,-96,-51c0,0,-14,-101,-14,-163c0,0,0,-72,27,-155c0,0,26,-84,79,-134c0,0,38,-35,92,-35ZM384,-17c0,0,-104,0,-177,68C207,51,66,185,66,397c0,0,0,136,54,258c0,0,54,122,156,217c0,0,101,95,193,128c0,0,93,33,172,33h44v-28c0,0,-99,-10,-161,-39c0,0,-62,-29,-123,-90c0,0,-61,-60,-101,-135c0,0,-39,-74,-66,-176c0,0,107,73,215,73c0,0,104,0,180,-83c0,0,76,-84,76,-215c0,0,0,-126,-77,-231c0,0,-92,-126,-244,-126Z" 
id="f1_q"
transform="scale(0.001,-0.001)" />


</defs>
</svg>