<?xml version="1.0" encoding="UTF-8" standalone="no"?>
<!DOCTYPE svg PUBLIC "-//W3C//DTD SVG 1.1//EN"
"http://www.w3.org/Graphics/SVG/1.1/DTD/svg11.dtd">
<svg viewBox="0 0 909 1286" version="1.1" xmlns="http://www.w3.org/2000/svg" xmlns:xlink="http://www.w3.org/1999/xlink">
<defs>
<clipPath id="c0_307"><path d="M35.1,1194.7V113.1H873.9V1194.7Z" /></clipPath>
</defs>
<g clip-path="url(#c0_307)">
<g fill="#000000" >
<use xlink:href="#f0_e" transform="matrix(12,0,0,12,47.4,136)" />
<use xlink:href="#f0_6" transform="matrix(12,0,0,12,54.8,136)" />
<use xlink:href="#f0_5" transform="matrix(12,0,0,12,64.4,136)" />
<use xlink:href="#f0_5" transform="matrix(12,0,0,12,74.8,136)" />
<use xlink:href="#f0_8" transform="matrix(12,0,0,12,85.3,136)" />
<use xlink:href="#f0_g" transform="matrix(12,0,0,12,91.7,136)" />
<use xlink:href="#f0_e" transform="matrix(12,0,0,12,107.1,136)" />
<use xlink:href="#f0_3" transform="matrix(12,0,0,12,114.5,136)" />
<use xlink:href="#f0_8" transform="matrix(12,0,0,12,125.5,136)" />
<use xlink:href="#f0_8" transform="matrix(12,0,0,12,132,136)" />
<use xlink:href="#f0_7" transform="matrix(12,0,0,12,138.4,136)" />
<use xlink:href="#f0_d" transform="matrix(12,0,0,12,144.9,136)" />
<use xlink:href="#f0_l" transform="matrix(12,0,0,12,157.1,136)" />
<use xlink:href="#f0_m" transform="matrix(12,0,0,12,172.1,136)" />
<use xlink:href="#f0_d" transform="matrix(12,0,0,12,184.3,136)" />
<use xlink:href="#f0_a" transform="matrix(12,0,0,12,196.5,136)" />
<use xlink:href="#f0_5" transform="matrix(12,0,0,12,208.4,136)" />
<use xlink:href="#f0_6" transform="matrix(12,0,0,12,218.9,136)" />
<use xlink:href="#f0_l" transform="matrix(12,0,0,12,233.2,136)" />
<use xlink:href="#f0_6" transform="matrix(12,0,0,12,243.5,136)" />
<use xlink:href="#f0_3" transform="matrix(12,0,0,12,253,136)" />
<use xlink:href="#f0_17" transform="matrix(12,0,0,12,264,136)" />
<use xlink:href="#f0_7" transform="matrix(12,0,0,12,275.1,136)" />
<use xlink:href="#f0_4" transform="matrix(12,0,0,12,281.6,136)" />
<use xlink:href="#f0_g" transform="matrix(12,0,0,12,289,136)" />
<use xlink:href="#f0_14" transform="matrix(12,0,0,12,299.6,136)" />
<use xlink:href="#f0_1a" transform="matrix(12,0,0,12,47.4,204.7)" />
<use xlink:href="#f0_d" transform="matrix(12,0,0,12,61.2,204.7)" />
<use xlink:href="#f0_r" transform="matrix(12,0,0,12,73.4,204.7)" />
<use xlink:href="#f0_n" transform="matrix(12,0,0,12,82.3,204.7)" />
<use xlink:href="#f0_11" transform="matrix(12,0,0,12,87.9,204.7)" />
<use xlink:href="#f0_3" transform="matrix(12,0,0,12,95.2,204.7)" />
<use xlink:href="#f0_12" transform="matrix(12,0,0,12,106.2,204.7)" />
<use xlink:href="#f1_v" transform="matrix(12,0,0,12,118.3,204.7)" />
<use xlink:href="#f1_n" transform="matrix(12,0,0,12,129.5,204.7)" />
<use xlink:href="#f1_7" transform="matrix(12,0,0,12,141.1,204.7)" />
<use xlink:href="#f1_j" transform="matrix(12,0,0,12,155.7,204.7)" />
<use xlink:href="#f1_d" transform="matrix(12,0,0,12,162.1,204.7)" />
<use xlink:href="#f1_o" transform="matrix(12,0,0,12,168,204.7)" />
<use xlink:href="#f1_7" transform="matrix(12,0,0,12,185.3,204.7)" />
<use xlink:href="#f1_c" transform="matrix(12,0,0,12,199.8,204.7)" />
<use xlink:href="#f1_7" transform="matrix(12,0,0,12,211.1,204.7)" />
<use xlink:href="#f1_6" transform="matrix(12,0,0,12,220.9,204.7)" />
<use xlink:href="#f1_d" transform="matrix(12,0,0,12,229.5,204.7)" />
<use xlink:href="#f1_e" transform="matrix(12,0,0,12,235.3,204.7)" />
<use xlink:href="#f1_5" transform="matrix(12,0,0,12,245.9,204.7)" />
<use xlink:href="#f1_e" transform="matrix(12,0,0,12,261.9,204.7)" />
<use xlink:href="#f1_s" transform="matrix(12,0,0,12,272.5,204.7)" />
<use xlink:href="#f1_3" transform="matrix(12,0,0,12,284,204.7)" />
<use xlink:href="#f1_b" transform="matrix(12,0,0,12,299.1,204.7)" />
<use xlink:href="#f1_d" transform="matrix(12,0,0,12,307.3,204.7)" />
<use xlink:href="#f1_o" transform="matrix(12,0,0,12,313.2,204.7)" />
<use xlink:href="#f1_c" transform="matrix(12,0,0,12,330.5,204.7)" />
<use xlink:href="#f1_q" transform="matrix(12,0,0,12,341.7,204.7)" />
<use xlink:href="#f1_7" transform="matrix(12,0,0,12,347.4,204.7)" />
<use xlink:href="#f1_c" transform="matrix(12,0,0,12,362,204.7)" />
<use xlink:href="#f1_7" transform="matrix(12,0,0,12,373.2,204.7)" />
<use xlink:href="#f1_4" transform="matrix(12,0,0,12,383,204.7)" />
<use xlink:href="#f1_5" transform="matrix(12,0,0,12,394.8,204.7)" />
<use xlink:href="#f1_i" transform="matrix(12,0,0,12,406.1,204.7)" />
<use xlink:href="#f1_q" transform="matrix(12,0,0,12,417.7,204.7)" />
<use xlink:href="#f1_i" transform="matrix(12,0,0,12,423.4,204.7)" />
<use xlink:href="#f1_o" transform="matrix(12,0,0,12,435,204.7)" />
<use xlink:href="#f1_g" transform="matrix(12,0,0,12,452.3,204.7)" />
</g>
</g>
<image preserveAspectRatio="none" x="461" y="163" width="117" height="72" xlink:href="img/1.png" />
<g clip-path="url(#c0_307)">
<g fill="#000000" >
<use xlink:href="#f1_1u" transform="matrix(12,0,0,12,47.4,276.5)" />
<use xlink:href="#f1_e" transform="matrix(12,0,0,12,58.2,276.5)" />
<use xlink:href="#f1_6" transform="matrix(12,0,0,12,68.8,276.5)" />
<use xlink:href="#f1_3" transform="matrix(12,0,0,12,82.1,276.5)" />
<use xlink:href="#f1_b" transform="matrix(12,0,0,12,97.2,276.5)" />
<use xlink:href="#f1_d" transform="matrix(12,0,0,12,105.4,276.5)" />
<use xlink:href="#f1_o" transform="matrix(12,0,0,12,111.3,276.5)" />
<use xlink:href="#f1_c" transform="matrix(12,0,0,12,128.6,276.5)" />
<use xlink:href="#f1_q" transform="matrix(12,0,0,12,139.8,276.5)" />
<use xlink:href="#f1_7" transform="matrix(12,0,0,12,145.5,276.5)" />
<use xlink:href="#f1_c" transform="matrix(12,0,0,12,160.1,276.5)" />
<use xlink:href="#f1_7" transform="matrix(12,0,0,12,171.3,276.5)" />
<use xlink:href="#f1_4" transform="matrix(12,0,0,12,181.1,276.5)" />
<use xlink:href="#f1_5" transform="matrix(12,0,0,12,193,276.5)" />
<use xlink:href="#f1_i" transform="matrix(12,0,0,12,204.2,276.5)" />
<use xlink:href="#f1_q" transform="matrix(12,0,0,12,215.8,276.5)" />
<use xlink:href="#f1_i" transform="matrix(12,0,0,12,221.5,276.5)" />
<use xlink:href="#f1_o" transform="matrix(12,0,0,12,233.1,276.5)" />
<use xlink:href="#f1_g" transform="matrix(12,0,0,12,250.4,276.5)" />
<use xlink:href="#f2_g" transform="matrix(12,0,0,12,259.8,276.5)" />
<use xlink:href="#f1_d" transform="matrix(12,0,0,12,274.9,276.5)" />
<use xlink:href="#f1_b" transform="matrix(12,0,0,12,280.8,276.5)" />
<use xlink:href="#f1_7" transform="matrix(12,0,0,12,293.8,276.5)" />
<use xlink:href="#f1_m" transform="matrix(12,0,0,12,303.6,276.5)" />
<use xlink:href="#f1_c" transform="matrix(12,0,0,12,314.2,276.5)" />
<use xlink:href="#f1_6" transform="matrix(12,0,0,12,325.4,276.5)" />
<use xlink:href="#f1_7" transform="matrix(12,0,0,12,334.1,276.5)" />
<use xlink:href="#f1_b" transform="matrix(12,0,0,12,343.9,276.5)" />
<use xlink:href="#f1_b" transform="matrix(12,0,0,12,352.1,276.5)" />
<use xlink:href="#f1_7" transform="matrix(12,0,0,12,360.4,276.5)" />
<use xlink:href="#f1_5" transform="matrix(12,0,0,12,370.2,276.5)" />
<use xlink:href="#f1_d" transform="matrix(12,0,0,12,386.2,276.5)" />
<use xlink:href="#f1_4" transform="matrix(12,0,0,12,392,276.5)" />
<use xlink:href="#f1_j" transform="matrix(12,0,0,12,408.6,276.5)" />
<use xlink:href="#f1_7" transform="matrix(12,0,0,12,415.1,276.5)" />
<use xlink:href="#f1_6" transform="matrix(12,0,0,12,424.9,276.5)" />
<use xlink:href="#f1_o" transform="matrix(12,0,0,12,433.5,276.5)" />
<use xlink:href="#f1_b" transform="matrix(12,0,0,12,450.8,276.5)" />
<use xlink:href="#f1_e" transform="matrix(12,0,0,12,463.8,276.5)" />
<use xlink:href="#f1_s" transform="matrix(12,0,0,12,474.4,276.5)" />
<use xlink:href="#f1_o" transform="matrix(12,0,0,12,485.9,276.5)" />
<use xlink:href="#f1_3" transform="matrix(12,0,0,12,503.2,276.5)" />
<use xlink:href="#f1_b" transform="matrix(12,0,0,12,513.5,276.5)" />
<use xlink:href="#f1_b" transform="matrix(12,0,0,12,521.8,276.5)" />
<use xlink:href="#f2_7" transform="matrix(12,0,0,12,534.8,276.5)" />
<use xlink:href="#f1_g" transform="matrix(12,0,0,12,551.2,276.5)" />
<use xlink:href="#f1_3" transform="matrix(12,0,0,12,560.5,276.5)" />
<use xlink:href="#f1_b" transform="matrix(12,0,0,12,570.8,276.5)" />
<use xlink:href="#f1_12" transform="matrix(12,0,0,12,579.1,276.5)" />
<use xlink:href="#f2_g" transform="matrix(12,0,0,12,47.4,326.9)" />
</g>
</g>
<image preserveAspectRatio="none" x="63" y="312" width="24" height="21" xlink:href="img/2.png" />
<g clip-path="url(#c0_307)">
<g fill="#000000" >
<use xlink:href="#f2_7" transform="matrix(12,0,0,12,87,326.9)" />
</g>
</g>
<image preserveAspectRatio="none" x="47" y="354" width="28" height="65" xlink:href="img/3.png" />
<g clip-path="url(#c0_307)">
<g fill="#000000" >
<use xlink:href="#f1_14" transform="matrix(12,0,0,12,74.9,391.1)" />
<use xlink:href="#f1_1v" transform="matrix(12,0,0,12,89.9,391.1)" />
<use xlink:href="#f1_e" transform="matrix(12,0,0,12,101.1,391.1)" />
<use xlink:href="#f1_4" transform="matrix(12,0,0,12,111.7,391.1)" />
<use xlink:href="#f1_b" transform="matrix(12,0,0,12,123.5,391.1)" />
<use xlink:href="#f1_j" transform="matrix(12,0,0,12,131.7,391.1)" />
<use xlink:href="#f1_3" transform="matrix(12,0,0,12,138.2,391.1)" />
<use xlink:href="#f1_4" transform="matrix(12,0,0,12,148.5,391.1)" />
<use xlink:href="#f1_j" transform="matrix(12,0,0,12,160.3,391.1)" />
<use xlink:href="#f1_9" transform="matrix(12,0,0,12,47.4,459.9)" />
<use xlink:href="#f1_7" transform="matrix(12,0,0,12,61.9,459.9)" />
<use xlink:href="#f1_4" transform="matrix(12,0,0,12,71.7,459.9)" />
<use xlink:href="#f1_f" transform="matrix(12,0,0,12,83.5,459.9)" />
<use xlink:href="#f1_7" transform="matrix(12,0,0,12,92.5,459.9)" />
<use xlink:href="#f1_g" transform="matrix(12,0,0,12,102.4,459.9)" />
<use xlink:href="#f1_j" transform="matrix(12,0,0,12,111.7,459.9)" />
<use xlink:href="#f1_n" transform="matrix(12,0,0,12,118.1,459.9)" />
<use xlink:href="#f1_7" transform="matrix(12,0,0,12,129.8,459.9)" />
<use xlink:href="#f1_j" transform="matrix(12,0,0,12,144.3,459.9)" />
<use xlink:href="#f1_d" transform="matrix(12,0,0,12,150.8,459.9)" />
<use xlink:href="#f1_o" transform="matrix(12,0,0,12,156.6,459.9)" />
<use xlink:href="#f1_7" transform="matrix(12,0,0,12,173.9,459.9)" />
<use xlink:href="#f1_c" transform="matrix(12,0,0,12,188.5,459.9)" />
<use xlink:href="#f1_7" transform="matrix(12,0,0,12,199.7,459.9)" />
<use xlink:href="#f1_6" transform="matrix(12,0,0,12,209.5,459.9)" />
<use xlink:href="#f1_d" transform="matrix(12,0,0,12,218.2,459.9)" />
<use xlink:href="#f1_e" transform="matrix(12,0,0,12,224,459.9)" />
<use xlink:href="#f1_5" transform="matrix(12,0,0,12,234.6,459.9)" />
<use xlink:href="#f2_4" transform="matrix(12,0,0,12,250.6,459.9)" />
<use xlink:href="#f1_g" transform="matrix(12,0,0,12,261.8,459.9)" />
<use xlink:href="#f1_e" transform="matrix(12,0,0,12,271.1,459.9)" />
<use xlink:href="#f1_s" transform="matrix(12,0,0,12,281.7,459.9)" />
<use xlink:href="#f1_3" transform="matrix(12,0,0,12,293.2,459.9)" />
<use xlink:href="#f1_b" transform="matrix(12,0,0,12,308.3,459.9)" />
<use xlink:href="#f1_d" transform="matrix(12,0,0,12,316.5,459.9)" />
<use xlink:href="#f1_o" transform="matrix(12,0,0,12,322.4,459.9)" />
<use xlink:href="#f1_c" transform="matrix(12,0,0,12,339.7,459.9)" />
<use xlink:href="#f1_q" transform="matrix(12,0,0,12,350.9,459.9)" />
<use xlink:href="#f1_7" transform="matrix(12,0,0,12,356.6,459.9)" />
<use xlink:href="#f1_c" transform="matrix(12,0,0,12,371.2,459.9)" />
<use xlink:href="#f1_7" transform="matrix(12,0,0,12,382.4,459.9)" />
<use xlink:href="#f1_4" transform="matrix(12,0,0,12,392.2,459.9)" />
<use xlink:href="#f1_5" transform="matrix(12,0,0,12,404.1,459.9)" />
<use xlink:href="#f1_i" transform="matrix(12,0,0,12,415.3,459.9)" />
<use xlink:href="#f1_q" transform="matrix(12,0,0,12,426.9,459.9)" />
<use xlink:href="#f1_i" transform="matrix(12,0,0,12,432.6,459.9)" />
<use xlink:href="#f1_o" transform="matrix(12,0,0,12,444.2,459.9)" />
<use xlink:href="#f1_d" transform="matrix(12,0,0,12,466.3,459.9)" />
<use xlink:href="#f1_b" transform="matrix(12,0,0,12,472.1,459.9)" />
<use xlink:href="#f1_d" transform="matrix(12,0,0,12,485.1,459.9)" />
<use xlink:href="#f1_4" transform="matrix(12,0,0,12,491,459.9)" />
<use xlink:href="#f1_5" transform="matrix(12,0,0,12,502.8,459.9)" />
<use xlink:href="#f1_7" transform="matrix(12,0,0,12,514.1,459.9)" />
<use xlink:href="#f1_c" transform="matrix(12,0,0,12,523.9,459.9)" />
<use xlink:href="#f1_7" transform="matrix(12,0,0,12,535.1,459.9)" />
<use xlink:href="#f1_4" transform="matrix(12,0,0,12,544.9,459.9)" />
<use xlink:href="#f1_5" transform="matrix(12,0,0,12,556.7,459.9)" />
<use xlink:href="#f1_7" transform="matrix(12,0,0,12,568,459.9)" />
<use xlink:href="#f1_4" transform="matrix(12,0,0,12,577.8,459.9)" />
<use xlink:href="#f1_j" transform="matrix(12,0,0,12,589.6,459.9)" />
<use xlink:href="#f1_e" transform="matrix(12,0,0,12,600.8,459.9)" />
<use xlink:href="#f1_s" transform="matrix(12,0,0,12,611.4,459.9)" />
<use xlink:href="#f1_j" transform="matrix(12,0,0,12,622.9,459.9)" />
<use xlink:href="#f1_n" transform="matrix(12,0,0,12,629.3,459.9)" />
<use xlink:href="#f1_7" transform="matrix(12,0,0,12,641,459.9)" />
<use xlink:href="#f1_o" transform="matrix(12,0,0,12,655.5,459.9)" />
<use xlink:href="#f1_3" transform="matrix(12,0,0,12,672.8,459.9)" />
<use xlink:href="#f1_b" transform="matrix(12,0,0,12,683.1,459.9)" />
<use xlink:href="#f1_b" transform="matrix(12,0,0,12,691.4,459.9)" />
<use xlink:href="#f1_e" transform="matrix(12,0,0,12,704.4,459.9)" />
<use xlink:href="#f1_s" transform="matrix(12,0,0,12,715,459.9)" />
<use xlink:href="#f1_j" transform="matrix(12,0,0,12,726.5,459.9)" />
<use xlink:href="#f1_n" transform="matrix(12,0,0,12,732.9,459.9)" />
<use xlink:href="#f1_7" transform="matrix(12,0,0,12,744.6,459.9)" />
<use xlink:href="#f1_h" transform="matrix(12,0,0,12,759.1,459.9)" />
<use xlink:href="#f1_e" transform="matrix(12,0,0,12,770.4,459.9)" />
<use xlink:href="#f1_h" transform="matrix(12,0,0,12,780.9,459.9)" />
<use xlink:href="#f1_t" transform="matrix(12,0,0,12,792.2,459.9)" />
<use xlink:href="#f0_11" transform="matrix(12,0,0,12,47.4,510.3)" />
<use xlink:href="#f0_13" transform="matrix(12,0,0,12,54.7,510.3)" />
<use xlink:href="#f0_12" transform="matrix(12,0,0,12,66.6,510.3)" />
<use xlink:href="#f1_11" transform="matrix(12,0,0,12,78.7,510.3)" />
<use xlink:href="#f1_4" transform="matrix(12,0,0,12,85.4,510.3)" />
<use xlink:href="#f1_j" transform="matrix(12,0,0,12,102,510.3)" />
<use xlink:href="#f1_n" transform="matrix(12,0,0,12,108.4,510.3)" />
<use xlink:href="#f1_7" transform="matrix(12,0,0,12,120,510.3)" />
<use xlink:href="#f1_f" transform="matrix(12,0,0,12,134.6,510.3)" />
<use xlink:href="#f1_3" transform="matrix(12,0,0,12,143.6,510.3)" />
<use xlink:href="#f1_b" transform="matrix(12,0,0,12,153.9,510.3)" />
<use xlink:href="#f1_7" transform="matrix(12,0,0,12,162.2,510.3)" />
<use xlink:href="#f1_e" transform="matrix(12,0,0,12,176.7,510.3)" />
<use xlink:href="#f1_s" transform="matrix(12,0,0,12,187.3,510.3)" />
<use xlink:href="#f1_3" transform="matrix(12,0,0,12,198.8,510.3)" />
<use xlink:href="#f1_b" transform="matrix(12,0,0,12,213.9,510.3)" />
<use xlink:href="#f1_d" transform="matrix(12,0,0,12,222.1,510.3)" />
<use xlink:href="#f1_o" transform="matrix(12,0,0,12,228,510.3)" />
<use xlink:href="#f1_c" transform="matrix(12,0,0,12,245.3,510.3)" />
<use xlink:href="#f1_q" transform="matrix(12,0,0,12,256.5,510.3)" />
<use xlink:href="#f1_7" transform="matrix(12,0,0,12,262.2,510.3)" />
<use xlink:href="#f1_c" transform="matrix(12,0,0,12,276.8,510.3)" />
<use xlink:href="#f1_7" transform="matrix(12,0,0,12,288,510.3)" />
<use xlink:href="#f1_4" transform="matrix(12,0,0,12,297.8,510.3)" />
<use xlink:href="#f1_5" transform="matrix(12,0,0,12,309.7,510.3)" />
<use xlink:href="#f1_i" transform="matrix(12,0,0,12,320.9,510.3)" />
<use xlink:href="#f1_q" transform="matrix(12,0,0,12,332.5,510.3)" />
<use xlink:href="#f1_i" transform="matrix(12,0,0,12,338.2,510.3)" />
<use xlink:href="#f1_o" transform="matrix(12,0,0,12,349.8,510.3)" />
<use xlink:href="#f1_g" transform="matrix(12,0,0,12,367.1,510.3)" />
<use xlink:href="#f1_j" transform="matrix(12,0,0,12,376.5,510.3)" />
<use xlink:href="#f1_n" transform="matrix(12,0,0,12,382.9,510.3)" />
<use xlink:href="#f1_7" transform="matrix(12,0,0,12,394.5,510.3)" />
<use xlink:href="#f1_6" transform="matrix(12,0,0,12,409.1,510.3)" />
<use xlink:href="#f1_7" transform="matrix(12,0,0,12,417.7,510.3)" />
<use xlink:href="#f1_b" transform="matrix(12,0,0,12,427.5,510.3)" />
<use xlink:href="#f1_j" transform="matrix(12,0,0,12,435.8,510.3)" />
<use xlink:href="#f1_e" transform="matrix(12,0,0,12,442.2,510.3)" />
<use xlink:href="#f1_6" transform="matrix(12,0,0,12,452.8,510.3)" />
<use xlink:href="#f1_d" transform="matrix(12,0,0,12,461.4,510.3)" />
<use xlink:href="#f1_4" transform="matrix(12,0,0,12,467.3,510.3)" />
<use xlink:href="#f1_l" transform="matrix(12,0,0,12,479.1,510.3)" />
<use xlink:href="#f1_s" transform="matrix(12,0,0,12,493.7,510.3)" />
<use xlink:href="#f1_e" transform="matrix(12,0,0,12,500.5,510.3)" />
<use xlink:href="#f1_6" transform="matrix(12,0,0,12,511,510.3)" />
<use xlink:href="#f1_f" transform="matrix(12,0,0,12,519.7,510.3)" />
<use xlink:href="#f1_7" transform="matrix(12,0,0,12,528.7,510.3)" />
<use xlink:href="#f1_3" transform="matrix(12,0,0,12,543.2,510.3)" />
<use xlink:href="#f1_f" transform="matrix(12,0,0,12,553.6,510.3)" />
<use xlink:href="#f1_j" transform="matrix(12,0,0,12,562.6,510.3)" />
<use xlink:href="#f1_d" transform="matrix(12,0,0,12,569,510.3)" />
<use xlink:href="#f1_4" transform="matrix(12,0,0,12,574.9,510.3)" />
<use xlink:href="#f1_l" transform="matrix(12,0,0,12,586.7,510.3)" />
<use xlink:href="#f1_e" transform="matrix(12,0,0,12,601.3,510.3)" />
<use xlink:href="#f1_4" transform="matrix(12,0,0,12,611.9,510.3)" />
<use xlink:href="#f1_j" transform="matrix(12,0,0,12,628.4,510.3)" />
<use xlink:href="#f1_n" transform="matrix(12,0,0,12,634.9,510.3)" />
<use xlink:href="#f1_7" transform="matrix(12,0,0,12,646.5,510.3)" />
<use xlink:href="#f1_h" transform="matrix(12,0,0,12,661.1,510.3)" />
<use xlink:href="#f1_e" transform="matrix(12,0,0,12,672.3,510.3)" />
<use xlink:href="#f1_h" transform="matrix(12,0,0,12,682.9,510.3)" />
<use xlink:href="#f1_e" transform="matrix(12,0,0,12,698.9,510.3)" />
<use xlink:href="#f1_s" transform="matrix(12,0,0,12,709.5,510.3)" />
<use xlink:href="#f1_j" transform="matrix(12,0,0,12,721,510.3)" />
<use xlink:href="#f1_n" transform="matrix(12,0,0,12,727.4,510.3)" />
<use xlink:href="#f1_7" transform="matrix(12,0,0,12,739,510.3)" />
<use xlink:href="#f1_c" transform="matrix(12,0,0,12,753.6,510.3)" />
<use xlink:href="#f1_7" transform="matrix(12,0,0,12,764.8,510.3)" />
<use xlink:href="#f1_4" transform="matrix(12,0,0,12,774.7,510.3)" />
<use xlink:href="#f1_5" transform="matrix(12,0,0,12,786.5,510.3)" />
<use xlink:href="#f1_i" transform="matrix(12,0,0,12,797.7,510.3)" />
<use xlink:href="#f1_q" transform="matrix(12,0,0,12,809.3,510.3)" />
<use xlink:href="#f1_i" transform="matrix(12,0,0,12,815,510.3)" />
<use xlink:href="#f1_o" transform="matrix(12,0,0,12,826.6,510.3)" />
<use xlink:href="#f1_d" transform="matrix(12,0,0,12,47.4,542.4)" />
<use xlink:href="#f1_b" transform="matrix(12,0,0,12,53.2,542.4)" />
<use xlink:href="#f1_l" transform="matrix(12,0,0,12,66.2,542.4)" />
<use xlink:href="#f1_d" transform="matrix(12,0,0,12,76.1,542.4)" />
<use xlink:href="#f1_r" transform="matrix(12,0,0,12,81.9,542.4)" />
<use xlink:href="#f1_7" transform="matrix(12,0,0,12,92.5,542.4)" />
<use xlink:href="#f1_4" transform="matrix(12,0,0,12,102.3,542.4)" />
<use xlink:href="#f1_3" transform="matrix(12,0,0,12,118.9,542.4)" />
<use xlink:href="#f1_b" transform="matrix(12,0,0,12,129.2,542.4)" />
<use xlink:href="#f1_12" transform="matrix(12,0,0,12,137.5,542.4)" />
<use xlink:href="#f2_5" transform="matrix(12,0,0,12,47.4,592.8)" />
<use xlink:href="#f1_14" transform="matrix(12,0,0,12,62.9,592.8)" />
<use xlink:href="#f1_1p" transform="matrix(12,0,0,12,77.9,592.8)" />
<use xlink:href="#f2_7" transform="matrix(12,0,0,12,87.1,592.8)" />
<use xlink:href="#f2_6" transform="matrix(12,0,0,12,103.5,592.8)" />
<use xlink:href="#f1_b" transform="matrix(12,0,0,12,118.5,592.8)" />
<use xlink:href="#f1_d" transform="matrix(12,0,0,12,126.7,592.8)" />
<use xlink:href="#f1_4" transform="matrix(12,0,0,12,132.6,592.8)" />
<use xlink:href="#f2_j" transform="matrix(12,0,0,12,144.4,592.8)" />
<use xlink:href="#f1_1a" transform="matrix(12,0,0,12,47.4,643.2)" />
<use xlink:href="#f1_n" transform="matrix(12,0,0,12,66.6,643.2)" />
<use xlink:href="#f1_7" transform="matrix(12,0,0,12,78.2,643.2)" />
<use xlink:href="#f1_6" transform="matrix(12,0,0,12,88,643.2)" />
<use xlink:href="#f1_7" transform="matrix(12,0,0,12,96.6,643.2)" />
<use xlink:href="#f1_g" transform="matrix(12,0,0,12,106.4,643.2)" />
<use xlink:href="#f2_5" transform="matrix(12,0,0,12,47.4,693.6)" />
<use xlink:href="#f1_14" transform="matrix(12,0,0,12,62.9,693.6)" />
<use xlink:href="#f1_1o" transform="matrix(12,0,0,12,77.9,693.6)" />
<use xlink:href="#f1_7" transform="matrix(12,0,0,12,89.9,693.6)" />
<use xlink:href="#f1_b" transform="matrix(12,0,0,12,99.7,693.6)" />
<use xlink:href="#f1_j" transform="matrix(12,0,0,12,108,693.6)" />
<use xlink:href="#f1_e" transform="matrix(12,0,0,12,114.4,693.6)" />
<use xlink:href="#f1_6" transform="matrix(12,0,0,12,125,693.6)" />
<use xlink:href="#f1_d" transform="matrix(12,0,0,12,133.6,693.6)" />
<use xlink:href="#f1_4" transform="matrix(12,0,0,12,139.5,693.6)" />
<use xlink:href="#f1_l" transform="matrix(12,0,0,12,151.3,693.6)" />
<use xlink:href="#f1_s" transform="matrix(12,0,0,12,165.9,693.6)" />
<use xlink:href="#f1_e" transform="matrix(12,0,0,12,172.7,693.6)" />
<use xlink:href="#f1_6" transform="matrix(12,0,0,12,183.2,693.6)" />
<use xlink:href="#f1_f" transform="matrix(12,0,0,12,191.9,693.6)" />
<use xlink:href="#f1_7" transform="matrix(12,0,0,12,200.9,693.6)" />
<use xlink:href="#f2_7" transform="matrix(12,0,0,12,47.4,744)" />
<use xlink:href="#f1_14" transform="matrix(12,0,0,12,68.5,744)" />
<use xlink:href="#f1_a" transform="matrix(12,0,0,12,83.5,744)" />
<use xlink:href="#f1_3" transform="matrix(12,0,0,12,100.7,744)" />
<use xlink:href="#f1_b" transform="matrix(12,0,0,12,111,744)" />
<use xlink:href="#f1_b" transform="matrix(12,0,0,12,119.3,744)" />
<use xlink:href="#f1_e" transform="matrix(12,0,0,12,132.3,744)" />
<use xlink:href="#f1_s" transform="matrix(12,0,0,12,142.9,744)" />
<use xlink:href="#f1_j" transform="matrix(12,0,0,12,154.4,744)" />
<use xlink:href="#f1_n" transform="matrix(12,0,0,12,160.8,744)" />
<use xlink:href="#f1_7" transform="matrix(12,0,0,12,172.4,744)" />
<use xlink:href="#f1_h" transform="matrix(12,0,0,12,187,744)" />
<use xlink:href="#f1_e" transform="matrix(12,0,0,12,198.3,744)" />
<use xlink:href="#f1_h" transform="matrix(12,0,0,12,208.8,744)" />
<use xlink:href="#f2_6" transform="matrix(12,0,0,12,47.4,794.4)" />
<use xlink:href="#f1_14" transform="matrix(12,0,0,12,62.3,794.4)" />
<use xlink:href="#f1_w" transform="matrix(12,0,0,12,77.3,794.4)" />
<use xlink:href="#f1_f" transform="matrix(12,0,0,12,90.2,794.4)" />
<use xlink:href="#f1_f" transform="matrix(12,0,0,12,99.2,794.4)" />
<use xlink:href="#f1_7" transform="matrix(12,0,0,12,108.3,794.4)" />
<use xlink:href="#f1_q" transform="matrix(12,0,0,12,118.1,794.4)" />
<use xlink:href="#f1_7" transform="matrix(12,0,0,12,123.8,794.4)" />
<use xlink:href="#f1_6" transform="matrix(12,0,0,12,133.6,794.4)" />
<use xlink:href="#f1_3" transform="matrix(12,0,0,12,142.2,794.4)" />
<use xlink:href="#f1_j" transform="matrix(12,0,0,12,152.5,794.4)" />
<use xlink:href="#f1_d" transform="matrix(12,0,0,12,158.9,794.4)" />
<use xlink:href="#f1_e" transform="matrix(12,0,0,12,164.8,794.4)" />
<use xlink:href="#f1_4" transform="matrix(12,0,0,12,175.4,794.4)" />
<use xlink:href="#f1_5" transform="matrix(12,0,0,12,191.9,794.4)" />
<use xlink:href="#f1_i" transform="matrix(12,0,0,12,203.2,794.4)" />
<use xlink:href="#f1_7" transform="matrix(12,0,0,12,214.8,794.4)" />
<use xlink:href="#f1_j" transform="matrix(12,0,0,12,229.4,794.4)" />
<use xlink:href="#f1_e" transform="matrix(12,0,0,12,235.8,794.4)" />
<use xlink:href="#f1_l" transform="matrix(12,0,0,12,251.1,794.4)" />
<use xlink:href="#f1_6" transform="matrix(12,0,0,12,261,794.4)" />
<use xlink:href="#f1_3" transform="matrix(12,0,0,12,269.6,794.4)" />
<use xlink:href="#f1_r" transform="matrix(12,0,0,12,279.9,794.4)" />
<use xlink:href="#f1_d" transform="matrix(12,0,0,12,290.5,794.4)" />
<use xlink:href="#f1_j" transform="matrix(12,0,0,12,296.4,794.4)" />
<use xlink:href="#f1_x" transform="matrix(12,0,0,12,302.8,794.4)" />
<use xlink:href="#f2_j" transform="matrix(12,0,0,12,47.4,844.9)" />
<use xlink:href="#f1_14" transform="matrix(12,0,0,12,62.4,844.9)" />
<use xlink:href="#f1_w" transform="matrix(12,0,0,12,77.3,844.9)" />
<use xlink:href="#f1_4" transform="matrix(12,0,0,12,90.3,844.9)" />
<use xlink:href="#f1_l" transform="matrix(12,0,0,12,102.1,844.9)" />
<use xlink:href="#f1_q" transform="matrix(12,0,0,12,111.9,844.9)" />
<use xlink:href="#f1_7" transform="matrix(12,0,0,12,117.6,844.9)" />
<use xlink:href="#f1_e" transform="matrix(12,0,0,12,132.2,844.9)" />
<use xlink:href="#f1_s" transform="matrix(12,0,0,12,142.8,844.9)" />
<use xlink:href="#f1_5" transform="matrix(12,0,0,12,154.3,844.9)" />
<use xlink:href="#f1_d" transform="matrix(12,0,0,12,165.5,844.9)" />
<use xlink:href="#f1_b" transform="matrix(12,0,0,12,171.4,844.9)" />
<use xlink:href="#f1_c" transform="matrix(12,0,0,12,179.6,844.9)" />
<use xlink:href="#f1_q" transform="matrix(12,0,0,12,190.9,844.9)" />
<use xlink:href="#f1_3" transform="matrix(12,0,0,12,196.5,844.9)" />
<use xlink:href="#f1_f" transform="matrix(12,0,0,12,206.8,844.9)" />
<use xlink:href="#f1_7" transform="matrix(12,0,0,12,215.9,844.9)" />
<use xlink:href="#f1_o" transform="matrix(12,0,0,12,225.7,844.9)" />
<use xlink:href="#f1_7" transform="matrix(12,0,0,12,243,844.9)" />
<use xlink:href="#f1_4" transform="matrix(12,0,0,12,252.8,844.9)" />
<use xlink:href="#f1_j" transform="matrix(12,0,0,12,264.6,844.9)" />
<use xlink:href="#f1_1u" transform="matrix(12,0,0,12,47.4,895.3)" />
<use xlink:href="#f1_e" transform="matrix(12,0,0,12,58.2,895.3)" />
<use xlink:href="#f1_6" transform="matrix(12,0,0,12,68.8,895.3)" />
<use xlink:href="#f1_b" transform="matrix(12,0,0,12,82.1,895.3)" />
<use xlink:href="#f1_o" transform="matrix(12,0,0,12,90.4,895.3)" />
<use xlink:href="#f1_3" transform="matrix(12,0,0,12,107.7,895.3)" />
<use xlink:href="#f1_q" transform="matrix(12,0,0,12,118,895.3)" />
<use xlink:href="#f1_q" transform="matrix(12,0,0,12,123.7,895.3)" />
<use xlink:href="#f2_j" transform="matrix(12,0,0,12,134.1,895.3)" />
<use xlink:href="#f1_g" transform="matrix(12,0,0,12,144.4,895.3)" />
<use xlink:href="#f1_b" transform="matrix(12,0,0,12,153.7,895.3)" />
<use xlink:href="#f1_d" transform="matrix(12,0,0,12,161.9,895.3)" />
<use xlink:href="#f1_4" transform="matrix(12,0,0,12,167.8,895.3)" />
<use xlink:href="#f2_j" transform="matrix(12,0,0,12,179.6,895.3)" />
</g>
</g>
<image preserveAspectRatio="none" x="194" y="877" width="41" height="27" xlink:href="img/4.png" />
<g clip-path="url(#c0_307)">
<g fill="#000000" >
<use xlink:href="#f1_1u" transform="matrix(12,0,0,12,47.4,945.7)" />
<use xlink:href="#f1_e" transform="matrix(12,0,0,12,58.2,945.7)" />
<use xlink:href="#f1_6" transform="matrix(12,0,0,12,68.8,945.7)" />
<use xlink:href="#f1_q" transform="matrix(12,0,0,12,82.1,945.7)" />
<use xlink:href="#f1_3" transform="matrix(12,0,0,12,87.8,945.7)" />
<use xlink:href="#f1_6" transform="matrix(12,0,0,12,98.1,945.7)" />
<use xlink:href="#f1_l" transform="matrix(12,0,0,12,106.7,945.7)" />
<use xlink:href="#f1_7" transform="matrix(12,0,0,12,116.6,945.7)" />
<use xlink:href="#f2_j" transform="matrix(12,0,0,12,131.2,945.7)" />
<use xlink:href="#f1_g" transform="matrix(12,0,0,12,141.4,945.7)" />
<use xlink:href="#f1_b" transform="matrix(12,0,0,12,150.7,945.7)" />
<use xlink:href="#f1_d" transform="matrix(12,0,0,12,159,945.7)" />
<use xlink:href="#f1_4" transform="matrix(12,0,0,12,164.8,945.7)" />
<use xlink:href="#f2_j" transform="matrix(12,0,0,12,176.6,945.7)" />
<use xlink:href="#f1_d" transform="matrix(12,0,0,12,191.6,945.7)" />
<use xlink:href="#f1_b" transform="matrix(12,0,0,12,197.5,945.7)" />
<use xlink:href="#f1_l" transform="matrix(12,0,0,12,210.5,945.7)" />
<use xlink:href="#f1_6" transform="matrix(12,0,0,12,220.4,945.7)" />
<use xlink:href="#f1_7" transform="matrix(12,0,0,12,229,945.7)" />
<use xlink:href="#f1_3" transform="matrix(12,0,0,12,238.8,945.7)" />
<use xlink:href="#f1_j" transform="matrix(12,0,0,12,249.1,945.7)" />
<use xlink:href="#f1_7" transform="matrix(12,0,0,12,255.5,945.7)" />
<use xlink:href="#f1_6" transform="matrix(12,0,0,12,265.4,945.7)" />
<use xlink:href="#f1_j" transform="matrix(12,0,0,12,278.7,945.7)" />
<use xlink:href="#f1_n" transform="matrix(12,0,0,12,285.2,945.7)" />
<use xlink:href="#f1_3" transform="matrix(12,0,0,12,296.8,945.7)" />
<use xlink:href="#f1_4" transform="matrix(12,0,0,12,307.1,945.7)" />
<use xlink:href="#f2_j" transform="matrix(12,0,0,12,323.7,945.7)" />
<use xlink:href="#f1_t" transform="matrix(12,0,0,12,333.9,945.7)" />
<use xlink:href="#f1_v" transform="matrix(12,0,0,12,47.4,996.1)" />
<use xlink:href="#f1_n" transform="matrix(12,0,0,12,58.6,996.1)" />
<use xlink:href="#f1_d" transform="matrix(12,0,0,12,70.2,996.1)" />
<use xlink:href="#f1_b" transform="matrix(12,0,0,12,76.1,996.1)" />
<use xlink:href="#f1_5" transform="matrix(12,0,0,12,89.1,996.1)" />
<use xlink:href="#f1_7" transform="matrix(12,0,0,12,100.3,996.1)" />
<use xlink:href="#f1_f" transform="matrix(12,0,0,12,110.1,996.1)" />
<use xlink:href="#f1_6" transform="matrix(12,0,0,12,119.1,996.1)" />
<use xlink:href="#f1_7" transform="matrix(12,0,0,12,127.8,996.1)" />
<use xlink:href="#f1_3" transform="matrix(12,0,0,12,137.6,996.1)" />
<use xlink:href="#f1_b" transform="matrix(12,0,0,12,147.9,996.1)" />
<use xlink:href="#f1_7" transform="matrix(12,0,0,12,156.1,996.1)" />
<use xlink:href="#f1_b" transform="matrix(12,0,0,12,166,996.1)" />
<use xlink:href="#f1_j" transform="matrix(12,0,0,12,179,996.1)" />
<use xlink:href="#f1_n" transform="matrix(12,0,0,12,185.4,996.1)" />
<use xlink:href="#f1_7" transform="matrix(12,0,0,12,197,996.1)" />
<use xlink:href="#f1_7" transform="matrix(12,0,0,12,211.6,996.1)" />
<use xlink:href="#f1_s" transform="matrix(12,0,0,12,221.4,996.1)" />
<use xlink:href="#f1_s" transform="matrix(12,0,0,12,228.2,996.1)" />
<use xlink:href="#f1_7" transform="matrix(12,0,0,12,234.9,996.1)" />
<use xlink:href="#f1_f" transform="matrix(12,0,0,12,244.7,996.1)" />
<use xlink:href="#f1_j" transform="matrix(12,0,0,12,253.8,996.1)" />
<use xlink:href="#f1_d" transform="matrix(12,0,0,12,260.2,996.1)" />
<use xlink:href="#f1_r" transform="matrix(12,0,0,12,266,996.1)" />
<use xlink:href="#f1_7" transform="matrix(12,0,0,12,276.6,996.1)" />
<use xlink:href="#f1_r" transform="matrix(12,0,0,12,291.2,996.1)" />
<use xlink:href="#f1_3" transform="matrix(12,0,0,12,301.8,996.1)" />
<use xlink:href="#f1_q" transform="matrix(12,0,0,12,312.1,996.1)" />
<use xlink:href="#f1_i" transform="matrix(12,0,0,12,317.8,996.1)" />
<use xlink:href="#f1_7" transform="matrix(12,0,0,12,329.4,996.1)" />
<use xlink:href="#f1_e" transform="matrix(12,0,0,12,344,996.1)" />
<use xlink:href="#f1_s" transform="matrix(12,0,0,12,354.6,996.1)" />
<use xlink:href="#f2_6" transform="matrix(12,0,0,12,366.1,996.1)" />
<use xlink:href="#f1_t" transform="matrix(12,0,0,12,376.3,996.1)" />
<use xlink:href="#f1_9" transform="matrix(12,0,0,12,47.4,1046.5)" />
<use xlink:href="#f1_7" transform="matrix(12,0,0,12,61.9,1046.5)" />
<use xlink:href="#f1_4" transform="matrix(12,0,0,12,71.7,1046.5)" />
<use xlink:href="#f1_f" transform="matrix(12,0,0,12,83.5,1046.5)" />
<use xlink:href="#f1_7" transform="matrix(12,0,0,12,92.5,1046.5)" />
<use xlink:href="#f1_g" transform="matrix(12,0,0,12,102.4,1046.5)" />
<use xlink:href="#f1_j" transform="matrix(12,0,0,12,111.7,1046.5)" />
<use xlink:href="#f1_n" transform="matrix(12,0,0,12,118.1,1046.5)" />
<use xlink:href="#f1_7" transform="matrix(12,0,0,12,129.8,1046.5)" />
<use xlink:href="#f1_j" transform="matrix(12,0,0,12,144.3,1046.5)" />
<use xlink:href="#f1_d" transform="matrix(12,0,0,12,150.8,1046.5)" />
<use xlink:href="#f1_o" transform="matrix(12,0,0,12,156.6,1046.5)" />
<use xlink:href="#f1_7" transform="matrix(12,0,0,12,173.9,1046.5)" />
<use xlink:href="#f1_c" transform="matrix(12,0,0,12,188.5,1046.5)" />
<use xlink:href="#f1_7" transform="matrix(12,0,0,12,199.7,1046.5)" />
<use xlink:href="#f1_6" transform="matrix(12,0,0,12,209.5,1046.5)" />
<use xlink:href="#f1_d" transform="matrix(12,0,0,12,218.2,1046.5)" />
<use xlink:href="#f1_e" transform="matrix(12,0,0,12,224,1046.5)" />
<use xlink:href="#f1_5" transform="matrix(12,0,0,12,234.6,1046.5)" />
<use xlink:href="#f1_d" transform="matrix(12,0,0,12,250.6,1046.5)" />
<use xlink:href="#f1_4" transform="matrix(12,0,0,12,256.4,1046.5)" />
<use xlink:href="#f1_f" transform="matrix(12,0,0,12,268.2,1046.5)" />
<use xlink:href="#f1_6" transform="matrix(12,0,0,12,277.3,1046.5)" />
<use xlink:href="#f1_7" transform="matrix(12,0,0,12,285.9,1046.5)" />
<use xlink:href="#f1_3" transform="matrix(12,0,0,12,295.7,1046.5)" />
<use xlink:href="#f1_b" transform="matrix(12,0,0,12,306,1046.5)" />
<use xlink:href="#f1_7" transform="matrix(12,0,0,12,314.3,1046.5)" />
<use xlink:href="#f1_b" transform="matrix(12,0,0,12,324.1,1046.5)" />
<use xlink:href="#f1_3" transform="matrix(12,0,0,12,337.1,1046.5)" />
<use xlink:href="#f1_b" transform="matrix(12,0,0,12,347.4,1046.5)" />
<use xlink:href="#f1_12" transform="matrix(12,0,0,12,355.7,1046.5)" />
<use xlink:href="#f1_v" transform="matrix(12,0,0,12,47.4,1116.8)" />
<use xlink:href="#f1_14" transform="matrix(12,0,0,12,58.6,1116.8)" />
</g>
</g>
<image preserveAspectRatio="none" x="73" y="1074" width="80" height="75" xlink:href="img/5.png" />
<g fill="#000000" >
<use xlink:href="#f3_o" transform="matrix(12,0,0,12,835.7,1269.6)" />
<use xlink:href="#f3_q" transform="matrix(12,0,0,12,844.9,1269.6)" />
</g>
<defs>
<path d="M29,0V81H63c0,0,16,0,35,4c0,0,18,3,36,13c0,0,15,10,26,30c0,0,10,19,11,53V715H35V819H171v57c0,0,-1,70,18,127c0,0,18,54,57,94c0,0,37,38,97,58c0,0,59,20,140,20c0,0,74,-1,123,-8c0,0,49,-10,78,-24c0,0,29,-16,42,-36c0,0,12,-21,12,-44c0,0,-1,-52,-46,-75c0,0,-47,-24,-142,-24c0,0,-1,18,-4,40c0,0,-4,21,-13,40c0,0,-9,19,-23,32c0,0,-15,12,-36,12c0,0,-20,0,-32,-10c0,0,-15,-11,-22,-32c0,0,-10,-23,-13,-58c0,0,-3,-35,-3,-85V819H614V715H404V181c0,0,0,-34,11,-53c0,0,9,-20,27,-30c0,0,15,-10,35,-13c0,0,18,-4,35,-4h71V0Z" 
id="f0_e"
transform="scale(0.001,-0.001)" />

<path d="M31,0V81h4c0,0,25,0,48,4c0,0,21,3,37,16c0,0,16,11,25,33c0,0,7,20,8,57V634c0,0,0,33,-8,55c0,0,-8,20,-22,31c0,0,-15,11,-35,15c0,0,-20,3,-45,3H38v81H347L377,700h8c0,0,14,34,33,60c0,0,17,26,43,43c0,0,24,16,59,26c0,0,34,7,81,8c0,0,90,0,132,-31c0,0,43,-33,43,-93c0,0,-1,-71,-51,-109c0,0,-50,-39,-141,-39c0,0,-1,0,-2,0c0,0,-1,32,-4,56c0,0,-4,23,-12,39c0,0,-9,16,-23,24c0,0,-15,8,-36,8c0,0,-28,0,-47,-13c0,0,-20,-14,-33,-34c0,0,-14,-22,-22,-49c0,0,-9,-27,-13,-54c0,0,-6,-28,-6,-52c0,0,0,-25,0,-42V184c0,0,0,-34,9,-54c0,0,7,-22,22,-32c0,0,13,-10,34,-13c0,0,18,-4,41,-4h49V0Z" 
id="f0_6"
transform="scale(0.001,-0.001)" />

<path d="M574,490c0,0,0,58,-6,105c0,0,-8,45,-22,78c0,0,-15,32,-37,49c0,0,-24,17,-56,17c0,0,-65,0,-103,-63c0,0,-38,-64,-38,-186ZM468,-14c0,0,-98,0,-171,27c0,0,-75,28,-125,82c0,0,-50,54,-75,133c0,0,-26,76,-25,177c0,0,-1,107,25,189c0,0,25,80,74,136c0,0,48,53,119,82c0,0,70,26,161,26c0,0,82,0,149,-23c0,0,65,-24,112,-70c0,0,46,-47,71,-115c0,0,25,-69,25,-159V392H308c0,0,0,-77,15,-132c0,0,14,-55,40,-91c0,0,26,-36,63,-53c0,0,37,-17,85,-17c0,0,1,0,2,0c8,0,41,1,71,10c0,0,34,9,61,26c0,0,28,16,48,40c0,0,21,22,34,48c0,0,41,-22,41,-75c0,0,0,-32,-18,-61c0,0,-18,-31,-55,-53C695,34,658,12,602,0c0,0,-57,-14,-134,-14Z" 
id="f0_5"
transform="scale(0.001,-0.001)" />

<path d="M26,0V81H44c0,0,16,0,37,4c0,0,17,3,35,13c0,0,15,10,26,30c0,0,10,19,11,53V987c0,0,-1,30,-11,49c0,0,-11,18,-27,29c0,0,-17,8,-35,12c0,0,-20,3,-36,3H26v81H385V181c0,0,0,-34,11,-53c0,0,10,-20,27,-30c0,0,16,-10,35,-13c0,0,19,-4,36,-4h18V0Z" 
id="f0_8"
transform="scale(0.001,-0.001)" />

<path d="M41,-366v89c0,0,79,0,136,19c0,0,55,19,95,55c0,0,38,35,64,86c0,0,24,50,43,111L104,665c0,0,-9,21,-20,34c0,0,-12,12,-24,19c0,0,-14,7,-28,9c0,0,-16,1,-32,2v90H436V738c0,0,-45,0,-70,-11c0,0,-27,-13,-27,-46c0,0,0,-13,6,-30c0,0,5,-18,9,-29c0,0,14,-33,29,-69c0,0,13,-39,28,-76c0,0,13,-38,26,-73c0,0,12,-35,23,-62c0,0,10,-29,18,-52c0,0,7,-24,13,-42c0,0,4,-20,7,-35c0,0,3,-18,5,-32c0,0,1,15,6,35c0,0,3,18,9,36c0,0,5,17,11,31c0,0,5,14,7,20L637,602c0,0,2,7,6,18c0,0,2,10,5,20c0,0,2,10,3,20c0,0,1,10,1,17c0,0,0,34,-29,48c0,0,-30,12,-82,13v81H885V738c0,0,-24,0,-41,-5c0,0,-17,-6,-32,-18c0,0,-15,-14,-26,-35c0,0,-12,-21,-24,-53c0,0,-26,-76,-56,-156c0,0,-29,-79,-58,-158c0,0,-30,-80,-59,-158C589,155,559,75,532,0c0,0,-28,-73,-51,-129c0,0,-24,-56,-50,-97c0,0,-27,-42,-59,-68c0,0,-33,-27,-74,-42c0,0,-43,-17,-99,-23c0,0,-57,-7,-132,-7Z" 
id="f0_g"
transform="scale(0.001,-0.001)" />

<path d="M392,96c0,0,32,0,60,14c0,0,25,13,46,38c0,0,18,26,29,62c0,0,9,35,9,79V403H468c0,0,-47,-1,-77,-13c0,0,-31,-13,-50,-34c0,0,-19,-22,-27,-53c0,0,-8,-33,-8,-74c0,0,-1,-67,21,-100c0,0,21,-33,65,-33ZM314,-14c-2,0,-3,0,-5,0c0,0,-51,0,-94,14c0,0,-44,15,-76,46c0,0,-33,32,-52,79c0,0,-19,47,-18,111c0,0,-1,125,85,185c0,0,85,61,257,61H536v86c0,0,0,38,-3,71c0,0,-3,32,-12,57c0,0,-11,23,-29,37c0,0,-19,11,-50,12c0,0,-30,0,-49,-12c0,0,-20,-13,-32,-34c0,0,-13,-22,-16,-52c0,0,-6,-31,-6,-67h-1c-11,0,-105,1,-153,24c0,0,-53,23,-52,79c0,0,-1,41,25,71c0,0,24,29,68,49c0,0,43,18,100,27c0,0,57,8,122,8c0,0,80,0,141,-13c0,0,59,-15,100,-45c0,0,38,-30,59,-80c0,0,20,-50,20,-121V189c0,0,0,-31,6,-52c0,0,4,-21,15,-33c0,0,9,-12,28,-17c0,0,15,-6,39,-6c1,0,3,0,4,0h6V0H582L550,105H536c0,0,-26,-30,-47,-53c0,0,-23,-24,-48,-38C441,14,415,0,384,-6c0,0,-30,-8,-70,-8Z" 
id="f0_3"
transform="scale(0.001,-0.001)" />

<path d="M26,0V81H44c0,0,16,0,37,4c0,0,17,3,35,13c0,0,15,10,26,30c0,0,10,19,11,53V645c0,0,-1,29,-11,49c0,0,-11,18,-27,28c0,0,-17,9,-35,13c0,0,-20,3,-36,3H26v81H385V181c0,0,0,-34,11,-53c0,0,10,-20,27,-30c0,0,16,-10,35,-13c0,0,19,-4,36,-4h18V0ZM261,956c0,0,-28,0,-51,7c0,0,-24,7,-41,20c0,0,-18,13,-27,35c0,0,-11,20,-11,49c0,0,0,28,11,50c0,0,9,21,27,34c0,0,17,12,41,19c0,0,23,6,51,6c0,0,25,0,50,-6c0,0,23,-7,42,-19c0,0,18,-13,29,-34c0,0,10,-22,10,-50c0,0,0,-29,-10,-49c0,0,-11,-22,-29,-35c0,0,-19,-13,-42,-20c0,0,-25,-7,-50,-7Z" 
id="f0_7"
transform="scale(0.001,-0.001)" />

<path d="M31,0V81h3c0,0,25,0,47,4c0,0,21,3,38,14c0,0,16,11,25,32c0,0,9,20,9,55V639c0,0,0,32,-8,51c0,0,-8,19,-22,31c0,0,-15,9,-35,14c0,0,-20,3,-45,3H38v81H359L379,710h7c0,0,24,43,50,69c0,0,25,25,54,39c0,0,29,13,62,17c0,0,32,3,68,3c0,0,59,0,106,-17c0,0,47,-17,80,-53c0,0,32,-36,49,-91c0,0,16,-56,17,-133V189c0,0,0,-35,7,-56c0,0,5,-22,18,-33c0,0,12,-12,33,-15c0,0,18,-4,45,-4h4V0H640V503c0,0,-1,48,-6,88c0,0,-7,38,-21,64c0,0,-15,25,-38,40c0,0,-24,14,-57,14c0,0,-38,-1,-64,-20c0,0,-26,-19,-40,-51c0,0,-16,-33,-22,-76c0,0,-7,-44,-7,-90V181c0,0,0,-33,8,-52c0,0,7,-20,22,-30c0,0,13,-11,35,-14c0,0,19,-4,45,-4h5V0Z" 
id="f0_d"
transform="scale(0.001,-0.001)" />

<path d="M364,-274c9,0,135,0,195,39c0,0,61,38,61,114c0,0,-1,47,-31,68c0,0,-31,18,-92,19H319c0,0,-24,-1,-47,-4c0,0,-24,-5,-43,-17c0,0,-21,-13,-33,-35c0,0,-12,-24,-12,-60c0,0,0,-65,46,-94c0,0,45,-30,133,-30h1Zm28,653c0,0,30,0,51,13c0,0,20,12,32,35c0,0,11,24,17,57c0,0,5,32,5,74c0,0,0,43,-5,78c0,0,-6,34,-18,59c0,0,-12,23,-32,38c0,0,-21,14,-51,14c0,0,-31,0,-50,-14c0,0,-20,-15,-32,-40c0,0,-13,-26,-18,-60c0,0,-6,-36,-5,-77c0,0,0,-41,6,-73c0,0,5,-32,18,-56c0,0,12,-23,32,-35c0,0,20,-13,50,-13ZM366,-366c-2,0,-4,0,-6,0c-9,0,-183,1,-268,54c0,0,-89,54,-89,159c0,0,0,81,53,126c0,0,52,42,154,50c0,0,-22,8,-41,20c0,0,-21,12,-36,29c0,0,-16,17,-26,38c0,0,-10,21,-9,49c0,0,0,25,10,47c0,0,10,21,28,42c0,0,17,18,43,37c0,0,24,16,54,34c0,0,-34,12,-61,34c0,0,-30,20,-50,51c0,0,-21,29,-32,67c0,0,-13,39,-12,85c0,0,0,133,78,209c0,0,77,73,241,73c0,0,54,0,101,-13c0,0,46,-15,81,-34c0,0,12,14,28,30c0,0,14,14,35,27c0,0,18,12,43,21c0,0,23,8,53,8c0,0,27,0,48,-6c0,0,20,-9,35,-20c0,0,12,-13,20,-27c0,0,7,-16,7,-34c0,0,0,-17,-5,-33c0,0,-6,-17,-17,-28c0,0,-13,-13,-34,-19c0,0,-20,-7,-49,-7c-1,0,-2,0,-4,0c0,0,0,15,-4,27c0,0,-6,12,-14,20c0,0,-9,8,-18,13c0,0,-11,3,-22,4c0,0,-13,0,-27,-5c0,0,-15,-6,-23,-12c0,0,16,-17,29,-38c0,0,14,-23,24,-48c0,0,10,-25,16,-52c0,0,5,-27,6,-56c0,0,0,-58,-18,-106c0,0,-20,-49,-57,-84c0,0,-38,-36,-96,-56c0,0,-59,-21,-138,-21H351c0,0,-13,0,-24,2c0,0,-13,1,-18,2c0,0,-11,-6,-20,-13c0,0,-10,-8,-17,-17c0,0,-9,-11,-13,-22c0,0,-6,-13,-5,-25c0,0,0,-27,20,-38c0,0,17,-12,48,-12c1,0,2,0,3,0H510c0,0,76,0,132,-15c0,0,54,-17,91,-47c0,0,36,-30,53,-73c0,0,17,-43,17,-97c0,0,0,-72,-26,-126c0,0,-27,-56,-82,-94c0,0,-55,-40,-138,-59c0,0,-81,-21,-191,-21Z" 
id="f0_l"
transform="scale(0.001,-0.001)" />

<path d="M394,-14c0,0,-120,0,-183,73c0,0,-64,74,-64,228V630c0,0,-1,32,-6,54c0,0,-7,20,-19,33c0,0,-13,12,-32,16c0,0,-20,5,-47,5H40v81H379V330c0,0,0,-50,6,-89c0,0,5,-40,19,-67c0,0,13,-29,35,-43c0,0,23,-16,56,-16c0,0,1,0,1,0c5,0,38,1,63,16c0,0,25,16,43,47c0,0,16,29,25,73c0,0,7,42,7,96V640c0,0,0,34,-9,53c0,0,-10,19,-24,30c0,0,-15,9,-35,13c0,0,-20,2,-42,2h-5v81H866V178c0,0,0,-34,8,-53c0,0,8,-19,21,-29c0,0,13,-10,32,-12c0,0,16,-3,35,-3c2,0,4,0,6,0h13V0H677L643,108h-7c0,0,-24,-40,-50,-63C586,45,558,19,528,7C528,7,498,-5,464,-9c0,0,-35,-5,-70,-5Z" 
id="f0_m"
transform="scale(0.001,-0.001)" />

<path d="M448,99c0,0,45,0,76,20c0,0,29,18,48,57c0,0,17,38,26,98c0,0,7,57,7,137c0,0,0,75,-7,134c0,0,-9,59,-26,99c0,0,-19,39,-48,60c0,0,-31,20,-76,20c0,0,-38,0,-65,-20c0,0,-29,-21,-44,-61c0,0,-17,-40,-25,-98c0,0,-8,-60,-8,-135c0,0,0,-156,33,-233c0,0,31,-78,109,-78ZM386,-14c-1,0,-3,0,-4,0h-1c-7,0,-77,1,-132,24c0,0,-59,24,-98,77c0,0,-40,52,-60,132c0,0,-22,79,-21,189c0,0,-1,110,21,192c0,0,20,80,60,133c0,0,38,53,97,79c0,0,56,25,131,25c0,0,43,0,78,-9c0,0,35,-10,63,-25c0,0,28,-17,49,-39c0,0,21,-22,37,-49h9c0,0,0,42,-6,79c0,0,0,15,0,33c0,0,0,16,-2,31c0,0,-2,14,-2,25c0,0,0,11,0,18v84c0,0,0,32,-10,51c0,0,-10,18,-27,29c0,0,-17,8,-39,12c0,0,-22,3,-48,3H469v81H837V188c0,0,0,-35,10,-56c0,0,10,-22,29,-32c0,0,16,-12,40,-15c0,0,22,-4,48,-4h6V0H674L631,119H617c0,0,-18,-31,-39,-56c0,0,-23,-25,-51,-41C527,22,498,4,463,-4c0,0,-34,-10,-77,-10Z" 
id="f0_a"
transform="scale(0.001,-0.001)" />

<path d="M373,0L122,665c0,0,-9,21,-18,35c0,0,-11,15,-26,23c0,0,-15,7,-33,12c0,0,-20,3,-45,3v81H474V738H410c0,0,-24,0,-37,-12c0,0,-15,-14,-14,-37c0,0,-1,-19,5,-36c0,0,5,-19,9,-31L475,333c0,0,18,-49,33,-98c0,0,13,-49,21,-88c0,0,3,18,10,42c0,0,7,23,14,47c0,0,6,21,12,41c0,0,6,18,8,26L677,609c0,0,6,21,12,43c0,0,5,20,5,42c0,0,0,24,-17,35c0,0,-18,9,-43,9H590v81H926V738H895c0,0,-15,-1,-27,-4c0,0,-13,-4,-24,-15c0,0,-13,-13,-23,-33c0,0,-12,-23,-25,-59L574,0Z" 
id="f0_17"
transform="scale(0.001,-0.001)" />

<path d="M371,-14c0,0,-52,0,-93,13c0,0,-42,11,-71,40c0,0,-29,27,-44,74c0,0,-16,46,-16,113V715H32v78c0,0,49,0,88,19c0,0,38,19,62,45c0,0,46,49,70,152H379V819H574V715H379V242c0,0,0,-70,24,-102c0,0,22,-32,75,-32c0,0,1,0,2,0c0,0,29,0,57,5c0,0,27,3,51,9V23c0,0,-13,-6,-32,-13C556,10,534,4,508,0c0,0,-28,-7,-62,-10c0,0,-35,-4,-75,-4Z" 
id="f0_4"
transform="scale(0.001,-0.001)" />

<path d="M373,-11c0,0,-26,0,-49,7c0,0,-24,4,-40,19c0,0,-17,13,-27,37c0,0,-10,23,-9,58c0,0,-1,34,9,59c0,0,10,22,27,37c0,0,16,14,40,20c0,0,23,5,49,6c0,0,25,-1,48,-6c0,0,23,-6,40,-20c0,0,16,-15,28,-37c0,0,9,-25,9,-59c0,0,0,-35,-9,-58c0,0,-12,-24,-28,-37C461,15,444,0,421,-4c0,0,-23,-7,-48,-7ZM328,348L298,536c0,0,65,26,107,62c0,0,41,35,66,76c0,0,24,41,33,85c0,0,9,44,9,91c0,0,0,36,-6,67c0,0,-7,30,-21,52c0,0,-15,21,-38,34c0,0,-24,12,-54,12c0,0,-35,0,-58,-16c0,0,-23,-17,-37,-42c0,0,-15,-27,-20,-61c0,0,-7,-35,-7,-74c0,0,-47,0,-86,7c0,0,-41,7,-68,20c0,0,-29,12,-45,33c0,0,-17,20,-16,47c0,0,0,36,19,70c0,0,19,32,60,56c0,0,39,23,100,38c0,0,62,13,146,13c0,0,81,0,149,-18c0,0,68,-20,119,-56c0,0,50,-37,78,-88c0,0,28,-53,28,-119c0,0,0,-62,-18,-110c0,0,-20,-48,-58,-88c0,0,-38,-41,-94,-74c0,0,-58,-35,-134,-66L421,348Z" 
id="f0_14"
transform="scale(0.001,-0.001)" />

<path d="M674,452L593,703c0,0,-9,25,-16,55c0,0,-10,28,-18,58c0,0,-8,29,-16,60c0,0,-9,29,-14,56c0,0,-7,-24,-16,-51c0,0,-9,-28,-18,-57c0,0,-11,-29,-21,-58c0,0,-10,-29,-19,-56L365,452ZM6,0V81H25c0,0,20,0,37,5c0,0,16,4,31,17c0,0,14,12,28,34c0,0,12,20,26,55l331,899H688L1007,191c0,0,11,-33,24,-53c0,0,12,-22,27,-34c0,0,13,-12,30,-17c0,0,15,-6,32,-6c1,0,2,0,3,0h27V0H646V81h60c0,0,10,0,23,4c0,0,11,2,21,10c0,0,9,7,15,18c0,0,6,12,6,27c0,0,0,19,-4,36c0,0,-5,16,-9,30L704,359H333L289,228c0,0,-7,-20,-12,-44c0,0,-7,-26,-7,-44c0,0,0,-15,6,-26c0,0,5,-11,16,-18c0,0,9,-8,22,-11c0,0,12,-4,25,-4h65V0Z" 
id="f0_1a"
transform="scale(0.001,-0.001)" />

<path d="M357,-14c-1,0,-3,0,-4,0c0,0,-83,0,-141,14c0,0,-60,12,-96,36c0,0,-37,23,-53,57c0,0,-17,32,-17,70c0,0,0,37,14,61c0,0,15,22,37,35c0,0,21,12,46,17c0,0,25,3,45,4c0,0,-1,-49,12,-86c0,0,12,-39,33,-64c0,0,21,-27,53,-41c0,0,28,-14,64,-14c1,0,2,0,3,0c0,0,39,0,68,8c0,0,28,7,47,23c0,0,18,14,27,34c0,0,9,17,9,39c0,0,0,25,-9,46c0,0,-10,18,-31,37c0,0,-22,16,-57,34c0,0,-38,16,-91,35c0,0,-62,21,-109,46c0,0,-48,24,-79,56c0,0,-33,30,-50,71c0,0,-17,38,-17,91c0,0,0,60,24,106c0,0,22,46,66,76c0,0,44,30,104,45c0,0,61,14,134,15c0,0,73,0,123,-12c0,0,50,-13,83,-33c0,0,32,-20,47,-45c0,0,14,-26,15,-52c0,0,0,-51,-36,-78c0,0,-37,-27,-120,-27c0,0,0,76,-33,119c0,0,-35,41,-101,41c0,0,-25,0,-47,-6c0,0,-24,-5,-40,-17c0,0,-17,-13,-26,-30c0,0,-11,-18,-11,-41c0,0,-1,-26,10,-44c0,0,9,-20,33,-37c0,0,23,-18,63,-36c0,0,40,-18,103,-39c0,0,50,-18,94,-40c0,0,43,-24,74,-53c0,0,30,-30,48,-67c0,0,16,-39,17,-86c0,0,-1,-65,-22,-114c0,0,-22,-50,-65,-84C598,56,555,21,494,4c0,0,-60,-18,-137,-18Z" 
id="f0_r"
transform="scale(0.001,-0.001)" />

<path d="M232,-11c0,0,-26,0,-49,7c0,0,-24,4,-40,19c0,0,-17,13,-27,37c0,0,-10,23,-9,58c0,0,-1,34,9,59c0,0,10,22,27,37c0,0,16,14,40,20c0,0,23,5,49,6c0,0,25,-1,48,-6c0,0,23,-6,40,-20c0,0,16,-15,28,-37c0,0,9,-25,9,-59c0,0,0,-35,-9,-58c0,0,-12,-24,-28,-37C320,15,303,0,280,-4c0,0,-23,-7,-48,-7Z" 
id="f0_n"
transform="scale(0.001,-0.001)" />

<path d="M562,-212c0,0,-127,52,-217,121c0,0,-91,68,-147,155c0,0,-58,87,-84,193c0,0,-27,104,-27,229c0,0,0,123,27,228c0,0,26,104,84,191c0,0,56,86,147,155c0,0,90,68,217,119v-96c0,0,-70,-47,-115,-112c0,0,-45,-66,-70,-143c0,0,-26,-78,-35,-164c0,0,-10,-88,-9,-178c0,0,-1,-91,9,-179c0,0,9,-88,35,-165c0,0,25,-79,70,-143c0,0,45,-67,115,-113v-98Z" 
id="f0_11"
transform="scale(0.001,-0.001)" />

<path d="M49,-212v98c0,0,70,46,116,113c0,0,44,64,70,143c0,0,24,77,34,165c0,0,9,88,9,179c0,0,0,90,-9,178c0,0,-10,86,-34,164c0,0,-26,77,-70,143c0,0,-46,65,-116,112v96c0,0,127,-51,218,-119c0,0,90,-69,148,-155c0,0,56,-87,83,-191c0,0,25,-105,26,-228c0,0,-1,-125,-26,-229c0,0,-27,-106,-83,-193c0,0,-58,-87,-148,-155c0,0,-91,-69,-218,-121Z" 
id="f0_12"
transform="scale(0.001,-0.001)" />

<path d="M229,0V64h35c0,0,25,0,49,4c0,0,22,3,39,13c0,0,17,10,28,32c0,0,9,20,9,53v849H243c0,0,-33,0,-56,-10c0,0,-24,-11,-37,-28c0,0,-15,-17,-22,-39c0,0,-8,-24,-10,-49l-8,-65H34v267H902V824H827l-8,65c0,0,-4,25,-10,49c0,0,-9,22,-22,39c0,0,-15,17,-37,28c0,0,-24,10,-58,10H544V174c0,0,0,-37,10,-58c0,0,10,-21,27,-32c0,0,16,-13,40,-16c0,0,22,-4,48,-4h35V0Z" 
id="f1_v"
transform="scale(0.001,-0.001)" />

<path d="M28,0V64H40c0,0,25,0,49,4c0,0,22,3,39,16c0,0,17,11,27,32c0,0,10,21,10,58V993c0,0,0,33,-10,54c0,0,-11,21,-27,32c0,0,-18,11,-40,15c0,0,-24,3,-48,3H28v64H308V825c0,0,0,-22,0,-43c0,0,-1,-24,-4,-43c0,0,0,-23,0,-44h6c0,0,68,139,225,139c0,0,65,-1,115,-17c0,0,50,-18,85,-54c0,0,34,-37,52,-93c0,0,18,-58,18,-135V174c0,0,0,-37,9,-58c0,0,9,-21,24,-32c0,0,16,-13,38,-16c0,0,21,-4,47,-4h4V0H662V527c0,0,0,50,-9,89c0,0,-10,39,-29,66c0,0,-20,26,-52,41c0,0,-33,13,-78,13c0,0,-49,0,-82,-17c0,0,-35,-18,-58,-50c0,0,-24,-33,-34,-78c0,0,-11,-46,-11,-102V166c0,0,0,-33,10,-53c0,0,10,-22,27,-32c0,0,17,-10,40,-13c0,0,22,-4,48,-4h5V0Z" 
id="f1_n"
transform="scale(0.001,-0.001)" />

<path d="M586,481c0,0,0,60,-9,111c0,0,-9,50,-29,85c0,0,-19,36,-51,56c0,0,-33,18,-79,19c0,0,-87,-1,-133,-69c0,0,-46,-69,-46,-202ZM439,-14c0,0,-83,0,-149,27c0,0,-66,28,-112,82c0,0,-46,53,-69,132c0,0,-25,77,-25,177c0,0,0,213,88,322c0,0,88,108,251,108c0,0,73,0,133,-23c0,0,58,-24,100,-69c0,0,41,-46,63,-114c0,0,21,-69,22,-159V399H233c0,0,0,-84,15,-143c0,0,15,-61,44,-99c0,0,28,-40,71,-57c0,0,40,-19,93,-19c1,0,2,0,4,0c0,0,38,0,73,9c0,0,33,9,62,24c0,0,26,14,48,34c0,0,21,18,35,40c0,0,10,-4,20,-19c0,0,9,-15,9,-33c0,0,0,-24,-16,-49c0,0,-17,-27,-50,-50C641,37,607,14,557,0c0,0,-50,-14,-118,-14Z" 
id="f1_7"
transform="scale(0.001,-0.001)" />

<path d="M367,-14c0,0,-59,0,-100,13c0,0,-42,10,-69,38c0,0,-27,27,-39,73c0,0,-14,45,-14,112V732H29v61c0,0,28,0,61,11c0,0,32,11,58,37c0,0,26,28,43,68c0,0,15,38,28,98h70V819H489V732H289V217c0,0,-1,-78,32,-115c0,0,30,-36,83,-36c0,0,1,0,1,0c0,0,2,0,6,0c9,0,28,0,45,3c0,0,23,3,47,7V9C503,9,492,4,477,0c0,0,-15,-3,-33,-6c0,0,-20,-5,-39,-6c0,0,-20,-2,-38,-2Z" 
id="f1_j"
transform="scale(0.001,-0.001)" />

<path d="M35,0V64H55c0,0,25,0,49,4c0,0,22,3,39,13c0,0,17,10,28,32c0,0,10,20,10,53V650c0,0,0,33,-10,55c0,0,-11,20,-28,31c0,0,-17,11,-39,15c0,0,-24,3,-49,4H51v64H324V174c0,0,0,-37,10,-58c0,0,10,-21,27,-32c0,0,16,-13,40,-16c0,0,22,-4,48,-4h20V0ZM249,972c-1,0,-2,0,-3,0c0,0,-1,0,-2,0c-5,0,-20,0,-32,5c0,0,-16,5,-28,16c0,0,-12,11,-18,29c0,0,-7,18,-7,45c0,0,0,27,7,45c0,0,6,17,18,29c0,0,12,11,28,15c0,0,15,5,34,5c0,0,18,0,34,-5c0,0,15,-4,27,-15c0,0,11,-12,19,-29c0,0,7,-18,7,-45c0,0,0,-27,-7,-45c0,0,-8,-18,-19,-29c0,0,-12,-11,-27,-16c0,0,-14,-5,-31,-5Z" 
id="f1_d"
transform="scale(0.001,-0.001)" />

<path d="M43,0V64H63c0,0,25,0,47,4c0,0,21,3,38,16c0,0,15,11,24,32c0,0,8,21,9,58V650c0,0,0,33,-9,55c0,0,-9,20,-25,31c0,0,-16,11,-37,15c0,0,-22,3,-47,4H58v64H298L318,695h7c0,0,23,42,49,70c0,0,25,27,54,43c0,0,28,14,61,21c0,0,31,5,67,5c0,0,36,0,71,-7c0,0,33,-9,62,-24c0,0,28,-17,52,-43c0,0,21,-27,36,-65h13c0,0,23,42,50,70c0,0,27,27,57,43c0,0,30,14,64,21c0,0,32,5,68,5c0,0,59,-1,105,-17c0,0,45,-18,78,-54c0,0,32,-37,49,-93c0,0,17,-58,18,-135V174c0,0,0,-37,9,-58c0,0,9,-21,24,-32c0,0,16,-13,37,-16c0,0,21,-4,47,-4h5V0H1135V527c0,0,0,50,-8,89c0,0,-9,39,-27,66c0,0,-21,26,-50,41c0,0,-32,13,-75,13c0,0,-48,0,-80,-18c0,0,-33,-19,-53,-50c0,0,-21,-31,-28,-72c0,0,-9,-42,-9,-87V174c0,0,0,-37,9,-58c0,0,9,-21,24,-32c0,0,16,-13,38,-16c0,0,21,-4,47,-4h4V0H662V527c0,0,-1,50,-9,89c0,0,-8,39,-27,66c0,0,-20,26,-50,41c0,0,-31,13,-75,13c0,0,-50,0,-83,-20c0,0,-35,-20,-55,-54c0,0,-22,-35,-30,-79c0,0,-9,-45,-9,-94V166c0,0,0,-33,10,-53c0,0,10,-22,27,-32c0,0,16,-10,40,-13c0,0,22,-4,48,-4h5V0Z" 
id="f1_o"
transform="scale(0.001,-0.001)" />

<path d="M518,83c0,0,50,0,86,21c0,0,35,21,58,63c0,0,23,41,33,104c0,0,10,61,11,142c0,0,-1,80,-11,142c0,0,-10,60,-33,101c0,0,-23,40,-58,60c0,0,-38,20,-88,20c0,0,-60,0,-99,-19c0,0,-41,-20,-64,-61c0,0,-24,-40,-34,-101c0,0,-10,-62,-10,-144c0,0,0,-80,10,-141c0,0,10,-62,35,-103c0,0,23,-42,64,-63c0,0,39,-21,100,-21ZM28,-366v64H40c0,0,25,0,49,4c0,0,22,3,39,16c0,0,17,11,27,33c0,0,10,21,10,58V650c0,0,0,33,-10,55c0,0,-11,20,-27,31c0,0,-18,11,-40,15c0,0,-24,3,-48,4H20v64H287L303,681h6c0,0,16,34,39,63c0,0,21,28,50,49c0,0,27,19,64,31c0,0,36,9,80,10c0,0,75,0,134,-25c0,0,58,-26,98,-76c0,0,38,-53,60,-132c0,0,20,-80,20,-190c0,0,0,-111,-20,-191c0,0,-22,-80,-60,-133c0,0,-40,-53,-98,-77c0,0,-57,-24,-131,-24c-1,0,-2,0,-3,0h-2c-8,0,-46,1,-77,10c0,0,-37,8,-65,26c0,0,-29,18,-50,43c0,0,-23,24,-39,54h-3c0,0,0,-39,0,-73c0,0,0,-15,0,-30c0,0,0,-15,0,-28c0,0,0,-14,0,-24c0,0,0,-11,0,-17V-199c0,0,0,-33,10,-54c0,0,10,-21,28,-31c0,0,17,-11,41,-14c0,0,23,-4,49,-4h5v-64Z" 
id="f1_c"
transform="scale(0.001,-0.001)" />

<path d="M51,0V64h4c0,0,26,0,49,4c0,0,23,3,40,16c0,0,16,11,27,32c0,0,10,21,10,58V650c0,0,0,33,-10,55c0,0,-11,20,-28,31c0,0,-17,11,-39,15c0,0,-24,3,-49,4H51v64H286L315,668h7c0,0,14,34,31,65c0,0,15,29,39,53c0,0,22,22,56,35c0,0,33,12,84,13c0,0,83,0,124,-29c0,0,41,-30,41,-82c0,0,0,-24,-8,-44c0,0,-9,-20,-25,-34c0,0,-17,-15,-44,-23c0,0,-27,-8,-66,-8c0,0,0,63,-18,92c0,0,-18,27,-62,27c0,0,-29,0,-51,-15c0,0,-22,-18,-39,-43c0,0,-17,-27,-28,-61c0,0,-13,-35,-19,-70c0,0,-8,-37,-10,-73c0,0,-4,-35,-3,-64V166c0,0,0,-33,10,-53c0,0,10,-22,27,-32c0,0,16,-10,40,-13c0,0,22,-4,48,-4h43V0Z" 
id="f1_6"
transform="scale(0.001,-0.001)" />

<path d="M442,64c0,0,56,0,97,23c0,0,38,22,64,66c0,0,24,43,36,108c0,0,9,65,10,150c0,0,0,85,-11,149c0,0,-11,64,-36,108c0,0,-25,42,-64,64c0,0,-41,21,-98,21c0,0,-58,0,-97,-21c0,0,-39,-22,-64,-64c0,0,-25,-44,-36,-108c0,0,-11,-64,-11,-149c0,0,0,-85,11,-150c0,0,11,-65,37,-108c0,0,24,-44,65,-66c0,0,38,-23,97,-23Zm-3,-78c0,0,-83,0,-149,25c0,0,-66,26,-111,79c0,0,-47,52,-70,134c0,0,-25,79,-25,187c0,0,0,213,91,319c0,0,90,103,268,104c0,0,82,0,149,-25c0,0,65,-26,111,-79c0,0,46,-53,71,-132c0,0,23,-80,23,-187c0,0,0,-216,-91,-321C706,90,614,-14,439,-14Z" 
id="f1_e"
transform="scale(0.001,-0.001)" />

<path d="M421,83c0,0,59,0,100,20c0,0,39,19,65,60c0,0,23,39,34,101c0,0,10,61,10,144c0,0,0,79,-10,141c0,0,-11,61,-34,103c0,0,-25,41,-65,63c0,0,-41,21,-101,21c0,0,-51,0,-86,-21c0,0,-36,-23,-58,-64c0,0,-24,-42,-34,-103c0,0,-10,-62,-10,-141c0,0,0,-163,44,-244c0,0,43,-80,145,-80ZM395,-14c-8,0,-78,1,-133,24c0,0,-59,24,-98,77c0,0,-39,52,-60,132c0,0,-20,79,-20,189c0,0,0,110,20,191c0,0,21,80,60,133c0,0,39,51,98,77c0,0,58,25,133,25c0,0,44,0,80,-10c0,0,36,-10,65,-27c0,0,28,-18,51,-43c0,0,21,-24,39,-54h4c0,0,0,36,0,70c0,0,0,27,0,57c0,0,0,27,0,41V993c0,0,-1,33,-10,54c0,0,-11,21,-29,32c0,0,-18,11,-41,15c0,0,-24,3,-49,3H492v64H773V168c0,0,0,-34,10,-54c0,0,10,-21,27,-32c0,0,17,-11,40,-14c0,0,22,-4,48,-4h13V0H652L636,137h-6c0,0,-18,-35,-39,-62c0,0,-23,-29,-51,-48C540,27,512,6,476,-3c0,0,-36,-11,-81,-11Z" 
id="f1_5"
transform="scale(0.001,-0.001)" />

<path d="M41,0V64H61c0,0,26,0,49,4c0,0,23,3,40,16c0,0,16,11,27,32c0,0,9,21,9,58V747H47v72H186v76c0,0,0,68,19,121c0,0,19,52,54,88c0,0,34,35,85,55c0,0,50,17,113,17c0,0,58,0,100,-7c0,0,41,-8,67,-22c0,0,24,-15,35,-34c0,0,12,-20,12,-43c0,0,0,-22,-9,-37c0,0,-11,-17,-26,-27c0,0,-18,-11,-40,-16c0,0,-24,-6,-51,-6c0,0,0,23,-4,45c0,0,-6,21,-17,39c0,0,-12,17,-31,28c0,0,-19,10,-48,10c0,0,-34,0,-55,-12c0,0,-22,-13,-36,-38c0,0,-13,-26,-18,-62c0,0,-6,-37,-6,-85V819H545V747H330V174c0,0,0,-37,10,-58c0,0,10,-21,27,-32c0,0,16,-13,40,-16c0,0,22,-4,48,-4h58V0Z" 
id="f1_s"
transform="scale(0.001,-0.001)" />

<path d="M348,79c0,0,46,0,85,15c0,0,36,14,64,42c0,0,25,27,40,66c0,0,14,39,14,87V412H454c0,0,-65,0,-109,-14c0,0,-44,-13,-70,-36c0,0,-27,-25,-39,-59c0,0,-12,-35,-11,-80c0,0,0,-73,30,-108c0,0,29,-36,93,-36ZM313,-14c0,0,-50,0,-94,14c0,0,-44,14,-75,45c0,0,-33,30,-50,77c0,0,-18,47,-18,109c0,0,0,123,87,182c0,0,85,59,261,60H551v93c0,0,0,42,-4,78c0,0,-5,34,-20,60c0,0,-15,26,-42,40c0,0,-28,14,-75,14c0,0,-44,0,-71,-12c0,0,-29,-13,-43,-35c0,0,-16,-23,-21,-53c0,0,-6,-31,-5,-66c0,0,-64,0,-96,21c0,0,-34,21,-34,75c0,0,0,39,22,67c0,0,21,28,60,45c0,0,36,17,87,26c0,0,49,7,107,8c0,0,69,0,122,-13c0,0,52,-15,87,-46c0,0,34,-31,53,-81c0,0,17,-52,17,-124V174c0,0,0,-33,5,-53c0,0,6,-22,17,-34c0,0,10,-12,30,-18c0,0,15,-5,38,-5c2,0,3,0,5,0h4V0H588L564,131H551c0,0,-24,-33,-46,-59c0,0,-22,-27,-49,-46C456,26,429,6,395,-3c0,0,-35,-11,-82,-11Z" 
id="f1_3"
transform="scale(0.001,-0.001)" />

<path d="M321,-14c0,0,-58,0,-104,11c0,0,-48,7,-80,29c0,0,-33,20,-50,51c0,0,-18,30,-18,70c0,0,0,30,10,51c0,0,10,20,25,33c0,0,14,11,31,17c0,0,16,4,30,4c0,0,0,-41,8,-75c0,0,8,-36,28,-61c0,0,18,-28,51,-42c0,0,31,-16,78,-16c0,0,41,0,72,11c0,0,31,9,53,28c0,0,21,18,32,44c0,0,11,25,11,56c0,0,0,28,-8,49c0,0,-9,20,-30,38c0,0,-21,17,-58,37c0,0,-37,18,-92,42c0,0,-59,26,-102,51c0,0,-45,23,-72,52c0,0,-29,28,-43,65c0,0,-15,35,-14,86c0,0,-1,52,21,92c0,0,20,40,58,68c0,0,38,26,91,41c0,0,52,15,118,15c0,0,54,0,96,-12c0,0,41,-11,70,-30c0,0,28,-19,43,-44c0,0,14,-27,14,-55c0,0,-1,-42,-28,-66c0,0,-29,-25,-80,-25c-1,0,-2,0,-2,0c0,0,0,76,-32,119c0,0,-32,42,-100,42c0,0,-39,0,-66,-9c0,0,-28,-9,-45,-25c0,0,-18,-17,-26,-39c0,0,-8,-22,-8,-49c0,0,0,-29,10,-50c0,0,10,-22,34,-39c0,0,22,-18,59,-35c0,0,36,-17,86,-38c0,0,60,-26,104,-50c0,0,43,-24,72,-54c0,0,27,-29,41,-65c0,0,13,-37,13,-84c0,0,-1,-60,-21,-105c0,0,-23,-45,-62,-74C539,46,499,14,445,0c0,0,-56,-14,-124,-14Z" 
id="f1_b"
transform="scale(0.001,-0.001)" />

<path d="M20,0V64H40c0,0,25,0,49,4c0,0,22,3,39,16c0,0,17,11,27,32c0,0,10,21,10,58V993c0,0,0,33,-10,54c0,0,-11,21,-27,32c0,0,-18,11,-40,15c0,0,-24,3,-48,3H20v64H309V174c0,0,-1,-37,10,-58c0,0,9,-21,26,-32c0,0,17,-13,41,-16c0,0,22,-4,48,-4h20V0Z" 
id="f1_q"
transform="scale(0.001,-0.001)" />

<path d="M43,0V64H55c0,0,26,0,49,4c0,0,23,3,40,16c0,0,16,11,27,32c0,0,10,21,10,58V650c0,0,0,33,-10,55c0,0,-11,20,-28,31c0,0,-17,11,-39,15c0,0,-24,3,-49,4H51v64H298L318,695h7c0,0,23,42,51,70c0,0,25,27,56,43c0,0,29,14,63,21c0,0,32,5,69,5c0,0,60,-1,108,-17c0,0,47,-18,81,-54c0,0,32,-37,50,-93c0,0,17,-58,18,-135V174c0,0,0,-37,9,-58c0,0,7,-21,23,-32c0,0,16,-13,38,-16c0,0,21,-4,47,-4h5V0H677V527c0,0,0,50,-9,89c0,0,-10,39,-29,66c0,0,-20,26,-52,41c0,0,-33,13,-78,13c0,0,-53,0,-88,-20c0,0,-36,-20,-57,-54c0,0,-22,-35,-31,-79c0,0,-10,-45,-9,-94V166c0,0,0,-33,10,-53c0,0,10,-22,27,-32c0,0,16,-10,40,-13c0,0,22,-4,48,-4h5V0Z" 
id="f1_4"
transform="scale(0.001,-0.001)" />

<path d="M417,-14c0,0,-60,0,-107,16c0,0,-47,17,-79,54c0,0,-33,36,-49,93c0,0,-17,57,-17,135V650c0,0,0,33,-10,55c0,0,-11,20,-27,31c0,0,-18,11,-40,15c0,0,-24,3,-48,4H35v64H309V292c0,0,0,-51,8,-89c0,0,7,-40,26,-66c0,0,18,-27,49,-40c0,0,29,-14,74,-14c1,0,2,0,3,0c0,0,50,0,88,18c0,0,35,18,59,50c0,0,23,32,34,78c0,0,12,46,12,101V645c0,0,0,35,-10,58c0,0,-10,21,-27,33c0,0,-17,11,-39,15c0,0,-24,3,-50,4h-4v64H805V166c0,0,0,-33,10,-53c0,0,10,-22,27,-32c0,0,17,-10,41,-13c0,0,21,-4,47,-4h5V0H692L672,124h-7c0,0,-24,-44,-51,-70c0,0,-28,-28,-60,-42c0,0,-31,-15,-65,-20c0,0,-35,-6,-72,-6Z" 
id="f1_i"
transform="scale(0.001,-0.001)" />

<path d="M46,-234v64c0,0,74,23,110,58c0,0,34,35,35,79c0,0,-1,15,-8,26c0,0,-9,8,-21,17c0,0,-13,6,-27,15c0,0,-15,7,-27,18c0,0,-13,9,-21,26c0,0,-8,14,-8,38c0,0,0,43,29,67c0,0,28,23,71,23c0,0,23,-1,45,-8c0,0,20,-9,37,-26c0,0,16,-17,26,-41c0,0,9,-27,9,-58c0,0,0,-48,-13,-93c0,0,-14,-46,-44,-84c0,0,-30,-40,-77,-70c0,0,-49,-31,-116,-51Z" 
id="f1_g"
transform="scale(0.001,-0.001)" />

<path d="M58,0V64H78c0,0,24,0,48,4c0,0,22,3,40,13c0,0,16,10,27,32c0,0,10,20,10,53V923c0,0,0,33,-10,54c0,0,-11,20,-27,32c0,0,-18,11,-40,14c0,0,-24,3,-48,3H58v65H832V824H756l-7,65c0,0,-4,26,-12,49c0,0,-9,23,-25,40c0,0,-17,16,-43,27c0,0,-26,10,-61,10H357V573H726V498H357V174c0,0,0,-37,11,-58c0,0,9,-21,27,-32c0,0,15,-13,39,-16c0,0,23,-4,49,-4h50V0Z" 
id="f1_1u"
transform="scale(0.001,-0.001)" />

<path d="M797,-9C786,-9,667,-9,611,19c0,0,-60,29,-101,128L411,391L272,303L210,0H67L266,944c0,0,14,68,14,81c0,0,0,72,-108,72H160l14,64H455L395,880c0,0,-82,-386,-118,-503L518,586c0,0,112,97,112,144c0,0,0,23,-68,23l14,65H914L900,753c0,0,-89,0,-246,-142L516,484L656,182c0,0,58,-128,154,-128c0,0,1,0,1,0L797,-9Z" 
id="f2_g"
transform="scale(0.001,-0.001)" />

<path d="M7,0V64H22c0,0,26,0,48,5c0,0,20,4,40,15c0,0,18,11,37,31c0,0,19,19,41,47L380,411L188,674c0,0,-34,38,-65,60c0,0,-33,21,-66,21H37v64H424V755h-4c0,0,-27,0,-43,-3c0,0,-17,-5,-27,-10c0,0,-11,-7,-14,-15c0,0,-3,-8,-3,-17c0,0,-1,-16,9,-30c0,0,9,-17,27,-40L469,503l79,114c0,0,17,25,28,49c0,0,10,23,10,44c0,0,0,28,-23,37c0,0,-24,7,-59,8h-4v64H834V755H821c0,0,-23,-1,-41,-4c0,0,-19,-4,-36,-14c0,0,-17,-11,-36,-30c0,0,-19,-20,-42,-50L509,448L733,145c0,0,34,-44,64,-62c0,0,29,-19,57,-19q1,0,2,0h20V0H481V64h8c0,0,91,0,91,51c0,0,0,7,-2,17c0,0,-2,8,-9,20c0,0,-7,11,-18,28c0,0,-11,16,-29,40L420,357L313,208c0,0,-6,-9,-14,-21c0,0,-8,-12,-13,-24c0,0,-7,-14,-10,-26c0,0,-4,-13,-4,-25c0,0,0,-27,22,-37c0,0,21,-11,73,-11h4V0Z" 
id="f1_m"
transform="scale(0.001,-0.001)" />

<path d="M1156,-14c-4,0,-64,1,-100,40c0,0,-38,40,-38,111c0,0,0,70,29,207l26,119c0,0,32,146,32,182c0,0,-1,90,-71,90c0,0,-78,-1,-162,-100c0,0,-84,-101,-117,-211L730,315c0,0,-10,-42,-27,-164C703,151,686,29,686,0H541c0,0,0,34,19,159c0,0,19,123,33,185l35,158c0,0,22,92,22,143c0,0,0,90,-70,90c0,0,-85,-1,-174,-116c0,0,-91,-116,-114,-228L210,0H67L195,614c0,0,9,42,9,69c0,0,0,72,-106,72H86l13,64H382L341,627h15c0,0,124,206,278,206c0,0,163,-1,163,-170c0,0,0,-19,-3,-36h15c0,0,124,206,279,206c0,0,163,-1,163,-170c0,0,0,-48,-28,-168L1184,315c0,0,-20,-89,-20,-161c0,0,0,-73,53,-73c0,0,44,0,98,35l28,-44c0,0,-98,-86,-187,-86Z" 
id="f2_7"
transform="scale(0.001,-0.001)" />

<path d="M223,-9c-1,0,-2,0,-3,0c0,0,-1,0,-2,0c-6,0,-22,0,-35,5c0,0,-19,4,-31,16c0,0,-13,12,-21,32c0,0,-8,20,-7,49c0,0,-1,30,7,50c0,0,8,19,21,32c0,0,12,11,31,17c0,0,16,5,37,5c0,0,19,0,37,-5c0,0,17,-6,31,-17c0,0,12,-13,21,-32c0,0,7,-20,7,-50c0,0,0,-29,-7,-49c0,0,-9,-20,-21,-32C288,12,274,0,257,-4c0,0,-16,-5,-34,-5Zm0,627c-1,0,-2,0,-3,0c0,0,-1,0,-2,0c-6,0,-22,1,-35,6c0,0,-19,5,-31,18c0,0,-13,11,-21,32c0,0,-8,20,-7,49c0,0,-1,30,7,50c0,0,8,18,21,31c0,0,12,11,31,17c0,0,16,6,37,6c0,0,19,0,37,-6c0,0,17,-6,31,-17c0,0,12,-13,21,-31c0,0,7,-20,7,-50c0,0,0,-29,-7,-49c0,0,-9,-21,-21,-32c0,0,-14,-13,-31,-18c0,0,-16,-6,-34,-6Z" 
id="f1_12"
transform="scale(0.001,-0.001)" />

<path d="M99,350v90H755V350Zm0,300v91H755V650Z" 
id="f1_14"
transform="scale(0.001,-0.001)" />

<path d="M557,-14c-2,0,-4,0,-6,0c0,0,-115,0,-200,39c0,0,-87,41,-145,115c0,0,-60,73,-89,177c0,0,-30,103,-30,230c0,0,0,124,32,227c0,0,31,103,93,176c0,0,61,73,153,115c0,0,92,41,212,41c0,0,79,0,137,-12c0,0,57,-14,96,-37c0,0,38,-24,58,-54c0,0,18,-32,18,-68c0,0,0,-26,-9,-44c0,0,-11,-20,-29,-34c0,0,-18,-15,-42,-21c0,0,-23,-8,-49,-8c-1,0,-2,0,-4,0c0,0,0,36,-9,71c0,0,-10,34,-30,63c0,0,-22,28,-55,46c0,0,-35,16,-85,17c0,0,-86,0,-147,-31c0,0,-60,-33,-98,-93c0,0,-39,-62,-55,-150c0,0,-17,-89,-17,-204c0,0,0,-102,18,-187c0,0,17,-85,56,-146c0,0,39,-62,99,-95c0,0,59,-33,144,-33c0,0,56,0,100,11c0,0,42,10,75,28c0,0,32,18,58,42c0,0,25,22,44,49c0,0,12,-9,21,-23c0,0,8,-15,8,-37c0,0,0,-29,-19,-59c0,0,-20,-31,-61,-55C800,42,759,17,698,1c0,0,-59,-15,-141,-15Z" 
id="f1_1v"
transform="scale(0.001,-0.001)" />

<path d="M58,0V64H78c0,0,25,0,49,4c0,0,22,3,39,16c0,0,17,11,27,32c0,0,10,21,10,58V923c0,0,0,33,-10,54c0,0,-11,20,-27,32c0,0,-18,11,-40,14c0,0,-24,3,-48,3H58v65H503v-65H483c0,0,-26,0,-49,-3c0,0,-24,-4,-39,-15c0,0,-18,-13,-27,-34c0,0,-11,-21,-11,-57V608H854V917c0,0,0,36,-10,57c0,0,-10,21,-26,34c0,0,-18,11,-40,15c0,0,-24,3,-49,3H709v65h444v-65h-19c0,0,-26,0,-49,-3c0,0,-23,-4,-40,-15c0,0,-17,-13,-27,-34c0,0,-10,-21,-9,-57V166c0,0,0,-33,10,-53c0,0,10,-22,27,-32c0,0,16,-10,40,-13c0,0,22,-4,48,-4h19V0H709V64h20c0,0,25,0,49,4c0,0,22,3,40,16c0,0,16,11,26,32c0,0,10,21,10,58V532H357V174c0,0,0,-37,11,-58c0,0,9,-21,27,-32c0,0,15,-13,39,-16c0,0,23,-4,49,-4h20V0Z" 
id="f1_9"
transform="scale(0.001,-0.001)" />

<path d="M433,-14c0,0,-77,0,-141,23c0,0,-64,23,-110,74c0,0,-46,50,-72,130c0,0,-26,79,-26,192c0,0,0,122,26,205c0,0,26,82,72,132c0,0,46,49,108,71c0,0,61,21,134,21c0,0,47,0,96,-9c0,0,47,-10,85,-29c0,0,38,-19,62,-49c0,0,23,-30,24,-69c0,0,0,-54,-35,-74c0,0,-35,-22,-102,-22c0,0,0,35,-6,68c0,0,-6,32,-20,56c0,0,-15,24,-39,38c0,0,-26,14,-65,14c0,0,-44,0,-79,-16c0,0,-35,-18,-61,-57c0,0,-26,-40,-39,-108c0,0,-13,-69,-13,-170c0,0,-1,-164,54,-243c0,0,54,-80,177,-80h1c6,0,72,1,123,30c0,0,52,30,79,77c0,0,11,-10,19,-24c0,0,7,-15,7,-36c0,0,0,-27,-16,-52c0,0,-17,-26,-49,-47C627,32,594,10,546,0c0,0,-48,-14,-113,-14Z" 
id="f1_f"
transform="scale(0.001,-0.001)" />

<path d="M140,0l14,64h35c0,0,77,0,107,27c0,0,30,25,40,75l180,849H370c0,0,-110,0,-153,-126L195,824H116l65,267h860L991,824H912c0,0,8,59,8,93c0,0,0,97,-101,98H671L490,168c0,0,-6,-28,-6,-43c0,0,-1,-61,109,-61c0,0,1,0,2,0h35L615,0Z" 
id="f2_4"
transform="scale(0.001,-0.001)" />

<path d="M518,83c0,0,50,0,86,21c0,0,35,21,58,63c0,0,23,41,33,104c0,0,10,61,11,142c0,0,-1,80,-11,142c0,0,-10,60,-33,101c0,0,-23,40,-58,60c0,0,-38,20,-88,20c0,0,-60,0,-99,-19c0,0,-41,-20,-64,-61c0,0,-24,-40,-34,-101c0,0,-10,-62,-10,-144c0,0,0,-80,10,-141c0,0,10,-62,35,-103c0,0,23,-42,64,-63c0,0,39,-21,100,-21Zm27,-97c-1,0,-2,0,-3,0h-2c-8,0,-46,1,-77,10c0,0,-37,8,-65,26c0,0,-29,18,-50,43c0,0,-23,24,-39,54H299L272,0H28V64H40c0,0,25,0,49,4c0,0,22,3,39,16c0,0,17,11,27,32c0,0,10,21,10,58V993c0,0,0,33,-10,54c0,0,-11,21,-27,32c0,0,-18,11,-40,15c0,0,-24,3,-48,3H28v64H306V880c0,0,0,-26,0,-59c0,0,0,-35,0,-66c0,0,0,-36,0,-74h3c0,0,16,34,39,63c0,0,21,28,50,49c0,0,27,19,64,31c0,0,36,9,80,10c0,0,75,0,134,-25c0,0,58,-26,98,-76c0,0,38,-53,60,-132c0,0,20,-80,20,-190c0,0,0,-111,-20,-191c0,0,-22,-80,-60,-133c0,0,-40,-53,-98,-77c0,0,-57,-24,-131,-24Z" 
id="f1_h"
transform="scale(0.001,-0.001)" />

<path d="M222,-9c-1,0,-2,0,-3,0c0,0,-1,0,-3,0c-6,0,-22,0,-35,5c0,0,-18,4,-30,16c0,0,-14,12,-21,32c0,0,-8,20,-8,49c0,0,0,30,8,50c0,0,7,19,21,32c0,0,12,11,30,17c0,0,17,5,38,5c0,0,18,0,37,-5c0,0,16,-6,30,-17c0,0,12,-13,21,-32c0,0,8,-20,8,-50c0,0,0,-29,-8,-49c0,0,-9,-20,-21,-32C286,12,272,0,256,-4c0,0,-17,-5,-34,-5Z" 
id="f1_t"
transform="scale(0.001,-0.001)" />

<path d="M540,99c1,0,2,0,2,0c3,0,76,1,109,82c0,0,34,81,34,233c0,0,0,155,-34,234c0,0,-33,76,-110,76c0,0,-46,0,-76,-18c0,0,-30,-20,-47,-58c0,0,-18,-40,-26,-97c0,0,-8,-60,-7,-138c0,0,-1,-76,7,-134c0,0,8,-60,26,-98c0,0,18,-41,48,-61c0,0,29,-21,74,-21ZM610,-14c-1,0,-2,0,-4,0h-1c-9,0,-47,1,-78,10c0,0,-37,8,-64,26c0,0,-30,18,-51,43c0,0,-23,24,-39,54H359L316,0H26V81H37c0,0,20,0,42,4c0,0,20,3,37,15c0,0,17,10,27,32c0,0,10,21,10,56V978c0,0,0,32,-10,53c0,0,-10,19,-26,31c0,0,-17,11,-38,14c0,0,-22,3,-47,4H26v81H383V900c0,0,0,-24,0,-56c0,0,0,-33,-3,-61c0,0,-4,-34,-7,-68h10c0,0,33,56,88,89c0,0,55,32,141,33c0,0,75,0,132,-25c0,0,57,-26,97,-76c0,0,39,-53,59,-132c0,0,20,-81,20,-191c0,0,0,-112,-20,-192c0,0,-22,-81,-61,-133c0,0,-39,-53,-97,-78c0,0,-59,-24,-132,-24Z" 
id="f0_13"
transform="scale(0.001,-0.001)" />

<path d="M58,0V64H78c0,0,25,0,49,4c0,0,22,3,39,16c0,0,17,11,27,32c0,0,10,21,10,58V917c0,0,0,36,-10,57c0,0,-10,21,-27,34c0,0,-17,11,-39,15c0,0,-24,3,-49,3H58v65H503v-65H483c0,0,-26,0,-49,-3c0,0,-24,-4,-39,-15c0,0,-18,-13,-27,-34c0,0,-11,-21,-11,-57V174c0,0,0,-37,11,-58c0,0,9,-21,27,-32c0,0,15,-13,39,-16c0,0,23,-4,49,-4h20V0Z" 
id="f1_11"
transform="scale(0.001,-0.001)" />

<path d="M351,-291c2,0,3,0,5,0c0,0,1,0,2,0c12,0,84,1,134,15c0,0,52,13,84,38c0,0,31,23,44,58c0,0,12,34,13,74c0,0,0,35,-10,59c0,0,-11,22,-30,35c0,0,-20,12,-49,17c0,0,-29,5,-67,5H327c0,0,-33,0,-62,-5c0,0,-31,-5,-54,-20c0,0,-24,-17,-38,-44c0,0,-15,-29,-14,-74c0,0,0,-34,9,-63c0,0,9,-29,31,-50c0,0,23,-22,61,-33c0,0,35,-12,91,-12Zm34,658c0,0,1,0,1,0c0,0,37,0,64,11c0,0,24,11,42,35c0,0,15,22,23,59c0,0,7,35,7,86c0,0,0,103,-31,152c0,0,-31,49,-106,49c0,0,-74,0,-105,-50c0,0,-33,-50,-32,-153c0,0,0,-98,32,-143c0,0,32,-46,105,-46ZM353,-366c-8,0,-162,1,-239,59c0,0,-80,59,-79,164c0,0,0,45,16,78c0,0,15,34,42,58c0,0,26,22,61,38c0,0,34,14,72,21c0,0,-16,7,-31,18c0,0,-14,11,-26,27c0,0,-13,16,-20,36c0,0,-8,20,-7,45c0,0,0,45,24,79c0,0,23,32,76,64c0,0,-33,13,-58,37c0,0,-27,23,-44,54c0,0,-18,30,-27,65c0,0,-10,36,-9,74c0,0,0,66,18,119c0,0,18,51,53,89c0,0,36,36,90,56c0,0,53,18,126,19c0,0,28,-1,54,-4c0,0,26,-4,50,-11c0,0,22,-8,41,-16c0,0,18,-9,29,-19c0,0,12,12,27,27c0,0,14,14,33,27c0,0,19,12,41,20c0,0,21,7,47,8c0,0,23,-1,40,-6c0,0,17,-7,28,-17c0,0,11,-11,17,-25c0,0,5,-15,5,-31c0,0,0,-17,-4,-31c0,0,-6,-15,-15,-25c0,0,-10,-12,-25,-17c0,0,-15,-7,-36,-7c0,0,0,9,-2,18c0,0,-3,9,-8,17c0,0,-6,7,-16,13c0,0,-10,4,-25,4c0,0,-19,0,-35,-4c0,0,-16,-5,-31,-14c0,0,26,-33,44,-76c0,0,16,-44,16,-109c0,0,-1,-57,-17,-105c0,0,-17,-48,-51,-82c0,0,-35,-36,-86,-56c0,0,-52,-19,-121,-19H348c0,0,-11,0,-21,1c0,0,-10,1,-15,3c0,0,-15,-9,-29,-17c0,0,-13,-9,-23,-20c0,0,-11,-11,-16,-25c0,0,-6,-15,-6,-32c0,0,-1,-19,7,-29c0,0,7,-12,20,-18c0,0,12,-7,30,-8c0,0,17,-2,38,-2H506c0,0,68,-1,116,-17c0,0,48,-17,78,-47c0,0,30,-32,44,-73c0,0,14,-41,14,-90c0,0,-1,-67,-24,-119c0,0,-25,-53,-75,-89c0,0,-50,-38,-126,-58c0,0,-77,-20,-180,-20Z" 
id="f1_l"
transform="scale(0.001,-0.001)" />

<path d="M365,0L119,674c0,0,-9,23,-18,39c0,0,-11,15,-23,26c0,0,-12,8,-29,12c0,0,-17,3,-39,4H6v64H388V755H369c0,0,-47,0,-69,-18c0,0,-24,-18,-23,-56c0,0,-1,-13,3,-25c0,0,3,-14,9,-31L392,336c0,0,10,-26,21,-58c0,0,9,-33,20,-65c0,0,8,-31,16,-59c0,0,7,-29,11,-47h5c0,0,3,16,12,41c0,0,8,23,20,53c0,0,10,27,22,58c0,0,11,29,22,57L650,614c0,0,8,19,12,36c0,0,3,16,3,30c0,0,0,38,-25,57c0,0,-26,18,-76,18H553v64H880V755H862c0,0,-23,0,-38,-5c0,0,-17,-6,-29,-18c0,0,-12,-14,-24,-37c0,0,-12,-24,-26,-59L504,0Z" 
id="f1_r"
transform="scale(0.001,-0.001)" />

<path d="M-31,0l12,64H0c0,0,72,0,103,25c0,0,31,24,45,77L309,923c0,0,5,27,6,42c0,0,0,61,-111,61H185l13,65H968L920,824H840l3,26c0,0,1,15,2,27c0,0,3,25,3,35c0,0,0,102,-115,103H483L388,573H756L741,498H373L304,174c0,0,-6,-25,-5,-38c0,0,-1,-72,106,-72h50L443,0Z" 
id="f2_5"
transform="scale(0.001,-0.001)" />

<path d="M-6,365v90H771V365Z" 
id="f1_1p"
transform="scale(0.001,-0.001)" />

<path d="M284,-291q1,0,2,0c7,0,136,1,205,50c0,0,70,50,70,134c0,0,-1,99,-142,111L270,19c0,0,-11,0,-66,-16c0,0,-56,-15,-94,-57c0,0,-40,-43,-40,-104c0,0,-1,-133,214,-133ZM407,362c0,0,87,0,141,87c0,0,52,86,53,190c0,0,0,125,-106,125c0,0,-89,0,-141,-87c0,0,-53,-89,-53,-190c0,0,-1,-125,106,-125ZM280,-366c0,0,-333,0,-333,199c0,0,0,81,66,140c0,0,66,56,182,79c0,0,-73,36,-73,105c0,0,0,47,31,80c0,0,30,32,114,76c0,0,-107,50,-107,181c0,0,0,128,98,235c0,0,96,105,257,105c0,0,97,-1,157,-48c0,0,72,108,165,108c0,0,77,0,77,-70c0,0,0,-95,-89,-95q-1,0,-1,0c0,0,0,54,-43,55c0,0,-31,-1,-75,-35c0,0,33,-49,33,-118c0,0,0,-129,-96,-235c0,0,-96,-107,-254,-107c0,0,-2,0,-7,0c-11,0,-31,0,-41,3c0,0,-109,-44,-109,-97c0,0,0,-38,78,-45L457,134c0,0,237,-26,237,-199c0,0,0,-142,-108,-221c0,0,-107,-80,-306,-80Z" 
id="f2_6"
transform="scale(0.001,-0.001)" />

<path d="M351,63c0,0,187,0,295,490H249c0,0,-30,-149,-30,-264c0,0,-1,-110,36,-168c0,0,37,-58,96,-58ZM660,625c0,0,26,144,26,247c0,0,0,217,-136,217c0,0,-179,0,-286,-464ZM348,-14q-1,0,-1,0c0,0,-126,0,-194,101c0,0,-69,102,-69,292c0,0,0,296,130,543c0,0,130,245,342,245c0,0,135,0,206,-99c0,0,69,-100,69,-287c0,0,0,-281,-133,-538C698,243,565,-14,348,-14Z" 
id="f2_j"
transform="scale(0.001,-0.001)" />

<path d="M421,0L142,946c0,0,-8,23,-17,39c0,0,-10,16,-22,25c0,0,-13,9,-30,13c0,0,-17,3,-39,3H13v65H434v-65H399c0,0,-46,0,-69,-17c0,0,-23,-18,-23,-56c0,0,0,-12,4,-26c0,0,3,-14,8,-30L460,408c0,0,18,-70,36,-136c0,0,16,-68,30,-122c0,0,11,59,27,130c0,0,14,71,35,144l182,656H880L1071,419c0,0,21,-77,39,-146c0,0,16,-71,27,-123c0,0,11,54,26,116c0,0,13,61,35,135l134,471c0,0,2,9,6,20c0,0,3,11,5,23c0,0,2,10,4,20c0,0,1,10,2,17c0,0,0,39,-25,57c0,0,-26,17,-76,17h-35v65h373v-65h-29c0,0,-23,0,-39,-4c0,0,-17,-5,-31,-17c0,0,-13,-13,-24,-36c0,0,-11,-24,-23,-61L1182,0H1045L796,856L562,0Z" 
id="f1_1a"
transform="scale(0.001,-0.001)" />

<path d="M465,553c0,0,67,0,112,15c0,0,44,14,71,44c0,0,26,30,39,75c0,0,11,45,11,104c0,0,-1,61,-12,105c0,0,-14,42,-41,70c0,0,-29,27,-74,40c0,0,-46,12,-110,12H357V553ZM982,0C963,0,909,0,873,5c0,0,-46,5,-79,20c0,0,-32,15,-54,42c0,0,-24,26,-49,70L484,481H357V166c0,0,0,-33,11,-53c0,0,9,-22,27,-32c0,0,16,-10,40,-13c0,0,22,-4,48,-4h20V0H58V64H78c0,0,24,0,48,4c0,0,22,3,40,13c0,0,16,10,27,32c0,0,10,20,10,53V923c0,0,0,33,-10,54c0,0,-11,20,-27,32c0,0,-18,11,-40,14c0,0,-24,3,-48,3H58v65H469c0,0,198,-1,296,-73c0,0,97,-74,97,-222c0,0,-1,-62,-20,-107c0,0,-20,-46,-52,-80c0,0,-33,-33,-72,-55c0,0,-41,-23,-81,-36L847,186c0,0,38,-61,75,-91c0,0,37,-31,85,-31h5V0H990c0,0,-3,0,-8,0Z" 
id="f1_1o"
transform="scale(0.001,-0.001)" />

<path d="M58,0V64H78c0,0,24,0,48,4c0,0,22,3,40,13c0,0,16,10,27,32c0,0,10,20,10,53V923c0,0,0,33,-10,54c0,0,-11,20,-27,32c0,0,-18,11,-40,14c0,0,-24,3,-48,3H58v65H407L723,217l313,874h339v-65h-20c0,0,-26,0,-48,-3c0,0,-24,-4,-40,-15c0,0,-17,-13,-27,-34c0,0,-11,-21,-10,-57V174c0,0,-1,-37,10,-58c0,0,10,-21,27,-32c0,0,16,-13,40,-16c0,0,22,-4,48,-4h20V0H968V64h6c0,0,24,0,44,4c0,0,20,3,34,13c0,0,14,10,22,29c0,0,8,19,8,50V976L733,0H650L296,974V174c0,0,-1,-37,8,-58c0,0,7,-21,22,-32c0,0,13,-13,35,-16c0,0,19,-4,46,-4h4V0Z" 
id="f1_a"
transform="scale(0.001,-0.001)" />

<path d="M683,442L588,709c0,0,-25,68,-43,127c0,0,-21,59,-33,114c0,0,-6,-28,-12,-53c0,0,-8,-26,-16,-53c0,0,-9,-26,-19,-55c0,0,-10,-31,-23,-66L338,442ZM0,0V64H29c0,0,1,0,3,0c6,0,23,1,35,5c0,0,16,5,28,18c0,0,12,13,25,37c0,0,11,22,25,60l339,907H604L949,145c0,0,8,-23,19,-39c0,0,8,-16,21,-25c0,0,12,-10,29,-13c0,0,17,-4,39,-4h20V0H657V64h35c0,0,92,0,92,73c0,0,0,12,-3,26c0,0,-4,14,-10,31L710,365H309L251,204c0,0,-8,-18,-11,-35c0,0,-4,-18,-4,-30c0,0,0,-40,26,-57c0,0,24,-18,76,-18h35V0Z" 
id="f1_w"
transform="scale(0.001,-0.001)" />

<path d="M58,-366v72h1c8,0,79,1,133,23c0,0,55,24,97,64c0,0,39,40,68,95c0,0,26,55,45,118L119,674c0,0,-10,23,-20,39c0,0,-10,14,-21,25c0,0,-13,9,-29,13c0,0,-17,3,-39,4H6v64H373V755h-4c0,0,-47,0,-69,-18c0,0,-24,-18,-23,-56c0,0,-1,-13,3,-25c0,0,2,-14,9,-31L401,353c0,0,9,-27,22,-57c0,0,11,-31,22,-61c0,0,9,-31,18,-57c0,0,7,-28,11,-47h4c0,0,8,34,23,82c0,0,14,48,34,103L637,614c0,0,7,19,11,36c0,0,2,16,2,30c0,0,0,38,-24,57c0,0,-26,18,-76,18h-5v64H863V755h-4c0,0,-23,0,-38,-5c0,0,-18,-6,-30,-18c0,0,-13,-14,-24,-37c0,0,-11,-24,-25,-59L510,-5c0,0,-27,-74,-50,-130c0,0,-25,-56,-50,-95c0,0,-27,-41,-57,-67c0,0,-32,-26,-71,-41c0,0,-40,-17,-91,-22c0,0,-51,-6,-119,-6Z" 
id="f1_x"
transform="scale(0.001,-0.001)" />

<path d="M452,373V875L97,373ZM452,0V267H23v95l470,671h82V373H711V267H575V0Z" 
id="f3_o"
transform="scale(0.001,-0.001)" />

<path d="M405,24c0,0,65,0,116,62c0,0,51,61,51,174c0,0,0,128,-50,221c0,0,-51,93,-144,93c0,0,-29,0,-61,-12c0,0,-33,-12,-96,-51c0,0,-14,-101,-14,-163c0,0,0,-72,27,-155c0,0,26,-84,79,-134c0,0,38,-35,92,-35ZM384,-17c0,0,-104,0,-177,68C207,51,66,185,66,397c0,0,0,136,54,258c0,0,54,122,156,217c0,0,101,95,193,128c0,0,93,33,172,33h44v-28c0,0,-99,-10,-161,-39c0,0,-62,-29,-123,-90c0,0,-61,-60,-101,-135c0,0,-39,-74,-66,-176c0,0,107,73,215,73c0,0,104,0,180,-83c0,0,76,-84,76,-215c0,0,0,-126,-77,-231c0,0,-92,-126,-244,-126Z" 
id="f3_q"
transform="scale(0.001,-0.001)" />


</defs>
</svg>