<?xml version="1.0" encoding="UTF-8" standalone="no"?>
<!DOCTYPE svg PUBLIC "-//W3C//DTD SVG 1.1//EN"
"http://www.w3.org/Graphics/SVG/1.1/DTD/svg11.dtd">
<svg viewBox="0 0 909 1286" version="1.1" xmlns="http://www.w3.org/2000/svg" xmlns:xlink="http://www.w3.org/1999/xlink">
<defs>
<clipPath id="c0_138"><path d="M35.1,1194.7V113.1H873.9V1194.7Z" /></clipPath>
</defs>
<g clip-path="url(#c0_138)">
<g fill="#000000" >
<use xlink:href="#f0_25" transform="matrix(12,0,0,12,47.4,142.1)" />
<use xlink:href="#f0_1o" transform="matrix(12,0,0,12,58.5,142.1)" />
<use xlink:href="#f0_z" transform="matrix(10,0,0,10,72.1,146.7)" />
<use xlink:href="#f0_r" transform="matrix(12,0,0,12,85.4,142.1)" />
<use xlink:href="#f0_x" transform="matrix(12,0,0,12,100.4,142.1)" />
<use xlink:href="#f0_1g" transform="matrix(12,0,0,12,110.6,142.1)" />
<use xlink:href="#f0_19" transform="matrix(12,0,0,12,120.8,142.1)" />
<use xlink:href="#f0_m" transform="matrix(12,0,0,12,131.1,142.1)" />
<use xlink:href="#f0_19" transform="matrix(12,0,0,12,136.3,142.1)" />
<use xlink:href="#f0_1i" transform="matrix(12,0,0,12,146.5,142.1)" />
<use xlink:href="#f0_1g" transform="matrix(12,0,0,12,156.8,142.1)" />
<use xlink:href="#f0_x" transform="matrix(12,0,0,12,167,142.1)" />
<use xlink:href="#f0_1f" transform="matrix(12,0,0,12,177.3,142.1)" />
<use xlink:href="#f0_1l" transform="matrix(10,0,0,10,187.5,134.4)" />
<use xlink:href="#f0_2d" transform="matrix(12,0,0,12,196,142.1)" />
<use xlink:href="#f0_2e" transform="matrix(12,0,0,12,202.6,142.1)" />
<use xlink:href="#f0_1v" transform="matrix(12,0,0,12,207.8,142.1)" />
<use xlink:href="#f0_i" transform="matrix(12,0,0,12,218.6,142.1)" />
<use xlink:href="#f0_25" transform="matrix(12,0,0,12,47.4,204.7)" />
<use xlink:href="#f0_1o" transform="matrix(12,0,0,12,58.5,204.7)" />
<use xlink:href="#f0_z" transform="matrix(10,0,0,10,72.1,209.3)" />
<use xlink:href="#f0_r" transform="matrix(12,0,0,12,80.6,204.7)" />
<use xlink:href="#f0_19" transform="matrix(12,0,0,12,90.9,204.7)" />
<use xlink:href="#f0_m" transform="matrix(12,0,0,12,101.1,204.7)" />
<use xlink:href="#f0_19" transform="matrix(12,0,0,12,106.3,204.7)" />
<use xlink:href="#f0_1i" transform="matrix(12,0,0,12,116.6,204.7)" />
<use xlink:href="#f0_1g" transform="matrix(12,0,0,12,126.8,204.7)" />
<use xlink:href="#f0_x" transform="matrix(12,0,0,12,137,204.7)" />
<use xlink:href="#f0_1f" transform="matrix(12,0,0,12,147.3,204.7)" />
<use xlink:href="#f0_1l" transform="matrix(10,0,0,10,157.5,197.1)" />
<use xlink:href="#f0_2d" transform="matrix(12,0,0,12,166,204.7)" />
<use xlink:href="#f0_25" transform="matrix(12,0,0,12,47.4,261.3)" />
<use xlink:href="#f0_1o" transform="matrix(12,0,0,12,58.5,261.3)" />
<use xlink:href="#f0_z" transform="matrix(10,0,0,10,72.1,265.8)" />
<use xlink:href="#f0_r" transform="matrix(12,0,0,12,85.4,261.3)" />
<use xlink:href="#f0_19" transform="matrix(12,0,0,12,100.4,261.3)" />
<use xlink:href="#f0_19" transform="matrix(12,0,0,12,110.6,261.3)" />
<use xlink:href="#f0_1i" transform="matrix(12,0,0,12,120.8,261.3)" />
<use xlink:href="#f0_1f" transform="matrix(12,0,0,12,131.1,261.3)" />
<use xlink:href="#f0_1f" transform="matrix(12,0,0,12,141.3,261.3)" />
<use xlink:href="#f0_1f" transform="matrix(12,0,0,12,151.6,261.3)" />
<use xlink:href="#f0_2d" transform="matrix(12,0,0,12,161.8,261.3)" />
<use xlink:href="#f1_1r" transform="matrix(12,0,0,12,47.4,323.9)" />
<use xlink:href="#f1_15" transform="matrix(12,0,0,12,54.7,323.9)" />
<use xlink:href="#f1_1h" transform="matrix(12,0,0,12,64.9,323.9)" />
<use xlink:href="#f0_1a" transform="matrix(12,0,0,12,77,323.9)" />
<use xlink:href="#f0_6" transform="matrix(12,0,0,12,91.5,323.9)" />
<use xlink:href="#f0_h" transform="matrix(12,0,0,12,101.4,323.9)" />
<use xlink:href="#f0_8" transform="matrix(12,0,0,12,111.7,323.9)" />
<use xlink:href="#f0_g" transform="matrix(12,0,0,12,122.9,323.9)" />
<use xlink:href="#f0_6" transform="matrix(12,0,0,12,131.5,323.9)" />
<use xlink:href="#f0_1c" transform="matrix(12,0,0,12,141.3,323.9)" />
<use xlink:href="#f0_b" transform="matrix(12,0,0,12,152.5,323.9)" />
<use xlink:href="#f0_3" transform="matrix(12,0,0,12,164.2,323.9)" />
<use xlink:href="#f0_g" transform="matrix(12,0,0,12,170,323.9)" />
<use xlink:href="#f0_6" transform="matrix(12,0,0,12,178.6,323.9)" />
<use xlink:href="#f0_c" transform="matrix(12,0,0,12,188.4,323.9)" />
<use xlink:href="#f0_8" transform="matrix(12,0,0,12,204.4,323.9)" />
<use xlink:href="#f0_d" transform="matrix(12,0,0,12,210.9,323.9)" />
<use xlink:href="#f0_g" transform="matrix(12,0,0,12,226.2,323.9)" />
<use xlink:href="#f0_h" transform="matrix(12,0,0,12,234.8,323.9)" />
<use xlink:href="#f0_3" transform="matrix(12,0,0,12,245.1,323.9)" />
<use xlink:href="#f0_a" transform="matrix(12,0,0,12,251,323.9)" />
<use xlink:href="#f0_6" transform="matrix(12,0,0,12,259.2,323.9)" />
<use xlink:href="#f0_8" transform="matrix(12,0,0,12,273.8,323.9)" />
<use xlink:href="#f0_9" transform="matrix(12,0,0,12,280.2,323.9)" />
<use xlink:href="#f0_6" transform="matrix(12,0,0,12,291.9,323.9)" />
<use xlink:href="#f0_8" transform="matrix(12,0,0,12,306.4,323.9)" />
<use xlink:href="#f0_6" transform="matrix(12,0,0,12,312.9,323.9)" />
<use xlink:href="#f0_e" transform="matrix(12,0,0,12,322.7,323.9)" />
<use xlink:href="#f0_f" transform="matrix(12,0,0,12,340,323.9)" />
<use xlink:href="#f0_6" transform="matrix(12,0,0,12,351.2,323.9)" />
<use xlink:href="#f0_g" transform="matrix(12,0,0,12,361.1,323.9)" />
<use xlink:href="#f0_h" transform="matrix(12,0,0,12,369.7,323.9)" />
<use xlink:href="#f0_8" transform="matrix(12,0,0,12,380,323.9)" />
<use xlink:href="#f0_b" transform="matrix(12,0,0,12,386.4,323.9)" />
<use xlink:href="#f0_g" transform="matrix(12,0,0,12,398.1,323.9)" />
<use xlink:href="#f0_6" transform="matrix(12,0,0,12,406.7,323.9)" />
<use xlink:href="#f0_d" transform="matrix(12,0,0,12,421.2,323.9)" />
<use xlink:href="#f0_j" transform="matrix(12,0,0,12,431.8,323.9)" />
<use xlink:href="#f0_17" transform="matrix(12,0,0,12,443.3,323.9)" />
<use xlink:href="#f0_h" transform="matrix(12,0,0,12,459.1,323.9)" />
<use xlink:href="#f0_8" transform="matrix(12,0,0,12,469.4,323.9)" />
<use xlink:href="#f0_6" transform="matrix(12,0,0,12,475.8,323.9)" />
<use xlink:href="#f0_g" transform="matrix(12,0,0,12,485.7,323.9)" />
<use xlink:href="#f0_j" transform="matrix(12,0,0,12,499,323.9)" />
<use xlink:href="#f0_g" transform="matrix(12,0,0,12,505.8,323.9)" />
<use xlink:href="#f0_d" transform="matrix(12,0,0,12,514.4,323.9)" />
<use xlink:href="#f0_e" transform="matrix(12,0,0,12,525,323.9)" />
<use xlink:href="#f0_1f" transform="matrix(12,0,0,12,547,323.9)" />
<use xlink:href="#f0_1f" transform="matrix(10,0,0,10,557.3,316.3)" />
<use xlink:href="#f0_5" transform="matrix(12,0,0,12,565.8,323.9)" />
<use xlink:href="#f0_8" transform="matrix(12,0,0,12,579.6,323.9)" />
<use xlink:href="#f0_d" transform="matrix(12,0,0,12,586,323.9)" />
<use xlink:href="#f0_x" transform="matrix(12,0,0,12,601.3,323.9)" />
<use xlink:href="#f0_1f" transform="matrix(12,0,0,12,611.6,323.9)" />
<use xlink:href="#f0_1f" transform="matrix(12,0,0,12,621.8,323.9)" />
<use xlink:href="#f0_1f" transform="matrix(10,0,0,10,632.1,316.3)" />
<use xlink:href="#f0_5" transform="matrix(12,0,0,12,640.6,323.9)" />
<use xlink:href="#f0_1d" transform="matrix(12,0,0,12,649.6,323.9)" />
<use xlink:href="#f0_w" transform="matrix(12,0,0,12,654.9,323.9)" />
<use xlink:href="#f0_25" transform="matrix(12,0,0,12,47.4,380.4)" />
<use xlink:href="#f0_t" transform="matrix(12,0,0,12,58.5,380.4)" />
<use xlink:href="#f0_r" transform="matrix(12,0,0,12,74.4,380.4)" />
<use xlink:href="#f0_t" transform="matrix(12,0,0,12,89.4,380.4)" />
<use xlink:href="#f0_z" transform="matrix(12,0,0,12,100.7,380.4)" />
<use xlink:href="#f0_w" transform="matrix(12,0,0,12,110.9,380.4)" />
<use xlink:href="#f0_t" transform="matrix(12,0,0,12,116.6,380.4)" />
<use xlink:href="#f0_x" transform="matrix(12,0,0,12,127.8,380.4)" />
<use xlink:href="#f0_r" transform="matrix(12,0,0,12,142.8,380.4)" />
<use xlink:href="#f0_x" transform="matrix(12,0,0,12,157.8,380.4)" />
<use xlink:href="#f0_1f" transform="matrix(12,0,0,12,168,380.4)" />
<use xlink:href="#f0_1f" transform="matrix(12,0,0,12,178.3,380.4)" />
<use xlink:href="#f0_w" transform="matrix(12,0,0,12,188.5,380.4)" />
<use xlink:href="#f0_1f" transform="matrix(12,0,0,12,194.2,380.4)" />
<use xlink:href="#f0_r" transform="matrix(12,0,0,12,204.4,380.4)" />
<use xlink:href="#f0_x" transform="matrix(12,0,0,12,214.7,380.4)" />
<use xlink:href="#f0_1f" transform="matrix(12,0,0,12,224.9,380.4)" />
<use xlink:href="#f0_1f" transform="matrix(12,0,0,12,235.2,380.4)" />
<use xlink:href="#f0_1f" transform="matrix(10,0,0,10,245.4,372.8)" />
<use xlink:href="#f0_5" transform="matrix(12,0,0,12,253.9,380.4)" />
<use xlink:href="#f0_25" transform="matrix(12,0,0,12,47.4,430.8)" />
<use xlink:href="#f0_1o" transform="matrix(12,0,0,12,58.5,430.8)" />
<use xlink:href="#f0_19" transform="matrix(10,0,0,10,72.1,435.4)" />
<use xlink:href="#f0_r" transform="matrix(12,0,0,12,84.6,430.8)" />
<use xlink:href="#f0_5" transform="matrix(12,0,0,12,99.6,430.8)" />
<use xlink:href="#f0_e" transform="matrix(12,0,0,12,108.6,430.8)" />
<use xlink:href="#f0_25" transform="matrix(12,0,0,12,125.9,430.8)" />
<use xlink:href="#f0_t" transform="matrix(12,0,0,12,137,430.8)" />
<use xlink:href="#f0_5" transform="matrix(12,0,0,12,148.2,430.8)" />
<use xlink:href="#f0_r" transform="matrix(12,0,0,12,162,430.8)" />
<use xlink:href="#f0_a" transform="matrix(12,0,0,12,177,430.8)" />
<use xlink:href="#f0_f" transform="matrix(12,0,0,12,185.3,430.8)" />
<use xlink:href="#f0_6" transform="matrix(12,0,0,12,196.5,430.8)" />
<use xlink:href="#f0_5" transform="matrix(12,0,0,12,206.3,430.8)" />
<use xlink:href="#f0_3" transform="matrix(12,0,0,12,215.3,430.8)" />
<use xlink:href="#f0_j" transform="matrix(12,0,0,12,221.2,430.8)" />
<use xlink:href="#f0_3" transform="matrix(12,0,0,12,227.9,430.8)" />
<use xlink:href="#f0_5" transform="matrix(12,0,0,12,233.8,430.8)" />
<use xlink:href="#f0_9" transform="matrix(12,0,0,12,247.6,430.8)" />
<use xlink:href="#f0_6" transform="matrix(12,0,0,12,259.2,430.8)" />
<use xlink:href="#f0_h" transform="matrix(12,0,0,12,269,430.8)" />
<use xlink:href="#f0_8" transform="matrix(12,0,0,12,279.3,430.8)" />
<use xlink:href="#f0_d" transform="matrix(12,0,0,12,290.5,430.8)" />
<use xlink:href="#f0_j" transform="matrix(12,0,0,12,301.1,430.8)" />
<use xlink:href="#f0_17" transform="matrix(12,0,0,12,312.6,430.8)" />
<use xlink:href="#f0_h" transform="matrix(12,0,0,12,328.4,430.8)" />
<use xlink:href="#f0_8" transform="matrix(12,0,0,12,338.7,430.8)" />
<use xlink:href="#f0_6" transform="matrix(12,0,0,12,345.1,430.8)" />
<use xlink:href="#f0_g" transform="matrix(12,0,0,12,354.9,430.8)" />
<use xlink:href="#f0_r" transform="matrix(12,0,0,12,47.4,487.4)" />
<use xlink:href="#f0_1b" transform="matrix(12,0,0,12,62.3,487.4)" />
<use xlink:href="#f0_z" transform="matrix(12,0,0,12,72.6,487.4)" />
<use xlink:href="#f0_1f" transform="matrix(12,0,0,12,82.8,487.4)" />
<use xlink:href="#f0_1f" transform="matrix(12,0,0,12,93.1,487.4)" />
<use xlink:href="#f0_1g" transform="matrix(12,0,0,12,103.3,487.4)" />
<use xlink:href="#f0_x" transform="matrix(12,0,0,12,113.6,487.4)" />
<use xlink:href="#f0_1g" transform="matrix(12,0,0,12,123.8,487.4)" />
<use xlink:href="#f0_x" transform="matrix(12,0,0,12,134,487.4)" />
<use xlink:href="#f0_1f" transform="matrix(12,0,0,12,144.3,487.4)" />
<use xlink:href="#f0_1f" transform="matrix(12,0,0,12,154.5,487.4)" />
<use xlink:href="#f0_r" transform="matrix(12,0,0,12,47.4,537.8)" />
<use xlink:href="#f0_1b" transform="matrix(12,0,0,12,62.3,537.8)" />
<use xlink:href="#f0_z" transform="matrix(12,0,0,12,72.6,537.8)" />
<use xlink:href="#f0_1f" transform="matrix(12,0,0,12,82.8,537.8)" />
<use xlink:href="#f0_o" transform="matrix(12,0,0,12,93.1,537.8)" />
<use xlink:href="#f0_1f" transform="matrix(12,0,0,12,97.7,537.8)" />
<use xlink:href="#f0_1f" transform="matrix(12,0,0,12,107.9,537.8)" />
<use xlink:href="#f0_1f" transform="matrix(12,0,0,12,118.1,537.8)" />
<use xlink:href="#f0_2d" transform="matrix(12,0,0,12,128.4,537.8)" />
<use xlink:href="#f1_1r" transform="matrix(12,0,0,12,47.4,594.3)" />
<use xlink:href="#f1_19" transform="matrix(12,0,0,12,54.7,594.3)" />
<use xlink:href="#f1_1h" transform="matrix(12,0,0,12,64.9,594.3)" />
<use xlink:href="#f0_1a" transform="matrix(12,0,0,12,77,594.3)" />
<use xlink:href="#f0_6" transform="matrix(12,0,0,12,91.5,594.3)" />
<use xlink:href="#f0_h" transform="matrix(12,0,0,12,101.4,594.3)" />
<use xlink:href="#f0_8" transform="matrix(12,0,0,12,111.7,594.3)" />
<use xlink:href="#f0_g" transform="matrix(12,0,0,12,122.9,594.3)" />
<use xlink:href="#f0_6" transform="matrix(12,0,0,12,131.5,594.3)" />
<use xlink:href="#f0_1c" transform="matrix(12,0,0,12,141.3,594.3)" />
<use xlink:href="#f0_b" transform="matrix(12,0,0,12,152.5,594.3)" />
<use xlink:href="#f0_3" transform="matrix(12,0,0,12,164.2,594.3)" />
<use xlink:href="#f0_g" transform="matrix(12,0,0,12,170,594.3)" />
<use xlink:href="#f0_6" transform="matrix(12,0,0,12,178.6,594.3)" />
<use xlink:href="#f0_c" transform="matrix(12,0,0,12,188.4,594.3)" />
<use xlink:href="#f0_8" transform="matrix(12,0,0,12,204.4,594.3)" />
<use xlink:href="#f0_d" transform="matrix(12,0,0,12,210.9,594.3)" />
<use xlink:href="#f0_5" transform="matrix(12,0,0,12,226.2,594.3)" />
<use xlink:href="#f0_d" transform="matrix(12,0,0,12,235.2,594.3)" />
<use xlink:href="#f0_4" transform="matrix(12,0,0,12,245.8,594.3)" />
<use xlink:href="#f0_11" transform="matrix(12,0,0,12,257.6,594.3)" />
<use xlink:href="#f0_6" transform="matrix(12,0,0,12,268.2,594.3)" />
<use xlink:href="#f0_g" transform="matrix(12,0,0,12,278,594.3)" />
<use xlink:href="#f0_8" transform="matrix(12,0,0,12,286.6,594.3)" />
<use xlink:href="#f0_x" transform="matrix(12,0,0,12,297.8,594.3)" />
<use xlink:href="#f0_1f" transform="matrix(12,0,0,12,308.1,594.3)" />
<use xlink:href="#f0_1f" transform="matrix(12,0,0,12,318.3,594.3)" />
<use xlink:href="#f0_1f" transform="matrix(10,0,0,10,328.6,586.7)" />
<use xlink:href="#f0_5" transform="matrix(12,0,0,12,337.1,594.3)" />
<use xlink:href="#f0_17" transform="matrix(12,0,0,12,350.9,594.3)" />
<use xlink:href="#f0_h" transform="matrix(12,0,0,12,366.6,594.3)" />
<use xlink:href="#f0_8" transform="matrix(12,0,0,12,376.9,594.3)" />
<use xlink:href="#f0_6" transform="matrix(12,0,0,12,383.4,594.3)" />
<use xlink:href="#f0_g" transform="matrix(12,0,0,12,393.2,594.3)" />
<use xlink:href="#f0_8" transform="matrix(12,0,0,12,406.6,594.3)" />
<use xlink:href="#f0_d" transform="matrix(12,0,0,12,413,594.3)" />
<use xlink:href="#f0_a" transform="matrix(12,0,0,12,428.3,594.3)" />
<use xlink:href="#f0_8" transform="matrix(12,0,0,12,436.6,594.3)" />
<use xlink:href="#f0_6" transform="matrix(12,0,0,12,443,594.3)" />
<use xlink:href="#f0_h" transform="matrix(12,0,0,12,452.9,594.3)" />
<use xlink:href="#f0_e" transform="matrix(12,0,0,12,463.2,594.3)" />
<use xlink:href="#f0_h" transform="matrix(12,0,0,12,485.2,594.3)" />
<use xlink:href="#f0_8" transform="matrix(12,0,0,12,495.5,594.3)" />
<use xlink:href="#f0_x" transform="matrix(12,0,0,12,511.5,594.3)" />
<use xlink:href="#f0_1f" transform="matrix(12,0,0,12,521.7,594.3)" />
<use xlink:href="#f0_1f" transform="matrix(12,0,0,12,532,594.3)" />
<use xlink:href="#f0_1f" transform="matrix(10,0,0,10,542.2,586.7)" />
<use xlink:href="#f0_5" transform="matrix(12,0,0,12,550.7,594.3)" />
<use xlink:href="#f0_25" transform="matrix(12,0,0,12,47.4,650.8)" />
<use xlink:href="#f0_1o" transform="matrix(12,0,0,12,58.5,650.8)" />
<use xlink:href="#f0_1b" transform="matrix(10,0,0,10,72.1,655.4)" />
<use xlink:href="#f0_r" transform="matrix(12,0,0,12,85.4,650.8)" />
<use xlink:href="#f0_e" transform="matrix(12,0,0,12,100.3,650.8)" />
<use xlink:href="#f0_1n" transform="matrix(12,0,0,12,117.7,650.8)" />
<use xlink:href="#f0_1n" transform="matrix(12,0,0,12,143.3,650.8)" />
<use xlink:href="#f0_r" transform="matrix(12,0,0,12,159.5,650.8)" />
<use xlink:href="#f0_1n" transform="matrix(12,0,0,12,174.5,650.8)" />
<use xlink:href="#f0_h" transform="matrix(12,0,0,12,185.9,650.8)" />
<use xlink:href="#f0_8" transform="matrix(12,0,0,12,196.2,650.8)" />
<use xlink:href="#f0_6" transform="matrix(12,0,0,12,202.6,650.8)" />
<use xlink:href="#f0_4" transform="matrix(12,0,0,12,212.4,650.8)" />
<use xlink:href="#f0_8" transform="matrix(12,0,0,12,224.3,650.8)" />
<use xlink:href="#f0_9" transform="matrix(12,0,0,12,235.5,650.8)" />
<use xlink:href="#f0_6" transform="matrix(12,0,0,12,247.1,650.8)" />
<use xlink:href="#f0_h" transform="matrix(12,0,0,12,256.9,650.8)" />
<use xlink:href="#f0_8" transform="matrix(12,0,0,12,267.2,650.8)" />
<use xlink:href="#f0_d" transform="matrix(12,0,0,12,278.4,650.8)" />
<use xlink:href="#f0_j" transform="matrix(12,0,0,12,289,650.8)" />
<use xlink:href="#f0_11" transform="matrix(12,0,0,12,300.5,650.8)" />
<use xlink:href="#f0_h" transform="matrix(12,0,0,12,311.1,650.8)" />
<use xlink:href="#f0_f" transform="matrix(12,0,0,12,321.4,650.8)" />
<use xlink:href="#f0_d" transform="matrix(12,0,0,12,332.6,650.8)" />
<use xlink:href="#f0_b" transform="matrix(12,0,0,12,343.2,650.8)" />
<use xlink:href="#f0_g" transform="matrix(12,0,0,12,354.8,650.8)" />
<use xlink:href="#f0_3" transform="matrix(12,0,0,12,363.5,650.8)" />
<use xlink:href="#f0_a" transform="matrix(12,0,0,12,369.3,650.8)" />
<use xlink:href="#f0_h" transform="matrix(12,0,0,12,377.6,650.8)" />
<use xlink:href="#f0_8" transform="matrix(12,0,0,12,387.9,650.8)" />
<use xlink:href="#f0_3" transform="matrix(12,0,0,12,394.3,650.8)" />
<use xlink:href="#f0_d" transform="matrix(12,0,0,12,400.2,650.8)" />
<use xlink:href="#f0_4" transform="matrix(12,0,0,12,410.8,650.8)" />
<use xlink:href="#f0_r" transform="matrix(12,0,0,12,432.1,650.8)" />
<use xlink:href="#f0_z" transform="matrix(12,0,0,12,447.1,650.8)" />
<use xlink:href="#f0_m" transform="matrix(12,0,0,12,457.3,650.8)" />
<use xlink:href="#f0_z" transform="matrix(12,0,0,12,462.5,650.8)" />
<use xlink:href="#f0_1l" transform="matrix(12,0,0,12,472.8,650.8)" />
<use xlink:href="#f0_1g" transform="matrix(12,0,0,12,483,650.8)" />
<use xlink:href="#f0_x" transform="matrix(12,0,0,12,493.3,650.8)" />
<use xlink:href="#f0_1f" transform="matrix(12,0,0,12,503.5,650.8)" />
<use xlink:href="#f0_1i" transform="matrix(10,0,0,10,513.7,643.2)" />
<use xlink:href="#f0_2d" transform="matrix(12,0,0,12,522.3,650.8)" />
<use xlink:href="#f0_2e" transform="matrix(12,0,0,12,528.8,650.8)" />
<use xlink:href="#f0_1v" transform="matrix(12,0,0,12,534.1,650.8)" />
<use xlink:href="#f0_i" transform="matrix(12,0,0,12,544.8,650.8)" />
<use xlink:href="#f0_25" transform="matrix(12,0,0,12,47.4,713.5)" />
<use xlink:href="#f0_1o" transform="matrix(12,0,0,12,58.5,713.5)" />
<use xlink:href="#f0_1b" transform="matrix(10,0,0,10,72.1,718.1)" />
<use xlink:href="#f0_r" transform="matrix(12,0,0,12,85.4,713.5)" />
<use xlink:href="#f0_x" transform="matrix(12,0,0,12,100.3,713.5)" />
<use xlink:href="#f0_1g" transform="matrix(12,0,0,12,110.6,713.5)" />
<use xlink:href="#f0_z" transform="matrix(12,0,0,12,120.8,713.5)" />
<use xlink:href="#f0_m" transform="matrix(12,0,0,12,131.1,713.5)" />
<use xlink:href="#f0_z" transform="matrix(12,0,0,12,136.3,713.5)" />
<use xlink:href="#f0_1l" transform="matrix(12,0,0,12,146.5,713.5)" />
<use xlink:href="#f0_1g" transform="matrix(12,0,0,12,156.8,713.5)" />
<use xlink:href="#f0_x" transform="matrix(12,0,0,12,167,713.5)" />
<use xlink:href="#f0_1f" transform="matrix(12,0,0,12,177.3,713.5)" />
<use xlink:href="#f0_1i" transform="matrix(10,0,0,10,187.5,705.8)" />
<use xlink:href="#f0_2d" transform="matrix(12,0,0,12,196,713.5)" />
<use xlink:href="#f0_24" transform="matrix(12,0,0,12,202.6,713.5)" />
<use xlink:href="#f0_1v" transform="matrix(12,0,0,12,212.8,713.5)" />
<use xlink:href="#f0_i" transform="matrix(12,0,0,12,223.5,713.5)" />
<use xlink:href="#f0_25" transform="matrix(12,0,0,12,47.4,770)" />
<use xlink:href="#f0_1o" transform="matrix(12,0,0,12,58.5,770)" />
<use xlink:href="#f0_1b" transform="matrix(10,0,0,10,72.1,774.6)" />
<use xlink:href="#f0_r" transform="matrix(12,0,0,12,85.4,770)" />
<use xlink:href="#f0_z" transform="matrix(12,0,0,12,100.3,770)" />
<use xlink:href="#f0_z" transform="matrix(12,0,0,12,110.6,770)" />
<use xlink:href="#f0_1l" transform="matrix(12,0,0,12,120.8,770)" />
<use xlink:href="#f0_1f" transform="matrix(12,0,0,12,131.1,770)" />
<use xlink:href="#f0_1f" transform="matrix(12,0,0,12,141.3,770)" />
<use xlink:href="#f0_1f" transform="matrix(12,0,0,12,151.6,770)" />
<use xlink:href="#f0_1f" transform="matrix(12,0,0,12,161.8,770)" />
<use xlink:href="#f0_2d" transform="matrix(12,0,0,12,172,770)" />
<use xlink:href="#f2_2" transform="matrix(12,0,0,12,47.4,826.5)" />
<use xlink:href="#f0_t" transform="matrix(12,0,0,12,63.8,826.5)" />
<use xlink:href="#f0_d" transform="matrix(12,0,0,12,75,826.5)" />
<use xlink:href="#f0_8" transform="matrix(12,0,0,12,85.5,826.5)" />
<use xlink:href="#f0_h" transform="matrix(12,0,0,12,92,826.5)" />
<use xlink:href="#f0_l" transform="matrix(12,0,0,12,102.3,826.5)" />
<use xlink:href="#f0_1a" transform="matrix(12,0,0,12,112.7,826.5)" />
<use xlink:href="#f0_6" transform="matrix(12,0,0,12,127.3,826.5)" />
<use xlink:href="#f0_h" transform="matrix(12,0,0,12,137.1,826.5)" />
<use xlink:href="#f0_8" transform="matrix(12,0,0,12,147.4,826.5)" />
<use xlink:href="#f0_g" transform="matrix(12,0,0,12,158.6,826.5)" />
<use xlink:href="#f0_6" transform="matrix(12,0,0,12,167.2,826.5)" />
<use xlink:href="#f0_1c" transform="matrix(12,0,0,12,177,826.5)" />
<use xlink:href="#f0_b" transform="matrix(12,0,0,12,188.3,826.5)" />
<use xlink:href="#f0_3" transform="matrix(12,0,0,12,199.9,826.5)" />
<use xlink:href="#f0_g" transform="matrix(12,0,0,12,205.7,826.5)" />
<use xlink:href="#f0_6" transform="matrix(12,0,0,12,214.4,826.5)" />
<use xlink:href="#f0_c" transform="matrix(12,0,0,12,224.2,826.5)" />
<use xlink:href="#f0_r" transform="matrix(12,0,0,12,240.2,826.5)" />
<use xlink:href="#f0_25" transform="matrix(12,0,0,12,255.2,826.5)" />
<use xlink:href="#f0_1o" transform="matrix(12,0,0,12,266.3,826.5)" />
<use xlink:href="#f0_x" transform="matrix(10,0,0,10,279.9,831.1)" />
<use xlink:href="#f0_1k" transform="matrix(12,0,0,12,288.4,826.5)" />
<use xlink:href="#f0_25" transform="matrix(12,0,0,12,298.6,826.5)" />
<use xlink:href="#f0_1o" transform="matrix(12,0,0,12,309.8,826.5)" />
<use xlink:href="#f0_z" transform="matrix(10,0,0,10,323.4,831.1)" />
<use xlink:href="#f0_1k" transform="matrix(12,0,0,12,331.9,826.5)" />
<use xlink:href="#f0_25" transform="matrix(12,0,0,12,342.1,826.5)" />
<use xlink:href="#f0_1o" transform="matrix(12,0,0,12,353.3,826.5)" />
<use xlink:href="#f0_19" transform="matrix(10,0,0,10,366.9,831.1)" />
<use xlink:href="#f0_1k" transform="matrix(12,0,0,12,375.4,826.5)" />
<use xlink:href="#f0_25" transform="matrix(12,0,0,12,385.6,826.5)" />
<use xlink:href="#f0_1o" transform="matrix(12,0,0,12,396.8,826.5)" />
<use xlink:href="#f0_1b" transform="matrix(10,0,0,10,410.4,831.1)" />
<use xlink:href="#f0_25" transform="matrix(12,0,0,12,47.4,883.1)" />
<use xlink:href="#f0_1o" transform="matrix(12,0,0,12,58.5,883.1)" />
<use xlink:href="#f0_8" transform="matrix(12,0,0,12,76.8,883.1)" />
<use xlink:href="#f0_d" transform="matrix(12,0,0,12,83.3,883.1)" />
<use xlink:href="#f0_8" transform="matrix(12,0,0,12,93.9,883.1)" />
<use xlink:href="#f0_h" transform="matrix(12,0,0,12,100.3,883.1)" />
<use xlink:href="#f0_l" transform="matrix(12,0,0,12,110.6,883.1)" />
<use xlink:href="#f0_r" transform="matrix(12,0,0,12,121,883.1)" />
<use xlink:href="#f0_z" transform="matrix(12,0,0,12,136,883.1)" />
<use xlink:href="#f0_x" transform="matrix(12,0,0,12,146.3,883.1)" />
<use xlink:href="#f0_1f" transform="matrix(12,0,0,12,156.5,883.1)" />
<use xlink:href="#f0_1f" transform="matrix(12,0,0,12,166.8,883.1)" />
<use xlink:href="#f0_1f" transform="matrix(12,0,0,12,177,883.1)" />
<use xlink:href="#f0_1k" transform="matrix(12,0,0,12,187.2,883.1)" />
<use xlink:href="#f0_19" transform="matrix(12,0,0,12,197.5,883.1)" />
<use xlink:href="#f0_19" transform="matrix(12,0,0,12,207.7,883.1)" />
<use xlink:href="#f0_1i" transform="matrix(12,0,0,12,218,883.1)" />
<use xlink:href="#f0_1f" transform="matrix(12,0,0,12,228.2,883.1)" />
<use xlink:href="#f0_1f" transform="matrix(12,0,0,12,238.4,883.1)" />
<use xlink:href="#f0_1f" transform="matrix(12,0,0,12,248.7,883.1)" />
<use xlink:href="#f0_1k" transform="matrix(12,0,0,12,258.9,883.1)" />
<use xlink:href="#f0_1b" transform="matrix(12,0,0,12,269.2,883.1)" />
<use xlink:href="#f0_z" transform="matrix(12,0,0,12,279.4,883.1)" />
<use xlink:href="#f0_1f" transform="matrix(12,0,0,12,289.6,883.1)" />
<use xlink:href="#f0_1f" transform="matrix(12,0,0,12,299.9,883.1)" />
<use xlink:href="#f0_1f" transform="matrix(12,0,0,12,310.1,883.1)" />
<use xlink:href="#f0_1f" transform="matrix(12,0,0,12,320.4,883.1)" />
<use xlink:href="#f0_1k" transform="matrix(12,0,0,12,330.6,883.1)" />
<use xlink:href="#f0_z" transform="matrix(12,0,0,12,340.9,883.1)" />
<use xlink:href="#f0_z" transform="matrix(12,0,0,12,351.1,883.1)" />
<use xlink:href="#f0_1l" transform="matrix(12,0,0,12,361.3,883.1)" />
<use xlink:href="#f0_1f" transform="matrix(12,0,0,12,371.6,883.1)" />
<use xlink:href="#f0_1f" transform="matrix(12,0,0,12,381.8,883.1)" />
<use xlink:href="#f0_1f" transform="matrix(12,0,0,12,392.1,883.1)" />
<use xlink:href="#f0_1f" transform="matrix(12,0,0,12,402.3,883.1)" />
<use xlink:href="#f0_25" transform="matrix(12,0,0,12,47.4,933.5)" />
<use xlink:href="#f0_1o" transform="matrix(12,0,0,12,58.5,933.5)" />
<use xlink:href="#f0_8" transform="matrix(12,0,0,12,76.8,933.5)" />
<use xlink:href="#f0_d" transform="matrix(12,0,0,12,83.3,933.5)" />
<use xlink:href="#f0_8" transform="matrix(12,0,0,12,93.9,933.5)" />
<use xlink:href="#f0_h" transform="matrix(12,0,0,12,100.3,933.5)" />
<use xlink:href="#f0_l" transform="matrix(12,0,0,12,110.6,933.5)" />
<use xlink:href="#f0_r" transform="matrix(12,0,0,12,121,933.5)" />
<use xlink:href="#f0_19" transform="matrix(12,0,0,12,136,933.5)" />
<use xlink:href="#f0_1f" transform="matrix(12,0,0,12,146.3,933.5)" />
<use xlink:href="#f0_z" transform="matrix(12,0,0,12,156.5,933.5)" />
<use xlink:href="#f0_1h" transform="matrix(12,0,0,12,166.8,933.5)" />
<use xlink:href="#f0_1f" transform="matrix(12,0,0,12,177,933.5)" />
<use xlink:href="#f0_1f" transform="matrix(12,0,0,12,187.2,933.5)" />
<use xlink:href="#f0_1f" transform="matrix(12,0,0,12,197.5,933.5)" />
<use xlink:href="#f0_2d" transform="matrix(12,0,0,12,207.7,933.5)" />
<use xlink:href="#f0_25" transform="matrix(12,0,0,12,47.4,990)" />
<use xlink:href="#f0_1o" transform="matrix(12,0,0,12,58.5,990)" />
<use xlink:href="#f0_8" transform="matrix(12,0,0,12,76.8,990)" />
<use xlink:href="#f0_d" transform="matrix(12,0,0,12,83.3,990)" />
<use xlink:href="#f0_8" transform="matrix(12,0,0,12,93.9,990)" />
<use xlink:href="#f0_h" transform="matrix(12,0,0,12,100.3,990)" />
<use xlink:href="#f0_l" transform="matrix(12,0,0,12,110.6,990)" />
<use xlink:href="#f0_r" transform="matrix(12,0,0,12,121,990)" />
<use xlink:href="#f0_19" transform="matrix(12,0,0,12,136,990)" />
<use xlink:href="#f0_m" transform="matrix(12,0,0,12,146.3,990)" />
<use xlink:href="#f0_1f" transform="matrix(12,0,0,12,151.5,990)" />
<use xlink:href="#f0_z" transform="matrix(12,0,0,12,161.7,990)" />
<use xlink:href="#f0_1h" transform="matrix(12,0,0,12,172,990)" />
<use xlink:href="#f0_23" transform="matrix(12,0,0,12,182.2,990)" />
<use xlink:href="#f0_x" transform="matrix(12,0,0,12,192.8,990)" />
<use xlink:href="#f0_1f" transform="matrix(12,0,0,12,203.1,990)" />
<use xlink:href="#f0_1i" transform="matrix(10,0,0,10,213.3,982.4)" />
<use xlink:href="#f0_2d" transform="matrix(12,0,0,12,221.8,990)" />
<use xlink:href="#f1_15" transform="matrix(12,0,0,12,47.4,1060.3)" />
<use xlink:href="#f1_1a" transform="matrix(12,0,0,12,57.6,1060.3)" />
<use xlink:href="#f1_n" transform="matrix(12,0,0,12,67.8,1060.3)" />
<use xlink:href="#f1_11" transform="matrix(12,0,0,12,78.1,1060.3)" />
<use xlink:href="#f1_u" transform="matrix(12,0,0,12,97.7,1060.3)" />
<use xlink:href="#f1_g" transform="matrix(12,0,0,12,109.9,1060.3)" />
<use xlink:href="#f1_7" transform="matrix(12,0,0,12,125.3,1060.3)" />
<use xlink:href="#f1_s" transform="matrix(12,0,0,12,131.7,1060.3)" />
<use xlink:href="#f1_f" transform="matrix(12,0,0,12,145.4,1060.3)" />
<use xlink:href="#f1_5" transform="matrix(12,0,0,12,163.5,1060.3)" />
<use xlink:href="#f1_6" transform="matrix(12,0,0,12,173.9,1060.3)" />
<use xlink:href="#f1_o" transform="matrix(12,0,0,12,183.5,1060.3)" />
<use xlink:href="#f1_m" transform="matrix(12,0,0,12,193.1,1060.3)" />
<use xlink:href="#f1_6" transform="matrix(12,0,0,12,205.4,1060.3)" />
<use xlink:href="#f1_g" transform="matrix(12,0,0,12,214.9,1060.3)" />
<use xlink:href="#f1_m" transform="matrix(12,0,0,12,230.3,1060.3)" />
<use xlink:href="#f1_s" transform="matrix(12,0,0,12,242.5,1060.3)" />
<use xlink:href="#f1_5" transform="matrix(12,0,0,12,251.4,1060.3)" />
<use xlink:href="#f1_a" transform="matrix(12,0,0,12,261.9,1060.3)" />
<use xlink:href="#f1_7" transform="matrix(12,0,0,12,278.5,1060.3)" />
<use xlink:href="#f1_d" transform="matrix(12,0,0,12,285,1060.3)" />
<use xlink:href="#f1_f" transform="matrix(12,0,0,12,301.9,1060.3)" />
<use xlink:href="#f1_3" transform="matrix(12,0,0,12,320,1060.3)" />
<use xlink:href="#f1_z" transform="matrix(12,0,0,12,331,1060.3)" />
<use xlink:href="#f1_7" transform="matrix(12,0,0,12,342.6,1060.3)" />
<use xlink:href="#f1_d" transform="matrix(12,0,0,12,349.1,1060.3)" />
<use xlink:href="#f1_l" transform="matrix(12,0,0,12,361.3,1060.3)" />
<use xlink:href="#f1_4" transform="matrix(12,0,0,12,376.3,1060.3)" />
<use xlink:href="#f1_u" transform="matrix(12,0,0,12,383.7,1060.3)" />
<use xlink:href="#f1_5" transform="matrix(12,0,0,12,395.9,1060.3)" />
<use xlink:href="#f1_6" transform="matrix(12,0,0,12,406.4,1060.3)" />
<use xlink:href="#f1_f" transform="matrix(12,0,0,12,416,1060.3)" />
<use xlink:href="#f1_b" transform="matrix(12,0,0,12,434,1060.3)" />
<use xlink:href="#f1_f" transform="matrix(12,0,0,12,445.3,1060.3)" />
<use xlink:href="#f1_5" transform="matrix(12,0,0,12,463.3,1060.3)" />
<use xlink:href="#f1_4" transform="matrix(12,0,0,12,473.8,1060.3)" />
<use xlink:href="#f1_5" transform="matrix(12,0,0,12,481.2,1060.3)" />
<use xlink:href="#f1_6" transform="matrix(12,0,0,12,491.6,1060.3)" />
<use xlink:href="#f1_s" transform="matrix(12,0,0,12,501.2,1060.3)" />
<use xlink:href="#f1_12" transform="matrix(12,0,0,12,510.1,1060.3)" />
<use xlink:href="#f1_13" transform="matrix(12,0,0,12,47.4,1110.7)" />
<use xlink:href="#f1_d" transform="matrix(12,0,0,12,61.1,1110.7)" />
<use xlink:href="#f1_s" transform="matrix(12,0,0,12,73.4,1110.7)" />
<use xlink:href="#f1_n" transform="matrix(12,0,0,12,82.3,1110.7)" />
<use xlink:href="#f0_21" transform="matrix(12,0,0,12,92.6,1110.7)" />
<use xlink:href="#f0_6" transform="matrix(12,0,0,12,109.8,1110.7)" />
<use xlink:href="#f0_g" transform="matrix(12,0,0,12,119.6,1110.7)" />
<use xlink:href="#f0_5" transform="matrix(12,0,0,12,128.2,1110.7)" />
<use xlink:href="#f0_b" transform="matrix(12,0,0,12,137.3,1110.7)" />
<use xlink:href="#f0_g" transform="matrix(12,0,0,12,148.9,1110.7)" />
<use xlink:href="#f0_v" transform="matrix(12,0,0,12,157.5,1110.7)" />
<use xlink:href="#f0_3" transform="matrix(12,0,0,12,172.6,1110.7)" />
<use xlink:href="#f0_a" transform="matrix(12,0,0,12,178.4,1110.7)" />
<use xlink:href="#f0_b" transform="matrix(12,0,0,12,191.4,1110.7)" />
<use xlink:href="#f0_a" transform="matrix(12,0,0,12,203.1,1110.7)" />
<use xlink:href="#f0_6" transform="matrix(12,0,0,12,211.3,1110.7)" />
<use xlink:href="#f0_c" transform="matrix(12,0,0,12,221.1,1110.7)" />
<use xlink:href="#f0_3" transform="matrix(12,0,0,12,237.1,1110.7)" />
<use xlink:href="#f0_4" transform="matrix(12,0,0,12,243,1110.7)" />
<use xlink:href="#f0_e" transform="matrix(12,0,0,12,259.5,1110.7)" />
<use xlink:href="#f0_h" transform="matrix(12,0,0,12,276.9,1110.7)" />
<use xlink:href="#f0_1v" transform="matrix(12,0,0,12,287.2,1110.7)" />
<use xlink:href="#f0_3" transform="matrix(12,0,0,12,297.9,1110.7)" />
<use xlink:href="#f0_4" transform="matrix(12,0,0,12,303.7,1110.7)" />
<use xlink:href="#f0_i" transform="matrix(12,0,0,12,315.5,1110.7)" />
<use xlink:href="#f0_8" transform="matrix(12,0,0,12,330.2,1110.7)" />
<use xlink:href="#f0_9" transform="matrix(12,0,0,12,336.6,1110.7)" />
<use xlink:href="#f0_6" transform="matrix(12,0,0,12,348.2,1110.7)" />
<use xlink:href="#f0_g" transform="matrix(12,0,0,12,358,1110.7)" />
<use xlink:href="#f0_e" transform="matrix(12,0,0,12,366.7,1110.7)" />
<use xlink:href="#f0_d" transform="matrix(12,0,0,12,384,1110.7)" />
<use xlink:href="#f0_e" transform="matrix(12,0,0,12,394.5,1110.7)" />
<use xlink:href="#f0_6" transform="matrix(12,0,0,12,411.8,1110.7)" />
<use xlink:href="#f0_8" transform="matrix(12,0,0,12,421.7,1110.7)" />
<use xlink:href="#f0_6" transform="matrix(12,0,0,12,428.1,1110.7)" />
<use xlink:href="#f0_g" transform="matrix(12,0,0,12,437.9,1110.7)" />
<use xlink:href="#f0_a" transform="matrix(12,0,0,12,446.5,1110.7)" />
<use xlink:href="#f0_n" transform="matrix(12,0,0,12,459.5,1110.7)" />
<use xlink:href="#f0_6" transform="matrix(12,0,0,12,470.8,1110.7)" />
<use xlink:href="#f0_5" transform="matrix(12,0,0,12,480.6,1110.7)" />
<use xlink:href="#f0_h" transform="matrix(12,0,0,12,489.6,1110.7)" />
<use xlink:href="#f0_b" transform="matrix(12,0,0,12,499.9,1110.7)" />
<use xlink:href="#f0_a" transform="matrix(12,0,0,12,511.6,1110.7)" />
<use xlink:href="#f0_6" transform="matrix(12,0,0,12,519.8,1110.7)" />
<use xlink:href="#f0_3" transform="matrix(12,0,0,12,534.4,1110.7)" />
<use xlink:href="#f0_8" transform="matrix(12,0,0,12,540.2,1110.7)" />
<use xlink:href="#f0_9" transform="matrix(12,0,0,12,551.4,1110.7)" />
<use xlink:href="#f0_h" transform="matrix(12,0,0,12,563,1110.7)" />
<use xlink:href="#f0_a" transform="matrix(12,0,0,12,573.4,1110.7)" />
<use xlink:href="#f0_17" transform="matrix(12,0,0,12,586.4,1110.7)" />
<use xlink:href="#f0_3" transform="matrix(12,0,0,12,602.2,1110.7)" />
<use xlink:href="#f0_c" transform="matrix(12,0,0,12,608,1110.7)" />
<use xlink:href="#f0_6" transform="matrix(12,0,0,12,619.2,1110.7)" />
<use xlink:href="#f0_h" transform="matrix(12,0,0,12,633.8,1110.7)" />
<use xlink:href="#f0_4" transform="matrix(12,0,0,12,644.1,1110.7)" />
<use xlink:href="#f0_c" transform="matrix(12,0,0,12,655.9,1110.7)" />
<use xlink:href="#f0_b" transform="matrix(12,0,0,12,671.9,1110.7)" />
<use xlink:href="#f0_a" transform="matrix(12,0,0,12,683.6,1110.7)" />
<use xlink:href="#f0_6" transform="matrix(12,0,0,12,691.8,1110.7)" />
<use xlink:href="#f0_j" transform="matrix(12,0,0,12,701.6,1110.7)" />
<use xlink:href="#f0_b" transform="matrix(12,0,0,12,708.4,1110.7)" />
<use xlink:href="#f0_l" transform="matrix(12,0,0,12,720,1110.7)" />
<use xlink:href="#f0_8" transform="matrix(12,0,0,12,730.4,1110.7)" />
<use xlink:href="#f0_6" transform="matrix(12,0,0,12,736.9,1110.7)" />
<use xlink:href="#f0_e" transform="matrix(12,0,0,12,746.7,1110.7)" />
<use xlink:href="#f0_f" transform="matrix(12,0,0,12,764,1110.7)" />
<use xlink:href="#f0_6" transform="matrix(12,0,0,12,775.2,1110.7)" />
<use xlink:href="#f0_g" transform="matrix(12,0,0,12,785.1,1110.7)" />
<use xlink:href="#f0_h" transform="matrix(12,0,0,12,793.7,1110.7)" />
<use xlink:href="#f0_8" transform="matrix(12,0,0,12,804,1110.7)" />
<use xlink:href="#f0_b" transform="matrix(12,0,0,12,810.4,1110.7)" />
<use xlink:href="#f0_g" transform="matrix(12,0,0,12,822.1,1110.7)" />
<use xlink:href="#f0_6" transform="matrix(12,0,0,12,830.7,1110.7)" />
<use xlink:href="#f0_g" transform="matrix(12,0,0,12,47.4,1142.8)" />
<use xlink:href="#f0_h" transform="matrix(12,0,0,12,56,1142.8)" />
<use xlink:href="#f0_4" transform="matrix(12,0,0,12,66.3,1142.8)" />
<use xlink:href="#f0_i" transform="matrix(12,0,0,12,78.1,1142.8)" />
<use xlink:href="#f0_6" transform="matrix(12,0,0,12,88,1142.8)" />
<use xlink:href="#f0_h" transform="matrix(12,0,0,12,102.5,1142.8)" />
<use xlink:href="#f0_4" transform="matrix(12,0,0,12,112.8,1142.8)" />
<use xlink:href="#f0_c" transform="matrix(12,0,0,12,124.6,1142.8)" />
<use xlink:href="#f0_9" transform="matrix(12,0,0,12,140.6,1142.8)" />
<use xlink:href="#f0_h" transform="matrix(12,0,0,12,152.3,1142.8)" />
<use xlink:href="#f0_a" transform="matrix(12,0,0,12,162.6,1142.8)" />
<use xlink:href="#f0_h" transform="matrix(12,0,0,12,175.6,1142.8)" />
<use xlink:href="#f0_b" transform="matrix(12,0,0,12,190.7,1142.8)" />
<use xlink:href="#f0_4" transform="matrix(12,0,0,12,202.3,1142.8)" />
<use xlink:href="#f0_3" transform="matrix(12,0,0,12,214.1,1142.8)" />
<use xlink:href="#f0_j" transform="matrix(12,0,0,12,219.9,1142.8)" />
<use xlink:href="#f0_d" transform="matrix(12,0,0,12,226.7,1142.8)" />
<use xlink:href="#f0_g" transform="matrix(12,0,0,12,237.3,1142.8)" />
<use xlink:href="#f0_e" transform="matrix(12,0,0,12,245.9,1142.8)" />
<use xlink:href="#f0_g" transform="matrix(12,0,0,12,267.9,1142.8)" />
<use xlink:href="#f0_h" transform="matrix(12,0,0,12,276.6,1142.8)" />
<use xlink:href="#f0_8" transform="matrix(12,0,0,12,286.9,1142.8)" />
<use xlink:href="#f0_6" transform="matrix(12,0,0,12,293.3,1142.8)" />
<use xlink:href="#f0_d" transform="matrix(12,0,0,12,307.9,1142.8)" />
<use xlink:href="#f0_j" transform="matrix(12,0,0,12,318.5,1142.8)" />
<use xlink:href="#f0_6" transform="matrix(12,0,0,12,330,1142.8)" />
<use xlink:href="#f0_23" transform="matrix(12,0,0,12,339.8,1142.8)" />
<use xlink:href="#f0_f" transform="matrix(12,0,0,12,350.4,1142.8)" />
<use xlink:href="#f0_h" transform="matrix(12,0,0,12,361.6,1142.8)" />
<use xlink:href="#f0_4" transform="matrix(12,0,0,12,371.9,1142.8)" />
<use xlink:href="#f0_a" transform="matrix(12,0,0,12,383.7,1142.8)" />
<use xlink:href="#f0_3" transform="matrix(12,0,0,12,392,1142.8)" />
<use xlink:href="#f0_d" transform="matrix(12,0,0,12,397.9,1142.8)" />
<use xlink:href="#f0_4" transform="matrix(12,0,0,12,408.4,1142.8)" />
<use xlink:href="#f0_m" transform="matrix(12,0,0,12,420.2,1142.8)" />
</g>
</g>
<g fill="#000000" >
<use xlink:href="#f3_l" transform="matrix(12,0,0,12,835.7,1269.6)" />
<use xlink:href="#f3_r" transform="matrix(12,0,0,12,844.9,1269.6)" />
</g>
<defs>
<path d="M712,102L515,701c0,0,-24,67,-44,132c0,0,-20,62,-32,117c0,0,-13,-55,-29,-109c0,0,-17,-56,-41,-126L153,102ZM47,0V81L405,1091H538L882,92V0Z" 
id="f0_25"
transform="scale(0.001,-0.001)" />

<path d="M567,67c0,0,85,0,145,33c0,0,59,32,96,94c0,0,36,61,53,151c0,0,16,88,16,202c0,0,0,112,-16,203c0,0,-17,88,-53,150c0,0,-37,60,-96,93c0,0,-59,32,-144,32c0,0,-85,0,-144,-32c0,0,-61,-33,-97,-93c0,0,-38,-62,-55,-150c0,0,-17,-91,-17,-203c0,0,0,-114,17,-202c0,0,17,-90,54,-151c0,0,37,-62,97,-94c0,0,59,-33,144,-33ZM853,-350c-9,0,-65,0,-119,16c0,0,-60,16,-110,55c0,0,-50,38,-82,105c0,0,-33,65,-41,163c0,0,-106,11,-182,55c0,0,-79,43,-130,117c0,0,-52,72,-77,171c0,0,-26,97,-26,216c0,0,-1,126,30,231c0,0,29,103,89,176c0,0,59,72,151,113c0,0,90,39,212,40c0,0,115,-1,205,-40c0,0,88,-41,150,-113c0,0,61,-74,92,-177c0,0,32,-104,32,-231c0,0,0,-112,-25,-206c0,0,-25,-94,-72,-166c0,0,-49,-72,-119,-118C831,57,759,10,669,-5c0,0,6,-78,26,-131c0,0,18,-52,47,-84c0,0,29,-33,68,-45c0,0,39,-14,85,-14h25v-71H853Z" 
id="f0_1o"
transform="scale(0.001,-0.001)" />

<path d="M78,0V112L333,407c0,0,61,70,103,126c0,0,40,56,66,106c0,0,25,49,37,97c0,0,11,47,11,100c0,0,0,43,-9,79c0,0,-11,35,-29,61c0,0,-19,25,-48,40c0,0,-31,13,-70,13c0,0,-53,0,-84,-18c0,0,-33,-20,-52,-50c0,0,-19,-31,-25,-73c0,0,-7,-41,-7,-86c0,0,-28,0,-51,4c0,0,-24,4,-42,17c0,0,-18,11,-28,30c0,0,-10,19,-10,48c0,0,0,43,19,82c0,0,19,37,57,65c0,0,36,28,93,43c0,0,56,15,130,15c0,0,72,0,130,-18c0,0,56,-19,97,-51c0,0,41,-34,62,-81c0,0,21,-47,21,-105c0,0,-1,-54,-17,-104c0,0,-18,-52,-50,-104c0,0,-33,-54,-80,-111c0,0,-48,-58,-108,-124L191,122H545c7,0,36,1,56,10c0,0,21,10,36,25c0,0,14,15,22,37c0,0,7,20,13,42l6,28h61V0Z" 
id="f0_z"
transform="scale(0.001,-0.001)" />

<path d="M99,350v90H755V350Zm0,300v91H755V650Z" 
id="f0_r"
transform="scale(0.001,-0.001)" />

<path d="M147,0V64H249c0,0,26,0,49,4c0,0,23,3,40,16c0,0,16,11,27,32c0,0,9,21,9,58V976c0,0,-29,-35,-55,-64c0,0,-27,-29,-50,-50c0,0,-24,-22,-46,-32c0,0,-22,-12,-44,-12c0,0,-1,0,-1,0c0,0,-1,0,-1,0c-3,0,-35,0,-55,23c0,0,-21,21,-21,59c0,0,23,5,47,15c0,0,23,7,50,22c0,0,25,13,57,34c0,0,30,18,69,47l107,79h98V174c0,0,-1,-37,10,-58c0,0,9,-21,26,-32c0,0,17,-13,41,-16c0,0,22,-4,48,-4h75V0Z" 
id="f0_x"
transform="scale(0.001,-0.001)" />

<path d="M172,229l-64,66L362,548L108,800l64,65L426,611L680,866l64,-66L490,547L744,293L680,229L426,483L172,229Z" 
id="f0_1g"
transform="scale(0.001,-0.001)" />

<path d="M383,-14c-2,0,-4,0,-6,0h-1c-12,0,-79,1,-128,14c0,0,-56,12,-90,36c0,0,-36,23,-52,54c0,0,-17,30,-17,64c0,0,0,46,26,73c0,0,25,25,70,25c0,0,0,-40,13,-74c0,0,12,-35,38,-59c0,0,24,-24,61,-38c0,0,34,-14,79,-14c1,0,2,0,3,0c0,0,45,0,86,13c0,0,42,12,73,42c0,0,30,29,50,76c0,0,18,47,18,115c0,0,0,48,-18,88c0,0,-20,38,-55,67c0,0,-36,27,-88,43c0,0,-52,14,-115,15H281v78h49c0,0,50,0,94,17c0,0,44,16,77,47c0,0,31,29,50,74c0,0,19,43,19,98c0,0,0,45,-9,80c0,0,-10,34,-28,59c0,0,-21,25,-51,38c0,0,-32,12,-75,12c0,0,-53,0,-85,-18c0,0,-33,-20,-52,-50c0,0,-19,-31,-25,-73c0,0,-7,-41,-7,-86c0,0,-28,0,-52,4c0,0,-23,4,-41,17c0,0,-18,11,-28,30c0,0,-10,19,-10,48c0,0,0,43,19,82c0,0,19,37,57,65c0,0,38,28,94,43c0,0,56,15,130,15c0,0,71,0,131,-16c0,0,59,-17,101,-47c0,0,41,-31,65,-76c0,0,23,-46,23,-104c0,0,0,-51,-18,-97c0,0,-19,-46,-51,-82c0,0,-33,-38,-78,-63c0,0,-45,-27,-97,-39c0,0,27,-4,60,-10c0,0,32,-8,63,-21c0,0,32,-13,61,-33c0,0,28,-20,51,-50c0,0,21,-29,35,-67c0,0,12,-39,12,-89c0,0,0,-62,-16,-110c0,0,-17,-48,-45,-84c0,0,-29,-37,-67,-62c0,0,-38,-26,-81,-41C556,15,512,0,467,-6c0,0,-42,-8,-84,-8Z" 
id="f0_19"
transform="scale(0.001,-0.001)" />

<path d="M222,-9c-1,0,-2,0,-3,0c0,0,-1,0,-3,0c-6,0,-22,0,-35,5c0,0,-18,4,-30,16c0,0,-14,12,-21,32c0,0,-8,20,-8,49c0,0,0,30,8,50c0,0,7,19,21,32c0,0,12,11,30,17c0,0,17,5,38,5c0,0,18,0,37,-5c0,0,16,-6,30,-17c0,0,12,-13,21,-32c0,0,8,-20,8,-50c0,0,0,-29,-8,-49c0,0,-9,-20,-21,-32C286,12,272,0,256,-4c0,0,-17,-5,-34,-5Z" 
id="f0_m"
transform="scale(0.001,-0.001)" />

<path d="M452,69c0,0,81,0,125,64c0,0,43,63,43,202c0,0,-1,130,-46,190c0,0,-47,59,-135,60c0,0,-30,0,-57,-8c0,0,-28,-8,-52,-20c0,0,-24,-12,-44,-28c0,0,-20,-17,-36,-32c0,0,0,-116,15,-196c0,0,14,-82,40,-133c0,0,26,-52,64,-75c0,0,37,-24,83,-24Zm-5,-83c-6,0,-78,1,-140,31c0,0,-65,31,-112,100c0,0,-49,68,-75,175c0,0,-27,106,-27,258c0,0,0,72,11,142c0,0,10,69,33,131c0,0,20,61,54,114c0,0,32,52,78,90c0,0,43,37,100,58c0,0,55,21,123,21c0,0,63,0,112,-13c0,0,46,-14,78,-36c0,0,31,-22,47,-51c0,0,14,-30,15,-60c0,0,0,-45,-30,-68c0,0,-31,-24,-87,-24c0,0,0,37,-8,70c0,0,-7,32,-23,57c0,0,-17,23,-42,38c0,0,-27,13,-64,13c0,0,-117,0,-176,-112c0,0,-60,-114,-60,-337c0,0,19,16,41,31c0,0,23,14,50,25c0,0,26,10,58,17c0,0,31,7,68,7c0,0,69,-1,127,-21c0,0,55,-22,95,-62c0,0,40,-41,61,-99c0,0,21,-59,22,-131c0,0,-1,-81,-22,-148c0,0,-23,-67,-64,-115C690,87,648,39,587,12c0,0,-62,-26,-139,-26c0,0,-1,0,-1,0Z" 
id="f0_1i"
transform="scale(0.001,-0.001)" />

<path d="M427,67c0,0,56,0,94,33c0,0,38,32,62,94c0,0,23,61,34,151c0,0,10,88,10,202c0,0,0,112,-10,202c0,0,-11,88,-34,150c0,0,-24,60,-61,93c0,0,-39,31,-93,31c0,0,-56,0,-94,-31c0,0,-40,-33,-63,-93c0,0,-24,-62,-34,-150c0,0,-10,-90,-10,-202c0,0,0,-114,10,-202c0,0,10,-90,34,-151c0,0,23,-62,62,-94c0,0,38,-33,93,-33Zm0,-81c0,0,-94,0,-161,39c0,0,-69,41,-112,115c0,0,-44,73,-64,178c0,0,-22,103,-21,230c0,0,-1,126,21,230c0,0,20,103,64,176c0,0,44,72,112,113c0,0,67,39,163,39c0,0,89,0,157,-39c0,0,65,-41,111,-113c0,0,45,-73,67,-176c0,0,21,-104,22,-231c0,0,-1,-127,-22,-230c0,0,-22,-104,-67,-177C697,140,652,66,585,25c0,0,-67,-39,-158,-39Z" 
id="f0_1f"
transform="scale(0.001,-0.001)" />

<path d="M377,-14c-2,0,-3,0,-4,0c0,0,-86,0,-140,14c0,0,-57,14,-89,37c0,0,-33,21,-46,50c0,0,-14,26,-14,52c0,0,0,42,24,66c0,0,23,23,73,24c0,0,-1,-34,11,-61c0,0,11,-28,35,-49c0,0,22,-21,57,-32c0,0,33,-12,77,-12c1,0,2,0,4,0c0,0,47,0,87,13c0,0,39,12,69,43c0,0,29,29,46,80c0,0,16,49,16,122c0,0,0,60,-16,105c0,0,-17,44,-47,74c0,0,-31,30,-73,45c0,0,-43,14,-96,14c0,0,-40,0,-68,-3c0,0,-29,-3,-50,-7c0,0,-23,-6,-39,-11c0,0,-17,-7,-31,-12l-36,10l49,541H690V859H630l-6,45c0,0,-3,16,-6,28c0,0,-5,12,-14,20c0,0,-9,7,-24,11c0,0,-16,3,-39,4H245L216,631c0,0,23,8,67,17c0,0,42,7,111,8c0,0,74,0,138,-20c0,0,63,-21,110,-61c0,0,47,-40,74,-101c0,0,26,-61,26,-141c0,0,0,-79,-24,-142c0,0,-26,-64,-73,-110C645,81,597,35,529,10c0,0,-67,-24,-152,-24Z" 
id="f0_1l"
transform="scale(0.001,-0.001)" />

<path d="M-16,-366v72H-1c7,0,50,1,86,15c0,0,38,13,64,46c0,0,26,31,40,86c0,0,14,54,14,135V923c0,0,0,33,-10,54c0,0,-11,20,-27,32c0,0,-18,11,-40,14c0,0,-24,3,-48,3H58v65H503v-65H483c0,0,-26,0,-49,-3c0,0,-24,-4,-39,-15c0,0,-18,-13,-27,-34c0,0,-11,-21,-11,-57V-11c0,0,0,-103,-27,-171c0,0,-26,-68,-73,-109c0,0,-47,-41,-111,-58c0,0,-65,-17,-137,-17Z" 
id="f0_2d"
transform="scale(0.001,-0.001)" />

<path d="M0,-184L351,1161h89L90,-184Z" 
id="f0_2e"
transform="scale(0.001,-0.001)" />

<path d="M28,0V64H40c0,0,25,0,49,4c0,0,22,3,39,16c0,0,17,11,27,32c0,0,10,21,10,58V993c0,0,0,33,-10,54c0,0,-11,21,-27,32c0,0,-18,11,-40,15c0,0,-24,3,-48,3H28v64H306V571c0,0,0,-21,0,-53c0,0,0,-32,0,-64c0,0,0,-36,0,-75L495,588c0,0,24,27,40,48c0,0,16,21,25,37c0,0,10,16,14,28c0,0,3,12,3,23c0,0,0,19,-18,26c0,0,-19,5,-56,5v64H840V755c0,0,-54,-1,-104,-37c0,0,-52,-38,-111,-106L518,492L721,189c0,0,39,-61,79,-93c0,0,38,-32,89,-32q1,0,2,0h4V0H874c0,0,-67,0,-109,4c0,0,-44,3,-75,20c0,0,-32,14,-57,45c0,0,-27,29,-59,79L421,388L309,304V166c0,0,0,-33,10,-53c0,0,10,-22,27,-32c0,0,17,-10,40,-13c0,0,22,-4,48,-4h5V0Z" 
id="f0_1v"
transform="scale(0.001,-0.001)" />

<path d="M351,-291c2,0,3,0,5,0c0,0,1,0,2,0c12,0,84,1,134,15c0,0,52,13,84,38c0,0,31,23,44,58c0,0,12,34,13,74c0,0,0,35,-10,59c0,0,-11,22,-30,35c0,0,-20,12,-49,17c0,0,-29,5,-67,5H327c0,0,-33,0,-62,-5c0,0,-31,-5,-54,-20c0,0,-24,-17,-38,-44c0,0,-15,-29,-14,-74c0,0,0,-34,9,-63c0,0,9,-29,31,-50c0,0,23,-22,61,-33c0,0,35,-12,91,-12Zm34,658c0,0,1,0,1,0c0,0,37,0,64,11c0,0,24,11,42,35c0,0,15,22,23,59c0,0,7,35,7,86c0,0,0,103,-31,152c0,0,-31,49,-106,49c0,0,-74,0,-105,-50c0,0,-33,-50,-32,-153c0,0,0,-98,32,-143c0,0,32,-46,105,-46ZM353,-366c-8,0,-162,1,-239,59c0,0,-80,59,-79,164c0,0,0,45,16,78c0,0,15,34,42,58c0,0,26,22,61,38c0,0,34,14,72,21c0,0,-16,7,-31,18c0,0,-14,11,-26,27c0,0,-13,16,-20,36c0,0,-8,20,-7,45c0,0,0,45,24,79c0,0,23,32,76,64c0,0,-33,13,-58,37c0,0,-27,23,-44,54c0,0,-18,30,-27,65c0,0,-10,36,-9,74c0,0,0,66,18,119c0,0,18,51,53,89c0,0,36,36,90,56c0,0,53,18,126,19c0,0,28,-1,54,-4c0,0,26,-4,50,-11c0,0,22,-8,41,-16c0,0,18,-9,29,-19c0,0,12,12,27,27c0,0,14,14,33,27c0,0,19,12,41,20c0,0,21,7,47,8c0,0,23,-1,40,-6c0,0,17,-7,28,-17c0,0,11,-11,17,-25c0,0,5,-15,5,-31c0,0,0,-17,-4,-31c0,0,-6,-15,-15,-25c0,0,-10,-12,-25,-17c0,0,-15,-7,-36,-7c0,0,0,9,-2,18c0,0,-3,9,-8,17c0,0,-6,7,-16,13c0,0,-10,4,-25,4c0,0,-19,0,-35,-4c0,0,-16,-5,-31,-14c0,0,26,-33,44,-76c0,0,16,-44,16,-109c0,0,-1,-57,-17,-105c0,0,-17,-48,-51,-82c0,0,-35,-36,-86,-56c0,0,-52,-19,-121,-19H348c0,0,-11,0,-21,1c0,0,-10,1,-15,3c0,0,-15,-9,-29,-17c0,0,-13,-9,-23,-20c0,0,-11,-11,-16,-25c0,0,-6,-15,-6,-32c0,0,-1,-19,7,-29c0,0,7,-12,20,-18c0,0,12,-7,30,-8c0,0,17,-2,38,-2H506c0,0,68,-1,116,-17c0,0,48,-17,78,-47c0,0,30,-32,44,-73c0,0,14,-41,14,-90c0,0,-1,-67,-24,-119c0,0,-25,-53,-75,-89c0,0,-50,-38,-126,-58c0,0,-77,-20,-180,-20Z" 
id="f0_i"
transform="scale(0.001,-0.001)" />

<path d="M562,-212c0,0,-127,52,-217,121c0,0,-91,68,-147,155c0,0,-58,87,-84,193c0,0,-27,104,-27,229c0,0,0,123,27,228c0,0,26,104,84,191c0,0,56,86,147,155c0,0,90,68,217,119v-96c0,0,-70,-47,-115,-112c0,0,-45,-66,-70,-143c0,0,-26,-78,-35,-164c0,0,-10,-88,-9,-178c0,0,-1,-91,9,-179c0,0,9,-88,35,-165c0,0,25,-79,70,-143c0,0,45,-67,115,-113v-98Z" 
id="f1_1r"
transform="scale(0.001,-0.001)" />

<path d="M376,-14c-1,0,-3,0,-5,0c0,0,-87,0,-148,14c0,0,-63,14,-102,40c0,0,-40,26,-59,59c0,0,-19,32,-19,69c0,0,0,29,10,51c0,0,10,23,28,38c0,0,18,15,42,23c0,0,23,7,49,7c0,0,0,-48,14,-85c0,0,14,-37,39,-61c0,0,24,-25,59,-37c0,0,35,-12,76,-12c0,0,37,0,72,10c0,0,33,10,60,36c0,0,25,25,41,69c0,0,15,43,15,109c0,0,0,44,-15,81c0,0,-15,36,-45,63c0,0,-31,26,-75,41c0,0,-44,14,-101,15H217v95H319c7,0,50,1,85,16c0,0,36,15,60,46c0,0,23,30,36,71c0,0,12,41,12,92c0,0,0,83,-32,130c0,0,-33,47,-95,47c0,0,-42,0,-66,-20c0,0,-27,-20,-41,-54c0,0,-15,-33,-19,-76c0,0,-6,-42,-5,-87c0,0,-96,0,-147,33c0,0,-52,32,-52,103c0,0,0,41,22,76c0,0,21,35,63,62c0,0,42,26,106,41c0,0,62,15,146,15c0,0,81,0,147,-16c0,0,65,-17,111,-49c0,0,46,-32,71,-78c0,0,24,-47,24,-106c0,0,0,-51,-18,-95c0,0,-18,-44,-49,-77c0,0,-31,-35,-74,-60c0,0,-42,-27,-92,-43c0,0,45,-8,94,-26c0,0,48,-20,88,-50c0,0,39,-32,65,-79c0,0,25,-47,25,-112c0,0,0,-93,-34,-157c0,0,-36,-64,-93,-101C657,57,599,17,525,1c0,0,-72,-15,-149,-15Z" 
id="f1_15"
transform="scale(0.001,-0.001)" />

<path d="M49,-212v98c0,0,70,46,116,113c0,0,44,64,70,143c0,0,24,77,34,165c0,0,9,88,9,179c0,0,0,90,-9,178c0,0,-10,86,-34,164c0,0,-26,77,-70,143c0,0,-46,65,-116,112v96c0,0,127,-51,218,-119c0,0,90,-69,148,-155c0,0,56,-87,83,-191c0,0,25,-105,26,-228c0,0,-1,-125,-26,-229c0,0,-27,-106,-83,-193c0,0,-58,-87,-148,-155c0,0,-91,-69,-218,-121Z" 
id="f1_1h"
transform="scale(0.001,-0.001)" />

<path d="M58,0V64H78c0,0,25,0,49,4c0,0,22,3,39,16c0,0,17,11,27,32c0,0,10,21,10,58V923c0,0,0,33,-10,54c0,0,-11,20,-27,32c0,0,-18,11,-40,14c0,0,-24,3,-48,3H58v65H503v-65H483c0,0,-26,0,-49,-3c0,0,-24,-4,-39,-15c0,0,-18,-13,-27,-34c0,0,-11,-21,-11,-57V608H854V917c0,0,0,36,-10,57c0,0,-10,21,-26,34c0,0,-18,11,-40,15c0,0,-24,3,-49,3H709v65h444v-65h-19c0,0,-26,0,-49,-3c0,0,-23,-4,-40,-15c0,0,-17,-13,-27,-34c0,0,-10,-21,-9,-57V166c0,0,0,-33,10,-53c0,0,10,-22,27,-32c0,0,16,-10,40,-13c0,0,22,-4,48,-4h19V0H709V64h20c0,0,25,0,49,4c0,0,22,3,40,16c0,0,16,11,26,32c0,0,10,21,10,58V532H357V174c0,0,0,-37,11,-58c0,0,9,-21,27,-32c0,0,15,-13,39,-16c0,0,23,-4,49,-4h20V0Z" 
id="f0_1a"
transform="scale(0.001,-0.001)" />

<path d="M586,481c0,0,0,60,-9,111c0,0,-9,50,-29,85c0,0,-19,36,-51,56c0,0,-33,18,-79,19c0,0,-87,-1,-133,-69c0,0,-46,-69,-46,-202ZM439,-14c0,0,-83,0,-149,27c0,0,-66,28,-112,82c0,0,-46,53,-69,132c0,0,-25,77,-25,177c0,0,0,213,88,322c0,0,88,108,251,108c0,0,73,0,133,-23c0,0,58,-24,100,-69c0,0,41,-46,63,-114c0,0,21,-69,22,-159V399H233c0,0,0,-84,15,-143c0,0,15,-61,44,-99c0,0,28,-40,71,-57c0,0,40,-19,93,-19c1,0,2,0,4,0c0,0,38,0,73,9c0,0,33,9,62,24c0,0,26,14,48,34c0,0,21,18,35,40c0,0,10,-4,20,-19c0,0,9,-15,9,-33c0,0,0,-24,-16,-49c0,0,-17,-27,-50,-50C641,37,607,14,557,0c0,0,-50,-14,-118,-14Z" 
id="f0_6"
transform="scale(0.001,-0.001)" />

<path d="M348,79c0,0,46,0,85,15c0,0,36,14,64,42c0,0,25,27,40,66c0,0,14,39,14,87V412H454c0,0,-65,0,-109,-14c0,0,-44,-13,-70,-36c0,0,-27,-25,-39,-59c0,0,-12,-35,-11,-80c0,0,0,-73,30,-108c0,0,29,-36,93,-36ZM313,-14c0,0,-50,0,-94,14c0,0,-44,14,-75,45c0,0,-33,30,-50,77c0,0,-18,47,-18,109c0,0,0,123,87,182c0,0,85,59,261,60H551v93c0,0,0,42,-4,78c0,0,-5,34,-20,60c0,0,-15,26,-42,40c0,0,-28,14,-75,14c0,0,-44,0,-71,-12c0,0,-29,-13,-43,-35c0,0,-16,-23,-21,-53c0,0,-6,-31,-5,-66c0,0,-64,0,-96,21c0,0,-34,21,-34,75c0,0,0,39,22,67c0,0,21,28,60,45c0,0,36,17,87,26c0,0,49,7,107,8c0,0,69,0,122,-13c0,0,52,-15,87,-46c0,0,34,-31,53,-81c0,0,17,-52,17,-124V174c0,0,0,-33,5,-53c0,0,6,-22,17,-34c0,0,10,-12,30,-18c0,0,15,-5,38,-5c2,0,3,0,5,0h4V0H588L564,131H551c0,0,-24,-33,-46,-59c0,0,-22,-27,-49,-46C456,26,429,6,395,-3c0,0,-35,-11,-82,-11Z" 
id="f0_h"
transform="scale(0.001,-0.001)" />

<path d="M367,-14c0,0,-59,0,-100,13c0,0,-42,10,-69,38c0,0,-27,27,-39,73c0,0,-14,45,-14,112V732H29v61c0,0,28,0,61,11c0,0,32,11,58,37c0,0,26,28,43,68c0,0,15,38,28,98h70V819H489V732H289V217c0,0,-1,-78,32,-115c0,0,30,-36,83,-36c0,0,1,0,1,0c0,0,2,0,6,0c9,0,28,0,45,3c0,0,23,3,47,7V9C503,9,492,4,477,0c0,0,-15,-3,-33,-6c0,0,-20,-5,-39,-6c0,0,-20,-2,-38,-2Z" 
id="f0_8"
transform="scale(0.001,-0.001)" />

<path d="M51,0V64h4c0,0,26,0,49,4c0,0,23,3,40,16c0,0,16,11,27,32c0,0,10,21,10,58V650c0,0,0,33,-10,55c0,0,-11,20,-28,31c0,0,-17,11,-39,15c0,0,-24,3,-49,4H51v64H286L315,668h7c0,0,14,34,31,65c0,0,15,29,39,53c0,0,22,22,56,35c0,0,33,12,84,13c0,0,83,0,124,-29c0,0,41,-30,41,-82c0,0,0,-24,-8,-44c0,0,-9,-20,-25,-34c0,0,-17,-15,-44,-23c0,0,-27,-8,-66,-8c0,0,0,63,-18,92c0,0,-18,27,-62,27c0,0,-29,0,-51,-15c0,0,-22,-18,-39,-43c0,0,-17,-27,-28,-61c0,0,-13,-35,-19,-70c0,0,-8,-37,-10,-73c0,0,-4,-35,-3,-64V166c0,0,0,-33,10,-53c0,0,10,-22,27,-32c0,0,16,-10,40,-13c0,0,22,-4,48,-4h43V0Z" 
id="f0_g"
transform="scale(0.001,-0.001)" />

<path d="M421,83c0,0,59,0,100,20c0,0,39,19,65,60c0,0,23,39,34,101c0,0,10,61,10,144c0,0,0,79,-10,141c0,0,-11,61,-34,103c0,0,-25,41,-65,63c0,0,-41,21,-101,21c0,0,-51,0,-86,-21c0,0,-36,-23,-58,-64c0,0,-24,-42,-34,-103c0,0,-10,-62,-10,-141c0,0,0,-163,44,-244c0,0,43,-80,145,-80Zm33,-449v64h51c0,0,26,0,50,4c0,0,22,3,40,16c0,0,17,11,27,33c0,0,10,21,11,58V-60c0,0,0,25,0,60c0,0,0,33,0,64c0,0,0,36,0,73h-3c0,0,-18,-35,-39,-62c0,0,-23,-29,-51,-48C540,27,512,6,476,-3c0,0,-36,-11,-81,-11c-8,0,-78,1,-133,24c0,0,-59,24,-98,77c0,0,-39,52,-60,132c0,0,-20,79,-20,189c0,0,0,110,20,191c0,0,21,80,60,133c0,0,39,51,98,77c0,0,58,25,133,25c0,0,44,0,80,-10c0,0,36,-10,65,-27c0,0,28,-18,51,-43c0,0,21,-24,39,-54h9l27,119H911V755H898c0,0,-26,-1,-48,-4c0,0,-24,-4,-40,-15c0,0,-17,-12,-27,-33c0,0,-10,-23,-10,-58V-197c0,0,0,-34,10,-54c0,0,10,-22,27,-32c0,0,17,-12,40,-15c0,0,22,-4,48,-4h13v-64Z" 
id="f0_1c"
transform="scale(0.001,-0.001)" />

<path d="M417,-14c0,0,-60,0,-107,16c0,0,-47,17,-79,54c0,0,-33,36,-49,93c0,0,-17,57,-17,135V650c0,0,0,33,-10,55c0,0,-11,20,-27,31c0,0,-18,11,-40,15c0,0,-24,3,-48,4H35v64H309V292c0,0,0,-51,8,-89c0,0,7,-40,26,-66c0,0,18,-27,49,-40c0,0,29,-14,74,-14c1,0,2,0,3,0c0,0,50,0,88,18c0,0,35,18,59,50c0,0,23,32,34,78c0,0,12,46,12,101V645c0,0,0,35,-10,58c0,0,-10,21,-27,33c0,0,-17,11,-39,15c0,0,-24,3,-50,4h-4v64H805V166c0,0,0,-33,10,-53c0,0,10,-22,27,-32c0,0,17,-10,41,-13c0,0,21,-4,47,-4h5V0H692L672,124h-7c0,0,-24,-44,-51,-70c0,0,-28,-28,-60,-42c0,0,-31,-15,-65,-20c0,0,-35,-6,-72,-6Z" 
id="f0_b"
transform="scale(0.001,-0.001)" />

<path d="M35,0V64H55c0,0,25,0,49,4c0,0,22,3,39,13c0,0,17,10,28,32c0,0,10,20,10,53V650c0,0,0,33,-10,55c0,0,-11,20,-28,31c0,0,-17,11,-39,15c0,0,-24,3,-49,4H51v64H324V174c0,0,0,-37,10,-58c0,0,10,-21,27,-32c0,0,16,-13,40,-16c0,0,22,-4,48,-4h20V0ZM249,972c-1,0,-2,0,-3,0c0,0,-1,0,-2,0c-5,0,-20,0,-32,5c0,0,-16,5,-28,16c0,0,-12,11,-18,29c0,0,-7,18,-7,45c0,0,0,27,7,45c0,0,6,17,18,29c0,0,12,11,28,15c0,0,15,5,34,5c0,0,18,0,34,-5c0,0,15,-4,27,-15c0,0,11,-12,19,-29c0,0,7,-18,7,-45c0,0,0,-27,-7,-45c0,0,-8,-18,-19,-29c0,0,-12,-11,-27,-16c0,0,-14,-5,-31,-5Z" 
id="f0_3"
transform="scale(0.001,-0.001)" />

<path d="M421,83c0,0,59,0,100,20c0,0,39,19,65,60c0,0,23,39,34,101c0,0,10,61,10,144c0,0,0,79,-10,141c0,0,-11,61,-34,103c0,0,-25,41,-65,63c0,0,-41,21,-101,21c0,0,-51,0,-86,-21c0,0,-36,-23,-58,-64c0,0,-24,-42,-34,-103c0,0,-10,-62,-10,-141c0,0,0,-163,44,-244c0,0,43,-80,145,-80ZM395,-14c-8,0,-78,1,-133,24c0,0,-59,24,-98,77c0,0,-39,52,-60,132c0,0,-20,79,-20,189c0,0,0,110,20,191c0,0,21,80,60,133c0,0,39,51,98,77c0,0,58,25,133,25c0,0,44,0,80,-10c0,0,36,-10,65,-27c0,0,28,-18,51,-43c0,0,21,-24,39,-54h4c0,0,0,36,0,70c0,0,0,27,0,57c0,0,0,27,0,41V993c0,0,-1,33,-10,54c0,0,-11,21,-29,32c0,0,-18,11,-41,15c0,0,-24,3,-49,3H492v64H773V168c0,0,0,-34,10,-54c0,0,10,-21,27,-32c0,0,17,-11,40,-14c0,0,22,-4,48,-4h13V0H652L636,137h-6c0,0,-18,-35,-39,-62c0,0,-23,-29,-51,-48C540,27,512,6,476,-3c0,0,-36,-11,-81,-11Z" 
id="f0_c"
transform="scale(0.001,-0.001)" />

<path d="M442,64c0,0,56,0,97,23c0,0,38,22,64,66c0,0,24,43,36,108c0,0,9,65,10,150c0,0,0,85,-11,149c0,0,-11,64,-36,108c0,0,-25,42,-64,64c0,0,-41,21,-98,21c0,0,-58,0,-97,-21c0,0,-39,-22,-64,-64c0,0,-25,-44,-36,-108c0,0,-11,-64,-11,-149c0,0,0,-85,11,-150c0,0,11,-65,37,-108c0,0,24,-44,65,-66c0,0,38,-23,97,-23Zm-3,-78c0,0,-83,0,-149,25c0,0,-66,26,-111,79c0,0,-47,52,-70,134c0,0,-25,79,-25,187c0,0,0,213,91,319c0,0,90,103,268,104c0,0,82,0,149,-25c0,0,65,-26,111,-79c0,0,46,-53,71,-132c0,0,23,-80,23,-187c0,0,0,-216,-91,-321C706,90,614,-14,439,-14Z" 
id="f0_d"
transform="scale(0.001,-0.001)" />

<path d="M321,-14c0,0,-58,0,-104,11c0,0,-48,7,-80,29c0,0,-33,20,-50,51c0,0,-18,30,-18,70c0,0,0,30,10,51c0,0,10,20,25,33c0,0,14,11,31,17c0,0,16,4,30,4c0,0,0,-41,8,-75c0,0,8,-36,28,-61c0,0,18,-28,51,-42c0,0,31,-16,78,-16c0,0,41,0,72,11c0,0,31,9,53,28c0,0,21,18,32,44c0,0,11,25,11,56c0,0,0,28,-8,49c0,0,-9,20,-30,38c0,0,-21,17,-58,37c0,0,-37,18,-92,42c0,0,-59,26,-102,51c0,0,-45,23,-72,52c0,0,-29,28,-43,65c0,0,-15,35,-14,86c0,0,-1,52,21,92c0,0,20,40,58,68c0,0,38,26,91,41c0,0,52,15,118,15c0,0,54,0,96,-12c0,0,41,-11,70,-30c0,0,28,-19,43,-44c0,0,14,-27,14,-55c0,0,-1,-42,-28,-66c0,0,-29,-25,-80,-25c-1,0,-2,0,-2,0c0,0,0,76,-32,119c0,0,-32,42,-100,42c0,0,-39,0,-66,-9c0,0,-28,-9,-45,-25c0,0,-18,-17,-26,-39c0,0,-8,-22,-8,-49c0,0,0,-29,10,-50c0,0,10,-22,34,-39c0,0,22,-18,59,-35c0,0,36,-17,86,-38c0,0,60,-26,104,-50c0,0,43,-24,72,-54c0,0,27,-29,41,-65c0,0,13,-37,13,-84c0,0,-1,-60,-21,-105c0,0,-23,-45,-62,-74C539,46,499,14,445,0c0,0,-56,-14,-124,-14Z" 
id="f0_a"
transform="scale(0.001,-0.001)" />

<path d="M28,0V64H40c0,0,25,0,49,4c0,0,22,3,39,16c0,0,17,11,27,32c0,0,10,21,10,58V993c0,0,0,33,-10,54c0,0,-11,21,-27,32c0,0,-18,11,-40,15c0,0,-24,3,-48,3H28v64H308V825c0,0,0,-22,0,-43c0,0,-1,-24,-4,-43c0,0,0,-23,0,-44h6c0,0,68,139,225,139c0,0,65,-1,115,-17c0,0,50,-18,85,-54c0,0,34,-37,52,-93c0,0,18,-58,18,-135V174c0,0,0,-37,9,-58c0,0,9,-21,24,-32c0,0,16,-13,38,-16c0,0,21,-4,47,-4h4V0H662V527c0,0,0,50,-9,89c0,0,-10,39,-29,66c0,0,-20,26,-52,41c0,0,-33,13,-78,13c0,0,-49,0,-82,-17c0,0,-35,-18,-58,-50c0,0,-24,-33,-34,-78c0,0,-11,-46,-11,-102V166c0,0,0,-33,10,-53c0,0,10,-22,27,-32c0,0,17,-10,40,-13c0,0,22,-4,48,-4h5V0Z" 
id="f0_9"
transform="scale(0.001,-0.001)" />

<path d="M43,0V64H63c0,0,25,0,47,4c0,0,21,3,38,16c0,0,15,11,24,32c0,0,8,21,9,58V650c0,0,0,33,-9,55c0,0,-9,20,-25,31c0,0,-16,11,-37,15c0,0,-22,3,-47,4H58v64H298L318,695h7c0,0,23,42,49,70c0,0,25,27,54,43c0,0,28,14,61,21c0,0,31,5,67,5c0,0,36,0,71,-7c0,0,33,-9,62,-24c0,0,28,-17,52,-43c0,0,21,-27,36,-65h13c0,0,23,42,50,70c0,0,27,27,57,43c0,0,30,14,64,21c0,0,32,5,68,5c0,0,59,-1,105,-17c0,0,45,-18,78,-54c0,0,32,-37,49,-93c0,0,17,-58,18,-135V174c0,0,0,-37,9,-58c0,0,9,-21,24,-32c0,0,16,-13,37,-16c0,0,21,-4,47,-4h5V0H1135V527c0,0,0,50,-8,89c0,0,-9,39,-27,66c0,0,-21,26,-50,41c0,0,-32,13,-75,13c0,0,-48,0,-80,-18c0,0,-33,-19,-53,-50c0,0,-21,-31,-28,-72c0,0,-9,-42,-9,-87V174c0,0,0,-37,9,-58c0,0,9,-21,24,-32c0,0,16,-13,38,-16c0,0,21,-4,47,-4h4V0H662V527c0,0,-1,50,-9,89c0,0,-8,39,-27,66c0,0,-20,26,-50,41c0,0,-31,13,-75,13c0,0,-50,0,-83,-20c0,0,-35,-20,-55,-54c0,0,-22,-35,-30,-79c0,0,-9,-45,-9,-94V166c0,0,0,-33,10,-53c0,0,10,-22,27,-32c0,0,16,-10,40,-13c0,0,22,-4,48,-4h5V0Z" 
id="f0_e"
transform="scale(0.001,-0.001)" />

<path d="M518,83c0,0,50,0,86,21c0,0,35,21,58,63c0,0,23,41,33,104c0,0,10,61,11,142c0,0,-1,80,-11,142c0,0,-10,60,-33,101c0,0,-23,40,-58,60c0,0,-38,20,-88,20c0,0,-60,0,-99,-19c0,0,-41,-20,-64,-61c0,0,-24,-40,-34,-101c0,0,-10,-62,-10,-144c0,0,0,-80,10,-141c0,0,10,-62,35,-103c0,0,23,-42,64,-63c0,0,39,-21,100,-21ZM28,-366v64H40c0,0,25,0,49,4c0,0,22,3,39,16c0,0,17,11,27,33c0,0,10,21,10,58V650c0,0,0,33,-10,55c0,0,-11,20,-27,31c0,0,-18,11,-40,15c0,0,-24,3,-48,4H20v64H287L303,681h6c0,0,16,34,39,63c0,0,21,28,50,49c0,0,27,19,64,31c0,0,36,9,80,10c0,0,75,0,134,-25c0,0,58,-26,98,-76c0,0,38,-53,60,-132c0,0,20,-80,20,-190c0,0,0,-111,-20,-191c0,0,-22,-80,-60,-133c0,0,-40,-53,-98,-77c0,0,-57,-24,-131,-24c-1,0,-2,0,-3,0h-2c-8,0,-46,1,-77,10c0,0,-37,8,-65,26c0,0,-29,18,-50,43c0,0,-23,24,-39,54h-3c0,0,0,-39,0,-73c0,0,0,-15,0,-30c0,0,0,-15,0,-28c0,0,0,-14,0,-24c0,0,0,-11,0,-17V-199c0,0,0,-33,10,-54c0,0,10,-21,28,-31c0,0,17,-11,41,-14c0,0,23,-4,49,-4h5v-64Z" 
id="f0_f"
transform="scale(0.001,-0.001)" />

<path d="M41,0V64H61c0,0,26,0,49,4c0,0,23,3,40,16c0,0,16,11,27,32c0,0,9,21,9,58V747H47v72H186v76c0,0,0,68,19,121c0,0,19,52,54,88c0,0,34,35,85,55c0,0,50,17,113,17c0,0,58,0,100,-7c0,0,41,-8,67,-22c0,0,24,-15,35,-34c0,0,12,-20,12,-43c0,0,0,-22,-9,-37c0,0,-11,-17,-26,-27c0,0,-18,-11,-40,-16c0,0,-24,-6,-51,-6c0,0,0,23,-4,45c0,0,-6,21,-17,39c0,0,-12,17,-31,28c0,0,-19,10,-48,10c0,0,-34,0,-55,-12c0,0,-22,-13,-36,-38c0,0,-13,-26,-18,-62c0,0,-6,-37,-6,-85V819H545V747H330V174c0,0,0,-37,10,-58c0,0,10,-21,27,-32c0,0,16,-13,40,-16c0,0,22,-4,48,-4h58V0Z" 
id="f0_j"
transform="scale(0.001,-0.001)" />

<path d="M315,0L115,674c0,0,-9,23,-19,39c0,0,-10,15,-22,26c0,0,-13,8,-29,12c0,0,-17,3,-39,4H1v64H379V755H359c0,0,-46,0,-69,-13c0,0,-24,-15,-23,-51c0,0,0,-13,5,-31c0,0,3,-18,8,-35L351,369c0,0,8,-29,16,-61c0,0,7,-33,16,-65c0,0,6,-33,12,-61c0,0,6,-29,10,-48h5c0,0,3,19,10,46c0,0,5,24,15,55c0,0,7,29,18,60c0,0,9,30,19,58L631,815h96L880,362c0,0,9,-29,20,-59c0,0,9,-33,18,-63c0,0,9,-31,17,-59c0,0,7,-28,11,-47h4c0,0,7,38,22,94c0,0,14,55,38,129l76,247c0,0,5,18,11,41c0,0,3,21,3,35c0,0,0,38,-24,57c0,0,-26,18,-77,18H988v64h327V755h-19c0,0,-23,0,-39,-5c0,0,-17,-5,-29,-17c0,0,-14,-13,-25,-36c0,0,-11,-24,-22,-61L984,0H862L680,538L652,639L436,0Z" 
id="f0_17"
transform="scale(0.001,-0.001)" />

<path d="M433,-14c0,0,-77,0,-141,23c0,0,-64,23,-110,74c0,0,-46,50,-72,130c0,0,-26,79,-26,192c0,0,0,122,26,205c0,0,26,82,72,132c0,0,46,49,108,71c0,0,61,21,134,21c0,0,47,0,96,-9c0,0,47,-10,85,-29c0,0,38,-19,62,-49c0,0,23,-30,24,-69c0,0,0,-54,-35,-74c0,0,-35,-22,-102,-22c0,0,0,35,-6,68c0,0,-6,32,-20,56c0,0,-15,24,-39,38c0,0,-26,14,-65,14c0,0,-44,0,-79,-16c0,0,-35,-18,-61,-57c0,0,-26,-40,-39,-108c0,0,-13,-69,-13,-170c0,0,-1,-164,54,-243c0,0,54,-80,177,-80h1c6,0,72,1,123,30c0,0,52,30,79,77c0,0,11,-10,19,-24c0,0,7,-15,7,-36c0,0,0,-27,-16,-52c0,0,-17,-26,-49,-47C627,32,594,10,546,0c0,0,-48,-14,-113,-14Z" 
id="f0_5"
transform="scale(0.001,-0.001)" />

<path d="M223,-9c-1,0,-2,0,-3,0c0,0,-1,0,-2,0c-6,0,-22,0,-35,5c0,0,-19,4,-31,16c0,0,-13,12,-21,32c0,0,-8,20,-7,49c0,0,-1,30,7,50c0,0,8,19,21,32c0,0,12,11,31,17c0,0,16,5,37,5c0,0,19,0,37,-5c0,0,17,-6,31,-17c0,0,12,-13,21,-32c0,0,7,-20,7,-50c0,0,0,-29,-7,-49c0,0,-9,-20,-21,-32C288,12,274,0,257,-4c0,0,-16,-5,-34,-5Zm0,627c-1,0,-2,0,-3,0c0,0,-1,0,-2,0c-6,0,-22,1,-35,6c0,0,-19,5,-31,18c0,0,-13,11,-21,32c0,0,-8,20,-7,49c0,0,-1,30,7,50c0,0,8,18,21,31c0,0,12,11,31,17c0,0,16,6,37,6c0,0,19,0,37,-6c0,0,17,-6,31,-17c0,0,12,-13,21,-31c0,0,7,-20,7,-50c0,0,0,-29,-7,-49c0,0,-9,-21,-21,-32c0,0,-14,-13,-31,-18c0,0,-16,-6,-34,-6Z" 
id="f0_1d"
transform="scale(0.001,-0.001)" />

<path d="M38,359V474H436V359Z" 
id="f0_w"
transform="scale(0.001,-0.001)" />

<path d="M229,0V64h35c0,0,25,0,49,4c0,0,22,3,39,13c0,0,17,10,28,32c0,0,9,20,9,53v849H243c0,0,-33,0,-56,-10c0,0,-24,-11,-37,-28c0,0,-15,-17,-22,-39c0,0,-8,-24,-10,-49l-8,-65H34v267H902V824H827l-8,65c0,0,-4,25,-10,49c0,0,-9,22,-22,39c0,0,-15,17,-37,28c0,0,-24,10,-58,10H544V174c0,0,0,-37,10,-58c0,0,10,-21,27,-32c0,0,16,-13,40,-16c0,0,22,-4,48,-4h35V0Z" 
id="f0_t"
transform="scale(0.001,-0.001)" />

<path d="M501,385V668c0,0,0,33,0,74c0,0,0,40,0,82c0,0,0,41,0,83c0,0,0,41,6,77c0,0,-6,-11,-15,-28c0,0,-10,-18,-21,-39c0,0,-13,-23,-26,-46c0,0,-15,-24,-28,-46c0,0,-15,-24,-26,-42c0,0,-13,-21,-21,-34L136,385ZM328,0V64h43c0,0,26,0,50,4c0,0,22,3,39,16c0,0,17,11,27,32c0,0,10,21,10,58V299H26v63l472,729H643V385H833V299H643V174c0,0,0,-37,10,-58c0,0,10,-21,27,-32c0,0,16,-13,40,-16c0,0,22,-4,48,-4h21V0Z" 
id="f0_1b"
transform="scale(0.001,-0.001)" />

<path d="M46,-234v64c0,0,74,23,110,58c0,0,34,35,35,79c0,0,-1,15,-8,26c0,0,-9,8,-21,17c0,0,-13,6,-27,15c0,0,-15,7,-27,18c0,0,-13,9,-21,26c0,0,-8,14,-8,38c0,0,0,43,29,67c0,0,28,23,71,23c0,0,23,-1,45,-8c0,0,20,-9,37,-26c0,0,16,-17,26,-41c0,0,9,-27,9,-58c0,0,0,-48,-13,-93c0,0,-14,-46,-44,-84c0,0,-30,-40,-77,-70c0,0,-49,-31,-116,-51Z" 
id="f0_o"
transform="scale(0.001,-0.001)" />

<path d="M445,385V652c0,0,0,67,0,145c0,0,0,77,9,149c0,0,-9,-18,-24,-49c0,0,-17,-32,-35,-64c0,0,-20,-34,-36,-63c0,0,-17,-31,-26,-44L127,385ZM275,0V81h43c0,0,25,0,49,4c0,0,22,3,40,16c0,0,16,11,26,33c0,0,10,20,10,57v93H20v93l434,714H666V385H825V284H666V191c0,0,0,-37,11,-57c0,0,9,-22,26,-33c0,0,16,-13,40,-16c0,0,22,-4,48,-4h20V0Z" 
id="f1_19"
transform="scale(0.001,-0.001)" />

<path d="M43,0V64H55c0,0,26,0,49,4c0,0,23,3,40,16c0,0,16,11,27,32c0,0,10,21,10,58V650c0,0,0,33,-10,55c0,0,-11,20,-28,31c0,0,-17,11,-39,15c0,0,-24,3,-49,4H51v64H298L318,695h7c0,0,23,42,51,70c0,0,25,27,56,43c0,0,29,14,63,21c0,0,32,5,69,5c0,0,60,-1,108,-17c0,0,47,-18,81,-54c0,0,32,-37,50,-93c0,0,17,-58,18,-135V174c0,0,0,-37,9,-58c0,0,7,-21,23,-32c0,0,16,-13,38,-16c0,0,21,-4,47,-4h5V0H677V527c0,0,0,50,-9,89c0,0,-10,39,-29,66c0,0,-20,26,-52,41c0,0,-33,13,-78,13c0,0,-53,0,-88,-20c0,0,-36,-20,-57,-54c0,0,-22,-35,-31,-79c0,0,-10,-45,-9,-94V166c0,0,0,-33,10,-53c0,0,10,-22,27,-32c0,0,16,-10,40,-13c0,0,22,-4,48,-4h5V0Z" 
id="f0_4"
transform="scale(0.001,-0.001)" />

<path d="M365,0L119,674c0,0,-9,23,-18,39c0,0,-11,15,-23,26c0,0,-12,8,-29,12c0,0,-17,3,-39,4H6v64H388V755H369c0,0,-47,0,-69,-18c0,0,-24,-18,-23,-56c0,0,-1,-13,3,-25c0,0,3,-14,9,-31L392,336c0,0,10,-26,21,-58c0,0,9,-33,20,-65c0,0,8,-31,16,-59c0,0,7,-29,11,-47h5c0,0,3,16,12,41c0,0,8,23,20,53c0,0,10,27,22,58c0,0,11,29,22,57L650,614c0,0,8,19,12,36c0,0,3,16,3,30c0,0,0,38,-25,57c0,0,-26,18,-76,18H553v64H880V755H862c0,0,-23,0,-38,-5c0,0,-17,-6,-29,-18c0,0,-12,-14,-24,-37c0,0,-12,-24,-26,-59L504,0Z" 
id="f0_11"
transform="scale(0.001,-0.001)" />

<path d="M58,0V64H78c0,0,25,0,49,4c0,0,22,3,39,16c0,0,17,11,27,32c0,0,10,21,10,58V917c0,0,0,36,-10,57c0,0,-10,21,-27,34c0,0,-17,11,-39,15c0,0,-24,3,-49,3H58v65H503v-65H483c0,0,-26,0,-48,-3c0,0,-24,-3,-40,-14c0,0,-18,-12,-27,-32c0,0,-11,-21,-11,-54V76H659c0,0,34,0,59,13c0,0,23,12,39,32c0,0,16,19,25,44c0,0,7,24,11,49l15,114h75V0Z" 
id="f0_1n"
transform="scale(0.001,-0.001)" />

<path d="M380,-366V1161h92V-366Z" 
id="f0_24"
transform="scale(0.001,-0.001)" />

<path d="M90,153V342H248V153Zm634,0V342H882V153ZM407,733V923H565V733Z" 
id="f2_2"
transform="scale(0.001,-0.001)" />

<path d="M20,0V64H40c0,0,25,0,49,4c0,0,22,3,39,16c0,0,17,11,27,32c0,0,10,21,10,58V993c0,0,0,33,-10,54c0,0,-11,21,-27,32c0,0,-18,11,-40,15c0,0,-24,3,-48,3H20v64H309V174c0,0,-1,-37,10,-58c0,0,9,-21,26,-32c0,0,17,-13,41,-16c0,0,22,-4,48,-4h20V0Z" 
id="f0_l"
transform="scale(0.001,-0.001)" />

<path d="M380,219V501H99v91H380V874h92V592H755V501H472V219Z" 
id="f0_1k"
transform="scale(0.001,-0.001)" />

<path d="M290,0L650,967H249c0,0,-82,-1,-89,-78l-6,-76H94v276H781v-44L405,0Z" 
id="f0_1h"
transform="scale(0.001,-0.001)" />

<path d="M7,0V64H22c0,0,26,0,48,5c0,0,20,4,40,15c0,0,18,11,37,31c0,0,19,19,41,47L380,411L188,674c0,0,-34,38,-65,60c0,0,-33,21,-66,21H37v64H424V755h-4c0,0,-27,0,-43,-3c0,0,-17,-5,-27,-10c0,0,-11,-7,-14,-15c0,0,-3,-8,-3,-17c0,0,-1,-16,9,-30c0,0,9,-17,27,-40L469,503l79,114c0,0,17,25,28,49c0,0,10,23,10,44c0,0,0,28,-23,37c0,0,-24,7,-59,8h-4v64H834V755H821c0,0,-23,-1,-41,-4c0,0,-19,-4,-36,-14c0,0,-17,-11,-36,-30c0,0,-19,-20,-42,-50L509,448L733,145c0,0,34,-44,64,-62c0,0,29,-19,57,-19q1,0,2,0h20V0H481V64h8c0,0,91,0,91,51c0,0,0,7,-2,17c0,0,-2,8,-9,20c0,0,-7,11,-18,28c0,0,-11,16,-29,40L420,357L313,208c0,0,-6,-9,-14,-21c0,0,-8,-12,-13,-24c0,0,-7,-14,-10,-26c0,0,-4,-13,-4,-25c0,0,0,-27,22,-37c0,0,21,-11,73,-11h4V0Z" 
id="f0_23"
transform="scale(0.001,-0.001)" />

<path d="M374,-14c0,0,-86,0,-145,15c0,0,-60,14,-97,41c0,0,-37,25,-54,59c0,0,-17,32,-17,68c0,0,0,54,34,80c0,0,32,26,89,26c0,0,0,-33,8,-65c0,0,8,-34,29,-59c0,0,18,-26,51,-43c0,0,31,-16,76,-16c1,0,2,0,3,0c0,0,1,0,2,0c6,0,39,0,71,12c0,0,33,12,59,40c0,0,26,27,41,75c0,0,15,47,15,117c0,0,0,115,-54,171c0,0,-55,55,-154,55c0,0,-29,0,-52,-2c0,0,-24,-3,-44,-6c0,0,-20,-4,-38,-9c0,0,-19,-6,-35,-10L92,562l48,529H722V813H639l-12,52c0,0,-4,13,-9,24c0,0,-4,10,-12,18c0,0,-8,8,-20,12c0,0,-12,3,-30,4H238c0,0,0,-2,-1,-13c0,0,-2,-13,-3,-33c0,0,-1,-20,-3,-45c0,0,-3,-26,-5,-52L214,640c0,0,12,5,31,9c0,0,19,3,41,7c0,0,22,3,48,6c0,0,24,0,48,1c0,0,88,0,161,-20c0,0,72,-22,123,-61c0,0,50,-42,79,-102c0,0,28,-62,28,-144c0,0,0,-100,-36,-166c0,0,-37,-69,-94,-109C643,61,585,19,515,3c0,0,-71,-17,-141,-17Z" 
id="f1_1a"
transform="scale(0.001,-0.001)" />

<path d="M232,-11c0,0,-26,0,-49,7c0,0,-24,4,-40,19c0,0,-17,13,-27,37c0,0,-10,23,-9,58c0,0,-1,34,9,59c0,0,10,22,27,37c0,0,16,14,40,20c0,0,23,5,49,6c0,0,25,-1,48,-6c0,0,23,-6,40,-20c0,0,16,-15,28,-37c0,0,9,-25,9,-59c0,0,0,-35,-9,-58c0,0,-12,-24,-28,-37C320,15,303,0,280,-4c0,0,-23,-7,-48,-7Z" 
id="f1_n"
transform="scale(0.001,-0.001)" />

<path d="M408,0L128,929c0,0,-6,23,-16,39c0,0,-11,15,-22,26c0,0,-14,9,-30,12c0,0,-17,3,-40,4H0v81H510v-81H475c0,0,-46,0,-68,-18c0,0,-24,-18,-24,-56c0,0,0,-13,6,-36c0,0,4,-25,10,-46L501,501c0,0,8,-29,18,-62c0,0,9,-35,17,-69c0,0,8,-35,15,-67c0,0,6,-33,10,-57c0,0,10,49,23,93c0,0,12,42,25,87l202,654H923L1134,497c0,0,13,-36,25,-73c0,0,11,-37,21,-70c0,0,9,-35,17,-62c0,0,8,-29,12,-49c0,0,5,28,12,61c0,0,7,34,15,71c0,0,8,36,17,76c0,0,7,38,17,75l80,330c0,0,2,8,5,21c0,0,3,11,5,23c0,0,2,12,4,22c0,0,0,10,0,16c0,0,0,38,-23,56c0,0,-24,16,-74,16h-35v81h398v-81h-29c0,0,-23,0,-40,-4c0,0,-17,-6,-30,-18c0,0,-14,-13,-24,-36c0,0,-12,-24,-22,-61L1248,0H1074L818,717L598,0Z" 
id="f1_11"
transform="scale(0.001,-0.001)" />

<path d="M31,0V81h3c0,0,25,0,47,4c0,0,21,3,38,14c0,0,16,11,25,32c0,0,9,20,9,55V987c0,0,-1,30,-11,49c0,0,-11,18,-27,29c0,0,-17,8,-35,12c0,0,-20,3,-36,3H26v81H383V909c0,0,0,-30,0,-64c0,0,0,-35,-3,-63c0,0,-4,-35,-7,-67h13c0,0,24,43,50,68c0,0,25,24,54,37c0,0,29,12,62,16c0,0,32,2,68,2c0,0,59,0,106,-17c0,0,47,-17,80,-53c0,0,32,-36,49,-91c0,0,16,-56,17,-133V189c0,0,0,-35,7,-56c0,0,5,-22,18,-33c0,0,12,-12,33,-15c0,0,18,-4,45,-4h4V0H640V503c0,0,-1,48,-6,88c0,0,-7,38,-21,64c0,0,-15,25,-38,40c0,0,-24,14,-57,14c0,0,-38,-1,-64,-20c0,0,-26,-19,-40,-51c0,0,-16,-33,-22,-76c0,0,-7,-44,-7,-90V181c0,0,0,-33,8,-52c0,0,7,-20,22,-30c0,0,13,-11,35,-14c0,0,19,-4,45,-4h5V0Z" 
id="f1_u"
transform="scale(0.001,-0.001)" />

<path d="M41,-366v89c0,0,79,0,136,19c0,0,55,19,95,55c0,0,38,35,64,86c0,0,24,50,43,111L104,665c0,0,-9,21,-20,34c0,0,-12,12,-24,19c0,0,-14,7,-28,9c0,0,-16,1,-32,2v90H436V738c0,0,-45,0,-70,-11c0,0,-27,-13,-27,-46c0,0,0,-13,6,-30c0,0,5,-18,9,-29c0,0,14,-33,29,-69c0,0,13,-39,28,-76c0,0,13,-38,26,-73c0,0,12,-35,23,-62c0,0,10,-29,18,-52c0,0,7,-24,13,-42c0,0,4,-20,7,-35c0,0,3,-18,5,-32c0,0,1,15,6,35c0,0,3,18,9,36c0,0,5,17,11,31c0,0,5,14,7,20L637,602c0,0,2,7,6,18c0,0,2,10,5,20c0,0,2,10,3,20c0,0,1,10,1,17c0,0,0,34,-29,48c0,0,-30,12,-82,13v81H885V738c0,0,-24,0,-41,-5c0,0,-17,-6,-32,-18c0,0,-15,-14,-26,-35c0,0,-12,-21,-24,-53c0,0,-26,-76,-56,-156c0,0,-29,-79,-58,-158c0,0,-30,-80,-59,-158C589,155,559,75,532,0c0,0,-28,-73,-51,-129c0,0,-24,-56,-50,-97c0,0,-27,-42,-59,-68c0,0,-33,-27,-74,-42c0,0,-43,-17,-99,-23c0,0,-57,-7,-132,-7Z" 
id="f1_g"
transform="scale(0.001,-0.001)" />

<path d="M26,0V81H44c0,0,16,0,37,4c0,0,17,3,35,13c0,0,15,10,26,30c0,0,10,19,11,53V645c0,0,-1,29,-11,49c0,0,-11,18,-27,28c0,0,-17,9,-35,13c0,0,-20,3,-36,3H26v81H385V181c0,0,0,-34,11,-53c0,0,10,-20,27,-30c0,0,16,-10,35,-13c0,0,19,-4,36,-4h18V0ZM261,956c0,0,-28,0,-51,7c0,0,-24,7,-41,20c0,0,-18,13,-27,35c0,0,-11,20,-11,49c0,0,0,28,11,50c0,0,9,21,27,34c0,0,17,12,41,19c0,0,23,6,51,6c0,0,25,0,50,-6c0,0,23,-7,42,-19c0,0,18,-13,29,-34c0,0,10,-22,10,-50c0,0,0,-29,-10,-49c0,0,-11,-22,-29,-35c0,0,-19,-13,-42,-20c0,0,-25,-7,-50,-7Z" 
id="f1_7"
transform="scale(0.001,-0.001)" />

<path d="M357,-14c-1,0,-3,0,-4,0c0,0,-83,0,-141,14c0,0,-60,12,-96,36c0,0,-37,23,-53,57c0,0,-17,32,-17,70c0,0,0,37,14,61c0,0,15,22,37,35c0,0,21,12,46,17c0,0,25,3,45,4c0,0,-1,-49,12,-86c0,0,12,-39,33,-64c0,0,21,-27,53,-41c0,0,28,-14,64,-14c1,0,2,0,3,0c0,0,39,0,68,8c0,0,28,7,47,23c0,0,18,14,27,34c0,0,9,17,9,39c0,0,0,25,-9,46c0,0,-10,18,-31,37c0,0,-22,16,-57,34c0,0,-38,16,-91,35c0,0,-62,21,-109,46c0,0,-48,24,-79,56c0,0,-33,30,-50,71c0,0,-17,38,-17,91c0,0,0,60,24,106c0,0,22,46,66,76c0,0,44,30,104,45c0,0,61,14,134,15c0,0,73,0,123,-12c0,0,50,-13,83,-33c0,0,32,-20,47,-45c0,0,14,-26,15,-52c0,0,0,-51,-36,-78c0,0,-37,-27,-120,-27c0,0,0,76,-33,119c0,0,-35,41,-101,41c0,0,-25,0,-47,-6c0,0,-24,-5,-40,-17c0,0,-17,-13,-26,-30c0,0,-11,-18,-11,-41c0,0,-1,-26,10,-44c0,0,9,-20,33,-37c0,0,23,-18,63,-36c0,0,40,-18,103,-39c0,0,50,-18,94,-40c0,0,43,-24,74,-53c0,0,30,-30,48,-67c0,0,16,-39,17,-86c0,0,-1,-65,-22,-114c0,0,-22,-50,-65,-84C598,56,555,21,494,4c0,0,-60,-18,-137,-18Z" 
id="f1_s"
transform="scale(0.001,-0.001)" />

<path d="M31,0V81h3c0,0,25,0,47,4c0,0,21,3,38,14c0,0,16,11,25,32c0,0,9,20,9,55V643c0,0,0,32,-8,52c0,0,-8,18,-22,30c0,0,-15,10,-35,14c0,0,-20,3,-45,3H38v77H359L379,710h7c0,0,24,43,50,69c0,0,25,25,54,39c0,0,29,13,62,17c0,0,32,3,68,3c0,0,83,0,144,-29c0,0,59,-31,87,-99h14c0,0,22,43,50,69c0,0,27,25,59,39c0,0,29,13,64,17c0,0,34,3,70,3c0,0,59,0,106,-17c0,0,47,-17,80,-53c0,0,32,-36,49,-91c0,0,16,-56,17,-133V189c0,0,0,-35,7,-56c0,0,5,-22,18,-33c0,0,12,-12,32,-15c0,0,19,-4,45,-4h5V0H1127V503c0,0,0,98,-27,152c0,0,-28,54,-94,54c0,0,-36,-1,-62,-17c0,0,-26,-18,-41,-48c0,0,-17,-31,-23,-70c0,0,-9,-41,-8,-84V189c0,0,0,-35,7,-56c0,0,5,-22,18,-33c0,0,12,-12,33,-15c0,0,18,-4,45,-4h4V0H640V503c0,0,-1,48,-6,88c0,0,-7,38,-21,64c0,0,-15,25,-38,40c0,0,-24,14,-57,14c0,0,-38,-1,-64,-20c0,0,-26,-19,-40,-51c0,0,-16,-33,-22,-76c0,0,-7,-44,-7,-90V181c0,0,0,-33,8,-52c0,0,7,-20,22,-30c0,0,13,-11,35,-14c0,0,19,-4,45,-4h5V0Z" 
id="f1_f"
transform="scale(0.001,-0.001)" />

<path d="M574,490c0,0,0,58,-6,105c0,0,-8,45,-22,78c0,0,-15,32,-37,49c0,0,-24,17,-56,17c0,0,-65,0,-103,-63c0,0,-38,-64,-38,-186ZM468,-14c0,0,-98,0,-171,27c0,0,-75,28,-125,82c0,0,-50,54,-75,133c0,0,-26,76,-25,177c0,0,-1,107,25,189c0,0,25,80,74,136c0,0,48,53,119,82c0,0,70,26,161,26c0,0,82,0,149,-23c0,0,65,-24,112,-70c0,0,46,-47,71,-115c0,0,25,-69,25,-159V392H308c0,0,0,-77,15,-132c0,0,14,-55,40,-91c0,0,26,-36,63,-53c0,0,37,-17,85,-17c0,0,1,0,2,0c8,0,41,1,71,10c0,0,34,9,61,26c0,0,28,16,48,40c0,0,21,22,34,48c0,0,41,-22,41,-75c0,0,0,-32,-18,-61c0,0,-18,-31,-55,-53C695,34,658,12,602,0c0,0,-57,-14,-134,-14Z" 
id="f1_5"
transform="scale(0.001,-0.001)" />

<path d="M31,0V81h4c0,0,25,0,48,4c0,0,21,3,37,16c0,0,16,11,25,33c0,0,7,20,8,57V634c0,0,0,33,-8,55c0,0,-8,20,-22,31c0,0,-15,11,-35,15c0,0,-20,3,-45,3H38v81H347L377,700h8c0,0,14,34,33,60c0,0,17,26,43,43c0,0,24,16,59,26c0,0,34,7,81,8c0,0,90,0,132,-31c0,0,43,-33,43,-93c0,0,-1,-71,-51,-109c0,0,-50,-39,-141,-39c0,0,-1,0,-2,0c0,0,-1,32,-4,56c0,0,-4,23,-12,39c0,0,-9,16,-23,24c0,0,-15,8,-36,8c0,0,-28,0,-47,-13c0,0,-20,-14,-33,-34c0,0,-14,-22,-22,-49c0,0,-9,-27,-13,-54c0,0,-6,-28,-6,-52c0,0,0,-25,0,-42V184c0,0,0,-34,9,-54c0,0,7,-22,22,-32c0,0,13,-10,34,-13c0,0,18,-4,41,-4h49V0Z" 
id="f1_6"
transform="scale(0.001,-0.001)" />

<path d="M451,-14c0,0,-85,0,-154,21c0,0,-71,21,-120,71c0,0,-51,50,-78,131c0,0,-28,80,-27,198c0,0,0,123,29,206c0,0,27,82,79,133c0,0,50,50,118,72c0,0,68,20,148,20c0,0,73,0,131,-11c0,0,56,-14,94,-35c0,0,38,-21,59,-50c0,0,18,-31,19,-64c0,0,-1,-25,-8,-48c0,0,-10,-24,-31,-41c0,0,-22,-18,-60,-30c0,0,-40,-11,-99,-11c0,0,0,39,-4,76c0,0,-6,35,-17,62c0,0,-11,26,-29,44c0,0,-20,15,-49,15c0,0,-34,0,-60,-15c0,0,-26,-18,-45,-56c0,0,-20,-39,-29,-103c0,0,-11,-66,-11,-163c0,0,0,-156,43,-232c0,0,42,-77,137,-77q1,0,2,0h1c8,0,42,1,73,10c0,0,35,9,63,26c0,0,27,16,50,40c0,0,21,22,34,48c0,0,19,-11,28,-30c0,0,9,-19,9,-40c0,0,-1,-29,-17,-59c0,0,-18,-31,-53,-54C677,40,639,15,584,1c0,0,-57,-15,-133,-15Z" 
id="f1_o"
transform="scale(0.001,-0.001)" />

<path d="M394,-14c0,0,-120,0,-183,73c0,0,-64,74,-64,228V630c0,0,-1,32,-6,54c0,0,-7,20,-19,33c0,0,-13,12,-32,16c0,0,-20,5,-47,5H40v81H379V330c0,0,0,-50,6,-89c0,0,5,-40,19,-67c0,0,13,-29,35,-43c0,0,23,-16,56,-16c0,0,1,0,1,0c5,0,38,1,63,16c0,0,25,16,43,47c0,0,16,29,25,73c0,0,7,42,7,96V640c0,0,0,34,-9,53c0,0,-10,19,-24,30c0,0,-15,9,-35,13c0,0,-20,2,-42,2h-5v81H866V178c0,0,0,-34,8,-53c0,0,8,-19,21,-29c0,0,13,-10,32,-12c0,0,16,-3,35,-3c2,0,4,0,6,0h13V0H677L643,108h-7c0,0,-24,-40,-50,-63C586,45,558,19,528,7C528,7,498,-5,464,-9c0,0,-35,-5,-70,-5Z" 
id="f1_m"
transform="scale(0.001,-0.001)" />

<path d="M448,99c0,0,45,0,76,20c0,0,29,18,48,57c0,0,17,38,26,98c0,0,7,57,7,137c0,0,0,75,-7,134c0,0,-9,59,-26,99c0,0,-19,39,-48,60c0,0,-31,20,-76,20c0,0,-38,0,-65,-20c0,0,-29,-21,-44,-61c0,0,-17,-40,-25,-98c0,0,-8,-60,-8,-135c0,0,0,-156,33,-233c0,0,31,-78,109,-78ZM386,-14c-1,0,-3,0,-4,0h-1c-7,0,-77,1,-132,24c0,0,-59,24,-98,77c0,0,-40,52,-60,132c0,0,-22,79,-21,189c0,0,-1,110,21,192c0,0,20,80,60,133c0,0,38,53,97,79c0,0,56,25,131,25c0,0,43,0,78,-9c0,0,35,-10,63,-25c0,0,28,-17,49,-39c0,0,21,-22,37,-49h9c0,0,0,42,-6,79c0,0,0,15,0,33c0,0,0,16,-2,31c0,0,-2,14,-2,25c0,0,0,11,0,18v84c0,0,0,32,-10,51c0,0,-10,18,-27,29c0,0,-17,8,-39,12c0,0,-22,3,-48,3H469v81H837V188c0,0,0,-35,10,-56c0,0,10,-22,29,-32c0,0,16,-12,40,-15c0,0,22,-4,48,-4h6V0H674L631,119H617c0,0,-18,-31,-39,-56c0,0,-23,-25,-51,-41C527,22,498,4,463,-4c0,0,-34,-10,-77,-10Z" 
id="f1_a"
transform="scale(0.001,-0.001)" />

<path d="M31,0V81h3c0,0,25,0,47,4c0,0,21,3,38,14c0,0,16,11,25,32c0,0,9,20,9,55V639c0,0,0,32,-8,51c0,0,-8,19,-22,31c0,0,-15,9,-35,14c0,0,-20,3,-45,3H38v81H359L379,710h7c0,0,24,43,50,69c0,0,25,25,54,39c0,0,29,13,62,17c0,0,32,3,68,3c0,0,59,0,106,-17c0,0,47,-17,80,-53c0,0,32,-36,49,-91c0,0,16,-56,17,-133V189c0,0,0,-35,7,-56c0,0,5,-22,18,-33c0,0,12,-12,33,-15c0,0,18,-4,45,-4h4V0H640V503c0,0,-1,48,-6,88c0,0,-7,38,-21,64c0,0,-15,25,-38,40c0,0,-24,14,-57,14c0,0,-38,-1,-64,-20c0,0,-26,-19,-40,-51c0,0,-16,-33,-22,-76c0,0,-7,-44,-7,-90V181c0,0,0,-33,8,-52c0,0,7,-20,22,-30c0,0,13,-11,35,-14c0,0,19,-4,45,-4h5V0Z" 
id="f1_d"
transform="scale(0.001,-0.001)" />

<path d="M392,96c0,0,32,0,60,14c0,0,25,13,46,38c0,0,18,26,29,62c0,0,9,35,9,79V403H468c0,0,-47,-1,-77,-13c0,0,-31,-13,-50,-34c0,0,-19,-22,-27,-53c0,0,-8,-33,-8,-74c0,0,-1,-67,21,-100c0,0,21,-33,65,-33ZM314,-14c-2,0,-3,0,-5,0c0,0,-51,0,-94,14c0,0,-44,15,-76,46c0,0,-33,32,-52,79c0,0,-19,47,-18,111c0,0,-1,125,85,185c0,0,85,61,257,61H536v86c0,0,0,38,-3,71c0,0,-3,32,-12,57c0,0,-11,23,-29,37c0,0,-19,11,-50,12c0,0,-30,0,-49,-12c0,0,-20,-13,-32,-34c0,0,-13,-22,-16,-52c0,0,-6,-31,-6,-67h-1c-11,0,-105,1,-153,24c0,0,-53,23,-52,79c0,0,-1,41,25,71c0,0,24,29,68,49c0,0,43,18,100,27c0,0,57,8,122,8c0,0,80,0,141,-13c0,0,59,-15,100,-45c0,0,38,-30,59,-80c0,0,20,-50,20,-121V189c0,0,0,-31,6,-52c0,0,4,-21,15,-33c0,0,9,-12,28,-17c0,0,15,-6,39,-6c1,0,3,0,4,0h6V0H582L550,105H536c0,0,-26,-30,-47,-53c0,0,-23,-24,-48,-38C441,14,415,0,384,-6c0,0,-30,-8,-70,-8Z" 
id="f1_3"
transform="scale(0.001,-0.001)" />

<path d="M26,0V81H44c0,0,16,0,37,4c0,0,17,3,35,13c0,0,15,10,26,30c0,0,10,19,11,53V987c0,0,-1,30,-11,49c0,0,-11,18,-27,29c0,0,-17,8,-35,12c0,0,-20,3,-36,3H26v81H383V571c0,0,0,-21,0,-47c0,0,0,-29,0,-53c0,0,-5,-29,-5,-58L570,628c0,0,25,28,34,46c0,0,7,16,7,27c0,0,0,19,-20,31c0,0,-22,10,-59,10v77H917V742c0,0,-54,0,-104,-30c0,0,-51,-32,-112,-100L605,503L808,200c0,0,39,-60,81,-90c0,0,41,-29,78,-29h5V4H810c0,0,-57,0,-98,13c0,0,-41,14,-70,41c0,0,-31,27,-60,76L446,350L385,304V181c0,0,0,-34,11,-53c0,0,10,-20,27,-30c0,0,16,-10,35,-13c0,0,19,-4,36,-4h18V0Z" 
id="f1_z"
transform="scale(0.001,-0.001)" />

<path d="M364,-274c9,0,135,0,195,39c0,0,61,38,61,114c0,0,-1,47,-31,68c0,0,-31,18,-92,19H319c0,0,-24,-1,-47,-4c0,0,-24,-5,-43,-17c0,0,-21,-13,-33,-35c0,0,-12,-24,-12,-60c0,0,0,-65,46,-94c0,0,45,-30,133,-30h1Zm28,653c0,0,30,0,51,13c0,0,20,12,32,35c0,0,11,24,17,57c0,0,5,32,5,74c0,0,0,43,-5,78c0,0,-6,34,-18,59c0,0,-12,23,-32,38c0,0,-21,14,-51,14c0,0,-31,0,-50,-14c0,0,-20,-15,-32,-40c0,0,-13,-26,-18,-60c0,0,-6,-36,-5,-77c0,0,0,-41,6,-73c0,0,5,-32,18,-56c0,0,12,-23,32,-35c0,0,20,-13,50,-13ZM366,-366c-2,0,-4,0,-6,0c-9,0,-183,1,-268,54c0,0,-89,54,-89,159c0,0,0,81,53,126c0,0,52,42,154,50c0,0,-22,8,-41,20c0,0,-21,12,-36,29c0,0,-16,17,-26,38c0,0,-10,21,-9,49c0,0,0,25,10,47c0,0,10,21,28,42c0,0,17,18,43,37c0,0,24,16,54,34c0,0,-34,12,-61,34c0,0,-30,20,-50,51c0,0,-21,29,-32,67c0,0,-13,39,-12,85c0,0,0,133,78,209c0,0,77,73,241,73c0,0,54,0,101,-13c0,0,46,-15,81,-34c0,0,12,14,28,30c0,0,14,14,35,27c0,0,18,12,43,21c0,0,23,8,53,8c0,0,27,0,48,-6c0,0,20,-9,35,-20c0,0,12,-13,20,-27c0,0,7,-16,7,-34c0,0,0,-17,-5,-33c0,0,-6,-17,-17,-28c0,0,-13,-13,-34,-19c0,0,-20,-7,-49,-7c-1,0,-2,0,-4,0c0,0,0,15,-4,27c0,0,-6,12,-14,20c0,0,-9,8,-18,13c0,0,-11,3,-22,4c0,0,-13,0,-27,-5c0,0,-15,-6,-23,-12c0,0,16,-17,29,-38c0,0,14,-23,24,-48c0,0,10,-25,16,-52c0,0,5,-27,6,-56c0,0,0,-58,-18,-106c0,0,-20,-49,-57,-84c0,0,-38,-36,-96,-56c0,0,-59,-21,-138,-21H351c0,0,-13,0,-24,2c0,0,-13,1,-18,2c0,0,-11,-6,-20,-13c0,0,-10,-8,-17,-17c0,0,-9,-11,-13,-22c0,0,-6,-13,-5,-25c0,0,0,-27,20,-38c0,0,17,-12,48,-12c1,0,2,0,3,0H510c0,0,76,0,132,-15c0,0,54,-17,91,-47c0,0,36,-30,53,-73c0,0,17,-43,17,-97c0,0,0,-72,-26,-126c0,0,-27,-56,-82,-94c0,0,-55,-40,-138,-59c0,0,-81,-21,-191,-21Z" 
id="f1_l"
transform="scale(0.001,-0.001)" />

<path d="M371,-14c0,0,-52,0,-93,13c0,0,-42,11,-71,40c0,0,-29,27,-44,74c0,0,-16,46,-16,113V715H32v78c0,0,49,0,88,19c0,0,38,19,62,45c0,0,46,49,70,152H379V819H574V715H379V242c0,0,0,-70,24,-102c0,0,22,-32,75,-32c0,0,1,0,2,0c0,0,29,0,57,5c0,0,27,3,51,9V23c0,0,-13,-6,-32,-13C556,10,534,4,508,0c0,0,-28,-7,-62,-10c0,0,-35,-4,-75,-4Z" 
id="f1_4"
transform="scale(0.001,-0.001)" />

<path d="M469,81c0,0,43,0,75,22c0,0,30,21,49,63c0,0,19,41,27,103c0,0,7,61,8,144c0,0,-1,81,-8,144c0,0,-9,60,-28,102c0,0,-20,40,-50,62c0,0,-31,20,-74,20c0,0,-45,0,-75,-20c0,0,-30,-22,-49,-62c0,0,-19,-42,-27,-102c0,0,-8,-63,-8,-144c0,0,0,-83,9,-144c0,0,7,-62,27,-103c0,0,19,-42,50,-63c0,0,29,-22,74,-22Zm-1,-95c0,0,-1,0,-2,0c0,0,-92,0,-165,26c0,0,-73,25,-123,79c0,0,-52,52,-79,134c0,0,-28,80,-27,188c0,0,-1,215,101,320c0,0,101,105,298,105c0,0,91,0,165,-26c0,0,72,-26,123,-79c0,0,50,-53,79,-132c0,0,27,-81,27,-188c0,0,0,-217,-101,-322C764,91,662,-14,468,-14Z" 
id="f1_b"
transform="scale(0.001,-0.001)" />

<path d="M373,-11c0,0,-26,0,-49,7c0,0,-24,4,-40,19c0,0,-17,13,-27,37c0,0,-10,23,-9,58c0,0,-1,34,9,59c0,0,10,22,27,37c0,0,16,14,40,20c0,0,23,5,49,6c0,0,25,-1,48,-6c0,0,23,-6,40,-20c0,0,16,-15,28,-37c0,0,9,-25,9,-59c0,0,0,-35,-9,-58c0,0,-12,-24,-28,-37C461,15,444,0,421,-4c0,0,-23,-7,-48,-7ZM328,348L298,536c0,0,65,26,107,62c0,0,41,35,66,76c0,0,24,41,33,85c0,0,9,44,9,91c0,0,0,36,-6,67c0,0,-7,30,-21,52c0,0,-15,21,-38,34c0,0,-24,12,-54,12c0,0,-35,0,-58,-16c0,0,-23,-17,-37,-42c0,0,-15,-27,-20,-61c0,0,-7,-35,-7,-74c0,0,-47,0,-86,7c0,0,-41,7,-68,20c0,0,-29,12,-45,33c0,0,-17,20,-16,47c0,0,0,36,19,70c0,0,19,32,60,56c0,0,39,23,100,38c0,0,62,13,146,13c0,0,81,0,149,-18c0,0,68,-20,119,-56c0,0,50,-37,78,-88c0,0,28,-53,28,-119c0,0,0,-62,-18,-110c0,0,-20,-48,-58,-88c0,0,-38,-41,-94,-74c0,0,-58,-35,-134,-66L421,348Z" 
id="f1_12"
transform="scale(0.001,-0.001)" />

<path d="M674,452L593,703c0,0,-9,25,-16,55c0,0,-10,28,-18,58c0,0,-8,29,-16,60c0,0,-9,29,-14,56c0,0,-7,-24,-16,-51c0,0,-9,-28,-18,-57c0,0,-11,-29,-21,-58c0,0,-10,-29,-19,-56L365,452ZM6,0V81H25c0,0,20,0,37,5c0,0,16,4,31,17c0,0,14,12,28,34c0,0,12,20,26,55l331,899H688L1007,191c0,0,11,-33,24,-53c0,0,12,-22,27,-34c0,0,13,-12,30,-17c0,0,15,-6,32,-6c1,0,2,0,3,0h27V0H646V81h60c0,0,10,0,23,4c0,0,11,2,21,10c0,0,9,7,15,18c0,0,6,12,6,27c0,0,0,19,-4,36c0,0,-5,16,-9,30L704,359H333L289,228c0,0,-7,-20,-12,-44c0,0,-7,-26,-7,-44c0,0,0,-15,6,-26c0,0,5,-11,16,-18c0,0,9,-8,22,-11c0,0,12,-4,25,-4h65V0Z" 
id="f1_13"
transform="scale(0.001,-0.001)" />

<path d="M58,0V64H78c0,0,24,0,48,4c0,0,22,3,40,13c0,0,16,10,27,32c0,0,10,20,10,53V923c0,0,0,33,-10,54c0,0,-11,20,-27,32c0,0,-18,11,-40,14c0,0,-24,3,-48,3H58v65H407L723,217l313,874h339v-65h-20c0,0,-26,0,-48,-3c0,0,-24,-4,-40,-15c0,0,-17,-13,-27,-34c0,0,-11,-21,-10,-57V174c0,0,-1,-37,10,-58c0,0,10,-21,27,-32c0,0,16,-13,40,-16c0,0,22,-4,48,-4h20V0H968V64h6c0,0,24,0,44,4c0,0,20,3,34,13c0,0,14,10,22,29c0,0,8,19,8,50V976L733,0H650L296,974V174c0,0,-1,-37,8,-58c0,0,7,-21,22,-32c0,0,13,-13,35,-16c0,0,19,-4,46,-4h4V0Z" 
id="f0_21"
transform="scale(0.001,-0.001)" />

<path d="M58,-366v72h1c8,0,79,1,133,23c0,0,55,24,97,64c0,0,39,40,68,95c0,0,26,55,45,118L119,674c0,0,-10,23,-20,39c0,0,-10,14,-21,25c0,0,-13,9,-29,13c0,0,-17,3,-39,4H6v64H373V755h-4c0,0,-47,0,-69,-18c0,0,-24,-18,-23,-56c0,0,-1,-13,3,-25c0,0,2,-14,9,-31L401,353c0,0,9,-27,22,-57c0,0,11,-31,22,-61c0,0,9,-31,18,-57c0,0,7,-28,11,-47h4c0,0,8,34,23,82c0,0,14,48,34,103L637,614c0,0,7,19,11,36c0,0,2,16,2,30c0,0,0,38,-24,57c0,0,-26,18,-76,18h-5v64H863V755h-4c0,0,-23,0,-38,-5c0,0,-18,-6,-30,-18c0,0,-13,-14,-24,-37c0,0,-11,-24,-25,-59L510,-5c0,0,-27,-74,-50,-130c0,0,-25,-56,-50,-95c0,0,-27,-41,-57,-67c0,0,-32,-26,-71,-41c0,0,-40,-17,-91,-22c0,0,-51,-6,-119,-6Z" 
id="f0_v"
transform="scale(0.001,-0.001)" />

<path d="M518,83c0,0,50,0,86,21c0,0,35,21,58,63c0,0,23,41,33,104c0,0,10,61,11,142c0,0,-1,80,-11,142c0,0,-10,60,-33,101c0,0,-23,40,-58,60c0,0,-38,20,-88,20c0,0,-60,0,-99,-19c0,0,-41,-20,-64,-61c0,0,-24,-40,-34,-101c0,0,-10,-62,-10,-144c0,0,0,-80,10,-141c0,0,10,-62,35,-103c0,0,23,-42,64,-63c0,0,39,-21,100,-21Zm27,-97c-1,0,-2,0,-3,0h-2c-8,0,-46,1,-77,10c0,0,-37,8,-65,26c0,0,-29,18,-50,43c0,0,-23,24,-39,54H299L272,0H28V64H40c0,0,25,0,49,4c0,0,22,3,39,16c0,0,17,11,27,32c0,0,10,21,10,58V993c0,0,0,33,-10,54c0,0,-11,21,-27,32c0,0,-18,11,-40,15c0,0,-24,3,-48,3H28v64H306V880c0,0,0,-26,0,-59c0,0,0,-35,0,-66c0,0,0,-36,0,-74h3c0,0,16,34,39,63c0,0,21,28,50,49c0,0,27,19,64,31c0,0,36,9,80,10c0,0,75,0,134,-25c0,0,58,-26,98,-76c0,0,38,-53,60,-132c0,0,20,-80,20,-190c0,0,0,-111,-20,-191c0,0,-22,-80,-60,-133c0,0,-40,-53,-98,-77c0,0,-57,-24,-131,-24Z" 
id="f0_n"
transform="scale(0.001,-0.001)" />

<path d="M197,0V27c0,0,71,2,92,13c0,0,21,10,29,29c0,0,9,18,9,109V725c0,0,0,110,-8,141c0,0,-5,24,-19,35c0,0,-14,11,-33,11c0,0,-28,0,-77,-23l-11,23l246,121h25V178c0,0,0,-85,7,-106c0,0,7,-21,29,-32c0,0,23,-11,91,-13V0Z" 
id="f3_l"
transform="scale(0.001,-0.001)" />

<path d="M275,-20L578,891H299c0,0,-84,0,-120,-20c0,0,-63,-35,-101,-106l-21,8l97,239H696V983L359,-20Z" 
id="f3_r"
transform="scale(0.001,-0.001)" />


</defs>
</svg>