<?xml version="1.0" encoding="UTF-8" standalone="no"?>
<!DOCTYPE svg PUBLIC "-//W3C//DTD SVG 1.1//EN"
"http://www.w3.org/Graphics/SVG/1.1/DTD/svg11.dtd">
<svg viewBox="0 0 909 1286" version="1.1" xmlns="http://www.w3.org/2000/svg" xmlns:xlink="http://www.w3.org/1999/xlink">
<defs>
<clipPath id="c0_199"><path d="M35.1,1194.7V113.1H873.9V1194.7Z" /></clipPath>
</defs>
<g clip-path="url(#c0_199)">
<g fill="#000000" >
<use xlink:href="#f0_22" transform="matrix(12,0,0,12,47.4,136)" />
<use xlink:href="#f0_13" transform="matrix(12,0,0,12,63.2,136)" />
<use xlink:href="#f0_18" transform="matrix(12,0,0,12,78.2,136)" />
<use xlink:href="#f0_4" transform="matrix(12,0,0,12,88.1,136)" />
<use xlink:href="#f0_3" transform="matrix(12,0,0,12,94.6,136)" />
<use xlink:href="#f0_p" transform="matrix(12,0,0,12,104.4,136)" />
<use xlink:href="#f0_6" transform="matrix(12,0,0,12,111.1,136)" />
<use xlink:href="#f0_7" transform="matrix(12,0,0,12,121.4,136)" />
<use xlink:href="#f0_21" transform="matrix(12,0,0,12,133.3,136)" />
<use xlink:href="#f0_c" transform="matrix(12,0,0,12,137.8,136)" />
<use xlink:href="#f0_k" transform="matrix(12,0,0,12,150.8,136)" />
<use xlink:href="#f0_d" transform="matrix(12,0,0,12,159.9,136)" />
<use xlink:href="#f0_7" transform="matrix(12,0,0,12,170.4,136)" />
<use xlink:href="#f0_c" transform="matrix(12,0,0,12,182.3,136)" />
<use xlink:href="#f0_4" transform="matrix(12,0,0,12,190.5,136)" />
<use xlink:href="#f0_6" transform="matrix(12,0,0,12,197,136)" />
<use xlink:href="#f0_7" transform="matrix(12,0,0,12,207.3,136)" />
<use xlink:href="#f0_4" transform="matrix(12,0,0,12,219.1,136)" />
<use xlink:href="#f0_23" transform="matrix(12,0,0,12,47.4,186.4)" />
<use xlink:href="#f0_13" transform="matrix(12,0,0,12,61.2,186.4)" />
<use xlink:href="#f0_1y" transform="matrix(12,0,0,12,76.2,186.4)" />
<use xlink:href="#f0_l" transform="matrix(12,0,0,12,87.6,186.4)" />
<use xlink:href="#f0_8" transform="matrix(12,0,0,12,104.9,186.4)" />
<use xlink:href="#f0_c" transform="matrix(12,0,0,12,110.8,186.4)" />
<use xlink:href="#f0_c" transform="matrix(12,0,0,12,119,186.4)" />
<use xlink:href="#f0_8" transform="matrix(12,0,0,12,127.3,186.4)" />
<use xlink:href="#f0_h" transform="matrix(12,0,0,12,133.1,186.4)" />
<use xlink:href="#f0_8" transform="matrix(12,0,0,12,143.7,186.4)" />
<use xlink:href="#f0_4" transform="matrix(12,0,0,12,149.6,186.4)" />
<use xlink:href="#f0_j" transform="matrix(12,0,0,12,156,186.4)" />
<use xlink:href="#f0_d" transform="matrix(12,0,0,12,171.1,186.4)" />
<use xlink:href="#f0_p" transform="matrix(12,0,0,12,181.7,186.4)" />
<use xlink:href="#f0_4" transform="matrix(12,0,0,12,193.2,186.4)" />
<use xlink:href="#f0_o" transform="matrix(12,0,0,12,199.6,186.4)" />
<use xlink:href="#f0_3" transform="matrix(12,0,0,12,211.3,186.4)" />
<use xlink:href="#f0_11" transform="matrix(12,0,0,12,225.8,186.4)" />
<use xlink:href="#f0_d" transform="matrix(12,0,0,12,237.1,186.4)" />
<use xlink:href="#f0_9" transform="matrix(12,0,0,12,247.6,186.4)" />
<use xlink:href="#f0_j" transform="matrix(12,0,0,12,258.9,186.4)" />
<use xlink:href="#f0_6" transform="matrix(12,0,0,12,274,186.4)" />
<use xlink:href="#f0_7" transform="matrix(12,0,0,12,284.3,186.4)" />
<use xlink:href="#f0_9" transform="matrix(12,0,0,12,296.1,186.4)" />
<use xlink:href="#f0_c" transform="matrix(12,0,0,12,312.1,186.4)" />
<use xlink:href="#f0_m" transform="matrix(12,0,0,12,320.4,186.4)" />
<use xlink:href="#f0_i" transform="matrix(12,0,0,12,332,186.4)" />
<use xlink:href="#f0_i" transform="matrix(12,0,0,12,340.6,186.4)" />
<use xlink:href="#f0_d" transform="matrix(12,0,0,12,349.2,186.4)" />
<use xlink:href="#f0_m" transform="matrix(12,0,0,12,359.8,186.4)" />
<use xlink:href="#f0_7" transform="matrix(12,0,0,12,371.4,186.4)" />
<use xlink:href="#f0_9" transform="matrix(12,0,0,12,383.2,186.4)" />
<use xlink:href="#f0_8" transform="matrix(12,0,0,12,394.5,186.4)" />
<use xlink:href="#f0_7" transform="matrix(12,0,0,12,400.3,186.4)" />
<use xlink:href="#f0_b" transform="matrix(12,0,0,12,412.1,186.4)" />
<use xlink:href="#f0_c" transform="matrix(12,0,0,12,422,186.4)" />
<use xlink:href="#f0_1y" transform="matrix(12,0,0,12,47.4,241.4)" />
<use xlink:href="#f0_13" transform="matrix(12,0,0,12,63.5,241.4)" />
</g>
</g>
<image preserveAspectRatio="none" x="78" y="214" width="243" height="44" xlink:href="img/1.png" />
<image preserveAspectRatio="none" x="47" y="277" width="323" height="50" xlink:href="img/2.png" />
<g clip-path="url(#c0_199)">
<g fill="#000000" >
<use xlink:href="#f0_1c" transform="matrix(12,0,0,12,47.4,368.2)" />
<use xlink:href="#f0_7" transform="matrix(12,0,0,12,54.1,368.2)" />
<use xlink:href="#f0_k" transform="matrix(12,0,0,12,65.9,368.2)" />
<use xlink:href="#f0_6" transform="matrix(12,0,0,12,74.9,368.2)" />
<use xlink:href="#f0_c" transform="matrix(12,0,0,12,85.2,368.2)" />
<use xlink:href="#f0_3" transform="matrix(12,0,0,12,93.5,368.2)" />
<use xlink:href="#f0_d" transform="matrix(12,0,0,12,108.1,368.2)" />
<use xlink:href="#f0_p" transform="matrix(12,0,0,12,118.6,368.2)" />
<use xlink:href="#f0_14" transform="matrix(12,0,0,12,130.1,368.2)" />
<use xlink:href="#f0_3" transform="matrix(12,0,0,12,144.1,368.2)" />
<use xlink:href="#f0_e" transform="matrix(12,0,0,12,153.9,368.2)" />
<use xlink:href="#f0_4" transform="matrix(12,0,0,12,169.7,368.2)" />
<use xlink:href="#f0_d" transform="matrix(12,0,0,12,176.2,368.2)" />
<use xlink:href="#f0_7" transform="matrix(12,0,0,12,186.7,368.2)" />
<use xlink:href="#f0_21" transform="matrix(12,0,0,12,198.6,368.2)" />
<use xlink:href="#f0_c" transform="matrix(12,0,0,12,203.1,368.2)" />
<use xlink:href="#f0_k" transform="matrix(12,0,0,12,216.2,368.2)" />
<use xlink:href="#f0_d" transform="matrix(12,0,0,12,225.2,368.2)" />
<use xlink:href="#f0_d" transform="matrix(12,0,0,12,235.8,368.2)" />
<use xlink:href="#f0_a" transform="matrix(12,0,0,12,246.3,368.2)" />
<use xlink:href="#f0_8" transform="matrix(12,0,0,12,252,368.2)" />
<use xlink:href="#f0_7" transform="matrix(12,0,0,12,257.9,368.2)" />
<use xlink:href="#f0_b" transform="matrix(12,0,0,12,269.7,368.2)" />
<use xlink:href="#f0_u" transform="matrix(12,0,0,12,279.5,368.2)" />
<use xlink:href="#f0_z" transform="matrix(12,0,0,12,288.9,368.2)" />
<use xlink:href="#f0_24" transform="matrix(12,0,0,12,304.8,368.2)" />
<use xlink:href="#f0_z" transform="matrix(12,0,0,12,319.9,368.2)" />
<use xlink:href="#f0_d" transform="matrix(12,0,0,12,331.1,368.2)" />
<use xlink:href="#f0_1y" transform="matrix(12,0,0,12,47.4,423.2)" />
<use xlink:href="#f0_13" transform="matrix(12,0,0,12,63.5,423.2)" />
<use xlink:href="#f0_23" transform="matrix(12,0,0,12,78.5,423.2)" />
<use xlink:href="#f0_22" transform="matrix(12,0,0,12,92.4,423.2)" />
</g>
</g>
<image preserveAspectRatio="none" x="108" y="396" width="286" height="44" xlink:href="img/3.png" />
<g clip-path="url(#c0_199)">
<g fill="#000000" >
<use xlink:href="#f0_1y" transform="matrix(12,0,0,12,47.4,484.3)" />
<use xlink:href="#f0_13" transform="matrix(12,0,0,12,63.5,484.3)" />
<use xlink:href="#f0_23" transform="matrix(12,0,0,12,78.5,484.3)" />
<use xlink:href="#f0_22" transform="matrix(12,0,0,12,92.4,484.3)" />
</g>
</g>
<image preserveAspectRatio="none" x="108" y="458" width="120" height="42" xlink:href="img/4.png" />
<image preserveAspectRatio="none" x="47" y="518" width="149" height="41" xlink:href="img/5.png" />
<image preserveAspectRatio="none" x="47" y="579" width="126" height="32" xlink:href="img/6.png" />
<g clip-path="url(#c0_199)">
<g fill="#000000" >
<use xlink:href="#f0_1f" transform="matrix(12,0,0,12,47.4,652.4)" />
<use xlink:href="#f0_3" transform="matrix(12,0,0,12,61.9,652.4)" />
<use xlink:href="#f0_7" transform="matrix(12,0,0,12,71.7,652.4)" />
<use xlink:href="#f0_k" transform="matrix(12,0,0,12,83.5,652.4)" />
<use xlink:href="#f0_3" transform="matrix(12,0,0,12,92.5,652.4)" />
<use xlink:href="#f0_u" transform="matrix(12,0,0,12,102.4,652.4)" />
<use xlink:href="#f1_2" transform="matrix(12,0,0,12,111.7,652.4)" />
<use xlink:href="#f0_1f" transform="matrix(12,0,0,12,131.8,652.4)" />
<use xlink:href="#f0_3" transform="matrix(12,0,0,12,146.3,652.4)" />
<use xlink:href="#f0_7" transform="matrix(12,0,0,12,156.1,652.4)" />
<use xlink:href="#f0_k" transform="matrix(12,0,0,12,168,652.4)" />
<use xlink:href="#f0_3" transform="matrix(12,0,0,12,177,652.4)" />
<use xlink:href="#f0_4" transform="matrix(12,0,0,12,191.5,652.4)" />
<use xlink:href="#f0_o" transform="matrix(12,0,0,12,198,652.4)" />
<use xlink:href="#f0_3" transform="matrix(12,0,0,12,209.6,652.4)" />
<use xlink:href="#f0_14" transform="matrix(12,0,0,12,224.2,652.4)" />
<use xlink:href="#f0_3" transform="matrix(12,0,0,12,238.2,652.4)" />
<use xlink:href="#f0_e" transform="matrix(12,0,0,12,248,652.4)" />
<use xlink:href="#f0_4" transform="matrix(12,0,0,12,263.8,652.4)" />
<use xlink:href="#f0_d" transform="matrix(12,0,0,12,270.2,652.4)" />
<use xlink:href="#f0_7" transform="matrix(12,0,0,12,280.8,652.4)" />
<use xlink:href="#f0_21" transform="matrix(12,0,0,12,292.6,652.4)" />
<use xlink:href="#f0_c" transform="matrix(12,0,0,12,297.2,652.4)" />
<use xlink:href="#f0_a" transform="matrix(12,0,0,12,310.2,652.4)" />
<use xlink:href="#f0_6" transform="matrix(12,0,0,12,315.9,652.4)" />
<use xlink:href="#f0_e" transform="matrix(12,0,0,12,326.2,652.4)" />
<use xlink:href="#f0_d" transform="matrix(12,0,0,12,346.7,652.4)" />
<use xlink:href="#f0_p" transform="matrix(12,0,0,12,357.3,652.4)" />
<use xlink:href="#f0_k" transform="matrix(12,0,0,12,368.8,652.4)" />
<use xlink:href="#f0_d" transform="matrix(12,0,0,12,377.8,652.4)" />
<use xlink:href="#f0_d" transform="matrix(12,0,0,12,388.4,652.4)" />
<use xlink:href="#f0_a" transform="matrix(12,0,0,12,399,652.4)" />
<use xlink:href="#f0_8" transform="matrix(12,0,0,12,404.6,652.4)" />
<use xlink:href="#f0_7" transform="matrix(12,0,0,12,410.5,652.4)" />
<use xlink:href="#f0_b" transform="matrix(12,0,0,12,422.3,652.4)" />
<use xlink:href="#f0_1y" transform="matrix(12,0,0,12,47.4,705.8)" />
<use xlink:href="#f0_25" transform="matrix(12,0,0,12,63.5,705.8)" />
</g>
</g>
<image preserveAspectRatio="none" x="79" y="680" width="83" height="41" xlink:href="img/7.png" />
<g clip-path="url(#c0_199)">
<g fill="#000000" >
<use xlink:href="#f2_1g" transform="matrix(12,0,0,12,47.4,782.2)" />
<use xlink:href="#f2_n" transform="matrix(12,0,0,12,57.6,782.2)" />
<use xlink:href="#f2_1d" transform="matrix(12,0,0,12,63.2,782.2)" />
<use xlink:href="#f2_5" transform="matrix(12,0,0,12,77.2,782.2)" />
<use xlink:href="#f2_e" transform="matrix(12,0,0,12,87.7,782.2)" />
<use xlink:href="#f2_7" transform="matrix(12,0,0,12,95.1,782.2)" />
<use xlink:href="#f2_d" transform="matrix(12,0,0,12,101.6,782.2)" />
<use xlink:href="#f2_5" transform="matrix(12,0,0,12,113.8,782.2)" />
<use xlink:href="#f2_4" transform="matrix(12,0,0,12,129,782.2)" />
<use xlink:href="#f2_u" transform="matrix(12,0,0,12,136.4,782.2)" />
<use xlink:href="#f2_5" transform="matrix(12,0,0,12,148.6,782.2)" />
<use xlink:href="#f2_4" transform="matrix(12,0,0,12,163.8,782.2)" />
<use xlink:href="#f2_5" transform="matrix(12,0,0,12,171.2,782.2)" />
<use xlink:href="#f2_6" transform="matrix(12,0,0,12,181.7,782.2)" />
<use xlink:href="#f2_f" transform="matrix(12,0,0,12,191.3,782.2)" />
<use xlink:href="#f2_s" transform="matrix(12,0,0,12,209.3,782.2)" />
<use xlink:href="#f2_6" transform="matrix(12,0,0,12,223,782.2)" />
<use xlink:href="#f2_5" transform="matrix(12,0,0,12,232.6,782.2)" />
<use xlink:href="#f2_e" transform="matrix(12,0,0,12,243,782.2)" />
<use xlink:href="#f2_8" transform="matrix(12,0,0,12,250.5,782.2)" />
<use xlink:href="#f2_5" transform="matrix(12,0,0,12,256.9,782.2)" />
<use xlink:href="#f2_o" transform="matrix(12,0,0,12,267.4,782.2)" />
<use xlink:href="#f2_4" transform="matrix(12,0,0,12,277,782.2)" />
<use xlink:href="#f2_3" transform="matrix(12,0,0,12,284.4,782.2)" />
<use xlink:href="#f2_d" transform="matrix(12,0,0,12,295.4,782.2)" />
<use xlink:href="#f2_o" transform="matrix(12,0,0,12,307.6,782.2)" />
<use xlink:href="#f2_5" transform="matrix(12,0,0,12,317.3,782.2)" />
<use xlink:href="#f2_1p" transform="matrix(12,0,0,12,327.7,782.2)" />
<use xlink:href="#f2_3" transform="matrix(12,0,0,12,337.9,782.2)" />
<use xlink:href="#f2_15" transform="matrix(12,0,0,12,348.8,782.2)" />
<use xlink:href="#f2_s" transform="matrix(12,0,0,12,360.7,782.2)" />
<use xlink:href="#f2_b" transform="matrix(12,0,0,12,369.7,782.2)" />
<use xlink:href="#f2_6" transform="matrix(12,0,0,12,380.9,782.2)" />
<use xlink:href="#f2_t" transform="matrix(12,0,0,12,390.4,782.2)" />
<use xlink:href="#f2_4" transform="matrix(12,0,0,12,402.3,782.2)" />
<use xlink:href="#f2_3" transform="matrix(12,0,0,12,409.7,782.2)" />
<use xlink:href="#f2_d" transform="matrix(12,0,0,12,420.6,782.2)" />
<use xlink:href="#f2_o" transform="matrix(12,0,0,12,432.9,782.2)" />
<use xlink:href="#f2_5" transform="matrix(12,0,0,12,442.5,782.2)" />
<use xlink:href="#f2_3" transform="matrix(12,0,0,12,457.7,782.2)" />
<use xlink:href="#f2_d" transform="matrix(12,0,0,12,468.7,782.2)" />
<use xlink:href="#f2_a" transform="matrix(12,0,0,12,480.9,782.2)" />
<use xlink:href="#f2_4" transform="matrix(12,0,0,12,497.6,782.2)" />
<use xlink:href="#f2_6" transform="matrix(12,0,0,12,505,782.2)" />
<use xlink:href="#f2_3" transform="matrix(12,0,0,12,514.5,782.2)" />
<use xlink:href="#f2_d" transform="matrix(12,0,0,12,525.5,782.2)" />
<use xlink:href="#f2_s" transform="matrix(12,0,0,12,537.7,782.2)" />
<use xlink:href="#f2_f" transform="matrix(12,0,0,12,546.7,782.2)" />
<use xlink:href="#f2_7" transform="matrix(12,0,0,12,564.7,782.2)" />
<use xlink:href="#f2_4" transform="matrix(12,0,0,12,571.2,782.2)" />
<use xlink:href="#f2_4" transform="matrix(12,0,0,12,578.6,782.2)" />
<use xlink:href="#f2_3" transform="matrix(12,0,0,12,586,782.2)" />
<use xlink:href="#f2_d" transform="matrix(12,0,0,12,597,782.2)" />
<use xlink:href="#f2_o" transform="matrix(12,0,0,12,609.2,782.2)" />
<use xlink:href="#f2_5" transform="matrix(12,0,0,12,618.8,782.2)" />
<use xlink:href="#f2_n" transform="matrix(12,0,0,12,629.3,782.2)" />
<use xlink:href="#f2_1a" transform="matrix(12,0,0,12,639.6,782.2)" />
<use xlink:href="#f2_b" transform="matrix(12,0,0,12,654.6,782.2)" />
<use xlink:href="#f2_c" transform="matrix(12,0,0,12,665.8,782.2)" />
<use xlink:href="#f2_3" transform="matrix(12,0,0,12,686.2,782.2)" />
<use xlink:href="#f2_6" transform="matrix(12,0,0,12,697.2,782.2)" />
<use xlink:href="#f2_5" transform="matrix(12,0,0,12,706.8,782.2)" />
<use xlink:href="#f2_4" transform="matrix(12,0,0,12,722,782.2)" />
<use xlink:href="#f2_u" transform="matrix(12,0,0,12,729.4,782.2)" />
<use xlink:href="#f2_5" transform="matrix(12,0,0,12,741.6,782.2)" />
<use xlink:href="#f2_g" transform="matrix(12,0,0,12,752.1,782.2)" />
<use xlink:href="#f2_6" transform="matrix(12,0,0,12,767.4,782.2)" />
<use xlink:href="#f2_5" transform="matrix(12,0,0,12,777,782.2)" />
<use xlink:href="#f2_8" transform="matrix(12,0,0,12,787.5,782.2)" />
<use xlink:href="#f2_3" transform="matrix(12,0,0,12,793.9,782.2)" />
<use xlink:href="#f2_4" transform="matrix(12,0,0,12,804.9,782.2)" />
<use xlink:href="#f2_5" transform="matrix(12,0,0,12,812.3,782.2)" />
<use xlink:href="#f2_a" transform="matrix(12,0,0,12,822.7,782.2)" />
<use xlink:href="#f2_11" transform="matrix(12,0,0,12,834.6,782.2)" />
<use xlink:href="#f2_12" transform="matrix(12,0,0,12,47.4,832.6)" />
<use xlink:href="#f2_d" transform="matrix(12,0,0,12,61.2,832.6)" />
<use xlink:href="#f2_s" transform="matrix(12,0,0,12,73.4,832.6)" />
<use xlink:href="#f2_n" transform="matrix(12,0,0,12,82.3,832.6)" />
<use xlink:href="#f0_t" transform="matrix(12,0,0,12,87.9,832.6)" />
<use xlink:href="#f0_w" transform="matrix(12,0,0,12,98.1,832.6)" />
<use xlink:href="#f0_15" transform="matrix(12,0,0,12,109.2,832.6)" />
<use xlink:href="#f0_3" transform="matrix(12,0,0,12,121.2,832.6)" />
<use xlink:href="#f0_p" transform="matrix(12,0,0,12,131,832.6)" />
<use xlink:href="#f0_a" transform="matrix(12,0,0,12,137.8,832.6)" />
<use xlink:href="#f0_3" transform="matrix(12,0,0,12,143.4,832.6)" />
<use xlink:href="#f0_k" transform="matrix(12,0,0,12,153.3,832.6)" />
<use xlink:href="#f0_4" transform="matrix(12,0,0,12,162.3,832.6)" />
<use xlink:href="#f0_6" transform="matrix(12,0,0,12,168.7,832.6)" />
<use xlink:href="#f0_7" transform="matrix(12,0,0,12,179,832.6)" />
<use xlink:href="#f0_k" transform="matrix(12,0,0,12,190.9,832.6)" />
<use xlink:href="#f0_3" transform="matrix(12,0,0,12,199.9,832.6)" />
<use xlink:href="#f0_19" transform="matrix(12,0,0,12,214.4,832.6)" />
<use xlink:href="#f0_15" transform="matrix(12,0,0,12,228.4,832.6)" />
<use xlink:href="#f0_6" transform="matrix(12,0,0,12,240.4,832.6)" />
<use xlink:href="#f0_4" transform="matrix(12,0,0,12,250.7,832.6)" />
<use xlink:href="#f0_8" transform="matrix(12,0,0,12,257.1,832.6)" />
<use xlink:href="#f0_d" transform="matrix(12,0,0,12,263,832.6)" />
<use xlink:href="#f0_d" transform="matrix(12,0,0,12,278.3,832.6)" />
<use xlink:href="#f0_p" transform="matrix(12,0,0,12,288.9,832.6)" />
<use xlink:href="#f0_6" transform="matrix(12,0,0,12,300.4,832.6)" />
<use xlink:href="#f0_l" transform="matrix(12,0,0,12,310.7,832.6)" />
<use xlink:href="#f0_d" transform="matrix(12,0,0,12,328,832.6)" />
<use xlink:href="#f0_m" transform="matrix(12,0,0,12,338.6,832.6)" />
<use xlink:href="#f0_7" transform="matrix(12,0,0,12,350.2,832.6)" />
<use xlink:href="#f0_4" transform="matrix(12,0,0,12,362,832.6)" />
<use xlink:href="#f0_d" transform="matrix(12,0,0,12,373.2,832.6)" />
<use xlink:href="#f0_p" transform="matrix(12,0,0,12,383.8,832.6)" />
<use xlink:href="#f0_4" transform="matrix(12,0,0,12,395.3,832.6)" />
<use xlink:href="#f0_o" transform="matrix(12,0,0,12,401.7,832.6)" />
<use xlink:href="#f0_3" transform="matrix(12,0,0,12,413.4,832.6)" />
<use xlink:href="#f0_i" transform="matrix(12,0,0,12,423.2,832.6)" />
<use xlink:href="#f0_l" transform="matrix(12,0,0,12,431.8,832.6)" />
<use xlink:href="#f0_6" transform="matrix(12,0,0,12,449.1,832.6)" />
<use xlink:href="#f0_a" transform="matrix(12,0,0,12,459.4,832.6)" />
<use xlink:href="#f0_i" transform="matrix(12,0,0,12,469.8,832.6)" />
<use xlink:href="#f0_6" transform="matrix(12,0,0,12,478.5,832.6)" />
<use xlink:href="#f0_9" transform="matrix(12,0,0,12,488.8,832.6)" />
<use xlink:href="#f0_8" transform="matrix(12,0,0,12,500,832.6)" />
<use xlink:href="#f0_6" transform="matrix(12,0,0,12,505.9,832.6)" />
<use xlink:href="#f0_4" transform="matrix(12,0,0,12,516.2,832.6)" />
<use xlink:href="#f0_8" transform="matrix(12,0,0,12,522.6,832.6)" />
<use xlink:href="#f0_d" transform="matrix(12,0,0,12,528.5,832.6)" />
<use xlink:href="#f0_7" transform="matrix(12,0,0,12,539,832.6)" />
<use xlink:href="#f0_c" transform="matrix(12,0,0,12,550.9,832.6)" />
<use xlink:href="#f0_i" transform="matrix(12,0,0,12,563.9,832.6)" />
<use xlink:href="#f0_3" transform="matrix(12,0,0,12,572.5,832.6)" />
<use xlink:href="#f0_p" transform="matrix(12,0,0,12,582.3,832.6)" />
<use xlink:href="#f0_a" transform="matrix(12,0,0,12,589.1,832.6)" />
<use xlink:href="#f0_3" transform="matrix(12,0,0,12,594.7,832.6)" />
<use xlink:href="#f0_k" transform="matrix(12,0,0,12,604.5,832.6)" />
<use xlink:href="#f0_4" transform="matrix(12,0,0,12,613.6,832.6)" />
<use xlink:href="#f0_3" transform="matrix(12,0,0,12,620,832.6)" />
<use xlink:href="#f0_9" transform="matrix(12,0,0,12,629.8,832.6)" />
<use xlink:href="#f0_11" transform="matrix(12,0,0,12,645.8,832.6)" />
<use xlink:href="#f0_j" transform="matrix(12,0,0,12,657.1,832.6)" />
<use xlink:href="#f0_4" transform="matrix(12,0,0,12,672.2,832.6)" />
<use xlink:href="#f0_o" transform="matrix(12,0,0,12,678.6,832.6)" />
<use xlink:href="#f0_3" transform="matrix(12,0,0,12,690.2,832.6)" />
<use xlink:href="#f0_11" transform="matrix(12,0,0,12,704.8,832.6)" />
<use xlink:href="#f0_d" transform="matrix(12,0,0,12,716,832.6)" />
<use xlink:href="#f0_9" transform="matrix(12,0,0,12,726.6,832.6)" />
<use xlink:href="#f0_j" transform="matrix(12,0,0,12,737.8,832.6)" />
<use xlink:href="#f0_8" transform="matrix(12,0,0,12,752.9,832.6)" />
<use xlink:href="#f0_7" transform="matrix(12,0,0,12,758.8,832.6)" />
<use xlink:href="#f0_6" transform="matrix(12,0,0,12,775.3,832.6)" />
<use xlink:href="#f0_b" transform="matrix(12,0,0,12,790.4,832.6)" />
<use xlink:href="#f0_8" transform="matrix(12,0,0,12,800.3,832.6)" />
<use xlink:href="#f0_h" transform="matrix(12,0,0,12,806.1,832.6)" />
<use xlink:href="#f0_3" transform="matrix(12,0,0,12,816.7,832.6)" />
<use xlink:href="#f0_7" transform="matrix(12,0,0,12,826.5,832.6)" />
<use xlink:href="#f0_4" transform="matrix(12,0,0,12,47.4,864.7)" />
<use xlink:href="#f0_8" transform="matrix(12,0,0,12,53.8,864.7)" />
<use xlink:href="#f0_l" transform="matrix(12,0,0,12,59.7,864.7)" />
<use xlink:href="#f0_3" transform="matrix(12,0,0,12,77,864.7)" />
<use xlink:href="#f0_4" transform="matrix(12,0,0,12,91.5,864.7)" />
<use xlink:href="#f0_d" transform="matrix(12,0,0,12,98,864.7)" />
<use xlink:href="#f0_4" transform="matrix(12,0,0,12,113.3,864.7)" />
<use xlink:href="#f0_d" transform="matrix(12,0,0,12,119.7,864.7)" />
<use xlink:href="#f0_4" transform="matrix(12,0,0,12,130.3,864.7)" />
<use xlink:href="#f0_6" transform="matrix(12,0,0,12,136.8,864.7)" />
<use xlink:href="#f0_a" transform="matrix(12,0,0,12,147.1,864.7)" />
<use xlink:href="#f0_6" transform="matrix(12,0,0,12,157.5,864.7)" />
<use xlink:href="#f0_l" transform="matrix(12,0,0,12,167.8,864.7)" />
<use xlink:href="#f0_d" transform="matrix(12,0,0,12,185.1,864.7)" />
<use xlink:href="#f0_m" transform="matrix(12,0,0,12,195.7,864.7)" />
<use xlink:href="#f0_7" transform="matrix(12,0,0,12,207.3,864.7)" />
<use xlink:href="#f0_4" transform="matrix(12,0,0,12,219.1,864.7)" />
<use xlink:href="#f0_d" transform="matrix(12,0,0,12,230.3,864.7)" />
<use xlink:href="#f0_p" transform="matrix(12,0,0,12,240.9,864.7)" />
<use xlink:href="#f0_4" transform="matrix(12,0,0,12,252.4,864.7)" />
<use xlink:href="#f0_o" transform="matrix(12,0,0,12,258.9,864.7)" />
<use xlink:href="#f0_3" transform="matrix(12,0,0,12,270.5,864.7)" />
<use xlink:href="#f0_i" transform="matrix(12,0,0,12,280.3,864.7)" />
<use xlink:href="#f0_l" transform="matrix(12,0,0,12,288.9,864.7)" />
<use xlink:href="#f0_6" transform="matrix(12,0,0,12,306.2,864.7)" />
<use xlink:href="#f0_a" transform="matrix(12,0,0,12,316.5,864.7)" />
<use xlink:href="#f0_i" transform="matrix(12,0,0,12,327,864.7)" />
<use xlink:href="#f0_6" transform="matrix(12,0,0,12,335.6,864.7)" />
<use xlink:href="#f0_9" transform="matrix(12,0,0,12,345.9,864.7)" />
<use xlink:href="#f0_8" transform="matrix(12,0,0,12,357.1,864.7)" />
<use xlink:href="#f0_6" transform="matrix(12,0,0,12,363,864.7)" />
<use xlink:href="#f0_4" transform="matrix(12,0,0,12,373.3,864.7)" />
<use xlink:href="#f0_8" transform="matrix(12,0,0,12,379.7,864.7)" />
<use xlink:href="#f0_d" transform="matrix(12,0,0,12,385.6,864.7)" />
<use xlink:href="#f0_7" transform="matrix(12,0,0,12,396.2,864.7)" />
<use xlink:href="#f0_c" transform="matrix(12,0,0,12,408,864.7)" />
<use xlink:href="#f0_8" transform="matrix(12,0,0,12,421,864.7)" />
<use xlink:href="#f0_7" transform="matrix(12,0,0,12,426.8,864.7)" />
<use xlink:href="#f0_k" transform="matrix(12,0,0,12,438.7,864.7)" />
<use xlink:href="#f0_8" transform="matrix(12,0,0,12,447.7,864.7)" />
<use xlink:href="#f0_9" transform="matrix(12,0,0,12,453.5,864.7)" />
<use xlink:href="#f0_3" transform="matrix(12,0,0,12,464.8,864.7)" />
<use xlink:href="#f0_7" transform="matrix(12,0,0,12,474.6,864.7)" />
<use xlink:href="#f0_4" transform="matrix(12,0,0,12,486.4,864.7)" />
<use xlink:href="#f0_d" transform="matrix(12,0,0,12,497.6,864.7)" />
<use xlink:href="#f0_7" transform="matrix(12,0,0,12,508.2,864.7)" />
<use xlink:href="#f0_11" transform="matrix(12,0,0,12,524.7,864.7)" />
<use xlink:href="#f0_d" transform="matrix(12,0,0,12,536,864.7)" />
<use xlink:href="#f0_9" transform="matrix(12,0,0,12,546.6,864.7)" />
<use xlink:href="#f0_j" transform="matrix(12,0,0,12,557.8,864.7)" />
<use xlink:href="#f0_1c" transform="matrix(12,0,0,12,572.9,864.7)" />
<use xlink:href="#f0_4" transform="matrix(12,0,0,12,579.6,864.7)" />
<use xlink:href="#f0_8" transform="matrix(12,0,0,12,590.8,864.7)" />
<use xlink:href="#f0_c" transform="matrix(12,0,0,12,596.7,864.7)" />
<use xlink:href="#f0_i" transform="matrix(12,0,0,12,609.7,864.7)" />
<use xlink:href="#f0_3" transform="matrix(12,0,0,12,618.3,864.7)" />
<use xlink:href="#f0_g" transform="matrix(12,0,0,12,628.1,864.7)" />
<use xlink:href="#f0_i" transform="matrix(12,0,0,12,639.4,864.7)" />
<use xlink:href="#f0_3" transform="matrix(12,0,0,12,648,864.7)" />
<use xlink:href="#f0_c" transform="matrix(12,0,0,12,657.8,864.7)" />
<use xlink:href="#f0_3" transform="matrix(12,0,0,12,666,864.7)" />
<use xlink:href="#f0_7" transform="matrix(12,0,0,12,675.9,864.7)" />
<use xlink:href="#f0_4" transform="matrix(12,0,0,12,687.7,864.7)" />
<use xlink:href="#f0_3" transform="matrix(12,0,0,12,694.1,864.7)" />
<use xlink:href="#f0_9" transform="matrix(12,0,0,12,703.9,864.7)" />
<use xlink:href="#f0_11" transform="matrix(12,0,0,12,719.9,864.7)" />
<use xlink:href="#f0_j" transform="matrix(12,0,0,12,731.2,864.7)" />
<use xlink:href="#f0_i" transform="matrix(12,0,0,12,746.2,864.7)" />
<use xlink:href="#f0_u" transform="matrix(12,0,0,12,754.9,864.7)" />
<use xlink:href="#f0_y" transform="matrix(12,0,0,12,764.2,864.7)" />
<use xlink:href="#f0_w" transform="matrix(12,0,0,12,774.4,864.7)" />
<use xlink:href="#f0_q" transform="matrix(12,0,0,12,47.4,896.8)" />
<use xlink:href="#f0_11" transform="matrix(12,0,0,12,60.3,896.8)" />
<use xlink:href="#f0_c" transform="matrix(12,0,0,12,71.5,896.8)" />
<use xlink:href="#f0_d" transform="matrix(12,0,0,12,79.8,896.8)" />
<use xlink:href="#f0_i" transform="matrix(12,0,0,12,90.4,896.8)" />
<use xlink:href="#f0_g" transform="matrix(12,0,0,12,99,896.8)" />
<use xlink:href="#f0_4" transform="matrix(12,0,0,12,110.2,896.8)" />
<use xlink:href="#f0_6" transform="matrix(12,0,0,12,116.7,896.8)" />
<use xlink:href="#f0_7" transform="matrix(12,0,0,12,127,896.8)" />
<use xlink:href="#f0_k" transform="matrix(12,0,0,12,138.8,896.8)" />
<use xlink:href="#f0_3" transform="matrix(12,0,0,12,147.8,896.8)" />
<use xlink:href="#f0_19" transform="matrix(12,0,0,12,162.4,896.8)" />
<use xlink:href="#f0_8" transform="matrix(12,0,0,12,176.3,896.8)" />
<use xlink:href="#f0_c" transform="matrix(12,0,0,12,182.1,896.8)" />
<use xlink:href="#f0_4" transform="matrix(12,0,0,12,195.1,896.8)" />
<use xlink:href="#f0_o" transform="matrix(12,0,0,12,201.6,896.8)" />
<use xlink:href="#f0_3" transform="matrix(12,0,0,12,213.2,896.8)" />
<use xlink:href="#f0_i" transform="matrix(12,0,0,12,227.8,896.8)" />
<use xlink:href="#f0_6" transform="matrix(12,0,0,12,236.4,896.8)" />
<use xlink:href="#f0_4" transform="matrix(12,0,0,12,246.7,896.8)" />
<use xlink:href="#f0_8" transform="matrix(12,0,0,12,253.2,896.8)" />
<use xlink:href="#f0_d" transform="matrix(12,0,0,12,259,896.8)" />
<use xlink:href="#f0_d" transform="matrix(12,0,0,12,274.3,896.8)" />
<use xlink:href="#f0_p" transform="matrix(12,0,0,12,284.9,896.8)" />
<use xlink:href="#f0_4" transform="matrix(12,0,0,12,296.4,896.8)" />
<use xlink:href="#f0_o" transform="matrix(12,0,0,12,302.9,896.8)" />
<use xlink:href="#f0_3" transform="matrix(12,0,0,12,314.5,896.8)" />
<use xlink:href="#f0_6" transform="matrix(12,0,0,12,329,896.8)" />
<use xlink:href="#f0_l" transform="matrix(12,0,0,12,339.4,896.8)" />
<use xlink:href="#f0_d" transform="matrix(12,0,0,12,356.7,896.8)" />
<use xlink:href="#f0_m" transform="matrix(12,0,0,12,367.2,896.8)" />
<use xlink:href="#f0_7" transform="matrix(12,0,0,12,378.9,896.8)" />
<use xlink:href="#f0_4" transform="matrix(12,0,0,12,390.7,896.8)" />
<use xlink:href="#f0_d" transform="matrix(12,0,0,12,401.9,896.8)" />
<use xlink:href="#f0_p" transform="matrix(12,0,0,12,412.5,896.8)" />
<use xlink:href="#f0_4" transform="matrix(12,0,0,12,424,896.8)" />
<use xlink:href="#f0_o" transform="matrix(12,0,0,12,430.4,896.8)" />
<use xlink:href="#f0_3" transform="matrix(12,0,0,12,442,896.8)" />
<use xlink:href="#f0_i" transform="matrix(12,0,0,12,451.8,896.8)" />
<use xlink:href="#f0_l" transform="matrix(12,0,0,12,460.5,896.8)" />
<use xlink:href="#f0_6" transform="matrix(12,0,0,12,477.8,896.8)" />
<use xlink:href="#f0_a" transform="matrix(12,0,0,12,488.1,896.8)" />
<use xlink:href="#f0_4" transform="matrix(12,0,0,12,498.5,896.8)" />
<use xlink:href="#f0_d" transform="matrix(12,0,0,12,505,896.8)" />
<use xlink:href="#f0_4" transform="matrix(12,0,0,12,520.3,896.8)" />
<use xlink:href="#f0_o" transform="matrix(12,0,0,12,526.7,896.8)" />
<use xlink:href="#f0_3" transform="matrix(12,0,0,12,538.4,896.8)" />
<use xlink:href="#f0_4" transform="matrix(12,0,0,12,552.9,896.8)" />
<use xlink:href="#f0_d" transform="matrix(12,0,0,12,559.4,896.8)" />
<use xlink:href="#f0_4" transform="matrix(12,0,0,12,569.9,896.8)" />
<use xlink:href="#f0_6" transform="matrix(12,0,0,12,576.4,896.8)" />
<use xlink:href="#f0_a" transform="matrix(12,0,0,12,586.7,896.8)" />
<use xlink:href="#f0_6" transform="matrix(12,0,0,12,597.1,896.8)" />
<use xlink:href="#f0_l" transform="matrix(12,0,0,12,607.4,896.8)" />
<use xlink:href="#f0_d" transform="matrix(12,0,0,12,624.7,896.8)" />
<use xlink:href="#f0_m" transform="matrix(12,0,0,12,635.3,896.8)" />
<use xlink:href="#f0_7" transform="matrix(12,0,0,12,646.9,896.8)" />
<use xlink:href="#f0_4" transform="matrix(12,0,0,12,658.8,896.8)" />
<use xlink:href="#f0_d" transform="matrix(12,0,0,12,670,896.8)" />
<use xlink:href="#f0_p" transform="matrix(12,0,0,12,680.5,896.8)" />
<use xlink:href="#f0_4" transform="matrix(12,0,0,12,692,896.8)" />
<use xlink:href="#f0_o" transform="matrix(12,0,0,12,698.5,896.8)" />
<use xlink:href="#f0_3" transform="matrix(12,0,0,12,710.1,896.8)" />
<use xlink:href="#f0_i" transform="matrix(12,0,0,12,719.9,896.8)" />
<use xlink:href="#f0_l" transform="matrix(12,0,0,12,728.5,896.8)" />
<use xlink:href="#f0_6" transform="matrix(12,0,0,12,745.8,896.8)" />
<use xlink:href="#f0_a" transform="matrix(12,0,0,12,756.2,896.8)" />
<use xlink:href="#f0_i" transform="matrix(12,0,0,12,766.6,896.8)" />
<use xlink:href="#f0_6" transform="matrix(12,0,0,12,775.2,896.8)" />
<use xlink:href="#f0_9" transform="matrix(12,0,0,12,785.5,896.8)" />
<use xlink:href="#f0_8" transform="matrix(12,0,0,12,796.8,896.8)" />
<use xlink:href="#f0_6" transform="matrix(12,0,0,12,802.6,896.8)" />
<use xlink:href="#f0_4" transform="matrix(12,0,0,12,812.9,896.8)" />
<use xlink:href="#f0_8" transform="matrix(12,0,0,12,819.4,896.8)" />
<use xlink:href="#f0_d" transform="matrix(12,0,0,12,825.2,896.8)" />
<use xlink:href="#f0_7" transform="matrix(12,0,0,12,835.8,896.8)" />
<use xlink:href="#f0_c" transform="matrix(12,0,0,12,847.6,896.8)" />
<use xlink:href="#f0_8" transform="matrix(12,0,0,12,47.4,928.9)" />
<use xlink:href="#f0_7" transform="matrix(12,0,0,12,53.2,928.9)" />
<use xlink:href="#f0_k" transform="matrix(12,0,0,12,65,928.9)" />
<use xlink:href="#f0_8" transform="matrix(12,0,0,12,74,928.9)" />
<use xlink:href="#f0_9" transform="matrix(12,0,0,12,79.9,928.9)" />
<use xlink:href="#f0_3" transform="matrix(12,0,0,12,91.1,928.9)" />
<use xlink:href="#f0_7" transform="matrix(12,0,0,12,101,928.9)" />
<use xlink:href="#f0_4" transform="matrix(12,0,0,12,112.8,928.9)" />
<use xlink:href="#f0_d" transform="matrix(12,0,0,12,124,928.9)" />
<use xlink:href="#f0_7" transform="matrix(12,0,0,12,134.5,928.9)" />
<use xlink:href="#f0_8" transform="matrix(12,0,0,12,151.1,928.9)" />
<use xlink:href="#f0_4" transform="matrix(12,0,0,12,157,928.9)" />
<use xlink:href="#f0_n" transform="matrix(12,0,0,12,163.4,928.9)" />
<use xlink:href="#f0_1c" transform="matrix(12,0,0,12,173.4,928.9)" />
<use xlink:href="#f0_4" transform="matrix(12,0,0,12,180.1,928.9)" />
<use xlink:href="#f0_8" transform="matrix(12,0,0,12,191.3,928.9)" />
<use xlink:href="#f0_c" transform="matrix(12,0,0,12,197.2,928.9)" />
<use xlink:href="#f0_i" transform="matrix(12,0,0,12,210.2,928.9)" />
<use xlink:href="#f0_3" transform="matrix(12,0,0,12,218.8,928.9)" />
<use xlink:href="#f0_g" transform="matrix(12,0,0,12,228.6,928.9)" />
<use xlink:href="#f0_i" transform="matrix(12,0,0,12,239.8,928.9)" />
<use xlink:href="#f0_3" transform="matrix(12,0,0,12,248.5,928.9)" />
<use xlink:href="#f0_c" transform="matrix(12,0,0,12,258.3,928.9)" />
<use xlink:href="#f0_3" transform="matrix(12,0,0,12,266.5,928.9)" />
<use xlink:href="#f0_7" transform="matrix(12,0,0,12,276.3,928.9)" />
<use xlink:href="#f0_4" transform="matrix(12,0,0,12,288.2,928.9)" />
<use xlink:href="#f0_3" transform="matrix(12,0,0,12,294.6,928.9)" />
<use xlink:href="#f0_9" transform="matrix(12,0,0,12,304.4,928.9)" />
<use xlink:href="#f0_11" transform="matrix(12,0,0,12,320.4,928.9)" />
<use xlink:href="#f0_j" transform="matrix(12,0,0,12,331.6,928.9)" />
<use xlink:href="#f0_6" transform="matrix(12,0,0,12,346.7,928.9)" />
<use xlink:href="#f0_1a" transform="matrix(12,0,0,12,47.4,979.3)" />
<use xlink:href="#f0_w" transform="matrix(12,0,0,12,57.6,979.3)" />
<use xlink:href="#f0_z" transform="matrix(12,0,0,12,68.7,979.3)" />
<use xlink:href="#f0_i" transform="matrix(12,0,0,12,79.9,979.3)" />
<use xlink:href="#f0_6" transform="matrix(12,0,0,12,88.5,979.3)" />
<use xlink:href="#f0_7" transform="matrix(12,0,0,12,98.8,979.3)" />
<use xlink:href="#f0_c" transform="matrix(12,0,0,12,110.6,979.3)" />
<use xlink:href="#f0_l" transform="matrix(12,0,0,12,118.9,979.3)" />
<use xlink:href="#f0_8" transform="matrix(12,0,0,12,136.2,979.3)" />
<use xlink:href="#f0_4" transform="matrix(12,0,0,12,142.1,979.3)" />
<use xlink:href="#f0_4" transform="matrix(12,0,0,12,148.5,979.3)" />
<use xlink:href="#f0_6" transform="matrix(12,0,0,12,155,979.3)" />
<use xlink:href="#f0_7" transform="matrix(12,0,0,12,165.3,979.3)" />
<use xlink:href="#f0_k" transform="matrix(12,0,0,12,177.1,979.3)" />
<use xlink:href="#f0_3" transform="matrix(12,0,0,12,186.1,979.3)" />
<use xlink:href="#f0_19" transform="matrix(12,0,0,12,200.7,979.3)" />
<use xlink:href="#f0_1c" transform="matrix(12,0,0,12,214.6,979.3)" />
<use xlink:href="#f0_4" transform="matrix(12,0,0,12,221.3,979.3)" />
<use xlink:href="#f0_8" transform="matrix(12,0,0,12,232.5,979.3)" />
<use xlink:href="#f0_c" transform="matrix(12,0,0,12,238.4,979.3)" />
<use xlink:href="#f0_4" transform="matrix(12,0,0,12,251.4,979.3)" />
<use xlink:href="#f0_o" transform="matrix(12,0,0,12,257.8,979.3)" />
<use xlink:href="#f0_3" transform="matrix(12,0,0,12,269.4,979.3)" />
<use xlink:href="#f0_i" transform="matrix(12,0,0,12,284,979.3)" />
<use xlink:href="#f0_6" transform="matrix(12,0,0,12,292.6,979.3)" />
<use xlink:href="#f0_4" transform="matrix(12,0,0,12,302.9,979.3)" />
<use xlink:href="#f0_8" transform="matrix(12,0,0,12,309.4,979.3)" />
<use xlink:href="#f0_d" transform="matrix(12,0,0,12,315.2,979.3)" />
<use xlink:href="#f0_d" transform="matrix(12,0,0,12,330.5,979.3)" />
<use xlink:href="#f0_p" transform="matrix(12,0,0,12,341.1,979.3)" />
<use xlink:href="#f0_4" transform="matrix(12,0,0,12,352.6,979.3)" />
<use xlink:href="#f0_o" transform="matrix(12,0,0,12,359.1,979.3)" />
<use xlink:href="#f0_3" transform="matrix(12,0,0,12,370.7,979.3)" />
<use xlink:href="#f0_6" transform="matrix(12,0,0,12,385.3,979.3)" />
<use xlink:href="#f0_l" transform="matrix(12,0,0,12,395.6,979.3)" />
<use xlink:href="#f0_d" transform="matrix(12,0,0,12,412.9,979.3)" />
<use xlink:href="#f0_m" transform="matrix(12,0,0,12,423.5,979.3)" />
<use xlink:href="#f0_7" transform="matrix(12,0,0,12,435.1,979.3)" />
<use xlink:href="#f0_4" transform="matrix(12,0,0,12,446.9,979.3)" />
<use xlink:href="#f0_d" transform="matrix(12,0,0,12,458.1,979.3)" />
<use xlink:href="#f0_p" transform="matrix(12,0,0,12,468.7,979.3)" />
<use xlink:href="#f0_4" transform="matrix(12,0,0,12,480.2,979.3)" />
<use xlink:href="#f0_o" transform="matrix(12,0,0,12,486.6,979.3)" />
<use xlink:href="#f0_3" transform="matrix(12,0,0,12,498.2,979.3)" />
<use xlink:href="#f0_i" transform="matrix(12,0,0,12,508.1,979.3)" />
<use xlink:href="#f0_l" transform="matrix(12,0,0,12,516.7,979.3)" />
<use xlink:href="#f0_6" transform="matrix(12,0,0,12,534,979.3)" />
<use xlink:href="#f0_a" transform="matrix(12,0,0,12,544.3,979.3)" />
<use xlink:href="#f0_i" transform="matrix(12,0,0,12,554.7,979.3)" />
<use xlink:href="#f0_6" transform="matrix(12,0,0,12,563.3,979.3)" />
<use xlink:href="#f0_9" transform="matrix(12,0,0,12,573.7,979.3)" />
<use xlink:href="#f0_8" transform="matrix(12,0,0,12,584.9,979.3)" />
<use xlink:href="#f0_6" transform="matrix(12,0,0,12,590.7,979.3)" />
<use xlink:href="#f0_4" transform="matrix(12,0,0,12,601.1,979.3)" />
<use xlink:href="#f0_8" transform="matrix(12,0,0,12,607.5,979.3)" />
<use xlink:href="#f0_d" transform="matrix(12,0,0,12,613.4,979.3)" />
<use xlink:href="#f0_7" transform="matrix(12,0,0,12,623.9,979.3)" />
<use xlink:href="#f0_c" transform="matrix(12,0,0,12,635.7,979.3)" />
<use xlink:href="#f0_4" transform="matrix(12,0,0,12,648.8,979.3)" />
<use xlink:href="#f0_i" transform="matrix(12,0,0,12,655.2,979.3)" />
<use xlink:href="#f0_6" transform="matrix(12,0,0,12,663.8,979.3)" />
<use xlink:href="#f0_7" transform="matrix(12,0,0,12,674.1,979.3)" />
<use xlink:href="#f0_c" transform="matrix(12,0,0,12,685.9,979.3)" />
<use xlink:href="#f0_l" transform="matrix(12,0,0,12,694.2,979.3)" />
<use xlink:href="#f0_8" transform="matrix(12,0,0,12,711.5,979.3)" />
<use xlink:href="#f0_4" transform="matrix(12,0,0,12,717.4,979.3)" />
<use xlink:href="#f0_4" transform="matrix(12,0,0,12,723.8,979.3)" />
<use xlink:href="#f0_3" transform="matrix(12,0,0,12,730.3,979.3)" />
<use xlink:href="#f0_9" transform="matrix(12,0,0,12,740.1,979.3)" />
<use xlink:href="#f0_11" transform="matrix(12,0,0,12,756.1,979.3)" />
<use xlink:href="#f0_j" transform="matrix(12,0,0,12,767.3,979.3)" />
<use xlink:href="#f0_11" transform="matrix(12,0,0,12,782.4,979.3)" />
<use xlink:href="#f0_d" transform="matrix(12,0,0,12,793.6,979.3)" />
<use xlink:href="#f0_9" transform="matrix(12,0,0,12,804.2,979.3)" />
<use xlink:href="#f0_j" transform="matrix(12,0,0,12,815.5,979.3)" />
<use xlink:href="#f0_8" transform="matrix(12,0,0,12,830.5,979.3)" />
<use xlink:href="#f0_7" transform="matrix(12,0,0,12,836.4,979.3)" />
<use xlink:href="#f0_6" transform="matrix(12,0,0,12,47.4,1011.4)" />
<use xlink:href="#f0_b" transform="matrix(12,0,0,12,62.4,1011.4)" />
<use xlink:href="#f0_8" transform="matrix(12,0,0,12,72.3,1011.4)" />
<use xlink:href="#f0_h" transform="matrix(12,0,0,12,78.1,1011.4)" />
<use xlink:href="#f0_3" transform="matrix(12,0,0,12,88.7,1011.4)" />
<use xlink:href="#f0_7" transform="matrix(12,0,0,12,98.5,1011.4)" />
<use xlink:href="#f0_4" transform="matrix(12,0,0,12,115.1,1011.4)" />
<use xlink:href="#f0_8" transform="matrix(12,0,0,12,121.6,1011.4)" />
<use xlink:href="#f0_l" transform="matrix(12,0,0,12,127.4,1011.4)" />
<use xlink:href="#f0_3" transform="matrix(12,0,0,12,144.7,1011.4)" />
<use xlink:href="#f0_4" transform="matrix(12,0,0,12,159.3,1011.4)" />
<use xlink:href="#f0_d" transform="matrix(12,0,0,12,165.7,1011.4)" />
<use xlink:href="#f0_4" transform="matrix(12,0,0,12,181,1011.4)" />
<use xlink:href="#f0_o" transform="matrix(12,0,0,12,187.5,1011.4)" />
<use xlink:href="#f0_3" transform="matrix(12,0,0,12,199.1,1011.4)" />
<use xlink:href="#f0_4" transform="matrix(12,0,0,12,213.7,1011.4)" />
<use xlink:href="#f0_d" transform="matrix(12,0,0,12,220.1,1011.4)" />
<use xlink:href="#f0_4" transform="matrix(12,0,0,12,230.7,1011.4)" />
<use xlink:href="#f0_6" transform="matrix(12,0,0,12,237.1,1011.4)" />
<use xlink:href="#f0_a" transform="matrix(12,0,0,12,247.5,1011.4)" />
<use xlink:href="#f0_6" transform="matrix(12,0,0,12,257.9,1011.4)" />
<use xlink:href="#f0_l" transform="matrix(12,0,0,12,268.2,1011.4)" />
<use xlink:href="#f0_d" transform="matrix(12,0,0,12,285.5,1011.4)" />
<use xlink:href="#f0_m" transform="matrix(12,0,0,12,296.1,1011.4)" />
<use xlink:href="#f0_7" transform="matrix(12,0,0,12,307.7,1011.4)" />
<use xlink:href="#f0_4" transform="matrix(12,0,0,12,319.5,1011.4)" />
<use xlink:href="#f0_d" transform="matrix(12,0,0,12,330.7,1011.4)" />
<use xlink:href="#f0_p" transform="matrix(12,0,0,12,341.3,1011.4)" />
<use xlink:href="#f0_4" transform="matrix(12,0,0,12,352.8,1011.4)" />
<use xlink:href="#f0_o" transform="matrix(12,0,0,12,359.2,1011.4)" />
<use xlink:href="#f0_3" transform="matrix(12,0,0,12,370.9,1011.4)" />
<use xlink:href="#f0_i" transform="matrix(12,0,0,12,380.7,1011.4)" />
<use xlink:href="#f0_l" transform="matrix(12,0,0,12,389.3,1011.4)" />
<use xlink:href="#f0_6" transform="matrix(12,0,0,12,406.6,1011.4)" />
<use xlink:href="#f0_a" transform="matrix(12,0,0,12,416.9,1011.4)" />
<use xlink:href="#f0_i" transform="matrix(12,0,0,12,427.3,1011.4)" />
<use xlink:href="#f0_6" transform="matrix(12,0,0,12,436,1011.4)" />
<use xlink:href="#f0_9" transform="matrix(12,0,0,12,446.3,1011.4)" />
<use xlink:href="#f0_8" transform="matrix(12,0,0,12,457.5,1011.4)" />
<use xlink:href="#f0_6" transform="matrix(12,0,0,12,463.4,1011.4)" />
<use xlink:href="#f0_4" transform="matrix(12,0,0,12,473.7,1011.4)" />
<use xlink:href="#f0_8" transform="matrix(12,0,0,12,480.1,1011.4)" />
<use xlink:href="#f0_d" transform="matrix(12,0,0,12,486,1011.4)" />
<use xlink:href="#f0_7" transform="matrix(12,0,0,12,496.6,1011.4)" />
<use xlink:href="#f0_c" transform="matrix(12,0,0,12,508.4,1011.4)" />
<use xlink:href="#f0_8" transform="matrix(12,0,0,12,521.4,1011.4)" />
<use xlink:href="#f0_7" transform="matrix(12,0,0,12,527.2,1011.4)" />
<use xlink:href="#f0_k" transform="matrix(12,0,0,12,539,1011.4)" />
<use xlink:href="#f0_8" transform="matrix(12,0,0,12,548.1,1011.4)" />
<use xlink:href="#f0_9" transform="matrix(12,0,0,12,553.9,1011.4)" />
<use xlink:href="#f0_3" transform="matrix(12,0,0,12,565.2,1011.4)" />
<use xlink:href="#f0_7" transform="matrix(12,0,0,12,575,1011.4)" />
<use xlink:href="#f0_4" transform="matrix(12,0,0,12,586.8,1011.4)" />
<use xlink:href="#f0_d" transform="matrix(12,0,0,12,598,1011.4)" />
<use xlink:href="#f0_7" transform="matrix(12,0,0,12,608.6,1011.4)" />
<use xlink:href="#f0_4" transform="matrix(12,0,0,12,625.1,1011.4)" />
<use xlink:href="#f0_o" transform="matrix(12,0,0,12,631.6,1011.4)" />
<use xlink:href="#f0_3" transform="matrix(12,0,0,12,643.2,1011.4)" />
<use xlink:href="#f0_11" transform="matrix(12,0,0,12,657.8,1011.4)" />
<use xlink:href="#f0_d" transform="matrix(12,0,0,12,669,1011.4)" />
<use xlink:href="#f0_9" transform="matrix(12,0,0,12,679.6,1011.4)" />
<use xlink:href="#f0_j" transform="matrix(12,0,0,12,690.8,1011.4)" />
<use xlink:href="#f0_8" transform="matrix(12,0,0,12,705.9,1011.4)" />
<use xlink:href="#f0_7" transform="matrix(12,0,0,12,711.8,1011.4)" />
<use xlink:href="#f0_6" transform="matrix(12,0,0,12,728.3,1011.4)" />
<use xlink:href="#f0_b" transform="matrix(12,0,0,12,743.4,1011.4)" />
<use xlink:href="#f0_8" transform="matrix(12,0,0,12,753.2,1011.4)" />
<use xlink:href="#f0_h" transform="matrix(12,0,0,12,759.1,1011.4)" />
<use xlink:href="#f0_3" transform="matrix(12,0,0,12,769.7,1011.4)" />
<use xlink:href="#f0_7" transform="matrix(12,0,0,12,779.5,1011.4)" />
<use xlink:href="#f0_4" transform="matrix(12,0,0,12,796.1,1011.4)" />
<use xlink:href="#f0_8" transform="matrix(12,0,0,12,802.5,1011.4)" />
<use xlink:href="#f0_l" transform="matrix(12,0,0,12,808.4,1011.4)" />
<use xlink:href="#f0_3" transform="matrix(12,0,0,12,825.7,1011.4)" />
<use xlink:href="#f0_n" transform="matrix(12,0,0,12,835.5,1011.4)" />
<use xlink:href="#f0_1c" transform="matrix(12,0,0,12,845.5,1011.4)" />
<use xlink:href="#f0_4" transform="matrix(12,0,0,12,852.2,1011.4)" />
<use xlink:href="#f0_8" transform="matrix(12,0,0,12,47.4,1043.5)" />
<use xlink:href="#f0_c" transform="matrix(12,0,0,12,53.2,1043.5)" />
<use xlink:href="#f0_i" transform="matrix(12,0,0,12,66.2,1043.5)" />
<use xlink:href="#f0_3" transform="matrix(12,0,0,12,74.8,1043.5)" />
<use xlink:href="#f0_g" transform="matrix(12,0,0,12,84.6,1043.5)" />
<use xlink:href="#f0_i" transform="matrix(12,0,0,12,95.9,1043.5)" />
<use xlink:href="#f0_3" transform="matrix(12,0,0,12,104.5,1043.5)" />
<use xlink:href="#f0_c" transform="matrix(12,0,0,12,114.3,1043.5)" />
<use xlink:href="#f0_3" transform="matrix(12,0,0,12,122.6,1043.5)" />
<use xlink:href="#f0_7" transform="matrix(12,0,0,12,132.4,1043.5)" />
<use xlink:href="#f0_4" transform="matrix(12,0,0,12,144.2,1043.5)" />
<use xlink:href="#f0_3" transform="matrix(12,0,0,12,150.7,1043.5)" />
<use xlink:href="#f0_9" transform="matrix(12,0,0,12,160.5,1043.5)" />
<use xlink:href="#f0_11" transform="matrix(12,0,0,12,176.5,1043.5)" />
<use xlink:href="#f0_j" transform="matrix(12,0,0,12,187.7,1043.5)" />
<use xlink:href="#f0_4" transform="matrix(12,0,0,12,202.8,1043.5)" />
<use xlink:href="#f0_n" transform="matrix(12,0,0,12,209.2,1043.5)" />
<use xlink:href="#f0_2" transform="matrix(12,0,0,12,47.4,1093.9)" />
<use xlink:href="#f0_3" transform="matrix(12,0,0,12,58.8,1093.9)" />
<use xlink:href="#f0_4" transform="matrix(12,0,0,12,68.6,1093.9)" />
<use xlink:href="#f0_1l" transform="matrix(12,0,0,12,79.8,1093.9)" />
<use xlink:href="#f0_13" transform="matrix(12,0,0,12,98.1,1093.9)" />
<use xlink:href="#f0_q" transform="matrix(12,0,0,12,113.1,1093.9)" />
<use xlink:href="#f0_l" transform="matrix(12,0,0,12,126,1093.9)" />
<use xlink:href="#f0_d" transform="matrix(12,0,0,12,143.3,1093.9)" />
<use xlink:href="#f0_m" transform="matrix(12,0,0,12,153.9,1093.9)" />
<use xlink:href="#f0_7" transform="matrix(12,0,0,12,165.5,1093.9)" />
<use xlink:href="#f0_4" transform="matrix(12,0,0,12,177.4,1093.9)" />
<use xlink:href="#f0_d" transform="matrix(12,0,0,12,188.6,1093.9)" />
<use xlink:href="#f0_p" transform="matrix(12,0,0,12,199.1,1093.9)" />
<use xlink:href="#f0_4" transform="matrix(12,0,0,12,210.6,1093.9)" />
<use xlink:href="#f0_o" transform="matrix(12,0,0,12,217.1,1093.9)" />
<use xlink:href="#f0_3" transform="matrix(12,0,0,12,228.7,1093.9)" />
<use xlink:href="#f0_i" transform="matrix(12,0,0,12,243.3,1093.9)" />
<use xlink:href="#f0_6" transform="matrix(12,0,0,12,251.9,1093.9)" />
<use xlink:href="#f0_9" transform="matrix(12,0,0,12,262.2,1093.9)" />
<use xlink:href="#f0_8" transform="matrix(12,0,0,12,273.4,1093.9)" />
<use xlink:href="#f0_6" transform="matrix(12,0,0,12,279.3,1093.9)" />
<use xlink:href="#f0_4" transform="matrix(12,0,0,12,289.6,1093.9)" />
<use xlink:href="#f0_8" transform="matrix(12,0,0,12,296.1,1093.9)" />
<use xlink:href="#f0_d" transform="matrix(12,0,0,12,301.9,1093.9)" />
<use xlink:href="#f0_7" transform="matrix(12,0,0,12,312.5,1093.9)" />
<use xlink:href="#f0_c" transform="matrix(12,0,0,12,324.3,1093.9)" />
<use xlink:href="#f0_8" transform="matrix(12,0,0,12,337.3,1093.9)" />
<use xlink:href="#f0_7" transform="matrix(12,0,0,12,343.2,1093.9)" />
<use xlink:href="#f0_k" transform="matrix(12,0,0,12,355,1093.9)" />
<use xlink:href="#f0_8" transform="matrix(12,0,0,12,364,1093.9)" />
<use xlink:href="#f0_9" transform="matrix(12,0,0,12,369.8,1093.9)" />
<use xlink:href="#f0_3" transform="matrix(12,0,0,12,381.1,1093.9)" />
<use xlink:href="#f0_7" transform="matrix(12,0,0,12,390.9,1093.9)" />
<use xlink:href="#f0_4" transform="matrix(12,0,0,12,402.7,1093.9)" />
<use xlink:href="#f0_11" transform="matrix(12,0,0,12,413.9,1093.9)" />
<use xlink:href="#f0_j" transform="matrix(12,0,0,12,425.2,1093.9)" />
<use xlink:href="#f0_4" transform="matrix(12,0,0,12,440.2,1093.9)" />
<use xlink:href="#f0_o" transform="matrix(12,0,0,12,446.7,1093.9)" />
<use xlink:href="#f0_3" transform="matrix(12,0,0,12,458.3,1093.9)" />
<use xlink:href="#f0_11" transform="matrix(12,0,0,12,472.9,1093.9)" />
<use xlink:href="#f0_d" transform="matrix(12,0,0,12,484.1,1093.9)" />
<use xlink:href="#f0_9" transform="matrix(12,0,0,12,494.7,1093.9)" />
<use xlink:href="#f0_j" transform="matrix(12,0,0,12,505.9,1093.9)" />
<use xlink:href="#f0_8" transform="matrix(12,0,0,12,521,1093.9)" />
<use xlink:href="#f0_7" transform="matrix(12,0,0,12,526.9,1093.9)" />
<use xlink:href="#f0_6" transform="matrix(12,0,0,12,543.4,1093.9)" />
<use xlink:href="#f0_b" transform="matrix(12,0,0,12,558.5,1093.9)" />
<use xlink:href="#f0_8" transform="matrix(12,0,0,12,568.4,1093.9)" />
<use xlink:href="#f0_h" transform="matrix(12,0,0,12,574.2,1093.9)" />
<use xlink:href="#f0_3" transform="matrix(12,0,0,12,584.8,1093.9)" />
<use xlink:href="#f0_7" transform="matrix(12,0,0,12,594.6,1093.9)" />
<use xlink:href="#f0_4" transform="matrix(12,0,0,12,611.2,1093.9)" />
<use xlink:href="#f0_8" transform="matrix(12,0,0,12,617.6,1093.9)" />
<use xlink:href="#f0_l" transform="matrix(12,0,0,12,623.5,1093.9)" />
<use xlink:href="#f0_3" transform="matrix(12,0,0,12,640.8,1093.9)" />
<use xlink:href="#f0_1l" transform="matrix(12,0,0,12,47.4,1144.3)" />
<use xlink:href="#f0_t" transform="matrix(10,0,0,10,61,1148.9)" />
<use xlink:href="#f0_13" transform="matrix(12,0,0,12,74.2,1144.3)" />
<use xlink:href="#f0_q" transform="matrix(12,0,0,12,89.2,1144.3)" />
<use xlink:href="#f0_l" transform="matrix(12,0,0,12,102.1,1144.3)" />
<use xlink:href="#f0_d" transform="matrix(12,0,0,12,119.5,1144.3)" />
<use xlink:href="#f0_m" transform="matrix(12,0,0,12,130,1144.3)" />
<use xlink:href="#f0_7" transform="matrix(12,0,0,12,141.7,1144.3)" />
<use xlink:href="#f0_4" transform="matrix(12,0,0,12,153.5,1144.3)" />
<use xlink:href="#f0_d" transform="matrix(12,0,0,12,164.7,1144.3)" />
<use xlink:href="#f0_p" transform="matrix(12,0,0,12,175.2,1144.3)" />
<use xlink:href="#f0_4" transform="matrix(12,0,0,12,186.7,1144.3)" />
<use xlink:href="#f0_o" transform="matrix(12,0,0,12,193.2,1144.3)" />
<use xlink:href="#f0_3" transform="matrix(12,0,0,12,204.8,1144.3)" />
<use xlink:href="#f0_i" transform="matrix(12,0,0,12,214.6,1144.3)" />
<use xlink:href="#f0_l" transform="matrix(12,0,0,12,223.2,1144.3)" />
<use xlink:href="#f0_6" transform="matrix(12,0,0,12,240.6,1144.3)" />
<use xlink:href="#f0_a" transform="matrix(12,0,0,12,250.9,1144.3)" />
<use xlink:href="#f0_i" transform="matrix(12,0,0,12,261.3,1144.3)" />
<use xlink:href="#f0_6" transform="matrix(12,0,0,12,269.9,1144.3)" />
<use xlink:href="#f0_9" transform="matrix(12,0,0,12,280.2,1144.3)" />
<use xlink:href="#f0_8" transform="matrix(12,0,0,12,291.5,1144.3)" />
<use xlink:href="#f0_6" transform="matrix(12,0,0,12,297.3,1144.3)" />
<use xlink:href="#f0_4" transform="matrix(12,0,0,12,307.6,1144.3)" />
<use xlink:href="#f0_8" transform="matrix(12,0,0,12,314.1,1144.3)" />
<use xlink:href="#f0_d" transform="matrix(12,0,0,12,319.9,1144.3)" />
<use xlink:href="#f0_7" transform="matrix(12,0,0,12,330.5,1144.3)" />
<use xlink:href="#f0_c" transform="matrix(12,0,0,12,342.3,1144.3)" />
<use xlink:href="#f0_i" transform="matrix(12,0,0,12,355.3,1144.3)" />
<use xlink:href="#f0_3" transform="matrix(12,0,0,12,363.9,1144.3)" />
<use xlink:href="#f0_p" transform="matrix(12,0,0,12,373.8,1144.3)" />
<use xlink:href="#f0_a" transform="matrix(12,0,0,12,380.5,1144.3)" />
<use xlink:href="#f0_3" transform="matrix(12,0,0,12,386.2,1144.3)" />
<use xlink:href="#f0_k" transform="matrix(12,0,0,12,396,1144.3)" />
<use xlink:href="#f0_4" transform="matrix(12,0,0,12,405,1144.3)" />
<use xlink:href="#f0_3" transform="matrix(12,0,0,12,411.5,1144.3)" />
<use xlink:href="#f0_9" transform="matrix(12,0,0,12,421.3,1144.3)" />
<use xlink:href="#f0_11" transform="matrix(12,0,0,12,437.3,1144.3)" />
<use xlink:href="#f0_j" transform="matrix(12,0,0,12,448.5,1144.3)" />
<use xlink:href="#f0_4" transform="matrix(12,0,0,12,463.6,1144.3)" />
<use xlink:href="#f0_o" transform="matrix(12,0,0,12,470.1,1144.3)" />
<use xlink:href="#f0_3" transform="matrix(12,0,0,12,481.7,1144.3)" />
<use xlink:href="#f0_11" transform="matrix(12,0,0,12,496.2,1144.3)" />
<use xlink:href="#f0_d" transform="matrix(12,0,0,12,507.5,1144.3)" />
<use xlink:href="#f0_9" transform="matrix(12,0,0,12,518.1,1144.3)" />
<use xlink:href="#f0_j" transform="matrix(12,0,0,12,529.3,1144.3)" />
<use xlink:href="#f0_8" transform="matrix(12,0,0,12,544.4,1144.3)" />
<use xlink:href="#f0_7" transform="matrix(12,0,0,12,550.2,1144.3)" />
<use xlink:href="#f0_6" transform="matrix(12,0,0,12,566.8,1144.3)" />
<use xlink:href="#f0_b" transform="matrix(12,0,0,12,581.9,1144.3)" />
<use xlink:href="#f0_8" transform="matrix(12,0,0,12,591.7,1144.3)" />
<use xlink:href="#f0_h" transform="matrix(12,0,0,12,597.6,1144.3)" />
<use xlink:href="#f0_3" transform="matrix(12,0,0,12,608.2,1144.3)" />
<use xlink:href="#f0_7" transform="matrix(12,0,0,12,618,1144.3)" />
<use xlink:href="#f0_4" transform="matrix(12,0,0,12,634.6,1144.3)" />
<use xlink:href="#f0_8" transform="matrix(12,0,0,12,641,1144.3)" />
<use xlink:href="#f0_l" transform="matrix(12,0,0,12,646.8,1144.3)" />
<use xlink:href="#f0_3" transform="matrix(12,0,0,12,664.2,1144.3)" />
<use xlink:href="#f0_n" transform="matrix(12,0,0,12,674,1144.3)" />
</g>
</g>
<g fill="#000000" >
<use xlink:href="#f3_r" transform="matrix(12,0,0,12,835.7,1269.6)" />
<use xlink:href="#f3_s" transform="matrix(12,0,0,12,844.9,1269.6)" />
</g>
<defs>
<path d="M458,64c1,0,2,0,3,0c4,0,100,1,154,73c0,0,54,71,54,207c0,0,0,60,-9,116c0,0,-10,54,-24,100c0,0,-15,45,-30,80c0,0,-17,33,-32,52H544c0,0,-58,0,-114,-14c0,0,-58,-15,-102,-51c0,0,-45,-38,-72,-99c0,0,-28,-63,-28,-158c0,0,0,-67,15,-123c0,0,15,-58,46,-97c0,0,29,-40,73,-63c0,0,42,-23,96,-23ZM446,-14c-8,0,-87,1,-149,27c0,0,-67,27,-114,78c0,0,-47,50,-73,125c0,0,-26,73,-26,166c0,0,0,86,20,153c0,0,18,66,53,114c0,0,34,48,80,81c0,0,46,32,100,53c0,0,54,18,114,28c0,0,59,7,119,8H906V692H669c0,0,21,-21,47,-54c0,0,25,-34,49,-75c0,0,22,-42,38,-89c0,0,14,-50,15,-100c0,0,0,-190,-93,-289c0,0,-93,-99,-279,-99Z" 
id="f0_22"
transform="scale(0.001,-0.001)" />

<path d="M99,350v90H755V350Zm0,300v91H755V650Z" 
id="f0_13"
transform="scale(0.001,-0.001)" />

<path d="M382,-14c-2,0,-3,0,-5,0c0,0,-75,0,-131,15c0,0,-57,15,-95,44c0,0,-40,27,-58,68c0,0,-20,38,-20,87c0,0,0,45,29,75c0,0,29,27,82,28c0,0,0,-49,13,-92c0,0,12,-44,36,-77c0,0,24,-34,64,-54c0,0,38,-20,92,-20c6,0,104,0,161,50c0,0,58,49,58,142c0,0,0,41,-12,74c0,0,-13,31,-39,60c0,0,-29,26,-73,52c0,0,-46,24,-113,52c0,0,-71,29,-123,63c0,0,-54,32,-88,74c0,0,-36,39,-53,90c0,0,-17,50,-17,113c0,0,0,65,26,117c0,0,24,51,69,87c0,0,44,34,106,54c0,0,60,18,133,18c0,0,68,0,122,-14c0,0,52,-15,90,-38c0,0,36,-25,56,-54c0,0,18,-32,18,-65c0,0,0,-50,-32,-74c0,0,-33,-26,-86,-26c0,0,-1,1,-2,1c0,0,-1,35,-8,70c0,0,-9,34,-29,62c0,0,-21,27,-53,44c0,0,-34,17,-81,17c0,0,-45,0,-79,-11c0,0,-36,-13,-59,-36c0,0,-24,-23,-36,-55c0,0,-13,-33,-13,-71c0,0,-1,-47,12,-80c0,0,12,-35,40,-63c0,0,27,-28,73,-53c0,0,46,-26,112,-52c0,0,67,-28,120,-58c0,0,52,-32,89,-68c0,0,37,-39,56,-84c0,0,19,-47,19,-106c0,0,0,-73,-26,-129c0,0,-27,-59,-76,-97C651,66,602,26,533,6c0,0,-67,-20,-151,-20Z" 
id="f0_18"
transform="scale(0.001,-0.001)" />

<path d="M367,-14c0,0,-59,0,-100,13c0,0,-42,10,-69,38c0,0,-27,27,-39,73c0,0,-14,45,-14,112V732H29v61c0,0,28,0,61,11c0,0,32,11,58,37c0,0,26,28,43,68c0,0,15,38,28,98h70V819H489V732H289V217c0,0,-1,-78,32,-115c0,0,30,-36,83,-36c0,0,1,0,1,0c0,0,2,0,6,0c9,0,28,0,45,3c0,0,23,3,47,7V9C503,9,492,4,477,0c0,0,-15,-3,-33,-6c0,0,-20,-5,-39,-6c0,0,-20,-2,-38,-2Z" 
id="f0_4"
transform="scale(0.001,-0.001)" />

<path d="M586,481c0,0,0,60,-9,111c0,0,-9,50,-29,85c0,0,-19,36,-51,56c0,0,-33,18,-79,19c0,0,-87,-1,-133,-69c0,0,-46,-69,-46,-202ZM439,-14c0,0,-83,0,-149,27c0,0,-66,28,-112,82c0,0,-46,53,-69,132c0,0,-25,77,-25,177c0,0,0,213,88,322c0,0,88,108,251,108c0,0,73,0,133,-23c0,0,58,-24,100,-69c0,0,41,-46,63,-114c0,0,21,-69,22,-159V399H233c0,0,0,-84,15,-143c0,0,15,-61,44,-99c0,0,28,-40,71,-57c0,0,40,-19,93,-19c1,0,2,0,4,0c0,0,38,0,73,9c0,0,33,9,62,24c0,0,26,14,48,34c0,0,21,18,35,40c0,0,10,-4,20,-19c0,0,9,-15,9,-33c0,0,0,-24,-16,-49c0,0,-17,-27,-50,-50C641,37,607,14,557,0c0,0,-50,-14,-118,-14Z" 
id="f0_3"
transform="scale(0.001,-0.001)" />

<path d="M41,0V64H61c0,0,26,0,49,4c0,0,23,3,40,16c0,0,16,11,27,32c0,0,9,21,9,58V747H47v72H186v76c0,0,0,68,19,121c0,0,19,52,54,88c0,0,34,35,85,55c0,0,50,17,113,17c0,0,58,0,100,-7c0,0,41,-8,67,-22c0,0,24,-15,35,-34c0,0,12,-20,12,-43c0,0,0,-22,-9,-37c0,0,-11,-17,-26,-27c0,0,-18,-11,-40,-16c0,0,-24,-6,-51,-6c0,0,0,23,-4,45c0,0,-6,21,-17,39c0,0,-12,17,-31,28c0,0,-19,10,-48,10c0,0,-34,0,-55,-12c0,0,-22,-13,-36,-38c0,0,-13,-26,-18,-62c0,0,-6,-37,-6,-85V819H545V747H330V174c0,0,0,-37,10,-58c0,0,10,-21,27,-32c0,0,16,-13,40,-16c0,0,22,-4,48,-4h58V0Z" 
id="f0_p"
transform="scale(0.001,-0.001)" />

<path d="M348,79c0,0,46,0,85,15c0,0,36,14,64,42c0,0,25,27,40,66c0,0,14,39,14,87V412H454c0,0,-65,0,-109,-14c0,0,-44,-13,-70,-36c0,0,-27,-25,-39,-59c0,0,-12,-35,-11,-80c0,0,0,-73,30,-108c0,0,29,-36,93,-36ZM313,-14c0,0,-50,0,-94,14c0,0,-44,14,-75,45c0,0,-33,30,-50,77c0,0,-18,47,-18,109c0,0,0,123,87,182c0,0,85,59,261,60H551v93c0,0,0,42,-4,78c0,0,-5,34,-20,60c0,0,-15,26,-42,40c0,0,-28,14,-75,14c0,0,-44,0,-71,-12c0,0,-29,-13,-43,-35c0,0,-16,-23,-21,-53c0,0,-6,-31,-5,-66c0,0,-64,0,-96,21c0,0,-34,21,-34,75c0,0,0,39,22,67c0,0,21,28,60,45c0,0,36,17,87,26c0,0,49,7,107,8c0,0,69,0,122,-13c0,0,52,-15,87,-46c0,0,34,-31,53,-81c0,0,17,-52,17,-124V174c0,0,0,-33,5,-53c0,0,6,-22,17,-34c0,0,10,-12,30,-18c0,0,15,-5,38,-5c2,0,3,0,5,0h4V0H588L564,131H551c0,0,-24,-33,-46,-59c0,0,-22,-27,-49,-46C456,26,429,6,395,-3c0,0,-35,-11,-82,-11Z" 
id="f0_6"
transform="scale(0.001,-0.001)" />

<path d="M43,0V64H55c0,0,26,0,49,4c0,0,23,3,40,16c0,0,16,11,27,32c0,0,10,21,10,58V650c0,0,0,33,-10,55c0,0,-11,20,-28,31c0,0,-17,11,-39,15c0,0,-24,3,-49,4H51v64H298L318,695h7c0,0,23,42,51,70c0,0,25,27,56,43c0,0,29,14,63,21c0,0,32,5,69,5c0,0,60,-1,108,-17c0,0,47,-18,81,-54c0,0,32,-37,50,-93c0,0,17,-58,18,-135V174c0,0,0,-37,9,-58c0,0,7,-21,23,-32c0,0,16,-13,38,-16c0,0,21,-4,47,-4h5V0H677V527c0,0,0,50,-9,89c0,0,-10,39,-29,66c0,0,-20,26,-52,41c0,0,-33,13,-78,13c0,0,-53,0,-88,-20c0,0,-36,-20,-57,-54c0,0,-22,-35,-31,-79c0,0,-10,-45,-9,-94V166c0,0,0,-33,10,-53c0,0,10,-22,27,-32c0,0,16,-10,40,-13c0,0,22,-4,48,-4h5V0Z" 
id="f0_7"
transform="scale(0.001,-0.001)" />

<path d="M46,659v64c0,0,74,23,110,58c0,0,34,34,35,79c0,0,-1,14,-8,25c0,0,-9,10,-21,18c0,0,-13,7,-27,15c0,0,-15,8,-27,18c0,0,-13,10,-21,26c0,0,-8,14,-8,38c0,0,0,44,29,68c0,0,28,23,71,23c0,0,23,-1,45,-9c0,0,20,-9,37,-25c0,0,16,-17,26,-42c0,0,9,-26,9,-57c0,0,0,-49,-13,-94c0,0,-14,-46,-44,-84c0,0,-30,-40,-77,-70c0,0,-49,-31,-116,-51Z" 
id="f0_21"
transform="scale(0.001,-0.001)" />

<path d="M321,-14c0,0,-58,0,-104,11c0,0,-48,7,-80,29c0,0,-33,20,-50,51c0,0,-18,30,-18,70c0,0,0,30,10,51c0,0,10,20,25,33c0,0,14,11,31,17c0,0,16,4,30,4c0,0,0,-41,8,-75c0,0,8,-36,28,-61c0,0,18,-28,51,-42c0,0,31,-16,78,-16c0,0,41,0,72,11c0,0,31,9,53,28c0,0,21,18,32,44c0,0,11,25,11,56c0,0,0,28,-8,49c0,0,-9,20,-30,38c0,0,-21,17,-58,37c0,0,-37,18,-92,42c0,0,-59,26,-102,51c0,0,-45,23,-72,52c0,0,-29,28,-43,65c0,0,-15,35,-14,86c0,0,-1,52,21,92c0,0,20,40,58,68c0,0,38,26,91,41c0,0,52,15,118,15c0,0,54,0,96,-12c0,0,41,-11,70,-30c0,0,28,-19,43,-44c0,0,14,-27,14,-55c0,0,-1,-42,-28,-66c0,0,-29,-25,-80,-25c-1,0,-2,0,-2,0c0,0,0,76,-32,119c0,0,-32,42,-100,42c0,0,-39,0,-66,-9c0,0,-28,-9,-45,-25c0,0,-18,-17,-26,-39c0,0,-8,-22,-8,-49c0,0,0,-29,10,-50c0,0,10,-22,34,-39c0,0,22,-18,59,-35c0,0,36,-17,86,-38c0,0,60,-26,104,-50c0,0,43,-24,72,-54c0,0,27,-29,41,-65c0,0,13,-37,13,-84c0,0,-1,-60,-21,-105c0,0,-23,-45,-62,-74C539,46,499,14,445,0c0,0,-56,-14,-124,-14Z" 
id="f0_c"
transform="scale(0.001,-0.001)" />

<path d="M433,-14c0,0,-77,0,-141,23c0,0,-64,23,-110,74c0,0,-46,50,-72,130c0,0,-26,79,-26,192c0,0,0,122,26,205c0,0,26,82,72,132c0,0,46,49,108,71c0,0,61,21,134,21c0,0,47,0,96,-9c0,0,47,-10,85,-29c0,0,38,-19,62,-49c0,0,23,-30,24,-69c0,0,0,-54,-35,-74c0,0,-35,-22,-102,-22c0,0,0,35,-6,68c0,0,-6,32,-20,56c0,0,-15,24,-39,38c0,0,-26,14,-65,14c0,0,-44,0,-79,-16c0,0,-35,-18,-61,-57c0,0,-26,-40,-39,-108c0,0,-13,-69,-13,-170c0,0,-1,-164,54,-243c0,0,54,-80,177,-80h1c6,0,72,1,123,30c0,0,52,30,79,77c0,0,11,-10,19,-24c0,0,7,-15,7,-36c0,0,0,-27,-16,-52c0,0,-17,-26,-49,-47C627,32,594,10,546,0c0,0,-48,-14,-113,-14Z" 
id="f0_k"
transform="scale(0.001,-0.001)" />

<path d="M442,64c0,0,56,0,97,23c0,0,38,22,64,66c0,0,24,43,36,108c0,0,9,65,10,150c0,0,0,85,-11,149c0,0,-11,64,-36,108c0,0,-25,42,-64,64c0,0,-41,21,-98,21c0,0,-58,0,-97,-21c0,0,-39,-22,-64,-64c0,0,-25,-44,-36,-108c0,0,-11,-64,-11,-149c0,0,0,-85,11,-150c0,0,11,-65,37,-108c0,0,24,-44,65,-66c0,0,38,-23,97,-23Zm-3,-78c0,0,-83,0,-149,25c0,0,-66,26,-111,79c0,0,-47,52,-70,134c0,0,-25,79,-25,187c0,0,0,213,91,319c0,0,90,103,268,104c0,0,82,0,149,-25c0,0,65,-26,111,-79c0,0,46,-53,71,-132c0,0,23,-80,23,-187c0,0,0,-216,-91,-321C706,90,614,-14,439,-14Z" 
id="f0_d"
transform="scale(0.001,-0.001)" />

<path d="M391,-14c-10,0,-83,1,-137,18c0,0,-59,17,-97,50c0,0,-38,32,-56,76c0,0,-19,42,-18,93c0,0,0,46,15,80c0,0,14,32,39,57c0,0,23,23,55,39c0,0,31,16,65,27v8c0,0,-35,11,-62,30c0,0,-29,18,-47,42c0,0,-20,23,-29,52c0,0,-11,28,-11,59c0,0,0,52,22,92c0,0,20,40,62,68c0,0,41,26,100,41c0,0,59,15,135,15c0,0,64,0,112,-12c0,0,47,-13,79,-32c0,0,31,-20,47,-45c0,0,14,-27,15,-55c0,0,0,-49,-30,-70c0,0,-31,-21,-91,-21c0,0,0,76,-38,120c0,0,-40,44,-116,44c0,0,-44,0,-72,-12c0,0,-31,-11,-47,-31c0,0,-17,-21,-25,-46c0,0,-8,-28,-7,-58c0,0,0,-60,33,-100c0,0,32,-41,105,-41c0,0,14,3,29,6c0,0,16,2,32,4c0,0,15,2,30,3c0,0,15,1,26,2c0,0,27,-1,45,-13c0,0,16,-13,16,-39c0,0,0,-26,-23,-44c0,0,-23,-19,-62,-19c-1,0,-2,0,-2,0c0,0,-12,0,-27,2c0,0,-17,1,-34,4c0,0,-17,3,-33,8c0,0,-17,3,-27,9c0,0,-29,-6,-52,-20c0,0,-24,-14,-41,-35c0,0,-18,-21,-28,-48c0,0,-10,-29,-10,-63c0,0,0,-77,51,-113c0,0,49,-37,146,-37c1,0,2,0,3,0c0,0,45,0,82,9c0,0,37,8,69,23c0,0,30,15,54,35c0,0,23,18,42,40c0,0,10,-4,20,-19c0,0,9,-15,9,-33c0,0,-1,-29,-17,-55c0,0,-19,-28,-55,-48C635,33,596,10,537,0c0,0,-60,-14,-145,-14h-1Z" 
id="f0_23"
transform="scale(0.001,-0.001)" />

<path d="M58,0V64H78c0,0,24,0,48,4c0,0,22,3,40,13c0,0,16,10,27,32c0,0,10,20,10,53V917c0,0,0,36,-10,57c0,0,-10,21,-27,34c0,0,-17,11,-39,15c0,0,-24,3,-49,3H58v65H832V824H756l-7,65c0,0,-4,25,-11,49c0,0,-9,22,-25,39c0,0,-17,17,-40,28c0,0,-25,10,-59,10H357V608H726V533H357V76H652c0,0,37,0,63,11c0,0,25,9,42,26c0,0,17,17,27,41c0,0,10,21,13,47l11,66h75V0Z" 
id="f0_1y"
transform="scale(0.001,-0.001)" />

<path d="M43,0V64H63c0,0,25,0,47,4c0,0,21,3,38,16c0,0,15,11,24,32c0,0,8,21,9,58V650c0,0,0,33,-9,55c0,0,-9,20,-25,31c0,0,-16,11,-37,15c0,0,-22,3,-47,4H58v64H298L318,695h7c0,0,23,42,49,70c0,0,25,27,54,43c0,0,28,14,61,21c0,0,31,5,67,5c0,0,36,0,71,-7c0,0,33,-9,62,-24c0,0,28,-17,52,-43c0,0,21,-27,36,-65h13c0,0,23,42,50,70c0,0,27,27,57,43c0,0,30,14,64,21c0,0,32,5,68,5c0,0,59,-1,105,-17c0,0,45,-18,78,-54c0,0,32,-37,49,-93c0,0,17,-58,18,-135V174c0,0,0,-37,9,-58c0,0,9,-21,24,-32c0,0,16,-13,37,-16c0,0,21,-4,47,-4h5V0H1135V527c0,0,0,50,-8,89c0,0,-9,39,-27,66c0,0,-21,26,-50,41c0,0,-32,13,-75,13c0,0,-48,0,-80,-18c0,0,-33,-19,-53,-50c0,0,-21,-31,-28,-72c0,0,-9,-42,-9,-87V174c0,0,0,-37,9,-58c0,0,9,-21,24,-32c0,0,16,-13,38,-16c0,0,21,-4,47,-4h4V0H662V527c0,0,-1,50,-9,89c0,0,-8,39,-27,66c0,0,-20,26,-50,41c0,0,-31,13,-75,13c0,0,-50,0,-83,-20c0,0,-35,-20,-55,-54c0,0,-22,-35,-30,-79c0,0,-9,-45,-9,-94V166c0,0,0,-33,10,-53c0,0,10,-22,27,-32c0,0,16,-10,40,-13c0,0,22,-4,48,-4h5V0Z" 
id="f0_l"
transform="scale(0.001,-0.001)" />

<path d="M35,0V64H55c0,0,25,0,49,4c0,0,22,3,39,13c0,0,17,10,28,32c0,0,10,20,10,53V650c0,0,0,33,-10,55c0,0,-11,20,-28,31c0,0,-17,11,-39,15c0,0,-24,3,-49,4H51v64H324V174c0,0,0,-37,10,-58c0,0,10,-21,27,-32c0,0,16,-13,40,-16c0,0,22,-4,48,-4h20V0ZM249,972c-1,0,-2,0,-3,0c0,0,-1,0,-2,0c-5,0,-20,0,-32,5c0,0,-16,5,-28,16c0,0,-12,11,-18,29c0,0,-7,18,-7,45c0,0,0,27,7,45c0,0,6,17,18,29c0,0,12,11,28,15c0,0,15,5,34,5c0,0,18,0,34,-5c0,0,15,-4,27,-15c0,0,11,-12,19,-29c0,0,7,-18,7,-45c0,0,0,-27,-7,-45c0,0,-8,-18,-19,-29c0,0,-12,-11,-27,-16c0,0,-14,-5,-31,-5Z" 
id="f0_8"
transform="scale(0.001,-0.001)" />

<path d="M365,0L119,674c0,0,-9,23,-18,39c0,0,-11,15,-23,26c0,0,-12,8,-29,12c0,0,-17,3,-39,4H6v64H388V755H369c0,0,-47,0,-69,-18c0,0,-24,-18,-23,-56c0,0,-1,-13,3,-25c0,0,3,-14,9,-31L392,336c0,0,10,-26,21,-58c0,0,9,-33,20,-65c0,0,8,-31,16,-59c0,0,7,-29,11,-47h5c0,0,3,16,12,41c0,0,8,23,20,53c0,0,10,27,22,58c0,0,11,29,22,57L650,614c0,0,8,19,12,36c0,0,3,16,3,30c0,0,0,38,-25,57c0,0,-26,18,-76,18H553v64H880V755H862c0,0,-23,0,-38,-5c0,0,-17,-6,-29,-18c0,0,-12,-14,-24,-37c0,0,-12,-24,-26,-59L504,0Z" 
id="f0_h"
transform="scale(0.001,-0.001)" />

<path d="M58,-366v72h1c8,0,79,1,133,23c0,0,55,24,97,64c0,0,39,40,68,95c0,0,26,55,45,118L119,674c0,0,-10,23,-20,39c0,0,-10,14,-21,25c0,0,-13,9,-29,13c0,0,-17,3,-39,4H6v64H373V755h-4c0,0,-47,0,-69,-18c0,0,-24,-18,-23,-56c0,0,-1,-13,3,-25c0,0,2,-14,9,-31L401,353c0,0,9,-27,22,-57c0,0,11,-31,22,-61c0,0,9,-31,18,-57c0,0,7,-28,11,-47h4c0,0,8,34,23,82c0,0,14,48,34,103L637,614c0,0,7,19,11,36c0,0,2,16,2,30c0,0,0,38,-24,57c0,0,-26,18,-76,18h-5v64H863V755h-4c0,0,-23,0,-38,-5c0,0,-18,-6,-30,-18c0,0,-13,-14,-24,-37c0,0,-11,-24,-25,-59L510,-5c0,0,-27,-74,-50,-130c0,0,-25,-56,-50,-95c0,0,-27,-41,-57,-67c0,0,-32,-26,-71,-41c0,0,-40,-17,-91,-22c0,0,-51,-6,-119,-6Z" 
id="f0_j"
transform="scale(0.001,-0.001)" />

<path d="M28,0V64H40c0,0,25,0,49,4c0,0,22,3,39,16c0,0,17,11,27,32c0,0,10,21,10,58V993c0,0,0,33,-10,54c0,0,-11,21,-27,32c0,0,-18,11,-40,15c0,0,-24,3,-48,3H28v64H308V825c0,0,0,-22,0,-43c0,0,-1,-24,-4,-43c0,0,0,-23,0,-44h6c0,0,68,139,225,139c0,0,65,-1,115,-17c0,0,50,-18,85,-54c0,0,34,-37,52,-93c0,0,18,-58,18,-135V174c0,0,0,-37,9,-58c0,0,9,-21,24,-32c0,0,16,-13,38,-16c0,0,21,-4,47,-4h4V0H662V527c0,0,0,50,-9,89c0,0,-10,39,-29,66c0,0,-20,26,-52,41c0,0,-33,13,-78,13c0,0,-49,0,-82,-17c0,0,-35,-18,-58,-50c0,0,-24,-33,-34,-78c0,0,-11,-46,-11,-102V166c0,0,0,-33,10,-53c0,0,10,-22,27,-32c0,0,17,-10,40,-13c0,0,22,-4,48,-4h5V0Z" 
id="f0_o"
transform="scale(0.001,-0.001)" />

<path d="M518,83c0,0,50,0,86,21c0,0,35,21,58,63c0,0,23,41,33,104c0,0,10,61,11,142c0,0,-1,80,-11,142c0,0,-10,60,-33,101c0,0,-23,40,-58,60c0,0,-38,20,-88,20c0,0,-60,0,-99,-19c0,0,-41,-20,-64,-61c0,0,-24,-40,-34,-101c0,0,-10,-62,-10,-144c0,0,0,-80,10,-141c0,0,10,-62,35,-103c0,0,23,-42,64,-63c0,0,39,-21,100,-21Zm27,-97c-1,0,-2,0,-3,0h-2c-8,0,-46,1,-77,10c0,0,-37,8,-65,26c0,0,-29,18,-50,43c0,0,-23,24,-39,54H299L272,0H28V64H40c0,0,25,0,49,4c0,0,22,3,39,16c0,0,17,11,27,32c0,0,10,21,10,58V993c0,0,0,33,-10,54c0,0,-11,21,-27,32c0,0,-18,11,-40,15c0,0,-24,3,-48,3H28v64H306V880c0,0,0,-26,0,-59c0,0,0,-35,0,-66c0,0,0,-36,0,-74h3c0,0,16,34,39,63c0,0,21,28,50,49c0,0,27,19,64,31c0,0,36,9,80,10c0,0,75,0,134,-25c0,0,58,-26,98,-76c0,0,38,-53,60,-132c0,0,20,-80,20,-190c0,0,0,-111,-20,-191c0,0,-22,-80,-60,-133c0,0,-40,-53,-98,-77c0,0,-57,-24,-131,-24Z" 
id="f0_11"
transform="scale(0.001,-0.001)" />

<path d="M421,83c0,0,59,0,100,20c0,0,39,19,65,60c0,0,23,39,34,101c0,0,10,61,10,144c0,0,0,79,-10,141c0,0,-11,61,-34,103c0,0,-25,41,-65,63c0,0,-41,21,-101,21c0,0,-51,0,-86,-21c0,0,-36,-23,-58,-64c0,0,-24,-42,-34,-103c0,0,-10,-62,-10,-141c0,0,0,-163,44,-244c0,0,43,-80,145,-80ZM395,-14c-8,0,-78,1,-133,24c0,0,-59,24,-98,77c0,0,-39,52,-60,132c0,0,-20,79,-20,189c0,0,0,110,20,191c0,0,21,80,60,133c0,0,39,51,98,77c0,0,58,25,133,25c0,0,44,0,80,-10c0,0,36,-10,65,-27c0,0,28,-18,51,-43c0,0,21,-24,39,-54h4c0,0,0,36,0,70c0,0,0,27,0,57c0,0,0,27,0,41V993c0,0,-1,33,-10,54c0,0,-11,21,-29,32c0,0,-18,11,-41,15c0,0,-24,3,-49,3H492v64H773V168c0,0,0,-34,10,-54c0,0,10,-21,27,-32c0,0,17,-11,40,-14c0,0,22,-4,48,-4h13V0H652L636,137h-6c0,0,-18,-35,-39,-62c0,0,-23,-29,-51,-48C540,27,512,6,476,-3c0,0,-36,-11,-81,-11Z" 
id="f0_9"
transform="scale(0.001,-0.001)" />

<path d="M417,-14c0,0,-60,0,-107,16c0,0,-47,17,-79,54c0,0,-33,36,-49,93c0,0,-17,57,-17,135V650c0,0,0,33,-10,55c0,0,-11,20,-27,31c0,0,-18,11,-40,15c0,0,-24,3,-48,4H35v64H309V292c0,0,0,-51,8,-89c0,0,7,-40,26,-66c0,0,18,-27,49,-40c0,0,29,-14,74,-14c1,0,2,0,3,0c0,0,50,0,88,18c0,0,35,18,59,50c0,0,23,32,34,78c0,0,12,46,12,101V645c0,0,0,35,-10,58c0,0,-10,21,-27,33c0,0,-17,11,-39,15c0,0,-24,3,-50,4h-4v64H805V166c0,0,0,-33,10,-53c0,0,10,-22,27,-32c0,0,17,-10,41,-13c0,0,21,-4,47,-4h5V0H692L672,124h-7c0,0,-24,-44,-51,-70c0,0,-28,-28,-60,-42c0,0,-31,-15,-65,-20c0,0,-35,-6,-72,-6Z" 
id="f0_m"
transform="scale(0.001,-0.001)" />

<path d="M51,0V64h4c0,0,26,0,49,4c0,0,23,3,40,16c0,0,16,11,27,32c0,0,10,21,10,58V650c0,0,0,33,-10,55c0,0,-11,20,-28,31c0,0,-17,11,-39,15c0,0,-24,3,-49,4H51v64H286L315,668h7c0,0,14,34,31,65c0,0,15,29,39,53c0,0,22,22,56,35c0,0,33,12,84,13c0,0,83,0,124,-29c0,0,41,-30,41,-82c0,0,0,-24,-8,-44c0,0,-9,-20,-25,-34c0,0,-17,-15,-44,-23c0,0,-27,-8,-66,-8c0,0,0,63,-18,92c0,0,-18,27,-62,27c0,0,-29,0,-51,-15c0,0,-22,-18,-39,-43c0,0,-17,-27,-28,-61c0,0,-13,-35,-19,-70c0,0,-8,-37,-10,-73c0,0,-4,-35,-3,-64V166c0,0,0,-33,10,-53c0,0,10,-22,27,-32c0,0,16,-10,40,-13c0,0,22,-4,48,-4h43V0Z" 
id="f0_i"
transform="scale(0.001,-0.001)" />

<path d="M351,-291c2,0,3,0,5,0c0,0,1,0,2,0c12,0,84,1,134,15c0,0,52,13,84,38c0,0,31,23,44,58c0,0,12,34,13,74c0,0,0,35,-10,59c0,0,-11,22,-30,35c0,0,-20,12,-49,17c0,0,-29,5,-67,5H327c0,0,-33,0,-62,-5c0,0,-31,-5,-54,-20c0,0,-24,-17,-38,-44c0,0,-15,-29,-14,-74c0,0,0,-34,9,-63c0,0,9,-29,31,-50c0,0,23,-22,61,-33c0,0,35,-12,91,-12Zm34,658c0,0,1,0,1,0c0,0,37,0,64,11c0,0,24,11,42,35c0,0,15,22,23,59c0,0,7,35,7,86c0,0,0,103,-31,152c0,0,-31,49,-106,49c0,0,-74,0,-105,-50c0,0,-33,-50,-32,-153c0,0,0,-98,32,-143c0,0,32,-46,105,-46ZM353,-366c-8,0,-162,1,-239,59c0,0,-80,59,-79,164c0,0,0,45,16,78c0,0,15,34,42,58c0,0,26,22,61,38c0,0,34,14,72,21c0,0,-16,7,-31,18c0,0,-14,11,-26,27c0,0,-13,16,-20,36c0,0,-8,20,-7,45c0,0,0,45,24,79c0,0,23,32,76,64c0,0,-33,13,-58,37c0,0,-27,23,-44,54c0,0,-18,30,-27,65c0,0,-10,36,-9,74c0,0,0,66,18,119c0,0,18,51,53,89c0,0,36,36,90,56c0,0,53,18,126,19c0,0,28,-1,54,-4c0,0,26,-4,50,-11c0,0,22,-8,41,-16c0,0,18,-9,29,-19c0,0,12,12,27,27c0,0,14,14,33,27c0,0,19,12,41,20c0,0,21,7,47,8c0,0,23,-1,40,-6c0,0,17,-7,28,-17c0,0,11,-11,17,-25c0,0,5,-15,5,-31c0,0,0,-17,-4,-31c0,0,-6,-15,-15,-25c0,0,-10,-12,-25,-17c0,0,-15,-7,-36,-7c0,0,0,9,-2,18c0,0,-3,9,-8,17c0,0,-6,7,-16,13c0,0,-10,4,-25,4c0,0,-19,0,-35,-4c0,0,-16,-5,-31,-14c0,0,26,-33,44,-76c0,0,16,-44,16,-109c0,0,-1,-57,-17,-105c0,0,-17,-48,-51,-82c0,0,-35,-36,-86,-56c0,0,-52,-19,-121,-19H348c0,0,-11,0,-21,1c0,0,-10,1,-15,3c0,0,-15,-9,-29,-17c0,0,-13,-9,-23,-20c0,0,-11,-11,-16,-25c0,0,-6,-15,-6,-32c0,0,-1,-19,7,-29c0,0,7,-12,20,-18c0,0,12,-7,30,-8c0,0,17,-2,38,-2H506c0,0,68,-1,116,-17c0,0,48,-17,78,-47c0,0,30,-32,44,-73c0,0,14,-41,14,-90c0,0,-1,-67,-24,-119c0,0,-25,-53,-75,-89c0,0,-50,-38,-126,-58c0,0,-77,-20,-180,-20Z" 
id="f0_b"
transform="scale(0.001,-0.001)" />

<path d="M58,0V64H78c0,0,25,0,49,4c0,0,22,3,39,16c0,0,17,11,27,32c0,0,10,21,10,58V917c0,0,0,36,-10,57c0,0,-10,21,-27,34c0,0,-17,11,-39,15c0,0,-24,3,-49,3H58v65H503v-65H483c0,0,-26,0,-49,-3c0,0,-24,-4,-39,-15c0,0,-18,-13,-27,-34c0,0,-11,-21,-11,-57V174c0,0,0,-37,11,-58c0,0,9,-21,27,-32c0,0,15,-13,39,-16c0,0,23,-4,49,-4h20V0Z" 
id="f0_1c"
transform="scale(0.001,-0.001)" />

<path d="M58,0V64H78c0,0,25,0,49,4c0,0,22,3,39,16c0,0,17,11,27,32c0,0,10,21,10,58V923c0,0,0,33,-10,54c0,0,-11,20,-27,32c0,0,-18,11,-40,14c0,0,-24,3,-48,3H58v65H338L885,246V923c0,0,0,33,-10,54c0,0,-11,20,-28,32c0,0,-17,11,-39,14c0,0,-24,3,-49,3H739v65h384v-65h-20c0,0,-26,0,-48,-3c0,0,-24,-4,-40,-15c0,0,-18,-13,-27,-34c0,0,-11,-21,-10,-57V0H869L296,880V174c0,0,0,-37,11,-58c0,0,9,-21,26,-32c0,0,16,-13,40,-16c0,0,22,-4,48,-4h21V0Z" 
id="f0_14"
transform="scale(0.001,-0.001)" />

<path d="M315,0L115,674c0,0,-9,23,-19,39c0,0,-10,15,-22,26c0,0,-13,8,-29,12c0,0,-17,3,-39,4H1v64H379V755H359c0,0,-46,0,-69,-13c0,0,-24,-15,-23,-51c0,0,0,-13,5,-31c0,0,3,-18,8,-35L351,369c0,0,8,-29,16,-61c0,0,7,-33,16,-65c0,0,6,-33,12,-61c0,0,6,-29,10,-48h5c0,0,3,19,10,46c0,0,5,24,15,55c0,0,7,29,18,60c0,0,9,30,19,58L631,815h96L880,362c0,0,9,-29,20,-59c0,0,9,-33,18,-63c0,0,9,-31,17,-59c0,0,7,-28,11,-47h4c0,0,7,38,22,94c0,0,14,55,38,129l76,247c0,0,5,18,11,41c0,0,3,21,3,35c0,0,0,38,-24,57c0,0,-26,18,-77,18H988v64h327V755h-19c0,0,-23,0,-39,-5c0,0,-17,-5,-29,-17c0,0,-14,-13,-25,-36c0,0,-11,-24,-22,-61L984,0H862L680,538L652,639L436,0Z" 
id="f0_e"
transform="scale(0.001,-0.001)" />

<path d="M20,0V64H40c0,0,25,0,49,4c0,0,22,3,39,16c0,0,17,11,27,32c0,0,10,21,10,58V993c0,0,0,33,-10,54c0,0,-11,21,-27,32c0,0,-18,11,-40,15c0,0,-24,3,-48,3H20v64H309V174c0,0,-1,-37,10,-58c0,0,9,-21,26,-32c0,0,17,-13,41,-16c0,0,22,-4,48,-4h20V0Z" 
id="f0_a"
transform="scale(0.001,-0.001)" />

<path d="M46,-234v64c0,0,74,23,110,58c0,0,34,35,35,79c0,0,-1,15,-8,26c0,0,-9,8,-21,17c0,0,-13,6,-27,15c0,0,-15,7,-27,18c0,0,-13,9,-21,26c0,0,-8,14,-8,38c0,0,0,43,29,67c0,0,28,23,71,23c0,0,23,-1,45,-8c0,0,20,-9,37,-26c0,0,16,-17,26,-41c0,0,9,-27,9,-58c0,0,0,-48,-13,-93c0,0,-14,-46,-44,-84c0,0,-30,-40,-77,-70c0,0,-49,-31,-116,-51Z" 
id="f0_u"
transform="scale(0.001,-0.001)" />

<path d="M229,0V64h35c0,0,25,0,49,4c0,0,22,3,39,13c0,0,17,10,28,32c0,0,9,20,9,53v849H243c0,0,-33,0,-56,-10c0,0,-24,-11,-37,-28c0,0,-15,-17,-22,-39c0,0,-8,-24,-10,-49l-8,-65H34v267H902V824H827l-8,65c0,0,-4,25,-10,49c0,0,-9,22,-22,39c0,0,-15,17,-37,28c0,0,-24,10,-58,10H544V174c0,0,0,-37,10,-58c0,0,10,-21,27,-32c0,0,16,-13,40,-16c0,0,22,-4,48,-4h35V0Z" 
id="f0_z"
transform="scale(0.001,-0.001)" />

<path d="M578,249c-5,0,-25,1,-45,10c0,0,-24,8,-47,23c0,0,-24,14,-45,31c0,0,-22,17,-39,32c0,0,-17,16,-33,31c0,0,-18,14,-33,25c0,0,-17,12,-32,18c0,0,-18,7,-34,7c0,0,-45,0,-66,-43c0,0,-23,-44,-30,-134H84c0,0,4,47,14,96c0,0,9,47,30,85c0,0,21,38,57,62c0,0,34,23,92,24c0,0,24,0,50,-9c0,0,26,-11,50,-25c0,0,23,-15,45,-33c0,0,21,-18,39,-33c0,0,16,-15,32,-29c0,0,16,-15,31,-24c0,0,15,-12,31,-17c0,0,16,-7,31,-7c0,0,43,0,63,47c0,0,20,45,31,130h91c0,0,-6,-48,-15,-95c0,0,-11,-49,-32,-86c0,0,-21,-39,-56,-62c0,0,-35,-24,-89,-24h-1Zm0,325c-5,0,-25,1,-45,10c0,0,-24,8,-47,23c0,0,-24,14,-45,32c0,0,-22,16,-39,32c0,0,-17,15,-33,30c0,0,-18,14,-33,26c0,0,-17,12,-32,18c0,0,-18,7,-34,7c0,0,-45,0,-66,-43c0,0,-23,-44,-30,-135H84c0,0,4,47,14,96c0,0,9,48,30,86c0,0,21,38,57,62c0,0,34,23,92,23c0,0,24,0,50,-9c0,0,26,-11,50,-25c0,0,23,-16,45,-32c0,0,21,-18,39,-34c0,0,16,-15,32,-29c0,0,16,-15,31,-24c0,0,15,-11,31,-17c0,0,16,-6,31,-6c0,0,43,0,63,46c0,0,20,45,31,130h91c0,0,-6,-48,-15,-95c0,0,-11,-49,-32,-86c0,0,-21,-39,-56,-62c0,0,-35,-24,-89,-24h-1Z" 
id="f0_24"
transform="scale(0.001,-0.001)" />

<path d="M58,0V64H78c0,0,25,0,49,4c0,0,22,3,39,16c0,0,17,11,27,32c0,0,10,21,10,58V923c0,0,0,33,-10,54c0,0,-11,20,-27,32c0,0,-18,11,-40,14c0,0,-24,3,-48,3H58v65H503v-65H483c0,0,-26,0,-49,-3c0,0,-24,-4,-39,-15c0,0,-18,-13,-27,-34c0,0,-11,-21,-11,-57V608H854V917c0,0,0,36,-10,57c0,0,-10,21,-26,34c0,0,-18,11,-40,15c0,0,-24,3,-49,3H709v65h444v-65h-19c0,0,-26,0,-49,-3c0,0,-23,-4,-40,-15c0,0,-17,-13,-27,-34c0,0,-10,-21,-9,-57V166c0,0,0,-33,10,-53c0,0,10,-22,27,-32c0,0,16,-10,40,-13c0,0,22,-4,48,-4h19V0H709V64h20c0,0,25,0,49,4c0,0,22,3,40,16c0,0,16,11,26,32c0,0,10,21,10,58V532H357V174c0,0,0,-37,11,-58c0,0,9,-21,27,-32c0,0,15,-13,39,-16c0,0,23,-4,49,-4h20V0Z" 
id="f0_1f"
transform="scale(0.001,-0.001)" />

<path d="M912,152l-89,90L997,416H87V542H997L823,716l89,90L1206,512V445L912,152Z" 
id="f1_2"
transform="scale(0.001,-0.001)" />

<path d="M422,83c5,0,60,0,99,30c0,0,39,29,65,82c0,0,23,53,34,124c0,0,10,70,10,153v60c0,0,-11,54,-29,95c0,0,-20,38,-45,64c0,0,-26,24,-55,36c0,0,-32,12,-64,12c0,0,-107,0,-156,-83c0,0,-49,-85,-49,-249c0,0,0,-163,44,-244c0,0,43,-80,145,-80c0,0,1,0,1,0ZM395,-14c-8,0,-78,1,-133,24c0,0,-59,24,-98,77c0,0,-39,52,-60,132c0,0,-20,79,-20,189c0,0,0,110,24,191c0,0,23,80,68,133c0,0,43,51,105,77c0,0,61,25,138,25c0,0,44,0,80,-11c0,0,36,-13,64,-33c0,0,27,-22,49,-51c0,0,21,-30,36,-65h9c0,0,12,39,32,79c0,0,19,38,43,66h81c0,0,-7,-22,-14,-58c0,0,-8,-37,-13,-78c0,0,-6,-42,-9,-85c0,0,-4,-44,-4,-80V206c0,0,0,-69,33,-105c0,0,32,-37,92,-37h13V0H783c0,0,-39,0,-65,13c0,0,-26,14,-43,35c0,0,-17,21,-26,48c0,0,-10,26,-13,52h-6c0,0,-18,-35,-39,-64c0,0,-23,-31,-51,-52c0,0,-28,-22,-64,-33c0,0,-36,-13,-81,-13Z" 
id="f0_25"
transform="scale(0.001,-0.001)" />

<path d="M252,0L659,924H257c0,0,-42,0,-63,-19c0,0,-22,-20,-26,-58l-9,-77H71v321H803v-75L382,0Z" 
id="f2_1g"
transform="scale(0.001,-0.001)" />

<path d="M232,-11c0,0,-26,0,-49,7c0,0,-24,4,-40,19c0,0,-17,13,-27,37c0,0,-10,23,-9,58c0,0,-1,34,9,59c0,0,10,22,27,37c0,0,16,14,40,20c0,0,23,5,49,6c0,0,25,-1,48,-6c0,0,23,-6,40,-20c0,0,16,-15,28,-37c0,0,9,-25,9,-59c0,0,0,-35,-9,-58c0,0,-12,-24,-28,-37C320,15,303,0,280,-4c0,0,-23,-7,-48,-7Z" 
id="f2_n"
transform="scale(0.001,-0.001)" />

<path d="M512,95c0,0,78,0,138,33c0,0,59,31,100,93c0,0,39,61,59,148c0,0,21,86,21,196c0,0,-1,218,-80,326c0,0,-82,106,-237,106H426V95ZM43,0V81h64c0,0,16,0,31,4c0,0,14,3,25,13c0,0,9,10,16,30c0,0,5,19,6,53V917c0,0,-1,30,-6,49c0,0,-7,17,-16,28c0,0,-12,9,-26,13c0,0,-15,3,-30,3H43v81H547c0,0,126,-1,227,-33c0,0,100,-34,170,-99c0,0,70,-67,107,-165c0,0,37,-99,37,-229c0,0,0,-125,-35,-229c0,0,-35,-104,-102,-179C951,157,883,82,782,42C782,42,680,0,547,0Z" 
id="f2_1d"
transform="scale(0.001,-0.001)" />

<path d="M574,490c0,0,0,58,-6,105c0,0,-8,45,-22,78c0,0,-15,32,-37,49c0,0,-24,17,-56,17c0,0,-65,0,-103,-63c0,0,-38,-64,-38,-186ZM468,-14c0,0,-98,0,-171,27c0,0,-75,28,-125,82c0,0,-50,54,-75,133c0,0,-26,76,-25,177c0,0,-1,107,25,189c0,0,25,80,74,136c0,0,48,53,119,82c0,0,70,26,161,26c0,0,82,0,149,-23c0,0,65,-24,112,-70c0,0,46,-47,71,-115c0,0,25,-69,25,-159V392H308c0,0,0,-77,15,-132c0,0,14,-55,40,-91c0,0,26,-36,63,-53c0,0,37,-17,85,-17c0,0,1,0,2,0c8,0,41,1,71,10c0,0,34,9,61,26c0,0,28,16,48,40c0,0,21,22,34,48c0,0,41,-22,41,-75c0,0,0,-32,-18,-61c0,0,-18,-31,-55,-53C695,34,658,12,602,0c0,0,-57,-14,-134,-14Z" 
id="f2_5"
transform="scale(0.001,-0.001)" />

<path d="M29,0V81H63c0,0,16,0,35,4c0,0,18,3,36,13c0,0,15,10,26,30c0,0,10,19,11,53V715H35V819H171v57c0,0,-1,70,18,127c0,0,18,54,57,94c0,0,37,38,97,58c0,0,59,20,140,20c0,0,74,-1,123,-8c0,0,49,-10,78,-24c0,0,29,-16,42,-36c0,0,12,-21,12,-44c0,0,-1,-52,-46,-75c0,0,-47,-24,-142,-24c0,0,-1,18,-4,40c0,0,-4,21,-13,40c0,0,-9,19,-23,32c0,0,-15,12,-36,12c0,0,-20,0,-32,-10c0,0,-15,-11,-22,-32c0,0,-10,-23,-13,-58c0,0,-3,-35,-3,-85V819H614V715H404V181c0,0,0,-34,11,-53c0,0,9,-20,27,-30c0,0,15,-10,35,-13c0,0,18,-4,35,-4h71V0Z" 
id="f2_e"
transform="scale(0.001,-0.001)" />

<path d="M26,0V81H44c0,0,16,0,37,4c0,0,17,3,35,13c0,0,15,10,26,30c0,0,10,19,11,53V645c0,0,-1,29,-11,49c0,0,-11,18,-27,28c0,0,-17,9,-35,13c0,0,-20,3,-36,3H26v81H385V181c0,0,0,-34,11,-53c0,0,10,-20,27,-30c0,0,16,-10,35,-13c0,0,19,-4,36,-4h18V0ZM261,956c0,0,-28,0,-51,7c0,0,-24,7,-41,20c0,0,-18,13,-27,35c0,0,-11,20,-11,49c0,0,0,28,11,50c0,0,9,21,27,34c0,0,17,12,41,19c0,0,23,6,51,6c0,0,25,0,50,-6c0,0,23,-7,42,-19c0,0,18,-13,29,-34c0,0,10,-22,10,-50c0,0,0,-29,-10,-49c0,0,-11,-22,-29,-35c0,0,-19,-13,-42,-20c0,0,-25,-7,-50,-7Z" 
id="f2_7"
transform="scale(0.001,-0.001)" />

<path d="M31,0V81h3c0,0,25,0,47,4c0,0,21,3,38,14c0,0,16,11,25,32c0,0,9,20,9,55V639c0,0,0,32,-8,51c0,0,-8,19,-22,31c0,0,-15,9,-35,14c0,0,-20,3,-45,3H38v81H359L379,710h7c0,0,24,43,50,69c0,0,25,25,54,39c0,0,29,13,62,17c0,0,32,3,68,3c0,0,59,0,106,-17c0,0,47,-17,80,-53c0,0,32,-36,49,-91c0,0,16,-56,17,-133V189c0,0,0,-35,7,-56c0,0,5,-22,18,-33c0,0,12,-12,33,-15c0,0,18,-4,45,-4h4V0H640V503c0,0,-1,48,-6,88c0,0,-7,38,-21,64c0,0,-15,25,-38,40c0,0,-24,14,-57,14c0,0,-38,-1,-64,-20c0,0,-26,-19,-40,-51c0,0,-16,-33,-22,-76c0,0,-7,-44,-7,-90V181c0,0,0,-33,8,-52c0,0,7,-20,22,-30c0,0,13,-11,35,-14c0,0,19,-4,45,-4h5V0Z" 
id="f2_d"
transform="scale(0.001,-0.001)" />

<path d="M371,-14c0,0,-52,0,-93,13c0,0,-42,11,-71,40c0,0,-29,27,-44,74c0,0,-16,46,-16,113V715H32v78c0,0,49,0,88,19c0,0,38,19,62,45c0,0,46,49,70,152H379V819H574V715H379V242c0,0,0,-70,24,-102c0,0,22,-32,75,-32c0,0,1,0,2,0c0,0,29,0,57,5c0,0,27,3,51,9V23c0,0,-13,-6,-32,-13C556,10,534,4,508,0c0,0,-28,-7,-62,-10c0,0,-35,-4,-75,-4Z" 
id="f2_4"
transform="scale(0.001,-0.001)" />

<path d="M31,0V81h3c0,0,25,0,47,4c0,0,21,3,38,14c0,0,16,11,25,32c0,0,9,20,9,55V987c0,0,-1,30,-11,49c0,0,-11,18,-27,29c0,0,-17,8,-35,12c0,0,-20,3,-36,3H26v81H383V909c0,0,0,-30,0,-64c0,0,0,-35,-3,-63c0,0,-4,-35,-7,-67h13c0,0,24,43,50,68c0,0,25,24,54,37c0,0,29,12,62,16c0,0,32,2,68,2c0,0,59,0,106,-17c0,0,47,-17,80,-53c0,0,32,-36,49,-91c0,0,16,-56,17,-133V189c0,0,0,-35,7,-56c0,0,5,-22,18,-33c0,0,12,-12,33,-15c0,0,18,-4,45,-4h4V0H640V503c0,0,-1,48,-6,88c0,0,-7,38,-21,64c0,0,-15,25,-38,40c0,0,-24,14,-57,14c0,0,-38,-1,-64,-20c0,0,-26,-19,-40,-51c0,0,-16,-33,-22,-76c0,0,-7,-44,-7,-90V181c0,0,0,-33,8,-52c0,0,7,-20,22,-30c0,0,13,-11,35,-14c0,0,19,-4,45,-4h5V0Z" 
id="f2_u"
transform="scale(0.001,-0.001)" />

<path d="M31,0V81h4c0,0,25,0,48,4c0,0,21,3,37,16c0,0,16,11,25,33c0,0,7,20,8,57V634c0,0,0,33,-8,55c0,0,-8,20,-22,31c0,0,-15,11,-35,15c0,0,-20,3,-45,3H38v81H347L377,700h8c0,0,14,34,33,60c0,0,17,26,43,43c0,0,24,16,59,26c0,0,34,7,81,8c0,0,90,0,132,-31c0,0,43,-33,43,-93c0,0,-1,-71,-51,-109c0,0,-50,-39,-141,-39c0,0,-1,0,-2,0c0,0,-1,32,-4,56c0,0,-4,23,-12,39c0,0,-9,16,-23,24c0,0,-15,8,-36,8c0,0,-28,0,-47,-13c0,0,-20,-14,-33,-34c0,0,-14,-22,-22,-49c0,0,-9,-27,-13,-54c0,0,-6,-28,-6,-52c0,0,0,-25,0,-42V184c0,0,0,-34,9,-54c0,0,7,-22,22,-32c0,0,13,-10,34,-13c0,0,18,-4,41,-4h49V0Z" 
id="f2_6"
transform="scale(0.001,-0.001)" />

<path d="M31,0V81h3c0,0,25,0,47,4c0,0,21,3,38,14c0,0,16,11,25,32c0,0,9,20,9,55V643c0,0,0,32,-8,52c0,0,-8,18,-22,30c0,0,-15,10,-35,14c0,0,-20,3,-45,3H38v77H359L379,710h7c0,0,24,43,50,69c0,0,25,25,54,39c0,0,29,13,62,17c0,0,32,3,68,3c0,0,83,0,144,-29c0,0,59,-31,87,-99h14c0,0,22,43,50,69c0,0,27,25,59,39c0,0,29,13,64,17c0,0,34,3,70,3c0,0,59,0,106,-17c0,0,47,-17,80,-53c0,0,32,-36,49,-91c0,0,16,-56,17,-133V189c0,0,0,-35,7,-56c0,0,5,-22,18,-33c0,0,12,-12,32,-15c0,0,19,-4,45,-4h5V0H1127V503c0,0,0,98,-27,152c0,0,-28,54,-94,54c0,0,-36,-1,-62,-17c0,0,-26,-18,-41,-48c0,0,-17,-31,-23,-70c0,0,-9,-41,-8,-84V189c0,0,0,-35,7,-56c0,0,5,-22,18,-33c0,0,12,-12,33,-15c0,0,18,-4,45,-4h4V0H640V503c0,0,-1,48,-6,88c0,0,-7,38,-21,64c0,0,-15,25,-38,40c0,0,-24,14,-57,14c0,0,-38,-1,-64,-20c0,0,-26,-19,-40,-51c0,0,-16,-33,-22,-76c0,0,-7,-44,-7,-90V181c0,0,0,-33,8,-52c0,0,7,-20,22,-30c0,0,13,-11,35,-14c0,0,19,-4,45,-4h5V0Z" 
id="f2_f"
transform="scale(0.001,-0.001)" />

<path d="M357,-14c-1,0,-3,0,-4,0c0,0,-83,0,-141,14c0,0,-60,12,-96,36c0,0,-37,23,-53,57c0,0,-17,32,-17,70c0,0,0,37,14,61c0,0,15,22,37,35c0,0,21,12,46,17c0,0,25,3,45,4c0,0,-1,-49,12,-86c0,0,12,-39,33,-64c0,0,21,-27,53,-41c0,0,28,-14,64,-14c1,0,2,0,3,0c0,0,39,0,68,8c0,0,28,7,47,23c0,0,18,14,27,34c0,0,9,17,9,39c0,0,0,25,-9,46c0,0,-10,18,-31,37c0,0,-22,16,-57,34c0,0,-38,16,-91,35c0,0,-62,21,-109,46c0,0,-48,24,-79,56c0,0,-33,30,-50,71c0,0,-17,38,-17,91c0,0,0,60,24,106c0,0,22,46,66,76c0,0,44,30,104,45c0,0,61,14,134,15c0,0,73,0,123,-12c0,0,50,-13,83,-33c0,0,32,-20,47,-45c0,0,14,-26,15,-52c0,0,0,-51,-36,-78c0,0,-37,-27,-120,-27c0,0,0,76,-33,119c0,0,-35,41,-101,41c0,0,-25,0,-47,-6c0,0,-24,-5,-40,-17c0,0,-17,-13,-26,-30c0,0,-11,-18,-11,-41c0,0,-1,-26,10,-44c0,0,9,-20,33,-37c0,0,23,-18,63,-36c0,0,40,-18,103,-39c0,0,50,-18,94,-40c0,0,43,-24,74,-53c0,0,30,-30,48,-67c0,0,16,-39,17,-86c0,0,-1,-65,-22,-114c0,0,-22,-50,-65,-84C598,56,555,21,494,4c0,0,-60,-18,-137,-18Z" 
id="f2_s"
transform="scale(0.001,-0.001)" />

<path d="M26,0V81H44c0,0,16,0,37,4c0,0,17,3,35,13c0,0,15,10,26,30c0,0,10,19,11,53V987c0,0,-1,30,-11,49c0,0,-11,18,-27,29c0,0,-17,8,-35,12c0,0,-20,3,-36,3H26v81H385V181c0,0,0,-34,11,-53c0,0,10,-20,27,-30c0,0,16,-10,35,-13c0,0,19,-4,36,-4h18V0Z" 
id="f2_8"
transform="scale(0.001,-0.001)" />

<path d="M451,-14c0,0,-85,0,-154,21c0,0,-71,21,-120,71c0,0,-51,50,-78,131c0,0,-28,80,-27,198c0,0,0,123,29,206c0,0,27,82,79,133c0,0,50,50,118,72c0,0,68,20,148,20c0,0,73,0,131,-11c0,0,56,-14,94,-35c0,0,38,-21,59,-50c0,0,18,-31,19,-64c0,0,-1,-25,-8,-48c0,0,-10,-24,-31,-41c0,0,-22,-18,-60,-30c0,0,-40,-11,-99,-11c0,0,0,39,-4,76c0,0,-6,35,-17,62c0,0,-11,26,-29,44c0,0,-20,15,-49,15c0,0,-34,0,-60,-15c0,0,-26,-18,-45,-56c0,0,-20,-39,-29,-103c0,0,-11,-66,-11,-163c0,0,0,-156,43,-232c0,0,42,-77,137,-77q1,0,2,0h1c8,0,42,1,73,10c0,0,35,9,63,26c0,0,27,16,50,40c0,0,21,22,34,48c0,0,19,-11,28,-30c0,0,9,-19,9,-40c0,0,-1,-29,-17,-59c0,0,-18,-31,-53,-54C677,40,639,15,584,1c0,0,-57,-15,-133,-15Z" 
id="f2_o"
transform="scale(0.001,-0.001)" />

<path d="M392,96c0,0,32,0,60,14c0,0,25,13,46,38c0,0,18,26,29,62c0,0,9,35,9,79V403H468c0,0,-47,-1,-77,-13c0,0,-31,-13,-50,-34c0,0,-19,-22,-27,-53c0,0,-8,-33,-8,-74c0,0,-1,-67,21,-100c0,0,21,-33,65,-33ZM314,-14c-2,0,-3,0,-5,0c0,0,-51,0,-94,14c0,0,-44,15,-76,46c0,0,-33,32,-52,79c0,0,-19,47,-18,111c0,0,-1,125,85,185c0,0,85,61,257,61H536v86c0,0,0,38,-3,71c0,0,-3,32,-12,57c0,0,-11,23,-29,37c0,0,-19,11,-50,12c0,0,-30,0,-49,-12c0,0,-20,-13,-32,-34c0,0,-13,-22,-16,-52c0,0,-6,-31,-6,-67h-1c-11,0,-105,1,-153,24c0,0,-53,23,-52,79c0,0,-1,41,25,71c0,0,24,29,68,49c0,0,43,18,100,27c0,0,57,8,122,8c0,0,80,0,141,-13c0,0,59,-15,100,-45c0,0,38,-30,59,-80c0,0,20,-50,20,-121V189c0,0,0,-31,6,-52c0,0,4,-21,15,-33c0,0,9,-12,28,-17c0,0,15,-6,39,-6c1,0,3,0,4,0h6V0H582L550,105H536c0,0,-26,-30,-47,-53c0,0,-23,-24,-48,-38C441,14,415,0,384,-6c0,0,-30,-8,-70,-8Z" 
id="f2_3"
transform="scale(0.001,-0.001)" />

<path d="M69,-234v79c0,0,32,11,59,24c0,0,24,11,41,26c0,0,17,14,26,31c0,0,7,16,8,38c0,0,-1,14,-8,24c0,0,-9,9,-20,16c0,0,-13,8,-27,18c0,0,-15,7,-27,21c0,0,-14,14,-21,34c0,0,-8,18,-8,50c0,0,0,51,31,78c0,0,31,27,78,27c0,0,65,0,103,-45c0,0,38,-45,38,-123c0,0,0,-48,-15,-93c0,0,-15,-46,-47,-84c0,0,-33,-40,-85,-70c0,0,-53,-31,-126,-51Z" 
id="f2_1p"
transform="scale(0.001,-0.001)" />

<path d="M540,99c1,0,2,0,2,0c3,0,76,1,109,82c0,0,34,81,34,233c0,0,0,155,-34,234c0,0,-33,76,-110,76c0,0,-46,0,-76,-18c0,0,-30,-20,-47,-58c0,0,-18,-40,-26,-97c0,0,-8,-60,-7,-138c0,0,-1,-76,7,-134c0,0,8,-60,26,-98c0,0,18,-41,48,-61c0,0,29,-21,74,-21ZM610,-14c-1,0,-2,0,-4,0h-1c-9,0,-47,1,-78,10c0,0,-37,8,-64,26c0,0,-30,18,-51,43c0,0,-23,24,-39,54H359L316,0H26V81H37c0,0,20,0,42,4c0,0,20,3,37,15c0,0,17,10,27,32c0,0,10,21,10,56V978c0,0,0,32,-10,53c0,0,-10,19,-26,31c0,0,-17,11,-38,14c0,0,-22,3,-47,4H26v81H383V900c0,0,0,-24,0,-56c0,0,0,-33,-3,-61c0,0,-4,-34,-7,-68h10c0,0,33,56,88,89c0,0,55,32,141,33c0,0,75,0,132,-25c0,0,57,-26,97,-76c0,0,39,-53,59,-132c0,0,20,-81,20,-191c0,0,0,-112,-20,-192c0,0,-22,-81,-61,-133c0,0,-39,-53,-97,-78c0,0,-59,-24,-132,-24Z" 
id="f2_15"
transform="scale(0.001,-0.001)" />

<path d="M469,81c0,0,43,0,75,22c0,0,30,21,49,63c0,0,19,41,27,103c0,0,7,61,8,144c0,0,-1,81,-8,144c0,0,-9,60,-28,102c0,0,-20,40,-50,62c0,0,-31,20,-74,20c0,0,-45,0,-75,-20c0,0,-30,-22,-49,-62c0,0,-19,-42,-27,-102c0,0,-8,-63,-8,-144c0,0,0,-83,9,-144c0,0,7,-62,27,-103c0,0,19,-42,50,-63c0,0,29,-22,74,-22Zm-1,-95c0,0,-1,0,-2,0c0,0,-92,0,-165,26c0,0,-73,25,-123,79c0,0,-52,52,-79,134c0,0,-28,80,-27,188c0,0,-1,215,101,320c0,0,101,105,298,105c0,0,91,0,165,-26c0,0,72,-26,123,-79c0,0,50,-53,79,-132c0,0,27,-81,27,-188c0,0,0,-217,-101,-322C764,91,662,-14,468,-14Z" 
id="f2_b"
transform="scale(0.001,-0.001)" />

<path d="M535,95c0,0,77,0,110,77c0,0,32,77,33,233c0,0,-1,152,-33,234c0,0,-34,81,-109,81c0,0,-46,0,-76,-20c0,0,-30,-22,-48,-61c0,0,-18,-40,-26,-98c0,0,-8,-60,-7,-134c0,0,-1,-80,7,-138c0,0,8,-59,26,-97c0,0,17,-40,48,-58c0,0,29,-19,75,-19ZM20,-366v81H38c0,0,16,0,37,4c0,0,18,3,35,13c0,0,15,10,27,30c0,0,9,19,10,53V631c0,0,0,34,-7,56c0,0,-9,21,-22,32c0,0,-15,11,-33,15c0,0,-20,3,-41,4H34v81H333L360,700h7c0,0,16,30,39,54c0,0,21,25,51,43c0,0,27,17,64,27c0,0,36,10,80,10c0,0,75,0,135,-25c0,0,58,-26,97,-77c0,0,39,-53,61,-134c0,0,20,-81,20,-191c0,0,0,-112,-20,-191c0,0,-20,-80,-59,-132C835,84,795,31,739,7c0,0,-56,-25,-129,-25c-1,0,-2,0,-4,0c0,0,-87,0,-141,33c0,0,-55,32,-88,89H367c0,0,3,-35,7,-69c0,0,3,-28,3,-59c0,0,0,-33,0,-56V-185c0,0,0,-34,11,-53c0,0,11,-20,27,-30c0,0,16,-10,36,-13c0,0,18,-4,35,-4h35v-81Z" 
id="f2_t"
transform="scale(0.001,-0.001)" />

<path d="M448,99c0,0,45,0,76,20c0,0,29,18,48,57c0,0,17,38,26,98c0,0,7,57,7,137c0,0,0,75,-7,134c0,0,-9,59,-26,99c0,0,-19,39,-48,60c0,0,-31,20,-76,20c0,0,-38,0,-65,-20c0,0,-29,-21,-44,-61c0,0,-17,-40,-25,-98c0,0,-8,-60,-8,-135c0,0,0,-156,33,-233c0,0,31,-78,109,-78ZM386,-14c-1,0,-3,0,-4,0h-1c-7,0,-77,1,-132,24c0,0,-59,24,-98,77c0,0,-40,52,-60,132c0,0,-22,79,-21,189c0,0,-1,110,21,192c0,0,20,80,60,133c0,0,38,53,97,79c0,0,56,25,131,25c0,0,43,0,78,-9c0,0,35,-10,63,-25c0,0,28,-17,49,-39c0,0,21,-22,37,-49h9c0,0,0,42,-6,79c0,0,0,15,0,33c0,0,0,16,-2,31c0,0,-2,14,-2,25c0,0,0,11,0,18v84c0,0,0,32,-10,51c0,0,-10,18,-27,29c0,0,-17,8,-39,12c0,0,-22,3,-48,3H469v81H837V188c0,0,0,-35,10,-56c0,0,10,-22,29,-32c0,0,16,-12,40,-15c0,0,22,-4,48,-4h6V0H674L631,119H617c0,0,-18,-31,-39,-56c0,0,-23,-25,-51,-41C527,22,498,4,463,-4c0,0,-34,-10,-77,-10Z" 
id="f2_a"
transform="scale(0.001,-0.001)" />

<path d="M43,0V81h64c0,0,15,0,30,4c0,0,14,3,26,13c0,0,9,10,16,30c0,0,5,19,6,53V916c0,0,-1,30,-6,49c0,0,-7,17,-17,28c0,0,-11,10,-25,13c0,0,-15,3,-30,3H43v82H570v-82H504c0,0,-17,0,-30,-3c0,0,-15,-4,-25,-14c0,0,-11,-11,-16,-30c0,0,-7,-20,-7,-52V615H825V910c0,0,-1,32,-6,52c0,0,-7,19,-16,30c0,0,-12,10,-26,14c0,0,-15,3,-30,3H681v82h528v-82h-65c0,0,-15,0,-30,-3c0,0,-14,-4,-24,-14c0,0,-12,-11,-17,-30c0,0,-6,-20,-6,-52V172c0,0,0,-30,6,-47c0,0,6,-20,18,-28c0,0,9,-10,24,-13c0,0,11,-3,25,-3c2,0,3,0,4,0h65V0H681V81h66c0,0,15,0,30,4c0,0,14,3,26,13c0,0,9,10,16,30c0,0,5,19,6,53V522H426V181c0,0,0,-34,7,-53c0,0,5,-20,16,-30c0,0,10,-10,25,-13c0,0,13,-4,30,-4h66V0Z" 
id="f2_1a"
transform="scale(0.001,-0.001)" />

<path d="M304,0L108,657c0,0,-8,23,-18,40c0,0,-10,15,-22,24c0,0,-13,9,-29,13c0,0,-17,3,-39,4H-3v81H443V738H423c0,0,-46,-1,-69,-13c0,0,-24,-13,-23,-51c0,0,0,-13,5,-31c0,0,3,-19,8,-35L401,410c0,0,7,-29,14,-57c0,0,6,-29,12,-57c0,0,6,-28,12,-52c0,0,3,-25,7,-44h5c0,0,6,37,18,79c0,0,11,40,31,97L656,811h99L904,360c0,0,19,-55,27,-93c0,0,7,-39,13,-67h5c0,0,3,19,7,36c0,0,3,17,9,36c0,0,4,19,10,41c0,0,5,21,15,50l67,223c0,0,5,19,11,42c0,0,2,22,3,35c0,0,0,39,-24,57c0,0,-26,18,-77,18H959v81h350V738h-19c0,0,-23,0,-39,-5c0,0,-17,-5,-29,-17c0,0,-13,-13,-24,-36c0,0,-11,-25,-23,-62L978,0H813L646,507L471,0Z" 
id="f2_c"
transform="scale(0.001,-0.001)" />

<path d="M41,-366v89c0,0,79,0,136,19c0,0,55,19,95,55c0,0,38,35,64,86c0,0,24,50,43,111L104,665c0,0,-9,21,-20,34c0,0,-12,12,-24,19c0,0,-14,7,-28,9c0,0,-16,1,-32,2v90H436V738c0,0,-45,0,-70,-11c0,0,-27,-13,-27,-46c0,0,0,-13,6,-30c0,0,5,-18,9,-29c0,0,14,-33,29,-69c0,0,13,-39,28,-76c0,0,13,-38,26,-73c0,0,12,-35,23,-62c0,0,10,-29,18,-52c0,0,7,-24,13,-42c0,0,4,-20,7,-35c0,0,3,-18,5,-32c0,0,1,15,6,35c0,0,3,18,9,36c0,0,5,17,11,31c0,0,5,14,7,20L637,602c0,0,2,7,6,18c0,0,2,10,5,20c0,0,2,10,3,20c0,0,1,10,1,17c0,0,0,34,-29,48c0,0,-30,12,-82,13v81H885V738c0,0,-24,0,-41,-5c0,0,-17,-6,-32,-18c0,0,-15,-14,-26,-35c0,0,-12,-21,-24,-53c0,0,-26,-76,-56,-156c0,0,-29,-79,-58,-158c0,0,-30,-80,-59,-158C589,155,559,75,532,0c0,0,-28,-73,-51,-129c0,0,-24,-56,-50,-97c0,0,-27,-42,-59,-68c0,0,-33,-27,-74,-42c0,0,-43,-17,-99,-23c0,0,-57,-7,-132,-7Z" 
id="f2_g"
transform="scale(0.001,-0.001)" />

<path d="M373,-11c0,0,-26,0,-49,7c0,0,-24,4,-40,19c0,0,-17,13,-27,37c0,0,-10,23,-9,58c0,0,-1,34,9,59c0,0,10,22,27,37c0,0,16,14,40,20c0,0,23,5,49,6c0,0,25,-1,48,-6c0,0,23,-6,40,-20c0,0,16,-15,28,-37c0,0,9,-25,9,-59c0,0,0,-35,-9,-58c0,0,-12,-24,-28,-37C461,15,444,0,421,-4c0,0,-23,-7,-48,-7ZM328,348L298,536c0,0,65,26,107,62c0,0,41,35,66,76c0,0,24,41,33,85c0,0,9,44,9,91c0,0,0,36,-6,67c0,0,-7,30,-21,52c0,0,-15,21,-38,34c0,0,-24,12,-54,12c0,0,-35,0,-58,-16c0,0,-23,-17,-37,-42c0,0,-15,-27,-20,-61c0,0,-7,-35,-7,-74c0,0,-47,0,-86,7c0,0,-41,7,-68,20c0,0,-29,12,-45,33c0,0,-17,20,-16,47c0,0,0,36,19,70c0,0,19,32,60,56c0,0,39,23,100,38c0,0,62,13,146,13c0,0,81,0,149,-18c0,0,68,-20,119,-56c0,0,50,-37,78,-88c0,0,28,-53,28,-119c0,0,0,-62,-18,-110c0,0,-20,-48,-58,-88c0,0,-38,-41,-94,-74c0,0,-58,-35,-134,-66L421,348Z" 
id="f2_11"
transform="scale(0.001,-0.001)" />

<path d="M674,452L593,703c0,0,-9,25,-16,55c0,0,-10,28,-18,58c0,0,-8,29,-16,60c0,0,-9,29,-14,56c0,0,-7,-24,-16,-51c0,0,-9,-28,-18,-57c0,0,-11,-29,-21,-58c0,0,-10,-29,-19,-56L365,452ZM6,0V81H25c0,0,20,0,37,5c0,0,16,4,31,17c0,0,14,12,28,34c0,0,12,20,26,55l331,899H688L1007,191c0,0,11,-33,24,-53c0,0,12,-22,27,-34c0,0,13,-12,30,-17c0,0,15,-6,32,-6c1,0,2,0,3,0h27V0H646V81h60c0,0,10,0,23,4c0,0,11,2,21,10c0,0,9,7,15,18c0,0,6,12,6,27c0,0,0,19,-4,36c0,0,-5,16,-9,30L704,359H333L289,228c0,0,-7,-20,-12,-44c0,0,-7,-26,-7,-44c0,0,0,-15,6,-26c0,0,5,-11,16,-18c0,0,9,-8,22,-11c0,0,12,-4,25,-4h65V0Z" 
id="f2_12"
transform="scale(0.001,-0.001)" />

<path d="M147,0V64H249c0,0,26,0,49,4c0,0,23,3,40,16c0,0,16,11,27,32c0,0,9,21,9,58V976c0,0,-29,-35,-55,-64c0,0,-27,-29,-50,-50c0,0,-24,-22,-46,-32c0,0,-22,-12,-44,-12c0,0,-1,0,-1,0c0,0,-1,0,-1,0c-3,0,-35,0,-55,23c0,0,-21,21,-21,59c0,0,23,5,47,15c0,0,23,7,50,22c0,0,25,13,57,34c0,0,30,18,69,47l107,79h98V174c0,0,-1,-37,10,-58c0,0,9,-21,26,-32c0,0,17,-13,41,-16c0,0,22,-4,48,-4h75V0Z" 
id="f0_t"
transform="scale(0.001,-0.001)" />

<path d="M49,-194v70c0,0,79,47,125,115c0,0,45,66,71,146c0,0,23,79,31,167c0,0,7,88,7,180c0,0,0,90,-7,180c0,0,-8,88,-31,168c0,0,-26,79,-71,146c0,0,-46,66,-125,114v69c0,0,105,-42,180,-101c0,0,75,-60,122,-142c0,0,47,-82,69,-188c0,0,21,-109,22,-246c0,0,-1,-138,-22,-245c0,0,-22,-109,-69,-191c0,0,-47,-82,-122,-141c0,0,-75,-60,-180,-101Z" 
id="f0_w"
transform="scale(0.001,-0.001)" />

<path d="M465,553c0,0,67,0,112,15c0,0,44,14,71,44c0,0,26,30,39,75c0,0,11,45,11,104c0,0,-1,61,-12,105c0,0,-14,42,-41,70c0,0,-29,27,-74,40c0,0,-46,12,-110,12H357V553ZM982,0C963,0,909,0,873,5c0,0,-46,5,-79,20c0,0,-32,15,-54,42c0,0,-24,26,-49,70L484,481H357V166c0,0,0,-33,11,-53c0,0,9,-22,27,-32c0,0,16,-10,40,-13c0,0,22,-4,48,-4h20V0H58V64H78c0,0,24,0,48,4c0,0,22,3,40,13c0,0,16,10,27,32c0,0,10,20,10,53V923c0,0,0,33,-10,54c0,0,-11,20,-27,32c0,0,-18,11,-40,14c0,0,-24,3,-48,3H58v65H469c0,0,198,-1,296,-73c0,0,97,-74,97,-222c0,0,-1,-62,-20,-107c0,0,-20,-46,-52,-80c0,0,-33,-33,-72,-55c0,0,-41,-23,-81,-36L847,186c0,0,38,-61,75,-91c0,0,37,-31,85,-31h5V0H990c0,0,-3,0,-8,0Z" 
id="f0_15"
transform="scale(0.001,-0.001)" />

<path d="M-6,365v90H771V365Z" 
id="f0_19"
transform="scale(0.001,-0.001)" />

<path d="M518,83c0,0,50,0,86,21c0,0,35,21,58,63c0,0,23,41,33,104c0,0,10,61,11,142c0,0,-1,80,-11,142c0,0,-10,60,-33,101c0,0,-23,40,-58,60c0,0,-38,20,-88,20c0,0,-60,0,-99,-19c0,0,-41,-20,-64,-61c0,0,-24,-40,-34,-101c0,0,-10,-62,-10,-144c0,0,0,-80,10,-141c0,0,10,-62,35,-103c0,0,23,-42,64,-63c0,0,39,-21,100,-21ZM28,-366v64H40c0,0,25,0,49,4c0,0,22,3,39,16c0,0,17,11,27,33c0,0,10,21,10,58V650c0,0,0,33,-10,55c0,0,-11,20,-27,31c0,0,-18,11,-40,15c0,0,-24,3,-48,4H20v64H287L303,681h6c0,0,16,34,39,63c0,0,21,28,50,49c0,0,27,19,64,31c0,0,36,9,80,10c0,0,75,0,134,-25c0,0,58,-26,98,-76c0,0,38,-53,60,-132c0,0,20,-80,20,-190c0,0,0,-111,-20,-191c0,0,-22,-80,-60,-133c0,0,-40,-53,-98,-77c0,0,-57,-24,-131,-24c-1,0,-2,0,-3,0h-2c-8,0,-46,1,-77,10c0,0,-37,8,-65,26c0,0,-29,18,-50,43c0,0,-23,24,-39,54h-3c0,0,0,-39,0,-73c0,0,0,-15,0,-30c0,0,0,-15,0,-28c0,0,0,-14,0,-24c0,0,0,-11,0,-17V-199c0,0,0,-33,10,-54c0,0,10,-21,28,-31c0,0,17,-11,41,-14c0,0,23,-4,49,-4h5v-64Z" 
id="f0_g"
transform="scale(0.001,-0.001)" />

<path d="M78,0V112L333,407c0,0,61,70,103,126c0,0,40,56,66,106c0,0,25,49,37,97c0,0,11,47,11,100c0,0,0,43,-9,79c0,0,-11,35,-29,61c0,0,-19,25,-48,40c0,0,-31,13,-70,13c0,0,-53,0,-84,-18c0,0,-33,-20,-52,-50c0,0,-19,-31,-25,-73c0,0,-7,-41,-7,-86c0,0,-28,0,-51,4c0,0,-24,4,-42,17c0,0,-18,11,-28,30c0,0,-10,19,-10,48c0,0,0,43,19,82c0,0,19,37,57,65c0,0,36,28,93,43c0,0,56,15,130,15c0,0,72,0,130,-18c0,0,56,-19,97,-51c0,0,41,-34,62,-81c0,0,21,-47,21,-105c0,0,-1,-54,-17,-104c0,0,-18,-52,-50,-104c0,0,-33,-54,-80,-111c0,0,-48,-58,-108,-124L191,122H545c7,0,36,1,56,10c0,0,21,10,36,25c0,0,14,15,22,37c0,0,7,20,13,42l6,28h61V0Z" 
id="f0_y"
transform="scale(0.001,-0.001)" />

<path d="M683,442L588,709c0,0,-25,68,-43,127c0,0,-21,59,-33,114c0,0,-6,-28,-12,-53c0,0,-8,-26,-16,-53c0,0,-9,-26,-19,-55c0,0,-10,-31,-23,-66L338,442ZM0,0V64H29c0,0,1,0,3,0c6,0,23,1,35,5c0,0,16,5,28,18c0,0,12,13,25,37c0,0,11,22,25,60l339,907H604L949,145c0,0,8,-23,19,-39c0,0,8,-16,21,-25c0,0,12,-10,29,-13c0,0,17,-4,39,-4h20V0H657V64h35c0,0,92,0,92,73c0,0,0,12,-3,26c0,0,-4,14,-10,31L710,365H309L251,204c0,0,-8,-18,-11,-35c0,0,-4,-18,-4,-30c0,0,0,-40,26,-57c0,0,24,-18,76,-18h35V0Z" 
id="f0_q"
transform="scale(0.001,-0.001)" />

<path d="M222,-9c-1,0,-2,0,-3,0c0,0,-1,0,-3,0c-6,0,-22,0,-35,5c0,0,-18,4,-30,16c0,0,-14,12,-21,32c0,0,-8,20,-8,49c0,0,0,30,8,50c0,0,7,19,21,32c0,0,12,11,30,17c0,0,17,5,38,5c0,0,18,0,37,-5c0,0,16,-6,30,-17c0,0,12,-13,21,-32c0,0,8,-20,8,-50c0,0,0,-29,-8,-49c0,0,-9,-20,-21,-32C286,12,272,0,256,-4c0,0,-17,-5,-34,-5Z" 
id="f0_n"
transform="scale(0.001,-0.001)" />

<path d="M383,-14c-2,0,-4,0,-6,0h-1c-12,0,-79,1,-128,14c0,0,-56,12,-90,36c0,0,-36,23,-52,54c0,0,-17,30,-17,64c0,0,0,46,26,73c0,0,25,25,70,25c0,0,0,-40,13,-74c0,0,12,-35,38,-59c0,0,24,-24,61,-38c0,0,34,-14,79,-14c1,0,2,0,3,0c0,0,45,0,86,13c0,0,42,12,73,42c0,0,30,29,50,76c0,0,18,47,18,115c0,0,0,48,-18,88c0,0,-20,38,-55,67c0,0,-36,27,-88,43c0,0,-52,14,-115,15H281v78h49c0,0,50,0,94,17c0,0,44,16,77,47c0,0,31,29,50,74c0,0,19,43,19,98c0,0,0,45,-9,80c0,0,-10,34,-28,59c0,0,-21,25,-51,38c0,0,-32,12,-75,12c0,0,-53,0,-85,-18c0,0,-33,-20,-52,-50c0,0,-19,-31,-25,-73c0,0,-7,-41,-7,-86c0,0,-28,0,-52,4c0,0,-23,4,-41,17c0,0,-18,11,-28,30c0,0,-10,19,-10,48c0,0,0,43,19,82c0,0,19,37,57,65c0,0,38,28,94,43c0,0,56,15,130,15c0,0,71,0,131,-16c0,0,59,-17,101,-47c0,0,41,-31,65,-76c0,0,23,-46,23,-104c0,0,0,-51,-18,-97c0,0,-19,-46,-51,-82c0,0,-33,-38,-78,-63c0,0,-45,-27,-97,-39c0,0,27,-4,60,-10c0,0,32,-8,63,-21c0,0,32,-13,61,-33c0,0,28,-20,51,-50c0,0,21,-29,35,-67c0,0,12,-39,12,-89c0,0,0,-62,-16,-110c0,0,-17,-48,-45,-84c0,0,-29,-37,-67,-62c0,0,-38,-26,-81,-41C556,15,512,0,467,-6c0,0,-42,-8,-84,-8Z" 
id="f0_1a"
transform="scale(0.001,-0.001)" />

<path d="M58,0V64H78c0,0,25,0,49,4c0,0,22,3,39,16c0,0,17,11,27,32c0,0,10,21,10,58V917c0,0,0,36,-10,57c0,0,-10,21,-27,34c0,0,-17,11,-39,15c0,0,-24,3,-49,3H58v65H503v-65H483c0,0,-26,0,-48,-3c0,0,-24,-3,-40,-14c0,0,-18,-12,-27,-32c0,0,-11,-21,-11,-54V76H659c0,0,34,0,59,13c0,0,23,12,39,32c0,0,16,19,25,44c0,0,7,24,11,49l15,114h75V0Z" 
id="f0_2"
transform="scale(0.001,-0.001)" />

<path d="M567,67c0,0,85,0,145,33c0,0,59,32,96,94c0,0,36,61,53,151c0,0,16,88,16,202c0,0,0,112,-16,203c0,0,-17,88,-53,150c0,0,-37,60,-96,93c0,0,-59,32,-144,32c0,0,-85,0,-144,-32c0,0,-61,-33,-97,-93c0,0,-38,-62,-55,-150c0,0,-17,-91,-17,-203c0,0,0,-114,17,-202c0,0,17,-90,54,-151c0,0,37,-62,97,-94c0,0,59,-33,144,-33ZM853,-350c-9,0,-65,0,-119,16c0,0,-60,16,-110,55c0,0,-50,38,-82,105c0,0,-33,65,-41,163c0,0,-106,11,-182,55c0,0,-79,43,-130,117c0,0,-52,72,-77,171c0,0,-26,97,-26,216c0,0,-1,126,30,231c0,0,29,103,89,176c0,0,59,72,151,113c0,0,90,39,212,40c0,0,115,-1,205,-40c0,0,88,-41,150,-113c0,0,61,-74,92,-177c0,0,32,-104,32,-231c0,0,0,-112,-25,-206c0,0,-25,-94,-72,-166c0,0,-49,-72,-119,-118C831,57,759,10,669,-5c0,0,6,-78,26,-131c0,0,18,-52,47,-84c0,0,29,-33,68,-45c0,0,39,-14,85,-14h25v-71H853Z" 
id="f0_1l"
transform="scale(0.001,-0.001)" />

<path d="M275,-20L578,891H299c0,0,-84,0,-120,-20c0,0,-63,-35,-101,-106l-21,8l97,239H696V983L359,-20Z" 
id="f3_r"
transform="scale(0.001,-0.001)" />

<path d="M394,23c0,0,80,0,129,45c0,0,48,45,48,110c0,0,0,54,-28,97c0,0,-53,79,-214,206c0,0,-62,-52,-92,-114c0,0,-30,-61,-30,-133c0,0,0,-96,53,-154c0,0,52,-57,134,-57Zm17,566c0,0,90,81,114,128c0,0,24,46,24,105c0,0,0,79,-44,123c0,0,-44,45,-121,45c0,0,-76,0,-124,-45c0,0,-48,-44,-48,-103c0,0,0,-38,20,-77c0,0,20,-39,56,-74L411,589ZM382,-17c0,0,-144,0,-225,90c0,0,-64,72,-64,158c0,0,0,67,45,133c0,0,45,66,156,146c0,0,-121,98,-156,158c0,0,-34,59,-34,124c0,0,0,98,76,169c0,0,76,72,202,72c0,0,123,0,198,-67c0,0,74,-66,74,-151c0,0,0,-57,-40,-116c0,0,-40,-59,-168,-139c0,0,132,-101,174,-159c0,0,57,-76,57,-161c0,0,0,-106,-82,-182c0,0,-81,-75,-213,-75Z" 
id="f3_s"
transform="scale(0.001,-0.001)" />


</defs>
</svg>