<?xml version="1.0" encoding="UTF-8" standalone="no"?>
<!DOCTYPE svg PUBLIC "-//W3C//DTD SVG 1.1//EN"
"http://www.w3.org/Graphics/SVG/1.1/DTD/svg11.dtd">
<svg viewBox="0 0 909 1286" version="1.1" xmlns="http://www.w3.org/2000/svg" xmlns:xlink="http://www.w3.org/1999/xlink">
<defs>
<clipPath id="c0_145"><path d="M35.1,1194.7V113.1H873.9V1194.7Z" /></clipPath>
</defs>
<g clip-path="url(#c0_145)">
<g fill="#000000" >
<use xlink:href="#f0_3" transform="matrix(12,0,0,12,47.4,136)" />
<use xlink:href="#f0_n" transform="matrix(12,0,0,12,57.3,136)" />
<use xlink:href="#f0_h" transform="matrix(12,0,0,12,67.9,136)" />
<use xlink:href="#f0_1v" transform="matrix(12,0,0,12,77.2,136)" />
<use xlink:href="#f1_4" transform="matrix(12,0,0,12,88.3,136)" />
<use xlink:href="#f0_u" transform="matrix(12,0,0,12,106.5,136)" />
<use xlink:href="#f0_1r" transform="matrix(12,0,0,12,121.5,136)" />
<use xlink:href="#f0_1j" transform="matrix(12,0,0,12,139.9,136)" />
<use xlink:href="#f0_1a" transform="matrix(12,0,0,12,153.8,136)" />
<use xlink:href="#f0_u" transform="matrix(12,0,0,12,47.4,189.4)" />
</g>
</g>
<image preserveAspectRatio="none" x="67" y="163" width="355" height="42" xlink:href="img/1.png" />
<g clip-path="url(#c0_145)">
<g fill="#000000" >
<use xlink:href="#f0_1v" transform="matrix(12,0,0,12,47.4,246)" />
<use xlink:href="#f1_4" transform="matrix(12,0,0,12,58.5,246)" />
<use xlink:href="#f0_u" transform="matrix(12,0,0,12,76.7,246)" />
<use xlink:href="#f0_p" transform="matrix(12,0,0,12,91.6,246)" />
<use xlink:href="#f0_1k" transform="matrix(12,0,0,12,102.1,246)" />
<use xlink:href="#f0_z" transform="matrix(12,0,0,12,112.3,246)" />
<use xlink:href="#f0_18" transform="matrix(12,0,0,12,122.6,246)" />
<use xlink:href="#f0_z" transform="matrix(12,0,0,12,127.8,246)" />
<use xlink:href="#f0_z" transform="matrix(12,0,0,12,138,246)" />
<use xlink:href="#f0_v" transform="matrix(12,0,0,12,148.3,246)" />
<use xlink:href="#f0_v" transform="matrix(12,0,0,12,158.5,246)" />
<use xlink:href="#f0_6" transform="matrix(12,0,0,12,173.5,246)" />
<use xlink:href="#f0_i" transform="matrix(12,0,0,12,182.5,246)" />
<use xlink:href="#f0_f" transform="matrix(12,0,0,12,192.8,246)" />
<use xlink:href="#f0_1i" transform="matrix(12,0,0,12,47.4,296.4)" />
<use xlink:href="#f0_7" transform="matrix(12,0,0,12,61.3,296.4)" />
<use xlink:href="#f0_j" transform="matrix(12,0,0,12,71.2,296.4)" />
<use xlink:href="#f0_i" transform="matrix(12,0,0,12,81,296.4)" />
<use xlink:href="#f0_8" transform="matrix(12,0,0,12,91.3,296.4)" />
<use xlink:href="#f0_4" transform="matrix(12,0,0,12,97.8,296.4)" />
<use xlink:href="#f0_14" transform="matrix(12,0,0,12,103.6,296.4)" />
<use xlink:href="#f0_7" transform="matrix(12,0,0,12,114.2,296.4)" />
<use xlink:href="#f0_c" transform="matrix(12,0,0,12,128.8,296.4)" />
<use xlink:href="#f0_4" transform="matrix(12,0,0,12,137,296.4)" />
<use xlink:href="#f0_j" transform="matrix(12,0,0,12,142.9,296.4)" />
<use xlink:href="#f0_5" transform="matrix(12,0,0,12,152.8,296.4)" />
<use xlink:href="#f0_4" transform="matrix(12,0,0,12,169.3,296.4)" />
<use xlink:href="#f0_5" transform="matrix(12,0,0,12,175.2,296.4)" />
<use xlink:href="#f0_e" transform="matrix(12,0,0,12,187,296.4)" />
<use xlink:href="#f0_4" transform="matrix(12,0,0,12,198.2,296.4)" />
<use xlink:href="#f0_6" transform="matrix(12,0,0,12,204.1,296.4)" />
<use xlink:href="#f0_i" transform="matrix(12,0,0,12,213.1,296.4)" />
<use xlink:href="#f0_8" transform="matrix(12,0,0,12,223.4,296.4)" />
<use xlink:href="#f0_7" transform="matrix(12,0,0,12,229.9,296.4)" />
<use xlink:href="#f0_c" transform="matrix(12,0,0,12,239.7,296.4)" />
<use xlink:href="#f0_8" transform="matrix(12,0,0,12,252.7,296.4)" />
<use xlink:href="#f0_9" transform="matrix(12,0,0,12,259.1,296.4)" />
<use xlink:href="#f0_i" transform="matrix(12,0,0,12,270.8,296.4)" />
<use xlink:href="#f0_8" transform="matrix(12,0,0,12,281.1,296.4)" />
<use xlink:href="#f0_4" transform="matrix(12,0,0,12,292.3,296.4)" />
<use xlink:href="#f0_5" transform="matrix(12,0,0,12,298.1,296.4)" />
<use xlink:href="#f0_8" transform="matrix(12,0,0,12,309.9,296.4)" />
<use xlink:href="#f0_7" transform="matrix(12,0,0,12,316.4,296.4)" />
<use xlink:href="#f0_b" transform="matrix(12,0,0,12,326.2,296.4)" />
<use xlink:href="#f0_5" transform="matrix(12,0,0,12,334.8,296.4)" />
<use xlink:href="#f0_i" transform="matrix(12,0,0,12,346.6,296.4)" />
<use xlink:href="#f0_f" transform="matrix(12,0,0,12,356.9,296.4)" />
<use xlink:href="#f0_7" transform="matrix(12,0,0,12,367.4,296.4)" />
<use xlink:href="#f0_5" transform="matrix(12,0,0,12,377.2,296.4)" />
<use xlink:href="#f0_7" transform="matrix(12,0,0,12,389,296.4)" />
<use xlink:href="#f0_b" transform="matrix(12,0,0,12,398.8,296.4)" />
<use xlink:href="#f0_j" transform="matrix(12,0,0,12,407.4,296.4)" />
<use xlink:href="#f0_a" transform="matrix(12,0,0,12,417.3,296.4)" />
<use xlink:href="#f0_n" transform="matrix(12,0,0,12,432.4,296.4)" />
<use xlink:href="#f0_m" transform="matrix(12,0,0,12,442.9,296.4)" />
<use xlink:href="#f0_19" transform="matrix(12,0,0,12,454.4,296.4)" />
<use xlink:href="#f0_i" transform="matrix(12,0,0,12,470.2,296.4)" />
<use xlink:href="#f0_8" transform="matrix(12,0,0,12,480.5,296.4)" />
<use xlink:href="#f0_7" transform="matrix(12,0,0,12,487,296.4)" />
<use xlink:href="#f0_b" transform="matrix(12,0,0,12,496.8,296.4)" />
<use xlink:href="#f0_e" transform="matrix(12,0,0,12,510.2,296.4)" />
<use xlink:href="#f0_7" transform="matrix(12,0,0,12,521.4,296.4)" />
<use xlink:href="#f0_6" transform="matrix(12,0,0,12,531.2,296.4)" />
<use xlink:href="#f0_b" transform="matrix(12,0,0,12,540.2,296.4)" />
<use xlink:href="#f0_7" transform="matrix(12,0,0,12,548.9,296.4)" />
<use xlink:href="#f0_i" transform="matrix(12,0,0,12,558.7,296.4)" />
<use xlink:href="#f0_c" transform="matrix(12,0,0,12,569,296.4)" />
<use xlink:href="#f0_7" transform="matrix(12,0,0,12,577.2,296.4)" />
<use xlink:href="#f0_c" transform="matrix(12,0,0,12,587,296.4)" />
<use xlink:href="#f0_n" transform="matrix(12,0,0,12,600.1,296.4)" />
<use xlink:href="#f0_5" transform="matrix(12,0,0,12,610.6,296.4)" />
<use xlink:href="#f0_m" transform="matrix(12,0,0,12,627.2,296.4)" />
<use xlink:href="#f0_b" transform="matrix(12,0,0,12,634,296.4)" />
<use xlink:href="#f0_7" transform="matrix(12,0,0,12,642.6,296.4)" />
<use xlink:href="#f0_7" transform="matrix(12,0,0,12,652.4,296.4)" />
<use xlink:href="#f0_1p" transform="matrix(12,0,0,12,662.2,296.4)" />
<use xlink:href="#f0_4" transform="matrix(12,0,0,12,671.6,296.4)" />
<use xlink:href="#f0_5" transform="matrix(12,0,0,12,677.4,296.4)" />
<use xlink:href="#f0_j" transform="matrix(12,0,0,12,689.2,296.4)" />
<use xlink:href="#f0_18" transform="matrix(12,0,0,12,699.1,296.4)" />
<use xlink:href="#f2_r" transform="matrix(12,0,0,12,47.4,366.7)" />
<use xlink:href="#f2_n" transform="matrix(12,0,0,12,57.6,366.7)" />
<use xlink:href="#f2_y" transform="matrix(12,0,0,12,63.2,366.7)" />
<use xlink:href="#f2_c" transform="matrix(12,0,0,12,75.1,366.7)" />
<use xlink:href="#f2_b" transform="matrix(12,0,0,12,90.8,366.7)" />
<use xlink:href="#f2_a" transform="matrix(12,0,0,12,106.8,366.7)" />
<use xlink:href="#f2_7" transform="matrix(12,0,0,12,118.7,366.7)" />
<use xlink:href="#f2_e" transform="matrix(12,0,0,12,125.1,366.7)" />
<use xlink:href="#f2_e" transform="matrix(12,0,0,12,132.6,366.7)" />
<use xlink:href="#f2_5" transform="matrix(12,0,0,12,140,366.7)" />
<use xlink:href="#f2_6" transform="matrix(12,0,0,12,150.5,366.7)" />
<use xlink:href="#f2_5" transform="matrix(12,0,0,12,160,366.7)" />
<use xlink:href="#f2_d" transform="matrix(12,0,0,12,170.5,366.7)" />
<use xlink:href="#f2_4" transform="matrix(12,0,0,12,182.7,366.7)" />
<use xlink:href="#f2_3" transform="matrix(12,0,0,12,194.9,366.7)" />
<use xlink:href="#f2_a" transform="matrix(12,0,0,12,205.8,366.7)" />
<use xlink:href="#f2_7" transform="matrix(12,0,0,12,217.7,366.7)" />
<use xlink:href="#f2_3" transform="matrix(12,0,0,12,224.2,366.7)" />
<use xlink:href="#f2_13" transform="matrix(12,0,0,12,235.2,366.7)" />
<use xlink:href="#f2_3" transform="matrix(12,0,0,12,247,366.7)" />
<use xlink:href="#f2_4" transform="matrix(12,0,0,12,258,366.7)" />
<use xlink:href="#f2_7" transform="matrix(12,0,0,12,265.4,366.7)" />
<use xlink:href="#f2_o" transform="matrix(12,0,0,12,271.9,366.7)" />
<use xlink:href="#f2_t" transform="matrix(12,0,0,12,286.3,366.7)" />
<use xlink:href="#f2_3" transform="matrix(12,0,0,12,298.1,366.7)" />
<use xlink:href="#f2_4" transform="matrix(12,0,0,12,309.1,366.7)" />
<use xlink:href="#f2_u" transform="matrix(12,0,0,12,316.5,366.7)" />
<use xlink:href="#f2_s" transform="matrix(12,0,0,12,328.7,366.7)" />
<use xlink:href="#f2_e" transform="matrix(12,0,0,12,342.4,366.7)" />
<use xlink:href="#f2_b" transform="matrix(12,0,0,12,349.8,366.7)" />
<use xlink:href="#f2_6" transform="matrix(12,0,0,12,361,366.7)" />
<use xlink:href="#f2_4" transform="matrix(12,0,0,12,375.4,366.7)" />
<use xlink:href="#f2_u" transform="matrix(12,0,0,12,382.8,366.7)" />
<use xlink:href="#f2_5" transform="matrix(12,0,0,12,395,366.7)" />
<use xlink:href="#f2_s" transform="matrix(12,0,0,12,410.2,366.7)" />
<use xlink:href="#f2_3" transform="matrix(12,0,0,12,419.1,366.7)" />
<use xlink:href="#f2_f" transform="matrix(12,0,0,12,430.1,366.7)" />
<use xlink:href="#f2_5" transform="matrix(12,0,0,12,448.2,366.7)" />
<use xlink:href="#f2_l" transform="matrix(12,0,0,12,463.4,366.7)" />
<use xlink:href="#f2_3" transform="matrix(12,0,0,12,473.6,366.7)" />
<use xlink:href="#f2_s" transform="matrix(12,0,0,12,484.6,366.7)" />
<use xlink:href="#f2_7" transform="matrix(12,0,0,12,498.3,366.7)" />
<use xlink:href="#f2_d" transform="matrix(12,0,0,12,504.7,366.7)" />
<use xlink:href="#f2_4" transform="matrix(12,0,0,12,517,366.7)" />
<use xlink:href="#f2_5" transform="matrix(12,0,0,12,524.4,366.7)" />
<use xlink:href="#f2_6" transform="matrix(12,0,0,12,534.8,366.7)" />
<use xlink:href="#f2_s" transform="matrix(12,0,0,12,544.4,366.7)" />
<use xlink:href="#f2_5" transform="matrix(12,0,0,12,553.3,366.7)" />
<use xlink:href="#f2_o" transform="matrix(12,0,0,12,563.8,366.7)" />
<use xlink:href="#f2_4" transform="matrix(12,0,0,12,573.4,366.7)" />
<use xlink:href="#f2_4" transform="matrix(12,0,0,12,585.6,366.7)" />
<use xlink:href="#f2_c" transform="matrix(12,0,0,12,593,366.7)" />
<use xlink:href="#f2_b" transform="matrix(12,0,0,12,608.7,366.7)" />
<use xlink:href="#f2_4" transform="matrix(12,0,0,12,624.6,366.7)" />
<use xlink:href="#f2_u" transform="matrix(12,0,0,12,632,366.7)" />
<use xlink:href="#f2_5" transform="matrix(12,0,0,12,644.2,366.7)" />
<use xlink:href="#f2_6" transform="matrix(12,0,0,12,654.7,366.7)" />
<use xlink:href="#f2_f" transform="matrix(12,0,0,12,664.3,366.7)" />
<use xlink:href="#f2_3" transform="matrix(12,0,0,12,682.3,366.7)" />
<use xlink:href="#f2_8" transform="matrix(12,0,0,12,693.3,366.7)" />
<use xlink:href="#f2_s" transform="matrix(12,0,0,12,699.8,366.7)" />
<use xlink:href="#f2_3" transform="matrix(12,0,0,12,713.4,366.7)" />
<use xlink:href="#f2_4" transform="matrix(12,0,0,12,724.4,366.7)" />
<use xlink:href="#f2_y" transform="matrix(12,0,0,12,736.6,366.7)" />
<use xlink:href="#f2_p" transform="matrix(10,0,0,10,748.5,371.3)" />
<use xlink:href="#f2_3" transform="matrix(12,0,0,12,761.8,366.7)" />
<use xlink:href="#f2_d" transform="matrix(12,0,0,12,772.8,366.7)" />
<use xlink:href="#f2_a" transform="matrix(12,0,0,12,785,366.7)" />
<use xlink:href="#f2_y" transform="matrix(12,0,0,12,801.7,366.7)" />
<use xlink:href="#f2_x" transform="matrix(10,0,0,10,813.6,371.3)" />
<use xlink:href="#f2_3" transform="matrix(12,0,0,12,826.9,366.7)" />
<use xlink:href="#f2_s" transform="matrix(12,0,0,12,837.9,366.7)" />
<use xlink:href="#f2_s" transform="matrix(12,0,0,12,47.4,418.6)" />
<use xlink:href="#f2_u" transform="matrix(12,0,0,12,56.3,418.6)" />
<use xlink:href="#f2_b" transform="matrix(12,0,0,12,68.5,418.6)" />
<use xlink:href="#f2_c" transform="matrix(12,0,0,12,79.7,418.6)" />
<use xlink:href="#f2_d" transform="matrix(12,0,0,12,95.4,418.6)" />
<use xlink:href="#f2_7" transform="matrix(12,0,0,12,112.4,418.6)" />
<use xlink:href="#f2_d" transform="matrix(12,0,0,12,118.8,418.6)" />
<use xlink:href="#f2_10" transform="matrix(12,0,0,12,135.8,418.6)" />
<use xlink:href="#f2_18" transform="matrix(12,0,0,12,147.5,418.6)" />
<use xlink:href="#f2_19" transform="matrix(12,0,0,12,153.2,418.6)" />
<use xlink:href="#f2_a" transform="matrix(12,0,0,12,170.7,418.6)" />
<use xlink:href="#f2_7" transform="matrix(12,0,0,12,182.6,418.6)" />
<use xlink:href="#f2_3" transform="matrix(12,0,0,12,189.1,418.6)" />
<use xlink:href="#f2_l" transform="matrix(12,0,0,12,200,418.6)" />
<use xlink:href="#f2_6" transform="matrix(12,0,0,12,210.3,418.6)" />
<use xlink:href="#f2_3" transform="matrix(12,0,0,12,219.9,418.6)" />
<use xlink:href="#f2_f" transform="matrix(12,0,0,12,230.9,418.6)" />
<use xlink:href="#f2_n" transform="matrix(12,0,0,12,248.9,418.6)" />
<use xlink:href="#f2_17" transform="matrix(12,0,0,12,259.2,418.6)" />
<use xlink:href="#f2_b" transform="matrix(12,0,0,12,274.2,418.6)" />
<use xlink:href="#f2_c" transform="matrix(12,0,0,12,285.5,418.6)" />
<use xlink:href="#f2_a" transform="matrix(12,0,0,12,305.9,418.6)" />
<use xlink:href="#f2_b" transform="matrix(12,0,0,12,317.8,418.6)" />
<use xlink:href="#f2_5" transform="matrix(12,0,0,12,329,418.6)" />
<use xlink:href="#f2_s" transform="matrix(12,0,0,12,339.5,418.6)" />
</g>
</g>
<image preserveAspectRatio="none" x="353" y="382" width="43" height="64" xlink:href="img/2.png" />
<g clip-path="url(#c0_145)">
<g fill="#000000" >
<use xlink:href="#f2_h" transform="matrix(12,0,0,12,395.9,418.6)" />
<use xlink:href="#f2_b" transform="matrix(12,0,0,12,408.2,418.6)" />
<use xlink:href="#f2_f" transform="matrix(12,0,0,12,419.4,418.6)" />
<use xlink:href="#f2_t" transform="matrix(12,0,0,12,437.4,418.6)" />
<use xlink:href="#f2_3" transform="matrix(12,0,0,12,449.3,418.6)" />
<use xlink:href="#f2_6" transform="matrix(12,0,0,12,460.2,418.6)" />
<use xlink:href="#f2_5" transform="matrix(12,0,0,12,469.8,418.6)" />
<use xlink:href="#f2_c" transform="matrix(12,0,0,12,485,418.6)" />
<use xlink:href="#f2_7" transform="matrix(12,0,0,12,500.7,418.6)" />
<use xlink:href="#f2_4" transform="matrix(12,0,0,12,507.2,418.6)" />
<use xlink:href="#f2_u" transform="matrix(12,0,0,12,514.6,418.6)" />
</g>
</g>
<image preserveAspectRatio="none" x="532" y="382" width="42" height="64" xlink:href="img/3.png" />
<g clip-path="url(#c0_145)">
<g fill="#000000" >
<use xlink:href="#f2_15" transform="matrix(12,0,0,12,574.3,418.6)" />
<use xlink:href="#f2_11" transform="matrix(12,0,0,12,52.1,487.4)" />
<use xlink:href="#f2_d" transform="matrix(12,0,0,12,65.9,487.4)" />
<use xlink:href="#f2_s" transform="matrix(12,0,0,12,78.1,487.4)" />
<use xlink:href="#f2_n" transform="matrix(12,0,0,12,87.1,487.4)" />
<use xlink:href="#f0_1i" transform="matrix(12,0,0,12,92.6,487.4)" />
<use xlink:href="#f0_n" transform="matrix(12,0,0,12,106.6,487.4)" />
<use xlink:href="#f0_19" transform="matrix(12,0,0,12,117.2,487.4)" />
<use xlink:href="#f0_h" transform="matrix(12,0,0,12,133,487.4)" />
<use xlink:href="#f0_1g" transform="matrix(12,0,0,12,142.3,487.4)" />
<use xlink:href="#f0_1e" transform="matrix(12,0,0,12,160,487.4)" />
<use xlink:href="#f0_i" transform="matrix(12,0,0,12,176.7,487.4)" />
<use xlink:href="#f0_5" transform="matrix(12,0,0,12,187,487.4)" />
<use xlink:href="#f0_e" transform="matrix(12,0,0,12,198.8,487.4)" />
<use xlink:href="#f0_1f" transform="matrix(12,0,0,12,214.8,487.4)" />
<use xlink:href="#f0_1t" transform="matrix(12,0,0,12,230.8,487.4)" />
<use xlink:href="#f0_i" transform="matrix(12,0,0,12,248.9,487.4)" />
<use xlink:href="#f0_b" transform="matrix(12,0,0,12,259.2,487.4)" />
<use xlink:href="#f0_7" transform="matrix(12,0,0,12,267.8,487.4)" />
<use xlink:href="#f0_4" transform="matrix(12,0,0,12,282.4,487.4)" />
<use xlink:href="#f0_c" transform="matrix(12,0,0,12,288.2,487.4)" />
<use xlink:href="#f0_n" transform="matrix(12,0,0,12,296.5,487.4)" />
<use xlink:href="#f0_8" transform="matrix(12,0,0,12,307.1,487.4)" />
<use xlink:href="#f0_9" transform="matrix(12,0,0,12,313.5,487.4)" />
<use xlink:href="#f0_7" transform="matrix(12,0,0,12,325.1,487.4)" />
<use xlink:href="#f0_b" transform="matrix(12,0,0,12,334.9,487.4)" />
<use xlink:href="#f0_1l" transform="matrix(12,0,0,12,343.6,487.4)" />
<use xlink:href="#f0_i" transform="matrix(12,0,0,12,360.9,487.4)" />
<use xlink:href="#f0_f" transform="matrix(12,0,0,12,371.2,487.4)" />
<use xlink:href="#f0_c" transform="matrix(12,0,0,12,376.9,487.4)" />
<use xlink:href="#f0_i" transform="matrix(12,0,0,12,389.9,487.4)" />
<use xlink:href="#f0_8" transform="matrix(12,0,0,12,400.2,487.4)" />
<use xlink:href="#f0_8" transform="matrix(12,0,0,12,411.4,487.4)" />
<use xlink:href="#f0_7" transform="matrix(12,0,0,12,417.8,487.4)" />
<use xlink:href="#f0_1l" transform="matrix(12,0,0,12,427.6,487.4)" />
<use xlink:href="#f0_l" transform="matrix(12,0,0,12,444.9,487.4)" />
<use xlink:href="#f0_7" transform="matrix(12,0,0,12,456.2,487.4)" />
<use xlink:href="#f0_b" transform="matrix(12,0,0,12,466,487.4)" />
<use xlink:href="#f0_i" transform="matrix(12,0,0,12,474.6,487.4)" />
<use xlink:href="#f0_8" transform="matrix(12,0,0,12,484.9,487.4)" />
<use xlink:href="#f0_d" transform="matrix(12,0,0,12,491.4,487.4)" />
<use xlink:href="#f0_b" transform="matrix(12,0,0,12,503,487.4)" />
<use xlink:href="#f0_7" transform="matrix(12,0,0,12,511.6,487.4)" />
<use xlink:href="#f0_s" transform="matrix(12,0,0,12,526.2,487.4)" />
<use xlink:href="#f0_t" transform="matrix(10,0,0,10,537.4,491.9)" />
<use xlink:href="#f0_i" transform="matrix(12,0,0,12,550.7,487.4)" />
<use xlink:href="#f0_5" transform="matrix(12,0,0,12,561,487.4)" />
<use xlink:href="#f0_e" transform="matrix(12,0,0,12,572.8,487.4)" />
<use xlink:href="#f0_s" transform="matrix(12,0,0,12,588.8,487.4)" />
<use xlink:href="#f0_v" transform="matrix(10,0,0,10,600,491.9)" />
<use xlink:href="#f0_b" transform="matrix(12,0,0,12,613.3,487.4)" />
<use xlink:href="#f0_7" transform="matrix(12,0,0,12,621.9,487.4)" />
<use xlink:href="#f0_c" transform="matrix(12,0,0,12,631.7,487.4)" />
<use xlink:href="#f0_l" transform="matrix(12,0,0,12,640,487.4)" />
<use xlink:href="#f0_7" transform="matrix(12,0,0,12,651.2,487.4)" />
<use xlink:href="#f0_6" transform="matrix(12,0,0,12,661,487.4)" />
<use xlink:href="#f0_8" transform="matrix(12,0,0,12,670,487.4)" />
<use xlink:href="#f0_4" transform="matrix(12,0,0,12,676.5,487.4)" />
<use xlink:href="#f0_14" transform="matrix(12,0,0,12,682.3,487.4)" />
<use xlink:href="#f0_7" transform="matrix(12,0,0,12,692.9,487.4)" />
<use xlink:href="#f0_f" transform="matrix(12,0,0,12,702.8,487.4)" />
<use xlink:href="#f0_a" transform="matrix(12,0,0,12,708.4,487.4)" />
<use xlink:href="#f0_i" transform="matrix(12,0,0,12,723.5,487.4)" />
<use xlink:href="#f0_5" transform="matrix(12,0,0,12,733.8,487.4)" />
<use xlink:href="#f0_e" transform="matrix(12,0,0,12,745.7,487.4)" />
<use xlink:href="#f0_1e" transform="matrix(12,0,0,12,761.6,487.4)" />
<use xlink:href="#f0_1f" transform="matrix(12,0,0,12,773.6,487.4)" />
<use xlink:href="#f0_i" transform="matrix(12,0,0,12,789.6,487.4)" />
<use xlink:href="#f0_5" transform="matrix(12,0,0,12,799.9,487.4)" />
<use xlink:href="#f0_e" transform="matrix(12,0,0,12,811.8,487.4)" />
<use xlink:href="#f0_1g" transform="matrix(12,0,0,12,827.7,487.4)" />
<use xlink:href="#f0_1t" transform="matrix(12,0,0,12,840.7,487.4)" />
<use xlink:href="#f0_i" transform="matrix(12,0,0,12,47.4,525.6)" />
<use xlink:href="#f0_b" transform="matrix(12,0,0,12,57.7,525.6)" />
<use xlink:href="#f0_7" transform="matrix(12,0,0,12,66.3,525.6)" />
<use xlink:href="#f0_i" transform="matrix(12,0,0,12,80.9,525.6)" />
<use xlink:href="#f0_e" transform="matrix(12,0,0,12,91.2,525.6)" />
<use xlink:href="#f0_4" transform="matrix(12,0,0,12,102.4,525.6)" />
<use xlink:href="#f0_i" transform="matrix(12,0,0,12,108.3,525.6)" />
<use xlink:href="#f0_g" transform="matrix(12,0,0,12,118.6,525.6)" />
<use xlink:href="#f0_i" transform="matrix(12,0,0,12,129.8,525.6)" />
<use xlink:href="#f0_8" transform="matrix(12,0,0,12,140.1,525.6)" />
<use xlink:href="#f0_4" transform="matrix(12,0,0,12,146.6,525.6)" />
<use xlink:href="#f0_6" transform="matrix(12,0,0,12,152.4,525.6)" />
<use xlink:href="#f0_18" transform="matrix(12,0,0,12,161.4,525.6)" />
<use xlink:href="#f0_3" transform="matrix(12,0,0,12,47.4,576)" />
<use xlink:href="#f0_4" transform="matrix(12,0,0,12,57.3,576)" />
<use xlink:href="#f0_5" transform="matrix(12,0,0,12,63.2,576)" />
<use xlink:href="#f0_6" transform="matrix(12,0,0,12,75,576)" />
<use xlink:href="#f0_7" transform="matrix(12,0,0,12,84,576)" />
<use xlink:href="#f0_l" transform="matrix(12,0,0,12,98.6,576)" />
<use xlink:href="#f0_n" transform="matrix(12,0,0,12,109.8,576)" />
<use xlink:href="#f0_4" transform="matrix(12,0,0,12,120.4,576)" />
<use xlink:href="#f0_5" transform="matrix(12,0,0,12,126.2,576)" />
<use xlink:href="#f0_8" transform="matrix(12,0,0,12,138,576)" />
<use xlink:href="#f0_c" transform="matrix(12,0,0,12,144.5,576)" />
<use xlink:href="#f0_1g" transform="matrix(12,0,0,12,157.5,576)" />
<use xlink:href="#f0_i" transform="matrix(12,0,0,12,175.2,576)" />
<use xlink:href="#f0_5" transform="matrix(12,0,0,12,185.5,576)" />
<use xlink:href="#f0_e" transform="matrix(12,0,0,12,197.3,576)" />
<use xlink:href="#f0_1t" transform="matrix(12,0,0,12,213.3,576)" />
<use xlink:href="#f0_f" transform="matrix(12,0,0,12,231.4,576)" />
<use xlink:href="#f0_4" transform="matrix(12,0,0,12,237,576)" />
<use xlink:href="#f0_7" transform="matrix(12,0,0,12,242.9,576)" />
<use xlink:href="#f0_n" transform="matrix(12,0,0,12,257.5,576)" />
<use xlink:href="#f0_5" transform="matrix(12,0,0,12,268,576)" />
<use xlink:href="#f0_8" transform="matrix(12,0,0,12,284.6,576)" />
<use xlink:href="#f0_9" transform="matrix(12,0,0,12,291,576)" />
<use xlink:href="#f0_7" transform="matrix(12,0,0,12,302.7,576)" />
<use xlink:href="#f0_c" transform="matrix(12,0,0,12,317.2,576)" />
<use xlink:href="#f0_i" transform="matrix(12,0,0,12,325.5,576)" />
<use xlink:href="#f0_1l" transform="matrix(12,0,0,12,335.8,576)" />
<use xlink:href="#f0_7" transform="matrix(12,0,0,12,353.1,576)" />
<use xlink:href="#f0_i" transform="matrix(12,0,0,12,367.7,576)" />
<use xlink:href="#f0_e" transform="matrix(12,0,0,12,378,576)" />
<use xlink:href="#f0_4" transform="matrix(12,0,0,12,389.2,576)" />
<use xlink:href="#f0_i" transform="matrix(12,0,0,12,395.1,576)" />
<use xlink:href="#f0_g" transform="matrix(12,0,0,12,405.4,576)" />
<use xlink:href="#f0_i" transform="matrix(12,0,0,12,416.6,576)" />
<use xlink:href="#f0_8" transform="matrix(12,0,0,12,426.9,576)" />
<use xlink:href="#f0_4" transform="matrix(12,0,0,12,433.4,576)" />
<use xlink:href="#f0_6" transform="matrix(12,0,0,12,439.2,576)" />
<use xlink:href="#f0_18" transform="matrix(12,0,0,12,448.3,576)" />
</g>
</g>
<image preserveAspectRatio="none" x="47" y="603" width="190" height="39" xlink:href="img/4.png" />
<g clip-path="url(#c0_145)">
<g fill="#000000" >
<use xlink:href="#f0_s" transform="matrix(12,0,0,12,47.4,682.9)" />
<use xlink:href="#f0_t" transform="matrix(10,0,0,10,58.6,687.5)" />
<use xlink:href="#f0_1w" transform="matrix(12,0,0,12,71.9,682.9)" />
<use xlink:href="#f0_1g" transform="matrix(10,0,0,10,84.2,687.5)" />
<use xlink:href="#f0_1z" transform="matrix(12,0,0,12,99.7,682.9)" />
<use xlink:href="#f0_p" transform="matrix(12,0,0,12,111.2,682.9)" />
<use xlink:href="#f0_t" transform="matrix(12,0,0,12,116.9,682.9)" />
<use xlink:href="#f0_u" transform="matrix(12,0,0,12,131.9,682.9)" />
<use xlink:href="#f0_s" transform="matrix(12,0,0,12,146.9,682.9)" />
<use xlink:href="#f0_v" transform="matrix(10,0,0,10,158.1,687.5)" />
<use xlink:href="#f0_1w" transform="matrix(12,0,0,12,171.4,682.9)" />
<use xlink:href="#f0_1t" transform="matrix(10,0,0,10,183.7,687.5)" />
<use xlink:href="#f0_1z" transform="matrix(12,0,0,12,194.8,682.9)" />
<use xlink:href="#f0_p" transform="matrix(12,0,0,12,206.3,682.9)" />
<use xlink:href="#f0_t" transform="matrix(12,0,0,12,212,682.9)" />
</g>
</g>
<image preserveAspectRatio="none" x="47" y="717" width="144" height="81" xlink:href="img/5.png" />
<g clip-path="url(#c0_145)">
<g fill="#000000" >
<use xlink:href="#f0_1g" transform="matrix(12,0,0,12,47.4,838.8)" />
<use xlink:href="#f0_f" transform="matrix(12,0,0,12,60.3,838.8)" />
<use xlink:href="#f0_c" transform="matrix(12,0,0,12,66,838.8)" />
<use xlink:href="#f0_n" transform="matrix(12,0,0,12,74.2,838.8)" />
<use xlink:href="#f0_h" transform="matrix(12,0,0,12,84.8,838.8)" />
<use xlink:href="#f0_l" transform="matrix(12,0,0,12,94.1,838.8)" />
<use xlink:href="#f0_n" transform="matrix(12,0,0,12,105.4,838.8)" />
<use xlink:href="#f0_4" transform="matrix(12,0,0,12,115.9,838.8)" />
<use xlink:href="#f0_5" transform="matrix(12,0,0,12,121.8,838.8)" />
<use xlink:href="#f0_8" transform="matrix(12,0,0,12,133.6,838.8)" />
<use xlink:href="#f0_c" transform="matrix(12,0,0,12,140.1,838.8)" />
<use xlink:href="#f0_1e" transform="matrix(12,0,0,12,153.1,838.8)" />
<use xlink:href="#f0_i" transform="matrix(12,0,0,12,169.8,838.8)" />
<use xlink:href="#f0_5" transform="matrix(12,0,0,12,180.1,838.8)" />
<use xlink:href="#f0_e" transform="matrix(12,0,0,12,191.9,838.8)" />
<use xlink:href="#f0_1f" transform="matrix(12,0,0,12,207.9,838.8)" />
<use xlink:href="#f0_f" transform="matrix(12,0,0,12,223.9,838.8)" />
<use xlink:href="#f0_4" transform="matrix(12,0,0,12,229.6,838.8)" />
<use xlink:href="#f0_7" transform="matrix(12,0,0,12,235.4,838.8)" />
<use xlink:href="#f0_n" transform="matrix(12,0,0,12,250,838.8)" />
<use xlink:href="#f0_5" transform="matrix(12,0,0,12,260.6,838.8)" />
<use xlink:href="#f0_8" transform="matrix(12,0,0,12,277.1,838.8)" />
<use xlink:href="#f0_9" transform="matrix(12,0,0,12,283.6,838.8)" />
<use xlink:href="#f0_7" transform="matrix(12,0,0,12,295.2,838.8)" />
<use xlink:href="#f0_c" transform="matrix(12,0,0,12,309.8,838.8)" />
<use xlink:href="#f0_i" transform="matrix(12,0,0,12,318,838.8)" />
<use xlink:href="#f0_1l" transform="matrix(12,0,0,12,328.4,838.8)" />
<use xlink:href="#f0_7" transform="matrix(12,0,0,12,345.7,838.8)" />
<use xlink:href="#f0_i" transform="matrix(12,0,0,12,360.2,838.8)" />
<use xlink:href="#f0_e" transform="matrix(12,0,0,12,370.5,838.8)" />
<use xlink:href="#f0_4" transform="matrix(12,0,0,12,381.8,838.8)" />
<use xlink:href="#f0_i" transform="matrix(12,0,0,12,387.6,838.8)" />
<use xlink:href="#f0_g" transform="matrix(12,0,0,12,397.9,838.8)" />
<use xlink:href="#f0_i" transform="matrix(12,0,0,12,409.2,838.8)" />
<use xlink:href="#f0_8" transform="matrix(12,0,0,12,419.5,838.8)" />
<use xlink:href="#f0_4" transform="matrix(12,0,0,12,425.9,838.8)" />
<use xlink:href="#f0_6" transform="matrix(12,0,0,12,431.8,838.8)" />
<use xlink:href="#f0_h" transform="matrix(12,0,0,12,440.8,838.8)" />
</g>
</g>
<image preserveAspectRatio="none" x="47" y="866" width="173" height="38" xlink:href="img/6.png" />
<g clip-path="url(#c0_145)">
<g fill="#000000" >
<use xlink:href="#f0_n" transform="matrix(12,0,0,12,47.4,951.8)" />
<use xlink:href="#f0_b" transform="matrix(12,0,0,12,57.9,951.8)" />
<use xlink:href="#f0_s" transform="matrix(12,0,0,12,71.3,951.8)" />
<use xlink:href="#f0_t" transform="matrix(10,0,0,10,82.5,956.4)" />
<use xlink:href="#f0_1w" transform="matrix(12,0,0,12,91,951.8)" />
<use xlink:href="#f0_1e" transform="matrix(10,0,0,10,103.4,956.4)" />
<use xlink:href="#f0_1z" transform="matrix(12,0,0,12,118.1,951.8)" />
<use xlink:href="#f0_p" transform="matrix(12,0,0,12,129.6,951.8)" />
<use xlink:href="#f0_t" transform="matrix(12,0,0,12,135.3,951.8)" />
<use xlink:href="#f0_u" transform="matrix(12,0,0,12,149.5,951.8)" />
<use xlink:href="#f0_s" transform="matrix(12,0,0,12,164.5,951.8)" />
<use xlink:href="#f0_v" transform="matrix(10,0,0,10,175.7,956.4)" />
<use xlink:href="#f0_1w" transform="matrix(12,0,0,12,184.2,951.8)" />
<use xlink:href="#f0_1f" transform="matrix(10,0,0,10,196.6,956.4)" />
<use xlink:href="#f0_1z" transform="matrix(12,0,0,12,205.9,951.8)" />
<use xlink:href="#f0_p" transform="matrix(12,0,0,12,217.4,951.8)" />
<use xlink:href="#f0_t" transform="matrix(12,0,0,12,223.1,951.8)" />
</g>
</g>
<image preserveAspectRatio="none" x="47" y="985" width="152" height="81" xlink:href="img/7.png" />
<g clip-path="url(#c0_145)">
<g fill="#000000" >
<use xlink:href="#f0_20" transform="matrix(12,0,0,12,47.4,1107.6)" />
<use xlink:href="#f0_b" transform="matrix(12,0,0,12,58.2,1107.6)" />
<use xlink:href="#f0_n" transform="matrix(12,0,0,12,66.8,1107.6)" />
<use xlink:href="#f0_1l" transform="matrix(12,0,0,12,77.4,1107.6)" />
<use xlink:href="#f0_7" transform="matrix(12,0,0,12,99.4,1107.6)" />
<use xlink:href="#f0_15" transform="matrix(12,0,0,12,109.2,1107.6)" />
<use xlink:href="#f0_d" transform="matrix(12,0,0,12,120.5,1107.6)" />
<use xlink:href="#f0_i" transform="matrix(12,0,0,12,132.1,1107.6)" />
<use xlink:href="#f0_8" transform="matrix(12,0,0,12,142.4,1107.6)" />
<use xlink:href="#f0_4" transform="matrix(12,0,0,12,148.9,1107.6)" />
<use xlink:href="#f0_n" transform="matrix(12,0,0,12,154.7,1107.6)" />
<use xlink:href="#f0_5" transform="matrix(12,0,0,12,165.3,1107.6)" />
<use xlink:href="#f0_t" transform="matrix(12,0,0,12,181.9,1107.6)" />
<use xlink:href="#f0_17" transform="matrix(12,0,0,12,192.1,1107.6)" />
<use xlink:href="#f0_1h" transform="matrix(12,0,0,12,203.2,1107.6)" />
<use xlink:href="#f0_v" transform="matrix(12,0,0,12,221.5,1107.6)" />
<use xlink:href="#f0_17" transform="matrix(12,0,0,12,231.8,1107.6)" />
</g>
</g>
<g fill="#000000" >
<use xlink:href="#f3_m" transform="matrix(12,0,0,12,835.7,1269.6)" />
<use xlink:href="#f3_o" transform="matrix(12,0,0,12,844.9,1269.6)" />
</g>
<defs>
<path d="M382,-14c-2,0,-3,0,-5,0c0,0,-75,0,-131,15c0,0,-57,15,-95,44c0,0,-40,27,-58,68c0,0,-20,38,-20,87c0,0,0,45,29,75c0,0,29,27,82,28c0,0,0,-49,13,-92c0,0,12,-44,36,-77c0,0,24,-34,64,-54c0,0,38,-20,92,-20c6,0,104,0,161,50c0,0,58,49,58,142c0,0,0,41,-12,74c0,0,-13,31,-39,60c0,0,-29,26,-73,52c0,0,-46,24,-113,52c0,0,-71,29,-123,63c0,0,-54,32,-88,74c0,0,-36,39,-53,90c0,0,-17,50,-17,113c0,0,0,65,26,117c0,0,24,51,69,87c0,0,44,34,106,54c0,0,60,18,133,18c0,0,68,0,122,-14c0,0,52,-15,90,-38c0,0,36,-25,56,-54c0,0,18,-32,18,-65c0,0,0,-50,-32,-74c0,0,-33,-26,-86,-26c0,0,-1,1,-2,1c0,0,-1,35,-8,70c0,0,-9,34,-29,62c0,0,-21,27,-53,44c0,0,-34,17,-81,17c0,0,-45,0,-79,-11c0,0,-36,-13,-59,-36c0,0,-24,-23,-36,-55c0,0,-13,-33,-13,-71c0,0,-1,-47,12,-80c0,0,12,-35,40,-63c0,0,27,-28,73,-53c0,0,46,-26,112,-52c0,0,67,-28,120,-58c0,0,52,-32,89,-68c0,0,37,-39,56,-84c0,0,19,-47,19,-106c0,0,0,-73,-26,-129c0,0,-27,-59,-76,-97C651,66,602,26,533,6c0,0,-67,-20,-151,-20Z" 
id="f0_3"
transform="scale(0.001,-0.001)" />

<path d="M442,64c0,0,56,0,97,23c0,0,38,22,64,66c0,0,24,43,36,108c0,0,9,65,10,150c0,0,0,85,-11,149c0,0,-11,64,-36,108c0,0,-25,42,-64,64c0,0,-41,21,-98,21c0,0,-58,0,-97,-21c0,0,-39,-22,-64,-64c0,0,-25,-44,-36,-108c0,0,-11,-64,-11,-149c0,0,0,-85,11,-150c0,0,11,-65,37,-108c0,0,24,-44,65,-66c0,0,38,-23,97,-23Zm-3,-78c0,0,-83,0,-149,25c0,0,-66,26,-111,79c0,0,-47,52,-70,134c0,0,-25,79,-25,187c0,0,0,213,91,319c0,0,90,103,268,104c0,0,82,0,149,-25c0,0,65,-26,111,-79c0,0,46,-53,71,-132c0,0,23,-80,23,-187c0,0,0,-216,-91,-321C706,90,614,-14,439,-14Z" 
id="f0_n"
transform="scale(0.001,-0.001)" />

<path d="M46,-234v64c0,0,74,23,110,58c0,0,34,35,35,79c0,0,-1,15,-8,26c0,0,-9,8,-21,17c0,0,-13,6,-27,15c0,0,-15,7,-27,18c0,0,-13,9,-21,26c0,0,-8,14,-8,38c0,0,0,43,29,67c0,0,28,23,71,23c0,0,23,-1,45,-8c0,0,20,-9,37,-26c0,0,16,-17,26,-41c0,0,9,-27,9,-58c0,0,0,-48,-13,-93c0,0,-14,-46,-44,-84c0,0,-30,-40,-77,-70c0,0,-49,-31,-116,-51Z" 
id="f0_h"
transform="scale(0.001,-0.001)" />

<path d="M712,102L515,701c0,0,-24,67,-44,132c0,0,-20,62,-32,117c0,0,-13,-55,-29,-109c0,0,-17,-56,-41,-126L153,102ZM47,0V81L405,1091H538L882,92V0Z" 
id="f0_1v"
transform="scale(0.001,-0.001)" />

<path d="M559,0C559,0,379,0,289,111c0,0,-92,111,-92,332V885H325V462c0,0,0,-183,55,-261c0,0,54,-79,178,-79c0,0,1,0,1,0c0,0,1,0,1,0c4,0,124,1,178,79c0,0,54,78,55,261V885H921V443c0,0,0,-221,-91,-332C830,111,739,0,559,0Z" 
id="f1_4"
transform="scale(0.001,-0.001)" />

<path d="M99,350v90H755V350Zm0,300v91H755V650Z" 
id="f0_u"
transform="scale(0.001,-0.001)" />

<path d="M567,67c0,0,85,0,145,33c0,0,59,32,96,94c0,0,36,61,53,151c0,0,16,88,16,202c0,0,0,112,-16,203c0,0,-17,88,-53,150c0,0,-37,60,-96,93c0,0,-59,32,-144,32c0,0,-85,0,-144,-32c0,0,-61,-33,-97,-93c0,0,-38,-62,-55,-150c0,0,-17,-91,-17,-203c0,0,0,-114,17,-202c0,0,17,-90,54,-151c0,0,37,-62,97,-94c0,0,59,-33,144,-33ZM853,-350c-9,0,-65,0,-119,16c0,0,-60,16,-110,55c0,0,-50,38,-82,105c0,0,-33,65,-41,163c0,0,-106,11,-182,55c0,0,-79,43,-130,117c0,0,-52,72,-77,171c0,0,-26,97,-26,216c0,0,-1,126,30,231c0,0,29,103,89,176c0,0,59,72,151,113c0,0,90,39,212,40c0,0,115,-1,205,-40c0,0,88,-41,150,-113c0,0,61,-74,92,-177c0,0,32,-104,32,-231c0,0,0,-112,-25,-206c0,0,-25,-94,-72,-166c0,0,-49,-72,-119,-118C831,57,759,10,669,-5c0,0,6,-78,26,-131c0,0,18,-52,47,-84c0,0,29,-33,68,-45c0,0,39,-14,85,-14h25v-71H853Z" 
id="f0_1r"
transform="scale(0.001,-0.001)" />

<path d="M-6,365v90H771V365Z" 
id="f0_1j"
transform="scale(0.001,-0.001)" />

<path d="M421,0L142,946c0,0,-8,23,-17,39c0,0,-10,16,-22,25c0,0,-13,9,-30,13c0,0,-17,3,-39,3H13v65H434v-65H399c0,0,-46,0,-69,-17c0,0,-23,-18,-23,-56c0,0,0,-12,4,-26c0,0,3,-14,8,-30L460,408c0,0,18,-70,36,-136c0,0,16,-68,30,-122c0,0,11,59,27,130c0,0,14,71,35,144l182,656H880L1071,419c0,0,21,-77,39,-146c0,0,16,-71,27,-123c0,0,11,54,26,116c0,0,13,61,35,135l134,471c0,0,2,9,6,20c0,0,3,11,5,23c0,0,2,10,4,20c0,0,1,10,2,17c0,0,0,39,-25,57c0,0,-26,17,-76,17h-35v65h373v-65h-29c0,0,-23,0,-39,-4c0,0,-17,-5,-31,-17c0,0,-13,-13,-24,-36c0,0,-11,-24,-23,-61L1182,0H1045L796,856L562,0Z" 
id="f0_1a"
transform="scale(0.001,-0.001)" />

<path d="M38,359V474H436V359Z" 
id="f0_p"
transform="scale(0.001,-0.001)" />

<path d="M424,55c0,0,50,0,91,16c0,0,41,14,70,42c0,0,27,27,44,64c0,0,16,36,16,81c0,0,0,39,-15,72c0,0,-15,33,-46,65c0,0,-33,29,-83,60c0,0,-51,28,-125,61c0,0,-73,-39,-115,-100c0,0,-42,-63,-42,-149c0,0,0,-48,13,-86c0,0,12,-40,39,-67c0,0,24,-29,64,-43c0,0,39,-16,89,-16Zm31,565c0,0,43,21,72,45c0,0,27,21,44,50c0,0,16,27,23,59c0,0,7,32,7,73c0,0,0,34,-9,68c0,0,-11,34,-30,61c0,0,-22,25,-54,42c0,0,-34,16,-82,16c0,0,-43,0,-75,-13c0,0,-34,-15,-56,-39c0,0,-23,-24,-34,-58c0,0,-13,-34,-12,-73c0,0,0,-42,14,-74c0,0,12,-33,38,-59c0,0,25,-27,65,-50c0,0,38,-25,89,-48ZM421,-14c-1,0,-3,0,-4,0c0,0,-87,0,-151,21c0,0,-65,23,-108,62c0,0,-45,39,-65,92c0,0,-23,52,-23,113c0,0,0,54,18,97c0,0,16,41,49,74c0,0,31,32,73,58c0,0,42,25,93,50c0,0,-44,24,-80,53c0,0,-37,28,-63,63c0,0,-26,34,-40,75c0,0,-15,40,-15,89c0,0,-1,52,19,102c0,0,18,49,58,87c0,0,39,37,103,61c0,0,62,23,151,23c0,0,71,0,127,-19c0,0,55,-21,95,-55c0,0,38,-35,58,-83c0,0,20,-49,20,-106c0,0,0,-51,-15,-88c0,0,-15,-38,-41,-68c0,0,-27,-31,-65,-54c0,0,-39,-25,-85,-48c0,0,57,-28,104,-58c0,0,46,-30,80,-66c0,0,33,-37,52,-78c0,0,18,-41,18,-91c0,0,-1,-73,-26,-129c0,0,-26,-59,-74,-97C684,66,636,26,568,6c0,0,-66,-20,-147,-20Z" 
id="f0_1k"
transform="scale(0.001,-0.001)" />

<path d="M427,67c0,0,56,0,94,33c0,0,38,32,62,94c0,0,23,61,34,151c0,0,10,88,10,202c0,0,0,112,-10,202c0,0,-11,88,-34,150c0,0,-24,60,-61,93c0,0,-39,31,-93,31c0,0,-56,0,-94,-31c0,0,-40,-33,-63,-93c0,0,-24,-62,-34,-150c0,0,-10,-90,-10,-202c0,0,0,-114,10,-202c0,0,10,-90,34,-151c0,0,23,-62,62,-94c0,0,38,-33,93,-33Zm0,-81c0,0,-94,0,-161,39c0,0,-69,41,-112,115c0,0,-44,73,-64,178c0,0,-22,103,-21,230c0,0,-1,126,21,230c0,0,20,103,64,176c0,0,44,72,112,113c0,0,67,39,163,39c0,0,89,0,157,-39c0,0,65,-41,111,-113c0,0,45,-73,67,-176c0,0,21,-104,22,-231c0,0,-1,-127,-22,-230c0,0,-22,-104,-67,-177C697,140,652,66,585,25c0,0,-67,-39,-158,-39Z" 
id="f0_z"
transform="scale(0.001,-0.001)" />

<path d="M222,-9c-1,0,-2,0,-3,0c0,0,-1,0,-3,0c-6,0,-22,0,-35,5c0,0,-18,4,-30,16c0,0,-14,12,-21,32c0,0,-8,20,-8,49c0,0,0,30,8,50c0,0,7,19,21,32c0,0,12,11,30,17c0,0,17,5,38,5c0,0,18,0,37,-5c0,0,16,-6,30,-17c0,0,12,-13,21,-32c0,0,8,-20,8,-50c0,0,0,-29,-8,-49c0,0,-9,-20,-21,-32C286,12,272,0,256,-4c0,0,-17,-5,-34,-5Z" 
id="f0_18"
transform="scale(0.001,-0.001)" />

<path d="M78,0V112L333,407c0,0,61,70,103,126c0,0,40,56,66,106c0,0,25,49,37,97c0,0,11,47,11,100c0,0,0,43,-9,79c0,0,-11,35,-29,61c0,0,-19,25,-48,40c0,0,-31,13,-70,13c0,0,-53,0,-84,-18c0,0,-33,-20,-52,-50c0,0,-19,-31,-25,-73c0,0,-7,-41,-7,-86c0,0,-28,0,-51,4c0,0,-24,4,-42,17c0,0,-18,11,-28,30c0,0,-10,19,-10,48c0,0,0,43,19,82c0,0,19,37,57,65c0,0,36,28,93,43c0,0,56,15,130,15c0,0,72,0,130,-18c0,0,56,-19,97,-51c0,0,41,-34,62,-81c0,0,21,-47,21,-105c0,0,-1,-54,-17,-104c0,0,-18,-52,-50,-104c0,0,-33,-54,-80,-111c0,0,-48,-58,-108,-124L191,122H545c7,0,36,1,56,10c0,0,21,10,36,25c0,0,14,15,22,37c0,0,7,20,13,42l6,28h61V0Z" 
id="f0_v"
transform="scale(0.001,-0.001)" />

<path d="M433,-14c0,0,-77,0,-141,23c0,0,-64,23,-110,74c0,0,-46,50,-72,130c0,0,-26,79,-26,192c0,0,0,122,26,205c0,0,26,82,72,132c0,0,46,49,108,71c0,0,61,21,134,21c0,0,47,0,96,-9c0,0,47,-10,85,-29c0,0,38,-19,62,-49c0,0,23,-30,24,-69c0,0,0,-54,-35,-74c0,0,-35,-22,-102,-22c0,0,0,35,-6,68c0,0,-6,32,-20,56c0,0,-15,24,-39,38c0,0,-26,14,-65,14c0,0,-44,0,-79,-16c0,0,-35,-18,-61,-57c0,0,-26,-40,-39,-108c0,0,-13,-69,-13,-170c0,0,-1,-164,54,-243c0,0,54,-80,177,-80h1c6,0,72,1,123,30c0,0,52,30,79,77c0,0,11,-10,19,-24c0,0,7,-15,7,-36c0,0,0,-27,-16,-52c0,0,-17,-26,-49,-47C627,32,594,10,546,0c0,0,-48,-14,-113,-14Z" 
id="f0_6"
transform="scale(0.001,-0.001)" />

<path d="M348,79c0,0,46,0,85,15c0,0,36,14,64,42c0,0,25,27,40,66c0,0,14,39,14,87V412H454c0,0,-65,0,-109,-14c0,0,-44,-13,-70,-36c0,0,-27,-25,-39,-59c0,0,-12,-35,-11,-80c0,0,0,-73,30,-108c0,0,29,-36,93,-36ZM313,-14c0,0,-50,0,-94,14c0,0,-44,14,-75,45c0,0,-33,30,-50,77c0,0,-18,47,-18,109c0,0,0,123,87,182c0,0,85,59,261,60H551v93c0,0,0,42,-4,78c0,0,-5,34,-20,60c0,0,-15,26,-42,40c0,0,-28,14,-75,14c0,0,-44,0,-71,-12c0,0,-29,-13,-43,-35c0,0,-16,-23,-21,-53c0,0,-6,-31,-5,-66c0,0,-64,0,-96,21c0,0,-34,21,-34,75c0,0,0,39,22,67c0,0,21,28,60,45c0,0,36,17,87,26c0,0,49,7,107,8c0,0,69,0,122,-13c0,0,52,-15,87,-46c0,0,34,-31,53,-81c0,0,17,-52,17,-124V174c0,0,0,-33,5,-53c0,0,6,-22,17,-34c0,0,10,-12,30,-18c0,0,15,-5,38,-5c2,0,3,0,5,0h4V0H588L564,131H551c0,0,-24,-33,-46,-59c0,0,-22,-27,-49,-46C456,26,429,6,395,-3c0,0,-35,-11,-82,-11Z" 
id="f0_i"
transform="scale(0.001,-0.001)" />

<path d="M20,0V64H40c0,0,25,0,49,4c0,0,22,3,39,16c0,0,17,11,27,32c0,0,10,21,10,58V993c0,0,0,33,-10,54c0,0,-11,21,-27,32c0,0,-18,11,-40,15c0,0,-24,3,-48,3H20v64H309V174c0,0,-1,-37,10,-58c0,0,9,-21,26,-32c0,0,17,-13,41,-16c0,0,22,-4,48,-4h20V0Z" 
id="f0_f"
transform="scale(0.001,-0.001)" />

<path d="M58,0V64H78c0,0,25,0,49,4c0,0,22,3,39,16c0,0,17,11,27,32c0,0,10,21,10,58V923c0,0,0,33,-10,54c0,0,-11,20,-27,32c0,0,-18,11,-40,14c0,0,-24,3,-48,3H58v65H338L885,246V923c0,0,0,33,-10,54c0,0,-11,20,-28,32c0,0,-17,11,-39,14c0,0,-24,3,-49,3H739v65h384v-65h-20c0,0,-26,0,-48,-3c0,0,-24,-4,-40,-15c0,0,-18,-13,-27,-34c0,0,-11,-21,-10,-57V0H869L296,880V174c0,0,0,-37,11,-58c0,0,9,-21,26,-32c0,0,16,-13,40,-16c0,0,22,-4,48,-4h21V0Z" 
id="f0_1i"
transform="scale(0.001,-0.001)" />

<path d="M586,481c0,0,0,60,-9,111c0,0,-9,50,-29,85c0,0,-19,36,-51,56c0,0,-33,18,-79,19c0,0,-87,-1,-133,-69c0,0,-46,-69,-46,-202ZM439,-14c0,0,-83,0,-149,27c0,0,-66,28,-112,82c0,0,-46,53,-69,132c0,0,-25,77,-25,177c0,0,0,213,88,322c0,0,88,108,251,108c0,0,73,0,133,-23c0,0,58,-24,100,-69c0,0,41,-46,63,-114c0,0,21,-69,22,-159V399H233c0,0,0,-84,15,-143c0,0,15,-61,44,-99c0,0,28,-40,71,-57c0,0,40,-19,93,-19c1,0,2,0,4,0c0,0,38,0,73,9c0,0,33,9,62,24c0,0,26,14,48,34c0,0,21,18,35,40c0,0,10,-4,20,-19c0,0,9,-15,9,-33c0,0,0,-24,-16,-49c0,0,-17,-27,-50,-50C641,37,607,14,557,0c0,0,-50,-14,-118,-14Z" 
id="f0_7"
transform="scale(0.001,-0.001)" />

<path d="M351,-291c2,0,3,0,5,0c0,0,1,0,2,0c12,0,84,1,134,15c0,0,52,13,84,38c0,0,31,23,44,58c0,0,12,34,13,74c0,0,0,35,-10,59c0,0,-11,22,-30,35c0,0,-20,12,-49,17c0,0,-29,5,-67,5H327c0,0,-33,0,-62,-5c0,0,-31,-5,-54,-20c0,0,-24,-17,-38,-44c0,0,-15,-29,-14,-74c0,0,0,-34,9,-63c0,0,9,-29,31,-50c0,0,23,-22,61,-33c0,0,35,-12,91,-12Zm34,658c0,0,1,0,1,0c0,0,37,0,64,11c0,0,24,11,42,35c0,0,15,22,23,59c0,0,7,35,7,86c0,0,0,103,-31,152c0,0,-31,49,-106,49c0,0,-74,0,-105,-50c0,0,-33,-50,-32,-153c0,0,0,-98,32,-143c0,0,32,-46,105,-46ZM353,-366c-8,0,-162,1,-239,59c0,0,-80,59,-79,164c0,0,0,45,16,78c0,0,15,34,42,58c0,0,26,22,61,38c0,0,34,14,72,21c0,0,-16,7,-31,18c0,0,-14,11,-26,27c0,0,-13,16,-20,36c0,0,-8,20,-7,45c0,0,0,45,24,79c0,0,23,32,76,64c0,0,-33,13,-58,37c0,0,-27,23,-44,54c0,0,-18,30,-27,65c0,0,-10,36,-9,74c0,0,0,66,18,119c0,0,18,51,53,89c0,0,36,36,90,56c0,0,53,18,126,19c0,0,28,-1,54,-4c0,0,26,-4,50,-11c0,0,22,-8,41,-16c0,0,18,-9,29,-19c0,0,12,12,27,27c0,0,14,14,33,27c0,0,19,12,41,20c0,0,21,7,47,8c0,0,23,-1,40,-6c0,0,17,-7,28,-17c0,0,11,-11,17,-25c0,0,5,-15,5,-31c0,0,0,-17,-4,-31c0,0,-6,-15,-15,-25c0,0,-10,-12,-25,-17c0,0,-15,-7,-36,-7c0,0,0,9,-2,18c0,0,-3,9,-8,17c0,0,-6,7,-16,13c0,0,-10,4,-25,4c0,0,-19,0,-35,-4c0,0,-16,-5,-31,-14c0,0,26,-33,44,-76c0,0,16,-44,16,-109c0,0,-1,-57,-17,-105c0,0,-17,-48,-51,-82c0,0,-35,-36,-86,-56c0,0,-52,-19,-121,-19H348c0,0,-11,0,-21,1c0,0,-10,1,-15,3c0,0,-15,-9,-29,-17c0,0,-13,-9,-23,-20c0,0,-11,-11,-16,-25c0,0,-6,-15,-6,-32c0,0,-1,-19,7,-29c0,0,7,-12,20,-18c0,0,12,-7,30,-8c0,0,17,-2,38,-2H506c0,0,68,-1,116,-17c0,0,48,-17,78,-47c0,0,30,-32,44,-73c0,0,14,-41,14,-90c0,0,-1,-67,-24,-119c0,0,-25,-53,-75,-89c0,0,-50,-38,-126,-58c0,0,-77,-20,-180,-20Z" 
id="f0_j"
transform="scale(0.001,-0.001)" />

<path d="M367,-14c0,0,-59,0,-100,13c0,0,-42,10,-69,38c0,0,-27,27,-39,73c0,0,-14,45,-14,112V732H29v61c0,0,28,0,61,11c0,0,32,11,58,37c0,0,26,28,43,68c0,0,15,38,28,98h70V819H489V732H289V217c0,0,-1,-78,32,-115c0,0,30,-36,83,-36c0,0,1,0,1,0c0,0,2,0,6,0c9,0,28,0,45,3c0,0,23,3,47,7V9C503,9,492,4,477,0c0,0,-15,-3,-33,-6c0,0,-20,-5,-39,-6c0,0,-20,-2,-38,-2Z" 
id="f0_8"
transform="scale(0.001,-0.001)" />

<path d="M35,0V64H55c0,0,25,0,49,4c0,0,22,3,39,13c0,0,17,10,28,32c0,0,10,20,10,53V650c0,0,0,33,-10,55c0,0,-11,20,-28,31c0,0,-17,11,-39,15c0,0,-24,3,-49,4H51v64H324V174c0,0,0,-37,10,-58c0,0,10,-21,27,-32c0,0,16,-13,40,-16c0,0,22,-4,48,-4h20V0ZM249,972c-1,0,-2,0,-3,0c0,0,-1,0,-2,0c-5,0,-20,0,-32,5c0,0,-16,5,-28,16c0,0,-12,11,-18,29c0,0,-7,18,-7,45c0,0,0,27,7,45c0,0,6,17,18,29c0,0,12,11,28,15c0,0,15,5,34,5c0,0,18,0,34,-5c0,0,15,-4,27,-15c0,0,11,-12,19,-29c0,0,7,-18,7,-45c0,0,0,-27,-7,-45c0,0,-8,-18,-19,-29c0,0,-12,-11,-27,-16c0,0,-14,-5,-31,-5Z" 
id="f0_4"
transform="scale(0.001,-0.001)" />

<path d="M365,0L119,674c0,0,-9,23,-18,39c0,0,-11,15,-23,26c0,0,-12,8,-29,12c0,0,-17,3,-39,4H6v64H388V755H369c0,0,-47,0,-69,-18c0,0,-24,-18,-23,-56c0,0,-1,-13,3,-25c0,0,3,-14,9,-31L392,336c0,0,10,-26,21,-58c0,0,9,-33,20,-65c0,0,8,-31,16,-59c0,0,7,-29,11,-47h5c0,0,3,16,12,41c0,0,8,23,20,53c0,0,10,27,22,58c0,0,11,29,22,57L650,614c0,0,8,19,12,36c0,0,3,16,3,30c0,0,0,38,-25,57c0,0,-26,18,-76,18H553v64H880V755H862c0,0,-23,0,-38,-5c0,0,-17,-6,-29,-18c0,0,-12,-14,-24,-37c0,0,-12,-24,-26,-59L504,0Z" 
id="f0_14"
transform="scale(0.001,-0.001)" />

<path d="M321,-14c0,0,-58,0,-104,11c0,0,-48,7,-80,29c0,0,-33,20,-50,51c0,0,-18,30,-18,70c0,0,0,30,10,51c0,0,10,20,25,33c0,0,14,11,31,17c0,0,16,4,30,4c0,0,0,-41,8,-75c0,0,8,-36,28,-61c0,0,18,-28,51,-42c0,0,31,-16,78,-16c0,0,41,0,72,11c0,0,31,9,53,28c0,0,21,18,32,44c0,0,11,25,11,56c0,0,0,28,-8,49c0,0,-9,20,-30,38c0,0,-21,17,-58,37c0,0,-37,18,-92,42c0,0,-59,26,-102,51c0,0,-45,23,-72,52c0,0,-29,28,-43,65c0,0,-15,35,-14,86c0,0,-1,52,21,92c0,0,20,40,58,68c0,0,38,26,91,41c0,0,52,15,118,15c0,0,54,0,96,-12c0,0,41,-11,70,-30c0,0,28,-19,43,-44c0,0,14,-27,14,-55c0,0,-1,-42,-28,-66c0,0,-29,-25,-80,-25c-1,0,-2,0,-2,0c0,0,0,76,-32,119c0,0,-32,42,-100,42c0,0,-39,0,-66,-9c0,0,-28,-9,-45,-25c0,0,-18,-17,-26,-39c0,0,-8,-22,-8,-49c0,0,0,-29,10,-50c0,0,10,-22,34,-39c0,0,22,-18,59,-35c0,0,36,-17,86,-38c0,0,60,-26,104,-50c0,0,43,-24,72,-54c0,0,27,-29,41,-65c0,0,13,-37,13,-84c0,0,-1,-60,-21,-105c0,0,-23,-45,-62,-74C539,46,499,14,445,0c0,0,-56,-14,-124,-14Z" 
id="f0_c"
transform="scale(0.001,-0.001)" />

<path d="M43,0V64H55c0,0,26,0,49,4c0,0,23,3,40,16c0,0,16,11,27,32c0,0,10,21,10,58V650c0,0,0,33,-10,55c0,0,-11,20,-28,31c0,0,-17,11,-39,15c0,0,-24,3,-49,4H51v64H298L318,695h7c0,0,23,42,51,70c0,0,25,27,56,43c0,0,29,14,63,21c0,0,32,5,69,5c0,0,60,-1,108,-17c0,0,47,-18,81,-54c0,0,32,-37,50,-93c0,0,17,-58,18,-135V174c0,0,0,-37,9,-58c0,0,7,-21,23,-32c0,0,16,-13,38,-16c0,0,21,-4,47,-4h5V0H677V527c0,0,0,50,-9,89c0,0,-10,39,-29,66c0,0,-20,26,-52,41c0,0,-33,13,-78,13c0,0,-53,0,-88,-20c0,0,-36,-20,-57,-54c0,0,-22,-35,-31,-79c0,0,-10,-45,-9,-94V166c0,0,0,-33,10,-53c0,0,10,-22,27,-32c0,0,16,-10,40,-13c0,0,22,-4,48,-4h5V0Z" 
id="f0_5"
transform="scale(0.001,-0.001)" />

<path d="M421,83c0,0,59,0,100,20c0,0,39,19,65,60c0,0,23,39,34,101c0,0,10,61,10,144c0,0,0,79,-10,141c0,0,-11,61,-34,103c0,0,-25,41,-65,63c0,0,-41,21,-101,21c0,0,-51,0,-86,-21c0,0,-36,-23,-58,-64c0,0,-24,-42,-34,-103c0,0,-10,-62,-10,-141c0,0,0,-163,44,-244c0,0,43,-80,145,-80ZM395,-14c-8,0,-78,1,-133,24c0,0,-59,24,-98,77c0,0,-39,52,-60,132c0,0,-20,79,-20,189c0,0,0,110,20,191c0,0,21,80,60,133c0,0,39,51,98,77c0,0,58,25,133,25c0,0,44,0,80,-10c0,0,36,-10,65,-27c0,0,28,-18,51,-43c0,0,21,-24,39,-54h4c0,0,0,36,0,70c0,0,0,27,0,57c0,0,0,27,0,41V993c0,0,-1,33,-10,54c0,0,-11,21,-29,32c0,0,-18,11,-41,15c0,0,-24,3,-49,3H492v64H773V168c0,0,0,-34,10,-54c0,0,10,-21,27,-32c0,0,17,-11,40,-14c0,0,22,-4,48,-4h13V0H652L636,137h-6c0,0,-18,-35,-39,-62c0,0,-23,-29,-51,-48C540,27,512,6,476,-3c0,0,-36,-11,-81,-11Z" 
id="f0_e"
transform="scale(0.001,-0.001)" />

<path d="M28,0V64H40c0,0,25,0,49,4c0,0,22,3,39,16c0,0,17,11,27,32c0,0,10,21,10,58V993c0,0,0,33,-10,54c0,0,-11,21,-27,32c0,0,-18,11,-40,15c0,0,-24,3,-48,3H28v64H308V825c0,0,0,-22,0,-43c0,0,-1,-24,-4,-43c0,0,0,-23,0,-44h6c0,0,68,139,225,139c0,0,65,-1,115,-17c0,0,50,-18,85,-54c0,0,34,-37,52,-93c0,0,18,-58,18,-135V174c0,0,0,-37,9,-58c0,0,9,-21,24,-32c0,0,16,-13,38,-16c0,0,21,-4,47,-4h4V0H662V527c0,0,0,50,-9,89c0,0,-10,39,-29,66c0,0,-20,26,-52,41c0,0,-33,13,-78,13c0,0,-49,0,-82,-17c0,0,-35,-18,-58,-50c0,0,-24,-33,-34,-78c0,0,-11,-46,-11,-102V166c0,0,0,-33,10,-53c0,0,10,-22,27,-32c0,0,17,-10,40,-13c0,0,22,-4,48,-4h5V0Z" 
id="f0_9"
transform="scale(0.001,-0.001)" />

<path d="M51,0V64h4c0,0,26,0,49,4c0,0,23,3,40,16c0,0,16,11,27,32c0,0,10,21,10,58V650c0,0,0,33,-10,55c0,0,-11,20,-28,31c0,0,-17,11,-39,15c0,0,-24,3,-49,4H51v64H286L315,668h7c0,0,14,34,31,65c0,0,15,29,39,53c0,0,22,22,56,35c0,0,33,12,84,13c0,0,83,0,124,-29c0,0,41,-30,41,-82c0,0,0,-24,-8,-44c0,0,-9,-20,-25,-34c0,0,-17,-15,-44,-23c0,0,-27,-8,-66,-8c0,0,0,63,-18,92c0,0,-18,27,-62,27c0,0,-29,0,-51,-15c0,0,-22,-18,-39,-43c0,0,-17,-27,-28,-61c0,0,-13,-35,-19,-70c0,0,-8,-37,-10,-73c0,0,-4,-35,-3,-64V166c0,0,0,-33,10,-53c0,0,10,-22,27,-32c0,0,16,-10,40,-13c0,0,22,-4,48,-4h43V0Z" 
id="f0_b"
transform="scale(0.001,-0.001)" />

<path d="M58,-366v72h1c8,0,79,1,133,23c0,0,55,24,97,64c0,0,39,40,68,95c0,0,26,55,45,118L119,674c0,0,-10,23,-20,39c0,0,-10,14,-21,25c0,0,-13,9,-29,13c0,0,-17,3,-39,4H6v64H373V755h-4c0,0,-47,0,-69,-18c0,0,-24,-18,-23,-56c0,0,-1,-13,3,-25c0,0,2,-14,9,-31L401,353c0,0,9,-27,22,-57c0,0,11,-31,22,-61c0,0,9,-31,18,-57c0,0,7,-28,11,-47h4c0,0,8,34,23,82c0,0,14,48,34,103L637,614c0,0,7,19,11,36c0,0,2,16,2,30c0,0,0,38,-24,57c0,0,-26,18,-76,18h-5v64H863V755h-4c0,0,-23,0,-38,-5c0,0,-18,-6,-30,-18c0,0,-13,-14,-24,-37c0,0,-11,-24,-25,-59L510,-5c0,0,-27,-74,-50,-130c0,0,-25,-56,-50,-95c0,0,-27,-41,-57,-67c0,0,-32,-26,-71,-41c0,0,-40,-17,-91,-22c0,0,-51,-6,-119,-6Z" 
id="f0_a"
transform="scale(0.001,-0.001)" />

<path d="M41,0V64H61c0,0,26,0,49,4c0,0,23,3,40,16c0,0,16,11,27,32c0,0,9,21,9,58V747H47v72H186v76c0,0,0,68,19,121c0,0,19,52,54,88c0,0,34,35,85,55c0,0,50,17,113,17c0,0,58,0,100,-7c0,0,41,-8,67,-22c0,0,24,-15,35,-34c0,0,12,-20,12,-43c0,0,0,-22,-9,-37c0,0,-11,-17,-26,-27c0,0,-18,-11,-40,-16c0,0,-24,-6,-51,-6c0,0,0,23,-4,45c0,0,-6,21,-17,39c0,0,-12,17,-31,28c0,0,-19,10,-48,10c0,0,-34,0,-55,-12c0,0,-22,-13,-36,-38c0,0,-13,-26,-18,-62c0,0,-6,-37,-6,-85V819H545V747H330V174c0,0,0,-37,10,-58c0,0,10,-21,27,-32c0,0,16,-13,40,-16c0,0,22,-4,48,-4h58V0Z" 
id="f0_m"
transform="scale(0.001,-0.001)" />

<path d="M315,0L115,674c0,0,-9,23,-19,39c0,0,-10,15,-22,26c0,0,-13,8,-29,12c0,0,-17,3,-39,4H1v64H379V755H359c0,0,-46,0,-69,-13c0,0,-24,-15,-23,-51c0,0,0,-13,5,-31c0,0,3,-18,8,-35L351,369c0,0,8,-29,16,-61c0,0,7,-33,16,-65c0,0,6,-33,12,-61c0,0,6,-29,10,-48h5c0,0,3,19,10,46c0,0,5,24,15,55c0,0,7,29,18,60c0,0,9,30,19,58L631,815h96L880,362c0,0,9,-29,20,-59c0,0,9,-33,18,-63c0,0,9,-31,17,-59c0,0,7,-28,11,-47h4c0,0,7,38,22,94c0,0,14,55,38,129l76,247c0,0,5,18,11,41c0,0,3,21,3,35c0,0,0,38,-24,57c0,0,-26,18,-77,18H988v64h327V755h-19c0,0,-23,0,-39,-5c0,0,-17,-5,-29,-17c0,0,-14,-13,-25,-36c0,0,-11,-24,-22,-61L984,0H862L680,538L652,639L436,0Z" 
id="f0_19"
transform="scale(0.001,-0.001)" />

<path d="M64,0V61L507,732H269c0,0,-31,0,-50,-8c0,0,-19,-8,-31,-24c0,0,-13,-15,-20,-38c0,0,-9,-24,-17,-54l-1,-6H93V819H686V756L242,87H519c0,0,27,0,45,11c0,0,16,9,29,27c0,0,11,17,19,41c0,0,6,22,12,47l7,35h61V0Z" 
id="f0_1p"
transform="scale(0.001,-0.001)" />

<path d="M252,0L659,924H257c0,0,-42,0,-63,-19c0,0,-22,-20,-26,-58l-9,-77H71v321H803v-75L382,0Z" 
id="f2_r"
transform="scale(0.001,-0.001)" />

<path d="M232,-11c0,0,-26,0,-49,7c0,0,-24,4,-40,19c0,0,-17,13,-27,37c0,0,-10,23,-9,58c0,0,-1,34,9,59c0,0,10,22,27,37c0,0,16,14,40,20c0,0,23,5,49,6c0,0,25,-1,48,-6c0,0,23,-6,40,-20c0,0,16,-15,28,-37c0,0,9,-25,9,-59c0,0,0,-35,-9,-58c0,0,-12,-24,-28,-37C320,15,303,0,280,-4c0,0,-23,-7,-48,-7Z" 
id="f2_n"
transform="scale(0.001,-0.001)" />

<path d="M235,0V81h64c0,0,17,0,31,4c0,0,15,3,25,13c0,0,10,10,16,30c0,0,6,19,6,53V997H255c0,0,-35,0,-57,-7c0,0,-24,-8,-38,-21c0,0,-15,-15,-21,-34c0,0,-8,-20,-11,-46L118,794H19v297H979V794H880l-11,95c0,0,-4,26,-10,46c0,0,-8,19,-21,34c0,0,-15,13,-38,21c0,0,-24,7,-58,7H620V181c0,0,0,-34,6,-53c0,0,5,-20,17,-30c0,0,10,-10,25,-13c0,0,13,-4,30,-4h64V0Z" 
id="f2_y"
transform="scale(0.001,-0.001)" />

<path d="M304,0L108,657c0,0,-8,23,-18,40c0,0,-10,15,-22,24c0,0,-13,9,-29,13c0,0,-17,3,-39,4H-3v81H443V738H423c0,0,-46,-1,-69,-13c0,0,-24,-13,-23,-51c0,0,0,-13,5,-31c0,0,3,-19,8,-35L401,410c0,0,7,-29,14,-57c0,0,6,-29,12,-57c0,0,6,-28,12,-52c0,0,3,-25,7,-44h5c0,0,6,37,18,79c0,0,11,40,31,97L656,811h99L904,360c0,0,19,-55,27,-93c0,0,7,-39,13,-67h5c0,0,3,19,7,36c0,0,3,17,9,36c0,0,4,19,10,41c0,0,5,21,15,50l67,223c0,0,5,19,11,42c0,0,2,22,3,35c0,0,0,39,-24,57c0,0,-26,18,-77,18H959v81h350V738h-19c0,0,-23,0,-39,-5c0,0,-17,-5,-29,-17c0,0,-13,-13,-24,-36c0,0,-11,-25,-23,-62L978,0H813L646,507L471,0Z" 
id="f2_c"
transform="scale(0.001,-0.001)" />

<path d="M469,81c0,0,43,0,75,22c0,0,30,21,49,63c0,0,19,41,27,103c0,0,7,61,8,144c0,0,-1,81,-8,144c0,0,-9,60,-28,102c0,0,-20,40,-50,62c0,0,-31,20,-74,20c0,0,-45,0,-75,-20c0,0,-30,-22,-49,-62c0,0,-19,-42,-27,-102c0,0,-8,-63,-8,-144c0,0,0,-83,9,-144c0,0,7,-62,27,-103c0,0,19,-42,50,-63c0,0,29,-22,74,-22Zm-1,-95c0,0,-1,0,-2,0c0,0,-92,0,-165,26c0,0,-73,25,-123,79c0,0,-52,52,-79,134c0,0,-28,80,-27,188c0,0,-1,215,101,320c0,0,101,105,298,105c0,0,91,0,165,-26c0,0,72,-26,123,-79c0,0,50,-53,79,-132c0,0,27,-81,27,-188c0,0,0,-217,-101,-322C764,91,662,-14,468,-14Z" 
id="f2_b"
transform="scale(0.001,-0.001)" />

<path d="M448,99c0,0,45,0,76,20c0,0,29,18,48,57c0,0,17,38,26,98c0,0,7,57,7,137c0,0,0,75,-7,134c0,0,-9,59,-26,99c0,0,-19,39,-48,60c0,0,-31,20,-76,20c0,0,-38,0,-65,-20c0,0,-29,-21,-44,-61c0,0,-17,-40,-25,-98c0,0,-8,-60,-8,-135c0,0,0,-156,33,-233c0,0,31,-78,109,-78ZM386,-14c-1,0,-3,0,-4,0h-1c-7,0,-77,1,-132,24c0,0,-59,24,-98,77c0,0,-40,52,-60,132c0,0,-22,79,-21,189c0,0,-1,110,21,192c0,0,20,80,60,133c0,0,38,53,97,79c0,0,56,25,131,25c0,0,43,0,78,-9c0,0,35,-10,63,-25c0,0,28,-17,49,-39c0,0,21,-22,37,-49h9c0,0,0,42,-6,79c0,0,0,15,0,33c0,0,0,16,-2,31c0,0,-2,14,-2,25c0,0,0,11,0,18v84c0,0,0,32,-10,51c0,0,-10,18,-27,29c0,0,-17,8,-39,12c0,0,-22,3,-48,3H469v81H837V188c0,0,0,-35,10,-56c0,0,10,-22,29,-32c0,0,16,-12,40,-15c0,0,22,-4,48,-4h6V0H674L631,119H617c0,0,-18,-31,-39,-56c0,0,-23,-25,-51,-41C527,22,498,4,463,-4c0,0,-34,-10,-77,-10Z" 
id="f2_a"
transform="scale(0.001,-0.001)" />

<path d="M26,0V81H44c0,0,16,0,37,4c0,0,17,3,35,13c0,0,15,10,26,30c0,0,10,19,11,53V645c0,0,-1,29,-11,49c0,0,-11,18,-27,28c0,0,-17,9,-35,13c0,0,-20,3,-36,3H26v81H385V181c0,0,0,-34,11,-53c0,0,10,-20,27,-30c0,0,16,-10,35,-13c0,0,19,-4,36,-4h18V0ZM261,956c0,0,-28,0,-51,7c0,0,-24,7,-41,20c0,0,-18,13,-27,35c0,0,-11,20,-11,49c0,0,0,28,11,50c0,0,9,21,27,34c0,0,17,12,41,19c0,0,23,6,51,6c0,0,25,0,50,-6c0,0,23,-7,42,-19c0,0,18,-13,29,-34c0,0,10,-22,10,-50c0,0,0,-29,-10,-49c0,0,-11,-22,-29,-35c0,0,-19,-13,-42,-20c0,0,-25,-7,-50,-7Z" 
id="f2_7"
transform="scale(0.001,-0.001)" />

<path d="M29,0V81H63c0,0,16,0,35,4c0,0,18,3,36,13c0,0,15,10,26,30c0,0,10,19,11,53V715H35V819H171v57c0,0,-1,70,18,127c0,0,18,54,57,94c0,0,37,38,97,58c0,0,59,20,140,20c0,0,74,-1,123,-8c0,0,49,-10,78,-24c0,0,29,-16,42,-36c0,0,12,-21,12,-44c0,0,-1,-52,-46,-75c0,0,-47,-24,-142,-24c0,0,-1,18,-4,40c0,0,-4,21,-13,40c0,0,-9,19,-23,32c0,0,-15,12,-36,12c0,0,-20,0,-32,-10c0,0,-15,-11,-22,-32c0,0,-10,-23,-13,-58c0,0,-3,-35,-3,-85V819H614V715H404V181c0,0,0,-34,11,-53c0,0,9,-20,27,-30c0,0,15,-10,35,-13c0,0,18,-4,35,-4h71V0Z" 
id="f2_e"
transform="scale(0.001,-0.001)" />

<path d="M574,490c0,0,0,58,-6,105c0,0,-8,45,-22,78c0,0,-15,32,-37,49c0,0,-24,17,-56,17c0,0,-65,0,-103,-63c0,0,-38,-64,-38,-186ZM468,-14c0,0,-98,0,-171,27c0,0,-75,28,-125,82c0,0,-50,54,-75,133c0,0,-26,76,-25,177c0,0,-1,107,25,189c0,0,25,80,74,136c0,0,48,53,119,82c0,0,70,26,161,26c0,0,82,0,149,-23c0,0,65,-24,112,-70c0,0,46,-47,71,-115c0,0,25,-69,25,-159V392H308c0,0,0,-77,15,-132c0,0,14,-55,40,-91c0,0,26,-36,63,-53c0,0,37,-17,85,-17c0,0,1,0,2,0c8,0,41,1,71,10c0,0,34,9,61,26c0,0,28,16,48,40c0,0,21,22,34,48c0,0,41,-22,41,-75c0,0,0,-32,-18,-61c0,0,-18,-31,-55,-53C695,34,658,12,602,0c0,0,-57,-14,-134,-14Z" 
id="f2_5"
transform="scale(0.001,-0.001)" />

<path d="M31,0V81h4c0,0,25,0,48,4c0,0,21,3,37,16c0,0,16,11,25,33c0,0,7,20,8,57V634c0,0,0,33,-8,55c0,0,-8,20,-22,31c0,0,-15,11,-35,15c0,0,-20,3,-45,3H38v81H347L377,700h8c0,0,14,34,33,60c0,0,17,26,43,43c0,0,24,16,59,26c0,0,34,7,81,8c0,0,90,0,132,-31c0,0,43,-33,43,-93c0,0,-1,-71,-51,-109c0,0,-50,-39,-141,-39c0,0,-1,0,-2,0c0,0,-1,32,-4,56c0,0,-4,23,-12,39c0,0,-9,16,-23,24c0,0,-15,8,-36,8c0,0,-28,0,-47,-13c0,0,-20,-14,-33,-34c0,0,-14,-22,-22,-49c0,0,-9,-27,-13,-54c0,0,-6,-28,-6,-52c0,0,0,-25,0,-42V184c0,0,0,-34,9,-54c0,0,7,-22,22,-32c0,0,13,-10,34,-13c0,0,18,-4,41,-4h49V0Z" 
id="f2_6"
transform="scale(0.001,-0.001)" />

<path d="M31,0V81h3c0,0,25,0,47,4c0,0,21,3,38,14c0,0,16,11,25,32c0,0,9,20,9,55V639c0,0,0,32,-8,51c0,0,-8,19,-22,31c0,0,-15,9,-35,14c0,0,-20,3,-45,3H38v81H359L379,710h7c0,0,24,43,50,69c0,0,25,25,54,39c0,0,29,13,62,17c0,0,32,3,68,3c0,0,59,0,106,-17c0,0,47,-17,80,-53c0,0,32,-36,49,-91c0,0,16,-56,17,-133V189c0,0,0,-35,7,-56c0,0,5,-22,18,-33c0,0,12,-12,33,-15c0,0,18,-4,45,-4h4V0H640V503c0,0,-1,48,-6,88c0,0,-7,38,-21,64c0,0,-15,25,-38,40c0,0,-24,14,-57,14c0,0,-38,-1,-64,-20c0,0,-26,-19,-40,-51c0,0,-16,-33,-22,-76c0,0,-7,-44,-7,-90V181c0,0,0,-33,8,-52c0,0,7,-20,22,-30c0,0,13,-11,35,-14c0,0,19,-4,45,-4h5V0Z" 
id="f2_d"
transform="scale(0.001,-0.001)" />

<path d="M371,-14c0,0,-52,0,-93,13c0,0,-42,11,-71,40c0,0,-29,27,-44,74c0,0,-16,46,-16,113V715H32v78c0,0,49,0,88,19c0,0,38,19,62,45c0,0,46,49,70,152H379V819H574V715H379V242c0,0,0,-70,24,-102c0,0,22,-32,75,-32c0,0,1,0,2,0c0,0,29,0,57,5c0,0,27,3,51,9V23c0,0,-13,-6,-32,-13C556,10,534,4,508,0c0,0,-28,-7,-62,-10c0,0,-35,-4,-75,-4Z" 
id="f2_4"
transform="scale(0.001,-0.001)" />

<path d="M392,96c0,0,32,0,60,14c0,0,25,13,46,38c0,0,18,26,29,62c0,0,9,35,9,79V403H468c0,0,-47,-1,-77,-13c0,0,-31,-13,-50,-34c0,0,-19,-22,-27,-53c0,0,-8,-33,-8,-74c0,0,-1,-67,21,-100c0,0,21,-33,65,-33ZM314,-14c-2,0,-3,0,-5,0c0,0,-51,0,-94,14c0,0,-44,15,-76,46c0,0,-33,32,-52,79c0,0,-19,47,-18,111c0,0,-1,125,85,185c0,0,85,61,257,61H536v86c0,0,0,38,-3,71c0,0,-3,32,-12,57c0,0,-11,23,-29,37c0,0,-19,11,-50,12c0,0,-30,0,-49,-12c0,0,-20,-13,-32,-34c0,0,-13,-22,-16,-52c0,0,-6,-31,-6,-67h-1c-11,0,-105,1,-153,24c0,0,-53,23,-52,79c0,0,-1,41,25,71c0,0,24,29,68,49c0,0,43,18,100,27c0,0,57,8,122,8c0,0,80,0,141,-13c0,0,59,-15,100,-45c0,0,38,-30,59,-80c0,0,20,-50,20,-121V189c0,0,0,-31,6,-52c0,0,4,-21,15,-33c0,0,9,-12,28,-17c0,0,15,-6,39,-6c1,0,3,0,4,0h6V0H582L550,105H536c0,0,-26,-30,-47,-53c0,0,-23,-24,-48,-38C441,14,415,0,384,-6c0,0,-30,-8,-70,-8Z" 
id="f2_3"
transform="scale(0.001,-0.001)" />

<path d="M540,99c1,0,2,0,2,0c3,0,76,1,109,82c0,0,34,81,34,233c0,0,0,155,-34,234c0,0,-33,76,-110,76c0,0,-46,0,-76,-18c0,0,-30,-20,-47,-58c0,0,-18,-40,-26,-97c0,0,-8,-60,-7,-138c0,0,-1,-76,7,-134c0,0,8,-60,26,-98c0,0,18,-41,48,-61c0,0,29,-21,74,-21ZM610,-14c-1,0,-2,0,-4,0h-1c-9,0,-47,1,-78,10c0,0,-37,8,-64,26c0,0,-30,18,-51,43c0,0,-23,24,-39,54H359L316,0H26V81H37c0,0,20,0,42,4c0,0,20,3,37,15c0,0,17,10,27,32c0,0,10,21,10,56V978c0,0,0,32,-10,53c0,0,-10,19,-26,31c0,0,-17,11,-38,14c0,0,-22,3,-47,4H26v81H383V900c0,0,0,-24,0,-56c0,0,0,-33,-3,-61c0,0,-4,-34,-7,-68h10c0,0,33,56,88,89c0,0,55,32,141,33c0,0,75,0,132,-25c0,0,57,-26,97,-76c0,0,39,-53,59,-132c0,0,20,-81,20,-191c0,0,0,-112,-20,-192c0,0,-22,-81,-61,-133c0,0,-39,-53,-97,-78c0,0,-59,-24,-132,-24Z" 
id="f2_13"
transform="scale(0.001,-0.001)" />

<path d="M451,-14c0,0,-85,0,-154,21c0,0,-71,21,-120,71c0,0,-51,50,-78,131c0,0,-28,80,-27,198c0,0,0,123,29,206c0,0,27,82,79,133c0,0,50,50,118,72c0,0,68,20,148,20c0,0,73,0,131,-11c0,0,56,-14,94,-35c0,0,38,-21,59,-50c0,0,18,-31,19,-64c0,0,-1,-25,-8,-48c0,0,-10,-24,-31,-41c0,0,-22,-18,-60,-30c0,0,-40,-11,-99,-11c0,0,0,39,-4,76c0,0,-6,35,-17,62c0,0,-11,26,-29,44c0,0,-20,15,-49,15c0,0,-34,0,-60,-15c0,0,-26,-18,-45,-56c0,0,-20,-39,-29,-103c0,0,-11,-66,-11,-163c0,0,0,-156,43,-232c0,0,42,-77,137,-77q1,0,2,0h1c8,0,42,1,73,10c0,0,35,9,63,26c0,0,27,16,50,40c0,0,21,22,34,48c0,0,19,-11,28,-30c0,0,9,-19,9,-40c0,0,-1,-29,-17,-59c0,0,-18,-31,-53,-54C677,40,639,15,584,1c0,0,-57,-15,-133,-15Z" 
id="f2_o"
transform="scale(0.001,-0.001)" />

<path d="M535,95c0,0,77,0,110,77c0,0,32,77,33,233c0,0,-1,152,-33,234c0,0,-34,81,-109,81c0,0,-46,0,-76,-20c0,0,-30,-22,-48,-61c0,0,-18,-40,-26,-98c0,0,-8,-60,-7,-134c0,0,-1,-80,7,-138c0,0,8,-59,26,-97c0,0,17,-40,48,-58c0,0,29,-19,75,-19ZM20,-366v81H38c0,0,16,0,37,4c0,0,18,3,35,13c0,0,15,10,27,30c0,0,9,19,10,53V631c0,0,0,34,-7,56c0,0,-9,21,-22,32c0,0,-15,11,-33,15c0,0,-20,3,-41,4H34v81H333L360,700h7c0,0,16,30,39,54c0,0,21,25,51,43c0,0,27,17,64,27c0,0,36,10,80,10c0,0,75,0,135,-25c0,0,58,-26,97,-77c0,0,39,-53,61,-134c0,0,20,-81,20,-191c0,0,0,-112,-20,-191c0,0,-20,-80,-59,-132C835,84,795,31,739,7c0,0,-56,-25,-129,-25c-1,0,-2,0,-4,0c0,0,-87,0,-141,33c0,0,-55,32,-88,89H367c0,0,3,-35,7,-69c0,0,3,-28,3,-59c0,0,0,-33,0,-56V-185c0,0,0,-34,11,-53c0,0,11,-20,27,-30c0,0,16,-10,36,-13c0,0,18,-4,35,-4h35v-81Z" 
id="f2_t"
transform="scale(0.001,-0.001)" />

<path d="M31,0V81h3c0,0,25,0,47,4c0,0,21,3,38,14c0,0,16,11,25,32c0,0,9,20,9,55V987c0,0,-1,30,-11,49c0,0,-11,18,-27,29c0,0,-17,8,-35,12c0,0,-20,3,-36,3H26v81H383V909c0,0,0,-30,0,-64c0,0,0,-35,-3,-63c0,0,-4,-35,-7,-67h13c0,0,24,43,50,68c0,0,25,24,54,37c0,0,29,12,62,16c0,0,32,2,68,2c0,0,59,0,106,-17c0,0,47,-17,80,-53c0,0,32,-36,49,-91c0,0,16,-56,17,-133V189c0,0,0,-35,7,-56c0,0,5,-22,18,-33c0,0,12,-12,33,-15c0,0,18,-4,45,-4h4V0H640V503c0,0,-1,48,-6,88c0,0,-7,38,-21,64c0,0,-15,25,-38,40c0,0,-24,14,-57,14c0,0,-38,-1,-64,-20c0,0,-26,-19,-40,-51c0,0,-16,-33,-22,-76c0,0,-7,-44,-7,-90V181c0,0,0,-33,8,-52c0,0,7,-20,22,-30c0,0,13,-11,35,-14c0,0,19,-4,45,-4h5V0Z" 
id="f2_u"
transform="scale(0.001,-0.001)" />

<path d="M357,-14c-1,0,-3,0,-4,0c0,0,-83,0,-141,14c0,0,-60,12,-96,36c0,0,-37,23,-53,57c0,0,-17,32,-17,70c0,0,0,37,14,61c0,0,15,22,37,35c0,0,21,12,46,17c0,0,25,3,45,4c0,0,-1,-49,12,-86c0,0,12,-39,33,-64c0,0,21,-27,53,-41c0,0,28,-14,64,-14c1,0,2,0,3,0c0,0,39,0,68,8c0,0,28,7,47,23c0,0,18,14,27,34c0,0,9,17,9,39c0,0,0,25,-9,46c0,0,-10,18,-31,37c0,0,-22,16,-57,34c0,0,-38,16,-91,35c0,0,-62,21,-109,46c0,0,-48,24,-79,56c0,0,-33,30,-50,71c0,0,-17,38,-17,91c0,0,0,60,24,106c0,0,22,46,66,76c0,0,44,30,104,45c0,0,61,14,134,15c0,0,73,0,123,-12c0,0,50,-13,83,-33c0,0,32,-20,47,-45c0,0,14,-26,15,-52c0,0,0,-51,-36,-78c0,0,-37,-27,-120,-27c0,0,0,76,-33,119c0,0,-35,41,-101,41c0,0,-25,0,-47,-6c0,0,-24,-5,-40,-17c0,0,-17,-13,-26,-30c0,0,-11,-18,-11,-41c0,0,-1,-26,10,-44c0,0,9,-20,33,-37c0,0,23,-18,63,-36c0,0,40,-18,103,-39c0,0,50,-18,94,-40c0,0,43,-24,74,-53c0,0,30,-30,48,-67c0,0,16,-39,17,-86c0,0,-1,-65,-22,-114c0,0,-22,-50,-65,-84C598,56,555,21,494,4c0,0,-60,-18,-137,-18Z" 
id="f2_s"
transform="scale(0.001,-0.001)" />

<path d="M31,0V81h3c0,0,25,0,47,4c0,0,21,3,38,14c0,0,16,11,25,32c0,0,9,20,9,55V643c0,0,0,32,-8,52c0,0,-8,18,-22,30c0,0,-15,10,-35,14c0,0,-20,3,-45,3H38v77H359L379,710h7c0,0,24,43,50,69c0,0,25,25,54,39c0,0,29,13,62,17c0,0,32,3,68,3c0,0,83,0,144,-29c0,0,59,-31,87,-99h14c0,0,22,43,50,69c0,0,27,25,59,39c0,0,29,13,64,17c0,0,34,3,70,3c0,0,59,0,106,-17c0,0,47,-17,80,-53c0,0,32,-36,49,-91c0,0,16,-56,17,-133V189c0,0,0,-35,7,-56c0,0,5,-22,18,-33c0,0,12,-12,32,-15c0,0,19,-4,45,-4h5V0H1127V503c0,0,0,98,-27,152c0,0,-28,54,-94,54c0,0,-36,-1,-62,-17c0,0,-26,-18,-41,-48c0,0,-17,-31,-23,-70c0,0,-9,-41,-8,-84V189c0,0,0,-35,7,-56c0,0,5,-22,18,-33c0,0,12,-12,33,-15c0,0,18,-4,45,-4h4V0H640V503c0,0,-1,48,-6,88c0,0,-7,38,-21,64c0,0,-15,25,-38,40c0,0,-24,14,-57,14c0,0,-38,-1,-64,-20c0,0,-26,-19,-40,-51c0,0,-16,-33,-22,-76c0,0,-7,-44,-7,-90V181c0,0,0,-33,8,-52c0,0,7,-20,22,-30c0,0,13,-11,35,-14c0,0,19,-4,45,-4h5V0Z" 
id="f2_f"
transform="scale(0.001,-0.001)" />

<path d="M364,-274c9,0,135,0,195,39c0,0,61,38,61,114c0,0,-1,47,-31,68c0,0,-31,18,-92,19H319c0,0,-24,-1,-47,-4c0,0,-24,-5,-43,-17c0,0,-21,-13,-33,-35c0,0,-12,-24,-12,-60c0,0,0,-65,46,-94c0,0,45,-30,133,-30h1Zm28,653c0,0,30,0,51,13c0,0,20,12,32,35c0,0,11,24,17,57c0,0,5,32,5,74c0,0,0,43,-5,78c0,0,-6,34,-18,59c0,0,-12,23,-32,38c0,0,-21,14,-51,14c0,0,-31,0,-50,-14c0,0,-20,-15,-32,-40c0,0,-13,-26,-18,-60c0,0,-6,-36,-5,-77c0,0,0,-41,6,-73c0,0,5,-32,18,-56c0,0,12,-23,32,-35c0,0,20,-13,50,-13ZM366,-366c-2,0,-4,0,-6,0c-9,0,-183,1,-268,54c0,0,-89,54,-89,159c0,0,0,81,53,126c0,0,52,42,154,50c0,0,-22,8,-41,20c0,0,-21,12,-36,29c0,0,-16,17,-26,38c0,0,-10,21,-9,49c0,0,0,25,10,47c0,0,10,21,28,42c0,0,17,18,43,37c0,0,24,16,54,34c0,0,-34,12,-61,34c0,0,-30,20,-50,51c0,0,-21,29,-32,67c0,0,-13,39,-12,85c0,0,0,133,78,209c0,0,77,73,241,73c0,0,54,0,101,-13c0,0,46,-15,81,-34c0,0,12,14,28,30c0,0,14,14,35,27c0,0,18,12,43,21c0,0,23,8,53,8c0,0,27,0,48,-6c0,0,20,-9,35,-20c0,0,12,-13,20,-27c0,0,7,-16,7,-34c0,0,0,-17,-5,-33c0,0,-6,-17,-17,-28c0,0,-13,-13,-34,-19c0,0,-20,-7,-49,-7c-1,0,-2,0,-4,0c0,0,0,15,-4,27c0,0,-6,12,-14,20c0,0,-9,8,-18,13c0,0,-11,3,-22,4c0,0,-13,0,-27,-5c0,0,-15,-6,-23,-12c0,0,16,-17,29,-38c0,0,14,-23,24,-48c0,0,10,-25,16,-52c0,0,5,-27,6,-56c0,0,0,-58,-18,-106c0,0,-20,-49,-57,-84c0,0,-38,-36,-96,-56c0,0,-59,-21,-138,-21H351c0,0,-13,0,-24,2c0,0,-13,1,-18,2c0,0,-11,-6,-20,-13c0,0,-10,-8,-17,-17c0,0,-9,-11,-13,-22c0,0,-6,-13,-5,-25c0,0,0,-27,20,-38c0,0,17,-12,48,-12c1,0,2,0,3,0H510c0,0,76,0,132,-15c0,0,54,-17,91,-47c0,0,36,-30,53,-73c0,0,17,-43,17,-97c0,0,0,-72,-26,-126c0,0,-27,-56,-82,-94c0,0,-55,-40,-138,-59c0,0,-81,-21,-191,-21Z" 
id="f2_l"
transform="scale(0.001,-0.001)" />

<path d="M26,0V81H44c0,0,16,0,37,4c0,0,17,3,35,13c0,0,15,10,26,30c0,0,10,19,11,53V987c0,0,-1,30,-11,49c0,0,-11,18,-27,29c0,0,-17,8,-35,12c0,0,-20,3,-36,3H26v81H385V181c0,0,0,-34,11,-53c0,0,10,-20,27,-30c0,0,16,-10,35,-13c0,0,19,-4,36,-4h18V0Z" 
id="f2_8"
transform="scale(0.001,-0.001)" />

<path d="M148,0V81H274c0,0,1,0,2,0c5,0,19,1,31,6c0,0,14,4,24,15c0,0,10,11,14,31c0,0,5,18,5,48V946c0,0,-29,-36,-55,-65c0,0,-26,-29,-50,-50c0,0,-23,-22,-46,-32c0,0,-22,-12,-44,-12q-1,0,-2,0c0,0,-19,0,-34,8c0,0,-18,8,-29,23c0,0,-12,14,-18,35c0,0,-9,21,-8,47c0,0,23,5,49,15c0,0,25,7,54,22c0,0,28,13,61,34c0,0,32,18,71,47l108,79H577V181c0,0,0,-24,4,-43c0,0,3,-19,12,-31c0,0,8,-14,24,-19c0,0,14,-7,39,-7H779V0Z" 
id="f2_p"
transform="scale(0.001,-0.001)" />

<path d="M54,0V157L280,388c0,0,70,72,116,130c0,0,46,59,72,112c0,0,25,52,36,105c0,0,10,51,11,110c0,0,0,87,-32,128c0,0,-32,40,-88,40c0,0,-77,-1,-109,-66c0,0,-31,-67,-31,-198c0,0,-44,0,-79,8c0,0,-37,8,-62,26c0,0,-26,18,-40,47c0,0,-15,28,-14,70c0,0,0,41,21,79c0,0,21,36,63,65c0,0,41,28,105,46c0,0,62,16,146,16c0,0,85,0,152,-17c0,0,65,-19,109,-51c0,0,44,-32,67,-79c0,0,22,-47,22,-106c0,0,0,-36,-7,-70c0,0,-8,-33,-26,-69c0,0,-20,-37,-49,-75c0,0,-30,-41,-74,-88c0,0,-44,-49,-102,-107c0,0,-60,-58,-136,-131L198,168H555c4,0,48,1,80,27c0,0,32,27,46,79l13,47h86V0Z" 
id="f2_x"
transform="scale(0.001,-0.001)" />

<path d="M465,506c8,0,58,0,94,14c0,0,39,14,65,45c0,0,24,30,37,79c0,0,11,48,11,117c0,0,0,60,-10,107c0,0,-11,44,-32,74c0,0,-23,29,-57,44c0,0,-36,14,-87,14H426V506h37c0,0,1,0,2,0ZM43,0V81h64c0,0,16,0,31,4c0,0,14,3,25,13c0,0,9,10,16,30c0,0,5,19,6,53V917c0,0,-1,30,-6,49c0,0,-7,17,-16,28c0,0,-12,9,-26,13c0,0,-15,3,-30,3H43v81H512c0,0,106,0,184,-23c0,0,78,-23,131,-64c0,0,50,-43,76,-102c0,0,26,-61,26,-135c0,0,-1,-69,-24,-132c0,0,-24,-64,-78,-112c0,0,-53,-49,-139,-77c0,0,-87,-29,-210,-29H426V172c0,0,0,-30,7,-47c0,0,6,-20,18,-28c0,0,11,-10,26,-13c0,0,11,-3,26,-3c1,0,3,0,4,0h94V0Z" 
id="f2_10"
transform="scale(0.001,-0.001)" />

<path d="M38,336V497H436V336Z" 
id="f2_18"
transform="scale(0.001,-0.001)" />

<path d="M455,0L130,936c0,0,-8,21,-19,37c0,0,-13,14,-24,22c0,0,-14,8,-27,12c0,0,-14,3,-25,3H0v81H504v-81H434c0,0,-12,0,-21,-2c0,0,-12,-4,-19,-9c0,0,-9,-6,-14,-16c0,0,-6,-10,-6,-24c0,0,0,-15,5,-33c0,0,4,-20,9,-32L544,423c0,0,5,-17,13,-40c0,0,5,-24,11,-49c0,0,6,-26,12,-50c0,0,4,-26,6,-46c0,0,3,12,9,35c0,0,4,21,12,48c0,0,8,25,16,51c0,0,7,25,14,47L794,883c0,0,3,8,7,19c0,0,2,10,6,20c0,0,2,10,5,20c0,0,0,10,1,16c0,0,0,25,-16,39c0,0,-17,13,-45,13H672v81h395v-81H993c0,0,-11,0,-19,-4c0,0,-9,-5,-16,-17c0,0,-8,-13,-17,-34c0,0,-9,-23,-21,-57L608,0Z" 
id="f2_19"
transform="scale(0.001,-0.001)" />

<path d="M43,0V81h64c0,0,15,0,30,4c0,0,14,3,26,13c0,0,9,10,16,30c0,0,5,19,6,53V916c0,0,-1,30,-6,49c0,0,-7,17,-17,28c0,0,-11,10,-25,13c0,0,-15,3,-30,3H43v82H570v-82H504c0,0,-17,0,-30,-3c0,0,-15,-4,-25,-14c0,0,-11,-11,-16,-30c0,0,-7,-20,-7,-52V615H825V910c0,0,-1,32,-6,52c0,0,-7,19,-16,30c0,0,-12,10,-26,14c0,0,-15,3,-30,3H681v82h528v-82h-65c0,0,-15,0,-30,-3c0,0,-14,-4,-24,-14c0,0,-12,-11,-17,-30c0,0,-6,-20,-6,-52V172c0,0,0,-30,6,-47c0,0,6,-20,18,-28c0,0,9,-10,24,-13c0,0,11,-3,25,-3c2,0,3,0,4,0h65V0H681V81h66c0,0,15,0,30,4c0,0,14,3,26,13c0,0,9,10,16,30c0,0,5,19,6,53V522H426V181c0,0,0,-34,7,-53c0,0,5,-20,16,-30c0,0,10,-10,25,-13c0,0,13,-4,30,-4h66V0Z" 
id="f2_17"
transform="scale(0.001,-0.001)" />

<path d="M612,-14c0,0,-133,0,-232,39c0,0,-100,41,-164,115c0,0,-67,73,-99,177c0,0,-33,103,-33,230c0,0,0,124,34,227c0,0,33,103,100,176c0,0,65,73,165,115c0,0,98,41,228,41c0,0,87,0,154,-13c0,0,64,-15,108,-38c0,0,43,-24,65,-56c0,0,21,-34,21,-70c0,0,0,-29,-12,-52c0,0,-13,-25,-36,-43c0,0,-25,-18,-61,-28c0,0,-36,-10,-82,-10c0,0,0,38,-8,76c0,0,-9,37,-27,68c0,0,-21,30,-53,50c0,0,-32,19,-79,19c0,0,-74,-1,-123,-31c0,0,-51,-31,-80,-90c0,0,-30,-59,-44,-144c0,0,-13,-87,-13,-197c0,0,-1,-111,16,-193c0,0,16,-83,53,-138c0,0,36,-55,96,-82c0,0,56,-27,140,-27c1,0,2,0,3,0c0,0,56,0,100,13c0,0,42,12,78,34c0,0,34,21,60,47c0,0,25,25,45,51c0,0,11,-9,19,-27c0,0,7,-20,7,-39c0,0,-1,-32,-17,-67c0,0,-17,-35,-58,-65C883,54,842,23,777,4c0,0,-68,-18,-165,-18Z" 
id="f2_h"
transform="scale(0.001,-0.001)" />

<path d="M373,-11c0,0,-26,0,-49,7c0,0,-24,4,-40,19c0,0,-17,13,-27,37c0,0,-10,23,-9,58c0,0,-1,34,9,59c0,0,10,22,27,37c0,0,16,14,40,20c0,0,23,5,49,6c0,0,25,-1,48,-6c0,0,23,-6,40,-20c0,0,16,-15,28,-37c0,0,9,-25,9,-59c0,0,0,-35,-9,-58c0,0,-12,-24,-28,-37C461,15,444,0,421,-4c0,0,-23,-7,-48,-7ZM328,348L298,536c0,0,65,26,107,62c0,0,41,35,66,76c0,0,24,41,33,85c0,0,9,44,9,91c0,0,0,36,-6,67c0,0,-7,30,-21,52c0,0,-15,21,-38,34c0,0,-24,12,-54,12c0,0,-35,0,-58,-16c0,0,-23,-17,-37,-42c0,0,-15,-27,-20,-61c0,0,-7,-35,-7,-74c0,0,-47,0,-86,7c0,0,-41,7,-68,20c0,0,-29,12,-45,33c0,0,-17,20,-16,47c0,0,0,36,19,70c0,0,19,32,60,56c0,0,39,23,100,38c0,0,62,13,146,13c0,0,81,0,149,-18c0,0,68,-20,119,-56c0,0,50,-37,78,-88c0,0,28,-53,28,-119c0,0,0,-62,-18,-110c0,0,-20,-48,-58,-88c0,0,-38,-41,-94,-74c0,0,-58,-35,-134,-66L421,348Z" 
id="f2_15"
transform="scale(0.001,-0.001)" />

<path d="M674,452L593,703c0,0,-9,25,-16,55c0,0,-10,28,-18,58c0,0,-8,29,-16,60c0,0,-9,29,-14,56c0,0,-7,-24,-16,-51c0,0,-9,-28,-18,-57c0,0,-11,-29,-21,-58c0,0,-10,-29,-19,-56L365,452ZM6,0V81H25c0,0,20,0,37,5c0,0,16,4,31,17c0,0,14,12,28,34c0,0,12,20,26,55l331,899H688L1007,191c0,0,11,-33,24,-53c0,0,12,-22,27,-34c0,0,13,-12,30,-17c0,0,15,-6,32,-6c1,0,2,0,3,0h27V0H646V81h60c0,0,10,0,23,4c0,0,11,2,21,10c0,0,9,7,15,18c0,0,6,12,6,27c0,0,0,19,-4,36c0,0,-5,16,-9,30L704,359H333L289,228c0,0,-7,-20,-12,-44c0,0,-7,-26,-7,-44c0,0,0,-15,6,-26c0,0,5,-11,16,-18c0,0,9,-8,22,-11c0,0,12,-4,25,-4h65V0Z" 
id="f2_11"
transform="scale(0.001,-0.001)" />

<path d="M683,442L588,709c0,0,-25,68,-43,127c0,0,-21,59,-33,114c0,0,-6,-28,-12,-53c0,0,-8,-26,-16,-53c0,0,-9,-26,-19,-55c0,0,-10,-31,-23,-66L338,442ZM0,0V64H29c0,0,1,0,3,0c6,0,23,1,35,5c0,0,16,5,28,18c0,0,12,13,25,37c0,0,11,22,25,60l339,907H604L949,145c0,0,8,-23,19,-39c0,0,8,-16,21,-25c0,0,12,-10,29,-13c0,0,17,-4,39,-4h20V0H657V64h35c0,0,92,0,92,73c0,0,0,12,-3,26c0,0,-4,14,-10,31L710,365H309L251,204c0,0,-8,-18,-11,-35c0,0,-4,-18,-4,-30c0,0,0,-40,26,-57c0,0,24,-18,76,-18h35V0Z" 
id="f0_1g"
transform="scale(0.001,-0.001)" />

<path d="M508,76c11,0,67,1,107,12c0,0,45,12,74,39c0,0,27,25,41,68c0,0,12,42,12,104c0,0,0,59,-11,104c0,0,-11,43,-38,73c0,0,-28,28,-72,43c0,0,-45,14,-112,14H357V76H508ZM465,609c12,0,70,1,110,12c0,0,45,12,72,38c0,0,26,24,39,64c0,0,11,39,11,95c0,0,-1,56,-13,94c0,0,-13,36,-41,60c0,0,-28,22,-73,33c0,0,-46,10,-110,10H357V609H463c0,0,1,0,2,0ZM58,0V64H78c0,0,25,0,49,4c0,0,22,3,39,16c0,0,17,11,27,32c0,0,10,21,10,58V923c0,0,0,33,-10,54c0,0,-11,20,-27,32c0,0,-18,11,-40,14c0,0,-24,3,-48,3H58v65H468c0,0,197,0,295,-66c0,0,97,-66,97,-207c0,0,0,-52,-14,-91c0,0,-15,-39,-40,-68c0,0,-26,-29,-60,-48c0,0,-35,-20,-75,-34v-6c0,0,51,-9,95,-30c0,0,43,-22,75,-56c0,0,30,-35,47,-82c0,0,17,-49,18,-108c0,0,0,-149,-97,-221C809,74,711,0,513,0Z" 
id="f0_1e"
transform="scale(0.001,-0.001)" />

<path d="M557,-14c-2,0,-4,0,-6,0c0,0,-115,0,-200,39c0,0,-87,41,-145,115c0,0,-60,73,-89,177c0,0,-30,103,-30,230c0,0,0,124,32,227c0,0,31,103,93,176c0,0,61,73,153,115c0,0,92,41,212,41c0,0,79,0,137,-12c0,0,57,-14,96,-37c0,0,38,-24,58,-54c0,0,18,-32,18,-68c0,0,0,-26,-9,-44c0,0,-11,-20,-29,-34c0,0,-18,-15,-42,-21c0,0,-23,-8,-49,-8c-1,0,-2,0,-4,0c0,0,0,36,-9,71c0,0,-10,34,-30,63c0,0,-22,28,-55,46c0,0,-35,16,-85,17c0,0,-86,0,-147,-31c0,0,-60,-33,-98,-93c0,0,-39,-62,-55,-150c0,0,-17,-89,-17,-204c0,0,0,-102,18,-187c0,0,17,-85,56,-146c0,0,39,-62,99,-95c0,0,59,-33,144,-33c0,0,56,0,100,11c0,0,42,10,75,28c0,0,32,18,58,42c0,0,25,22,44,49c0,0,12,-9,21,-23c0,0,8,-15,8,-37c0,0,0,-29,-19,-59c0,0,-20,-31,-61,-55C800,42,759,17,698,1c0,0,-59,-15,-141,-15Z" 
id="f0_1f"
transform="scale(0.001,-0.001)" />

<path d="M490,78c0,0,90,0,160,31c0,0,67,30,113,90c0,0,45,59,69,147c0,0,22,87,22,201c0,0,0,227,-90,347c0,0,-91,120,-272,121H357V78ZM529,0c-1,0,-2,0,-3,0H58V64H78c0,0,25,0,49,4c0,0,22,3,39,16c0,0,17,11,27,32c0,0,10,21,10,58V923c0,0,0,33,-10,54c0,0,-11,20,-27,32c0,0,-18,11,-40,14c0,0,-24,3,-48,3H58v65H526c0,0,117,0,210,-36c0,0,93,-37,157,-106c0,0,63,-69,97,-171c0,0,33,-102,33,-231c0,0,0,-126,-31,-226c0,0,-32,-102,-93,-173C899,148,836,77,744,39C744,39,651,0,529,0Z" 
id="f0_1t"
transform="scale(0.001,-0.001)" />

<path d="M43,0V64H63c0,0,25,0,47,4c0,0,21,3,38,16c0,0,15,11,24,32c0,0,8,21,9,58V650c0,0,0,33,-9,55c0,0,-9,20,-25,31c0,0,-16,11,-37,15c0,0,-22,3,-47,4H58v64H298L318,695h7c0,0,23,42,49,70c0,0,25,27,54,43c0,0,28,14,61,21c0,0,31,5,67,5c0,0,36,0,71,-7c0,0,33,-9,62,-24c0,0,28,-17,52,-43c0,0,21,-27,36,-65h13c0,0,23,42,50,70c0,0,27,27,57,43c0,0,30,14,64,21c0,0,32,5,68,5c0,0,59,-1,105,-17c0,0,45,-18,78,-54c0,0,32,-37,49,-93c0,0,17,-58,18,-135V174c0,0,0,-37,9,-58c0,0,9,-21,24,-32c0,0,16,-13,37,-16c0,0,21,-4,47,-4h5V0H1135V527c0,0,0,50,-8,89c0,0,-9,39,-27,66c0,0,-21,26,-50,41c0,0,-32,13,-75,13c0,0,-48,0,-80,-18c0,0,-33,-19,-53,-50c0,0,-21,-31,-28,-72c0,0,-9,-42,-9,-87V174c0,0,0,-37,9,-58c0,0,9,-21,24,-32c0,0,16,-13,38,-16c0,0,21,-4,47,-4h4V0H662V527c0,0,-1,50,-9,89c0,0,-8,39,-27,66c0,0,-20,26,-50,41c0,0,-31,13,-75,13c0,0,-50,0,-83,-20c0,0,-35,-20,-55,-54c0,0,-22,-35,-30,-79c0,0,-9,-45,-9,-94V166c0,0,0,-33,10,-53c0,0,10,-22,27,-32c0,0,16,-10,40,-13c0,0,22,-4,48,-4h5V0Z" 
id="f0_1l"
transform="scale(0.001,-0.001)" />

<path d="M518,83c0,0,50,0,86,21c0,0,35,21,58,63c0,0,23,41,33,104c0,0,10,61,11,142c0,0,-1,80,-11,142c0,0,-10,60,-33,101c0,0,-23,40,-58,60c0,0,-38,20,-88,20c0,0,-60,0,-99,-19c0,0,-41,-20,-64,-61c0,0,-24,-40,-34,-101c0,0,-10,-62,-10,-144c0,0,0,-80,10,-141c0,0,10,-62,35,-103c0,0,23,-42,64,-63c0,0,39,-21,100,-21ZM28,-366v64H40c0,0,25,0,49,4c0,0,22,3,39,16c0,0,17,11,27,33c0,0,10,21,10,58V650c0,0,0,33,-10,55c0,0,-11,20,-27,31c0,0,-18,11,-40,15c0,0,-24,3,-48,4H20v64H287L303,681h6c0,0,16,34,39,63c0,0,21,28,50,49c0,0,27,19,64,31c0,0,36,9,80,10c0,0,75,0,134,-25c0,0,58,-26,98,-76c0,0,38,-53,60,-132c0,0,20,-80,20,-190c0,0,0,-111,-20,-191c0,0,-22,-80,-60,-133c0,0,-40,-53,-98,-77c0,0,-57,-24,-131,-24c-1,0,-2,0,-3,0h-2c-8,0,-46,1,-77,10c0,0,-37,8,-65,26c0,0,-29,18,-50,43c0,0,-23,24,-39,54h-3c0,0,0,-39,0,-73c0,0,0,-15,0,-30c0,0,0,-15,0,-28c0,0,0,-14,0,-24c0,0,0,-11,0,-17V-199c0,0,0,-33,10,-54c0,0,10,-21,28,-31c0,0,17,-11,41,-14c0,0,23,-4,49,-4h5v-64Z" 
id="f0_l"
transform="scale(0.001,-0.001)" />

<path d="M417,-14c0,0,-60,0,-107,16c0,0,-47,17,-79,54c0,0,-33,36,-49,93c0,0,-17,57,-17,135V650c0,0,0,33,-10,55c0,0,-11,20,-27,31c0,0,-18,11,-40,15c0,0,-24,3,-48,4H35v64H309V292c0,0,0,-51,8,-89c0,0,7,-40,26,-66c0,0,18,-27,49,-40c0,0,29,-14,74,-14c1,0,2,0,3,0c0,0,50,0,88,18c0,0,35,18,59,50c0,0,23,32,34,78c0,0,12,46,12,101V645c0,0,0,35,-10,58c0,0,-10,21,-27,33c0,0,-17,11,-39,15c0,0,-24,3,-50,4h-4v64H805V166c0,0,0,-33,10,-53c0,0,10,-22,27,-32c0,0,17,-10,41,-13c0,0,21,-4,47,-4h5V0H692L672,124h-7c0,0,-24,-44,-51,-70c0,0,-28,-28,-60,-42c0,0,-31,-15,-65,-20c0,0,-35,-6,-72,-6Z" 
id="f0_d"
transform="scale(0.001,-0.001)" />

<path d="M229,0V64h35c0,0,25,0,49,4c0,0,22,3,39,13c0,0,17,10,28,32c0,0,9,20,9,53v849H243c0,0,-33,0,-56,-10c0,0,-24,-11,-37,-28c0,0,-15,-17,-22,-39c0,0,-8,-24,-10,-49l-8,-65H34v267H902V824H827l-8,65c0,0,-4,25,-10,49c0,0,-9,22,-22,39c0,0,-15,17,-37,28c0,0,-24,10,-58,10H544V174c0,0,0,-37,10,-58c0,0,10,-21,27,-32c0,0,16,-13,40,-16c0,0,22,-4,48,-4h35V0Z" 
id="f0_s"
transform="scale(0.001,-0.001)" />

<path d="M147,0V64H249c0,0,26,0,49,4c0,0,23,3,40,16c0,0,16,11,27,32c0,0,9,21,9,58V976c0,0,-29,-35,-55,-64c0,0,-27,-29,-50,-50c0,0,-24,-22,-46,-32c0,0,-22,-12,-44,-12c0,0,-1,0,-1,0c0,0,-1,0,-1,0c-3,0,-35,0,-55,23c0,0,-21,21,-21,59c0,0,23,5,47,15c0,0,23,7,50,22c0,0,25,13,57,34c0,0,30,18,69,47l107,79h98V174c0,0,-1,-37,10,-58c0,0,9,-21,26,-32c0,0,17,-13,41,-16c0,0,22,-4,48,-4h75V0Z" 
id="f0_t"
transform="scale(0.001,-0.001)" />

<path d="M518,83c0,0,50,0,86,21c0,0,35,21,58,63c0,0,23,41,33,104c0,0,10,61,11,142c0,0,-1,80,-11,142c0,0,-10,60,-33,101c0,0,-23,40,-58,60c0,0,-38,20,-88,20c0,0,-60,0,-99,-19c0,0,-41,-20,-64,-61c0,0,-24,-40,-34,-101c0,0,-10,-62,-10,-144c0,0,0,-80,10,-141c0,0,10,-62,35,-103c0,0,23,-42,64,-63c0,0,39,-21,100,-21Zm27,-97c-1,0,-2,0,-3,0h-2c-8,0,-46,1,-77,10c0,0,-37,8,-65,26c0,0,-29,18,-50,43c0,0,-23,24,-39,54H299L272,0H28V64H40c0,0,25,0,49,4c0,0,22,3,39,16c0,0,17,11,27,32c0,0,10,21,10,58V993c0,0,0,33,-10,54c0,0,-11,21,-27,32c0,0,-18,11,-40,15c0,0,-24,3,-48,3H28v64H306V880c0,0,0,-26,0,-59c0,0,0,-35,0,-66c0,0,0,-36,0,-74h3c0,0,16,34,39,63c0,0,21,28,50,49c0,0,27,19,64,31c0,0,36,9,80,10c0,0,75,0,134,-25c0,0,58,-26,98,-76c0,0,38,-53,60,-132c0,0,20,-80,20,-190c0,0,0,-111,-20,-191c0,0,-22,-80,-60,-133c0,0,-40,-53,-98,-77c0,0,-57,-24,-131,-24Z" 
id="f0_g"
transform="scale(0.001,-0.001)" />

<path d="M458,0L128,946c0,0,-8,23,-18,39c0,0,-10,16,-22,25c0,0,-13,9,-29,13c0,0,-17,3,-39,3H0v65H420v-65H385c0,0,-46,0,-69,-17c0,0,-24,-18,-23,-56c0,0,0,-12,4,-26c0,0,3,-14,9,-30L474,401c0,0,22,-69,39,-132c0,0,17,-65,29,-119c0,0,12,54,29,117c0,0,15,61,41,134L781,886c0,0,5,19,10,36c0,0,3,16,3,30c0,0,0,39,-24,57c0,0,-26,17,-76,17H659v65h372v-65h-29c0,0,-23,0,-38,-4c0,0,-17,-5,-29,-17c0,0,-14,-14,-25,-37c0,0,-12,-24,-24,-60L570,0Z" 
id="f0_1w"
transform="scale(0.001,-0.001)" />

<path d="M243,0V64h35c0,0,25,0,49,4c0,0,22,3,39,13c0,0,17,10,28,32c0,0,10,20,10,53V455L121,946c0,0,-13,21,-24,37c0,0,-11,14,-23,25c0,0,-14,10,-28,14c0,0,-15,4,-34,4H-6v65H413v-65H356c0,0,-22,0,-34,-3c0,0,-13,-4,-21,-11c0,0,-8,-6,-9,-15c0,0,-4,-9,-3,-19c0,0,-1,-22,9,-43c0,0,9,-22,18,-38L429,692c0,0,26,-47,45,-92c0,0,19,-46,32,-82c0,0,6,16,17,36c0,0,10,20,22,44c0,0,12,22,26,47c0,0,13,23,27,47l97,176c0,0,14,25,22,50c0,0,5,22,6,41c0,0,-1,34,-24,51c0,0,-25,16,-68,16H586v65H959v-65H941c0,0,-17,0,-30,-5c0,0,-16,-6,-30,-19c0,0,-15,-15,-31,-37c0,0,-17,-24,-35,-57L558,455V174c0,0,-1,-37,10,-58c0,0,9,-21,27,-32c0,0,16,-13,40,-16c0,0,21,-4,48,-4h35V0Z" 
id="f0_1z"
transform="scale(0.001,-0.001)" />

<path d="M58,0V64H78c0,0,24,0,48,4c0,0,22,3,40,13c0,0,16,10,27,32c0,0,10,20,10,53V923c0,0,0,33,-10,54c0,0,-11,20,-27,32c0,0,-18,11,-40,14c0,0,-24,3,-48,3H58v65H832V824H756l-7,65c0,0,-4,26,-12,49c0,0,-9,23,-25,40c0,0,-17,16,-43,27c0,0,-26,10,-61,10H357V573H726V498H357V174c0,0,0,-37,11,-58c0,0,9,-21,27,-32c0,0,15,-13,39,-16c0,0,23,-4,49,-4h50V0Z" 
id="f0_20"
transform="scale(0.001,-0.001)" />

<path d="M421,83c0,0,59,0,100,20c0,0,39,19,65,60c0,0,23,39,34,101c0,0,10,61,10,144c0,0,0,79,-10,141c0,0,-11,61,-34,103c0,0,-25,41,-65,63c0,0,-41,21,-101,21c0,0,-51,0,-86,-21c0,0,-36,-23,-58,-64c0,0,-24,-42,-34,-103c0,0,-10,-62,-10,-141c0,0,0,-163,44,-244c0,0,43,-80,145,-80Zm33,-449v64h51c0,0,26,0,50,4c0,0,22,3,40,16c0,0,17,11,27,33c0,0,10,21,11,58V-60c0,0,0,25,0,60c0,0,0,33,0,64c0,0,0,36,0,73h-3c0,0,-18,-35,-39,-62c0,0,-23,-29,-51,-48C540,27,512,6,476,-3c0,0,-36,-11,-81,-11c-8,0,-78,1,-133,24c0,0,-59,24,-98,77c0,0,-39,52,-60,132c0,0,-20,79,-20,189c0,0,0,110,20,191c0,0,21,80,60,133c0,0,39,51,98,77c0,0,58,25,133,25c0,0,44,0,80,-10c0,0,36,-10,65,-27c0,0,28,-18,51,-43c0,0,21,-24,39,-54h9l27,119H911V755H898c0,0,-26,-1,-48,-4c0,0,-24,-4,-40,-15c0,0,-17,-12,-27,-33c0,0,-10,-23,-10,-58V-197c0,0,0,-34,10,-54c0,0,10,-22,27,-32c0,0,17,-12,40,-15c0,0,22,-4,48,-4h13v-64Z" 
id="f0_15"
transform="scale(0.001,-0.001)" />

<path d="M49,-194v70c0,0,79,47,125,115c0,0,45,66,71,146c0,0,23,79,31,167c0,0,7,88,7,180c0,0,0,90,-7,180c0,0,-8,88,-31,168c0,0,-26,79,-71,146c0,0,-46,66,-125,114v69c0,0,105,-42,180,-101c0,0,75,-60,122,-142c0,0,47,-82,69,-188c0,0,21,-109,22,-246c0,0,-1,-138,-22,-245c0,0,-22,-109,-69,-191c0,0,-47,-82,-122,-141c0,0,-75,-60,-180,-101Z" 
id="f0_17"
transform="scale(0.001,-0.001)" />

<path d="M435,70c9,0,47,1,81,10c0,0,38,8,70,25c0,0,32,16,59,40c0,0,27,22,49,49L356,556c0,0,-35,-20,-63,-43c0,0,-29,-24,-48,-54c0,0,-20,-32,-30,-70c0,0,-11,-40,-11,-88c0,0,0,-56,17,-99c0,0,16,-44,47,-72c0,0,30,-31,71,-45c0,0,41,-15,94,-15h2Zm-4,601c0,0,45,18,79,41c0,0,32,21,54,47c0,0,21,26,32,57c0,0,10,31,10,72c0,0,0,30,-7,56c0,0,-8,26,-24,46c0,0,-17,19,-44,30c0,0,-28,11,-66,11c0,0,-69,-1,-105,-40c0,0,-37,-39,-36,-105c0,0,0,-29,6,-54c0,0,5,-26,19,-50c0,0,12,-26,33,-52c0,0,20,-27,49,-59ZM423,-14c-1,0,-3,0,-4,0c0,0,-1,0,-1,0c-10,0,-95,1,-159,22c0,0,-69,23,-114,66c0,0,-46,41,-67,101c0,0,-23,58,-23,131c0,0,0,65,18,113c0,0,17,47,49,85c0,0,31,35,77,64c0,0,45,27,100,50c0,0,-30,34,-51,67c0,0,-22,31,-36,62c0,0,-15,32,-23,65c0,0,-8,32,-7,70c0,0,-1,50,16,92c0,0,17,40,52,70c0,0,34,29,90,47c0,0,55,15,131,15c0,0,72,0,124,-17c0,0,52,-17,85,-47c0,0,32,-30,47,-69c0,0,14,-41,14,-84c0,0,0,-49,-14,-87c0,0,-15,-38,-45,-70c0,0,-32,-33,-80,-61c0,0,-49,-29,-119,-59L761,318c0,0,11,34,18,70c0,0,7,34,11,69c0,0,4,34,4,67c0,0,0,31,0,59v60h277V579h-14c0,0,-26,0,-50,-3c0,0,-25,-4,-45,-14c0,0,-22,-11,-38,-31c0,0,-18,-21,-27,-56c0,0,-14,-50,-31,-106c0,0,-19,-59,-44,-115L964,101c0,0,10,-11,23,-19c0,0,11,-8,28,-12c0,0,16,-4,38,-4h67V0H876L749,134c0,0,-28,-31,-60,-58c0,0,-34,-28,-74,-48C615,28,574,8,526,-2c0,0,-47,-12,-103,-12Z" 
id="f0_1h"
transform="scale(0.001,-0.001)" />

<path d="M33,0V27c0,0,264,241,371,393c0,0,108,152,108,278c0,0,0,96,-59,158c0,0,-59,62,-141,62c0,0,-75,0,-134,-43c0,0,-59,-44,-88,-128H63c0,0,18,138,95,212c0,0,77,74,193,74c0,0,123,0,205,-80c0,0,83,-79,83,-186c0,0,0,-77,-36,-154c0,0,-55,-121,-179,-256C424,357,238,154,191,112H455c0,0,81,0,114,6c0,0,32,6,58,25c0,0,27,18,46,52h27L630,0Z" 
id="f3_m"
transform="scale(0.001,-0.001)" />

<path d="M452,373V875L97,373ZM452,0V267H23v95l470,671h82V373H711V267H575V0Z" 
id="f3_o"
transform="scale(0.001,-0.001)" />


</defs>
</svg>