<?xml version="1.0" encoding="UTF-8" standalone="no"?>
<!DOCTYPE svg PUBLIC "-//W3C//DTD SVG 1.1//EN"
"http://www.w3.org/Graphics/SVG/1.1/DTD/svg11.dtd">
<svg viewBox="0 0 909 1286" version="1.1" xmlns="http://www.w3.org/2000/svg" xmlns:xlink="http://www.w3.org/1999/xlink">
<defs>
<clipPath id="c0_361"><path d="M35.1,1194.7V113.1H873.9V1194.7Z" /></clipPath>
</defs>
<image preserveAspectRatio="none" x="47" y="113" width="402" height="41" xlink:href="img/1.png" />
<image preserveAspectRatio="none" x="47" y="173" width="220" height="41" xlink:href="img/2.png" />
<g clip-path="url(#c0_361)">
<g fill="#000000" >
<use xlink:href="#f0_14" transform="matrix(12,0,0,12,47.4,258.2)" />
<use xlink:href="#f0_n" transform="matrix(12,0,0,12,66.6,258.2)" />
<use xlink:href="#f0_3" transform="matrix(12,0,0,12,78.2,258.2)" />
<use xlink:href="#f0_d" transform="matrix(12,0,0,12,88,258.2)" />
<use xlink:href="#f0_3" transform="matrix(12,0,0,12,96.6,258.2)" />
<use xlink:href="#f0_w" transform="matrix(12,0,0,12,106.4,258.2)" />
<use xlink:href="#f0_t" transform="matrix(12,0,0,12,115.8,258.2)" />
<use xlink:href="#f0_s" transform="matrix(12,0,0,12,133.4,258.2)" />
<use xlink:href="#f0_r" transform="matrix(12,0,0,12,148.4,258.2)" />
<use xlink:href="#f0_f" transform="matrix(12,0,0,12,158.7,258.2)" />
<use xlink:href="#f0_12" transform="matrix(12,0,0,12,173.7,258.2)" />
<use xlink:href="#f0_9" transform="matrix(12,0,0,12,185,258.2)" />
<use xlink:href="#f0_7" transform="matrix(12,0,0,12,195.5,258.2)" />
</g>
</g>
<image preserveAspectRatio="none" x="209" y="232" width="124" height="41" xlink:href="img/3.png" />
<g clip-path="url(#c0_361)">
<g fill="#000000" >
<use xlink:href="#f0_15" transform="matrix(12,0,0,12,47.4,314.7)" />
<use xlink:href="#f0_9" transform="matrix(12,0,0,12,61.3,314.7)" />
<use xlink:href="#f0_e" transform="matrix(12,0,0,12,71.9,314.7)" />
<use xlink:href="#f0_w" transform="matrix(12,0,0,12,87.7,314.7)" />
<use xlink:href="#f0_f" transform="matrix(12,0,0,12,97,314.7)" />
<use xlink:href="#f0_j" transform="matrix(12,0,0,12,107.4,314.7)" />
<use xlink:href="#f0_k" transform="matrix(12,0,0,12,124.7,314.7)" />
<use xlink:href="#f0_i" transform="matrix(12,0,0,12,135.9,314.7)" />
<use xlink:href="#f0_b" transform="matrix(12,0,0,12,141.6,314.7)" />
<use xlink:href="#f0_4" transform="matrix(12,0,0,12,147.4,314.7)" />
<use xlink:href="#f0_6" transform="matrix(12,0,0,12,153.9,314.7)" />
<use xlink:href="#f0_c" transform="matrix(12,0,0,12,165.5,314.7)" />
<use xlink:href="#f0_3" transform="matrix(12,0,0,12,176.7,314.7)" />
<use xlink:href="#f0_t" transform="matrix(12,0,0,12,191.3,314.7)" />
<use xlink:href="#f0_b" transform="matrix(12,0,0,12,209,314.7)" />
<use xlink:href="#f0_7" transform="matrix(12,0,0,12,214.8,314.7)" />
<use xlink:href="#f0_j" transform="matrix(12,0,0,12,227.8,314.7)" />
<use xlink:href="#f0_f" transform="matrix(12,0,0,12,245.1,314.7)" />
<use xlink:href="#f0_16" transform="matrix(12,0,0,12,255.4,314.7)" />
<use xlink:href="#f0_b" transform="matrix(12,0,0,12,266,314.7)" />
<use xlink:href="#f0_j" transform="matrix(12,0,0,12,271.9,314.7)" />
<use xlink:href="#f0_6" transform="matrix(12,0,0,12,289.2,314.7)" />
<use xlink:href="#f0_j" transform="matrix(12,0,0,12,300.8,314.7)" />
<use xlink:href="#f0_e" transform="matrix(12,0,0,12,322.9,314.7)" />
<use xlink:href="#f0_n" transform="matrix(12,0,0,12,338.7,314.7)" />
<use xlink:href="#f0_3" transform="matrix(12,0,0,12,350.3,314.7)" />
<use xlink:href="#f0_a" transform="matrix(12,0,0,12,360.1,314.7)" />
<use xlink:href="#f0_w" transform="matrix(12,0,0,12,371.9,314.7)" />
</g>
</g>
<image preserveAspectRatio="none" x="47" y="342" width="379" height="41" xlink:href="img/4.png" />
<image preserveAspectRatio="none" x="47" y="402" width="277" height="41" xlink:href="img/5.png" />
<image preserveAspectRatio="none" x="47" y="461" width="130" height="72" xlink:href="img/6.png" />
<g clip-path="url(#c0_361)">
<g fill="#000000" >
<use xlink:href="#f0_b" transform="matrix(12,0,0,12,47.4,574.4)" />
<use xlink:href="#f0_o" transform="matrix(12,0,0,12,53.2,574.4)" />
<use xlink:href="#f0_3" transform="matrix(12,0,0,12,58.4,574.4)" />
<use xlink:href="#f0_d" transform="matrix(12,0,0,12,73,574.4)" />
<use xlink:href="#f0_3" transform="matrix(12,0,0,12,81.6,574.4)" />
<use xlink:href="#f0_7" transform="matrix(12,0,0,12,91.4,574.4)" />
<use xlink:href="#f0_6" transform="matrix(12,0,0,12,99.7,574.4)" />
<use xlink:href="#f0_i" transform="matrix(12,0,0,12,111.3,574.4)" />
<use xlink:href="#f0_4" transform="matrix(12,0,0,12,117,574.4)" />
<use xlink:href="#f0_f" transform="matrix(12,0,0,12,123.4,574.4)" />
<use xlink:href="#f0_a" transform="matrix(12,0,0,12,133.8,574.4)" />
<use xlink:href="#f0_4" transform="matrix(12,0,0,12,145.6,574.4)" />
<use xlink:href="#f0_b" transform="matrix(12,0,0,12,156.8,574.4)" />
<use xlink:href="#f0_a" transform="matrix(12,0,0,12,162.6,574.4)" />
<use xlink:href="#f0_4" transform="matrix(12,0,0,12,174.4,574.4)" />
<use xlink:href="#f0_3" transform="matrix(12,0,0,12,180.9,574.4)" />
<use xlink:href="#f0_a" transform="matrix(12,0,0,12,190.7,574.4)" />
<use xlink:href="#f0_7" transform="matrix(12,0,0,12,202.5,574.4)" />
<use xlink:href="#f0_b" transform="matrix(12,0,0,12,210.8,574.4)" />
<use xlink:href="#f0_4" transform="matrix(12,0,0,12,216.6,574.4)" />
<use xlink:href="#f0_p" transform="matrix(12,0,0,12,223.1,574.4)" />
<use xlink:href="#f0_9" transform="matrix(12,0,0,12,238.1,574.4)" />
<use xlink:href="#f0_g" transform="matrix(12,0,0,12,248.7,574.4)" />
<use xlink:href="#f0_7" transform="matrix(12,0,0,12,260.2,574.4)" />
<use xlink:href="#f0_9" transform="matrix(12,0,0,12,268.5,574.4)" />
<use xlink:href="#f0_6" transform="matrix(12,0,0,12,279.1,574.4)" />
<use xlink:href="#f0_a" transform="matrix(12,0,0,12,290.7,574.4)" />
<use xlink:href="#f0_c" transform="matrix(12,0,0,12,302.5,574.4)" />
<use xlink:href="#f0_e" transform="matrix(12,0,0,12,318.5,574.4)" />
<use xlink:href="#f0_b" transform="matrix(12,0,0,12,334.3,574.4)" />
<use xlink:href="#f0_i" transform="matrix(12,0,0,12,340.1,574.4)" />
<use xlink:href="#f0_i" transform="matrix(12,0,0,12,345.8,574.4)" />
<use xlink:href="#f0_17" transform="matrix(12,0,0,12,356.2,574.4)" />
<use xlink:href="#f0_3" transform="matrix(12,0,0,12,367.5,574.4)" />
<use xlink:href="#f0_j" transform="matrix(12,0,0,12,382,574.4)" />
<use xlink:href="#f0_f" transform="matrix(12,0,0,12,399.3,574.4)" />
<use xlink:href="#f0_16" transform="matrix(12,0,0,12,409.7,574.4)" />
<use xlink:href="#f0_b" transform="matrix(12,0,0,12,420.3,574.4)" />
<use xlink:href="#f0_j" transform="matrix(12,0,0,12,426.1,574.4)" />
<use xlink:href="#f0_6" transform="matrix(12,0,0,12,443.4,574.4)" />
<use xlink:href="#f0_j" transform="matrix(12,0,0,12,455,574.4)" />
<use xlink:href="#f0_f" transform="matrix(12,0,0,12,477.1,574.4)" />
<use xlink:href="#f0_4" transform="matrix(12,0,0,12,487.4,574.4)" />
<use xlink:href="#f0_4" transform="matrix(12,0,0,12,498.6,574.4)" />
<use xlink:href="#f0_b" transform="matrix(12,0,0,12,505,574.4)" />
<use xlink:href="#f0_j" transform="matrix(12,0,0,12,510.9,574.4)" />
<use xlink:href="#f0_3" transform="matrix(12,0,0,12,528.2,574.4)" />
<use xlink:href="#f0_7" transform="matrix(12,0,0,12,538,574.4)" />
<use xlink:href="#f0_w" transform="matrix(12,0,0,12,546.3,574.4)" />
</g>
</g>
<image preserveAspectRatio="none" x="47" y="584" width="330" height="71" xlink:href="img/7.png" />
<g clip-path="url(#c0_361)">
<g fill="#000000" >
<use xlink:href="#f0_18" transform="matrix(12,0,0,12,47.4,715)" />
<use xlink:href="#f0_b" transform="matrix(12,0,0,12,58.6,715)" />
<use xlink:href="#f0_j" transform="matrix(12,0,0,12,64.4,715)" />
<use xlink:href="#f0_3" transform="matrix(12,0,0,12,81.7,715)" />
<use xlink:href="#f0_b" transform="matrix(12,0,0,12,96.3,715)" />
<use xlink:href="#f0_a" transform="matrix(12,0,0,12,102.1,715)" />
<use xlink:href="#f0_4" transform="matrix(12,0,0,12,114,715)" />
<use xlink:href="#f0_3" transform="matrix(12,0,0,12,120.4,715)" />
<use xlink:href="#f0_d" transform="matrix(12,0,0,12,130.2,715)" />
<use xlink:href="#f0_v" transform="matrix(12,0,0,12,138.8,715)" />
<use xlink:href="#f0_f" transform="matrix(12,0,0,12,149.4,715)" />
<use xlink:href="#f0_i" transform="matrix(12,0,0,12,159.7,715)" />
<use xlink:href="#f0_17" transform="matrix(12,0,0,12,170.2,715)" />
<use xlink:href="#f0_3" transform="matrix(12,0,0,12,181.4,715)" />
<use xlink:href="#f0_4" transform="matrix(12,0,0,12,191.2,715)" />
<use xlink:href="#f0_e" transform="matrix(12,0,0,12,197.7,715)" />
<use xlink:href="#f0_3" transform="matrix(12,0,0,12,213.5,715)" />
<use xlink:href="#f0_3" transform="matrix(12,0,0,12,223.3,715)" />
<use xlink:href="#f0_a" transform="matrix(12,0,0,12,233.1,715)" />
<use xlink:href="#f0_r" transform="matrix(12,0,0,12,249.6,715)" />
<use xlink:href="#f0_7" transform="matrix(12,0,0,12,264.6,715)" />
<use xlink:href="#f0_6" transform="matrix(12,0,0,12,272.9,715)" />
<use xlink:href="#f0_8" transform="matrix(12,0,0,12,284.5,715)" />
<use xlink:href="#f0_8" transform="matrix(12,0,0,12,293.5,715)" />
<use xlink:href="#f0_3" transform="matrix(12,0,0,12,302.6,715)" />
<use xlink:href="#f0_7" transform="matrix(12,0,0,12,312.4,715)" />
<use xlink:href="#f0_7" transform="matrix(12,0,0,12,320.6,715)" />
<use xlink:href="#f0_b" transform="matrix(12,0,0,12,328.9,715)" />
<use xlink:href="#f0_v" transform="matrix(12,0,0,12,334.8,715)" />
<use xlink:href="#f0_3" transform="matrix(12,0,0,12,345.3,715)" />
<use xlink:href="#f0_19" transform="matrix(12,0,0,12,359.9,715)" />
<use xlink:href="#f0_f" transform="matrix(12,0,0,12,377.1,715)" />
<use xlink:href="#f0_16" transform="matrix(12,0,0,12,387.4,715)" />
<use xlink:href="#f0_b" transform="matrix(12,0,0,12,398,715)" />
<use xlink:href="#f0_j" transform="matrix(12,0,0,12,403.9,715)" />
<use xlink:href="#f0_f" transform="matrix(12,0,0,12,421.2,715)" />
<use xlink:href="#f0_16" transform="matrix(12,0,0,12,431.5,715)" />
<use xlink:href="#f0_7" transform="matrix(12,0,0,12,442.1,715)" />
<use xlink:href="#f0_s" transform="matrix(12,0,0,12,455.1,715)" />
</g>
</g>
<image preserveAspectRatio="none" x="475" y="674" width="293" height="72" xlink:href="img/8.png" />
<g clip-path="url(#c0_361)">
<g fill="#000000" >
<use xlink:href="#f0_11" transform="matrix(12,0,0,12,47.4,786.8)" />
<use xlink:href="#f0_b" transform="matrix(12,0,0,12,57.3,786.8)" />
<use xlink:href="#f0_j" transform="matrix(12,0,0,12,63.2,786.8)" />
<use xlink:href="#f0_b" transform="matrix(12,0,0,12,80.5,786.8)" />
<use xlink:href="#f0_i" transform="matrix(12,0,0,12,86.3,786.8)" />
<use xlink:href="#f0_f" transform="matrix(12,0,0,12,92,786.8)" />
<use xlink:href="#f0_d" transform="matrix(12,0,0,12,102.3,786.8)" />
<use xlink:href="#f0_i" transform="matrix(12,0,0,12,110.9,786.8)" />
<use xlink:href="#f0_p" transform="matrix(12,0,0,12,116.6,786.8)" />
<use xlink:href="#f0_w" transform="matrix(12,0,0,12,126.9,786.8)" />
<use xlink:href="#f0_t" transform="matrix(12,0,0,12,136.3,786.8)" />
<use xlink:href="#f0_e" transform="matrix(12,0,0,12,153.9,786.8)" />
<use xlink:href="#f0_b" transform="matrix(12,0,0,12,169.7,786.8)" />
<use xlink:href="#f0_i" transform="matrix(12,0,0,12,175.6,786.8)" />
<use xlink:href="#f0_i" transform="matrix(12,0,0,12,181.3,786.8)" />
<use xlink:href="#f0_17" transform="matrix(12,0,0,12,191.7,786.8)" />
<use xlink:href="#f0_3" transform="matrix(12,0,0,12,202.9,786.8)" />
<use xlink:href="#f0_j" transform="matrix(12,0,0,12,217.5,786.8)" />
<use xlink:href="#f0_b" transform="matrix(12,0,0,12,234.8,786.8)" />
<use xlink:href="#f0_a" transform="matrix(12,0,0,12,240.6,786.8)" />
<use xlink:href="#f0_b" transform="matrix(12,0,0,12,252.5,786.8)" />
<use xlink:href="#f0_j" transform="matrix(12,0,0,12,258.3,786.8)" />
<use xlink:href="#f0_6" transform="matrix(12,0,0,12,275.6,786.8)" />
<use xlink:href="#f0_j" transform="matrix(12,0,0,12,287.2,786.8)" />
<use xlink:href="#f0_w" transform="matrix(12,0,0,12,304.6,786.8)" />
</g>
</g>
<image preserveAspectRatio="none" x="47" y="814" width="208" height="42" xlink:href="img/9.png" />
<image preserveAspectRatio="none" x="47" y="874" width="471" height="63" xlink:href="img/10.png" />
<image preserveAspectRatio="none" x="47" y="955" width="239" height="63" xlink:href="img/11.png" />
<image preserveAspectRatio="none" x="47" y="1036" width="141" height="75" xlink:href="img/12.png" />
<g clip-path="url(#c0_361)">
<g fill="#000000" >
<use xlink:href="#f0_b" transform="matrix(12,0,0,12,47.4,1151.9)" />
<use xlink:href="#f0_o" transform="matrix(12,0,0,12,53.2,1151.9)" />
<use xlink:href="#f0_3" transform="matrix(12,0,0,12,58.4,1151.9)" />
<use xlink:href="#f0_o" transform="matrix(12,0,0,12,68.2,1151.9)" />
<use xlink:href="#f0_d" transform="matrix(12,0,0,12,78.2,1151.9)" />
<use xlink:href="#f0_3" transform="matrix(12,0,0,12,86.8,1151.9)" />
<use xlink:href="#f0_7" transform="matrix(12,0,0,12,96.7,1151.9)" />
<use xlink:href="#f0_6" transform="matrix(12,0,0,12,104.9,1151.9)" />
<use xlink:href="#f0_i" transform="matrix(12,0,0,12,116.5,1151.9)" />
<use xlink:href="#f0_4" transform="matrix(12,0,0,12,122.2,1151.9)" />
<use xlink:href="#f0_f" transform="matrix(12,0,0,12,128.7,1151.9)" />
<use xlink:href="#f0_a" transform="matrix(12,0,0,12,139,1151.9)" />
<use xlink:href="#f0_4" transform="matrix(12,0,0,12,150.8,1151.9)" />
<use xlink:href="#f0_b" transform="matrix(12,0,0,12,162,1151.9)" />
<use xlink:href="#f0_a" transform="matrix(12,0,0,12,167.8,1151.9)" />
<use xlink:href="#f0_4" transform="matrix(12,0,0,12,179.7,1151.9)" />
<use xlink:href="#f0_3" transform="matrix(12,0,0,12,186.1,1151.9)" />
<use xlink:href="#f0_a" transform="matrix(12,0,0,12,195.9,1151.9)" />
<use xlink:href="#f0_7" transform="matrix(12,0,0,12,207.7,1151.9)" />
<use xlink:href="#f0_b" transform="matrix(12,0,0,12,216,1151.9)" />
<use xlink:href="#f0_4" transform="matrix(12,0,0,12,221.8,1151.9)" />
<use xlink:href="#f0_p" transform="matrix(12,0,0,12,228.3,1151.9)" />
<use xlink:href="#f0_9" transform="matrix(12,0,0,12,243.4,1151.9)" />
<use xlink:href="#f0_g" transform="matrix(12,0,0,12,253.9,1151.9)" />
<use xlink:href="#f0_7" transform="matrix(12,0,0,12,265.5,1151.9)" />
<use xlink:href="#f0_9" transform="matrix(12,0,0,12,273.7,1151.9)" />
<use xlink:href="#f0_6" transform="matrix(12,0,0,12,284.3,1151.9)" />
<use xlink:href="#f0_a" transform="matrix(12,0,0,12,295.9,1151.9)" />
<use xlink:href="#f0_c" transform="matrix(12,0,0,12,307.7,1151.9)" />
<use xlink:href="#f0_e" transform="matrix(12,0,0,12,323.7,1151.9)" />
<use xlink:href="#f0_b" transform="matrix(12,0,0,12,339.5,1151.9)" />
<use xlink:href="#f0_i" transform="matrix(12,0,0,12,345.3,1151.9)" />
<use xlink:href="#f0_i" transform="matrix(12,0,0,12,351,1151.9)" />
<use xlink:href="#f0_17" transform="matrix(12,0,0,12,361.5,1151.9)" />
<use xlink:href="#f0_3" transform="matrix(12,0,0,12,372.7,1151.9)" />
<use xlink:href="#f0_j" transform="matrix(12,0,0,12,387.3,1151.9)" />
<use xlink:href="#f0_b" transform="matrix(12,0,0,12,404.6,1151.9)" />
<use xlink:href="#f0_a" transform="matrix(12,0,0,12,410.4,1151.9)" />
<use xlink:href="#f0_b" transform="matrix(12,0,0,12,422.2,1151.9)" />
<use xlink:href="#f0_j" transform="matrix(12,0,0,12,428.1,1151.9)" />
<use xlink:href="#f0_6" transform="matrix(12,0,0,12,445.4,1151.9)" />
<use xlink:href="#f0_j" transform="matrix(12,0,0,12,457,1151.9)" />
<use xlink:href="#f0_f" transform="matrix(12,0,0,12,479.1,1151.9)" />
<use xlink:href="#f0_4" transform="matrix(12,0,0,12,489.4,1151.9)" />
<use xlink:href="#f0_4" transform="matrix(12,0,0,12,500.6,1151.9)" />
<use xlink:href="#f0_b" transform="matrix(12,0,0,12,507,1151.9)" />
<use xlink:href="#f0_j" transform="matrix(12,0,0,12,512.9,1151.9)" />
<use xlink:href="#f0_3" transform="matrix(12,0,0,12,530.2,1151.9)" />
<use xlink:href="#f0_7" transform="matrix(12,0,0,12,540,1151.9)" />
</g>
</g>
<g fill="#000000" >
<use xlink:href="#f1_n" transform="matrix(12,0,0,12,835.7,1269.6)" />
<use xlink:href="#f1_k" transform="matrix(12,0,0,12,844.9,1269.6)" />
</g>
<defs>
<path d="M421,0L142,946c0,0,-8,23,-17,39c0,0,-10,16,-22,25c0,0,-13,9,-30,13c0,0,-17,3,-39,3H13v65H434v-65H399c0,0,-46,0,-69,-17c0,0,-23,-18,-23,-56c0,0,0,-12,4,-26c0,0,3,-14,8,-30L460,408c0,0,18,-70,36,-136c0,0,16,-68,30,-122c0,0,11,59,27,130c0,0,14,71,35,144l182,656H880L1071,419c0,0,21,-77,39,-146c0,0,16,-71,27,-123c0,0,11,54,26,116c0,0,13,61,35,135l134,471c0,0,2,9,6,20c0,0,3,11,5,23c0,0,2,10,4,20c0,0,1,10,2,17c0,0,0,39,-25,57c0,0,-26,17,-76,17h-35v65h373v-65h-29c0,0,-23,0,-39,-4c0,0,-17,-5,-31,-17c0,0,-13,-13,-24,-36c0,0,-11,-24,-23,-61L1182,0H1045L796,856L562,0Z" 
id="f0_14"
transform="scale(0.001,-0.001)" />

<path d="M28,0V64H40c0,0,25,0,49,4c0,0,22,3,39,16c0,0,17,11,27,32c0,0,10,21,10,58V993c0,0,0,33,-10,54c0,0,-11,21,-27,32c0,0,-18,11,-40,15c0,0,-24,3,-48,3H28v64H308V825c0,0,0,-22,0,-43c0,0,-1,-24,-4,-43c0,0,0,-23,0,-44h6c0,0,68,139,225,139c0,0,65,-1,115,-17c0,0,50,-18,85,-54c0,0,34,-37,52,-93c0,0,18,-58,18,-135V174c0,0,0,-37,9,-58c0,0,9,-21,24,-32c0,0,16,-13,38,-16c0,0,21,-4,47,-4h4V0H662V527c0,0,0,50,-9,89c0,0,-10,39,-29,66c0,0,-20,26,-52,41c0,0,-33,13,-78,13c0,0,-49,0,-82,-17c0,0,-35,-18,-58,-50c0,0,-24,-33,-34,-78c0,0,-11,-46,-11,-102V166c0,0,0,-33,10,-53c0,0,10,-22,27,-32c0,0,17,-10,40,-13c0,0,22,-4,48,-4h5V0Z" 
id="f0_n"
transform="scale(0.001,-0.001)" />

<path d="M586,481c0,0,0,60,-9,111c0,0,-9,50,-29,85c0,0,-19,36,-51,56c0,0,-33,18,-79,19c0,0,-87,-1,-133,-69c0,0,-46,-69,-46,-202ZM439,-14c0,0,-83,0,-149,27c0,0,-66,28,-112,82c0,0,-46,53,-69,132c0,0,-25,77,-25,177c0,0,0,213,88,322c0,0,88,108,251,108c0,0,73,0,133,-23c0,0,58,-24,100,-69c0,0,41,-46,63,-114c0,0,21,-69,22,-159V399H233c0,0,0,-84,15,-143c0,0,15,-61,44,-99c0,0,28,-40,71,-57c0,0,40,-19,93,-19c1,0,2,0,4,0c0,0,38,0,73,9c0,0,33,9,62,24c0,0,26,14,48,34c0,0,21,18,35,40c0,0,10,-4,20,-19c0,0,9,-15,9,-33c0,0,0,-24,-16,-49c0,0,-17,-27,-50,-50C641,37,607,14,557,0c0,0,-50,-14,-118,-14Z" 
id="f0_3"
transform="scale(0.001,-0.001)" />

<path d="M51,0V64h4c0,0,26,0,49,4c0,0,23,3,40,16c0,0,16,11,27,32c0,0,10,21,10,58V650c0,0,0,33,-10,55c0,0,-11,20,-28,31c0,0,-17,11,-39,15c0,0,-24,3,-49,4H51v64H286L315,668h7c0,0,14,34,31,65c0,0,15,29,39,53c0,0,22,22,56,35c0,0,33,12,84,13c0,0,83,0,124,-29c0,0,41,-30,41,-82c0,0,0,-24,-8,-44c0,0,-9,-20,-25,-34c0,0,-17,-15,-44,-23c0,0,-27,-8,-66,-8c0,0,0,63,-18,92c0,0,-18,27,-62,27c0,0,-29,0,-51,-15c0,0,-22,-18,-39,-43c0,0,-17,-27,-28,-61c0,0,-13,-35,-19,-70c0,0,-8,-37,-10,-73c0,0,-4,-35,-3,-64V166c0,0,0,-33,10,-53c0,0,10,-22,27,-32c0,0,16,-10,40,-13c0,0,22,-4,48,-4h43V0Z" 
id="f0_d"
transform="scale(0.001,-0.001)" />

<path d="M46,-234v64c0,0,74,23,110,58c0,0,34,35,35,79c0,0,-1,15,-8,26c0,0,-9,8,-21,17c0,0,-13,6,-27,15c0,0,-15,7,-27,18c0,0,-13,9,-21,26c0,0,-8,14,-8,38c0,0,0,43,29,67c0,0,28,23,71,23c0,0,23,-1,45,-8c0,0,20,-9,37,-26c0,0,16,-17,26,-41c0,0,9,-27,9,-58c0,0,0,-48,-13,-93c0,0,-14,-46,-44,-84c0,0,-30,-40,-77,-70c0,0,-49,-31,-116,-51Z" 
id="f0_w"
transform="scale(0.001,-0.001)" />

<path d="M683,442L588,709c0,0,-25,68,-43,127c0,0,-21,59,-33,114c0,0,-6,-28,-12,-53c0,0,-8,-26,-16,-53c0,0,-9,-26,-19,-55c0,0,-10,-31,-23,-66L338,442ZM0,0V64H29c0,0,1,0,3,0c6,0,23,1,35,5c0,0,16,5,28,18c0,0,12,13,25,37c0,0,11,22,25,60l339,907H604L949,145c0,0,8,-23,19,-39c0,0,8,-16,21,-25c0,0,12,-10,29,-13c0,0,17,-4,39,-4h20V0H657V64h35c0,0,92,0,92,73c0,0,0,12,-3,26c0,0,-4,14,-10,31L710,365H309L251,204c0,0,-8,-18,-11,-35c0,0,-4,-18,-4,-30c0,0,0,-40,26,-57c0,0,24,-18,76,-18h35V0Z" 
id="f0_t"
transform="scale(0.001,-0.001)" />

<path d="M99,350v90H755V350Zm0,300v91H755V650Z" 
id="f0_s"
transform="scale(0.001,-0.001)" />

<path d="M78,0V112L333,407c0,0,61,70,103,126c0,0,40,56,66,106c0,0,25,49,37,97c0,0,11,47,11,100c0,0,0,43,-9,79c0,0,-11,35,-29,61c0,0,-19,25,-48,40c0,0,-31,13,-70,13c0,0,-53,0,-84,-18c0,0,-33,-20,-52,-50c0,0,-19,-31,-25,-73c0,0,-7,-41,-7,-86c0,0,-28,0,-51,4c0,0,-24,4,-42,17c0,0,-18,11,-28,30c0,0,-10,19,-10,48c0,0,0,43,19,82c0,0,19,37,57,65c0,0,36,28,93,43c0,0,56,15,130,15c0,0,72,0,130,-18c0,0,56,-19,97,-51c0,0,41,-34,62,-81c0,0,21,-47,21,-105c0,0,-1,-54,-17,-104c0,0,-18,-52,-50,-104c0,0,-33,-54,-80,-111c0,0,-48,-58,-108,-124L191,122H545c7,0,36,1,56,10c0,0,21,10,36,25c0,0,14,15,22,37c0,0,7,20,13,42l6,28h61V0Z" 
id="f0_r"
transform="scale(0.001,-0.001)" />

<path d="M348,79c0,0,46,0,85,15c0,0,36,14,64,42c0,0,25,27,40,66c0,0,14,39,14,87V412H454c0,0,-65,0,-109,-14c0,0,-44,-13,-70,-36c0,0,-27,-25,-39,-59c0,0,-12,-35,-11,-80c0,0,0,-73,30,-108c0,0,29,-36,93,-36ZM313,-14c0,0,-50,0,-94,14c0,0,-44,14,-75,45c0,0,-33,30,-50,77c0,0,-18,47,-18,109c0,0,0,123,87,182c0,0,85,59,261,60H551v93c0,0,0,42,-4,78c0,0,-5,34,-20,60c0,0,-15,26,-42,40c0,0,-28,14,-75,14c0,0,-44,0,-71,-12c0,0,-29,-13,-43,-35c0,0,-16,-23,-21,-53c0,0,-6,-31,-5,-66c0,0,-64,0,-96,21c0,0,-34,21,-34,75c0,0,0,39,22,67c0,0,21,28,60,45c0,0,36,17,87,26c0,0,49,7,107,8c0,0,69,0,122,-13c0,0,52,-15,87,-46c0,0,34,-31,53,-81c0,0,17,-52,17,-124V174c0,0,0,-33,5,-53c0,0,6,-22,17,-34c0,0,10,-12,30,-18c0,0,15,-5,38,-5c2,0,3,0,5,0h4V0H588L564,131H551c0,0,-24,-33,-46,-59c0,0,-22,-27,-49,-46C456,26,429,6,395,-3c0,0,-35,-11,-82,-11Z" 
id="f0_f"
transform="scale(0.001,-0.001)" />

<path d="M557,-14c-2,0,-4,0,-6,0c0,0,-115,0,-200,39c0,0,-87,41,-145,115c0,0,-60,73,-89,177c0,0,-30,103,-30,230c0,0,0,124,32,227c0,0,31,103,93,176c0,0,61,73,153,115c0,0,92,41,212,41c0,0,79,0,137,-12c0,0,57,-14,96,-37c0,0,38,-24,58,-54c0,0,18,-32,18,-68c0,0,0,-26,-9,-44c0,0,-11,-20,-29,-34c0,0,-18,-15,-42,-21c0,0,-23,-8,-49,-8c-1,0,-2,0,-4,0c0,0,0,36,-9,71c0,0,-10,34,-30,63c0,0,-22,28,-55,46c0,0,-35,16,-85,17c0,0,-86,0,-147,-31c0,0,-60,-33,-98,-93c0,0,-39,-62,-55,-150c0,0,-17,-89,-17,-204c0,0,0,-102,18,-187c0,0,17,-85,56,-146c0,0,39,-62,99,-95c0,0,59,-33,144,-33c0,0,56,0,100,11c0,0,42,10,75,28c0,0,32,18,58,42c0,0,25,22,44,49c0,0,12,-9,21,-23c0,0,8,-15,8,-37c0,0,0,-29,-19,-59c0,0,-20,-31,-61,-55C800,42,759,17,698,1c0,0,-59,-15,-141,-15Z" 
id="f0_12"
transform="scale(0.001,-0.001)" />

<path d="M442,64c0,0,56,0,97,23c0,0,38,22,64,66c0,0,24,43,36,108c0,0,9,65,10,150c0,0,0,85,-11,149c0,0,-11,64,-36,108c0,0,-25,42,-64,64c0,0,-41,21,-98,21c0,0,-58,0,-97,-21c0,0,-39,-22,-64,-64c0,0,-25,-44,-36,-108c0,0,-11,-64,-11,-149c0,0,0,-85,11,-150c0,0,11,-65,37,-108c0,0,24,-44,65,-66c0,0,38,-23,97,-23Zm-3,-78c0,0,-83,0,-149,25c0,0,-66,26,-111,79c0,0,-47,52,-70,134c0,0,-25,79,-25,187c0,0,0,213,91,319c0,0,90,103,268,104c0,0,82,0,149,-25c0,0,65,-26,111,-79c0,0,46,-53,71,-132c0,0,23,-80,23,-187c0,0,0,-216,-91,-321C706,90,614,-14,439,-14Z" 
id="f0_9"
transform="scale(0.001,-0.001)" />

<path d="M321,-14c0,0,-58,0,-104,11c0,0,-48,7,-80,29c0,0,-33,20,-50,51c0,0,-18,30,-18,70c0,0,0,30,10,51c0,0,10,20,25,33c0,0,14,11,31,17c0,0,16,4,30,4c0,0,0,-41,8,-75c0,0,8,-36,28,-61c0,0,18,-28,51,-42c0,0,31,-16,78,-16c0,0,41,0,72,11c0,0,31,9,53,28c0,0,21,18,32,44c0,0,11,25,11,56c0,0,0,28,-8,49c0,0,-9,20,-30,38c0,0,-21,17,-58,37c0,0,-37,18,-92,42c0,0,-59,26,-102,51c0,0,-45,23,-72,52c0,0,-29,28,-43,65c0,0,-15,35,-14,86c0,0,-1,52,21,92c0,0,20,40,58,68c0,0,38,26,91,41c0,0,52,15,118,15c0,0,54,0,96,-12c0,0,41,-11,70,-30c0,0,28,-19,43,-44c0,0,14,-27,14,-55c0,0,-1,-42,-28,-66c0,0,-29,-25,-80,-25c-1,0,-2,0,-2,0c0,0,0,76,-32,119c0,0,-32,42,-100,42c0,0,-39,0,-66,-9c0,0,-28,-9,-45,-25c0,0,-18,-17,-26,-39c0,0,-8,-22,-8,-49c0,0,0,-29,10,-50c0,0,10,-22,34,-39c0,0,22,-18,59,-35c0,0,36,-17,86,-38c0,0,60,-26,104,-50c0,0,43,-24,72,-54c0,0,27,-29,41,-65c0,0,13,-37,13,-84c0,0,-1,-60,-21,-105c0,0,-23,-45,-62,-74C539,46,499,14,445,0c0,0,-56,-14,-124,-14Z" 
id="f0_7"
transform="scale(0.001,-0.001)" />

<path d="M58,0V64H78c0,0,25,0,49,4c0,0,22,3,39,16c0,0,17,11,27,32c0,0,10,21,10,58V923c0,0,0,33,-10,54c0,0,-11,20,-27,32c0,0,-18,11,-40,14c0,0,-24,3,-48,3H58v65H338L885,246V923c0,0,0,33,-10,54c0,0,-11,20,-28,32c0,0,-17,11,-39,14c0,0,-24,3,-49,3H739v65h384v-65h-20c0,0,-26,0,-48,-3c0,0,-24,-4,-40,-15c0,0,-18,-13,-27,-34c0,0,-11,-21,-10,-57V0H869L296,880V174c0,0,0,-37,11,-58c0,0,9,-21,26,-32c0,0,16,-13,40,-16c0,0,22,-4,48,-4h21V0Z" 
id="f0_15"
transform="scale(0.001,-0.001)" />

<path d="M315,0L115,674c0,0,-9,23,-19,39c0,0,-10,15,-22,26c0,0,-13,8,-29,12c0,0,-17,3,-39,4H1v64H379V755H359c0,0,-46,0,-69,-13c0,0,-24,-15,-23,-51c0,0,0,-13,5,-31c0,0,3,-18,8,-35L351,369c0,0,8,-29,16,-61c0,0,7,-33,16,-65c0,0,6,-33,12,-61c0,0,6,-29,10,-48h5c0,0,3,19,10,46c0,0,5,24,15,55c0,0,7,29,18,60c0,0,9,30,19,58L631,815h96L880,362c0,0,9,-29,20,-59c0,0,9,-33,18,-63c0,0,9,-31,17,-59c0,0,7,-28,11,-47h4c0,0,7,38,22,94c0,0,14,55,38,129l76,247c0,0,5,18,11,41c0,0,3,21,3,35c0,0,0,38,-24,57c0,0,-26,18,-77,18H988v64h327V755h-19c0,0,-23,0,-39,-5c0,0,-17,-5,-29,-17c0,0,-14,-13,-25,-36c0,0,-11,-24,-22,-61L984,0H862L680,538L652,639L436,0Z" 
id="f0_e"
transform="scale(0.001,-0.001)" />

<path d="M43,0V64H63c0,0,25,0,47,4c0,0,21,3,38,16c0,0,15,11,24,32c0,0,8,21,9,58V650c0,0,0,33,-9,55c0,0,-9,20,-25,31c0,0,-16,11,-37,15c0,0,-22,3,-47,4H58v64H298L318,695h7c0,0,23,42,49,70c0,0,25,27,54,43c0,0,28,14,61,21c0,0,31,5,67,5c0,0,36,0,71,-7c0,0,33,-9,62,-24c0,0,28,-17,52,-43c0,0,21,-27,36,-65h13c0,0,23,42,50,70c0,0,27,27,57,43c0,0,30,14,64,21c0,0,32,5,68,5c0,0,59,-1,105,-17c0,0,45,-18,78,-54c0,0,32,-37,49,-93c0,0,17,-58,18,-135V174c0,0,0,-37,9,-58c0,0,9,-21,24,-32c0,0,16,-13,37,-16c0,0,21,-4,47,-4h5V0H1135V527c0,0,0,50,-8,89c0,0,-9,39,-27,66c0,0,-21,26,-50,41c0,0,-32,13,-75,13c0,0,-48,0,-80,-18c0,0,-33,-19,-53,-50c0,0,-21,-31,-28,-72c0,0,-9,-42,-9,-87V174c0,0,0,-37,9,-58c0,0,9,-21,24,-32c0,0,16,-13,38,-16c0,0,21,-4,47,-4h4V0H662V527c0,0,-1,50,-9,89c0,0,-8,39,-27,66c0,0,-20,26,-50,41c0,0,-31,13,-75,13c0,0,-50,0,-83,-20c0,0,-35,-20,-55,-54c0,0,-22,-35,-30,-79c0,0,-9,-45,-9,-94V166c0,0,0,-33,10,-53c0,0,10,-22,27,-32c0,0,16,-10,40,-13c0,0,22,-4,48,-4h5V0Z" 
id="f0_j"
transform="scale(0.001,-0.001)" />

<path d="M518,83c0,0,50,0,86,21c0,0,35,21,58,63c0,0,23,41,33,104c0,0,10,61,11,142c0,0,-1,80,-11,142c0,0,-10,60,-33,101c0,0,-23,40,-58,60c0,0,-38,20,-88,20c0,0,-60,0,-99,-19c0,0,-41,-20,-64,-61c0,0,-24,-40,-34,-101c0,0,-10,-62,-10,-144c0,0,0,-80,10,-141c0,0,10,-62,35,-103c0,0,23,-42,64,-63c0,0,39,-21,100,-21ZM28,-366v64H40c0,0,25,0,49,4c0,0,22,3,39,16c0,0,17,11,27,33c0,0,10,21,10,58V650c0,0,0,33,-10,55c0,0,-11,20,-27,31c0,0,-18,11,-40,15c0,0,-24,3,-48,4H20v64H287L303,681h6c0,0,16,34,39,63c0,0,21,28,50,49c0,0,27,19,64,31c0,0,36,9,80,10c0,0,75,0,134,-25c0,0,58,-26,98,-76c0,0,38,-53,60,-132c0,0,20,-80,20,-190c0,0,0,-111,-20,-191c0,0,-22,-80,-60,-133c0,0,-40,-53,-98,-77c0,0,-57,-24,-131,-24c-1,0,-2,0,-3,0h-2c-8,0,-46,1,-77,10c0,0,-37,8,-65,26c0,0,-29,18,-50,43c0,0,-23,24,-39,54h-3c0,0,0,-39,0,-73c0,0,0,-15,0,-30c0,0,0,-15,0,-28c0,0,0,-14,0,-24c0,0,0,-11,0,-17V-199c0,0,0,-33,10,-54c0,0,10,-21,28,-31c0,0,17,-11,41,-14c0,0,23,-4,49,-4h5v-64Z" 
id="f0_k"
transform="scale(0.001,-0.001)" />

<path d="M20,0V64H40c0,0,25,0,49,4c0,0,22,3,39,16c0,0,17,11,27,32c0,0,10,21,10,58V993c0,0,0,33,-10,54c0,0,-11,21,-27,32c0,0,-18,11,-40,15c0,0,-24,3,-48,3H20v64H309V174c0,0,-1,-37,10,-58c0,0,9,-21,26,-32c0,0,17,-13,41,-16c0,0,22,-4,48,-4h20V0Z" 
id="f0_i"
transform="scale(0.001,-0.001)" />

<path d="M35,0V64H55c0,0,25,0,49,4c0,0,22,3,39,13c0,0,17,10,28,32c0,0,10,20,10,53V650c0,0,0,33,-10,55c0,0,-11,20,-28,31c0,0,-17,11,-39,15c0,0,-24,3,-49,4H51v64H324V174c0,0,0,-37,10,-58c0,0,10,-21,27,-32c0,0,16,-13,40,-16c0,0,22,-4,48,-4h20V0ZM249,972c-1,0,-2,0,-3,0c0,0,-1,0,-2,0c-5,0,-20,0,-32,5c0,0,-16,5,-28,16c0,0,-12,11,-18,29c0,0,-7,18,-7,45c0,0,0,27,7,45c0,0,6,17,18,29c0,0,12,11,28,15c0,0,15,5,34,5c0,0,18,0,34,-5c0,0,15,-4,27,-15c0,0,11,-12,19,-29c0,0,7,-18,7,-45c0,0,0,-27,-7,-45c0,0,-8,-18,-19,-29c0,0,-12,-11,-27,-16c0,0,-14,-5,-31,-5Z" 
id="f0_b"
transform="scale(0.001,-0.001)" />

<path d="M367,-14c0,0,-59,0,-100,13c0,0,-42,10,-69,38c0,0,-27,27,-39,73c0,0,-14,45,-14,112V732H29v61c0,0,28,0,61,11c0,0,32,11,58,37c0,0,26,28,43,68c0,0,15,38,28,98h70V819H489V732H289V217c0,0,-1,-78,32,-115c0,0,30,-36,83,-36c0,0,1,0,1,0c0,0,2,0,6,0c9,0,28,0,45,3c0,0,23,3,47,7V9C503,9,492,4,477,0c0,0,-15,-3,-33,-6c0,0,-20,-5,-39,-6c0,0,-20,-2,-38,-2Z" 
id="f0_4"
transform="scale(0.001,-0.001)" />

<path d="M417,-14c0,0,-60,0,-107,16c0,0,-47,17,-79,54c0,0,-33,36,-49,93c0,0,-17,57,-17,135V650c0,0,0,33,-10,55c0,0,-11,20,-27,31c0,0,-18,11,-40,15c0,0,-24,3,-48,4H35v64H309V292c0,0,0,-51,8,-89c0,0,7,-40,26,-66c0,0,18,-27,49,-40c0,0,29,-14,74,-14c1,0,2,0,3,0c0,0,50,0,88,18c0,0,35,18,59,50c0,0,23,32,34,78c0,0,12,46,12,101V645c0,0,0,35,-10,58c0,0,-10,21,-27,33c0,0,-17,11,-39,15c0,0,-24,3,-50,4h-4v64H805V166c0,0,0,-33,10,-53c0,0,10,-22,27,-32c0,0,17,-10,41,-13c0,0,21,-4,47,-4h5V0H692L672,124h-7c0,0,-24,-44,-51,-70c0,0,-28,-28,-60,-42c0,0,-31,-15,-65,-20c0,0,-35,-6,-72,-6Z" 
id="f0_6"
transform="scale(0.001,-0.001)" />

<path d="M421,83c0,0,59,0,100,20c0,0,39,19,65,60c0,0,23,39,34,101c0,0,10,61,10,144c0,0,0,79,-10,141c0,0,-11,61,-34,103c0,0,-25,41,-65,63c0,0,-41,21,-101,21c0,0,-51,0,-86,-21c0,0,-36,-23,-58,-64c0,0,-24,-42,-34,-103c0,0,-10,-62,-10,-141c0,0,0,-163,44,-244c0,0,43,-80,145,-80ZM395,-14c-8,0,-78,1,-133,24c0,0,-59,24,-98,77c0,0,-39,52,-60,132c0,0,-20,79,-20,189c0,0,0,110,20,191c0,0,21,80,60,133c0,0,39,51,98,77c0,0,58,25,133,25c0,0,44,0,80,-10c0,0,36,-10,65,-27c0,0,28,-18,51,-43c0,0,21,-24,39,-54h4c0,0,0,36,0,70c0,0,0,27,0,57c0,0,0,27,0,41V993c0,0,-1,33,-10,54c0,0,-11,21,-29,32c0,0,-18,11,-41,15c0,0,-24,3,-49,3H492v64H773V168c0,0,0,-34,10,-54c0,0,10,-21,27,-32c0,0,17,-11,40,-14c0,0,22,-4,48,-4h13V0H652L636,137h-6c0,0,-18,-35,-39,-62c0,0,-23,-29,-51,-48C540,27,512,6,476,-3c0,0,-36,-11,-81,-11Z" 
id="f0_c"
transform="scale(0.001,-0.001)" />

<path d="M7,0V64H22c0,0,26,0,48,5c0,0,20,4,40,15c0,0,18,11,37,31c0,0,19,19,41,47L380,411L188,674c0,0,-34,38,-65,60c0,0,-33,21,-66,21H37v64H424V755h-4c0,0,-27,0,-43,-3c0,0,-17,-5,-27,-10c0,0,-11,-7,-14,-15c0,0,-3,-8,-3,-17c0,0,-1,-16,9,-30c0,0,9,-17,27,-40L469,503l79,114c0,0,17,25,28,49c0,0,10,23,10,44c0,0,0,28,-23,37c0,0,-24,7,-59,8h-4v64H834V755H821c0,0,-23,-1,-41,-4c0,0,-19,-4,-36,-14c0,0,-17,-11,-36,-30c0,0,-19,-20,-42,-50L509,448L733,145c0,0,34,-44,64,-62c0,0,29,-19,57,-19q1,0,2,0h20V0H481V64h8c0,0,91,0,91,51c0,0,0,7,-2,17c0,0,-2,8,-9,20c0,0,-7,11,-18,28c0,0,-11,16,-29,40L420,357L313,208c0,0,-6,-9,-14,-21c0,0,-8,-12,-13,-24c0,0,-7,-14,-10,-26c0,0,-4,-13,-4,-25c0,0,0,-27,22,-37c0,0,21,-11,73,-11h4V0Z" 
id="f0_16"
transform="scale(0.001,-0.001)" />

<path d="M43,0V64H55c0,0,26,0,49,4c0,0,23,3,40,16c0,0,16,11,27,32c0,0,10,21,10,58V650c0,0,0,33,-10,55c0,0,-11,20,-28,31c0,0,-17,11,-39,15c0,0,-24,3,-49,4H51v64H298L318,695h7c0,0,23,42,51,70c0,0,25,27,56,43c0,0,29,14,63,21c0,0,32,5,69,5c0,0,60,-1,108,-17c0,0,47,-18,81,-54c0,0,32,-37,50,-93c0,0,17,-58,18,-135V174c0,0,0,-37,9,-58c0,0,7,-21,23,-32c0,0,16,-13,38,-16c0,0,21,-4,47,-4h5V0H677V527c0,0,0,50,-9,89c0,0,-10,39,-29,66c0,0,-20,26,-52,41c0,0,-33,13,-78,13c0,0,-53,0,-88,-20c0,0,-36,-20,-57,-54c0,0,-22,-35,-31,-79c0,0,-10,-45,-9,-94V166c0,0,0,-33,10,-53c0,0,10,-22,27,-32c0,0,16,-10,40,-13c0,0,22,-4,48,-4h5V0Z" 
id="f0_a"
transform="scale(0.001,-0.001)" />

<path d="M222,-9c-1,0,-2,0,-3,0c0,0,-1,0,-3,0c-6,0,-22,0,-35,5c0,0,-18,4,-30,16c0,0,-14,12,-21,32c0,0,-8,20,-8,49c0,0,0,30,8,50c0,0,7,19,21,32c0,0,12,11,30,17c0,0,17,5,38,5c0,0,18,0,37,-5c0,0,16,-6,30,-17c0,0,12,-13,21,-32c0,0,8,-20,8,-50c0,0,0,-29,-8,-49c0,0,-9,-20,-21,-32C286,12,272,0,256,-4c0,0,-17,-5,-34,-5Z" 
id="f0_o"
transform="scale(0.001,-0.001)" />

<path d="M58,-366v72h1c8,0,79,1,133,23c0,0,55,24,97,64c0,0,39,40,68,95c0,0,26,55,45,118L119,674c0,0,-10,23,-20,39c0,0,-10,14,-21,25c0,0,-13,9,-29,13c0,0,-17,3,-39,4H6v64H373V755h-4c0,0,-47,0,-69,-18c0,0,-24,-18,-23,-56c0,0,-1,-13,3,-25c0,0,2,-14,9,-31L401,353c0,0,9,-27,22,-57c0,0,11,-31,22,-61c0,0,9,-31,18,-57c0,0,7,-28,11,-47h4c0,0,8,34,23,82c0,0,14,48,34,103L637,614c0,0,7,19,11,36c0,0,2,16,2,30c0,0,0,38,-24,57c0,0,-26,18,-76,18h-5v64H863V755h-4c0,0,-23,0,-38,-5c0,0,-18,-6,-30,-18c0,0,-13,-14,-24,-37c0,0,-11,-24,-25,-59L510,-5c0,0,-27,-74,-50,-130c0,0,-25,-56,-50,-95c0,0,-27,-41,-57,-67c0,0,-32,-26,-71,-41c0,0,-40,-17,-91,-22c0,0,-51,-6,-119,-6Z" 
id="f0_p"
transform="scale(0.001,-0.001)" />

<path d="M41,0V64H61c0,0,26,0,49,4c0,0,23,3,40,16c0,0,16,11,27,32c0,0,9,21,9,58V747H47v72H186v76c0,0,0,68,19,121c0,0,19,52,54,88c0,0,34,35,85,55c0,0,50,17,113,17c0,0,58,0,100,-7c0,0,41,-8,67,-22c0,0,24,-15,35,-34c0,0,12,-20,12,-43c0,0,0,-22,-9,-37c0,0,-11,-17,-26,-27c0,0,-18,-11,-40,-16c0,0,-24,-6,-51,-6c0,0,0,23,-4,45c0,0,-6,21,-17,39c0,0,-12,17,-31,28c0,0,-19,10,-48,10c0,0,-34,0,-55,-12c0,0,-22,-13,-36,-38c0,0,-13,-26,-18,-62c0,0,-6,-37,-6,-85V819H545V747H330V174c0,0,0,-37,10,-58c0,0,10,-21,27,-32c0,0,16,-13,40,-16c0,0,22,-4,48,-4h58V0Z" 
id="f0_g"
transform="scale(0.001,-0.001)" />

<path d="M518,83c0,0,50,0,86,21c0,0,35,21,58,63c0,0,23,41,33,104c0,0,10,61,11,142c0,0,-1,80,-11,142c0,0,-10,60,-33,101c0,0,-23,40,-58,60c0,0,-38,20,-88,20c0,0,-60,0,-99,-19c0,0,-41,-20,-64,-61c0,0,-24,-40,-34,-101c0,0,-10,-62,-10,-144c0,0,0,-80,10,-141c0,0,10,-62,35,-103c0,0,23,-42,64,-63c0,0,39,-21,100,-21Zm27,-97c-1,0,-2,0,-3,0h-2c-8,0,-46,1,-77,10c0,0,-37,8,-65,26c0,0,-29,18,-50,43c0,0,-23,24,-39,54H299L272,0H28V64H40c0,0,25,0,49,4c0,0,22,3,39,16c0,0,17,11,27,32c0,0,10,21,10,58V993c0,0,0,33,-10,54c0,0,-11,21,-27,32c0,0,-18,11,-40,15c0,0,-24,3,-48,3H28v64H306V880c0,0,0,-26,0,-59c0,0,0,-35,0,-66c0,0,0,-36,0,-74h3c0,0,16,34,39,63c0,0,21,28,50,49c0,0,27,19,64,31c0,0,36,9,80,10c0,0,75,0,134,-25c0,0,58,-26,98,-76c0,0,38,-53,60,-132c0,0,20,-80,20,-190c0,0,0,-111,-20,-191c0,0,-22,-80,-60,-133c0,0,-40,-53,-98,-77c0,0,-57,-24,-131,-24Z" 
id="f0_17"
transform="scale(0.001,-0.001)" />

<path d="M229,0V64h35c0,0,25,0,49,4c0,0,22,3,39,13c0,0,17,10,28,32c0,0,9,20,9,53v849H243c0,0,-33,0,-56,-10c0,0,-24,-11,-37,-28c0,0,-15,-17,-22,-39c0,0,-8,-24,-10,-49l-8,-65H34v267H902V824H827l-8,65c0,0,-4,25,-10,49c0,0,-9,22,-22,39c0,0,-15,17,-37,28c0,0,-24,10,-58,10H544V174c0,0,0,-37,10,-58c0,0,10,-21,27,-32c0,0,16,-13,40,-16c0,0,22,-4,48,-4h35V0Z" 
id="f0_18"
transform="scale(0.001,-0.001)" />

<path d="M365,0L119,674c0,0,-9,23,-18,39c0,0,-11,15,-23,26c0,0,-12,8,-29,12c0,0,-17,3,-39,4H6v64H388V755H369c0,0,-47,0,-69,-18c0,0,-24,-18,-23,-56c0,0,-1,-13,3,-25c0,0,3,-14,9,-31L392,336c0,0,10,-26,21,-58c0,0,9,-33,20,-65c0,0,8,-31,16,-59c0,0,7,-29,11,-47h5c0,0,3,16,12,41c0,0,8,23,20,53c0,0,10,27,22,58c0,0,11,29,22,57L650,614c0,0,8,19,12,36c0,0,3,16,3,30c0,0,0,38,-25,57c0,0,-26,18,-76,18H553v64H880V755H862c0,0,-23,0,-38,-5c0,0,-17,-6,-29,-18c0,0,-12,-14,-24,-37c0,0,-12,-24,-26,-59L504,0Z" 
id="f0_v"
transform="scale(0.001,-0.001)" />

<path d="M433,-14c0,0,-77,0,-141,23c0,0,-64,23,-110,74c0,0,-46,50,-72,130c0,0,-26,79,-26,192c0,0,0,122,26,205c0,0,26,82,72,132c0,0,46,49,108,71c0,0,61,21,134,21c0,0,47,0,96,-9c0,0,47,-10,85,-29c0,0,38,-19,62,-49c0,0,23,-30,24,-69c0,0,0,-54,-35,-74c0,0,-35,-22,-102,-22c0,0,0,35,-6,68c0,0,-6,32,-20,56c0,0,-15,24,-39,38c0,0,-26,14,-65,14c0,0,-44,0,-79,-16c0,0,-35,-18,-61,-57c0,0,-26,-40,-39,-108c0,0,-13,-69,-13,-170c0,0,-1,-164,54,-243c0,0,54,-80,177,-80h1c6,0,72,1,123,30c0,0,52,30,79,77c0,0,11,-10,19,-24c0,0,7,-15,7,-36c0,0,0,-27,-16,-52c0,0,-17,-26,-49,-47C627,32,594,10,546,0c0,0,-48,-14,-113,-14Z" 
id="f0_8"
transform="scale(0.001,-0.001)" />

<path d="M58,0V64H78c0,0,24,0,48,4c0,0,22,3,40,13c0,0,16,10,27,32c0,0,10,20,10,53V923c0,0,0,33,-10,54c0,0,-11,20,-27,32c0,0,-18,11,-40,14c0,0,-24,3,-48,3H58v65H407L723,217l313,874h339v-65h-20c0,0,-26,0,-48,-3c0,0,-24,-4,-40,-15c0,0,-17,-13,-27,-34c0,0,-11,-21,-10,-57V174c0,0,-1,-37,10,-58c0,0,10,-21,27,-32c0,0,16,-13,40,-16c0,0,22,-4,48,-4h20V0H968V64h6c0,0,24,0,44,4c0,0,20,3,34,13c0,0,14,10,22,29c0,0,8,19,8,50V976L733,0H650L296,974V174c0,0,-1,-37,8,-58c0,0,7,-21,22,-32c0,0,13,-13,35,-16c0,0,19,-4,46,-4h4V0Z" 
id="f0_19"
transform="scale(0.001,-0.001)" />

<path d="M382,-14c-2,0,-3,0,-5,0c0,0,-75,0,-131,15c0,0,-57,15,-95,44c0,0,-40,27,-58,68c0,0,-20,38,-20,87c0,0,0,45,29,75c0,0,29,27,82,28c0,0,0,-49,13,-92c0,0,12,-44,36,-77c0,0,24,-34,64,-54c0,0,38,-20,92,-20c6,0,104,0,161,50c0,0,58,49,58,142c0,0,0,41,-12,74c0,0,-13,31,-39,60c0,0,-29,26,-73,52c0,0,-46,24,-113,52c0,0,-71,29,-123,63c0,0,-54,32,-88,74c0,0,-36,39,-53,90c0,0,-17,50,-17,113c0,0,0,65,26,117c0,0,24,51,69,87c0,0,44,34,106,54c0,0,60,18,133,18c0,0,68,0,122,-14c0,0,52,-15,90,-38c0,0,36,-25,56,-54c0,0,18,-32,18,-65c0,0,0,-50,-32,-74c0,0,-33,-26,-86,-26c0,0,-1,1,-2,1c0,0,-1,35,-8,70c0,0,-9,34,-29,62c0,0,-21,27,-53,44c0,0,-34,17,-81,17c0,0,-45,0,-79,-11c0,0,-36,-13,-59,-36c0,0,-24,-23,-36,-55c0,0,-13,-33,-13,-71c0,0,-1,-47,12,-80c0,0,12,-35,40,-63c0,0,27,-28,73,-53c0,0,46,-26,112,-52c0,0,67,-28,120,-58c0,0,52,-32,89,-68c0,0,37,-39,56,-84c0,0,19,-47,19,-106c0,0,0,-73,-26,-129c0,0,-27,-59,-76,-97C651,66,602,26,533,6c0,0,-67,-20,-151,-20Z" 
id="f0_11"
transform="scale(0.001,-0.001)" />

<path d="M238,-17c0,0,-103,0,-139,25C99,8,62,33,62,62c0,0,0,22,17,38c0,0,18,16,42,16c0,0,19,0,38,-6c0,0,13,-3,58,-27c0,0,45,-23,62,-28c0,0,27,-8,59,-8c0,0,76,0,132,59c0,0,56,59,56,140c0,0,0,59,-26,115c0,0,-19,41,-42,63c0,0,-32,30,-88,54c0,0,-56,25,-114,25H232v22c0,0,59,8,118,42c0,0,59,35,86,85c0,0,27,49,27,108c0,0,0,76,-48,124c0,0,-48,47,-120,47c0,0,-116,0,-193,-124L77,819c0,0,44,102,110,158c0,0,66,56,164,56c0,0,122,0,187,-80c0,0,49,-58,49,-126c0,0,0,-110,-139,-228c0,0,93,-36,141,-104c0,0,48,-68,48,-160c0,0,0,-131,-84,-227C553,108,444,-17,238,-17Z" 
id="f1_n"
transform="scale(0.001,-0.001)" />

<path d="M379,29c0,0,41,0,84,37c0,0,43,36,65,121c0,0,34,128,34,362c0,0,0,173,-35,288c0,0,-27,86,-69,122c0,0,-31,25,-74,25c0,0,-51,0,-90,-46c0,0,-54,-62,-73,-195c0,0,-20,-132,-20,-261c0,0,0,-209,52,-341c0,0,42,-112,126,-112Zm-2,-46c0,0,-145,0,-241,170c0,0,-81,144,-81,347c0,0,0,173,52,298c0,0,52,125,139,186c0,0,67,49,139,49c0,0,116,0,208,-119c0,0,116,-147,116,-398c0,0,0,-176,-51,-299C658,217,608,94,529,38c0,0,-79,-55,-152,-55Z" 
id="f1_k"
transform="scale(0.001,-0.001)" />


</defs>
</svg>