<?xml version="1.0" encoding="UTF-8" standalone="no"?>
<!DOCTYPE svg PUBLIC "-//W3C//DTD SVG 1.1//EN"
"http://www.w3.org/Graphics/SVG/1.1/DTD/svg11.dtd">
<svg viewBox="0 0 909 1286" version="1.1" xmlns="http://www.w3.org/2000/svg" xmlns:xlink="http://www.w3.org/1999/xlink">
<defs>
<clipPath id="c0_82"><path d="M35.1,1194.7V113.1H873.9V1194.7Z" /></clipPath>
</defs>
<g clip-path="url(#c0_82)">
<g fill="#000000" >
<use xlink:href="#f0_s" transform="matrix(12,0,0,12,47.4,136)" />
<use xlink:href="#f0_3" transform="matrix(12,0,0,12,60.3,136)" />
<use xlink:href="#f0_o" transform="matrix(12,0,0,12,66.1,136)" />
<use xlink:href="#f0_1c" transform="matrix(12,0,0,12,79.5,136)" />
<use xlink:href="#f0_19" transform="matrix(12,0,0,12,90.7,136)" />
<use xlink:href="#f0_1c" transform="matrix(12,0,0,12,102.4,136)" />
<use xlink:href="#f0_1c" transform="matrix(12,0,0,12,113.6,136)" />
<use xlink:href="#f0_6" transform="matrix(12,0,0,12,124.8,136)" />
<use xlink:href="#f0_9" transform="matrix(12,0,0,12,130.5,136)" />
<use xlink:href="#f0_q" transform="matrix(12,0,0,12,145.1,136)" />
<use xlink:href="#f0_p" transform="matrix(12,0,0,12,151.8,136)" />
<use xlink:href="#f0_o" transform="matrix(12,0,0,12,162.4,136)" />
<use xlink:href="#f0_a" transform="matrix(12,0,0,12,171,136)" />
<use xlink:href="#f0_9" transform="matrix(12,0,0,12,188.3,136)" />
<use xlink:href="#f0_1e" transform="matrix(12,0,0,12,198.2,136)" />
<use xlink:href="#f0_7" transform="matrix(12,0,0,12,214.2,136)" />
<use xlink:href="#f0_c" transform="matrix(12,0,0,12,224.5,136)" />
<use xlink:href="#f0_7" transform="matrix(12,0,0,12,235.7,136)" />
<use xlink:href="#f0_1e" transform="matrix(12,0,0,12,250.7,136)" />
<use xlink:href="#f0_9" transform="matrix(12,0,0,12,262,136)" />
<use xlink:href="#f0_5" transform="matrix(12,0,0,12,271.8,136)" />
<use xlink:href="#f0_c" transform="matrix(12,0,0,12,283,136)" />
<use xlink:href="#f0_1g" transform="matrix(12,0,0,12,289.5,136)" />
<use xlink:href="#f0_1j" transform="matrix(12,0,0,12,301.1,136)" />
<use xlink:href="#f1_a" transform="matrix(12,0,0,12,310.4,136)" />
<use xlink:href="#f0_n" transform="matrix(12,0,0,12,326.2,136)" />
<use xlink:href="#f0_j" transform="matrix(12,0,0,12,341.1,136)" />
<use xlink:href="#f0_h" transform="matrix(12,0,0,12,351.4,136)" />
<use xlink:href="#f0_8" transform="matrix(12,0,0,12,366.4,136)" />
<use xlink:href="#f0_a" transform="matrix(12,0,0,12,375.4,136)" />
<use xlink:href="#f0_n" transform="matrix(12,0,0,12,397.5,136)" />
<use xlink:href="#f0_h" transform="matrix(12,0,0,12,412.5,136)" />
<use xlink:href="#f0_17" transform="matrix(12,0,0,12,422.7,136)" />
<use xlink:href="#f0_j" transform="matrix(12,0,0,12,427.9,136)" />
<use xlink:href="#f0_a" transform="matrix(12,0,0,12,442.9,136)" />
<use xlink:href="#f0_1u" transform="matrix(12,0,0,12,47.4,186.4)" />
<use xlink:href="#f0_7" transform="matrix(12,0,0,12,59.4,186.4)" />
<use xlink:href="#f0_1e" transform="matrix(12,0,0,12,69.7,186.4)" />
<use xlink:href="#f0_3" transform="matrix(12,0,0,12,80.9,186.4)" />
<use xlink:href="#f0_19" transform="matrix(12,0,0,12,86.8,186.4)" />
<use xlink:href="#f0_4" transform="matrix(12,0,0,12,98.4,186.4)" />
<use xlink:href="#f0_p" transform="matrix(12,0,0,12,111.4,186.4)" />
<use xlink:href="#f0_q" transform="matrix(12,0,0,12,122,186.4)" />
<use xlink:href="#f0_c" transform="matrix(12,0,0,12,133.5,186.4)" />
<use xlink:href="#f0_1g" transform="matrix(12,0,0,12,139.9,186.4)" />
<use xlink:href="#f0_9" transform="matrix(12,0,0,12,151.6,186.4)" />
<use xlink:href="#f0_7" transform="matrix(12,0,0,12,166.1,186.4)" />
<use xlink:href="#f0_3" transform="matrix(12,0,0,12,176.4,186.4)" />
<use xlink:href="#f0_o" transform="matrix(12,0,0,12,182.3,186.4)" />
<use xlink:href="#f0_1c" transform="matrix(12,0,0,12,195.6,186.4)" />
<use xlink:href="#f0_19" transform="matrix(12,0,0,12,206.9,186.4)" />
<use xlink:href="#f0_1c" transform="matrix(12,0,0,12,218.5,186.4)" />
<use xlink:href="#f0_1c" transform="matrix(12,0,0,12,229.8,186.4)" />
<use xlink:href="#f0_6" transform="matrix(12,0,0,12,241,186.4)" />
<use xlink:href="#f0_9" transform="matrix(12,0,0,12,246.7,186.4)" />
<use xlink:href="#f0_1j" transform="matrix(12,0,0,12,256.5,186.4)" />
<use xlink:href="#f1_4" transform="matrix(12,0,0,12,265.8,186.4)" />
<use xlink:href="#f0_n" transform="matrix(12,0,0,12,279.2,186.4)" />
<use xlink:href="#f0_u" transform="matrix(12,0,0,12,294.1,186.4)" />
<use xlink:href="#f0_a" transform="matrix(12,0,0,12,309.1,186.4)" />
<use xlink:href="#f0_a" transform="matrix(12,0,0,12,326.4,186.4)" />
<use xlink:href="#f0_n" transform="matrix(12,0,0,12,348.5,186.4)" />
</g>
</g>
<image preserveAspectRatio="none" x="364" y="165" width="102" height="34" xlink:href="img/1.png" />
<g clip-path="url(#c0_82)">
<g fill="#000000" >
<use xlink:href="#f0_m" transform="matrix(12,0,0,12,47.4,239.9)" />
<use xlink:href="#f0_7" transform="matrix(12,0,0,12,62.4,239.9)" />
<use xlink:href="#f0_c" transform="matrix(12,0,0,12,72.7,239.9)" />
<use xlink:href="#f0_a" transform="matrix(12,0,0,12,79.1,239.9)" />
<use xlink:href="#f0_p" transform="matrix(12,0,0,12,96.4,239.9)" />
<use xlink:href="#f0_4" transform="matrix(12,0,0,12,107,239.9)" />
<use xlink:href="#f0_5" transform="matrix(12,0,0,12,115.3,239.9)" />
<use xlink:href="#f0_1g" transform="matrix(12,0,0,12,126.5,239.9)" />
<use xlink:href="#f0_9" transform="matrix(12,0,0,12,138.1,239.9)" />
<use xlink:href="#f0_o" transform="matrix(12,0,0,12,147.9,239.9)" />
<use xlink:href="#f0_3" transform="matrix(12,0,0,12,156.5,239.9)" />
<use xlink:href="#f0_8" transform="matrix(12,0,0,12,162.4,239.9)" />
<use xlink:href="#f0_5" transform="matrix(12,0,0,12,176.2,239.9)" />
<use xlink:href="#f0_o" transform="matrix(12,0,0,12,187.4,239.9)" />
<use xlink:href="#f0_9" transform="matrix(12,0,0,12,196,239.9)" />
<use xlink:href="#f0_4" transform="matrix(12,0,0,12,205.8,239.9)" />
<use xlink:href="#f0_4" transform="matrix(12,0,0,12,214.1,239.9)" />
<use xlink:href="#f0_19" transform="matrix(12,0,0,12,222.4,239.9)" />
<use xlink:href="#f0_o" transform="matrix(12,0,0,12,234,239.9)" />
<use xlink:href="#f0_9" transform="matrix(12,0,0,12,242.6,239.9)" />
<use xlink:href="#f0_n" transform="matrix(12,0,0,12,257.2,239.9)" />
</g>
</g>
<image preserveAspectRatio="none" x="272" y="218" width="134" height="34" xlink:href="img/2.png" />
<g clip-path="url(#c0_82)">
<g fill="#000000" >
<use xlink:href="#f0_s" transform="matrix(12,0,0,12,47.4,293.3)" />
<use xlink:href="#f0_8" transform="matrix(12,0,0,12,60.3,293.3)" />
<use xlink:href="#f0_8" transform="matrix(12,0,0,12,69.3,293.3)" />
<use xlink:href="#f0_9" transform="matrix(12,0,0,12,78.3,293.3)" />
<use xlink:href="#f0_6" transform="matrix(12,0,0,12,88.1,293.3)" />
<use xlink:href="#f0_9" transform="matrix(12,0,0,12,93.8,293.3)" />
<use xlink:href="#f0_o" transform="matrix(12,0,0,12,103.6,293.3)" />
<use xlink:href="#f0_7" transform="matrix(12,0,0,12,112.2,293.3)" />
<use xlink:href="#f0_c" transform="matrix(12,0,0,12,122.6,293.3)" />
<use xlink:href="#f0_3" transform="matrix(12,0,0,12,129,293.3)" />
<use xlink:href="#f0_p" transform="matrix(12,0,0,12,134.9,293.3)" />
<use xlink:href="#f0_b" transform="matrix(12,0,0,12,145.4,293.3)" />
<use xlink:href="#f0_1e" transform="matrix(12,0,0,12,162,293.3)" />
<use xlink:href="#f0_19" transform="matrix(12,0,0,12,173.2,293.3)" />
<use xlink:href="#f0_9" transform="matrix(12,0,0,12,184.9,293.3)" />
<use xlink:href="#f0_c" transform="matrix(12,0,0,12,199.4,293.3)" />
<use xlink:href="#f0_p" transform="matrix(12,0,0,12,205.9,293.3)" />
<use xlink:href="#f0_e" transform="matrix(12,0,0,12,221.2,293.3)" />
<use xlink:href="#f0_o" transform="matrix(12,0,0,12,231.1,293.3)" />
<use xlink:href="#f0_7" transform="matrix(12,0,0,12,239.7,293.3)" />
<use xlink:href="#f0_d" transform="matrix(12,0,0,12,250,293.3)" />
<use xlink:href="#f0_3" transform="matrix(12,0,0,12,260.6,293.3)" />
<use xlink:href="#f0_c" transform="matrix(12,0,0,12,266.4,293.3)" />
<use xlink:href="#f0_1a" transform="matrix(12,0,0,12,272.9,293.3)" />
<use xlink:href="#f0_1j" transform="matrix(12,0,0,12,283.2,293.3)" />
<use xlink:href="#f0_e" transform="matrix(12,0,0,12,292.5,293.3)" />
<use xlink:href="#f0_n" transform="matrix(12,0,0,12,307.2,293.3)" />
<use xlink:href="#f0_1y" transform="matrix(12,0,0,12,322.1,293.3)" />
<use xlink:href="#f0_17" transform="matrix(12,0,0,12,332.4,293.3)" />
<use xlink:href="#f0_w" transform="matrix(12,0,0,12,337.6,293.3)" />
</g>
</g>
<image preserveAspectRatio="none" x="353" y="272" width="61" height="34" xlink:href="img/3.png" />
<g clip-path="url(#c0_82)">
<g fill="#000000" >
<use xlink:href="#f0_15" transform="matrix(12,0,0,12,47.4,346.8)" />
<use xlink:href="#f0_9" transform="matrix(12,0,0,12,61.9,346.8)" />
<use xlink:href="#f0_b" transform="matrix(12,0,0,12,71.7,346.8)" />
<use xlink:href="#f0_8" transform="matrix(12,0,0,12,83.5,346.8)" />
<use xlink:href="#f0_9" transform="matrix(12,0,0,12,92.5,346.8)" />
<use xlink:href="#f0_1j" transform="matrix(12,0,0,12,102.4,346.8)" />
<use xlink:href="#f0_c" transform="matrix(12,0,0,12,111.7,346.8)" />
<use xlink:href="#f0_1g" transform="matrix(12,0,0,12,118.1,346.8)" />
<use xlink:href="#f0_9" transform="matrix(12,0,0,12,129.8,346.8)" />
<use xlink:href="#f0_9" transform="matrix(12,0,0,12,144.3,346.8)" />
<use xlink:href="#f0_1o" transform="matrix(12,0,0,12,154.1,346.8)" />
<use xlink:href="#f0_8" transform="matrix(12,0,0,12,164.7,346.8)" />
<use xlink:href="#f0_9" transform="matrix(12,0,0,12,173.8,346.8)" />
<use xlink:href="#f0_4" transform="matrix(12,0,0,12,183.6,346.8)" />
<use xlink:href="#f0_4" transform="matrix(12,0,0,12,191.8,346.8)" />
<use xlink:href="#f0_5" transform="matrix(12,0,0,12,204.8,346.8)" />
<use xlink:href="#f0_o" transform="matrix(12,0,0,12,216.1,346.8)" />
<use xlink:href="#f0_9" transform="matrix(12,0,0,12,224.7,346.8)" />
<use xlink:href="#f0_4" transform="matrix(12,0,0,12,234.5,346.8)" />
<use xlink:href="#f0_4" transform="matrix(12,0,0,12,242.8,346.8)" />
<use xlink:href="#f0_19" transform="matrix(12,0,0,12,251,346.8)" />
<use xlink:href="#f0_o" transform="matrix(12,0,0,12,262.7,346.8)" />
<use xlink:href="#f0_9" transform="matrix(12,0,0,12,271.3,346.8)" />
<use xlink:href="#f0_3" transform="matrix(12,0,0,12,285.8,346.8)" />
<use xlink:href="#f0_b" transform="matrix(12,0,0,12,291.7,346.8)" />
<use xlink:href="#f0_4" transform="matrix(12,0,0,12,303.5,346.8)" />
<use xlink:href="#f0_3" transform="matrix(12,0,0,12,311.8,346.8)" />
<use xlink:href="#f0_1e" transform="matrix(12,0,0,12,317.6,346.8)" />
<use xlink:href="#f0_9" transform="matrix(12,0,0,12,328.9,346.8)" />
<use xlink:href="#f0_c" transform="matrix(12,0,0,12,343.4,346.8)" />
<use xlink:href="#f0_1g" transform="matrix(12,0,0,12,349.9,346.8)" />
<use xlink:href="#f0_9" transform="matrix(12,0,0,12,361.5,346.8)" />
<use xlink:href="#f0_4" transform="matrix(12,0,0,12,376,346.8)" />
<use xlink:href="#f0_p" transform="matrix(12,0,0,12,384.3,346.8)" />
<use xlink:href="#f0_7" transform="matrix(12,0,0,12,394.9,346.8)" />
<use xlink:href="#f0_5" transform="matrix(12,0,0,12,405.2,346.8)" />
<use xlink:href="#f0_1c" transform="matrix(12,0,0,12,421.2,346.8)" />
<use xlink:href="#f0_19" transform="matrix(12,0,0,12,432.4,346.8)" />
<use xlink:href="#f0_1c" transform="matrix(12,0,0,12,444.1,346.8)" />
<use xlink:href="#f0_1c" transform="matrix(12,0,0,12,455.3,346.8)" />
<use xlink:href="#f0_6" transform="matrix(12,0,0,12,466.5,346.8)" />
<use xlink:href="#f0_9" transform="matrix(12,0,0,12,472.2,346.8)" />
<use xlink:href="#f0_3" transform="matrix(12,0,0,12,486.8,346.8)" />
<use xlink:href="#f0_4" transform="matrix(12,0,0,12,492.6,346.8)" />
<use xlink:href="#f0_e" transform="matrix(12,0,0,12,505.6,346.8)" />
<use xlink:href="#f0_3" transform="matrix(12,0,0,12,515.5,346.8)" />
<use xlink:href="#f0_d" transform="matrix(12,0,0,12,521.4,346.8)" />
<use xlink:href="#f0_9" transform="matrix(12,0,0,12,532,346.8)" />
<use xlink:href="#f0_b" transform="matrix(12,0,0,12,541.8,346.8)" />
<use xlink:href="#f0_1c" transform="matrix(12,0,0,12,558.3,346.8)" />
<use xlink:href="#f0_1a" transform="matrix(12,0,0,12,569.6,346.8)" />
<use xlink:href="#f0_c" transform="matrix(12,0,0,12,584.7,346.8)" />
<use xlink:href="#f0_1g" transform="matrix(12,0,0,12,591.1,346.8)" />
<use xlink:href="#f0_9" transform="matrix(12,0,0,12,602.7,346.8)" />
<use xlink:href="#f0_o" transform="matrix(12,0,0,12,617.3,346.8)" />
<use xlink:href="#f0_9" transform="matrix(12,0,0,12,625.9,346.8)" />
<use xlink:href="#f0_6" transform="matrix(12,0,0,12,635.7,346.8)" />
<use xlink:href="#f0_7" transform="matrix(12,0,0,12,641.4,346.8)" />
<use xlink:href="#f0_c" transform="matrix(12,0,0,12,651.7,346.8)" />
<use xlink:href="#f0_3" transform="matrix(12,0,0,12,658.2,346.8)" />
<use xlink:href="#f0_p" transform="matrix(12,0,0,12,664,346.8)" />
<use xlink:href="#f0_b" transform="matrix(12,0,0,12,674.6,346.8)" />
<use xlink:href="#f0_1l" transform="matrix(12,0,0,12,686.4,346.8)" />
</g>
</g>
<image preserveAspectRatio="none" x="47" y="374" width="80" height="64" xlink:href="img/4.png" />
<image preserveAspectRatio="none" x="47" y="457" width="152" height="67" xlink:href="img/5.png" />
<g clip-path="url(#c0_82)">
<g fill="#000000" >
<use xlink:href="#f0_n" transform="matrix(12,0,0,12,47.4,565.3)" />
<use xlink:href="#f0_x" transform="matrix(12,0,0,12,62.4,565.3)" />
<use xlink:href="#f0_h" transform="matrix(12,0,0,12,72.6,565.3)" />
<use xlink:href="#f0_1h" transform="matrix(12,0,0,12,87.6,565.3)" />
<use xlink:href="#f0_7" transform="matrix(12,0,0,12,98.6,565.3)" />
<use xlink:href="#f0_1n" transform="matrix(12,0,0,12,47.4,615.7)" />
<use xlink:href="#f0_1g" transform="matrix(12,0,0,12,58.6,615.7)" />
<use xlink:href="#f0_9" transform="matrix(12,0,0,12,70.2,615.7)" />
<use xlink:href="#f0_o" transform="matrix(12,0,0,12,80,615.7)" />
<use xlink:href="#f0_9" transform="matrix(12,0,0,12,88.6,615.7)" />
<use xlink:href="#f0_q" transform="matrix(12,0,0,12,98.4,615.7)" />
<use xlink:href="#f0_p" transform="matrix(12,0,0,12,105.2,615.7)" />
<use xlink:href="#f0_o" transform="matrix(12,0,0,12,115.8,615.7)" />
<use xlink:href="#f0_9" transform="matrix(12,0,0,12,124.4,615.7)" />
<use xlink:href="#f0_1j" transform="matrix(12,0,0,12,134.2,615.7)" />
<use xlink:href="#f0_c" transform="matrix(12,0,0,12,143.5,615.7)" />
<use xlink:href="#f0_1g" transform="matrix(12,0,0,12,150,615.7)" />
<use xlink:href="#f0_9" transform="matrix(12,0,0,12,161.6,615.7)" />
<use xlink:href="#f0_9" transform="matrix(12,0,0,12,176.2,615.7)" />
<use xlink:href="#f0_1o" transform="matrix(12,0,0,12,186,615.7)" />
<use xlink:href="#f0_8" transform="matrix(12,0,0,12,196.6,615.7)" />
<use xlink:href="#f0_9" transform="matrix(12,0,0,12,205.6,615.7)" />
<use xlink:href="#f0_4" transform="matrix(12,0,0,12,215.4,615.7)" />
<use xlink:href="#f0_4" transform="matrix(12,0,0,12,223.7,615.7)" />
<use xlink:href="#f0_5" transform="matrix(12,0,0,12,236.7,615.7)" />
<use xlink:href="#f0_o" transform="matrix(12,0,0,12,247.9,615.7)" />
<use xlink:href="#f0_9" transform="matrix(12,0,0,12,256.5,615.7)" />
<use xlink:href="#f0_4" transform="matrix(12,0,0,12,266.4,615.7)" />
<use xlink:href="#f0_4" transform="matrix(12,0,0,12,274.6,615.7)" />
<use xlink:href="#f0_19" transform="matrix(12,0,0,12,282.9,615.7)" />
<use xlink:href="#f0_o" transform="matrix(12,0,0,12,294.5,615.7)" />
<use xlink:href="#f0_9" transform="matrix(12,0,0,12,303.1,615.7)" />
<use xlink:href="#f0_3" transform="matrix(12,0,0,12,317.7,615.7)" />
<use xlink:href="#f0_b" transform="matrix(12,0,0,12,323.5,615.7)" />
<use xlink:href="#f0_4" transform="matrix(12,0,0,12,335.3,615.7)" />
<use xlink:href="#f0_3" transform="matrix(12,0,0,12,343.6,615.7)" />
<use xlink:href="#f0_1e" transform="matrix(12,0,0,12,349.5,615.7)" />
<use xlink:href="#f0_9" transform="matrix(12,0,0,12,360.7,615.7)" />
<use xlink:href="#f0_c" transform="matrix(12,0,0,12,375.3,615.7)" />
<use xlink:href="#f0_1g" transform="matrix(12,0,0,12,381.7,615.7)" />
<use xlink:href="#f0_9" transform="matrix(12,0,0,12,393.3,615.7)" />
<use xlink:href="#f0_4" transform="matrix(12,0,0,12,407.9,615.7)" />
<use xlink:href="#f0_p" transform="matrix(12,0,0,12,416.2,615.7)" />
<use xlink:href="#f0_7" transform="matrix(12,0,0,12,426.7,615.7)" />
<use xlink:href="#f0_5" transform="matrix(12,0,0,12,437,615.7)" />
<use xlink:href="#f0_1c" transform="matrix(12,0,0,12,453,615.7)" />
<use xlink:href="#f0_19" transform="matrix(12,0,0,12,464.3,615.7)" />
<use xlink:href="#f0_1c" transform="matrix(12,0,0,12,475.9,615.7)" />
<use xlink:href="#f0_1c" transform="matrix(12,0,0,12,487.1,615.7)" />
<use xlink:href="#f0_6" transform="matrix(12,0,0,12,498.4,615.7)" />
<use xlink:href="#f0_9" transform="matrix(12,0,0,12,504.1,615.7)" />
<use xlink:href="#f0_3" transform="matrix(12,0,0,12,518.6,615.7)" />
<use xlink:href="#f0_4" transform="matrix(12,0,0,12,524.5,615.7)" />
<use xlink:href="#f0_x" transform="matrix(12,0,0,12,537.5,615.7)" />
<use xlink:href="#f0_h" transform="matrix(12,0,0,12,547.7,615.7)" />
<use xlink:href="#f0_1h" transform="matrix(12,0,0,12,562.7,615.7)" />
<use xlink:href="#f0_7" transform="matrix(12,0,0,12,573.8,615.7)" />
<use xlink:href="#f0_17" transform="matrix(12,0,0,12,584.1,615.7)" />
<use xlink:href="#f0_1n" transform="matrix(12,0,0,12,47.4,666.1)" />
<use xlink:href="#f0_1g" transform="matrix(12,0,0,12,58.6,666.1)" />
<use xlink:href="#f0_9" transform="matrix(12,0,0,12,70.2,666.1)" />
<use xlink:href="#f0_9" transform="matrix(12,0,0,12,84.8,666.1)" />
<use xlink:href="#f0_1o" transform="matrix(12,0,0,12,94.6,666.1)" />
<use xlink:href="#f0_8" transform="matrix(12,0,0,12,105.2,666.1)" />
<use xlink:href="#f0_9" transform="matrix(12,0,0,12,114.2,666.1)" />
<use xlink:href="#f0_4" transform="matrix(12,0,0,12,124,666.1)" />
<use xlink:href="#f0_4" transform="matrix(12,0,0,12,132.3,666.1)" />
<use xlink:href="#f0_5" transform="matrix(12,0,0,12,145.3,666.1)" />
<use xlink:href="#f0_o" transform="matrix(12,0,0,12,156.5,666.1)" />
<use xlink:href="#f0_9" transform="matrix(12,0,0,12,165.1,666.1)" />
<use xlink:href="#f0_4" transform="matrix(12,0,0,12,175,666.1)" />
<use xlink:href="#f0_4" transform="matrix(12,0,0,12,183.2,666.1)" />
<use xlink:href="#f0_19" transform="matrix(12,0,0,12,191.5,666.1)" />
<use xlink:href="#f0_o" transform="matrix(12,0,0,12,203.1,666.1)" />
<use xlink:href="#f0_9" transform="matrix(12,0,0,12,211.7,666.1)" />
<use xlink:href="#f0_3" transform="matrix(12,0,0,12,226.3,666.1)" />
<use xlink:href="#f0_b" transform="matrix(12,0,0,12,232.1,666.1)" />
<use xlink:href="#f0_4" transform="matrix(12,0,0,12,243.9,666.1)" />
<use xlink:href="#f0_3" transform="matrix(12,0,0,12,252.2,666.1)" />
<use xlink:href="#f0_1e" transform="matrix(12,0,0,12,258.1,666.1)" />
<use xlink:href="#f0_9" transform="matrix(12,0,0,12,269.3,666.1)" />
<use xlink:href="#f0_c" transform="matrix(12,0,0,12,283.9,666.1)" />
<use xlink:href="#f0_1g" transform="matrix(12,0,0,12,290.3,666.1)" />
<use xlink:href="#f0_9" transform="matrix(12,0,0,12,301.9,666.1)" />
<use xlink:href="#f0_7" transform="matrix(12,0,0,12,316.5,666.1)" />
<use xlink:href="#f0_3" transform="matrix(12,0,0,12,326.8,666.1)" />
<use xlink:href="#f0_o" transform="matrix(12,0,0,12,332.6,666.1)" />
<use xlink:href="#f0_1c" transform="matrix(12,0,0,12,346,666.1)" />
<use xlink:href="#f0_19" transform="matrix(12,0,0,12,357.3,666.1)" />
<use xlink:href="#f0_1c" transform="matrix(12,0,0,12,368.9,666.1)" />
<use xlink:href="#f0_1c" transform="matrix(12,0,0,12,380.1,666.1)" />
<use xlink:href="#f0_6" transform="matrix(12,0,0,12,391.4,666.1)" />
<use xlink:href="#f0_9" transform="matrix(12,0,0,12,397.1,666.1)" />
<use xlink:href="#f0_3" transform="matrix(12,0,0,12,411.6,666.1)" />
<use xlink:href="#f0_4" transform="matrix(12,0,0,12,417.5,666.1)" />
<use xlink:href="#f0_e" transform="matrix(12,0,0,12,430.5,666.1)" />
<use xlink:href="#f0_3" transform="matrix(12,0,0,12,440.3,666.1)" />
<use xlink:href="#f0_d" transform="matrix(12,0,0,12,446.2,666.1)" />
<use xlink:href="#f0_9" transform="matrix(12,0,0,12,456.8,666.1)" />
<use xlink:href="#f0_b" transform="matrix(12,0,0,12,466.6,666.1)" />
<use xlink:href="#f0_1c" transform="matrix(12,0,0,12,483.2,666.1)" />
<use xlink:href="#f0_1a" transform="matrix(12,0,0,12,494.4,666.1)" />
<use xlink:href="#f0_c" transform="matrix(12,0,0,12,509.5,666.1)" />
<use xlink:href="#f0_1g" transform="matrix(12,0,0,12,515.9,666.1)" />
<use xlink:href="#f0_9" transform="matrix(12,0,0,12,527.6,666.1)" />
<use xlink:href="#f0_o" transform="matrix(12,0,0,12,542.1,666.1)" />
<use xlink:href="#f0_9" transform="matrix(12,0,0,12,550.7,666.1)" />
<use xlink:href="#f0_6" transform="matrix(12,0,0,12,560.6,666.1)" />
<use xlink:href="#f0_7" transform="matrix(12,0,0,12,566.2,666.1)" />
<use xlink:href="#f0_c" transform="matrix(12,0,0,12,576.5,666.1)" />
<use xlink:href="#f0_3" transform="matrix(12,0,0,12,583,666.1)" />
<use xlink:href="#f0_p" transform="matrix(12,0,0,12,588.8,666.1)" />
<use xlink:href="#f0_b" transform="matrix(12,0,0,12,599.4,666.1)" />
<use xlink:href="#f0_1l" transform="matrix(12,0,0,12,611.2,666.1)" />
</g>
</g>
<image preserveAspectRatio="none" x="47" y="694" width="86" height="64" xlink:href="img/6.png" />
<image preserveAspectRatio="none" x="47" y="776" width="152" height="67" xlink:href="img/7.png" />
<g clip-path="url(#c0_82)">
<g fill="#000000" >
<use xlink:href="#f0_n" transform="matrix(12,0,0,12,47.4,884.6)" />
<use xlink:href="#f0_m" transform="matrix(12,0,0,12,62.4,884.6)" />
<use xlink:href="#f0_h" transform="matrix(12,0,0,12,72.6,884.6)" />
<use xlink:href="#f0_1h" transform="matrix(12,0,0,12,87.6,884.6)" />
<use xlink:href="#f0_7" transform="matrix(12,0,0,12,98.6,884.6)" />
<use xlink:href="#f0_1n" transform="matrix(12,0,0,12,47.4,935)" />
<use xlink:href="#f0_1g" transform="matrix(12,0,0,12,58.6,935)" />
<use xlink:href="#f0_9" transform="matrix(12,0,0,12,70.2,935)" />
<use xlink:href="#f0_o" transform="matrix(12,0,0,12,80,935)" />
<use xlink:href="#f0_9" transform="matrix(12,0,0,12,88.6,935)" />
<use xlink:href="#f0_q" transform="matrix(12,0,0,12,98.4,935)" />
<use xlink:href="#f0_p" transform="matrix(12,0,0,12,105.2,935)" />
<use xlink:href="#f0_o" transform="matrix(12,0,0,12,115.8,935)" />
<use xlink:href="#f0_9" transform="matrix(12,0,0,12,124.4,935)" />
<use xlink:href="#f0_1j" transform="matrix(12,0,0,12,134.2,935)" />
<use xlink:href="#f0_c" transform="matrix(12,0,0,12,143.5,935)" />
<use xlink:href="#f0_1g" transform="matrix(12,0,0,12,150,935)" />
<use xlink:href="#f0_9" transform="matrix(12,0,0,12,161.6,935)" />
<use xlink:href="#f0_9" transform="matrix(12,0,0,12,176.2,935)" />
<use xlink:href="#f0_1o" transform="matrix(12,0,0,12,186,935)" />
<use xlink:href="#f0_8" transform="matrix(12,0,0,12,196.6,935)" />
<use xlink:href="#f0_9" transform="matrix(12,0,0,12,205.6,935)" />
<use xlink:href="#f0_4" transform="matrix(12,0,0,12,215.4,935)" />
<use xlink:href="#f0_4" transform="matrix(12,0,0,12,223.7,935)" />
<use xlink:href="#f0_5" transform="matrix(12,0,0,12,236.7,935)" />
<use xlink:href="#f0_o" transform="matrix(12,0,0,12,247.9,935)" />
<use xlink:href="#f0_9" transform="matrix(12,0,0,12,256.5,935)" />
<use xlink:href="#f0_4" transform="matrix(12,0,0,12,266.4,935)" />
<use xlink:href="#f0_4" transform="matrix(12,0,0,12,274.6,935)" />
<use xlink:href="#f0_19" transform="matrix(12,0,0,12,282.9,935)" />
<use xlink:href="#f0_o" transform="matrix(12,0,0,12,294.5,935)" />
<use xlink:href="#f0_9" transform="matrix(12,0,0,12,303.1,935)" />
<use xlink:href="#f0_3" transform="matrix(12,0,0,12,317.7,935)" />
<use xlink:href="#f0_b" transform="matrix(12,0,0,12,323.5,935)" />
<use xlink:href="#f0_4" transform="matrix(12,0,0,12,335.3,935)" />
<use xlink:href="#f0_3" transform="matrix(12,0,0,12,343.6,935)" />
<use xlink:href="#f0_1e" transform="matrix(12,0,0,12,349.5,935)" />
<use xlink:href="#f0_9" transform="matrix(12,0,0,12,360.7,935)" />
<use xlink:href="#f0_c" transform="matrix(12,0,0,12,375.3,935)" />
<use xlink:href="#f0_1g" transform="matrix(12,0,0,12,381.7,935)" />
<use xlink:href="#f0_9" transform="matrix(12,0,0,12,393.3,935)" />
<use xlink:href="#f0_7" transform="matrix(12,0,0,12,407.9,935)" />
<use xlink:href="#f0_3" transform="matrix(12,0,0,12,418.2,935)" />
<use xlink:href="#f0_o" transform="matrix(12,0,0,12,424.1,935)" />
<use xlink:href="#f0_1c" transform="matrix(12,0,0,12,437.4,935)" />
<use xlink:href="#f0_19" transform="matrix(12,0,0,12,448.7,935)" />
<use xlink:href="#f0_1c" transform="matrix(12,0,0,12,460.3,935)" />
<use xlink:href="#f0_1c" transform="matrix(12,0,0,12,471.5,935)" />
<use xlink:href="#f0_6" transform="matrix(12,0,0,12,482.8,935)" />
<use xlink:href="#f0_9" transform="matrix(12,0,0,12,488.5,935)" />
<use xlink:href="#f0_3" transform="matrix(12,0,0,12,503,935)" />
<use xlink:href="#f0_4" transform="matrix(12,0,0,12,508.9,935)" />
<use xlink:href="#f0_m" transform="matrix(12,0,0,12,521.9,935)" />
<use xlink:href="#f0_h" transform="matrix(12,0,0,12,532.1,935)" />
<use xlink:href="#f0_1h" transform="matrix(12,0,0,12,547.1,935)" />
<use xlink:href="#f0_7" transform="matrix(12,0,0,12,558.2,935)" />
<use xlink:href="#f0_17" transform="matrix(12,0,0,12,568.5,935)" />
<use xlink:href="#f0_s" transform="matrix(12,0,0,12,47.4,985.4)" />
<use xlink:href="#f0_c" transform="matrix(12,0,0,12,60.3,985.4)" />
<use xlink:href="#f0_7" transform="matrix(12,0,0,12,71.5,985.4)" />
<use xlink:href="#f0_1e" transform="matrix(12,0,0,12,86.5,985.4)" />
<use xlink:href="#f0_9" transform="matrix(12,0,0,12,97.8,985.4)" />
<use xlink:href="#f0_5" transform="matrix(12,0,0,12,107.6,985.4)" />
<use xlink:href="#f0_c" transform="matrix(12,0,0,12,118.8,985.4)" />
<use xlink:href="#f0_1g" transform="matrix(12,0,0,12,125.3,985.4)" />
<use xlink:href="#f0_p" transform="matrix(12,0,0,12,141.7,985.4)" />
<use xlink:href="#f0_q" transform="matrix(12,0,0,12,152.2,985.4)" />
<use xlink:href="#f0_h" transform="matrix(12,0,0,12,163.7,985.4)" />
<use xlink:href="#f0_17" transform="matrix(12,0,0,12,174,985.4)" />
<use xlink:href="#f0_j" transform="matrix(12,0,0,12,179.2,985.4)" />
<use xlink:href="#f0_a" transform="matrix(12,0,0,12,194.2,985.4)" />
<use xlink:href="#f0_1j" transform="matrix(12,0,0,12,211.5,985.4)" />
<use xlink:href="#f0_c" transform="matrix(12,0,0,12,220.8,985.4)" />
<use xlink:href="#f0_1g" transform="matrix(12,0,0,12,227.3,985.4)" />
<use xlink:href="#f0_9" transform="matrix(12,0,0,12,238.9,985.4)" />
<use xlink:href="#f0_c" transform="matrix(12,0,0,12,253.5,985.4)" />
<use xlink:href="#f0_p" transform="matrix(12,0,0,12,259.9,985.4)" />
<use xlink:href="#f0_c" transform="matrix(12,0,0,12,270.5,985.4)" />
<use xlink:href="#f0_7" transform="matrix(12,0,0,12,276.9,985.4)" />
<use xlink:href="#f0_6" transform="matrix(12,0,0,12,287.2,985.4)" />
<use xlink:href="#f0_5" transform="matrix(12,0,0,12,297.7,985.4)" />
<use xlink:href="#f0_o" transform="matrix(12,0,0,12,308.9,985.4)" />
<use xlink:href="#f0_9" transform="matrix(12,0,0,12,317.5,985.4)" />
<use xlink:href="#f0_4" transform="matrix(12,0,0,12,327.4,985.4)" />
<use xlink:href="#f0_4" transform="matrix(12,0,0,12,335.6,985.4)" />
<use xlink:href="#f0_19" transform="matrix(12,0,0,12,343.9,985.4)" />
<use xlink:href="#f0_o" transform="matrix(12,0,0,12,355.5,985.4)" />
<use xlink:href="#f0_9" transform="matrix(12,0,0,12,364.1,985.4)" />
<use xlink:href="#f0_3" transform="matrix(12,0,0,12,378.7,985.4)" />
<use xlink:href="#f0_b" transform="matrix(12,0,0,12,384.5,985.4)" />
<use xlink:href="#f0_4" transform="matrix(12,0,0,12,396.3,985.4)" />
<use xlink:href="#f0_3" transform="matrix(12,0,0,12,404.6,985.4)" />
<use xlink:href="#f0_1e" transform="matrix(12,0,0,12,410.4,985.4)" />
<use xlink:href="#f0_9" transform="matrix(12,0,0,12,421.7,985.4)" />
<use xlink:href="#f0_c" transform="matrix(12,0,0,12,436.3,985.4)" />
<use xlink:href="#f0_1g" transform="matrix(12,0,0,12,442.7,985.4)" />
<use xlink:href="#f0_9" transform="matrix(12,0,0,12,454.3,985.4)" />
<use xlink:href="#f0_7" transform="matrix(12,0,0,12,468.9,985.4)" />
<use xlink:href="#f0_3" transform="matrix(12,0,0,12,479.2,985.4)" />
<use xlink:href="#f0_o" transform="matrix(12,0,0,12,485,985.4)" />
<use xlink:href="#f0_1c" transform="matrix(12,0,0,12,498.4,985.4)" />
<use xlink:href="#f0_19" transform="matrix(12,0,0,12,509.7,985.4)" />
<use xlink:href="#f0_1c" transform="matrix(12,0,0,12,521.3,985.4)" />
<use xlink:href="#f0_1c" transform="matrix(12,0,0,12,532.5,985.4)" />
<use xlink:href="#f0_6" transform="matrix(12,0,0,12,543.8,985.4)" />
<use xlink:href="#f0_9" transform="matrix(12,0,0,12,549.5,985.4)" />
<use xlink:href="#f0_n" transform="matrix(12,0,0,12,47.4,1035.8)" />
<use xlink:href="#f0_s" transform="matrix(12,0,0,12,62.4,1035.8)" />
<use xlink:href="#f0_c" transform="matrix(12,0,0,12,75.3,1035.8)" />
<use xlink:href="#f0_a" transform="matrix(12,0,0,12,81.7,1035.8)" />
<use xlink:href="#f0_p" transform="matrix(12,0,0,12,99,1035.8)" />
<use xlink:href="#f0_4" transform="matrix(12,0,0,12,109.6,1035.8)" />
<use xlink:href="#f0_5" transform="matrix(12,0,0,12,117.9,1035.8)" />
<use xlink:href="#f0_1g" transform="matrix(12,0,0,12,129.1,1035.8)" />
<use xlink:href="#f0_9" transform="matrix(12,0,0,12,140.7,1035.8)" />
<use xlink:href="#f0_o" transform="matrix(12,0,0,12,150.5,1035.8)" />
<use xlink:href="#f0_3" transform="matrix(12,0,0,12,159.2,1035.8)" />
<use xlink:href="#f0_8" transform="matrix(12,0,0,12,165,1035.8)" />
<use xlink:href="#f0_5" transform="matrix(12,0,0,12,178.8,1035.8)" />
<use xlink:href="#f0_o" transform="matrix(12,0,0,12,190,1035.8)" />
<use xlink:href="#f0_9" transform="matrix(12,0,0,12,198.6,1035.8)" />
<use xlink:href="#f0_4" transform="matrix(12,0,0,12,208.4,1035.8)" />
<use xlink:href="#f0_4" transform="matrix(12,0,0,12,216.7,1035.8)" />
<use xlink:href="#f0_19" transform="matrix(12,0,0,12,225,1035.8)" />
<use xlink:href="#f0_o" transform="matrix(12,0,0,12,236.6,1035.8)" />
<use xlink:href="#f0_9" transform="matrix(12,0,0,12,245.2,1035.8)" />
<use xlink:href="#f0_y" transform="matrix(12,0,0,12,259.8,1035.8)" />
<use xlink:href="#f1_a" transform="matrix(12,0,0,12,274.8,1035.8)" />
</g>
</g>
<image preserveAspectRatio="none" x="286" y="1018" width="24" height="25" xlink:href="img/8.png" />
<g clip-path="url(#c0_82)">
<g fill="#000000" >
<use xlink:href="#f0_e" transform="matrix(12,0,0,12,310.2,1035.8)" />
<use xlink:href="#f0_y" transform="matrix(12,0,0,12,324.8,1035.8)" />
<use xlink:href="#f1_b" transform="matrix(12,0,0,12,339.8,1035.8)" />
<use xlink:href="#f0_1s" transform="matrix(12,0,0,12,351.1,1035.8)" />
</g>
</g>
<image preserveAspectRatio="none" x="47" y="1065" width="358" height="33" xlink:href="img/9.png" />
<image preserveAspectRatio="none" x="47" y="1117" width="165" height="36" xlink:href="img/10.png" />
<g fill="#000000" >
<use xlink:href="#f2_s" transform="matrix(12,0,0,12,835.7,1269.6)" />
<use xlink:href="#f2_m" transform="matrix(12,0,0,12,844.9,1269.6)" />
</g>
<defs>
<path d="M683,442L588,709c0,0,-25,68,-43,127c0,0,-21,59,-33,114c0,0,-6,-28,-12,-53c0,0,-8,-26,-16,-53c0,0,-9,-26,-19,-55c0,0,-10,-31,-23,-66L338,442ZM0,0V64H29c0,0,1,0,3,0c6,0,23,1,35,5c0,0,16,5,28,18c0,0,12,13,25,37c0,0,11,22,25,60l339,907H604L949,145c0,0,8,-23,19,-39c0,0,8,-16,21,-25c0,0,12,-10,29,-13c0,0,17,-4,39,-4h20V0H657V64h35c0,0,92,0,92,73c0,0,0,12,-3,26c0,0,-4,14,-10,31L710,365H309L251,204c0,0,-8,-18,-11,-35c0,0,-4,-18,-4,-30c0,0,0,-40,26,-57c0,0,24,-18,76,-18h35V0Z" 
id="f0_s"
transform="scale(0.001,-0.001)" />

<path d="M35,0V64H55c0,0,25,0,49,4c0,0,22,3,39,13c0,0,17,10,28,32c0,0,10,20,10,53V650c0,0,0,33,-10,55c0,0,-11,20,-28,31c0,0,-17,11,-39,15c0,0,-24,3,-49,4H51v64H324V174c0,0,0,-37,10,-58c0,0,10,-21,27,-32c0,0,16,-13,40,-16c0,0,22,-4,48,-4h20V0ZM249,972c-1,0,-2,0,-3,0c0,0,-1,0,-2,0c-5,0,-20,0,-32,5c0,0,-16,5,-28,16c0,0,-12,11,-18,29c0,0,-7,18,-7,45c0,0,0,27,7,45c0,0,6,17,18,29c0,0,12,11,28,15c0,0,15,5,34,5c0,0,18,0,34,-5c0,0,15,-4,27,-15c0,0,11,-12,19,-29c0,0,7,-18,7,-45c0,0,0,-27,-7,-45c0,0,-8,-18,-19,-29c0,0,-12,-11,-27,-16c0,0,-14,-5,-31,-5Z" 
id="f0_3"
transform="scale(0.001,-0.001)" />

<path d="M51,0V64h4c0,0,26,0,49,4c0,0,23,3,40,16c0,0,16,11,27,32c0,0,10,21,10,58V650c0,0,0,33,-10,55c0,0,-11,20,-28,31c0,0,-17,11,-39,15c0,0,-24,3,-49,4H51v64H286L315,668h7c0,0,14,34,31,65c0,0,15,29,39,53c0,0,22,22,56,35c0,0,33,12,84,13c0,0,83,0,124,-29c0,0,41,-30,41,-82c0,0,0,-24,-8,-44c0,0,-9,-20,-25,-34c0,0,-17,-15,-44,-23c0,0,-27,-8,-66,-8c0,0,0,63,-18,92c0,0,-18,27,-62,27c0,0,-29,0,-51,-15c0,0,-22,-18,-39,-43c0,0,-17,-27,-28,-61c0,0,-13,-35,-19,-70c0,0,-8,-37,-10,-73c0,0,-4,-35,-3,-64V166c0,0,0,-33,10,-53c0,0,10,-22,27,-32c0,0,16,-10,40,-13c0,0,22,-4,48,-4h43V0Z" 
id="f0_o"
transform="scale(0.001,-0.001)" />

<path d="M518,83c0,0,50,0,86,21c0,0,35,21,58,63c0,0,23,41,33,104c0,0,10,61,11,142c0,0,-1,80,-11,142c0,0,-10,60,-33,101c0,0,-23,40,-58,60c0,0,-38,20,-88,20c0,0,-60,0,-99,-19c0,0,-41,-20,-64,-61c0,0,-24,-40,-34,-101c0,0,-10,-62,-10,-144c0,0,0,-80,10,-141c0,0,10,-62,35,-103c0,0,23,-42,64,-63c0,0,39,-21,100,-21Zm27,-97c-1,0,-2,0,-3,0h-2c-8,0,-46,1,-77,10c0,0,-37,8,-65,26c0,0,-29,18,-50,43c0,0,-23,24,-39,54H299L272,0H28V64H40c0,0,25,0,49,4c0,0,22,3,39,16c0,0,17,11,27,32c0,0,10,21,10,58V993c0,0,0,33,-10,54c0,0,-11,21,-27,32c0,0,-18,11,-40,15c0,0,-24,3,-48,3H28v64H306V880c0,0,0,-26,0,-59c0,0,0,-35,0,-66c0,0,0,-36,0,-74h3c0,0,16,34,39,63c0,0,21,28,50,49c0,0,27,19,64,31c0,0,36,9,80,10c0,0,75,0,134,-25c0,0,58,-26,98,-76c0,0,38,-53,60,-132c0,0,20,-80,20,-190c0,0,0,-111,-20,-191c0,0,-22,-80,-60,-133c0,0,-40,-53,-98,-77c0,0,-57,-24,-131,-24Z" 
id="f0_1c"
transform="scale(0.001,-0.001)" />

<path d="M417,-14c0,0,-60,0,-107,16c0,0,-47,17,-79,54c0,0,-33,36,-49,93c0,0,-17,57,-17,135V650c0,0,0,33,-10,55c0,0,-11,20,-27,31c0,0,-18,11,-40,15c0,0,-24,3,-48,4H35v64H309V292c0,0,0,-51,8,-89c0,0,7,-40,26,-66c0,0,18,-27,49,-40c0,0,29,-14,74,-14c1,0,2,0,3,0c0,0,50,0,88,18c0,0,35,18,59,50c0,0,23,32,34,78c0,0,12,46,12,101V645c0,0,0,35,-10,58c0,0,-10,21,-27,33c0,0,-17,11,-39,15c0,0,-24,3,-50,4h-4v64H805V166c0,0,0,-33,10,-53c0,0,10,-22,27,-32c0,0,17,-10,41,-13c0,0,21,-4,47,-4h5V0H692L672,124h-7c0,0,-24,-44,-51,-70c0,0,-28,-28,-60,-42c0,0,-31,-15,-65,-20c0,0,-35,-6,-72,-6Z" 
id="f0_19"
transform="scale(0.001,-0.001)" />

<path d="M20,0V64H40c0,0,25,0,49,4c0,0,22,3,39,16c0,0,17,11,27,32c0,0,10,21,10,58V993c0,0,0,33,-10,54c0,0,-11,21,-27,32c0,0,-18,11,-40,15c0,0,-24,3,-48,3H20v64H309V174c0,0,-1,-37,10,-58c0,0,9,-21,26,-32c0,0,17,-13,41,-16c0,0,22,-4,48,-4h20V0Z" 
id="f0_6"
transform="scale(0.001,-0.001)" />

<path d="M586,481c0,0,0,60,-9,111c0,0,-9,50,-29,85c0,0,-19,36,-51,56c0,0,-33,18,-79,19c0,0,-87,-1,-133,-69c0,0,-46,-69,-46,-202ZM439,-14c0,0,-83,0,-149,27c0,0,-66,28,-112,82c0,0,-46,53,-69,132c0,0,-25,77,-25,177c0,0,0,213,88,322c0,0,88,108,251,108c0,0,73,0,133,-23c0,0,58,-24,100,-69c0,0,41,-46,63,-114c0,0,21,-69,22,-159V399H233c0,0,0,-84,15,-143c0,0,15,-61,44,-99c0,0,28,-40,71,-57c0,0,40,-19,93,-19c1,0,2,0,4,0c0,0,38,0,73,9c0,0,33,9,62,24c0,0,26,14,48,34c0,0,21,18,35,40c0,0,10,-4,20,-19c0,0,9,-15,9,-33c0,0,0,-24,-16,-49c0,0,-17,-27,-50,-50C641,37,607,14,557,0c0,0,-50,-14,-118,-14Z" 
id="f0_9"
transform="scale(0.001,-0.001)" />

<path d="M41,0V64H61c0,0,26,0,49,4c0,0,23,3,40,16c0,0,16,11,27,32c0,0,9,21,9,58V747H47v72H186v76c0,0,0,68,19,121c0,0,19,52,54,88c0,0,34,35,85,55c0,0,50,17,113,17c0,0,58,0,100,-7c0,0,41,-8,67,-22c0,0,24,-15,35,-34c0,0,12,-20,12,-43c0,0,0,-22,-9,-37c0,0,-11,-17,-26,-27c0,0,-18,-11,-40,-16c0,0,-24,-6,-51,-6c0,0,0,23,-4,45c0,0,-6,21,-17,39c0,0,-12,17,-31,28c0,0,-19,10,-48,10c0,0,-34,0,-55,-12c0,0,-22,-13,-36,-38c0,0,-13,-26,-18,-62c0,0,-6,-37,-6,-85V819H545V747H330V174c0,0,0,-37,10,-58c0,0,10,-21,27,-32c0,0,16,-13,40,-16c0,0,22,-4,48,-4h58V0Z" 
id="f0_q"
transform="scale(0.001,-0.001)" />

<path d="M442,64c0,0,56,0,97,23c0,0,38,22,64,66c0,0,24,43,36,108c0,0,9,65,10,150c0,0,0,85,-11,149c0,0,-11,64,-36,108c0,0,-25,42,-64,64c0,0,-41,21,-98,21c0,0,-58,0,-97,-21c0,0,-39,-22,-64,-64c0,0,-25,-44,-36,-108c0,0,-11,-64,-11,-149c0,0,0,-85,11,-150c0,0,11,-65,37,-108c0,0,24,-44,65,-66c0,0,38,-23,97,-23Zm-3,-78c0,0,-83,0,-149,25c0,0,-66,26,-111,79c0,0,-47,52,-70,134c0,0,-25,79,-25,187c0,0,0,213,91,319c0,0,90,103,268,104c0,0,82,0,149,-25c0,0,65,-26,111,-79c0,0,46,-53,71,-132c0,0,23,-80,23,-187c0,0,0,-216,-91,-321C706,90,614,-14,439,-14Z" 
id="f0_p"
transform="scale(0.001,-0.001)" />

<path d="M43,0V64H63c0,0,25,0,47,4c0,0,21,3,38,16c0,0,15,11,24,32c0,0,8,21,9,58V650c0,0,0,33,-9,55c0,0,-9,20,-25,31c0,0,-16,11,-37,15c0,0,-22,3,-47,4H58v64H298L318,695h7c0,0,23,42,49,70c0,0,25,27,54,43c0,0,28,14,61,21c0,0,31,5,67,5c0,0,36,0,71,-7c0,0,33,-9,62,-24c0,0,28,-17,52,-43c0,0,21,-27,36,-65h13c0,0,23,42,50,70c0,0,27,27,57,43c0,0,30,14,64,21c0,0,32,5,68,5c0,0,59,-1,105,-17c0,0,45,-18,78,-54c0,0,32,-37,49,-93c0,0,17,-58,18,-135V174c0,0,0,-37,9,-58c0,0,9,-21,24,-32c0,0,16,-13,37,-16c0,0,21,-4,47,-4h5V0H1135V527c0,0,0,50,-8,89c0,0,-9,39,-27,66c0,0,-21,26,-50,41c0,0,-32,13,-75,13c0,0,-48,0,-80,-18c0,0,-33,-19,-53,-50c0,0,-21,-31,-28,-72c0,0,-9,-42,-9,-87V174c0,0,0,-37,9,-58c0,0,9,-21,24,-32c0,0,16,-13,38,-16c0,0,21,-4,47,-4h4V0H662V527c0,0,-1,50,-9,89c0,0,-8,39,-27,66c0,0,-20,26,-50,41c0,0,-31,13,-75,13c0,0,-50,0,-83,-20c0,0,-35,-20,-55,-54c0,0,-22,-35,-30,-79c0,0,-9,-45,-9,-94V166c0,0,0,-33,10,-53c0,0,10,-22,27,-32c0,0,16,-10,40,-13c0,0,22,-4,48,-4h5V0Z" 
id="f0_a"
transform="scale(0.001,-0.001)" />

<path d="M421,83c0,0,59,0,100,20c0,0,39,19,65,60c0,0,23,39,34,101c0,0,10,61,10,144c0,0,0,79,-10,141c0,0,-11,61,-34,103c0,0,-25,41,-65,63c0,0,-41,21,-101,21c0,0,-51,0,-86,-21c0,0,-36,-23,-58,-64c0,0,-24,-42,-34,-103c0,0,-10,-62,-10,-141c0,0,0,-163,44,-244c0,0,43,-80,145,-80ZM395,-14c-8,0,-78,1,-133,24c0,0,-59,24,-98,77c0,0,-39,52,-60,132c0,0,-20,79,-20,189c0,0,0,110,20,191c0,0,21,80,60,133c0,0,39,51,98,77c0,0,58,25,133,25c0,0,44,0,80,-10c0,0,36,-10,65,-27c0,0,28,-18,51,-43c0,0,21,-24,39,-54h4c0,0,0,36,0,70c0,0,0,27,0,57c0,0,0,27,0,41V993c0,0,-1,33,-10,54c0,0,-11,21,-29,32c0,0,-18,11,-41,15c0,0,-24,3,-49,3H492v64H773V168c0,0,0,-34,10,-54c0,0,10,-21,27,-32c0,0,17,-11,40,-14c0,0,22,-4,48,-4h13V0H652L636,137h-6c0,0,-18,-35,-39,-62c0,0,-23,-29,-51,-48C540,27,512,6,476,-3c0,0,-36,-11,-81,-11Z" 
id="f0_1e"
transform="scale(0.001,-0.001)" />

<path d="M348,79c0,0,46,0,85,15c0,0,36,14,64,42c0,0,25,27,40,66c0,0,14,39,14,87V412H454c0,0,-65,0,-109,-14c0,0,-44,-13,-70,-36c0,0,-27,-25,-39,-59c0,0,-12,-35,-11,-80c0,0,0,-73,30,-108c0,0,29,-36,93,-36ZM313,-14c0,0,-50,0,-94,14c0,0,-44,14,-75,45c0,0,-33,30,-50,77c0,0,-18,47,-18,109c0,0,0,123,87,182c0,0,85,59,261,60H551v93c0,0,0,42,-4,78c0,0,-5,34,-20,60c0,0,-15,26,-42,40c0,0,-28,14,-75,14c0,0,-44,0,-71,-12c0,0,-29,-13,-43,-35c0,0,-16,-23,-21,-53c0,0,-6,-31,-5,-66c0,0,-64,0,-96,21c0,0,-34,21,-34,75c0,0,0,39,22,67c0,0,21,28,60,45c0,0,36,17,87,26c0,0,49,7,107,8c0,0,69,0,122,-13c0,0,52,-15,87,-46c0,0,34,-31,53,-81c0,0,17,-52,17,-124V174c0,0,0,-33,5,-53c0,0,6,-22,17,-34c0,0,10,-12,30,-18c0,0,15,-5,38,-5c2,0,3,0,5,0h4V0H588L564,131H551c0,0,-24,-33,-46,-59c0,0,-22,-27,-49,-46C456,26,429,6,395,-3c0,0,-35,-11,-82,-11Z" 
id="f0_7"
transform="scale(0.001,-0.001)" />

<path d="M367,-14c0,0,-59,0,-100,13c0,0,-42,10,-69,38c0,0,-27,27,-39,73c0,0,-14,45,-14,112V732H29v61c0,0,28,0,61,11c0,0,32,11,58,37c0,0,26,28,43,68c0,0,15,38,28,98h70V819H489V732H289V217c0,0,-1,-78,32,-115c0,0,30,-36,83,-36c0,0,1,0,1,0c0,0,2,0,6,0c9,0,28,0,45,3c0,0,23,3,47,7V9C503,9,492,4,477,0c0,0,-15,-3,-33,-6c0,0,-20,-5,-39,-6c0,0,-20,-2,-38,-2Z" 
id="f0_c"
transform="scale(0.001,-0.001)" />

<path d="M518,83c0,0,50,0,86,21c0,0,35,21,58,63c0,0,23,41,33,104c0,0,10,61,11,142c0,0,-1,80,-11,142c0,0,-10,60,-33,101c0,0,-23,40,-58,60c0,0,-38,20,-88,20c0,0,-60,0,-99,-19c0,0,-41,-20,-64,-61c0,0,-24,-40,-34,-101c0,0,-10,-62,-10,-144c0,0,0,-80,10,-141c0,0,10,-62,35,-103c0,0,23,-42,64,-63c0,0,39,-21,100,-21ZM28,-366v64H40c0,0,25,0,49,4c0,0,22,3,39,16c0,0,17,11,27,33c0,0,10,21,10,58V650c0,0,0,33,-10,55c0,0,-11,20,-27,31c0,0,-18,11,-40,15c0,0,-24,3,-48,4H20v64H287L303,681h6c0,0,16,34,39,63c0,0,21,28,50,49c0,0,27,19,64,31c0,0,36,9,80,10c0,0,75,0,134,-25c0,0,58,-26,98,-76c0,0,38,-53,60,-132c0,0,20,-80,20,-190c0,0,0,-111,-20,-191c0,0,-22,-80,-60,-133c0,0,-40,-53,-98,-77c0,0,-57,-24,-131,-24c-1,0,-2,0,-3,0h-2c-8,0,-46,1,-77,10c0,0,-37,8,-65,26c0,0,-29,18,-50,43c0,0,-23,24,-39,54h-3c0,0,0,-39,0,-73c0,0,0,-15,0,-30c0,0,0,-15,0,-28c0,0,0,-14,0,-24c0,0,0,-11,0,-17V-199c0,0,0,-33,10,-54c0,0,10,-21,28,-31c0,0,17,-11,41,-14c0,0,23,-4,49,-4h5v-64Z" 
id="f0_5"
transform="scale(0.001,-0.001)" />

<path d="M28,0V64H40c0,0,25,0,49,4c0,0,22,3,39,16c0,0,17,11,27,32c0,0,10,21,10,58V993c0,0,0,33,-10,54c0,0,-11,21,-27,32c0,0,-18,11,-40,15c0,0,-24,3,-48,3H28v64H308V825c0,0,0,-22,0,-43c0,0,-1,-24,-4,-43c0,0,0,-23,0,-44h6c0,0,68,139,225,139c0,0,65,-1,115,-17c0,0,50,-18,85,-54c0,0,34,-37,52,-93c0,0,18,-58,18,-135V174c0,0,0,-37,9,-58c0,0,9,-21,24,-32c0,0,16,-13,38,-16c0,0,21,-4,47,-4h4V0H662V527c0,0,0,50,-9,89c0,0,-10,39,-29,66c0,0,-20,26,-52,41c0,0,-33,13,-78,13c0,0,-49,0,-82,-17c0,0,-35,-18,-58,-50c0,0,-24,-33,-34,-78c0,0,-11,-46,-11,-102V166c0,0,0,-33,10,-53c0,0,10,-22,27,-32c0,0,17,-10,40,-13c0,0,22,-4,48,-4h5V0Z" 
id="f0_1g"
transform="scale(0.001,-0.001)" />

<path d="M46,-234v64c0,0,74,23,110,58c0,0,34,35,35,79c0,0,-1,15,-8,26c0,0,-9,8,-21,17c0,0,-13,6,-27,15c0,0,-15,7,-27,18c0,0,-13,9,-21,26c0,0,-8,14,-8,38c0,0,0,43,29,67c0,0,28,23,71,23c0,0,23,-1,45,-8c0,0,20,-9,37,-26c0,0,16,-17,26,-41c0,0,9,-27,9,-58c0,0,0,-48,-13,-93c0,0,-14,-46,-44,-84c0,0,-30,-40,-77,-70c0,0,-49,-31,-116,-51Z" 
id="f0_1j"
transform="scale(0.001,-0.001)" />

<path d="M702,-14c-4,0,-65,1,-100,40c0,0,-38,40,-38,111c0,0,0,70,29,207l35,158c0,0,22,92,22,143c0,0,0,90,-70,90c0,0,-85,-1,-174,-116c0,0,-91,-116,-114,-228L210,0H67L266,944c0,0,14,68,14,81c0,0,0,72,-108,72H160l14,64H455L395,880c0,0,-26,-125,-60,-253h16c0,0,126,206,283,206c0,0,163,-1,163,-170c0,0,0,-48,-27,-168L730,315c0,0,-20,-93,-20,-161c0,0,0,-73,54,-73c0,0,43,0,98,35L889,72c0,0,-100,-86,-186,-86h-1Z" 
id="f1_a"
transform="scale(0.001,-0.001)" />

<path d="M99,350v90H755V350Zm0,300v91H755V650Z" 
id="f0_n"
transform="scale(0.001,-0.001)" />

<path d="M501,385V668c0,0,0,33,0,74c0,0,0,40,0,82c0,0,0,41,0,83c0,0,0,41,6,77c0,0,-6,-11,-15,-28c0,0,-10,-18,-21,-39c0,0,-13,-23,-26,-46c0,0,-15,-24,-28,-46c0,0,-15,-24,-26,-42c0,0,-13,-21,-21,-34L136,385ZM328,0V64h43c0,0,26,0,50,4c0,0,22,3,39,16c0,0,17,11,27,32c0,0,10,21,10,58V299H26v63l472,729H643V385H833V299H643V174c0,0,0,-37,10,-58c0,0,10,-21,27,-32c0,0,16,-13,40,-16c0,0,22,-4,48,-4h21V0Z" 
id="f0_j"
transform="scale(0.001,-0.001)" />

<path d="M427,67c0,0,56,0,94,33c0,0,38,32,62,94c0,0,23,61,34,151c0,0,10,88,10,202c0,0,0,112,-10,202c0,0,-11,88,-34,150c0,0,-24,60,-61,93c0,0,-39,31,-93,31c0,0,-56,0,-94,-31c0,0,-40,-33,-63,-93c0,0,-24,-62,-34,-150c0,0,-10,-90,-10,-202c0,0,0,-114,10,-202c0,0,10,-90,34,-151c0,0,23,-62,62,-94c0,0,38,-33,93,-33Zm0,-81c0,0,-94,0,-161,39c0,0,-69,41,-112,115c0,0,-44,73,-64,178c0,0,-22,103,-21,230c0,0,-1,126,21,230c0,0,20,103,64,176c0,0,44,72,112,113c0,0,67,39,163,39c0,0,89,0,157,-39c0,0,65,-41,111,-113c0,0,45,-73,67,-176c0,0,21,-104,22,-231c0,0,-1,-127,-22,-230c0,0,-22,-104,-67,-177C697,140,652,66,585,25c0,0,-67,-39,-158,-39Z" 
id="f0_h"
transform="scale(0.001,-0.001)" />

<path d="M433,-14c0,0,-77,0,-141,23c0,0,-64,23,-110,74c0,0,-46,50,-72,130c0,0,-26,79,-26,192c0,0,0,122,26,205c0,0,26,82,72,132c0,0,46,49,108,71c0,0,61,21,134,21c0,0,47,0,96,-9c0,0,47,-10,85,-29c0,0,38,-19,62,-49c0,0,23,-30,24,-69c0,0,0,-54,-35,-74c0,0,-35,-22,-102,-22c0,0,0,35,-6,68c0,0,-6,32,-20,56c0,0,-15,24,-39,38c0,0,-26,14,-65,14c0,0,-44,0,-79,-16c0,0,-35,-18,-61,-57c0,0,-26,-40,-39,-108c0,0,-13,-69,-13,-170c0,0,-1,-164,54,-243c0,0,54,-80,177,-80h1c6,0,72,1,123,30c0,0,52,30,79,77c0,0,11,-10,19,-24c0,0,7,-15,7,-36c0,0,0,-27,-16,-52c0,0,-17,-26,-49,-47C627,32,594,10,546,0c0,0,-48,-14,-113,-14Z" 
id="f0_8"
transform="scale(0.001,-0.001)" />

<path d="M222,-9c-1,0,-2,0,-3,0c0,0,-1,0,-3,0c-6,0,-22,0,-35,5c0,0,-18,4,-30,16c0,0,-14,12,-21,32c0,0,-8,20,-8,49c0,0,0,30,8,50c0,0,7,19,21,32c0,0,12,11,30,17c0,0,17,5,38,5c0,0,18,0,37,-5c0,0,16,-6,30,-17c0,0,12,-13,21,-32c0,0,8,-20,8,-50c0,0,0,-29,-8,-49c0,0,-9,-20,-21,-32C286,12,272,0,256,-4c0,0,-17,-5,-34,-5Z" 
id="f0_17"
transform="scale(0.001,-0.001)" />

<path d="M465,553c0,0,67,0,112,15c0,0,44,14,71,44c0,0,26,30,39,75c0,0,11,45,11,104c0,0,-1,61,-12,105c0,0,-14,42,-41,70c0,0,-29,27,-74,40c0,0,-46,12,-110,12H357V553ZM982,0C963,0,909,0,873,5c0,0,-46,5,-79,20c0,0,-32,15,-54,42c0,0,-24,26,-49,70L484,481H357V166c0,0,0,-33,11,-53c0,0,9,-22,27,-32c0,0,16,-10,40,-13c0,0,22,-4,48,-4h20V0H58V64H78c0,0,24,0,48,4c0,0,22,3,40,13c0,0,16,10,27,32c0,0,10,20,10,53V923c0,0,0,33,-10,54c0,0,-11,20,-27,32c0,0,-18,11,-40,14c0,0,-24,3,-48,3H58v65H469c0,0,198,-1,296,-73c0,0,97,-74,97,-222c0,0,-1,-62,-20,-107c0,0,-20,-46,-52,-80c0,0,-33,-33,-72,-55c0,0,-41,-23,-81,-36L847,186c0,0,38,-61,75,-91c0,0,37,-31,85,-31h5V0H990c0,0,-3,0,-8,0Z" 
id="f0_1u"
transform="scale(0.001,-0.001)" />

<path d="M321,-14c0,0,-58,0,-104,11c0,0,-48,7,-80,29c0,0,-33,20,-50,51c0,0,-18,30,-18,70c0,0,0,30,10,51c0,0,10,20,25,33c0,0,14,11,31,17c0,0,16,4,30,4c0,0,0,-41,8,-75c0,0,8,-36,28,-61c0,0,18,-28,51,-42c0,0,31,-16,78,-16c0,0,41,0,72,11c0,0,31,9,53,28c0,0,21,18,32,44c0,0,11,25,11,56c0,0,0,28,-8,49c0,0,-9,20,-30,38c0,0,-21,17,-58,37c0,0,-37,18,-92,42c0,0,-59,26,-102,51c0,0,-45,23,-72,52c0,0,-29,28,-43,65c0,0,-15,35,-14,86c0,0,-1,52,21,92c0,0,20,40,58,68c0,0,38,26,91,41c0,0,52,15,118,15c0,0,54,0,96,-12c0,0,41,-11,70,-30c0,0,28,-19,43,-44c0,0,14,-27,14,-55c0,0,-1,-42,-28,-66c0,0,-29,-25,-80,-25c-1,0,-2,0,-2,0c0,0,0,76,-32,119c0,0,-32,42,-100,42c0,0,-39,0,-66,-9c0,0,-28,-9,-45,-25c0,0,-18,-17,-26,-39c0,0,-8,-22,-8,-49c0,0,0,-29,10,-50c0,0,10,-22,34,-39c0,0,22,-18,59,-35c0,0,36,-17,86,-38c0,0,60,-26,104,-50c0,0,43,-24,72,-54c0,0,27,-29,41,-65c0,0,13,-37,13,-84c0,0,-1,-60,-21,-105c0,0,-23,-45,-62,-74C539,46,499,14,445,0c0,0,-56,-14,-124,-14Z" 
id="f0_4"
transform="scale(0.001,-0.001)" />

<path d="M67,0L195,614c0,0,9,42,9,69c0,0,0,72,-121,72H70l14,64H354L322,599h16c0,0,61,137,121,186c0,0,59,49,139,49c0,0,125,0,125,-105c0,0,-1,-117,-127,-117c0,0,0,121,-61,121c0,0,-71,0,-150,-139c0,0,-80,-140,-118,-316L210,0Z" 
id="f1_4"
transform="scale(0.001,-0.001)" />

<path d="M377,-14c-2,0,-3,0,-4,0c0,0,-86,0,-140,14c0,0,-57,14,-89,37c0,0,-33,21,-46,50c0,0,-14,26,-14,52c0,0,0,42,24,66c0,0,23,23,73,24c0,0,-1,-34,11,-61c0,0,11,-28,35,-49c0,0,22,-21,57,-32c0,0,33,-12,77,-12c1,0,2,0,4,0c0,0,47,0,87,13c0,0,39,12,69,43c0,0,29,29,46,80c0,0,16,49,16,122c0,0,0,60,-16,105c0,0,-17,44,-47,74c0,0,-31,30,-73,45c0,0,-43,14,-96,14c0,0,-40,0,-68,-3c0,0,-29,-3,-50,-7c0,0,-23,-6,-39,-11c0,0,-17,-7,-31,-12l-36,10l49,541H690V859H630l-6,45c0,0,-3,16,-6,28c0,0,-5,12,-14,20c0,0,-9,7,-24,11c0,0,-16,3,-39,4H245L216,631c0,0,23,8,67,17c0,0,42,7,111,8c0,0,74,0,138,-20c0,0,63,-21,110,-61c0,0,47,-40,74,-101c0,0,26,-61,26,-141c0,0,0,-79,-24,-142c0,0,-26,-64,-73,-110C645,81,597,35,529,10c0,0,-67,-24,-152,-24Z" 
id="f0_u"
transform="scale(0.001,-0.001)" />

<path d="M147,0V64H249c0,0,26,0,49,4c0,0,23,3,40,16c0,0,16,11,27,32c0,0,9,21,9,58V976c0,0,-29,-35,-55,-64c0,0,-27,-29,-50,-50c0,0,-24,-22,-46,-32c0,0,-22,-12,-44,-12c0,0,-1,0,-1,0c0,0,-1,0,-1,0c-3,0,-35,0,-55,23c0,0,-21,21,-21,59c0,0,23,5,47,15c0,0,23,7,50,22c0,0,25,13,57,34c0,0,30,18,69,47l107,79h98V174c0,0,-1,-37,10,-58c0,0,9,-21,26,-32c0,0,17,-13,41,-16c0,0,22,-4,48,-4h75V0Z" 
id="f0_m"
transform="scale(0.001,-0.001)" />

<path d="M43,0V64H55c0,0,26,0,49,4c0,0,23,3,40,16c0,0,16,11,27,32c0,0,10,21,10,58V650c0,0,0,33,-10,55c0,0,-11,20,-28,31c0,0,-17,11,-39,15c0,0,-24,3,-49,4H51v64H298L318,695h7c0,0,23,42,51,70c0,0,25,27,56,43c0,0,29,14,63,21c0,0,32,5,69,5c0,0,60,-1,108,-17c0,0,47,-18,81,-54c0,0,32,-37,50,-93c0,0,17,-58,18,-135V174c0,0,0,-37,9,-58c0,0,7,-21,23,-32c0,0,16,-13,38,-16c0,0,21,-4,47,-4h5V0H677V527c0,0,0,50,-9,89c0,0,-10,39,-29,66c0,0,-20,26,-52,41c0,0,-33,13,-78,13c0,0,-53,0,-88,-20c0,0,-36,-20,-57,-54c0,0,-22,-35,-31,-79c0,0,-10,-45,-9,-94V166c0,0,0,-33,10,-53c0,0,10,-22,27,-32c0,0,16,-10,40,-13c0,0,22,-4,48,-4h5V0Z" 
id="f0_b"
transform="scale(0.001,-0.001)" />

<path d="M351,-291c2,0,3,0,5,0c0,0,1,0,2,0c12,0,84,1,134,15c0,0,52,13,84,38c0,0,31,23,44,58c0,0,12,34,13,74c0,0,0,35,-10,59c0,0,-11,22,-30,35c0,0,-20,12,-49,17c0,0,-29,5,-67,5H327c0,0,-33,0,-62,-5c0,0,-31,-5,-54,-20c0,0,-24,-17,-38,-44c0,0,-15,-29,-14,-74c0,0,0,-34,9,-63c0,0,9,-29,31,-50c0,0,23,-22,61,-33c0,0,35,-12,91,-12Zm34,658c0,0,1,0,1,0c0,0,37,0,64,11c0,0,24,11,42,35c0,0,15,22,23,59c0,0,7,35,7,86c0,0,0,103,-31,152c0,0,-31,49,-106,49c0,0,-74,0,-105,-50c0,0,-33,-50,-32,-153c0,0,0,-98,32,-143c0,0,32,-46,105,-46ZM353,-366c-8,0,-162,1,-239,59c0,0,-80,59,-79,164c0,0,0,45,16,78c0,0,15,34,42,58c0,0,26,22,61,38c0,0,34,14,72,21c0,0,-16,7,-31,18c0,0,-14,11,-26,27c0,0,-13,16,-20,36c0,0,-8,20,-7,45c0,0,0,45,24,79c0,0,23,32,76,64c0,0,-33,13,-58,37c0,0,-27,23,-44,54c0,0,-18,30,-27,65c0,0,-10,36,-9,74c0,0,0,66,18,119c0,0,18,51,53,89c0,0,36,36,90,56c0,0,53,18,126,19c0,0,28,-1,54,-4c0,0,26,-4,50,-11c0,0,22,-8,41,-16c0,0,18,-9,29,-19c0,0,12,12,27,27c0,0,14,14,33,27c0,0,19,12,41,20c0,0,21,7,47,8c0,0,23,-1,40,-6c0,0,17,-7,28,-17c0,0,11,-11,17,-25c0,0,5,-15,5,-31c0,0,0,-17,-4,-31c0,0,-6,-15,-15,-25c0,0,-10,-12,-25,-17c0,0,-15,-7,-36,-7c0,0,0,9,-2,18c0,0,-3,9,-8,17c0,0,-6,7,-16,13c0,0,-10,4,-25,4c0,0,-19,0,-35,-4c0,0,-16,-5,-31,-14c0,0,26,-33,44,-76c0,0,16,-44,16,-109c0,0,-1,-57,-17,-105c0,0,-17,-48,-51,-82c0,0,-35,-36,-86,-56c0,0,-52,-19,-121,-19H348c0,0,-11,0,-21,1c0,0,-10,1,-15,3c0,0,-15,-9,-29,-17c0,0,-13,-9,-23,-20c0,0,-11,-11,-16,-25c0,0,-6,-15,-6,-32c0,0,-1,-19,7,-29c0,0,7,-12,20,-18c0,0,12,-7,30,-8c0,0,17,-2,38,-2H506c0,0,68,-1,116,-17c0,0,48,-17,78,-47c0,0,30,-32,44,-73c0,0,14,-41,14,-90c0,0,-1,-67,-24,-119c0,0,-25,-53,-75,-89c0,0,-50,-38,-126,-58c0,0,-77,-20,-180,-20Z" 
id="f0_e"
transform="scale(0.001,-0.001)" />

<path d="M365,0L119,674c0,0,-9,23,-18,39c0,0,-11,15,-23,26c0,0,-12,8,-29,12c0,0,-17,3,-39,4H6v64H388V755H369c0,0,-47,0,-69,-18c0,0,-24,-18,-23,-56c0,0,-1,-13,3,-25c0,0,3,-14,9,-31L392,336c0,0,10,-26,21,-58c0,0,9,-33,20,-65c0,0,8,-31,16,-59c0,0,7,-29,11,-47h5c0,0,3,16,12,41c0,0,8,23,20,53c0,0,10,27,22,58c0,0,11,29,22,57L650,614c0,0,8,19,12,36c0,0,3,16,3,30c0,0,0,38,-25,57c0,0,-26,18,-76,18H553v64H880V755H862c0,0,-23,0,-38,-5c0,0,-17,-6,-29,-18c0,0,-12,-14,-24,-37c0,0,-12,-24,-26,-59L504,0Z" 
id="f0_d"
transform="scale(0.001,-0.001)" />

<path d="M58,-366v72h1c8,0,79,1,133,23c0,0,55,24,97,64c0,0,39,40,68,95c0,0,26,55,45,118L119,674c0,0,-10,23,-20,39c0,0,-10,14,-21,25c0,0,-13,9,-29,13c0,0,-17,3,-39,4H6v64H373V755h-4c0,0,-47,0,-69,-18c0,0,-24,-18,-23,-56c0,0,-1,-13,3,-25c0,0,2,-14,9,-31L401,353c0,0,9,-27,22,-57c0,0,11,-31,22,-61c0,0,9,-31,18,-57c0,0,7,-28,11,-47h4c0,0,8,34,23,82c0,0,14,48,34,103L637,614c0,0,7,19,11,36c0,0,2,16,2,30c0,0,0,38,-24,57c0,0,-26,18,-76,18h-5v64H863V755h-4c0,0,-23,0,-38,-5c0,0,-18,-6,-30,-18c0,0,-13,-14,-24,-37c0,0,-11,-24,-25,-59L510,-5c0,0,-27,-74,-50,-130c0,0,-25,-56,-50,-95c0,0,-27,-41,-57,-67c0,0,-32,-26,-71,-41c0,0,-40,-17,-91,-22c0,0,-51,-6,-119,-6Z" 
id="f0_1a"
transform="scale(0.001,-0.001)" />

<path d="M413,510c0,0,36,0,67,11c0,0,30,9,55,27c0,0,23,15,42,39c0,0,16,22,27,47v3c0,0,0,101,-15,174c0,0,-15,72,-41,119c0,0,-27,47,-62,70c0,0,-36,22,-81,22c0,0,-81,-1,-125,-71c0,0,-45,-71,-45,-206c0,0,0,-62,11,-107c0,0,11,-46,34,-73c0,0,22,-29,55,-41c0,0,33,-14,78,-14ZM350,-16c-1,0,-2,0,-3,0c0,0,-1,0,-2,0c-12,0,-68,0,-106,12c0,0,-44,9,-67,29c0,0,-27,18,-36,42c0,0,-11,23,-11,48c0,0,0,27,15,48c0,0,14,18,31,25c0,0,10,-25,26,-46c0,0,15,-22,37,-38c0,0,23,-17,51,-27c0,0,27,-10,61,-10c1,0,3,0,4,0c0,0,127,0,189,114c0,0,61,112,61,343c0,0,-17,-20,-38,-39c0,0,-23,-20,-50,-33c0,0,-28,-16,-61,-23c0,0,-34,-9,-74,-9c0,0,-67,0,-121,19c0,0,-56,19,-95,59c0,0,-40,38,-62,97c0,0,-21,58,-21,135c0,0,0,83,22,153c0,0,22,67,65,118c0,0,41,49,103,78c0,0,59,27,137,27c0,0,77,0,143,-30c0,0,64,-30,112,-92c0,0,48,-63,75,-160c0,0,25,-97,26,-231c0,0,0,-80,-10,-156c0,0,-10,-77,-31,-145c0,0,-23,-68,-55,-124c0,0,-33,-58,-79,-98C586,70,539,28,480,6c0,0,-57,-22,-130,-22Z" 
id="f0_1y"
transform="scale(0.001,-0.001)" />

<path d="M424,55c0,0,50,0,91,16c0,0,41,14,70,42c0,0,27,27,44,64c0,0,16,36,16,81c0,0,0,39,-15,72c0,0,-15,33,-46,65c0,0,-33,29,-83,60c0,0,-51,28,-125,61c0,0,-73,-39,-115,-100c0,0,-42,-63,-42,-149c0,0,0,-48,13,-86c0,0,12,-40,39,-67c0,0,24,-29,64,-43c0,0,39,-16,89,-16Zm31,565c0,0,43,21,72,45c0,0,27,21,44,50c0,0,16,27,23,59c0,0,7,32,7,73c0,0,0,34,-9,68c0,0,-11,34,-30,61c0,0,-22,25,-54,42c0,0,-34,16,-82,16c0,0,-43,0,-75,-13c0,0,-34,-15,-56,-39c0,0,-23,-24,-34,-58c0,0,-13,-34,-12,-73c0,0,0,-42,14,-74c0,0,12,-33,38,-59c0,0,25,-27,65,-50c0,0,38,-25,89,-48ZM421,-14c-1,0,-3,0,-4,0c0,0,-87,0,-151,21c0,0,-65,23,-108,62c0,0,-45,39,-65,92c0,0,-23,52,-23,113c0,0,0,54,18,97c0,0,16,41,49,74c0,0,31,32,73,58c0,0,42,25,93,50c0,0,-44,24,-80,53c0,0,-37,28,-63,63c0,0,-26,34,-40,75c0,0,-15,40,-15,89c0,0,-1,52,19,102c0,0,18,49,58,87c0,0,39,37,103,61c0,0,62,23,151,23c0,0,71,0,127,-19c0,0,55,-21,95,-55c0,0,38,-35,58,-83c0,0,20,-49,20,-106c0,0,0,-51,-15,-88c0,0,-15,-38,-41,-68c0,0,-27,-31,-65,-54c0,0,-39,-25,-85,-48c0,0,57,-28,104,-58c0,0,46,-30,80,-66c0,0,33,-37,52,-78c0,0,18,-41,18,-91c0,0,-1,-73,-26,-129c0,0,-26,-59,-74,-97C684,66,636,26,568,6c0,0,-66,-20,-147,-20Z" 
id="f0_w"
transform="scale(0.001,-0.001)" />

<path d="M58,0V64H78c0,0,25,0,49,4c0,0,22,3,39,16c0,0,17,11,27,32c0,0,10,21,10,58V923c0,0,0,33,-10,54c0,0,-11,20,-27,32c0,0,-18,11,-40,14c0,0,-24,3,-48,3H58v65H503v-65H483c0,0,-26,0,-49,-3c0,0,-24,-4,-39,-15c0,0,-18,-13,-27,-34c0,0,-11,-21,-11,-57V608H854V917c0,0,0,36,-10,57c0,0,-10,21,-26,34c0,0,-18,11,-40,15c0,0,-24,3,-49,3H709v65h444v-65h-19c0,0,-26,0,-49,-3c0,0,-23,-4,-40,-15c0,0,-17,-13,-27,-34c0,0,-10,-21,-9,-57V166c0,0,0,-33,10,-53c0,0,10,-22,27,-32c0,0,16,-10,40,-13c0,0,22,-4,48,-4h19V0H709V64h20c0,0,25,0,49,4c0,0,22,3,40,16c0,0,16,11,26,32c0,0,10,21,10,58V532H357V174c0,0,0,-37,11,-58c0,0,9,-21,27,-32c0,0,15,-13,39,-16c0,0,23,-4,49,-4h20V0Z" 
id="f0_15"
transform="scale(0.001,-0.001)" />

<path d="M7,0V64H22c0,0,26,0,48,5c0,0,20,4,40,15c0,0,18,11,37,31c0,0,19,19,41,47L380,411L188,674c0,0,-34,38,-65,60c0,0,-33,21,-66,21H37v64H424V755h-4c0,0,-27,0,-43,-3c0,0,-17,-5,-27,-10c0,0,-11,-7,-14,-15c0,0,-3,-8,-3,-17c0,0,-1,-16,9,-30c0,0,9,-17,27,-40L469,503l79,114c0,0,17,25,28,49c0,0,10,23,10,44c0,0,0,28,-23,37c0,0,-24,7,-59,8h-4v64H834V755H821c0,0,-23,-1,-41,-4c0,0,-19,-4,-36,-14c0,0,-17,-11,-36,-30c0,0,-19,-20,-42,-50L509,448L733,145c0,0,34,-44,64,-62c0,0,29,-19,57,-19q1,0,2,0h20V0H481V64h8c0,0,91,0,91,51c0,0,0,7,-2,17c0,0,-2,8,-9,20c0,0,-7,11,-18,28c0,0,-11,16,-29,40L420,357L313,208c0,0,-6,-9,-14,-21c0,0,-8,-12,-13,-24c0,0,-7,-14,-10,-26c0,0,-4,-13,-4,-25c0,0,0,-27,22,-37c0,0,21,-11,73,-11h4V0Z" 
id="f0_1o"
transform="scale(0.001,-0.001)" />

<path d="M223,-9c-1,0,-2,0,-3,0c0,0,-1,0,-2,0c-6,0,-22,0,-35,5c0,0,-19,4,-31,16c0,0,-13,12,-21,32c0,0,-8,20,-7,49c0,0,-1,30,7,50c0,0,8,19,21,32c0,0,12,11,31,17c0,0,16,5,37,5c0,0,19,0,37,-5c0,0,17,-6,31,-17c0,0,12,-13,21,-32c0,0,7,-20,7,-50c0,0,0,-29,-7,-49c0,0,-9,-20,-21,-32C288,12,274,0,257,-4c0,0,-16,-5,-34,-5Zm0,627c-1,0,-2,0,-3,0c0,0,-1,0,-2,0c-6,0,-22,1,-35,6c0,0,-19,5,-31,18c0,0,-13,11,-21,32c0,0,-8,20,-7,49c0,0,-1,30,7,50c0,0,8,18,21,31c0,0,12,11,31,17c0,0,16,6,37,6c0,0,19,0,37,-6c0,0,17,-6,31,-17c0,0,12,-13,21,-31c0,0,7,-20,7,-50c0,0,0,-29,-7,-49c0,0,-9,-21,-21,-32c0,0,-14,-13,-31,-18c0,0,-16,-6,-34,-6Z" 
id="f0_1l"
transform="scale(0.001,-0.001)" />

<path d="M78,0V112L333,407c0,0,61,70,103,126c0,0,40,56,66,106c0,0,25,49,37,97c0,0,11,47,11,100c0,0,0,43,-9,79c0,0,-11,35,-29,61c0,0,-19,25,-48,40c0,0,-31,13,-70,13c0,0,-53,0,-84,-18c0,0,-33,-20,-52,-50c0,0,-19,-31,-25,-73c0,0,-7,-41,-7,-86c0,0,-28,0,-51,4c0,0,-24,4,-42,17c0,0,-18,11,-28,30c0,0,-10,19,-10,48c0,0,0,43,19,82c0,0,19,37,57,65c0,0,36,28,93,43c0,0,56,15,130,15c0,0,72,0,130,-18c0,0,56,-19,97,-51c0,0,41,-34,62,-81c0,0,21,-47,21,-105c0,0,-1,-54,-17,-104c0,0,-18,-52,-50,-104c0,0,-33,-54,-80,-111c0,0,-48,-58,-108,-124L191,122H545c7,0,36,1,56,10c0,0,21,10,36,25c0,0,14,15,22,37c0,0,7,20,13,42l6,28h61V0Z" 
id="f0_x"
transform="scale(0.001,-0.001)" />

<path d="M439,497c0,0,69,0,118,15c0,0,49,14,81,47c0,0,31,32,46,83c0,0,14,50,14,123c0,0,-1,64,-12,112c0,0,-14,47,-41,79c0,0,-29,31,-74,47c0,0,-46,14,-110,15H357V497ZM58,0V64H78c0,0,25,0,49,4c0,0,22,3,39,16c0,0,17,11,27,32c0,0,10,21,10,58V923c0,0,0,33,-10,54c0,0,-11,20,-27,32c0,0,-18,11,-40,14c0,0,-24,3,-48,3H58v65H487c0,0,96,-1,167,-22c0,0,70,-22,117,-63c0,0,46,-42,70,-101c0,0,22,-60,22,-134c0,0,0,-68,-21,-130c0,0,-22,-63,-70,-111c0,0,-48,-49,-127,-76c0,0,-79,-30,-191,-30H357V166c0,0,0,-33,11,-53c0,0,9,-22,27,-32c0,0,16,-10,40,-13c0,0,22,-4,48,-4h50V0Z" 
id="f0_1h"
transform="scale(0.001,-0.001)" />

<path d="M229,0V64h35c0,0,25,0,49,4c0,0,22,3,39,13c0,0,17,10,28,32c0,0,9,20,9,53v849H243c0,0,-33,0,-56,-10c0,0,-24,-11,-37,-28c0,0,-15,-17,-22,-39c0,0,-8,-24,-10,-49l-8,-65H34v267H902V824H827l-8,65c0,0,-4,25,-10,49c0,0,-9,22,-22,39c0,0,-15,17,-37,28c0,0,-24,10,-58,10H544V174c0,0,0,-37,10,-58c0,0,10,-21,27,-32c0,0,16,-13,40,-16c0,0,22,-4,48,-4h35V0Z" 
id="f0_1n"
transform="scale(0.001,-0.001)" />

<path d="M380,219V501H99v91H380V874h92V592H755V501H472V219Z" 
id="f0_y"
transform="scale(0.001,-0.001)" />

<path d="M454,497c0,0,322,0,322,297c0,0,-1,223,-223,224H483L373,497ZM-30,0l14,64H4c6,0,71,1,103,28c0,0,32,27,43,82L309,923c0,0,5,27,6,42c0,0,0,61,-111,61H185l13,65H590c0,0,166,0,257,-77c0,0,90,-78,91,-218c0,0,0,-174,-117,-272C821,524,704,424,473,424q-1,0,-2,0H357L303,168c0,0,-7,-31,-7,-43c0,0,-1,-61,109,-61c0,0,1,0,2,0h50L443,0Z" 
id="f1_b"
transform="scale(0.001,-0.001)" />

<path d="M133,732L87,1091H249L203,732Z" 
id="f0_1s"
transform="scale(0.001,-0.001)" />

<path d="M394,23c0,0,80,0,129,45c0,0,48,45,48,110c0,0,0,54,-28,97c0,0,-53,79,-214,206c0,0,-62,-52,-92,-114c0,0,-30,-61,-30,-133c0,0,0,-96,53,-154c0,0,52,-57,134,-57Zm17,566c0,0,90,81,114,128c0,0,24,46,24,105c0,0,0,79,-44,123c0,0,-44,45,-121,45c0,0,-76,0,-124,-45c0,0,-48,-44,-48,-103c0,0,0,-38,20,-77c0,0,20,-39,56,-74L411,589ZM382,-17c0,0,-144,0,-225,90c0,0,-64,72,-64,158c0,0,0,67,45,133c0,0,45,66,156,146c0,0,-121,98,-156,158c0,0,-34,59,-34,124c0,0,0,98,76,169c0,0,76,72,202,72c0,0,123,0,198,-67c0,0,74,-66,74,-151c0,0,0,-57,-40,-116c0,0,-40,-59,-168,-139c0,0,132,-101,174,-159c0,0,57,-76,57,-161c0,0,0,-106,-82,-182c0,0,-81,-75,-213,-75Z" 
id="f2_s"
transform="scale(0.001,-0.001)" />

<path d="M33,0V27c0,0,264,241,371,393c0,0,108,152,108,278c0,0,0,96,-59,158c0,0,-59,62,-141,62c0,0,-75,0,-134,-43c0,0,-59,-44,-88,-128H63c0,0,18,138,95,212c0,0,77,74,193,74c0,0,123,0,205,-80c0,0,83,-79,83,-186c0,0,0,-77,-36,-154c0,0,-55,-121,-179,-256C424,357,238,154,191,112H455c0,0,81,0,114,6c0,0,32,6,58,25c0,0,27,18,46,52h27L630,0Z" 
id="f2_m"
transform="scale(0.001,-0.001)" />


</defs>
</svg>